<?xml version="1.0" encoding="UTF-8"?>
<svg id="Capa_2" data-name="Capa 2" xmlns="http://www.w3.org/2000/svg" viewBox="0 0 74.22 58.51">
  <defs>
    <style>
      .cls-1 {
        fill: #000;
        stroke-width: 0px;
      }
    </style>
  </defs>
  <g id="Capa_1-2" data-name="Capa 1">
    <g>
      <path class="cls-1" d="M49.21,58.3c-7.58,1.4-13.26-4.33-15.84-11.24-8.54,7.59-19.09,1.25-24.63-7.09C2.71,30.88.88,18.54,0,7.67c-.05-.61.25-1.46.6-1.74.38-.31,1.3-.57,1.87-.43,6.49,1.55,13,1.98,19.54.66,5.24-1.06,9.89-3.2,14.47-5.88.51-.3,1.4-.34,1.89-.13.42.17.99.86,1.09,1.41l1.7,8.63c9.8,6.67,18.93,8.82,30.81,7.45.51-.06,1.4.22,1.72.52s.6,1.09.5,1.62c-1.25,6.83-2.9,13.44-5.61,19.84-3.62,8.52-10.04,16.97-19.37,18.7ZM29.93,47.53c5.48-3.11,8.93-9.96,10.07-16.14,1.78-9.64.03-20.12-2.25-29.93l-4.66,2.44C23.08,9.04,12.66,9.63,1.59,6.96c.43,6.53,1.3,12.56,2.78,18.66,1.68,6.89,4.72,13.58,9.93,18.39,4.31,3.98,10.3,6.55,15.63,3.52ZM48.58,56.78c4.06-.67,7.55-2.74,10.52-5.61,8-7.71,11.69-21,13.55-31.96l-3.8.29c-9.72.74-19.16-1.67-27.38-7.25.59,4.82,1,9.3.82,13.97,1.27.53,2.51.84,3.79.76.52-.08,1.17.04,1.47.32s.45,1.23.24,1.56c-1.33,2.17-3.81,2.86-6.1,1.98-.89,5.72-3.14,10.84-7.03,15.02,2.11,6.21,6.99,12.07,13.92,10.93Z"/>
      <path class="cls-1" d="M27.24,39.87c-7.35,3.13-13.21-4.78-12.16-6.17.19-.26.99-.39,1.32-.25,5.16,2.21,10.72,1.34,15-2.26.24-.2.83-.38,1.11-.36,1.7.12-.07,6.84-5.27,9.05Z"/>
      <path class="cls-1" d="M18.85,23.71c-.52,1.11-3.75-1.42-8.09,1.32-.22.14-.85.18-1.04.05-1.15-.83.13-5.83,4.21-6.02,3.04-.14,5.56,3.28,4.92,4.65Z"/>
      <path class="cls-1" d="M34.48,21.4c-2.58-.77-5.02-.36-7.13,1.11l-.85.06c-1.05.07-.59-5.12,3.35-6.01,2.59-.58,4.97,1.22,5.67,3.73.16.59-.44,1.18-1.04,1.11Z"/>
      <path class="cls-1" d="M53.41,49.6c-3.34-3.99-8.66-5.42-13.55-3.61-.38-.07-.76-.15-.96-.27s-.18-.76-.12-1.03c1.78-3.66,5.75-5.55,9.69-4.61,3.77.95,6.49,4.41,6.49,8.56,0,.3-.15.87-.32,1.06-.2.23-.91.1-1.24-.09Z"/>
      <path class="cls-1" d="M62.97,31.32c.4-.08,1.02.75,1.01,1.1-.04,1.65-2.54,3.42-4.94,3.08-2.8-.4-4.76-4.13-4.07-5.48.52-1.02,1.74-.65,2.4-.1,1.64,1.36,3.41,1.85,5.6,1.4Z"/>
    </g>
  </g>
</svg>