<?xml version="1.0" encoding="UTF-8"?>
<svg id="Capa_2" data-name="Capa 2" xmlns="http://www.w3.org/2000/svg" viewBox="0 0 70.74 71.72">
  <defs>
    <style>
      .cls-1 {
        fill: #000;
        stroke-width: 0px;
      }
    </style>
  </defs>
  <g id="Capa_1-2" data-name="Capa 1">
    <g>
      <path class="cls-1" d="M27.74,66c-7.02-.74-13.44-3.3-18.61-7.96C1.29,51-1.85,40.01,1.08,29.83,5.07,15.94,18.23,6.38,32.65,6.73c2.34.06,4.49.43,6.47,1.43,2.85,1.44,4.4,4.5,3.55,7.58l-1.2,4.35c-.69,2.48.61,4.95,2.91,6.02,1.22.57,2.59.83,3.91.95l6.04-7.84c-1.46-5.42.94-9.43,5.34-12.72,3.04-2.28,6.1-4.31,9.3-6.37.59-.38,1.74.09,1.76.76.08,3.65-.19,7.13-.81,10.71-.94,5.4-3.41,10.66-9.1,11.45l-3.4,7.91c4.7,3.1,5.76,8.99,4.43,14.25-3.06,12.14-14.85,19.61-26.91,20.93l-3.48,4.55c-.69.9-2.02,1.23-2.96.88-1.03-.38-1.83-1.4-1.68-2.7.1-.93.49-1.9.93-2.88ZM60.21,21.47c2.19-.03,4-1.2,5.28-2.86,3.07-3.96,3.64-11.54,3.77-16.86l-6.73,4.58c-2.1,1.43-3.99,3-5.5,5-1.53,2.39-2.06,5.18-.96,7.78l4.15,2.37ZM47.22,28.5c-2.78-.4-4.9-1.36-6.41-3.3-1.14-1.74-1.34-3.82-.84-5.85l1.08-3.84c.68-2.4-.39-4.83-2.66-5.93-1.74-.84-3.67-1.21-5.73-1.26-13.38-.29-25.62,8.26-29.73,20.96-4,12.36,1.48,25.44,12.89,31.5,3.89,2.07,8.11,3.29,12.55,3.64l13.84-27.59c1.5-2.99,3.24-5.57,5.02-8.32ZM54.39,33.81l4.86-11.03-3.87-2.29-7.23,9.53,6.24,3.79ZM30.33,69.73l4.65-6.27,12.94-19.08,5.64-9.18-6.34-3.74c-1.61,2.57-3.02,5.1-4.46,7.78l-12.18,24.25-2.23,5.1c-.17.39.1,1.19.39,1.42s1.31.09,1.6-.29ZM60.09,45.56c1.36-4.86.78-10.1-3.44-13.1-2.13,4.49-4.63,8.71-7.49,12.94l-12.78,18.89c10.73-1.61,20.53-8.24,23.7-18.73Z"/>
      <path class="cls-1" d="M18.63,29.24c-1.12,2.12-3.37,3.01-5.5,2.5s-3.57-2.43-3.61-4.59c-.04-2.24,1.44-4.26,3.76-4.73,1.84-.37,3.63.29,4.74,1.61,1.17,1.4,1.53,3.45.6,5.21ZM13.95,23.9c-1.95.2-3.05,1.97-2.81,3.68s1.8,2.93,3.59,2.7c1.67-.21,3.02-1.71,2.78-3.57-.2-1.54-1.66-3.01-3.57-2.82Z"/>
      <path class="cls-1" d="M13.56,45.71c-2.77,1.13-5.67-.36-6.48-3.03s.79-5.49,3.6-6.04c2.5-.49,4.88.8,5.64,3.12.75,2.29-.29,4.95-2.76,5.95ZM11.02,38.14c-1.84.41-2.85,2.23-2.49,3.81.41,1.83,2.23,2.85,3.83,2.48,1.8-.42,2.93-2.25,2.51-3.92-.41-1.63-2.15-2.74-3.85-2.37Z"/>
      <path class="cls-1" d="M25.42,13.84c2.75-.42,5.08,1.49,5.49,3.86.47,2.71-1.37,5.11-3.82,5.57-2.68.51-5.09-1.25-5.61-3.67-.58-2.69,1.05-5.32,3.94-5.76ZM25.22,15.45c-1.93.65-2.68,2.57-2.11,4.19.58,1.65,2.37,2.5,3.9,2.05,1.82-.54,2.76-2.38,2.25-4-.53-1.7-2.22-2.84-4.04-2.23Z"/>
      <path class="cls-1" d="M20.61,57.28c-2.19-.13-3.69-1.72-4.18-3.44-.56-1.98.21-4.01,1.75-5.15s3.7-1.3,5.46-.24c1.95,1.19,2.62,3.46,1.97,5.54-.63,2.02-2.56,3.44-5.01,3.29ZM20.27,49.37c-1.91.48-2.8,2.37-2.29,4.11.46,1.55,2.19,2.62,3.87,2.15,1.66-.47,2.7-2.12,2.35-3.88-.31-1.59-2.08-2.85-3.93-2.39Z"/>
    </g>
  </g>
</svg>