<?xml version="1.0" encoding="UTF-8"?>
<!DOCTYPE svg PUBLIC "-//W3C//DTD SVG 1.1//EN" "http://www.w3.org/Graphics/SVG/1.1/DTD/svg11.dtd">
<!-- Creator: CorelDRAW -->
<svg xmlns="http://www.w3.org/2000/svg" xml:space="preserve" width="33.0995mm" height="33.0994mm" version="1.1" style="shape-rendering:geometricPrecision; text-rendering:geometricPrecision; image-rendering:optimizeQuality; fill-rule:evenodd; clip-rule:evenodd"
viewBox="0 0 1249.06 1249.06"
 xmlns:xlink="http://www.w3.org/1999/xlink"
 xmlns:xodm="http://www.corel.com/coreldraw/odm/2003">
 <defs>
  <style type="text/css">
   <![CDATA[
    .fil0 {fill:white;fill-rule:nonzero}
   ]]>
  </style>
 </defs>
 <g id="Capa_x0020_1">
  <metadata id="CorelCorpID_0Corel-Layer"/>
  <g id="_2426046881312">
   <path class="fil0" d="M231.84 333.38l21.27 11.38c1.9,3.49 3.09,7.49 3.79,11.88 0.6,4.39 0.3,9.29 -0.9,14.48 -1.2,5.29 -3.6,10.88 -7.19,16.87 -5.99,9.68 -12.88,17.17 -20.77,22.37 -7.89,5.19 -16.28,7.89 -25.16,7.89 -8.89,0 -17.87,-2.69 -27.06,-8.19 -8.99,-5.39 -15.48,-11.98 -19.57,-19.87 -4.09,-7.89 -5.79,-16.48 -4.89,-25.86 0.9,-9.39 4.39,-19.17 10.59,-29.36 3.89,-6.39 7.99,-11.68 12.28,-15.97 4.29,-4.29 8.49,-7.59 12.28,-9.79l20.57 12.18 -0.7 1.1c-9.19,-2.6 -16.97,-2.49 -23.26,0.3 -6.29,2.8 -11.48,7.49 -15.48,14.08 -3.89,6.39 -5.59,12.78 -5.29,19.27 0.4,6.39 2.6,12.58 6.79,18.47 4.19,5.89 10.19,11.28 18.07,15.97 7.89,4.79 15.48,7.69 22.57,8.89 7.19,1.1 13.68,0.5 19.47,-2 5.79,-2.4 10.59,-6.49 14.28,-12.38 3.69,-6.19 5.89,-11.98 6.39,-17.37 0.6,-5.39 -0.7,-10.88 -3.79,-16.28 -3.09,-5.39 -8.09,-11.08 -15.18,-17.07l0.6 -1 0.3 0.01z"/>
   <path class="fil0" d="M239.73 257.9c5.19,-5.39 10.59,-9.59 16.17,-12.58 5.59,-3 11.38,-4.79 17.17,-5.29 5.79,-0.5 11.48,0.2 16.97,2.2 5.59,2 10.79,5.39 15.68,10.08 4.89,4.59 8.39,9.68 10.68,15.08 2.2,5.39 3.2,11.08 3,16.87 -0.2,5.79 -1.8,11.58 -4.49,17.37 -2.69,5.79 -6.69,11.38 -11.78,16.77 -5.09,5.29 -10.48,9.49 -16.08,12.48 -5.59,3 -11.38,4.79 -17.17,5.29 -5.79,0.5 -11.38,-0.2 -16.87,-2.2 -5.49,-2 -10.68,-5.29 -15.48,-9.99 -4.89,-4.69 -8.59,-9.79 -10.88,-15.18 -2.3,-5.39 -3.29,-10.98 -3.09,-16.87 0.3,-5.79 1.8,-11.58 4.49,-17.37 2.69,-5.79 6.59,-11.28 11.68,-16.68l-0 0.01zm59.51 56.61c3.89,-4.09 6.19,-8.79 6.89,-13.98 0.7,-5.19 -0.3,-10.59 -2.8,-16.17 -2.49,-5.59 -6.69,-11.08 -12.28,-16.48 -5.69,-5.49 -11.48,-9.39 -17.17,-11.68 -5.69,-2.3 -11.18,-3 -16.37,-2.1 -5.19,0.9 -9.79,3.4 -13.68,7.59 -3.89,4.09 -6.09,8.69 -6.79,13.88 -0.6,5.19 0.3,10.59 2.89,16.28 2.49,5.69 6.69,11.18 12.38,16.68 5.69,5.39 11.38,9.19 17.07,11.48 5.69,2.3 11.18,2.89 16.28,2 5.19,-0.9 9.68,-3.4 13.48,-7.39l0.1 -0.1z"/>
   <path class="fil0" d="M292.25 207.48l27.76 6.59 36.44 53.72 -15.88 10.79 -39.24 -57.91c-2.69,-3.89 -5.99,-8.09 -10.08,-12.38l1 -0.7 0 -0.1zm0 0l108.43 13.68 9.88 12.08 -108.33 -13.78 -9.99 -11.98zm43.83 63.7l4.79 7.09 -8.59 5.79 -0.8 -1.2 1.9 -1.3c1.8,-1.2 2.89,-2.8 3.4,-4.69 0.5,-2 0.1,-3.79 -1,-5.49l0.3 -0.2zm15.18 -90.96c-1.2,-1.7 -2.8,-2.6 -4.79,-2.89 -2,-0.3 -3.79,0.1 -5.59,1.3l-2 1.3 -0.8 -1.2 8.59 -5.79 4.79 7.09 -0.2 0.2 0 0zm11.08 -17.87l38.94 57.41c1.8,2.69 3.49,4.99 5.09,6.89 1.6,1.9 3.29,3.89 5.19,5.79l-1 0.7 -28.46 -7.59 -35.65 -52.62 15.88 -10.79 0 0.2zm-10.79 98.35c1.2,1.7 2.8,2.6 4.79,2.89 2,0.3 3.79,-0.2 5.49,-1.3l1.9 -1.3 0.8 1.2 -8.49 5.69 -4.79 -7.09 0.2 -0.2 0.1 0.1zm15.18 -91.06l-4.79 -7.09 8.69 -5.89 0.8 1.2 -2 1.3c-1.7,1.2 -2.8,2.69 -3.29,4.69 -0.5,2 -0.2,3.79 1,5.49l-0.3 0.2 -0.11 0.1z"/>
   <path class="fil0" d="M397.48 154.16l-0.3 0c-0.9,-1.9 -2.3,-3.2 -4.19,-3.89 -1.9,-0.7 -3.89,-0.7 -5.89,0l-1.6 0.6 -0.5 -1.3 9.19 -3.69 3.29 8.19 -0 0.1zm15.28 -15.57l30.95 77.98 -18.77 7.39 -30.95 -77.98 18.77 -7.39zm16.17 -6.39c9.29,-3.69 17.87,-5.29 25.76,-4.89 7.89,0.4 14.78,2.89 20.67,7.29 5.89,4.39 10.39,10.79 13.68,18.87 3.2,8.19 4.19,15.88 3,23.06 -1.3,7.19 -4.59,13.68 -9.99,19.47 -5.39,5.79 -12.78,10.48 -22.06,14.18l-28.85 11.48 -2.3 -5.09c6.59,-2.6 11.88,-4.69 15.97,-6.29 3.99,-1.6 7.89,-3.09 11.68,-4.59 8.19,-3.2 13.38,-8.79 15.77,-16.68 2.4,-7.89 1.4,-17.07 -2.8,-27.66 -4.19,-10.59 -9.88,-17.97 -16.97,-22.06 -7.09,-4.19 -14.78,-4.59 -22.86,-1.4 -3.79,1.5 -7.89,3.09 -12.08,4.79 -4.29,1.7 -9.88,3.89 -16.77,6.69l-2 -5.09 30.45 -12.08 -0.3 -0.01zm-6.89 83.37l3.29 8.29 -9.39 3.69 -0.5 -1.3c1,-0.4 1.6,-0.6 1.7,-0.7 2,-0.8 3.4,-2.2 4.29,-4.09 0.9,-2 0.9,-3.89 0.2,-5.79l0.4 -0.2 -0 0.1z"/>
   <path class="fil0" d="M538.17 100.04c7.39,-1.2 14.18,-1.3 20.47,-0.3 6.29,1 11.88,3 16.87,6.09 4.89,3.09 8.99,7.09 12.28,11.98 3.2,4.99 5.39,10.79 6.49,17.47 1.1,6.59 0.9,12.78 -0.6,18.47 -1.5,5.69 -4.09,10.79 -7.79,15.28 -3.69,4.49 -8.39,8.19 -14.08,11.18 -5.69,3 -12.18,4.99 -19.57,6.19 -7.29,1.2 -14.08,1.3 -20.37,0.3 -6.29,-1 -11.88,-3 -16.87,-6.09 -4.99,-3.09 -8.99,-7.09 -12.18,-11.98 -3.2,-4.89 -5.29,-10.68 -6.39,-17.27 -1.1,-6.69 -0.9,-12.98 0.5,-18.67 1.4,-5.69 3.99,-10.79 7.69,-15.28 3.69,-4.49 8.39,-8.19 14.08,-11.18 5.69,-3 12.08,-4.99 19.37,-6.19l0.11 0zm13.28 81.07c5.59,-0.9 10.28,-3.29 13.98,-6.99 3.69,-3.79 6.19,-8.69 7.49,-14.58 1.3,-5.99 1.4,-12.88 0.1,-20.57 -1.3,-7.79 -3.49,-14.38 -6.69,-19.67 -3.2,-5.29 -7.09,-9.19 -11.78,-11.58 -4.69,-2.4 -9.88,-3.09 -15.48,-2.2 -5.49,0.9 -10.08,3.2 -13.78,6.99 -3.6,3.79 -6.19,8.69 -7.49,14.68 -1.4,5.99 -1.4,12.98 -0.2,20.77 1.3,7.69 3.49,14.18 6.69,19.47 3.2,5.29 7.19,9.09 11.78,11.48 4.59,2.4 9.68,3.2 15.28,2.3l0.1 -0.1z"/>
   <path class="fil0" d="M608.76 169.24l0.3 8.79 -10.08 -0.3 0 -1.4c0,0 0.4,0 0.8,0 0.4,0 0.7,0 0.9,0 2.1,0 3.79,-0.6 5.29,-2 1.5,-1.4 2.3,-3.09 2.49,-5.19l0.3 -0 0 0.1zm2.2 -66.4l-0.3 0c0,-2.2 -0.7,-3.89 -2.1,-5.29 -1.4,-1.4 -3.09,-2.1 -4.99,-2.2 -0.3,0 -0.6,0 -1.1,0 -0.4,0 -0.7,0 -0.8,0l0 -1.4c0,0 10.08,0.3 10.08,0.3l-0.8 8.69 0.01 -0.1zm20.07 -7.99l-2.69 83.87 -20.27 -0.7 2.69 -83.87 20.27 0.7zm-2.69 75.08l0.3 0c0,2.3 0.7,4.19 2.3,5.59 1.6,1.4 3.29,2.1 4.99,2.1 0.8,0 1.4,0 1.5,0l0 1.4c0,0 -10.08,-0.3 -10.08,-0.3l1 -8.79 -0 -0zm16.27 -74.68c3.89,0.1 7.69,0.7 11.28,1.6 3.6,0.9 6.79,2.3 9.68,4.09 2.8,1.8 5.09,4.19 6.69,7.19 1.6,3 2.4,6.69 2.2,11.08 -0.1,3.29 -0.9,6.49 -2.3,9.68 -1.5,3.2 -3.6,5.89 -6.59,8.09 -2.89,2.2 -6.69,3.69 -11.28,4.29 2.69,0.9 5.19,2.6 7.59,5.19 2.4,2.49 4.19,4.89 5.39,6.99 0.4,0.8 1.1,2 2,3.6 0.9,1.7 2,3.6 3.4,5.69 1.4,2.1 2.8,4.39 4.29,6.69 1.8,2.6 3.4,4.59 4.69,5.99 1.4,1.4 2.8,2.4 4.19,3 1.5,0.6 3.2,0.9 5.19,1l0 1.4c0,0 -11.78,-0.4 -11.78,-0.4 -4.99,-0.2 -9.29,-0.7 -12.78,-1.5 -3.49,-0.9 -6.39,-2.3 -8.89,-4.39 -2.49,-2.1 -4.69,-4.89 -6.89,-8.39 -0.8,-1.2 -1.6,-2.69 -2.49,-4.49 -0.9,-1.8 -1.8,-3.49 -2.6,-5.29 -0.9,-1.8 -1.6,-3.6 -2.3,-5.29 -0.6,-1.7 -1.1,-3.09 -1.3,-4.29 -1.1,-3 -2.4,-5.19 -3.89,-6.59 -1.5,-1.4 -2.89,-2.1 -4.19,-2.2l0 -1.3c1.3,0 2.49,0 3.49,0.1 2,0 3.89,-0.2 5.79,-0.9 1.9,-0.6 3.69,-1.9 5.39,-3.89 1.7,-2 2.89,-4.89 3.79,-8.79 0.2,-0.6 0.4,-1.3 0.6,-2.4 0.2,-1 0.2,-2.2 0.2,-3.49 0,-3.49 -0.6,-6.19 -1.6,-8.29 -1,-2.1 -2.3,-3.69 -3.79,-4.89 -1.6,-1.2 -3.09,-2 -4.79,-2.49 -1.6,-0.5 -3,-0.7 -4.29,-0.8 -1.8,-0.2 -3.4,-0.2 -4.79,-0.2 -1.4,0 -2.49,0 -3.29,-0.2 0,0 -0.2,-0.5 -0.4,-1.5 -0.2,-1 -0.4,-2.4 -0.7,-4.29l14.98 0.5 0.09 0.1z"/>
   <path class="fil0" d="M726.17 177.92l-3.2 9.68 -10.59 -3.49 0.4 -1.3 1.7 0.6c2.3,0.8 4.49,0.6 6.69,-0.5 2.2,-1.1 3.69,-2.8 4.49,-5.09l0.4 0 0.1 0.1zm46.93 -76.88l-30.65 92.96 -19.97 -6.59 30.65 -92.96 19.97 6.59zm-27.76 83.17l0.4 0c-0.7,2.49 -0.5,4.69 0.6,6.89 1.1,2.2 2.8,3.69 5.09,4.39 1.1,0.4 1.6,0.5 1.7,0.6l-0.4 1.3 -10.59 -3.49 3.2 -9.68 0 -0zm5.09 -79.98l-0.4 0c0.7,-2.49 0.5,-4.69 -0.6,-6.89 -1.1,-2.2 -2.8,-3.69 -5.09,-4.39l-1.7 -0.6 0.4 -1.3 10.59 3.49 -3.2 9.68 0 0zm52.42 55.31l-1.8 5.59 -45.53 -14.98 1.8 -5.59 45.53 14.98zm-33.35 -49.02l3.2 -9.68 10.59 3.49 -0.4 1.3c0,0 -0.7,-0.2 -1.7,-0.6 -2.3,-0.8 -4.59,-0.6 -6.69,0.5 -2.2,1.1 -3.69,2.8 -4.49,5.09l-0.4 0 -0.1 -0.1zm19.67 88.06l-3.2 9.68 -10.59 -3.49 0.4 -1.3c0,0 0.7,0.2 1.7,0.6 2.3,0.8 4.59,0.6 6.79,-0.5 2.2,-1.1 3.69,-2.8 4.49,-5.09l0.4 0 0 0.1zm46.93 -76.88l-30.65 92.96 -19.97 -6.59 30.65 -92.96 19.97 6.59zm-27.85 83.17l0.4 0c-0.7,2.49 -0.5,4.69 0.6,6.89 1.1,2.2 2.8,3.69 5.09,4.39l1.7 0.6 -0.4 1.3 -10.59 -3.49 3.2 -9.68 0 -0zm5.09 -79.87l-0.4 0c0.8,-2.4 0.6,-4.69 -0.6,-6.89 -1.1,-2.2 -2.89,-3.69 -5.19,-4.39 -1.1,-0.4 -1.6,-0.5 -1.7,-0.6l0.4 -1.3 10.59 3.49 -3.2 9.68 0.1 0zm19.17 6.29l3.2 -9.68 10.59 3.49 -0.4 1.3 -1.7 -0.6c-2.3,-0.8 -4.59,-0.6 -6.69,0.5 -2.2,1.1 -3.69,2.8 -4.49,5.09l-0.4 0 -0.1 -0.1z"/>
   <path class="fil0" d="M899 169.34c6.39,3.89 11.68,8.19 15.77,13.08 4.19,4.89 7.09,10.08 8.89,15.58 1.8,5.59 2.3,11.28 1.5,17.07 -0.8,5.89 -2.89,11.68 -6.39,17.57 -3.49,5.79 -7.59,10.28 -12.38,13.68 -4.79,3.4 -10.08,5.59 -15.77,6.59 -5.69,1 -11.68,0.8 -17.97,-0.6 -6.19,-1.4 -12.48,-4.09 -18.87,-7.89 -6.29,-3.79 -11.58,-8.19 -15.68,-12.98 -4.19,-4.89 -7.09,-10.08 -8.89,-15.58 -1.8,-5.59 -2.3,-11.18 -1.5,-16.97 0.8,-5.79 2.89,-11.58 6.39,-17.27 3.49,-5.79 7.69,-10.48 12.48,-13.88 4.79,-3.4 10.08,-5.59 15.77,-6.69 5.69,-1 11.68,-0.8 17.97,0.6 6.19,1.4 12.48,3.99 18.77,7.89l-0.09 -0.2zm-42.53 70.29c4.89,2.89 9.88,4.19 15.18,3.69 5.29,-0.5 10.28,-2.6 15.18,-6.29 4.89,-3.69 9.39,-8.89 13.38,-15.58 4.09,-6.79 6.69,-13.18 7.69,-19.27 1,-6.09 0.5,-11.58 -1.5,-16.48 -2,-4.89 -5.49,-8.79 -10.28,-11.68 -4.79,-2.89 -9.79,-4.09 -14.98,-3.6 -5.19,0.5 -10.28,2.6 -15.28,6.29 -4.99,3.69 -9.49,8.99 -13.58,15.77 -4.09,6.69 -6.59,13.08 -7.49,19.17 -1,6.09 -0.4,11.58 1.5,16.37 2,4.89 5.39,8.69 10.19,11.58l-0 0.01z"/>
   <path class="fil0" d="M971.59 224.15l-35.85 38.74c-5.79,6.29 -8.89,12.58 -9.29,18.87 -0.4,6.29 2,11.78 7.19,16.57 5.39,4.99 11.18,7.19 17.27,6.59 6.09,-0.6 11.88,-3.79 17.47,-9.68l36.84 -39.84 6.79 6.29 -36.24 39.24c-6.79,7.29 -14.38,10.98 -22.77,11.08 -8.39,0 -16.68,-3.69 -24.96,-11.28 -9.88,-9.09 -15.28,-18.07 -16.28,-26.76 -1,-8.79 1.9,-16.77 8.69,-24.06l36.34 -39.34 14.78 13.68 0.01 -0.1zm-14.58 -13.48l-4.89 5.29 -0.2 -0.2c1.1,-1.4 1.6,-2.89 1.5,-4.49 -0.1,-1.7 -0.8,-3.09 -2.1,-4.29l-1.4 -1.3 0.9 -0.9 6.39 5.89 -0.2 0zm20.67 19.07l-0.9 0.9 -1.4 -1.3c-1.3,-1.2 -2.8,-1.8 -4.39,-1.8 -1.6,0 -3.09,0.7 -4.29,2l-0.2 -0.2 4.89 -5.29 6.29 5.79 0 -0.1zm27.76 25.76l-4.89 5.29 -0.2 -0.2c1.1,-1.4 1.6,-2.89 1.5,-4.49 -0.1,-1.7 -0.8,-3 -2,-4.19l-1.4 -1.3 0.9 -0.9 6.29 5.79 -0.2 0zm12.68 11.68l-0.9 0.9 -1.3 -1.2c-1.3,-1.2 -2.8,-1.8 -4.49,-1.9 -1.7,0 -3.09,0.6 -4.29,1.9l-0.2 -0.2 4.89 -5.29 6.29 5.79 0 0z"/>
   <path class="fil0" d="M1043.68 297.84c1.1,1.5 2.49,3.29 3.89,5.59 1.5,2.2 2.89,4.39 4.29,6.59 1.4,2.2 2.6,4.19 3.6,5.99 1,1.8 1.6,3.09 1.8,3.79l-14.58 8.99 -0.8 -1c3.4,-2.6 5.19,-5.89 5.39,-9.79 0.2,-3.89 -1.5,-8.09 -4.89,-12.48 -2.69,-3.49 -5.69,-5.79 -8.99,-6.79 -3.2,-1 -6.19,-0.5 -8.89,1.3 -1.4,0.9 -2.49,2 -3,3.49 -0.6,1.5 -0.8,3.09 -0.8,4.79 0,1.8 0.2,3.69 0.5,5.69l2.69 25.66c0.8,4.09 0.5,8.09 -1,11.98 -1.5,3.89 -4.29,7.19 -8.49,10.08 -4.29,3 -8.79,4.49 -13.48,4.69 -4.69,0.2 -9.29,-1.1 -13.88,-3.6 -4.49,-2.6 -8.79,-6.49 -12.78,-11.58 -2.49,-3.2 -4.49,-6.29 -6.09,-9.49 -1.6,-3.09 -2.69,-5.99 -3.29,-8.69 -0.6,-2.6 -0.8,-4.89 -0.5,-6.79 1,-1.7 2.6,-3.4 4.79,-4.89 2.2,-1.6 4.49,-2.8 7.09,-3.89 2.6,-1 4.89,-1.7 6.99,-1.8l0.7 0.9c-3.49,2.3 -6.09,5.29 -7.79,8.89 -1.7,3.6 -2.3,7.39 -1.8,11.58 0.5,4.09 2.3,8.19 5.29,12.08 3.29,4.29 6.79,6.69 10.39,7.29 3.69,0.6 6.79,-0.2 9.59,-2.3 1.9,-1.5 3.2,-3.49 3.79,-5.99 0.6,-2.49 0.5,-5.89 -0.2,-9.99l-2.2 -23.46c-0.9,-5.19 -0.5,-9.79 1.4,-13.88 1.9,-4.09 4.89,-7.39 8.99,-9.88 3.79,-2.4 7.69,-3.69 11.48,-3.89 3.89,-0.2 7.59,0.6 11.08,2.49 3.6,1.9 6.79,4.59 9.59,8.29l0.11 0.01zm14.68 21.17l-2.1 1.4 -9.19 -11.88 2 -1.5 9.19 11.98 0.1 0z"/>
   <path class="fil0" d="M1008.53 380.01l-7.39 4.79 -5.09 -8.99 1.2 -0.7c0.6,1 0.8,1.5 0.9,1.6 1,1.8 2.49,3 4.49,3.6 2,0.6 3.89,0.4 5.69,-0.6l0.2 0.4 -0 -0.1zm75.08 -19.67l-73.09 41.23 -9.88 -17.57 73.09 -41.23 9.88 17.57zm-52.22 66.99l-3.29 5.59 -17.77 -31.55 4.89 -2.8 16.17 28.76 0 0zm21.97 -2.09l-25.06 7.99 -11.88 -21.07 6.99 1c2,3.49 4.39,6.19 7.39,8.09 3,1.9 6.29,3.09 10.08,3.6 3.69,0.5 7.69,0.2 11.88,-0.7l0.6 1.1 0 -0zm9.48 -21.07l-4.89 2.8 -13.88 -24.66 4.89 -2.8 13.88 24.66zm-4.59 2.6l-10.68 6.09 -0.7 -1.2 1 -0.5c2.69,-1.5 4.49,-3.6 5.39,-6.29 0.9,-2.69 0.5,-5.49 -1.1,-8.29l0.2 0c0,0 5.89,10.39 5.89,10.39l0 -0.2zm15.08 -8.49l-10.68 6.09 -5.89 -10.48 0.2 0c1.7,2.69 3.89,4.39 6.69,4.99 2.8,0.6 5.49,0.2 8.19,-1.3l0.9 -0.5 0.7 1.2 -0.1 -0zm-7.09 -50.82l-0.2 -0.4c1.9,-1.1 3,-2.6 3.49,-4.59 0.5,-2 0.2,-3.89 -0.8,-5.69 0,0 -0.3,-0.6 -0.9,-1.6l1.2 -0.7 5.09 8.99 -7.99 3.79 0.1 0.2zm34.15 42.73l-4.89 2.8 -16.97 -30.05 4.89 -2.8 16.97 30.05zm-4.59 2.6l-12.88 7.29 -0.7 -1.2 1.1 -0.6c3.6,-2 5.79,-4.59 6.79,-7.59 1,-3.09 0.5,-6.39 -1.5,-9.99l0.2 0c0,0 6.89,12.18 6.89,12.18l0.1 -0.1zm6.49 -3.6l-2.89 1.7 -6.09 -13.38c1.3,2.4 3,4.69 4.89,7.09 1.9,2.4 3.29,3.89 4.19,4.69l-0.1 -0.11z"/>
   <path class="fil0" d="M372.82 1003.24c1,0.7 2,1.4 3,2.3 1,0.9 2,1.8 2.89,2.69 0.9,0.9 1.8,1.8 2.49,2.6 0.7,0.8 1.3,1.5 1.6,2.1l-6.79 10.08 -0.8 -0.6c2,-2.89 2.49,-5.89 1.6,-8.89 -0.9,-3 -2.8,-5.49 -5.59,-7.39 -3.29,-2.2 -6.79,-3 -10.19,-2.3 -3.49,0.7 -6.09,2.49 -7.99,5.29 -0.8,1.2 -1.4,2.69 -1.9,4.59 -0.5,1.9 -0.5,3.99 0,6.29l6.79 28.56c0.7,2.89 0.7,5.59 0,7.89 -0.7,2.4 -1.7,4.39 -2.89,6.29 -3.4,4.99 -7.69,8.09 -12.88,9.19 -5.19,1.1 -10.39,0 -15.58,-3.6 -1.5,-1 -3.09,-2.3 -4.79,-3.89 -1.8,-1.6 -3.29,-3.4 -4.69,-5.49 -1.3,-2 -2.2,-3.99 -2.6,-6.09 0.5,-1.1 1.2,-2.4 2.2,-3.79 1,-1.5 2.1,-2.89 3.49,-4.39 1.3,-1.4 2.6,-2.69 3.99,-3.79l0.8 0.5c-2.4,2.89 -3.79,5.89 -4.29,8.89 -0.5,3 0,5.89 1.3,8.49 1.3,2.6 3.29,4.69 6.09,6.39 3.49,2.1 7.09,2.8 10.98,2.3 3.79,-0.5 6.99,-2.6 9.39,-6.29 1.2,-1.8 1.9,-3.6 2.3,-5.39 0.3,-1.8 0.3,-3.69 -0.2,-5.49l-6.59 -27.96c-0.7,-2.89 -0.7,-5.59 0,-8.19 0.6,-2.49 1.5,-4.69 2.69,-6.39 1.7,-2.6 3.99,-4.59 6.79,-6.19 2.8,-1.6 5.89,-2.3 9.29,-2.2 3.4,0.1 6.79,1.3 10.28,3.69l-0.18 0.2zm10.78 8.49l-1.3 1.9 -6.89 -4.69 1.3 -1.9 6.89 4.59 0 0.1z"/>
   <path class="fil0" d="M366.43 1083.12l-2 6.89 -8.49 -4.39 0.5 -1 1.4 0.7c1.6,0.8 3.2,1 4.79,0.5 1.6,-0.5 2.8,-1.4 3.6,-2.8l0.2 0 0 0.1zm33.35 -48.82l-30.55 58.21 -6.19 -3.29 30.55 -58.21 6.19 3.29zm-2.89 68.89l-1.8 2.89 -26.16 -13.68 1.6 -3 26.26 13.78 0.1 0zm11.19 -7.99l-12.58 11.08 -14.78 -7.79 4.89 -1.3c3.2,1.7 6.09,2.6 8.59,2.69 2.49,0 4.79,-0.4 6.89,-1.4 2.1,-1 4.09,-2.3 6.09,-3.89l1 0.5 -0.1 0.1zm-1.3 -21.97l-1.5 2.89 -21.77 -11.38 1.5 -2.89 21.77 11.38zm-16.28 -35.94l-0.2 0c0.7,-1.6 0.8,-3.2 0.3,-4.69 -0.5,-1.5 -1.6,-2.69 -3.2,-3.49l-1.4 -0.7 0.5 -1 8.49 4.39 -4.49 5.49 0 0zm35.25 10.68l-1.6 3 -26.26 -13.78 1.6 -3 26.26 13.78zm-20.37 28.06l-2.89 5.49 -1.1 -0.6 0.7 -1.3c0.6,-1.1 0.8,-2.2 0.5,-3.4 -0.2,-1.1 -1,-2.1 -2.4,-2.8l0 -0.2c0,0 5.19,2.69 5.19,2.69l0 0.11zm4.19 -8.09l-2.89 5.49 -5.09 -2.69 0 -0.2c1.5,0.7 2.69,0.8 3.79,0.4 1.1,-0.5 1.9,-1.3 2.49,-2.4l0.7 -1.3 1.1 0.6 -0.1 0.1zm17.08 -21.57l-1.3 2.49 -10.59 -6.79c2,1.1 4.19,2 6.69,2.8 2.49,0.8 4.19,1.3 5.19,1.4l0 0.1zm-2.3 4.29l-3.49 6.69 -1.1 -0.6 0.8 -1.5c0.7,-1.4 0.9,-2.8 0.5,-4.19 -0.4,-1.4 -1.3,-2.49 -2.8,-3.29l0.2 -0.3 5.89 3.09 0 0.1z"/>
   <path class="fil0" d="M421.74 1110.17l-1.2 7.09 -8.89 -3.4 0.4 -1 1.4 0.5c1.7,0.7 3.29,0.6 4.79,0 1.5,-0.7 2.6,-1.7 3.2,-3.2l0.2 0 0.1 0zm27.36 -52.42l-23.56 61.41 -6.59 -2.49 23.56 -61.41 6.59 2.49zm5.19 68.79l-1.4 3.09 -27.56 -10.59 1.2 -3.2 27.76 10.59 0 0.1zm-13.98 -64.8l-0.2 0c0.5,-1.7 0.4,-3.2 -0.3,-4.59 -0.7,-1.4 -1.9,-2.49 -3.6,-3.2l-1.4 -0.5 0.4 -1 8.89 3.4 -3.79 5.89 -0 0zm20.37 33.85l-1.2 3.09 -22.96 -8.79 1.2 -3.09 22.96 8.79zm3.79 21.66l-11.28 12.48 -15.58 -5.99 4.69 -1.8c3.4,1.3 6.39,1.9 8.79,1.7 2.49,-0.2 4.69,-0.9 6.59,-2.2 2,-1.2 3.79,-2.8 5.59,-4.59l1 0.4 0.2 0zm12.08 -49.02l-1.2 3.2 -27.66 -10.59 1.2 -3.2 27.66 10.59zm-16.97 30.25l-2.2 5.79 -1.1 -0.4 0.5 -1.3c0.4,-1.2 0.5,-2.3 0.1,-3.4 -0.4,-1.1 -1.3,-2 -2.69,-2.49l0 -0.2c0,0 5.39,2 5.39,2zm3.2 -8.49l-2.2 5.79 -5.29 -2 0 -0.2c1.5,0.5 2.69,0.5 3.69,0 1,-0.6 1.7,-1.5 2.2,-2.6l0.5 -1.3 1.1 0.4 0 -0.1zm14.38 -23.36l-1 2.69 -11.28 -5.49c2.1,0.8 4.39,1.5 6.99,2 2.49,0.5 4.29,0.8 5.29,0.8l0 0zm-1.7 4.49l-2.69 7.09 -1.1 -0.4 0.6 -1.5c0.5,-1.4 0.6,-2.8 0,-4.19 -0.5,-1.4 -1.6,-2.4 -3.2,-3l0 -0.3c0,0 6.39,2.4 6.39,2.4l0 -0.1z"/>
   <path class="fil0" d="M511.71 1137.53l-1.5 7.89 -8.59 -1.6 0.3 -1.1c0,0 0.4,0 0.7,0.1 0.3,0 0.5,0 0.6,0.1 1.9,0.3 3.6,0 5.19,-1.1 1.6,-1.1 2.6,-2.6 2.89,-4.39l0.3 0 0.1 0.1zm19.17 -66.3l-13.98 75.48 -6.99 -1.3 13.98 -75.48 6.99 1.3zm-8.09 6.59l-0.3 0c0.3,-1.9 0,-3.69 -1.2,-5.19 -1.1,-1.6 -2.6,-2.6 -4.49,-2.89 0,0 -0.3,0 -0.6,-0.1 -0.3,0 -0.6,-0.1 -0.7,-0.1l0 -1.1c0,0 8.69,1.6 8.69,1.6l-1.5 7.89 0.1 -0.1zm14.28 -5.49c4.99,0.9 9.19,2.49 12.38,4.59 3.2,2.2 5.49,4.79 6.79,7.79 1.3,3 1.6,6.29 0.9,9.88 -0.6,3 -1.6,5.59 -3.2,7.59 -1.6,2.1 -3.4,3.6 -5.39,4.69 -2.1,1.1 -4.19,1.7 -6.29,1.9 3.69,1.3 6.79,3.2 9.19,5.59 2.4,2.49 4.09,5.29 4.99,8.49 0.9,3.2 1.1,6.59 0.4,10.19 -0.7,3.99 -2.4,7.39 -4.89,10.08 -2.49,2.69 -5.79,4.49 -9.88,5.49 -4.09,1 -8.79,1 -14.08,0l-11.98 -2.2c0.3,-1.3 0.6,-2.6 0.8,-3.89l11.38 2.1c3.69,0.7 6.99,0.6 9.88,-0.2 2.8,-0.9 5.19,-2.4 6.99,-4.79 1.8,-2.3 3.09,-5.29 3.79,-8.89 0.7,-3.99 0.6,-7.39 -0.5,-10.28 -1.1,-2.8 -2.69,-5.09 -4.89,-6.79 -2.2,-1.7 -4.69,-3.09 -7.39,-4.09 -2.8,-1 -5.39,-1.7 -7.99,-2.2l0.2 -1c1.7,0.3 3.49,0.5 5.59,0.5 2.1,0 4.19,-0.3 6.19,-1.1 2.1,-0.7 3.89,-2 5.49,-3.89 1.6,-1.9 2.69,-4.59 3.4,-7.99 0.6,-3.2 0.5,-6.09 -0.2,-8.59 -0.8,-2.49 -2.2,-4.59 -4.29,-6.19 -2.1,-1.6 -4.89,-2.8 -8.39,-3.4l-9.88 -1.8c0,0 0,-0.4 0,-1 0,-0.6 -0.2,-1.5 -0.3,-2.69l11.38 2.1 -0.2 -0z"/>
   <path class="fil0" d="M575.61 1148.41l1 7.09 -9.49 -0.6 0 -1.1c0,0 1.6,0 1.6,0 1.8,0.1 3.4,-0.4 4.59,-1.5 1.2,-1.1 1.9,-2.4 2.1,-4.09l0.2 0 0 0.2zm3.19 -51.72l-0.2 0c0,-1.7 -0.5,-3.09 -1.6,-4.29 -1.1,-1.2 -2.6,-1.8 -4.39,-1.9l-1.5 0c0,0 0,-1.2 0,-1.2l9.49 0.6 -1.9 6.79 0.1 0zm7.19 -6.49l-4.09 65.7 -6.99 -0.4 4.09 -65.7 6.99 0.4zm25.56 64.1l-0.4 3.4 -29.45 -1.8 0.2 -3.4 29.65 1.8zm-3.2 -31.45l-0.2 3.29 -24.46 -1.5 0.2 -3.29 24.46 1.5zm6.99 -30.85l-0.2 3.4 -29.56 -1.8 0.2 -3.4 29.56 1.8zm3.09 50.42l-6.99 15.28 -16.68 -1 3.89 -3.2c3.69,0.2 6.59,-0.1 8.89,-1 2.3,-0.9 4.19,-2.3 5.69,-3.99 1.5,-1.8 2.8,-3.79 3.99,-6.09l1.1 0 0.1 0zm-10.28 -16.48l-0.4 6.19 -1.2 0c0,0 0,-1.5 0,-1.5 0,-1.2 -0.2,-2.3 -0.9,-3.29 -0.7,-1 -1.8,-1.5 -3.29,-1.6l0 -0.2c0,0 5.69,0.4 5.69,0.4l0.1 -0zm0.6 -9.08l-0.4 6.19 -5.69 -0.4 0 -0.2c1.5,0 2.69,-0.3 3.49,-1.2 0.8,-0.9 1.2,-1.9 1.3,-3.2l0 -1.4c0,0 1.3,0 1.3,0l0 0.2zm6.69 -26.56l-0.2 2.89 -12.38 -1.9c2.3,0.1 4.69,0 7.29,-0.2 2.6,-0.2 4.39,-0.5 5.29,-0.8l0 0zm-0.3 4.79l-0.5 7.59 -1.2 0c0,0 0.1,-1.7 0.1,-1.7 0,-1.5 -0.3,-2.89 -1.2,-3.99 -0.9,-1.1 -2.2,-1.8 -3.89,-1.9l0 -0.3c0,0 6.69,0.4 6.69,0.4l0 -0.1z"/>
   <path class="fil0" d="M642.7 1098.49l-9.29 0.3c-1.3,-1.6 -2.8,-2.8 -4.59,-3.69 -1.8,-0.9 -3.69,-1.2 -5.89,-1.1l-1.3 0c0,0 0,-1 0,-1l25.36 -1.8 0 1.1c0,0 -1.2,0 -1.2,0 -1.6,0.1 -2.69,0.8 -3.29,2.2 -0.6,1.3 -0.5,2.6 0.3,3.89l-0.09 0.1zm-4.29 -6.49l22.66 34.55 -4.19 4.09 -28.06 -38.04 9.49 -0.7 0.1 0.1zm19.17 57.41l0.5 6.99 -7.99 0.6 0 -1.1c0,0 0.4,0 1.2,0 1.8,-0.1 3.2,-0.8 4.29,-2.1 1.1,-1.2 1.7,-2.69 1.6,-4.29l0.3 0 0.1 -0.1zm5.29 -21.66l1.9 28.26 -7.09 0.5 -1.9 -28.26 7.09 -0.5zm15.78 -38.54l6.89 -0.5 -23.26 41.43 -4.09 -0.9 20.57 -40.04 -0.1 0zm-14.68 59.81l0.3 0c0.2,1.6 0.9,2.89 2.2,3.99 1.3,1.1 2.8,1.6 4.59,1.4l1.3 0c0,0 0,1 0,1l-7.99 0.6 -0.5 -6.99 0.1 -0zm10.99 -52.62c0.7,-1.5 0.6,-2.89 -0.2,-4.09 -0.8,-1.2 -2,-1.7 -3.6,-1.6l-1.3 0c0,0 0,-1 0,-1l22.86 -1.6 0 1.1c0,0 -1.2,0 -1.2,0 -2,0.1 -3.89,0.8 -5.59,2.1 -1.7,1.3 -3,2.69 -3.89,4.19l-6.89 0.8 -0.19 0.1z"/>
   <path class="fil0" d="M724.18 1079.42c4.99,-1.1 9.88,-1.3 14.58,-0.7 4.69,0.7 9.09,2.1 13.08,4.39 3.99,2.3 7.29,5.29 10.08,8.99 2.8,3.69 4.69,8.09 5.79,13.08 1.1,4.99 1.2,9.79 0.2,14.28 -1,4.49 -2.8,8.59 -5.39,12.38 -2.6,3.8 -5.99,6.89 -10.08,9.39 -3.99,2.6 -8.59,4.39 -13.58,5.49 -4.99,1.1 -9.88,1.3 -14.58,0.7 -4.69,-0.7 -9.09,-2.1 -12.98,-4.39 -3.99,-2.3 -7.29,-5.29 -10.08,-8.99 -2.8,-3.69 -4.69,-8.09 -5.79,-13.08 -1.1,-4.99 -1.2,-9.79 -0.2,-14.28 1,-4.49 2.8,-8.59 5.39,-12.38 2.69,-3.69 5.99,-6.89 9.99,-9.39 3.99,-2.6 8.49,-4.39 13.48,-5.49l0.1 0zm13.98 64.1c5.29,-1.2 9.79,-3.49 13.48,-6.99 3.69,-3.49 6.29,-7.79 7.89,-12.98 1.5,-5.09 1.6,-10.68 0.3,-16.68 -1.3,-6.09 -3.69,-11.08 -7.19,-15.08 -3.49,-3.99 -7.69,-6.79 -12.48,-8.49 -4.79,-1.7 -9.88,-1.9 -15.18,-0.7 -5.19,1.1 -9.68,3.49 -13.38,6.99 -3.69,3.49 -6.39,7.79 -7.89,12.88 -1.5,5.09 -1.6,10.68 -0.3,16.68 1.3,5.99 3.69,10.98 7.19,15.08 3.49,3.99 7.69,6.89 12.48,8.49 4.89,1.6 9.88,1.9 15.08,0.8z"/>
   <path class="fil0" d="M770.41 1067.84l6.69 3.89 23.06 56.81 -4.59 1.9 -20.17 -49.82c-1.4,-3.49 -3.4,-7.59 -6.09,-12.38l1 -0.4 0.1 0zm0 0l77.78 30.25 5.39 10.48 -77.88 -30.55 -5.29 -10.19zm22.86 56.11l2.6 6.29 -7.59 3.09 -0.4 -1 1.7 -0.7c1.6,-0.6 2.69,-1.7 3.4,-3.09 0.7,-1.5 0.7,-2.89 0.1,-4.39l0.3 0 -0.1 -0.2zm4.29 -1.7c0.6,1.5 1.7,2.49 3.2,3.09 1.5,0.6 3,0.5 4.49,0l1.7 -0.7 0.4 1 -7.59 3.09 -2.6 -6.29 0.3 0 0.1 -0.2zm28.86 -67.99c-0.7,-1.5 -1.8,-2.49 -3.29,-3.09 -1.5,-0.6 -3,-0.6 -4.59,0l-1.7 0.7 -0.4 -1 7.59 -3.09 2.6 6.29 -0.2 0 0 0.2zm1.9 -8.09l19.97 49.42c0.9,2.2 1.8,4.19 2.69,6.19 0.9,2 2.1,4.09 3.49,6.49l-0.9 0.4 -6.69 -3.6 -23.06 -57.01 4.49 -1.8 0 -0.1zm2.2 6.39l-2.6 -6.29 7.59 -3.09 0.4 1 -1.7 0.7c-1.5,0.6 -2.6,1.6 -3.29,3.09 -0.7,1.5 -0.8,3 -0.2,4.39l-0.3 0 0.1 0.2z"/>
   <path class="fil0" d="M850.78 1042.38l-0.2 0c-1,-1.3 -2.3,-2.2 -3.89,-2.6 -1.6,-0.3 -3.2,0 -4.69,0.9l-1.1 0.7 -0.6 -0.9 6.69 -4.19 3.79 6.09 0 0zm2.2 -9.69l34.75 55.91 -6.09 3.79 -34.75 -55.91 6.09 -3.79zm18.47 -11.58c6.19,-3.79 12.18,-5.99 17.97,-6.49 5.89,-0.5 11.28,0.5 16.28,3.2 4.99,2.69 9.29,6.89 12.88,12.68 3.59,5.79 5.49,11.48 5.59,17.17 0.2,5.69 -1.3,10.98 -4.39,16.08 -3.09,4.99 -7.69,9.49 -13.78,13.28l-19.87 12.28 -1.9 -2.69c4.39,-2.69 7.99,-4.99 10.98,-6.79 3,-1.8 5.99,-3.69 9.09,-5.59 7.19,-4.49 11.48,-10.28 12.78,-17.27 1.3,-7.09 -0.4,-14.48 -5.19,-22.26 -4.79,-7.79 -10.68,-12.58 -17.57,-14.58 -6.89,-1.9 -13.98,-0.7 -21.17,3.79 -3.2,2 -6.39,3.99 -9.49,5.89 -3.09,1.9 -6.89,4.29 -11.48,7.09l-1.7 -2.8 20.97 -12.98zm6.59 65l3.79 6.09 -6.69 4.19 -0.6 -0.9 1.2 -0.8c1.5,-0.9 2.4,-2.2 2.8,-3.89 0.4,-1.6 0.1,-3.2 -0.6,-4.59l0.2 0 -0.1 -0.1z"/>
   <path class="fil0" d="M624.53 1248.96c-344.37,0 -624.53,-280.16 -624.53,-624.53 0,-344.37 280.16,-624.43 624.53,-624.43 344.37,0 624.53,280.16 624.53,624.53 0,344.37 -280.16,624.53 -624.53,624.53l0 -0.1zm0 -1222.5c-329.79,0 -598.07,268.28 -598.07,597.97 0,329.69 268.28,597.97 597.97,597.97 329.69,0 597.97,-268.28 597.97,-597.97 0,-329.69 -268.18,-597.97 -597.87,-597.97z"/>
   <path class="fil0" d="M624.53 1019.01c-217.56,0 -394.49,-176.92 -394.49,-394.49 0,-217.56 176.92,-394.59 394.49,-394.59 217.56,0 394.49,176.92 394.49,394.49 0,217.56 -176.92,394.49 -394.49,394.49l0 0.1zm0 -762.61c-202.99,0 -368.03,165.14 -368.03,368.03 0,202.88 165.14,368.03 368.03,368.03 202.88,0 368.03,-165.14 368.03,-368.03 0,-202.88 -165.14,-368.03 -368.03,-368.03z"/>
   <path class="fil0" d="M415.36 482.45c5.19,-11.58 17.37,-16.77 28.96,-19.57 19.77,-4.89 39.64,-6.29 60.11,-5.79 10.98,0.2 21.37,1.2 32.05,3.4 1.5,0.3 15.48,3.79 14.58,5.39 -1.3,2.2 -11.48,5.19 -14.58,5.89 -14.38,3.69 -28.76,5.29 -43.53,6.09l-6.89 0.4 -19.07 0.6c1.9,1.2 4.09,0.7 6.49,0.9 13.48,1.1 26.56,2.8 39.84,4.89l29.36 -7.89c6.49,-1.7 12.38,-4.09 18.77,-6.79 -3.89,-8.29 -14.18,-13.08 -22.77,-15.48 -10.59,-2.89 -20.67,-5.89 -30.95,-9.68 -11.98,-4.39 -24.06,-12.28 -31.25,-23.16l13.28 -2.49c2.4,-0.4 5.39,-0.2 7.59,-0.9l10.39 -3.49c1.3,-0.4 3.2,0.9 3.99,1.8 5.29,5.59 10.68,10.59 17.57,13.98l-2.69 -4.19c9.68,3.4 12.48,3.29 22.86,2.69l-9.29 -4.39c-2.6,-1.2 -4.69,-3.49 -6.29,-5.99 3.4,0.4 6.09,0.6 9.19,0.1 15.88,-2.49 25.16,-13.78 29.96,-29.05l-8.99 -1.9c-0.8,4.69 -1,8.59 -3.09,12.48 -5.99,11.38 -22.77,16.68 -31.95,10.08l-7.09 -5.09c-1,5.29 2.1,8.79 4.19,13.18 -4.99,-1.9 -8.79,-5.09 -12.28,-8.69 -5.79,-6.09 -12.38,-0.7 -18.27,1 -4.49,1.3 -10.08,0 -14.98,0.6 -0.6,-2.8 -1.7,-5.09 -4.19,-6.19l-12.98 -5.99 7.49 -1.5 -10.68 -1c-3.79,-0.4 -7.39,-0.7 -11.08,-1.7 -2.89,-0.7 -6.29,-0.5 -8.39,-2.89 -1.5,-1.6 -1.8,-4.59 -1.8,-6.89 0,-14.38 9.79,-25.96 20.27,-34.55 1.7,-1.4 3.49,-2.49 5.69,-3.2 -7.49,7.89 -14.98,17.17 -17.97,27.66 -1,3.4 -1.8,7.09 -0.4,10.39 2,4.69 13.38,0 17.07,-1.7l-4.49 -6.29c8.69,-4.79 16.77,-9.39 24.96,-15.18 -6.79,-1.1 -13.58,2.8 -19.67,-2.49 2.3,-5.09 5.19,-9.79 9.29,-13.78 3.29,-0.7 6.89,-1 10.28,-1.4 10.28,-1 19.67,-2.6 30.05,-4.39 -8.39,-1.3 -16.48,-1 -25.56,-0.8 13.48,-7.49 27.56,-12.38 42.23,-16.57 14.68,-4.19 30.55,-7.09 46.53,-8.09 2.89,-0.2 5.39,0 8.29,-1 -2.6,-1.9 -5.09,-2.89 -7.89,-3.2 -26.06,-2.3 -63.7,8.29 -86.96,20.27l-19.97 10.28c2.2,-2.49 4.19,-4.19 6.79,-6.19 25.96,-18.87 56.51,-30.55 88.56,-32.95 12.18,-0.9 29.76,3.2 30.55,18.47 0.8,14.18 -10.19,19.37 -21.77,23.46 -12.58,4.49 -24.86,8.49 -37.04,14.08 -15.38,7.09 -29.36,15.97 -41.94,27.26l24.86 -12.08c27.86,-13.48 69.09,-21.66 100.15,-23.36 25.86,-1.4 47.63,0.8 73.09,4.49 -8.39,-5.89 -33.65,-10.19 -43.63,-10.59l-13.68 -0.5c-17.27,-0.6 -36.94,2.69 -54.31,4.59 4.09,-2.3 15.88,-9.49 16.77,-14.68 25.76,-0.9 51.42,1.5 76.38,7.89 10.08,2.6 19.17,5.89 28.76,10.59l-11.08 8.99 -32.05 28.06 -37.04 32.45c-1.4,1.2 -3.6,3.09 -4.29,4.69 -5.39,13.38 -11.38,25.76 -18.97,38.04 -6.79,10.98 -14.88,20.17 -23.36,30.05 14.18,-9.68 25.46,-21.86 35.65,-35.05 7.29,-9.49 11.68,-20.17 18.37,-29.96 4.29,-6.19 11.08,-10.68 16.57,-15.97l42.43 -41.74 7.79 -7.89 5.69 3.49 9.09 5.89c-2.1,8.19 -8.49,15.97 -13.78,21.86 11.88,11.08 17.47,19.57 25.06,34.05 -5.89,-2.4 -10.88,-3.4 -16.68,-3.6 -7.99,-0.2 -15.77,-0.2 -23.86,0 9.39,7.99 15.18,17.97 16.57,29.85 -10.88,-5.39 -25.46,-7.59 -37.64,-8.49 5.79,4.69 11.38,9.29 14.38,15.97 -10.08,-2.2 -21.97,-1.2 -31.25,0.6 8.59,3.49 14.68,8.49 18.97,16.08l0.2 0.7c-5.89,-1.6 -11.68,-3.29 -17.97,-4.29 2,11.38 -0.5,23.26 -6.29,32.65 -1.1,-8.49 -4.99,-12.98 -13.28,-16.28 -2,10.79 -6.19,20.07 -12.88,28.46 -6.19,7.69 -13.08,14.48 -21.07,20.47 0.4,-3.6 0.9,-6.39 0.4,-10.08 -5.69,5.19 -11.28,9.88 -18.07,14.18 -17.87,11.18 -36.04,20.87 -56.01,28.76 1.1,-1.1 2.4,-2.2 3.79,-3.09 6.99,-4.69 13.38,-10.68 16.68,-18.87 -13.48,11.18 -27.56,21.66 -44.83,26.46 2.49,-3 4.79,-5.29 6.79,-8.69 -7.09,1.8 -12.68,2.3 -20.67,2.3l9.99 -6.39c6.39,-4.09 11.38,-9.59 13.58,-17.37l-17.67 6.49c0.8,-1.6 1.9,-3 3.2,-4.39 5.39,-5.79 10.59,-11.48 15.28,-17.97 8.99,-12.48 -0.3,-31.55 -11.68,-40.14 -3.69,-2.8 -8.09,-4.19 -12.38,-5.69 -12.68,-4.39 -25.66,-5.89 -39.04,-6.79 -9.19,-0.6 -17.87,0.6 -27.66,2.49l0.2 0.49zm145.67 -100.04l14.78 -3.2 14.88 -3.89c-24.16,-2.69 -51.42,3.79 -72.29,14.98 -8.49,4.59 -16.37,8.69 -25.26,12.28 4.89,3.89 14.58,2.1 19.27,0.3 11.98,-4.59 39.64,-18.57 48.62,-20.47l0 0zm-16.88 19.27c4.39,-1.8 6.99,-5.79 7.29,-10.68 -3.2,-0.9 -9.68,3.49 -12.38,5.49 -0.9,0.7 -0.3,3.4 0.4,4.29 0.7,0.9 3.09,1.6 4.69,0.9zm-15.17 135.99c1.2,-14.58 -1.6,-28.36 -14.58,-37.44 4.59,7.49 8.39,14.78 9.59,23.36 1.6,11.38 -0.3,22.17 -5.19,32.45 -1.5,2.89 -3.2,5.29 -5.29,8.09 10.88,-0.4 14.78,-17.47 15.48,-26.36l0 -0.1z"/>
   <path class="fil0" d="M643.8 945.23c-3,2.3 -5.89,2.2 -8.89,0.2 -9.79,-6.39 -18.97,-13.28 -27.96,-21.07 -16.87,-14.48 -32.55,-29.65 -47.93,-45.73 -12.08,-12.68 -23.06,-25.66 -33.95,-39.34l0 -18.87c0,0 19.57,-18.97 19.57,-18.97l32.25 -31.05 67 -64.2 27.76 -27.06c4.09,-3.99 7.69,-7.59 12.18,-11.38l25.36 21.77 32.25 28.76c4.29,14.08 7.79,27.86 13.68,41.14l4.29 9.49 0 10.39c0,0 -11.38,12.68 -11.38,12.68l0 29.36c-0.2,5.79 -0.7,10.98 -0.5,17.07 -19.17,25.56 -40.34,49.52 -63.5,71.69 -12.88,12.38 -25.96,23.96 -40.24,35.05l0 0.1z"/>
   <path class="fil0" d="M474.36 595.17c-5.69,8.69 -7.19,25.36 -1.7,34.65 1.8,-5.79 4.19,-10.48 7.69,-15.88 -0.9,7.59 0.4,16.08 6.09,22.77 -1.3,-10.39 -0.8,-19.87 3.79,-28.85 1,-2 2.49,-3.69 4.79,-4.29 -7.19,15.18 -3.79,38.14 7.79,50.42 2,-15.58 7.99,-23.66 18.77,-33.35 -1,4.49 -2.49,7.89 -2,12.38 3.4,-6.19 6.69,-11.48 11.68,-16.08 2.6,-2.4 4.39,-4.89 6.89,-7.99l-1.7 7.49c10.28,-6.69 16.48,-12.08 24.06,-22.17 -0.5,7.39 -2,14.28 -3.99,21.77l14.28 -8.69c15.48,-9.49 30.25,-27.36 37.64,-44.93 0.8,11.78 -2.4,22.77 -7.59,33.65 12.88,-6.79 22.46,-17.17 28.56,-29.65 2.1,-4.19 3,-8.39 4.89,-12.98l-0.2 9.79c12.68,-8.89 23.36,-16.87 29.65,-31.35 0.7,8.09 -0.2,15.58 -1.7,23.66 22.17,-13.48 40.94,-30.55 36.74,-58.31 4.89,4.39 7.69,9.29 9.99,15.68 6.29,-12.08 6.69,-24.86 -1,-36.44 8.39,2 15.28,5.29 19.57,13.58 2.4,-8.49 1.7,-17.17 -2.6,-24.76l-3.29 -5.99c5.19,2.4 8.39,6.39 11.68,11.18 1,-6.79 0.2,-13.38 -2,-19.67 -2.49,-6.99 -7.39,-11.68 -13.28,-16.77 6.29,0.4 11.88,1.7 17.97,3.09 -1.4,-18.27 -13.38,-31.75 -28.26,-42.33l7.69 -6.69c33.45,18.37 63,40.14 88.06,68.89 4.69,5.39 8.69,10.59 12.38,16.77 -6.59,-4.89 -17.37,-9.68 -25.16,-12.78 -14.88,-5.89 -29.25,-11.68 -45.23,-16.17 4.79,3.69 9.79,6.09 14.98,9.19 22.06,12.78 42.23,28.06 59.51,46.83 19.97,21.77 34.65,56.71 41.34,85.17 1,4.19 1.3,7.89 1.6,12.68 -14.68,-14.18 -29.96,-26.86 -46.33,-38.94 -7.69,-5.69 -14.88,-10.98 -22.86,-16.28 -22.06,-14.58 -45.03,-27.16 -69.89,-37.24 -3.6,7.39 -7.59,13.98 -12.98,19.97l-1.7 15.97c-14.98,11.38 -29.85,21.86 -45.93,31.15l-34.75 19.97 -4.29 10.08 -47.43 23.76 -7.49 3.69 -42.93 21.17c-3.49,3.69 -5.39,8.79 -9.59,11.68l-35.14 23.76 -8.49 5.69c-4.19,-14.08 -5.39,-30.45 -5.69,-45.33 0,-1 0,-0.9 0.6,-0.2 4.79,8.29 11.28,15.28 20.87,17.97 -2,-2.1 -4.09,-3.69 -6.39,-5.39 -10.59,-8.29 -13.58,-14.88 -16.28,-28.46l-0.7 10.59c-10.98,-16.08 -12.08,-34.75 -2.89,-52.62 -3.4,2.2 -5.29,4.99 -7.99,8.09 0.4,-5.59 1.4,-10.98 4.19,-15.68 4.39,-7.39 10.79,-13.48 19.47,-15.97 -5.19,7.89 -8.39,16.68 -8.69,25.86 1.1,-1.6 12.38,-8.59 9.88,-4.79l-5.19 7.79 0.21 0.21z"/>
   <path class="fil0" d="M515.9 806.65c-12.98,-21.86 -23.16,-44.43 -31.05,-68.19 -3.29,-9.99 -5.59,-19.87 -7.19,-30.25 19.27,-15.38 38.74,-29.76 58.71,-44.03 13.98,-9.39 27.46,-18.57 42.13,-26.86l43.63 -24.66 53.42 50.52 -44.13 39.04 -44.53 39.94 -71.09 64.4 0.1 0.1z"/>
   <path class="fil0" d="M796.46 737.85c-6.99,8.89 -13.48,17.07 -20.97,25.06l-7.89 8.39c-3.2,-11.98 -5.79,-23.36 -7.89,-35.54l-10.19 -59.41 -7.19 -53.42c-2.3,-17.37 -4.59,-34.15 -5.59,-51.92l22.26 17.87c18.67,16.08 36.34,32.55 52.72,50.92 7.59,8.49 14.48,16.87 20.77,26.16 4.19,6.19 1,12.78 -2.4,19.57 -9.39,18.57 -20.57,35.54 -33.55,52.12l-0.1 0.2z"/>
   <path class="fil0" d="M849.38 619.34c1.4,15.08 -3.29,35.54 -7.89,51.12 -24.66,-38.04 -59.51,-74.98 -94.95,-102.64l-30.15 -23.46c-0.1,-5.59 -0.3,-11.28 0.7,-16.87l11.48 -11.08c17.67,9.99 34.85,19.77 50.82,32.05l10.48 7.99c9.49,7.29 18.67,14.38 27.46,22.57 12.68,11.98 23.46,25.06 32.05,40.24l0 0.09z"/>
   <path class="fil0" d="M466.98 452.9c-14.78,1.8 -32.75,5.79 -45.03,13.98 -14.98,9.99 -15.18,28.76 -11.78,45.03 -16.57,-13.98 -25.16,-32.75 -23.96,-54.82 1.1,-19.77 15.38,-35.34 31.85,-44.53 10.59,-5.89 17.37,-7.19 28.16,-12.28 8.29,2.3 29.85,4.99 23.96,18.37 -0.7,1.5 -0.7,3.09 0,4.49 2.49,5.79 6.49,10.08 11.48,14.08 10.39,8.29 22.66,12.58 35.54,15.38l-8.09 -0.3c-14.18,-0.5 -27.96,-1.1 -42.13,0.5l0 0.09zm-28.46 -30.25l14.28 -1.1c-7.49,-1.4 -23.26,-2 -30.15,2.3l15.97 -1.3 -0.1 0.1zm-6.79 15.08l13.68 -7.99c-4.09,-1.3 -14.38,-3.69 -14.38,3.2l0.8 4.89 -0.1 -0.1z"/>
   <path class="fil0" d="M735.96 665.97c0.3,4.59 1.1,8.19 0.6,13.28 -23.26,-32.45 -47.33,-65.2 -62.7,-102.94l27.56 -19.07 10.79 -7.49 14.68 16.08c1,1 2.89,3.29 3,4.69l3.09 45.53 3.09 49.92 -0.1 0z"/>
   <path class="fil0" d="M684.44 654.28c-18.07,-13.68 -34.65,-27.86 -51.12,-42.73l6.39 -15.08 7.09 -4.19 19.97 -11.58c18.27,42.03 41.43,76.28 69.49,112.92l-51.92 -39.24 0.1 -0.1z"/>
   <path class="fil0" d="M1121.66 739.85l-9.79 -50.12c-22.96,-3.99 -40.44,-22.06 -44.03,-45.03l-29.16 -7.69 28.96 -8.29c3.69,-23.06 21.27,-41.14 44.43,-45.23l9.59 -49.42 9.79 49.42c23.06,4.19 40.64,22.26 43.93,45.63l31.35 7.89 -31.45 7.99c-3.99,22.46 -20.87,40.44 -43.93,44.53l-9.59 50.22 -0.1 0.1zm-12.28 -117.82l11.78 13.38 0 -75.98c0,0 -6.69,35.54 -6.69,35.54l-4.99 27.06 -0.1 0zm-4.69 -2.2l5.99 -29.05c-18.17,4.39 -31.85,18.27 -35.85,36.14l29.85 -7.19 0 0.1zm63.4 7.59c-3.6,-18.77 -17.57,-32.25 -35.34,-36.54l5.69 28.85 29.76 7.69 -0.1 0zm19.67 9.09l-51.92 -12.38 -12.78 12.48 64.7 0 0 -0.1zm-80.48 13.08l12.98 -12.08 -64.3 -0c0,0 23.76,5.89 23.76,5.89l27.56 6.19 -0 0zm20.27 35.05l5.79 -32.35 -11.48 -13.68 0 75.88c0,0 5.69,-29.85 5.69,-29.85l0 0zm-22.96 -30.85l-29.76 -7.39c3.89,17.87 17.57,31.95 35.45,36.04l-5.79 -28.66 0.1 0zm28.06 28.65c18.27,-4.39 31.15,-18.47 35.25,-35.65l-29.76 7.29 -5.49 28.36 0 0z"/>
   <polygon class="fil0" points="129.9,559.73 145.97,609.15 197.99,609.15 155.86,639.81 171.94,689.23 129.9,658.67 87.76,689.23 103.84,639.81 61.81,609.15 113.83,609.15 "/>
  </g>
 </g>
</svg>
