<?xml version="1.0" encoding="UTF-8"?>
<svg id="Capa_2" data-name="Capa 2" xmlns="http://www.w3.org/2000/svg" viewBox="0 0 312.51 720">
  <defs>
    <style>
      .cls-1 {
        fill-rule: evenodd;
      }

      .cls-1, .cls-2 {
        fill: #fff;
      }

      .cls-1, .cls-3 {
        stroke-width: 0px;
      }

      .cls-4, .cls-5, .cls-6 {
        font-family: Gotham-Bold, Gotham;
        font-weight: 700;
      }

      .cls-4, .cls-7, .cls-8 {
        letter-spacing: -.03em;
      }

      .cls-7, .cls-9, .cls-10, .cls-11, .cls-12, .cls-13 {
        font-family: Gotham-Book, Gotham;
      }

      .cls-9 {
        letter-spacing: -.05em;
      }

      .cls-10 {
        letter-spacing: -.05em;
      }

      .cls-11 {
        letter-spacing: -.06em;
      }

      .cls-12 {
        letter-spacing: -.04em;
      }

      .cls-14, .cls-8 {
        font-size: 27.38px;
      }

      .cls-6 {
        font-size: 13.13px;
        letter-spacing: -.03em;
      }

      .cls-3 {
        fill: #1e804b;
        opacity: .8;
      }
    </style>
  </defs>
  <g id="Capa_1-2" data-name="Capa 1">
    <rect class="cls-3" width="312.51" height="720" rx="35.04" ry="35.04"/>
    <g>
      <g>
        <text class="cls-2" transform="translate(49.45 121.01)"><tspan class="cls-14"><tspan class="cls-4" x="0" y="0">K2 </tspan><tspan class="cls-7" x="42.88" y="0">Mon</tspan><tspan class="cls-9" x="98.81" y="0">ke</tspan><tspan class="cls-10" x="127.64" y="0">y</tspan><tspan class="cls-7" x="142.48" y="0">s</tspan></tspan><tspan class="cls-6"><tspan x="0" y="12.55">Jardín Maternal</tspan></tspan><tspan class="cls-6"><tspan x="0" y="25.1">2 Años</tspan></tspan><tspan class="cls-6"><tspan x="0" y="37.65">Jornada Simple</tspan></tspan></text>
        <g>
          <path class="cls-1" d="M46.88,69.92c2.06-3.84,5.14-1.67,5.32,1.75-.53,0-1.05-.24-1.49-.44-1.06-.47-1.89-.84-2.68.24-.23.32-.3.81-.27,1.3.03.56.17,1.23.26,1.48.87,2.49,3.47,2.8,5.75,2.39-.8-.44-4.44.19-4.37-4.17.02-.03.26.16.61.31.88.39,1.96.87,3.32.4l.55-.19.02-.58c.21-5.67-6.44-8.92-7.03-2.49Z"/>
          <path class="cls-1" d="M129.15,63.91v-.02c-4.35-6.19-12.77-1.29-12.8-1.27l-.03.02c-.36-1.38-.8-2.75-1.32-4.09-1.68-4.35-4.14-8.42-7.08-11.91-1.72-2.04-3.61-3.77-5.63-5.19-1.91-1.35-3.95-2.43-6.04-3.23-.54-1.57-1.35-3.37-2.54-4.96-1.4-1.88-3.31-3.48-5.93-4.17l-.14-.04h-.16s-1.72-.05-2.28.96c-1.43-.64-3.21-1.18-4.69-.89-.18.04-.36.08-.53.14-.65.22-1.2.59-1.57,1.12-.41.58-.59,1.28-.43,2.09h0c.01.08.03.15.05.23-.29.09-.54.2-.76.32-.69.41-1.06.99-1.18,1.67-.1.59.02,1.2.31,1.8.25.52.66,1.06,1.17,1.56-1.87.68-3.69,1.57-5.43,2.68-2.43,1.55-4.69,3.52-6.71,5.91-2.94,3.49-5.4,7.56-7.08,11.91-.52,1.34-.95,2.71-1.32,4.09l-.03-.02s-8.45-4.91-12.79,1.27v.02s-5.76,8.22,3.09,15.48l.03.03s5.46,4.3,10.38,1.17c2.93,6.87,9.09,11.52,16.41,13.95,3.96,1.31,8.26,1.96,12.55,1.96s8.59-.66,12.55-1.96c7.32-2.42,13.48-7.08,16.41-13.95,4.92,3.13,10.36-1.15,10.38-1.16l.03-.03c8.85-7.26,3.11-15.46,3.1-15.48ZM48.9,77.4c-6.81-5.61-2.81-11.71-2.59-12.04,2.32-3.31,6.72-1.79,8.57-.94-.82,4.38,1.12,11.38,1.85,13.75-3.47,2.58-7.69-.66-7.83-.76ZM98.43,92.1c-3.7,1.22-7.72,1.83-11.75,1.83s-8.05-.61-11.75-1.83c-9.24-3.06-16.46-9.96-16.5-20.71-.02-4.04.83-8.08,2.31-11.91,1.58-4.09,3.89-7.91,6.65-11.19,1.84-2.18,3.91-3.98,6.12-5.4,3.36-2.14,6.26-2.9,9.86-3.8,1.39-.35.77-.31-.42-.82-1.64-.71-3.66-1.65-4.26-2.89-.04-.08-.06-.14-.08-.19.32-.16,2.28-.15,3.63-.2,1.1-.05,1.09.05.32-.78-.79-.85-2.01-2.03-2.05-2.13-.11-.34.2-.39.48-.44,1.3-.26,4.19,1.2,6.4,2.23,1.73.81,1.72,1.12,1.24-.63l-.34-1.27c1.4.63,2.5,1.65,3.37,2.81,1.14,1.53,1.88,3.32,2.34,4.81l.19.61.61.22c2.09.75,4.12,1.79,6.02,3.13,1.85,1.31,3.59,2.89,5.15,4.74,2.76,3.28,5.07,7.1,6.65,11.19,1.48,3.82,2.32,7.87,2.31,11.91-.04,10.75-7.25,17.66-16.5,20.71ZM124.45,77.4c-.14.11-4.35,3.35-7.82.76.73-2.37,2.67-9.37,1.85-13.75,1.85-.84,6.25-2.37,8.57.94.22.33,4.21,6.43-2.59,12.04Z"/>
          <path class="cls-1" d="M119.44,72.41l.02.58.55.19c1.36.47,2.43,0,3.32-.4.36-.16.59-.34.62-.31.07,4.36-3.56,3.73-4.37,4.17,2.29.4,4.88.09,5.75-2.39.09-.25.23-.92.26-1.48.03-.5-.04-.98-.27-1.3-.79-1.07-1.62-.7-2.68-.24-.45.2-.97.43-1.5.44.18-3.41,3.26-5.59,5.32-1.75-.59-6.42-7.23-3.18-7.03,2.49Z"/>
          <path class="cls-1" d="M96.16,49.45c-2.01,0-3.92.49-5.66,1.39h0c-1.42.73-2.71,1.72-3.83,2.92-1.12-1.2-2.41-2.19-3.83-2.92-1.73-.89-3.65-1.39-5.66-1.39-3.89,0-7.4,1.84-9.93,4.8-2.5,2.92-4.04,6.95-4.04,11.39,0,2.6.53,5.05,1.46,7.23.86,1.99,2.07,3.75,3.52,5.17-.15.33-.27.66-.37,1.01-.18.62-.27,1.24-.27,1.87,0,3.16,2.23,5.97,5.84,7.96,3.42,1.88,8.11,3.04,13.27,3.04s9.86-1.16,13.28-3.04c3.61-1.99,5.84-4.79,5.84-7.96,0-.63-.09-1.26-.27-1.87-.1-.34-.23-.68-.38-1.01,1.46-1.42,2.66-3.18,3.52-5.17.94-2.18,1.47-4.63,1.47-7.23,0-4.44-1.55-8.46-4.04-11.39-2.54-2.97-6.04-4.8-9.94-4.8ZM106.71,72.03c-.85,1.98-2.09,3.69-3.58,4.98l-.67.58.46.77c.25.42.44.85.57,1.28.12.41.18.84.18,1.28,0,2.32-1.81,4.48-4.73,6.09-3.11,1.71-7.45,2.77-12.25,2.77s-9.13-1.06-12.25-2.77c-2.93-1.61-4.73-3.77-4.73-6.09,0-.44.06-.87.18-1.28.13-.43.32-.86.57-1.28l.46-.77-.68-.58c-1.5-1.3-2.73-3-3.58-4.98-.83-1.91-1.29-4.08-1.29-6.38,0-3.92,1.35-7.45,3.52-10,2.14-2.5,5.08-4.05,8.32-4.05,1.67,0,3.26.41,4.69,1.14h0c1.5.77,2.85,1.91,3.96,3.32l.84,1.06.84-1.06c1.11-1.41,2.46-2.55,3.96-3.32h0c1.43-.74,3.02-1.14,4.69-1.14,3.24,0,6.18,1.55,8.32,4.05,2.18,2.55,3.52,6.09,3.52,10,0,2.3-.47,4.47-1.29,6.38Z"/>
          <path class="cls-1" d="M97.79,57.77c-1.67,0-3.17.76-4.26,1.99-1.07,1.2-1.73,2.86-1.73,4.69s.66,3.48,1.73,4.69c1.09,1.23,2.59,1.99,4.26,1.99s3.17-.76,4.26-1.99c1.06-1.2,1.72-2.86,1.72-4.69s-.66-3.48-1.72-4.69c-1.09-1.23-2.59-1.99-4.26-1.99ZM97.64,64.93c-.63,0-1.14-.58-1.14-1.29s.51-1.29,1.14-1.29,1.14.58,1.14,1.29-.51,1.29-1.14,1.29ZM101.02,68.22c-.13.15-.27.29-.42.42-.02.02-.04.04-.06.05-.13.11-.26.21-.4.31-.01,0-.03.02-.04.03,1.53-1.92,1.59-4.79,0-6.89-.53-.7-1.19-1.24-1.91-1.61-.89-.46-1.89-.65-2.86-.56.02-.01.04-.03.06-.04.14-.1.28-.19.43-.27.04-.02.08-.04.11-.06.18-.09.36-.17.54-.23.02,0,.05-.01.07-.02.16-.05.33-.09.5-.13.05,0,.1-.02.15-.03.2-.03.4-.05.6-.05.16,0,.31,0,.46.03.11.01.23.04.34.06.04,0,.07.01.11.02.29.07.58.17.85.3.56.26,1.06.65,1.48,1.12.85.96,1.38,2.3,1.38,3.78s-.53,2.82-1.38,3.78Z"/>
          <path class="cls-1" d="M75.56,57.77c-1.67,0-3.17.76-4.26,1.99-1.06,1.2-1.73,2.86-1.73,4.69s.66,3.48,1.73,4.69c1.09,1.23,2.59,1.99,4.26,1.99s3.17-.76,4.26-1.99c1.07-1.2,1.73-2.86,1.73-4.69s-.66-3.48-1.73-4.69c-1.08-1.23-2.59-1.99-4.26-1.99ZM75.71,64.93c-.63,0-1.14-.58-1.14-1.29s.51-1.29,1.14-1.29,1.15.58,1.15,1.29-.51,1.29-1.15,1.29ZM75.17,60.53c-.72.37-1.38.91-1.91,1.61-1.59,2.1-1.53,4.97,0,6.89-.02-.01-.04-.03-.06-.04-.12-.08-.23-.17-.35-.26-.04-.03-.07-.06-.11-.09-.14-.13-.28-.26-.4-.4-.85-.96-1.38-2.3-1.38-3.78s.52-2.82,1.38-3.78c.21-.24.44-.45.68-.64,0,0,0,0,.01,0,.24-.18.5-.34.78-.47,0,0,.02,0,.03-.01.13-.06.25-.11.39-.16.02,0,.03,0,.05-.01.13-.04.25-.08.38-.11.04-.01.09-.01.13-.02.1-.02.21-.04.31-.05.15-.02.31-.03.46-.03.2,0,.4.02.6.05.05,0,.1.02.15.03.17.03.34.07.51.13.02,0,.04.01.06.02.19.07.37.15.55.24.03.02.06.03.09.05.16.09.32.19.48.3,0,0,.02.01.03.02-.97-.09-1.97.11-2.86.56Z"/>
          <path class="cls-1" d="M88.05,78.3c.25.04.72-.73,1.04-1.72.32-.99.38-1.83.13-1.87-.25-.04-.72.73-1.04,1.72-.32.99-.38,1.83-.12,1.87Z"/>
          <path class="cls-1" d="M85.3,78.3c.25-.04.2-.87-.12-1.87-.32-.99-.79-1.76-1.04-1.72-.26.04-.2.88.12,1.87.32.99.79,1.76,1.04,1.72Z"/>
          <path class="cls-1" d="M90.35,80.8c0,1.72-7.34,1.72-7.34,0,0-.88-.86-.96-.86,0,0,3.63,9.07,3.63,9.07,0,0-.96-.87-.88-.87,0Z"/>
        </g>
      </g>
      <g>
        <text class="cls-2" transform="translate(42.36 288.21)"><tspan class="cls-8"><tspan class="cls-5" x="0" y="0">K3 </tspan><tspan class="cls-13" x="42.82" y="0">Hippos</tspan></tspan><tspan class="cls-6"><tspan x="0" y="12.55">Jardín de Infantes</tspan></tspan><tspan class="cls-6"><tspan x="0" y="25.1">3 Años</tspan></tspan><tspan class="cls-6"><tspan x="0" y="37.65">Jornada Simple</tspan></tspan></text>
        <g>
          <path class="cls-1" d="M111.91,203.88c-.42-.52-.88-1-1.36-1.43-1.49-1.34-3.31-2.34-5.19-2.68-2-.35-4.04.03-5.85,1.5-.32.27-.64.56-.92.88-.86.96-1.27,1.7-1.67,2.41-.12.21-.23.42-.37.63,0,0,0,0,0,0-5.3-3.18-11.73-4.78-18.16-4.78s-12.86,1.6-18.16,4.78c-.13-.21-.25-.41-.37-.63-.4-.71-.82-1.45-1.67-2.41-.29-.32-.59-.61-.92-.88-1.8-1.48-3.85-1.86-5.84-1.5-1.88.34-3.7,1.34-5.19,2.68-.48.43-.94.91-1.36,1.43-3.32,4.05-3.02,7.1-.99,9.53,1.36,1.63,3.51,2.85,5.78,3.9-2.54,6.36-2.61,14.49,1.18,24.37-.14.76-.24,1.53-.26,2.3-.07,2.25.41,4.5,1.61,6.62,1.43,2.5,3.7,4.55,6.53,6.17,5.25,2.99,12.47,4.49,19.67,4.49s14.42-1.49,19.67-4.49c2.83-1.61,5.1-3.67,6.53-6.17,1.2-2.11,1.69-4.36,1.62-6.62-.02-.77-.12-1.54-.26-2.3,3.79-9.88,3.72-18.01,1.18-24.37,0,0,0,0,0,0,2.27-1.05,4.42-2.27,5.78-3.9,2.04-2.44,2.34-5.48-.99-9.53ZM97.78,205.97s-.01,0-.02-.01c0,0,.01,0,.02.01ZM59.02,205.96s-.01,0-.02.01c0,0,.01,0,.02-.01ZM46.11,211.56c-1.13-1.36-1.19-3.18,1-5.84.32-.38.67-.76,1.07-1.11,1.11-1,2.43-1.74,3.76-1.98,1.21-.21,2.43,0,3.49.88.2.16.4.35.61.59.64.72.98,1.32,1.3,1.89.16.28.31.55.49.83-.99.74-1.93,1.54-2.81,2.41-1.61,1.61-2.99,3.44-4.11,5.48,0,0,0,0,0,0-1.97-.9-3.78-1.91-4.8-3.13ZM50.31,215.87c-.05.1-.09.2-.14.29.05-.1.09-.2.14-.29ZM102.07,249.16c-1.15,2.02-3.05,3.72-5.44,5.08-4.8,2.74-11.5,4.1-18.24,4.1s-13.44-1.36-18.24-4.1c-2.39-1.36-4.29-3.06-5.44-5.08-.93-1.62-1.29-3.36-1.24-5.11.06-2,.68-4.02,1.65-5.91,1.62-3.15,4.42-5.61,7.86-7.39,4.42-2.28,9.9-3.42,15.4-3.42s10.98,1.14,15.4,3.42c3.45,1.78,6.24,4.24,7.86,7.39.98,1.89,1.59,3.91,1.65,5.91.05,1.75-.32,3.48-1.24,5.11ZM62.71,224.93c-.1-.07-.19-.15-.29-.24-.04-.04-.08-.07-.13-.11-.13-.12-.25-.25-.37-.4-.8-.96-1.29-2.31-1.29-3.79s.5-2.83,1.29-3.79c.2-.24.41-.45.64-.64,0,0,.02-.01.03-.02.22-.18.46-.33.7-.46.12-.06.25-.12.37-.17,0,0,.01,0,.02,0,.11-.04.22-.07.33-.1.03,0,.06-.02.09-.03.11-.03.21-.04.32-.06.04,0,.07-.01.1-.02.14-.02.29-.03.44-.03.19,0,.37.02.56.05.05,0,.1.02.14.03.15.03.31.07.46.12.03,0,.06.02.08.03.17.06.33.14.49.23.05.03.1.06.14.08.11.07.22.14.33.22.03.02.06.04.09.07-.91-.09-1.84.11-2.67.56-.68.37-1.29.91-1.79,1.62-1.49,2.11-1.43,4.98,0,6.91-.03-.02-.05-.04-.08-.06ZM65.09,220.88c-.59,0-1.07-.58-1.07-1.3s.48-1.3,1.07-1.3,1.07.58,1.07,1.3-.48,1.3-1.07,1.3ZM89.61,215.82c.11-.08.22-.15.33-.22.05-.03.09-.06.14-.08.16-.09.32-.16.49-.22.03-.01.06-.02.09-.03.15-.05.29-.09.45-.12.05-.01.1-.02.15-.03.18-.03.37-.05.56-.05.15,0,.29,0,.43.03.08,0,.16.03.24.04.06.01.12.02.18.03.08.02.15.05.23.07.06.02.12.03.18.06.05.02.1.05.15.07.08.03.16.07.24.11.25.13.49.28.71.46,0,0,.02.01.03.02.23.19.44.4.64.64.8.96,1.29,2.31,1.29,3.79s-.49,2.83-1.29,3.79c-.12.14-.24.27-.37.4-.04.04-.09.08-.13.12-.09.08-.19.16-.28.23-.03.02-.06.04-.09.06,1.43-1.93,1.48-4.81,0-6.91-.5-.7-1.12-1.25-1.79-1.62-.84-.46-1.76-.65-2.67-.56.03-.02.06-.05.1-.07ZM90.61,219.58c0-.72.48-1.3,1.07-1.3s1.07.58,1.07,1.3-.48,1.3-1.07,1.3-1.07-.58-1.07-1.3ZM104.41,237.19c-.06-.12-.12-.25-.18-.37-1.91-3.72-5.15-6.6-9.11-8.64-.82-.42-1.69-.8-2.57-1.15,1.27-.2,2.4-.89,3.26-1.93,1-1.21,1.62-2.87,1.62-4.7s-.62-3.49-1.62-4.7c-1.01-1.23-2.42-2-3.99-2s-2.97.76-3.99,2c-1,1.21-1.61,2.87-1.61,4.7s.61,3.49,1.61,4.7c.17.21.36.4.56.58-3.2-.82-6.6-1.24-10-1.24s-6.8.42-10,1.24c.2-.18.39-.37.56-.58,1-1.21,1.62-2.87,1.62-4.7s-.62-3.49-1.62-4.7c-1.02-1.23-2.43-2-3.99-2s-2.97.76-3.99,2c-1,1.21-1.62,2.87-1.62,4.7s.62,3.49,1.62,4.7c.86,1.04,1.99,1.74,3.26,1.93-.88.35-1.75.73-2.57,1.15-3.96,2.04-7.19,4.92-9.11,8.64-.06.12-.12.25-.18.37-3.5-11.68-.9-20.31,4.69-25.9,5.32-5.31,13.32-7.97,21.33-7.97s16.02,2.66,21.33,7.97c5.6,5.59,8.19,14.22,4.69,25.91ZM106.47,215.87c.05.1.09.2.14.3-.05-.1-.09-.2-.14-.3ZM110.67,211.56c-1.02,1.22-2.83,2.23-4.8,3.13h0c-1.12-2.03-2.5-3.86-4.1-5.47-.87-.87-1.82-1.67-2.81-2.42.17-.28.33-.55.49-.83.32-.57.66-1.17,1.3-1.89.21-.23.41-.43.6-.59,1.07-.87,2.29-1.09,3.5-.88,1.33.24,2.65.98,3.76,1.98.4.35.75.73,1.07,1.11,2.18,2.66,2.13,4.49,1,5.84Z"/>
          <path class="cls-1" d="M87.34,230.72c-2.04,0-2.5,4.75-1.79,3.7.82-1.04.61,0,1.79,0,.96,0,1.73-.83,1.73-1.85s-.77-1.85-1.73-1.85Z"/>
          <path class="cls-1" d="M89.04,231.09c-.24-1.91-3.54-1.91-3.78,0,.73-1.28,3.05-1.28,3.78,0Z"/>
          <path class="cls-1" d="M71.23,234.41c.72,1.06.26-3.7-1.79-3.7-.95,0-1.73.83-1.73,1.85s.77,1.85,1.73,1.85c1.18,0,.97-1.04,1.79,0Z"/>
          <path class="cls-1" d="M71.52,231.09c-.24-1.91-3.54-1.91-3.78,0,.73-1.28,3.06-1.28,3.78,0Z"/>
          <path class="cls-1" d="M83.7,240.88c-.27-.38-.55-.72-.85-1.01h0c-1.25-1.2-2.86-1.8-4.46-1.8s-3.2.6-4.46,1.8c-.3.29-.59.63-.85,1.01-.92,1.32-1.73,3.29-2.03,5.21-.32,2.04-.07,4.07,1.18,5.38.19.2.39.37.6.52,1.06.74,3.34,1.11,5.56,1.11s4.5-.37,5.56-1.11c.21-.14.41-.32.6-.52,1.25-1.31,1.5-3.34,1.18-5.38-.3-1.92-1.11-3.89-2.03-5.21ZM74.66,241.98c.21-.29.41-.54.6-.72.35-.33.74-.58,1.15-.78.37,1,.84,1.89.64,2.6-.13.45-1.77,1.94-2.23,1.95-.42,0-.87-.3-1.36-.61.32-.92.74-1.78,1.2-2.45ZM82.39,250.39c-.01.09-.03.18-.05.26-.03.01-.06.02-.09.03-.07.03-.15.05-.22.07-.08.02-.17.05-.26.07-.06.01-.11.03-.18.04-.16.04-.33.07-.51.1-.03,0-.05,0-.08.01-.16.02-.33.05-.5.07-.05,0-.11.01-.16.02-.15.02-.3.03-.46.04-.06,0-.12,0-.18.01-.15.01-.31.02-.47.02-.06,0-.12,0-.18,0-.22,0-.43.01-.65.01s-.44,0-.65-.01c-.06,0-.11,0-.17,0-.16,0-.33-.01-.49-.03-.06,0-.11,0-.17-.01-.17-.01-.33-.03-.49-.04-.04,0-.08,0-.12-.01-.19-.02-.38-.05-.57-.08,0,0,0,0-.01,0-.19-.03-.37-.07-.54-.1-.03,0-.06-.02-.1-.02-.12-.03-.24-.06-.35-.09-.06-.02-.12-.04-.17-.06-.04-.02-.08-.03-.13-.05-.02-.11-.04-.22-.06-.33-.03-.19-.04-.39-.04-.59,0-.29.03-.59.09-.86.11-.51.31-.99.58-1.42.72-1.12,1.97-1.86,3.38-1.86s2.7.77,3.42,1.92c.27.43.46.91.56,1.43.05.26.07.52.07.8,0,.22-.02.44-.05.66ZM81.95,245.04c-.46,0-2.11-1.5-2.23-1.95-.2-.72.28-1.6.65-2.6.41.2.81.45,1.16.78h0c.19.18.39.42.59.72.46.66.87,1.52,1.2,2.45-.49.31-.93.62-1.36.61Z"/>
        </g>
      </g>
      <g>
        <text class="cls-2" transform="translate(43.08 455.46) rotate(.01)"><tspan class="cls-14"><tspan class="cls-4" x="0" y="0">K4 </tspan><tspan class="cls-7" x="44.68" y="0">Lions &amp; </tspan><tspan class="cls-11" x="146.15" y="0">T</tspan><tspan class="cls-7" x="162.22" y="0">igers</tspan></tspan><tspan class="cls-6"><tspan x="0" y="12.55">Jardín de Infantes</tspan></tspan><tspan class="cls-6"><tspan x="0" y="25.1">4 Años</tspan></tspan><tspan class="cls-6"><tspan x="0" y="37.65">Jornada Simple</tspan></tspan></text>
        <g>
          <path class="cls-1" d="M166.31,385.45c-1.8,0-3.42.82-4.59,2.14-1.15,1.3-1.86,3.08-1.86,5.05s.71,3.76,1.86,5.06c1.17,1.32,2.79,2.14,4.59,2.14s3.42-.82,4.59-2.14c1.15-1.3,1.86-3.09,1.86-5.06s-.71-3.75-1.86-5.05c-1.17-1.32-2.8-2.14-4.59-2.14ZM166.15,393.17c-.68,0-1.23-.62-1.23-1.39s.55-1.4,1.23-1.4,1.24.62,1.24,1.4-.55,1.39-1.24,1.39ZM169.36,397.16s-.08.07-.13.11c-.11.09-.23.18-.35.26-.03.02-.06.04-.09.06,1.65-2.08,1.71-5.17,0-7.43-.57-.76-1.28-1.34-2.06-1.73-.96-.49-2.03-.7-3.07-.61.04-.03.08-.06.12-.08.11-.08.23-.15.35-.22.06-.04.12-.07.19-.1.18-.09.36-.17.55-.23.04-.01.08-.02.13-.04.16-.05.33-.09.5-.12.06-.01.12-.02.18-.03.21-.03.42-.05.64-.05.68,0,1.33.16,1.92.44.29.14.56.31.82.5,0,0,0,0,.01,0,.27.2.51.43.74.69.92,1.04,1.48,2.48,1.48,4.08s-.57,3.04-1.48,4.08c-.14.15-.28.3-.43.43Z"/>
          <path class="cls-1" d="M144.42,387.59c-1.17-1.32-2.8-2.14-4.59-2.14s-3.42.82-4.59,2.14c-1.15,1.3-1.86,3.08-1.86,5.05s.71,3.76,1.86,5.06c1.17,1.32,2.79,2.14,4.59,2.14s3.42-.82,4.59-2.14c1.15-1.3,1.86-3.09,1.86-5.06s-.71-3.75-1.86-5.05ZM137.22,397.52c-.11-.08-.22-.16-.33-.25-.04-.04-.09-.07-.13-.11-.15-.14-.3-.28-.44-.43-.92-1.04-1.48-2.48-1.48-4.08s.57-3.04,1.48-4.08c.23-.25.47-.48.74-.69,0,0,.02-.01.03-.02.26-.19.53-.36.81-.5.43-.2.89-.34,1.36-.4.02,0,.03,0,.05,0,.17-.02.33-.03.5-.03.22,0,.43.02.64.05.06,0,.12.02.18.03.17.03.33.07.49.12.05.01.09.02.14.04.19.07.37.14.55.23.06.03.12.06.18.1.13.07.26.15.39.24.03.02.06.04.1.07-1.05-.09-2.11.12-3.07.61-.78.4-1.49.98-2.06,1.73-1.72,2.27-1.65,5.35-.01,7.43-.04-.02-.07-.05-.11-.07ZM139.98,393.17c-.68,0-1.24-.62-1.24-1.39s.56-1.4,1.24-1.4,1.23.62,1.23,1.4-.55,1.39-1.23,1.39Z"/>
          <path class="cls-1" d="M192.44,377.07c-.1-2.02-.75-3.9-1.79-5.47-.96-1.46-2.26-2.66-3.77-3.47-1.52-.82-3.25-1.25-5.07-1.16-1.75.09-3.57.65-5.32,1.82-1.74,1.15-3.3,2.55-4.25,3.47-4.3-3.6-11.76-5.4-19.17-5.4s-14.86,1.8-19.17,5.4c-.95-.92-2.51-2.32-4.25-3.47-1.76-1.16-3.57-1.73-5.32-1.82-1.82-.09-3.55.34-5.07,1.16-1.51.82-2.81,2.02-3.77,3.47-1.04,1.57-1.68,3.45-1.78,5.47-.1,1.95.17,3.48.76,4.94.57,1.4,1.4,2.68,2.49,4.18.77,1.06,1.7,2.18,2.78,3.18.76.71,1.6,1.36,2.5,1.89-1.42,3.18-4.68,11.92-2.36,20.43.88,3.21,2.16,5.64,3.98,7.64,1.8,1.98,4.1,3.5,7.04,4.94,5.94,2.91,14.08,4.36,22.19,4.36s16.25-1.46,22.19-4.36c2.94-1.44,5.24-2.96,7.04-4.94,1.82-2,3.1-4.42,3.98-7.64,2.32-8.51-.94-17.25-2.36-20.43.9-.53,1.74-1.18,2.5-1.89,1.08-1,2.01-2.12,2.78-3.18,1.08-1.5,1.92-2.77,2.48-4.18.58-1.46.86-3,.76-4.94ZM189.12,380.99c-.46,1.15-1.2,2.26-2.16,3.59-.68.94-1.49,1.92-2.41,2.77-.63.58-1.32,1.12-2.06,1.55-.3-3.32-2.77-8.18-3.99-10.32,2.66-4.22,5.52-4.4,6.52-4.31l1.35-1.55c-3.89-.95-7.42,1.1-9.51,4.19-.72,1.07-1,1.65-.34,2.8,2.89,5.08,2.5,8.01,4.36,11.57,0,0,.69,1.3,1.45,3.39-1.31,1.35-3.97,3.64-6.99,3.56,0,0,3.21,2.45,8.21.52.22.96.42,1.99.56,3.06-1.85.28-5.13.39-7.73-1.65,0,0,1.4,4.81,7.94,6.25-.07,1.5-.28,3.04-.7,4.56-.76,2.76-1.84,4.83-3.36,6.5-1.55,1.7-3.58,3.04-6.21,4.33-5.55,2.71-13.25,4.07-20.99,4.07s-15.44-1.36-20.98-4.07c-2.63-1.29-4.66-2.63-6.21-4.33-1.53-1.68-2.61-3.74-3.36-6.5-.42-1.52-.63-3.06-.7-4.56,6.54-1.45,7.94-6.25,7.94-6.25-2.59,2.04-5.87,1.93-7.72,1.65.14-1.07.33-2.09.56-3.06,4.99,1.93,8.21-.52,8.21-.52-3.02.08-5.69-2.21-6.99-3.56.76-2.09,1.44-3.38,1.45-3.39,1.87-3.56,1.48-6.5,4.37-11.57.66-1.15.38-1.73-.34-2.8-2.09-3.1-5.63-5.14-9.52-4.19l1.35,1.55c.99-.08,3.85.09,6.51,4.31-1.22,2.14-3.68,7-3.98,10.32-.74-.43-1.43-.96-2.06-1.55-.92-.85-1.73-1.83-2.41-2.77-.96-1.33-1.7-2.44-2.16-3.59-.44-1.1-.64-2.27-.56-3.79.07-1.51.56-2.9,1.33-4.08.71-1.08,1.67-1.96,2.78-2.56,1.09-.59,2.34-.9,3.63-.84,1.27.06,2.61.49,3.93,1.36,2.58,1.7,4.71,4.02,4.72,4.02l1,1.08,1.01-1.06c.1-.1.2-.2.3-.29,3.05-2.93,8.57-4.62,14.51-5.09.13.3.25.62.38.99-4.28.5-7.56,2.03-8.24,3.93,2.57-.51,5.66-.84,9.02-.95.18.82.35,1.7.51,2.61-3.94.31-7.02,1.65-7.63,3.34,2.27-.45,5.04-.74,8.04-.8.2,1.35.38,2.7.54,3.98-3.48.15-6.28,1.29-6.8,2.75,1.98-.39,4.41-.63,7.05-.66.34,2.96.52,5.11.55,5.11s.22-2.16.55-5.11c2.64.03,5.08.27,7.05.66-.52-1.46-3.32-2.6-6.8-2.75.16-1.28.34-2.63.54-3.98,3.01.07,5.77.36,8.04.8-.61-1.68-3.69-3.03-7.63-3.34.16-.91.33-1.79.5-2.61,3.37.11,6.46.44,9.02.95-.68-1.9-3.96-3.43-8.24-3.93.12-.37.25-.69.37-.99,5.94.47,11.46,2.16,14.51,5.09.1.1.2.2.3.29l1.01,1.06,1-1.08s2.14-2.32,4.72-4.02c1.32-.87,2.66-1.3,3.93-1.36,1.3-.06,2.54.24,3.64.84,1.11.6,2.06,1.48,2.78,2.56.78,1.18,1.26,2.57,1.34,4.08.08,1.52-.13,2.7-.56,3.79Z"/>
          <path class="cls-1" d="M159.38,410.84c0,.55-.96.95-1.39,1.08-.52.15-1.11.2-1.68.14-.56-.06-1.09-.23-1.53-.52-1.14-.77-.89-1.53-.98-2.59,2.05-.2,3.61-1.26,3.61-2.53,0-1.42-1.94-2.57-4.34-2.57s-4.34,1.15-4.34,2.57c0,1.27,1.56,2.33,3.61,2.53-.09,1.06.16,1.82-.98,2.59-.44.3-.97.46-1.53.52-.57.06-1.16.01-1.68-.14-.43-.12-1.39-.52-1.39-1.08,0-.95-1.49-1.03-1.49,0,0,1.28,1.4,2.14,2.5,2.45.69.2,1.47.26,2.23.18.77-.08,1.53-.33,2.17-.76.35-.23.66-.52.91-.85.26.34.56.62.91.85.64.43,1.4.68,2.17.76.76.08,1.54.02,2.22-.18,1.1-.31,2.5-1.17,2.5-2.45,0-1.03-1.49-.95-1.49,0ZM155.81,405.36c.05-.1.32-.06.58.09.27.15.45.35.39.45-.05.1-.32.06-.59-.09-.27-.15-.44-.35-.39-.45ZM153.62,404.49c.1-.2.62-.16,1.18.1.56.26.93.64.84.84-.1.2-.62.16-1.18-.1-.56-.26-.93-.64-.84-.84Z"/>
        </g>
        <g>
          <path class="cls-1" d="M88.54,389.77c-1.52,0-2.9.69-3.9,1.82-.98,1.1-1.58,2.62-1.58,4.29s.6,3.18,1.58,4.29c.99,1.12,2.37,1.82,3.9,1.82s2.9-.7,3.89-1.82c.98-1.1,1.58-2.62,1.58-4.29s-.6-3.18-1.58-4.29c-.99-1.12-2.37-1.82-3.89-1.82ZM88.41,396.32c-.58,0-1.04-.53-1.04-1.18s.47-1.18,1.04-1.18,1.05.53,1.05,1.18-.47,1.18-1.05,1.18ZM91.14,399.69s-.08.07-.12.11c-.09.08-.19.15-.29.22-.02.02-.05.03-.07.05,1.4-1.76,1.45-4.38,0-6.3-.48-.64-1.08-1.14-1.74-1.47-.82-.42-1.72-.59-2.61-.51.01,0,.03-.02.04-.03.13-.09.26-.17.4-.25.04-.02.07-.04.11-.06.16-.08.32-.15.49-.21.03,0,.06-.02.09-.02.14-.05.29-.08.44-.11.05,0,.1-.02.14-.03.18-.03.36-.04.54-.04.28,0,.56.03.83.09,0,0,0,0,0,0,.26.06.51.15.75.26.01,0,.02,0,.03.01.25.12.48.26.7.43,0,0,.01,0,.02.01.22.17.43.37.62.58.78.88,1.26,2.1,1.26,3.46s-.48,2.58-1.26,3.46c-.11.13-.23.25-.36.36Z"/>
          <path class="cls-1" d="M66.08,389.77c-1.53,0-2.9.69-3.9,1.82-.98,1.1-1.58,2.62-1.58,4.29s.6,3.18,1.58,4.29c.99,1.12,2.37,1.82,3.9,1.82s2.9-.7,3.89-1.82c.97-1.1,1.58-2.62,1.58-4.29s-.6-3.18-1.58-4.29c-.99-1.12-2.37-1.82-3.89-1.82ZM63.9,400.01c-.1-.07-.19-.14-.29-.22-.04-.04-.09-.07-.13-.11-.13-.11-.25-.23-.36-.36-.78-.88-1.26-2.1-1.26-3.46s.48-2.58,1.26-3.46c.19-.22.4-.41.62-.58,0,0,.01,0,.02-.01.22-.17.45-.31.7-.43.01,0,.02,0,.03-.01.24-.11.49-.2.75-.26,0,0,0,0,0,0,.27-.06.55-.09.83-.09.18,0,.36.02.54.05.05,0,.1.02.14.02.15.03.3.06.44.11.03,0,.06.02.09.03.16.06.32.13.48.21.04.02.09.05.13.07.12.07.24.14.35.22.02.02.05.03.07.05-.89-.08-1.8.1-2.61.52-.66.34-1.26.83-1.74,1.47-1.46,1.92-1.4,4.54,0,6.3-.02-.02-.05-.03-.07-.05ZM66.22,396.32c-.58,0-1.04-.53-1.04-1.18s.47-1.18,1.04-1.18,1.05.53,1.05,1.18-.47,1.18-1.05,1.18Z"/>
          <path class="cls-1" d="M82.21,405.06c-.09,0-.18,0-.27,0-.96.12-.4,1.27-1.31,1.73-.21.11-.76.21-1.02.23-1.42.07-1.53-1.48-1.41-2.67.54-.08,1.06-.24,1.56-.48.97-.47,1.81-1.25,2.34-2.33l.09-.19c.43-.85.62-1.23-.26-2.06h0c-.68-.64-2.67-.96-4.61-.96s-3.93.32-4.61.96h0c-.88.82-.69,1.2-.26,2.06l.09.19c.53,1.08,1.37,1.86,2.34,2.33.49.24,1.02.39,1.56.48.12,1.19,0,2.74-1.41,2.67-.25-.01-.8-.12-1.02-.23-.92-.45-.36-1.61-1.31-1.73-.09,0-.18-.01-.27,0-1.15.11-.92,1.99.48,2.98.6.42,1.37.6,2.09.67,1.1.11,1.84-.18,2.32-.7.48.51,1.22.81,2.32.7.72-.07,1.49-.25,2.09-.67,1.4-.98,1.63-2.86.48-2.98ZM74.96,400.29c0-.11,1.05-.2,2.35-.2s2.35.09,2.35.2-1.05.2-2.35.2-2.35-.09-2.35-.2Z"/>
          <path class="cls-1" d="M96.86,385.17c-1.63-2.56-4.06-4.54-7.37-5.7-3.63-1.27-6.65-.39-8.9,1-1.35.84-2.41,1.86-3.14,2.7-1.05-1.19-2.75-2.76-5.02-3.64-1.96-.76-4.33-1-7.02-.06-3.3,1.16-5.73,3.15-7.37,5.7-1.67,2.61-2.49,5.79-2.55,9.25-2.55,3.08-3.42,6.93-2.92,10.66.49,3.76,2.37,7.4,5.31,10.01l.23.2c4.79,4.1,12.08,6.14,19.35,6.14s14.55-2.05,19.35-6.14l.23-.2c2.93-2.61,4.81-6.25,5.31-10.01.49-3.73-.38-7.58-2.93-10.66-.06-3.46-.89-6.64-2.55-9.25ZM99.97,404.77c-.42,3.2-2.02,6.3-4.53,8.53l-.19.17c-4.34,3.71-11.05,5.56-17.79,5.56s-13.45-1.85-17.79-5.56l-.19-.17c-2.5-2.23-4.11-5.33-4.53-8.53-.42-3.16.33-6.4,2.5-8.95l.44-.5v-.45c0-3.2.7-6.1,2.18-8.41,1.35-2.11,3.37-3.76,6.14-4.73,2.07-.73,3.88-.54,5.37.03,2.62,1.01,4.36,3.23,4.91,4.02l.98,1.4.98-1.4c.44-.63,1.62-2.16,3.42-3.28,1.73-1.07,4.06-1.75,6.85-.78,2.77.97,4.79,2.62,6.14,4.73,1.48,2.31,2.17,5.21,2.17,8.41v.45l.45.5c2.18,2.55,2.92,5.79,2.5,8.95Z"/>
          <path class="cls-1" d="M112.25,403.26c-.09-3.94-1.01-7.71-1.63-9.84,1.17-.22,1.54-1.26,1.51-2.58-.02-1.12-.46-2.41-.73-3.19-1-2.92-2.7-5.42-4.68-7.52.7-7.26-6.49-11.95-11.86-8.03-.16-.07-.32-.14-.47-.2.29-.49.42-1.03.41-1.53,0-.7-.25-1.29-.67-1.8-.86-1.01-2.47-1.52-4.4-1.67-1.73-.14-3.76,0-5.7.28-2.7.4-5.29,1.17-6.73,2.01-1.44-.85-4.02-1.61-6.72-2.01-1.94-.29-3.98-.42-5.71-.28-1.93.15-3.54.66-4.4,1.67-.43.5-.66,1.1-.67,1.8,0,.5.12,1.04.41,1.53-.09.04-.2.09-.29.13-5.29-3.73-12.26.77-11.77,7.83-2.09,2.16-3.9,4.73-4.95,7.79-.27.78-.7,2.08-.72,3.19-.03,1.32.34,2.36,1.51,2.58-.62,2.13-1.54,5.9-1.63,9.84-.07,3,.34,6.1,1.7,8.71.32.62.89,1.57,1.57,2.24.41.42.88.74,1.39.89.49.14.98.13,1.44-.09.65,1.74,1.84,4.24,3.83,6.57,1.69,1.98,3.95,3.84,6.97,5.02.42.17,1.91.71,3.19.86.59.07,1.17.06,1.67-.09.76-.23,1.3-.73,1.41-1.6v-.02c.49.04,1.12.15,1.9.41,1.64.55,3.84,1.71,6.55,4.11.12.11.32.34.52.58.74.87,1.59,1.87,2.81,1.77,1.22.1,2.07-.9,2.81-1.77.21-.24.4-.47.52-.58,2.71-2.4,4.92-3.57,6.55-4.11.78-.26,1.41-.37,1.9-.41v.02c.12.87.65,1.37,1.42,1.6.5.15,1.08.16,1.67.09,1.28-.15,2.77-.69,3.19-.86,3.01-1.18,5.28-3.04,6.97-5.02,1.99-2.33,3.17-4.83,3.82-6.57.47.22.95.23,1.44.09.51-.15.98-.48,1.39-.89.67-.68,1.25-1.63,1.57-2.24,1.36-2.61,1.77-5.72,1.7-8.71ZM104.62,378.26c.15,1.19.1,2.57-.41,3.99-.41,1.14-1.11,2.31-2.25,3.45-.22-.42-.48-.9-.79-1.4.75-.42,1.31-.89,1.7-1.4.56-.74.79-1.53.81-2.29.03-1.19-.37-2.47-1.12-3.45-.69-.91-1.68-1.58-2.89-1.69-1.93-.18-3.4,1.26-3.94,1.88-.6-.26-1.29-.51-2.12-.73,3.18-5.84,10.16-5.08,11.01,1.64ZM98.5,379.41c-.29-.43-.72-.86-1.32-1.28.47-.48,1.33-1.17,2.35-1.07.72.07,1.32.49,1.75,1.06.53.7.82,1.61.8,2.45-.01.46-.14.93-.48,1.37-.28.38-.73.73-1.36,1.06-.37-.45-.77-.87-1.19-1.2.1-.61.06-1.48-.55-2.39ZM50.28,378.26c.85-6.73,7.83-7.49,11.01-1.64-.83.22-1.52.46-2.12.73-.53-.62-2.01-2.06-3.94-1.88-1.21.11-2.2.78-2.89,1.69-.74.98-1.15,2.27-1.12,3.45.02.76.24,1.55.81,2.29.39.51.95.98,1.7,1.4-.31.5-.58.98-.79,1.4-1.14-1.14-1.84-2.31-2.25-3.45-.51-1.42-.56-2.8-.41-3.99ZM55.85,381.8c-.42.32-.82.74-1.19,1.2-.63-.32-1.07-.68-1.36-1.06-.33-.44-.46-.91-.48-1.37-.02-.84.27-1.75.79-2.45.44-.58,1.04-1,1.76-1.06,1.02-.1,1.88.59,2.35,1.07-.61.42-1.04.86-1.33,1.28-.61.91-.65,1.78-.55,2.39ZM108.43,410.87c-.25.48-.68,1.2-1.14,1.66-.08.08-.15.15-.21.19-.03-.05-.07-.12-.11-.19h0c-.06-.13-.09-.22-.11-.28h0c-.21-.62-.32-.94-1.21-.91h0c-.94.03-1.01.36-1.17,1.07-.02.07-.04.17-.08.32-.34,1.21-1.41,4.41-3.88,7.31-1.46,1.72-3.42,3.33-6.02,4.35-.35.14-1.58.59-2.6.71-.09,0-.18.02-.27.03.09-.19.12-.39.04-.73h0c-.2-.82-.48-.86-1.21-.97h-.03c-.59-.09-1.97-.18-3.98.49-1.89.63-4.39,1.94-7.39,4.59-.27.24-.51.52-.76.82-.36.43-.73.94-.76.94l-.23-.04-.23.04s-.39-.5-.76-.93c-.26-.3-.5-.58-.76-.82-3-2.65-5.5-3.96-7.38-4.59-2.01-.67-3.39-.59-3.98-.5h-.03c-.73.11-1.01.16-1.21.97-.09.35-.05.54.04.74-.08,0-.17-.01-.27-.02-1.02-.12-2.25-.57-2.6-.71-2.59-1.02-4.56-2.63-6.02-4.35-2.47-2.9-3.54-6.1-3.88-7.31-.04-.14-.07-.25-.08-.32-.16-.7-.25-1.04-1.17-1.07h0c-.9-.03-1,.3-1.21.91h0c-.02.06-.05.15-.11.27h0c-.04.08-.07.15-.11.2-.06-.05-.13-.11-.21-.19-.46-.46-.89-1.18-1.14-1.66-1.15-2.21-1.49-4.92-1.44-7.56.11-4.72,1.5-9.21,1.94-10.52,0-.02.04-.12.07-.19.23-.6.34-.87-.26-1.44-.55-.52-.82-.42-1.34-.23-.04.02-.1.04-.17.05-.09.02-.12-.03-.12-.1.02-.74.38-1.82.6-2.47.73-2.13,1.89-4.01,3.28-5.66.02.06.03.11.05.17.57,1.61,1.61,3.25,3.37,4.8-.47,1.47-.3,3.25.88,4.08-.08-1.44.6-2.78,1.13-4.08,0,0,1.47-3.58,3.11-4.5.02-.01.03-.02.04-.02.23-.1.36-.15.53-.45.27-.46.19-.62.02-.98-.01-.03,0,0-.02-.04-.07-.18-.2-.66.17-1.21.96-1.42,3.78-2.01,5.36-2.32.65-.13.87-.33,1.42-.49.55-.16,1.12-.14,1.93.06-1.26-1.83-1.93-1.74-3.53-1.73-.43-.85-.91-1.57-1.42-2.21.23-.09.43-.17.6-.23.2-.08.32-.12.41-.14.69-.23,1-.33.99-1.21,0-.92-.35-1.02-.97-1.19h0c-.06-.02-.17-.05-.27-.1-.13-.07-.23-.17-.29-.27-.06-.1-.09-.2-.09-.29,0-.11.04-.2.1-.28.39-.46,1.43-.72,2.77-.83,1.54-.12,3.39,0,5.17.26,11.49,1.71,2.65,1.71,14.14,0,1.78-.27,3.63-.38,5.17-.26,1.34.11,2.38.36,2.77.83.06.08.1.17.1.28,0,.08-.03.18-.09.29-.06.1-.16.2-.29.27-.1.05-.21.08-.27.1-.62.17-.97.27-.97,1.19,0,.88.3.98.99,1.21.09.03.21.07.41.14.22.08.5.19.81.32-.48.61-.94,1.31-1.35,2.12-1.59-.01-2.26-.11-3.53,1.73.8-.19,1.38-.22,1.92-.06.55.16.77.36,1.42.49,1.58.32,4.41.9,5.36,2.32.37.55.24,1.03.17,1.21-.01.03,0,0-.02.04h0c-.17.36-.25.53.02.98.18.3.3.36.53.45,0,0,.02,0,.04.02,1.64.92,3.1,4.49,3.11,4.5.54,1.3,1.21,2.64,1.13,4.08,1.18-.83,1.35-2.61.88-4.08,1.72-1.52,2.75-3.14,3.33-4.72,1.3,1.59,2.39,3.39,3.08,5.41.22.66.59,1.73.6,2.47,0,.07-.03.12-.12.1-.07-.02-.13-.04-.17-.05-.51-.19-.79-.28-1.34.23h0c-.59.57-.49.85-.26,1.44.03.07.07.17.07.19.44,1.31,1.83,5.8,1.94,10.52.06,2.64-.28,5.35-1.43,7.56Z"/>
        </g>
      </g>
      <g>
        <text class="cls-2" transform="translate(42.36 636.68)"><tspan class="cls-14"><tspan class="cls-4" x="0" y="0">K5 </tspan><tspan class="cls-7" x="43.07" y="0">Gi</tspan><tspan class="cls-9" x="70.15" y="0">r</tspan><tspan class="cls-7" x="79.76" y="0">af</tspan><tspan class="cls-12" x="104.07" y="0">f</tspan><tspan class="cls-7" x="113.05" y="0">e</tspan></tspan><tspan class="cls-6"><tspan x="0" y="12.55">Jardín de Infantes</tspan></tspan><tspan class="cls-6"><tspan x="0" y="25.1">5 Años</tspan></tspan><tspan class="cls-6"><tspan x="0" y="37.65">Jornada Simple</tspan></tspan></text>
        <g>
          <path class="cls-1" d="M93.46,564.36c-1.6,0-3.05.78-4.09,2.04-1.03,1.24-1.66,2.94-1.66,4.81s.63,3.57,1.66,4.81c1.04,1.26,2.49,2.04,4.09,2.04s3.05-.78,4.09-2.04c1.03-1.24,1.66-2.94,1.66-4.81s-.63-3.57-1.66-4.81c-1.04-1.26-2.5-2.04-4.09-2.04ZM93.32,571.7c-.61,0-1.1-.59-1.1-1.33s.49-1.33,1.1-1.33,1.1.59,1.1,1.33-.49,1.33-1.1,1.33ZM96.57,575.08c-.18.21-.37.4-.58.57-.06.05-.11.09-.17.14-.04.03-.09.05-.13.08,1.45-1.97,1.5-4.9-.02-7.04-.51-.72-1.15-1.27-1.84-1.65-.86-.47-1.81-.66-2.73-.58.19-.15.39-.28.59-.39.06-.03.12-.05.18-.08.19-.09.38-.16.57-.22.07-.02.15-.04.22-.06.26-.06.52-.1.79-.1.3,0,.59.04.88.11.11.03.22.09.33.12.16.06.33.1.48.18.15.08.29.18.43.28.36.24.7.52.99.87.82.99,1.32,2.35,1.32,3.88s-.51,2.89-1.32,3.88Z"/>
          <path class="cls-1" d="M65.81,564.36c-1.6,0-3.05.78-4.09,2.04-1.03,1.24-1.66,2.94-1.66,4.81s.63,3.57,1.66,4.81c1.04,1.26,2.49,2.04,4.09,2.04s3.05-.78,4.09-2.04c1.03-1.24,1.66-2.94,1.66-4.81s-.63-3.57-1.66-4.81c-1.04-1.26-2.49-2.04-4.09-2.04ZM65.95,571.7c-.61,0-1.1-.59-1.1-1.33s.49-1.33,1.1-1.33,1.1.59,1.1,1.33-.49,1.33-1.1,1.33ZM65.44,567.18c-.69.38-1.32.93-1.84,1.65-1.52,2.15-1.47,5.07-.02,7.04-.04-.03-.09-.05-.13-.08-.06-.04-.11-.09-.17-.14-.2-.17-.4-.36-.58-.57-.82-.99-1.32-2.36-1.32-3.88s.51-2.89,1.32-3.88c.2-.24.42-.46.66-.65.08-.06.16-.1.24-.16.17-.12.34-.25.52-.34.08-.04.17-.06.25-.09.19-.08.37-.16.56-.21.28-.07.58-.11.88-.11.27,0,.53.04.79.1.07.02.15.04.22.06.2.06.39.13.57.22.06.03.12.05.18.08.21.11.4.24.59.39-.93-.08-1.88.11-2.73.58Z"/>
          <path class="cls-1" d="M83.16,595.15c.31-.07.49-.92.27-1.88-.23-.96-.78-1.67-1.08-1.59-.3.07-.37.91-.14,1.87.22.96.65,1.68.96,1.61Z"/>
          <path class="cls-1" d="M78.09,595.15c.3.07.74-.65.96-1.61.23-.96.16-1.79-.14-1.87-.3-.07-.85.64-1.08,1.59-.22.96-.04,1.81.26,1.88Z"/>
          <path class="cls-1" d="M75.32,599.12c0,4.25,10.62,4.25,10.62,0,0-1.12-10.62-1-10.62,0Z"/>
          <path class="cls-1" d="M116.72,557.14c-.21-.79-.58-1.52-1.11-2.16-.13-.16-.27-.31-.41-.45-1.57-1.58-4.15-2.47-7.28-2.13-2.43.26-5.23,1.28-8.16,3.29-.39-.48-.78-.94-1.19-1.36-1.06-1.12-2.16-2.04-3.27-2.83.33-2.44.54-4.94.82-7.37,1.83-.9,3.07-2.67,3.07-4.71,0-2.95-2.58-5.33-5.77-5.33s-5.77,2.38-5.77,5.33c0,1.6.76,3.04,1.97,4.01-.55,1.59-1.11,3.17-1.66,4.76-.78-.18-1.53-.31-2.25-.4-.91-.11-3.52-.17-6.09-.17s-5.18.06-6.09.17c-.72.09-1.47.22-2.25.4-.56-1.59-1.11-3.17-1.67-4.76,1.21-.98,1.98-2.41,1.98-4.01,0-2.95-2.58-5.33-5.77-5.33s-5.77,2.38-5.77,5.33c0,2.04,1.24,3.82,3.07,4.71.27,2.43.49,4.93.82,7.37-1.11.79-2.21,1.71-3.27,2.83-.4.42-.8.88-1.19,1.36-2.93-2.01-5.73-3.03-8.16-3.29-3.13-.33-5.71.56-7.28,2.13-.14.14-.28.29-.41.45-.52.64-.9,1.37-1.11,2.16-.34,1.28-.23,2.69.4,4.13.58,1.33,1.61,2.68,3.17,3.95,1.67,1.36,3.98,2.66,7.02,3.75-.02.06-.04.12-.05.18-1.26,4.81-1.87,8.94-1.69,13.08.18,4.16,1.16,8.28,3.07,13.05,1.75,4.37,4.44,8.82,8.58,12.02,3.33,2.58,7.56,4.32,12.95,4.54,1.17.05,2.44.07,3.64.07s2.47-.02,3.64-.07c5.39-.21,9.62-1.96,12.95-4.54,4.14-3.2,6.83-7.65,8.58-12.02,1.91-4.77,2.89-8.89,3.07-13.05.18-4.14-.42-8.27-1.68-13.08-.02-.06-.04-.12-.05-.18,3.04-1.1,5.34-2.39,7.01-3.75,1.56-1.27,2.59-2.62,3.18-3.95.63-1.44.73-2.85.4-4.13ZM48.01,562.9c-1.17-.95-1.92-1.91-2.32-2.82-.35-.79-.42-1.54-.25-2.18.1-.38.28-.72.53-1.03.07-.08.14-.16.21-.24.96-.96,2.67-1.5,4.84-1.26,2.39.25,5.28,1.43,8.35,3.94.36.29.72.61,1.09.94-.12.15-.24.33-.36.49l-.45-.42c-.14-.13-.25-.23-.34-.3h0c-2.07-1.83-4.12-2.7-5.83-2.92-1.88-.25-3.42.28-4.28,1.21l-.05.06h0c-.32.38-.54.8-.66,1.26-.14.61-.1,1.27.18,1.94h0c.25.6.69,1.21,1.35,1.79,1.17,1.02,3.07,1.99,5.88,2.68l.71.17.38-.63s.38-.65.86-1.4c-.62,1.02-1.18,1.99-1.57,2.68-3.79-1.11-6.49-2.5-8.27-3.96ZM57.55,561.14c-.67.85-1.43,2.05-1.87,2.78-2.08-.58-3.49-1.31-4.34-2.06-.42-.36-.69-.72-.83-1.06-.11-.26-.14-.5-.08-.7.03-.14.1-.27.21-.39h0s.04-.04.04-.04c.46-.48,1.37-.74,2.55-.59,1.25.16,2.75.78,4.33,2.06ZM94.4,604.94c-2.87,2.22-6.54,3.73-11.24,3.92-.97.04-2.21.06-3.52.06s-2.55-.02-3.53-.06c-4.7-.19-8.36-1.7-11.24-3.92-2.69-2.09-4.71-4.82-6.22-7.7,6.19-10.62,35.77-10.62,41.96,0-1.51,2.88-3.53,5.61-6.22,7.7ZM104.9,582.1c-.17,3.8-1.08,7.61-2.86,12.06-.07.19-.15.38-.23.56-8.28-10.59-36.04-10.59-44.32,0-.08-.19-.16-.38-.23-.56-1.79-4.45-2.69-8.26-2.86-12.06-.17-3.82.41-7.68,1.59-12.21,0-.01,0-.02,0-.03.22.06.43.13.65.18l1.13.3.56-1.02s3.83-6.99,5.12-7.98l1.37-1.04-1.21-1.21c-.58-.58-1.16-1.1-1.73-1.59.33-.4.66-.77.99-1.13.54-.57,1.1-1.08,1.66-1.54.15.76.32,1.52.53,2.26.19.67.89,1.07,1.56.88.67-.18,1.07-.89.88-1.56l-1.83-11.68c.06,0,.12,0,.19,0,.54,0,1.06-.07,1.55-.19,1.31,3.78,2.6,7.61,3.99,11.35.24.65.97.99,1.63.75.65-.24.99-.97.75-1.63-.49-1.32-.96-2.65-1.44-3.98.55-.12,1.08-.21,1.6-.27.79-.1,3.25-.14,5.73-.14s4.94.05,5.73.14c.51.06,1.05.16,1.6.27-.48,1.33-.95,2.66-1.44,3.98-.24.65.1,1.38.75,1.63.65.24,1.38-.1,1.63-.75,1.38-3.74,2.67-7.56,3.98-11.35.49.13,1.02.19,1.55.19.07,0,.13,0,.19,0l-1.83,11.68c-.18.67.22,1.37.89,1.56.67.19,1.37-.21,1.56-.88.2-.74.37-1.5.53-2.26.56.47,1.12.97,1.66,1.54.33.35.66.73.99,1.13-.58.5-1.16,1.02-1.73,1.6l-1.21,1.21,1.37,1.04c1.29.98,5.11,7.96,5.12,7.98l.56,1.02,1.13-.3c.22-.06.43-.12.65-.18,0,.01,0,.02,0,.03,1.19,4.53,1.76,8.39,1.59,12.21ZM113.59,560.07c-.4.91-1.15,1.87-2.32,2.82-1.79,1.46-4.48,2.85-8.28,3.96-.39-.7-.96-1.68-1.6-2.72.49.77.88,1.44.89,1.44l.38.63.71-.17c2.82-.69,4.72-1.66,5.89-2.68.66-.58,1.1-1.19,1.35-1.79h0c.28-.67.33-1.33.18-1.94-.11-.46-.34-.88-.65-1.24h0s-.05-.07-.05-.07c-.86-.93-2.4-1.46-4.28-1.21-1.71.22-3.75,1.09-5.83,2.92-.08.07-.2.17-.34.3l-.45.42c-.12-.17-.25-.34-.36-.49.36-.33.73-.65,1.09-.94,3.07-2.51,5.95-3.69,8.35-3.94,2.17-.23,3.88.3,4.84,1.26.08.08.15.16.21.24.25.31.43.66.53,1.03.17.64.1,1.38-.25,2.18ZM101.73,561.14c1.58-1.28,3.08-1.9,4.33-2.06,1.18-.16,2.09.1,2.55.59l.04.04h0c.11.12.18.25.21.39.05.2.03.44-.08.7-.14.34-.41.69-.83,1.06-.85.75-2.26,1.48-4.34,2.06-.45-.73-1.21-1.93-1.88-2.78Z"/>
        </g>
      </g>
    </g>
  </g>
</svg>