<?xml version="1.0" encoding="UTF-8"?>
<!DOCTYPE svg PUBLIC "-//W3C//DTD SVG 1.1//EN" "http://www.w3.org/Graphics/SVG/1.1/DTD/svg11.dtd">
<!-- Creator: CorelDRAW -->
<svg xmlns="http://www.w3.org/2000/svg" xml:space="preserve" width="46.3762mm" height="31.2606mm" version="1.1" style="shape-rendering:geometricPrecision; text-rendering:geometricPrecision; image-rendering:optimizeQuality; fill-rule:evenodd; clip-rule:evenodd"
viewBox="0 0 4520.53 3047.14"
 xmlns:xlink="http://www.w3.org/1999/xlink"
 xmlns:xodm="http://www.corel.com/coreldraw/odm/2003">
 <defs>
  <style type="text/css">
   <![CDATA[
    .fil0 {fill:white;fill-rule:nonzero}
   ]]>
  </style>
 </defs>
 <g id="Capa_x0020_1">
  <metadata id="CorelCorpID_0Corel-Layer"/>
  <g id="_2010524756656">
   <polygon class="fil0" points="262.29,0 262.29,893.38 80.21,893.38 80.21,0 "/>
   <path class="fil0" d="M1252.12 718.52c0,45.65 2.84,126.89 9.29,174.86l-155.26 0c-5.16,-20.12 -9.03,-60.86 -10.31,-81.5 -28.11,54.67 -91.3,93.36 -189.04,93.36 -166.87,0 -225.93,-104.19 -225.93,-206.06 0,-121.47 84.07,-221.54 317.99,-221.54l79.43 0 0 -49c0,-55.19 -17.02,-98 -96.2,-98 -79.18,0 -97.23,39.97 -103.67,89.76l-171.51 -0.01c7.22,-106.51 70.92,-214.57 277.77,-214.57 159.38,0 267.19,54.94 267.19,222.06l0 291.17 0.25 -0.52zm-167.89 -127.66l-82.02 0c-120.96,0 -143.65,49.26 -143.65,94.4 0,45.13 27.34,85.62 94.91,85.62 105.74,0 130.75,-70.41 130.75,-165.83l0 -14.18z"/>
   <path class="fil0" d="M1399.64 427.6c0,-133.34 -1.29,-178.21 -2.58,-209.16l171.52 0c3.61,22.44 5.16,54.67 5.94,79.95 35.33,-54.16 94.91,-93.1 187.24,-93.1 92.33,0 144.68,45.65 168.41,104.97 29.92,-53.64 101.62,-104.97 201.94,-104.97 114.25,0 215.09,60.61 215.09,235.21l0 452.88 -173.83 0 0 -423.73c0,-60.61 -21.92,-119.15 -96.71,-119.15 -81.75,0 -115.28,58.29 -115.28,158.61l0 384.28 -173.57 0 0 -429.15c0,-60.86 -28.37,-112.7 -97.49,-112.7 -76.86,0 -116.05,47.2 -116.05,166.09l0 375.77 -174.86 0 0 -465.78 0.25 0z"/>
   <path class="fil0" d="M213.55 1006.6l107.8 0 -84.07 395.37c43.33,-61.64 114,-112.45 215.61,-112.45 135.4,0 213.55,91.56 213.55,244.5 0,206.84 -110.64,442.57 -348.69,442.57 -99.8,0 -158.61,-46.16 -181.05,-103.16 -7.22,32.5 -17.28,74.28 -22.44,90.26l-105.74 -0.01c6.96,-31.47 21.67,-95.17 39.46,-176.41l165.05 -780.93 0.53 0.26zm340.69 537.73c0,-103.94 -45.39,-159.9 -138.49,-159.9 -125.08,0 -205.29,113.73 -233.4,251.71 -31.47,153.46 9.8,247.59 136.94,247.59 161.19,0 234.95,-194.2 234.95,-339.4z"/>
   <path class="fil0" d="M858.82 1649.55c-3.35,26.05 -5.67,40.74 -5.67,62.93 0,111.41 52.87,174.34 145.72,174.34 92.85,0 140.56,-53.64 170.73,-109.35l112.45 -0.01c-43.33,102.39 -123.79,199.36 -295.3,199.36 -171.51,0 -242.68,-109.61 -242.68,-262.55 0,-186.21 101.62,-424.5 345.85,-424.5 177.18,0 236.24,115.8 236.24,235.98 0,41.26 -4.39,79.7 -16.5,123.79l-450.82 0.01zm358.48 -81.76c3.35,-16.77 4.39,-33.01 4.39,-47.97 0,-90.01 -42.29,-142.11 -137.72,-142.11 -100.58,0 -173.56,69.37 -206.84,190.08l340.44 0 -0.26 0z"/>
   <path class="fil0" d="M1936.85 1766.13c-45.39,126.11 -136.94,210.7 -293.75,210.7 -156.81,0 -239.85,-105.74 -239.85,-258.68 0,-198.84 110.9,-428.64 341.47,-428.64 186.46,0 238.56,134.62 231.34,224.38l-106 0.01c-3.1,-74.79 -35.33,-135.66 -132.05,-135.66 -153.19,0 -222.83,189.3 -222.83,332.18 0,125.34 56.74,177.95 143.4,177.95 75.31,0 133.08,-45.91 169.44,-122.51l108.84 0 0 0.26z"/>
   <path class="fil0" d="M2541.64 1799.91c-11.35,55.19 -27.34,137.21 -30.95,163.77l-105.99 0c2.07,-24.24 9.54,-64.73 17.02,-101.62 -33.01,53.12 -88.98,114.51 -223.86,114.51 -134.89,0 -181.82,-87.69 -181.82,-166.35 0,-188.53 176.92,-229.79 309.23,-242.43 68.6,-6.19 127.15,-6.19 160.42,-7.48l8.51 -44.61c12.38,-62.41 7.99,-142.62 -118.64,-142.62 -111.16,0 -142.11,58.29 -161.45,108.83l-110.13 0c22.69,-98.26 95.68,-192.4 281.37,-192.4 151.65,0 249.65,68.6 216.39,227.21l-60.09 283.18zm-72.47 -159.13c-35.59,0.77 -79.7,1.29 -135.66,6.96 -107.03,11.35 -202.97,40.24 -202.97,146.49 0,50.03 33.53,92.59 106.51,92.59 144.17,0 201.17,-112.45 229.79,-235.72l2.58 -10.31 -0.25 0z"/>
   <path class="fil0" d="M3222.5 1787.01c-13.15,59.06 -25.28,124.05 -34.3,176.92l-105.74 0c1.29,-20.89 11.09,-79.18 18.82,-114 -44.61,75.56 -119.67,126.89 -222.06,126.89 -120.44,0 -198.59,-69.64 -161.45,-243.2l93.1 -430.96 106.53 0 -89.49 420.13c-18.57,85.11 -14.7,161.19 92.59,161.19 107.29,0 189.04,-76.6 228.25,-262.55l68.34 -318.51 107.8 0.01 -102.64 484.08 0.25 0z"/>
   <path class="fil0" d="M3445.85 1765.35c7.22,68.6 49.26,124.31 154.49,124.31 88.72,0 134.89,-43.84 134.89,-107.03 0,-63.18 -43.07,-90.78 -137.21,-124.56 -142.36,-50.03 -185.94,-100.07 -185.94,-176.41 0,-102.9 78.92,-191.63 238.31,-191.63 171.51,0 235.72,95.94 232.89,190.85l-109.63 0.01c-4.64,-46.43 -26.31,-104.71 -133.34,-104.71 -68.86,0 -118.64,34.05 -118.64,93.62 0,46.43 37.65,68.34 131.27,102.39 139.01,49.52 195.49,104.97 195.49,197.3 0,131.79 -105.99,208.13 -263.84,208.13 -168.15,0 -249.14,-87.94 -248.36,-211.74l109.62 -0.01 0 -0.52z"/>
   <path class="fil0" d="M4053.21 1649.55c-3.35,26.05 -5.67,40.74 -5.67,62.93 0,111.41 52.87,174.34 145.72,174.34 92.85,0 140.56,-53.64 170.73,-109.35l112.45 -0.01c-43.33,102.39 -123.79,199.36 -295.3,199.36 -171.51,0 -242.68,-109.61 -242.68,-262.55 0,-186.21 101.62,-424.5 345.85,-424.5 177.18,0 236.24,115.8 236.24,235.98 0,41.26 -4.39,79.7 -16.5,123.79l-450.82 0.01zm358.48 -81.76c3.35,-16.77 4.39,-33.01 4.39,-47.97 0,-90.01 -42.29,-142.11 -137.72,-142.11 -100.58,0 -173.56,69.37 -206.84,190.08l340.44 0 -0.26 0z"/>
   <path class="fil0" d="M202.97 2311.07c59.58,277.5 95.68,439.21 110.38,524.84l2.58 0c17.02,-85.11 62.93,-265.39 125.86,-524.84l170.98 0c55.19,216.39 110.9,438.7 120.96,520.45l1.29 0c13.15,-73.76 39.97,-185.94 116.32,-520.45l188.01 0 -215.09 723.42 -189.81 0c-52.35,-219.74 -97.23,-376.02 -113.48,-477.89l-1.29 0c-18.32,104.97 -73.51,299.17 -124.05,477.89l-190.6 0 -205.03 -723.42 202.97 0z"/>
   <path class="fil0" d="M1245.68 2715.47c0,88.98 33.78,182.85 141.33,182.85 85.89,0 112.96,-53.64 123.54,-85.37l186.21 0c-35.07,119.92 -119.67,234.17 -315.16,234.17 -231.08,0 -327.02,-157.58 -327.02,-373.7 0,-178.98 89.76,-376.28 335.28,-376.28 245.52,0 316.19,173.31 316.19,359.52 0,9.8 -1.29,47.71 -2.58,58.81l-457.27 0 -0.52 0zm274.67 -123.79c-2.84,-81.5 -35.85,-151.91 -133.85,-151.91 -108.06,0 -134.62,87.17 -137.98,151.91l271.83 0z"/>
   <path class="fil0" d="M2679.36 2847c0,49 3.1,136.17 10.06,187.49l-166.35 0c-5.42,-21.67 -9.8,-65.25 -11.09,-87.43 -30.18,58.81 -98,100.07 -202.46,100.07 -178.98,0 -242.17,-111.67 -242.17,-220.76 0,-130.24 90.26,-237.53 340.95,-237.53l85.11 -0.01 0 -52.62c0,-59.06 -18.32,-104.97 -103.16,-104.97 -84.84,0 -104.19,42.81 -111.16,96.2l-183.88 0.01c7.74,-114.25 76.08,-230.05 297.87,-230.05 170.99,0 286.53,58.81 286.53,237.79l0 312.07 -0.25 -0.26zm-180.02 -136.95l-87.94 0c-129.73,0 -153.97,52.87 -153.97,101.1 0,48.23 29.4,91.81 101.62,91.81 113.48,0 140.04,-75.56 140.04,-177.7l0 -15.22 0.25 0z"/>
   <path class="fil0" d="M2823.27 2556.08c0,-118.89 0,-195.23 -2.84,-245l184.91 -0.01c3.87,31.2 5.16,77.11 5.16,126.89 24.24,-60.61 87.69,-137.98 218.96,-138.24l0 191.88c-149.07,-2.32 -216.39,47.97 -216.39,214.06l0 328.82 -189.8 0.01 0 -478.41z"/>
   <path class="fil0" d="M3453.84 2715.47c0,88.98 33.78,182.85 141.33,182.85 85.89,0 112.96,-53.64 123.54,-85.37l186.21 0c-35.07,119.92 -119.67,234.17 -315.16,234.17 -231.08,0 -327.02,-157.58 -327.02,-373.7 0,-178.98 89.76,-376.28 335.28,-376.28 245.52,0 316.19,173.31 316.19,359.52 0,9.8 -1.29,47.71 -2.58,58.81l-457.27 0 -0.52 0zm274.41 -123.79c-2.84,-81.5 -35.85,-151.91 -133.85,-151.91 -108.06,0 -134.62,87.17 -137.98,151.91l271.83 0z"/>
  </g>
 </g>
</svg>
