<?xml version="1.0" encoding="UTF-8"?>
<!DOCTYPE svg PUBLIC "-//W3C//DTD SVG 1.1//EN" "http://www.w3.org/Graphics/SVG/1.1/DTD/svg11.dtd">
<!-- Creator: CorelDRAW -->
<svg xmlns="http://www.w3.org/2000/svg" xml:space="preserve" width="211.667mm" height="148.167mm" version="1.1" style="shape-rendering:geometricPrecision; text-rendering:geometricPrecision; image-rendering:optimizeQuality; fill-rule:evenodd; clip-rule:evenodd"
viewBox="0 0 143701.08 100590.78"
 xmlns:xlink="http://www.w3.org/1999/xlink"
 xmlns:xodm="http://www.corel.com/coreldraw/odm/2003">
 <defs>
  <style type="text/css">
   <![CDATA[
    .fil0 {fill:white}
   ]]>
  </style>
 </defs>
 <g id="Capa_x0020_1">
  <metadata id="CorelCorpID_0Corel-Layer"/>
  <g id="_1418538431280">
   <g id="Page-1">
    <g id="Dribbble-Light-Preview">
     <g id="icons">
      <g>
       <path id="youtube-_x005b__x0023_168_x005d_" class="fil0" d="M57397.32 68875.05l0 -40319.8c14314.11,6735.46 25400.38,13241.65 38512.09,20256.68 -10814.3,5997.42 -24197.98,12725.75 -38512.09,20063.12l0 0zm79772.51 -60375.87c-2469.24,-3253.1 -6677.55,-5782.55 -11157.9,-6620.86 -13168.94,-2500.8 -95324.74,-2507.93 -108486.55,0 -3592.82,673.47 -6792.01,2300.05 -9540.34,4829.44 -11580.1,10748.18 -7951.51,68386.91 -5160.2,77723.52 1173.69,4041.3 2691.03,6957.66 4601.94,8870.81 2462.04,2529.32 5832.99,4270.57 9704.98,5051.58 10842.95,2242.82 66703.71,3496.75 108651.18,336.8 3864.79,-673.54 7285.84,-2472.02 9984.07,-5108.94 10706.97,-10705.14 9976.94,-71582.71 1402.82,-85082.34z"/>
      </g>
     </g>
    </g>
   </g>
  </g>
 </g>
</svg>
