<?xml version="1.0" encoding="UTF-8"?>
<!DOCTYPE svg PUBLIC "-//W3C//DTD SVG 1.1//EN" "http://www.w3.org/Graphics/SVG/1.1/DTD/svg11.dtd">
<!-- Creator: CorelDRAW -->
<svg xmlns="http://www.w3.org/2000/svg" xml:space="preserve" width="211.667mm" height="211.667mm" version="1.1" style="shape-rendering:geometricPrecision; text-rendering:geometricPrecision; image-rendering:optimizeQuality; fill-rule:evenodd; clip-rule:evenodd"
viewBox="0 0 18939.95 18939.93"
 xmlns:xlink="http://www.w3.org/1999/xlink"
 xmlns:xodm="http://www.corel.com/coreldraw/odm/2003">
 <defs>
  <style type="text/css">
   <![CDATA[
    .fil0 {fill:white}
   ]]>
  </style>
 </defs>
 <g id="Capa_x0020_1">
  <metadata id="CorelCorpID_0Corel-Layer"/>
  <g id="_1418531156816">
   <g id="Page-1">
    <g id="Dribbble-Light-Preview">
     <g id="icons">
      <g>
       <path id="instagram-_x005b__x0023_167_x005d_" class="fil0" d="M5558.55 116.23c-1541.61,69.55 -2877.79,446.48 -3956.72,1520.86 -1082.7,1080.02 -1454.91,2421.35 -1524.63,3946.91 -43.35,952.18 -296.83,8145.73 438.17,10032.25 495.65,1272.71 1471.87,2251.21 2756.22,2748.45 599.3,233.11 1283.41,391.03 2286.97,437.08 8391.16,379.74 11501.69,172.96 12813.37,-3185.53 232.75,-597.82 392.93,-1281.18 437.23,-2282.23 383.51,-8412.69 -62.2,-10236.23 -1524.64,-11696.93 -1159.97,-1157.1 -2524.42,-1944.79 -11725.96,-1520.86l0 0zm77.27 16993.62c-918.75,-41.36 -1417.22,-194.57 -1749.85,-323.35 -836.75,-325.23 -1465.27,-951.24 -1788.48,-1783.11 -559.72,-1433.45 -374.09,-8241.61 -324.15,-9343.25 49,-1079.08 267.62,-2065.11 1028.99,-2826.47 942.3,-939.98 2159.74,-1400.56 10449.15,-1026.44 1081.76,48.87 2070.23,266.95 2833.49,1026.44 942.3,939.96 1409.68,2166.61 1028.98,10424.21 -41.46,916.46 -195.06,1413.7 -324.15,1745.51 -852.78,2185.42 -2814.65,2489.02 -11153.98,2106.46l0 0zm7707.06 -12668.85c0,622.26 506.01,1127.96 1130.76,1127.96 624.74,0 1131.7,-505.7 1131.7,-1127.96 0,-622.25 -506.96,-1127.96 -1131.7,-1127.96 -624.75,0 -1130.76,505.71 -1130.76,1127.96l0 0zm-8737.93 5017.54c0,2665.74 2166.34,4826.71 4838.7,4826.71 2672.36,0 4838.7,-2160.98 4838.7,-4826.71 0,-2665.74 -2166.35,-4825.77 -4838.7,-4825.77 -2672.36,0 -4838.7,2160.03 -4838.7,4825.77l0 0zm1698.02 0c0,-1729.53 1405.91,-3132.91 3140.68,-3132.91 1734.78,0 3140.69,1403.38 3140.69,3132.91 0,1730.47 -1405.91,3133.83 -3140.69,3133.83 -1734.77,0 -3140.68,-1403.36 -3140.68,-3133.83z"/>
      </g>
     </g>
    </g>
   </g>
  </g>
 </g>
</svg>
