<?xml version="1.0" encoding="UTF-8"?>
<!DOCTYPE svg PUBLIC "-//W3C//DTD SVG 1.1//EN" "http://www.w3.org/Graphics/SVG/1.1/DTD/svg11.dtd">
<!-- Creator: CorelDRAW -->
<svg xmlns="http://www.w3.org/2000/svg" xml:space="preserve" width="211.667mm" height="211.667mm" version="1.1" style="shape-rendering:geometricPrecision; text-rendering:geometricPrecision; image-rendering:optimizeQuality; fill-rule:evenodd; clip-rule:evenodd"
viewBox="0 0 22280.7 22280.7"
 xmlns:xlink="http://www.w3.org/1999/xlink"
 xmlns:xodm="http://www.corel.com/coreldraw/odm/2003">
 <defs>
  <style type="text/css">
   <![CDATA[
    .fil0 {fill:white}
   ]]>
  </style>
 </defs>
 <g id="Capa_x0020_1">
  <metadata id="CorelCorpID_0Corel-Layer"/>
  <g id="_1418541647584">
   <g id="Page-1">
    <g id="Dribbble-Light-Preview">
     <g id="icons">
      <path id="linkedin-_x005b__x0023_161_x005d_" class="fil0" d="M22280.7 22280.7l-4456.14 0 0 -7797.13c0,-2138.95 -943.59,-3332.09 -2635.81,-3332.09 -1841.5,0 -2934.37,1243.26 -2934.37,3332.09l0 7797.13 -4456.14 0 0 -14482.46 4456.14 0 0 1628.72c0,0 1398.12,-2453.11 4548.61,-2453.11 3151.6,0 5477.71,1922.83 5477.71,5902.16l0 9404.69 0 0zm-19560.23 -16798.54c-1502.83,0 -2720.47,-1227.66 -2720.47,-2741.63 0,-1512.86 1217.64,-2740.53 2720.47,-2740.53 1501.72,0 2719.36,1227.66 2719.36,2740.53 1.12,1513.97 -1217.64,2741.63 -2719.36,2741.63l0 0zm-2720.47 16798.54l5570.17 0 0 -14482.46 -5570.17 0 0 14482.46z"/>
     </g>
    </g>
   </g>
  </g>
 </g>
</svg>
