<?xml version="1.0" encoding="UTF-8"?>
<svg id="Capa_1" xmlns="http://www.w3.org/2000/svg" version="1.1" viewBox="0 0 408.05 194.14">
  <!-- Generator: Adobe Illustrator 29.2.1, SVG Export Plug-In . SVG Version: 2.1.0 Build 116)  -->
  <defs>
    <style>
      .st0 {
        fill-rule: evenodd;
      }

      .st0, .st1 {
        fill: #fff;
      }
    </style>
  </defs>
  <path class="st0" d="M163.65,57.99c-1.77-2.32-6.08-3.41-13.89-3.51v-23.2H50.44v30.25c-4.38.99-8.77,2.4-13.15,4.36-.75.33-1.23,1.08-1.23,1.9v15.7c0,.16.02.31.06.46-.14.82-.16,2.11.81,3.37,1.74,2.28,5.94,3.38,13.51,3.51v6.38c0,26.9,18.99,41.11,35.05,53.13,4.56,3.41,8.87,6.64,12.35,9.9l2.03,1.91,2.04-1.9c3.54-3.29,8.06-6.53,12.84-9.95,16.14-11.56,35.01-25.08,35.01-53.09v-13.54c4.51-1,9.02-2.44,13.53-4.45.75-.33,1.23-1.08,1.23-1.9v-15.7c0-.12-.02-.24-.04-.36.12-.82.11-2.06-.82-3.27ZM103.09,37.25h40.7v27.61c-6.82,1.01-13.65,1.05-20.54.56,1.72-2.33,3.97-5.46,5.11-7.17,1.24-1.63,2.22-2.97,2.35-3.29-1.02.36-6.27,2.82-6.76,3.21-.47.37-.83,1.12-1.1,2.03-.13.08-.25.14-.33.2,1.48-7.16,1.69-6.14-1.56-9.47-.7-.72-1.7-1.88-2.94-2.23.47,2.5,2.53,8.16,3.52,11.19.1.29.12.43.24.71l.22.33c-.62.91-1.01,2.6-1.25,4.29-.16-.01-.33-.03-.49-.04-.04-.4-.12-.75-.27-1.02-.36-.68-4.65-4.67-5.23-5,.15.99.79,3.26,1.51,5.62-4.35-.49-8.73-1.11-13.17-1.77v-25.76ZM56.42,37.25h40.7v24.88c-6.05-.89-12.15-1.72-18.29-2.19v-9.16h4.9v-4.68h-4.9v-4.39h-4.68v4.39h-4.9v4.68h4.9v8.88c-5.89-.25-11.8-.08-17.73.77v-23.17ZM56.42,97.19v-16.91c14.24-2.18,28.54-.07,43.41,2.14l-15.04,14.28-12.68-12.03-15.63,14.83c-.04-.76-.06-1.53-.06-2.31ZM141.33,109.92l-4.57-8.28h-4.35l6.28,15.74c-.94,2.05-2.01,3.99-3.19,5.81l-7.46-21.55h-4.35l7.97,26.73c-1.45,1.73-2.99,3.36-4.58,4.9l-7.75-31.63h-4.34l7.14,36.07c-1.82,1.52-3.66,2.96-5.5,4.36l-6-40.44h-4.35l4.41,44.89c-2.39,1.79-4.66,3.54-6.7,5.29l-2.09-50.18h-4.34l.13,51.88c-1.97-1.88-4.23-3.76-6.65-5.68l2.18-46.21h-4.37l-3.92,41.42c-1.91-1.5-3.85-3.05-5.76-4.67l5.33-36.75h-4.36l-6.32,31.92c-1.61-1.56-3.17-3.19-4.64-4.91l6.62-27.01h-4.37l-6.42,21.52c-1.24-1.86-2.36-3.82-3.35-5.89l5.41-15.64h-4.37l-3.76,8.34c-.63-2.29-1.09-4.71-1.36-7.26l.84-1.09h83.74l.49.52c-.24,2.75-.68,5.33-1.31,7.77ZM101.03,82.61c8.79,1.31,17.7,2.59,26.68,2.88l-11.82,11.22-14.86-14.1ZM143.79,97.19c0,.64-.02,1.26-.04,1.89l-14.28-13.55c4.76.08,9.54-.14,14.32-.81v12.47ZM161.11,77.43c-40.67,18.17-81.35-12.11-122.02,6.06v-15.41c40.67-18.17,81.35,12.12,122.02-6.06v15.41Z"/>
  <rect class="st1" x="269" y="90.07" width="5.02" height="22.76"/>
  <path class="st0" d="M295.9,93.02h-.09c-1.54-2.51-4.71-3.57-7.57-3.57-4.98,0-9.86,3.61-9.86,11.84,0,6.82,3.48,12.15,10.66,12.15,2.86,0,5.72-1.1,7.04-3.7h.09v3.08h4.76v-31.44h-5.02v11.62ZM289.69,109.49c-4.36,0-6.3-3.87-6.3-7.79s1.67-8.28,6.38-8.28c3.87,0,6.3,2.99,6.3,8.01,0,3.96-1.89,8.06-6.38,8.06Z"/>
  <rect class="st1" x="234.48" y="81.4" width="5.5" height="31.44"/>
  <path class="st0" d="M306.78,67.26v-15.63c0-5.11-3.13-7.75-8.06-7.75-2.99,0-5.59,1.54-7.09,4.05l-.09-.09v-3.35h-4.76v22.76h5.02v-13.43c0-3.35,2.16-5.99,5.5-5.99,2.95,0,4.36,1.54,4.45,5.11v14.31h5.02Z"/>
  <path class="st0" d="M269.83,54.14c-4.23.48-8.76,1.41-8.76,7.09,0,4.45,3.7,6.65,7.79,6.65,2.69,0,5.9-.84,7.88-2.77.4,2.07,1.85,2.77,3.87,2.77.84,0,2.42-.31,3.17-.57v-3.48c-.53.09-.92.09-1.23.09-.92,0-1.19-.48-1.19-1.72v-11.71c0-4.8-4.67-6.6-9.11-6.6-5.02,0-9.99,1.72-10.35,7.57h5.02c.22-2.47,2.2-3.61,5.02-3.61,2.03,0,4.71.48,4.71,3.08,0,2.95-3.21,2.55-6.82,3.21ZM276.35,59.6c0,3.17-3.43,4.32-5.64,4.32-1.76,0-4.62-.66-4.62-2.91,0-2.64,1.94-3.43,4.09-3.79,2.2-.4,4.62-.35,6.16-1.37v3.74Z"/>
  <path class="st0" d="M331.52,113.45c7.31,0,11.49-5.02,11.49-12.02s-4.18-11.98-11.49-11.98-11.49,5.02-11.49,11.98,4.18,12.02,11.49,12.02ZM331.52,93.42c4.49,0,6.47,4.09,6.47,8.01s-1.98,8.06-6.47,8.06-6.47-4.1-6.47-8.06,1.98-8.01,6.47-8.01Z"/>
  <path class="st0" d="M306.38,90.07v22.76h5.02v-10.83c0-5.02,2.73-7.79,6.16-7.79.7,0,1.45.13,2.16.22v-4.84c-.44-.04-.75-.13-1.89-.13-3.08,0-6.08,2.6-6.65,5.02h-.09v-4.4h-4.71Z"/>
  <path class="st0" d="M257.68,99.41c-3.7-.84-7.4-1.19-7.4-3.65,0-1.98,2.69-2.33,4.14-2.33,2.2,0,4.18.66,4.62,3.04h5.24c-.62-5.06-4.84-7-9.51-7-4.14,0-9.51,1.54-9.51,6.52,0,4.62,3.61,5.94,7.31,6.74,3.65.84,7.31,1.14,7.44,3.79.13,2.6-3.17,2.99-5.06,2.99-2.69,0-4.89-1.06-5.15-3.96h-5.02c.09,5.37,4.36,7.93,10.08,7.93,4.71,0,10.17-1.98,10.17-7.4,0-4.49-3.7-5.81-7.35-6.65Z"/>
  <path class="st0" d="M246.06,63.52c-4.4,0-7.97-1.89-7.97-6.74h-5.5c.13,7.79,5.94,11.23,13.12,11.23,6.25,0,12.5-2.82,12.5-9.86,0-3.26-1.98-6.78-6.12-8.01-1.63-.48-8.59-2.29-9.07-2.42-2.25-.62-3.74-1.85-3.74-4.05,0-3.17,3.21-4.09,5.77-4.09,3.79,0,6.52,1.5,6.78,5.55h5.5c0-6.56-5.5-10.04-12.06-10.04-5.68,0-11.49,2.95-11.49,9.25,0,3.26,1.58,6.52,6.96,7.97,4.32,1.19,7.18,1.76,9.38,2.6,1.28.48,2.6,1.45,2.6,3.87s-1.8,4.76-6.65,4.76Z"/>
  <rect class="st1" x="269" y="81.4" width="5.02" height="4.76"/>
  <path class="st0" d="M344.82,140.19h-.09c-1.1-2.51-3.92-4.58-7.22-4.58-6.56,0-10.26,5.2-10.26,11.45s2.99,11.67,10.26,11.67c3.26,0,5.94-1.89,7.22-4.67h.09v3.08c0,5.55-2.2,8.59-7.31,8.59-3.08,0-6.03-1.19-6.65-4.54h-2.77c.4,4.84,4.89,6.87,9.42,6.87,7.44,0,10.04-4.14,10.08-10.92v-20.87h-2.77v3.92ZM337.51,156.39c-5.11,0-7.49-4.45-7.49-9.03s2.2-9.42,7.49-9.42,7.31,4.98,7.31,9.42-2.51,9.03-7.31,9.03Z"/>
  <path class="st0" d="M314.66,135.61c-7.22,0-10.26,6.03-10.26,12.02,0,6.47,3.04,12.02,10.26,12.02,5.72,0,8.72-2.99,9.91-8.15h-2.77c-.88,3.43-3.08,5.81-7.13,5.81-5.33,0-7.44-4.89-7.49-8.94h17.48c.22-6.38-2.69-12.77-9.99-12.77ZM307.17,146.04c.44-4.14,2.95-8.1,7.49-8.1s7.09,3.92,7.22,8.1h-14.71Z"/>
  <path class="st0" d="M247.64,157.1c-8.32,0-11.84-6.96-11.84-13.83s3.52-13.83,11.84-13.83c4.58,0,8.59,2.77,9.64,7.62h2.99c-.79-6.6-6.69-10.17-12.64-10.17-9.91,0-14.84,7.79-14.84,16.38s4.93,16.38,14.84,16.38c7.35,0,12.24-4.93,13.08-12.64h-2.99c-.57,5.59-4.27,10.08-10.08,10.08Z"/>
  <rect class="st1" x="289.3" y="127.55" width="2.77" height="31.44"/>
  <rect class="st1" x="297.44" y="127.55" width="2.77" height="31.44"/>
  <path class="st0" d="M361.99,135.61c-7.22,0-10.26,6.03-10.26,12.02,0,6.47,3.04,12.02,10.26,12.02,5.72,0,8.72-2.99,9.91-8.15h-2.77c-.88,3.43-3.08,5.81-7.13,5.81-5.33,0-7.44-4.89-7.49-8.94h17.48c.22-6.38-2.69-12.77-9.99-12.77ZM354.5,146.04c.44-4.14,2.95-8.1,7.49-8.1s7.09,3.92,7.22,8.1h-14.71Z"/>
  <path class="st0" d="M274.37,135.61c-6.96,0-10.74,5.5-10.74,12.02s3.79,12.02,10.74,12.02,10.74-5.5,10.74-12.02-3.79-12.02-10.74-12.02ZM274.37,157.32c-5.33,0-7.97-4.84-7.97-9.69s2.64-9.69,7.97-9.69,7.97,4.84,7.97,9.69-2.64,9.69-7.97,9.69Z"/>
  <rect class="st1" x="191.02" y="17.16" width="3.8" height="159.83"/>
  <g>
    <path class="st0" d="M69.12,69.16c-.2-.27-.49-.41-.89-.4-.74.01-1.13.57-1.16,1.68l2.37-.05v-.15c-.01-.44-.11-.8-.31-1.08Z"/>
    <path class="st0" d="M114.61,76.12c-.36-.04-.65.01-.86.16-.22.15-.35.37-.38.66-.03.28,0,.51.13.68.12.18.3.28.54.31.5.06.98-.12,1.46-.53l.13-1.11c-.15-.03-.31-.07-.48-.09-.17-.03-.35-.05-.53-.08Z"/>
    <path class="st0" d="M53.12,70.18c-.83.18-1.1.96-.8,2.34.3,1.38.86,1.99,1.69,1.81.84-.18,1.11-.96.81-2.35-.3-1.38-.86-1.99-1.7-1.81Z"/>
    <path class="st0" d="M59.19,69.46c-.35.04-.62.24-.81.62-.19.37-.24.9-.17,1.59.07.68.23,1.16.46,1.46.24.3.51.43.81.4.51-.05.9-.35,1.19-.87l-.31-2.89c-.47-.23-.86-.33-1.18-.3Z"/>
    <path class="st0" d="M91.82,70.58c-.84-.11-1.36.53-1.54,1.93-.19,1.4.14,2.16.98,2.27.85.11,1.37-.53,1.55-1.93.19-1.4-.14-2.16-.99-2.28Z"/>
    <path class="st0" d="M86.37,70c-.47-.06-.92.11-1.35.51l-.39,3.24c.28.13.6.21.98.26.39.05.73-.1,1.02-.43.29-.33.48-.84.56-1.5.08-.67.05-1.18-.11-1.51-.15-.33-.39-.52-.72-.56Z"/>
    <path class="st0" d="M161.99,60.8l-11.93,3.4-14.03,3.09-20.4-1.34-14.6-1.74-21.13-2.18h-16.31l-15.3,1.33-10.72,3.27v19.54s18.81-5.55,20-6.82c1.2-1.27,21.14-.24,21.14-.24l29.53,3.5,29.24,2.12,23.63-4.81,2.07-6.94-1.19-12.18ZM62.98,66.08c.11-.07.31-.11.58-.14.31-.01.51.02.6.08.09.07.15.25.17.54,0,.28-.03.46-.11.55-.08.08-.28.14-.59.17-.3.02-.53-.02-.67-.11-.08-.14-.12-.31-.14-.51-.02-.32.03-.51.14-.58ZM49.9,76.12c-.23.06-.44.11-.62.12l-.73-2.65-.22-.84-.63.19-1.9.52-.65.17.24.83.73,2.65c-.15.07-.35.14-.59.21-.24.07-.45.11-.61.12l-2.13-7.72c.14-.07.34-.14.58-.21.24-.07.45-.11.62-.12l.66,2.4.22.84.64-.19,1.9-.52.63-.16-.24-.83-.66-2.4c.15-.07.35-.15.6-.21.25-.07.45-.11.62-.12l2.13,7.72c-.17.08-.37.15-.6.21ZM55.73,74.25c-.33.51-.84.84-1.53.99-.4.09-.76.09-1.1.01-.34-.08-.64-.22-.9-.44-.27-.22-.49-.5-.68-.84-.19-.34-.33-.73-.43-1.19-.1-.44-.13-.86-.1-1.25.03-.39.12-.74.28-1.05.15-.31.37-.57.64-.77.28-.21.61-.35,1.01-.44.4-.09.76-.09,1.1-.01.34.08.64.22.9.44.27.22.5.5.68.84.19.34.33.74.43,1.18.22,1.02.12,1.87-.31,2.53ZM62.16,73.91c-.07.13-.15.23-.24.3-.45-.04-.79-.25-1-.62-.4.58-.93.9-1.59.97-.66.07-1.19-.14-1.59-.64-.4-.5-.65-1.22-.75-2.17-.05-.47-.04-.9.04-1.28.08-.38.21-.71.38-.99.17-.28.39-.5.65-.66.26-.16.54-.26.84-.29.42-.05.87.04,1.36.24l-.33-3.03.07-.08.45-.05c.24-.03.41.01.52.12.11.11.17.3.2.58l.66,6.16c.06.54.21.9.45,1.07-.02.11-.06.23-.14.37ZM64.26,74.03c-.25.02-.46.01-.61,0l-.26-4.28c-.01-.22-.06-.37-.15-.46-.08-.09-.22-.13-.41-.12h-.13c-.05-.16-.08-.3-.09-.42,0-.12,0-.27.03-.45.26-.05.5-.08.73-.09h.16c.3-.03.53.05.71.23.18.18.28.43.3.75l.29,4.78c-.15.04-.35.07-.6.08ZM70.58,70.78c0,.15-.03.31-.06.46l-3.45.07c.03.54.16.95.37,1.24.21.29.57.42,1.06.41.23,0,.49-.04.75-.12.27-.08.55-.19.83-.36.2.18.33.43.4.77-.62.45-1.35.68-2.19.7-.45,0-.82-.06-1.13-.21-.31-.15-.56-.36-.76-.63-.2-.27-.34-.59-.44-.97-.09-.38-.14-.79-.15-1.22,0-.43.04-.83.14-1.21.1-.37.25-.7.45-.96.2-.27.45-.48.74-.64.3-.16.63-.24,1.01-.25.38,0,.71.05,1.01.17.3.12.55.29.76.51.21.22.37.48.48.79.11.31.17.64.18,1,0,.16,0,.31,0,.46ZM76.86,73.97c-.32.04-.65.05-1,.03-.77-.04-1.14-.46-1.1-1.26l.37-7.38.09-.07.46.02c.24.01.41.08.5.21.09.13.13.33.12.6l-.32,6.4c-.02.35.13.53.43.55l.43.02c.06.2.09.38.08.53,0,.15-.03.27-.05.35ZM81.8,74.44c-.45-.12-.75-.39-.88-.8-.6.49-1.18.71-1.77.66-.3-.02-.55-.09-.77-.2-.21-.11-.39-.25-.53-.42-.14-.17-.24-.36-.3-.58-.06-.21-.08-.43-.06-.66.05-.64.29-1.11.73-1.4.43-.3.99-.42,1.67-.36.2.02.39.04.57.06.19.03.37.06.54.11l.04-.46c.06-.7-.24-1.07-.88-1.12-.44-.03-1.07.07-1.87.31-.21-.21-.3-.51-.28-.9.82-.3,1.64-.41,2.46-.35.61.05,1.07.25,1.38.6.31.35.44.85.39,1.51l-.19,2.4c-.04.48.05.83.25,1.03-.12.27-.28.47-.5.58ZM88.41,72.31c-.05.45-.17.85-.34,1.19-.17.34-.39.62-.66.85-.26.22-.56.38-.89.48-.33.09-.68.12-1.04.08-.74-.09-1.44-.3-2.1-.64l.99-8.2.08-.06.45.05c.24.03.4.11.48.24.08.13.11.33.08.61l-.31,2.54c.51-.34,1.07-.47,1.68-.4.62.07,1.07.4,1.34.98.27.58.35,1.34.24,2.3ZM94.04,73.02c-.14,1.04-.52,1.8-1.15,2.27-.48.37-1.07.51-1.77.41-.4-.05-.75-.17-1.04-.36-.29-.18-.52-.43-.7-.72-.18-.3-.3-.64-.36-1.02-.06-.38-.06-.8,0-1.26.06-.45.17-.85.33-1.21.16-.36.37-.65.62-.89.25-.24.54-.41.87-.51.33-.1.7-.13,1.1-.07.4.05.75.17,1.04.36.29.18.52.43.7.72.18.3.3.64.36,1.02.06.39.06.81,0,1.26ZM96.58,72.38l-.54,3.78c-.15.01-.35,0-.6-.04-.25-.04-.45-.08-.59-.13l.57-3.98c.08-.53-.01-.95-.26-1.26.12-.28.3-.47.53-.58.52.19.82.59.91,1.18.41-.64.96-.92,1.67-.82.19.03.39.08.61.16-.06.45-.22.81-.45,1.1-.07-.03-.22-.08-.47-.13-.53-.08-.98.16-1.37.7ZM99.45,76.24c-.08.51-.29.95-.65,1.33-.36.37-.83.62-1.41.73-.1-.07-.17-.16-.2-.28-.03-.12-.04-.24-.02-.37.29-.08.54-.21.75-.39.21-.18.34-.39.39-.63-.14-.06-.25-.11-.33-.15-.08-.04-.13-.09-.14-.16,0-.07-.01-.14-.01-.23,0-.08,0-.18.03-.3.03-.18.06-.32.1-.41.04-.1.1-.15.18-.17.08-.02.17-.03.28-.03.1,0,.22,0,.35.02.32.05.54.13.67.25.05.24.06.51.01.78ZM108.23,73.73c-.06.44-.3.63-.7.57-.2-.03-.37-.07-.49-.12l.02-.13c.13-.87-.15-1.36-.83-1.46-.37-.05-.68.08-.93.41-.25.33-.43.84-.53,1.55-.19,1.33.15,2.06,1.02,2.18.43.06.93-.06,1.48-.38.1.08.19.19.27.35.08.15.13.3.14.43-.66.49-1.39.68-2.2.56-.41-.06-.75-.19-1.03-.38-.28-.19-.49-.44-.65-.74-.16-.3-.26-.65-.3-1.04-.04-.39-.03-.82.03-1.27.07-.47.19-.88.38-1.23.18-.35.4-.63.66-.85.26-.22.54-.37.85-.46.31-.09.63-.11.95-.07.33.05.62.14.87.28.24.14.45.3.61.49.16.19.27.4.34.62.07.23.08.45.05.67ZM110.45,74.35l-.51,3.79c-.15.01-.35,0-.61-.03-.25-.03-.45-.08-.59-.13l.54-3.99c.07-.53-.02-.95-.27-1.26.12-.28.29-.47.53-.58.52.19.83.58.92,1.18.4-.65.96-.92,1.66-.83.19.03.39.08.61.15-.06.45-.21.82-.44,1.1-.07-.03-.22-.07-.47-.12-.53-.07-.98.17-1.36.72ZM116.97,75.11l-.29,2.39c-.06.48.01.83.21,1.04-.13.27-.3.46-.53.56-.45-.14-.73-.42-.84-.83-.61.46-1.21.66-1.8.59-.29-.04-.55-.11-.76-.23-.21-.12-.38-.27-.51-.45-.13-.18-.22-.37-.27-.59-.05-.21-.06-.43-.03-.66.08-.64.34-1.09.79-1.37.45-.28,1.01-.38,1.68-.29.19.02.38.05.57.09.18.03.36.08.54.13l.05-.46c.08-.7-.19-1.08-.83-1.16-.44-.05-1.07.03-1.88.23-.2-.22-.28-.53-.24-.92.83-.26,1.66-.34,2.47-.25.61.07,1.06.29,1.35.65s.4.87.32,1.52ZM121.86,74.47c-.08.17-.18.29-.29.38-.53-.3-1.04-.47-1.52-.51-.26-.02-.47.03-.63.14-.16.11-.25.26-.26.45-.01.19.03.34.14.45.1.11.28.23.53.35l.68.32c.96.46,1.41,1.08,1.35,1.87-.04.54-.28.95-.72,1.23-.44.28-1.01.39-1.72.34-.71-.06-1.37-.3-1.99-.74.02-.13.07-.28.16-.44.09-.16.19-.29.3-.37.59.39,1.09.6,1.47.63.4.03.69-.01.9-.13.2-.12.31-.29.33-.5.03-.34-.2-.63-.67-.85l-.63-.3c-.96-.45-1.41-1.05-1.35-1.79.04-.54.27-.95.68-1.22.41-.28.93-.39,1.55-.34.63.05,1.25.24,1.85.57-.01.16-.06.32-.14.48ZM128.99,74.46c0,.08-.01.16-.02.23-.01.08-.03.15-.05.21l-1.57-.1-.25,4.92c-.09.01-.18.02-.28.02-.1,0-.21,0-.32,0-.11,0-.21-.01-.32-.03-.1-.01-.19-.03-.27-.05l.25-4.92-1.01-.03c-.01-.06-.02-.13-.02-.21s0-.16,0-.23c0-.18.03-.33.07-.45l.95.06c-.02-.48-.03-.83-.02-1.05.01-.27.07-.51.16-.73.09-.22.22-.41.39-.56.16-.16.36-.27.58-.35.22-.08.47-.11.74-.1.55.03,1.05.14,1.51.35-.02.35-.13.62-.32.81-.18-.06-.34-.12-.5-.15-.16-.04-.3-.06-.44-.07-.33-.02-.57.06-.72.23-.15.17-.24.43-.26.78,0,.13,0,.27,0,.42,0,.15.02.31.03.49l1.65.06c.01.07.02.14.02.22,0,.07,0,.16,0,.24ZM132.51,75.25c-.07-.02-.23-.05-.48-.07-.53,0-.96.28-1.27.87l-.07,3.82c-.15.03-.35.04-.6.04-.25,0-.46-.02-.6-.06l.07-4.02c0-.53-.13-.94-.41-1.22.08-.29.24-.5.46-.64.54.13.89.48,1.05,1.06.33-.69.84-1.03,1.55-1.02.19,0,.39.03.62.08,0,.45-.11.83-.31,1.14ZM138.34,79.59c-.5-.06-.84-.32-1.04-.78-.57.61-1.21.94-1.9.99-.52.03-.91-.12-1.19-.46-.28-.34-.44-.79-.47-1.37l-.17-2.73c-.03-.47-.12-.82-.26-1.04.18-.18.43-.29.75-.3.43-.03.66.21.69.72l.18,2.98c.03.41.09.69.21.86.11.17.3.24.55.22.26-.02.51-.1.77-.24.26-.15.48-.33.68-.56l-.25-4.08c.22-.04.41-.07.59-.08.18-.01.39,0,.62,0l.25,4.14c.03.55.17.91.4,1.09-.07.29-.21.5-.42.64ZM146.36,78.45c-.8.17-1.29-.13-1.46-.92l-.79-3.67-.79.18s.06.08.09.12c.12.2.19.41.22.63.05.44-.13.69-.53.73-.2.02-.37.02-.51,0v-.13c-.11-.88-.5-1.28-1.18-1.21-.37.04-.64.25-.8.63-.16.38-.21.92-.13,1.63.14,1.34.65,1.96,1.53,1.86.43-.05.88-.29,1.34-.73.12.05.23.14.35.27.12.13.2.26.24.39-.51.64-1.18,1-1.99,1.09-.41.04-.78,0-1.09-.11-.32-.12-.59-.3-.82-.56-.23-.25-.41-.56-.55-.93-.14-.37-.23-.79-.28-1.24-.05-.47-.03-.9.06-1.29.09-.38.24-.71.43-.98.2-.27.43-.49.71-.65.28-.16.58-.26.91-.3.33-.04.64-.02.91.06.27.07.51.18.71.32.11.08.2.16.29.26-.03-.09-.07-.17-.09-.27-.03-.16-.05-.31-.05-.46l.85-.16-.22-1.01c-.06-.28-.05-.48.01-.61.07-.13.22-.23.46-.28l.45-.1.1.06.36,1.7,1.4-.34c.07.12.12.27.15.44.04.17.05.32.04.45l-1.42.28.73,3.42c.07.33.26.47.58.4l.79-.17c.1.16.17.32.2.5.04.17.05.29.05.35-.43.15-.85.27-1.27.36ZM152.94,76.85c-.5.05-.89-.14-1.17-.55-.43.72-.99,1.17-1.66,1.36-.5.14-.92.07-1.26-.2-.34-.27-.59-.68-.74-1.24l-.73-2.63c-.12-.45-.28-.77-.47-.96.14-.22.36-.37.67-.45.41-.11.69.07.82.56l.79,2.88c.11.39.23.66.38.79.14.14.34.17.59.11.25-.07.48-.2.71-.4.22-.19.41-.42.55-.69l-1.08-3.94c.2-.09.39-.16.56-.2.17-.05.38-.09.61-.12l1.1,4c.15.53.35.86.61.99,0,.29-.1.53-.28.71ZM157.32,74.93c-.29.43-.77.76-1.45.99-.67.23-1.38.26-2.12.1-.04-.13-.04-.28-.02-.47.02-.18.06-.34.13-.46.7.12,1.24.12,1.6,0,.38-.13.63-.29.77-.47.14-.19.17-.38.1-.59-.11-.33-.43-.5-.95-.52l-.7-.02c-1.06-.04-1.71-.41-1.95-1.11-.17-.51-.13-.97.14-1.39.27-.42.7-.73,1.29-.93.6-.2,1.24-.27,1.92-.21.05.15.07.31.06.5,0,.18-.05.34-.12.46-.61-.07-1.14-.02-1.6.14-.24.08-.42.21-.52.38-.1.17-.13.34-.07.52.06.18.16.3.3.36.14.06.35.1.63.11l.75.03c1.06.04,1.72.44,1.98,1.19.17.51.11.98-.18,1.41Z"/>
    <path class="st0" d="M79.92,71.53c-.36-.03-.64.04-.86.2-.21.16-.33.38-.35.67-.02.28.03.51.16.68.13.17.31.27.55.28.5.04.98-.16,1.43-.59l.09-1.11c-.15-.03-.32-.05-.49-.07-.17-.02-.35-.04-.54-.05Z"/>
  </g>
  <path class="st0" d="M123.67,52.64c1.02-1.49,2.96-11.95,2.98-14.25-.47.36-3.68,5.22-4.11,6.11-.76,1.57-.66,2.44-.16,4.15.37,1.29.64,2.94,1.29,3.99Z"/>
  <path class="st0" d="M125.46,50.09c-.75,1.04-1.06,2.24-1.34,3.51-.16.71-.9,3.55-.39,4.19.61-.85,1.43-1.72,2.11-2.6l6.41-8.37c-.98.22-6.03,2.22-6.79,3.27Z"/>
</svg>