<?xml version="1.0" encoding="UTF-8"?>
<!DOCTYPE svg PUBLIC "-//W3C//DTD SVG 1.1//EN" "http://www.w3.org/Graphics/SVG/1.1/DTD/svg11.dtd">
<!-- Creator: CorelDRAW -->
<svg xmlns="http://www.w3.org/2000/svg" xml:space="preserve" width="55.0334mm" height="28.5087mm" version="1.1" style="shape-rendering:geometricPrecision; text-rendering:geometricPrecision; image-rendering:optimizeQuality; fill-rule:evenodd; clip-rule:evenodd"
viewBox="0 0 11713.54 6067.91"
 xmlns:xlink="http://www.w3.org/1999/xlink"
 xmlns:xodm="http://www.corel.com/coreldraw/odm/2003">
 <defs>
  <style type="text/css">
   <![CDATA[
    .fil3 {fill:#208856;fill-rule:nonzero}
    .fil1 {fill:#384F74;fill-rule:nonzero}
    .fil4 {fill:#395075;fill-rule:nonzero}
    .fil7 {fill:#3A5175;fill-rule:nonzero}
    .fil5 {fill:#3A5176;fill-rule:nonzero}
    .fil9 {fill:#3B5176;fill-rule:nonzero}
    .fil8 {fill:#3C5276;fill-rule:nonzero}
    .fil10 {fill:#405679;fill-rule:nonzero}
    .fil11 {fill:#43597C;fill-rule:nonzero}
    .fil2 {fill:#559067;fill-rule:nonzero}
    .fil6 {fill:#5F718F;fill-rule:nonzero}
    .fil0 {fill:#C59D37;fill-rule:nonzero}
   ]]>
  </style>
 </defs>
 <g id="Capa_x0020_1">
  <metadata id="CorelCorpID_0Corel-Layer"/>
  <g id="logo-SIC-play.svg">
   <polygon class="fil0" points="647.64,323.8 915.14,323.8 1098.17,366.03 1267.12,450.51 1436.08,563.14 1633.17,675.78 1886.59,816.58 2196.32,985.53 2491.98,1154.49 2815.8,1337.51 2956.6,1436.06 3280.42,1605.01 3477.51,1717.65 3716.85,1872.52 3913.95,1985.15 4082.9,2069.63 4392.63,2252.66 4575.66,2407.52 4688.3,2562.39 4758.68,2745.41 4772.75,2815.8 4772.75,3069.21 4730.52,3210.01 4646.05,3378.96 4519.34,3519.76 4406.7,3604.24 4280,3688.72 4125.13,3773.19 3787.24,3956.22 3632.38,4054.77 3378.96,4195.56 3055.14,4378.59 2872.12,4491.22 2576.46,4660.18 2393.43,4758.73 2182.25,4885.43 2083.7,4955.82 1942.9,5026.21 1647.24,5195.16 1534.61,5251.48 1421.97,5335.96 1267.1,5420.44 1126.31,5490.82 929.21,5561.21 844.74,5575.28 619.48,5561.21 408.3,5476.73 239.34,5364.1 140.8,5251.46 42.25,5054.37 14.09,4927.66 0.02,4632 0.02,1830.33 14.09,957.46 56.32,788.5 183.02,591.41 309.73,464.7 478.69,366.16 "/>
   <polygon class="fil1" points="647.64,323.8 915.14,323.8 1098.17,366.03 1267.12,450.51 1436.08,563.14 1633.17,675.78 1886.59,816.58 2196.32,985.53 2491.98,1154.49 2562.37,1210.81 2520.14,1224.88 2308.95,1647.24 2168.16,1914.75 2013.29,2196.32 1872.5,2463.82 1731.7,2745.39 1590.9,2984.73 1393.81,3378.94 1253.01,3646.45 1084.06,3956.18 886.96,4336.29 703.94,4688.25 563.14,4941.67 366.05,5321.78 309.73,5406.26 225.25,5349.94 140.78,5251.4 42.23,5054.3 14.07,4927.6 -0,4631.93 -0,1830.27 14.07,957.39 56.3,788.44 183,591.34 309.71,464.64 478.67,366.09 "/>
   <polygon class="fil2" points="2590.5,1224.85 2674.98,1253.01 2858.01,1365.65 2984.71,1450.13 3350.76,1647.22 3547.86,1759.86 3688.65,1858.41 3913.91,1985.11 4082.86,2069.59 4392.59,2252.61 4575.62,2407.48 4688.25,2562.35 4758.64,2745.37 4772.71,2815.76 4772.71,3069.17 4730.48,3209.97 4646,3378.92 4519.3,3519.72 4406.66,3604.2 4279.95,3688.67 4125.09,3773.15 3787.2,3956.18 3759.04,3970.25 3702.72,3913.93 3646.4,3787.22 3576.02,3590.13 3491.54,3407.1 3364.83,3125.53 3252.19,2843.96 3139.56,2576.46 3026.92,2323.04 2872.05,1957 2745.35,1633.17 2674.96,1464.22 2590.48,1253.03 "/>
   <polygon class="fil3" points="2590.5,1224.85 2674.98,1253.01 2858.01,1365.65 2984.71,1450.13 3350.76,1647.22 3547.86,1759.86 3688.65,1858.41 3913.91,1985.11 4082.86,2069.59 4392.59,2252.61 4575.62,2407.48 4688.25,2562.35 4758.64,2745.37 4772.71,2815.76 4772.71,3069.17 4730.48,3209.97 4646,3378.92 4519.3,3519.72 4406.66,3604.2 4279.95,3688.67 4125.09,3773.15 3787.2,3956.18 3759.04,3970.25 3702.72,3913.93 3674.56,3759.06 3660.49,3702.74 3702.72,3576.04 3716.79,3463.4 3787.18,3407.08 3857.57,3393.01 3984.27,3322.62 4068.75,3294.47 4195.46,3224.08 4308.09,3111.44 4336.27,3111.4 4364.43,3026.92 4392.59,2984.69 4420.75,2984.69 4434.82,2829.83 4420.75,2674.96 4336.27,2520.1 4209.57,2393.39 3998.38,2252.59 3744.97,2111.8 3519.72,1985.09 3224.06,1816.13 2914.33,1633.11 2731.3,1534.56 2674.98,1464.18 2590.5,1252.99 "/>
   <path class="fil4" d="M8588.07 4195.46l211.18 0 112.64 42.23 98.55 98.55 14.07 42.23 0 154.87 -56.32 140.8 -98.55 126.71 -126.71 140.8 -140.8 98.55 -197.09 112.64 -154.87 70.39 -253.41 98.55 -126.71 28.16 -84.48 168.96 -98.55 253.41 -70.39 197.09 -28.16 84.48 -70.39 14.07 -98.55 -14.07 -14.07 -42.23 126.71 -408.28 84.48 -211.18 0 -56.32 -42.23 -42.23 0 -70.39 42.23 -28.16 98.55 -14.07 42.23 -56.32 140.8 -337.89 42.23 -112.64 -112.64 84.48 -98.57 0 -14.07 -56.32 56.32 -84.48 225.25 -168.96 42.23 -140.8 98.55 -14.07 56.32 28.16 84.48 -14.07 253.41 -98.55 56.32 -14.09zm56.32 112.64l-225.25 84.48 -225.25 112.64 -42.23 42.23 -126.71 351.96 -112.64 281.57 42.23 14.07 295.66 -98.55 154.87 -84.48 154.87 -112.64 225.25 -211.18 98.55 -154.87 14.07 -112.64 -42.23 -84.48 -56.32 -28.16 -154.87 0.04z"/>
   <path class="fil5" d="M11431.96 4322.18l98.55 14.07 28.16 14.07 -14.07 56.32 -140.8 239.34 -98.55 211.18 -28.16 98.55 112.64 -98.55 126.71 -140.8 98.55 -112.64 28.16 -42.23 70.39 0 -14.07 84.48 -112.64 154.87 -239.34 239.34 -98.55 70.39 -28.16 0 -28.16 84.48 -140.8 323.82 -140.8 225.25 -126.71 140.8 -126.71 84.48 -98.55 28.16 -183 -0.02 -70.39 -42.23 -14.07 -28.16 0 -126.71 70.39 -140.8 84.48 -112.64 154.87 -112.64 225.25 -168.96 183.02 -140.8 56.32 -112.64 56.32 -168.96 -126.71 140.8 -112.64 112.64 -168.96 98.55 -98.55 14.07 -56.32 -56.32 0 -126.71 70.39 -183.02 98.55 -140.8 112.64 -140.8 98.55 -70.39 84.48 -14.07 42.23 28.16 -14.07 56.32 -84.48 70.39 -140.8 183.02 -84.48 140.8 -28.16 98.55 140.8 -84.48 168.96 -154.87 168.96 -183.02 140.8 -211.18 70.39 -84.48 28.14 -14.01zm-549.07 1027.74l-112.64 70.39 -183.02 168.96 -140.8 197.09 0 70.39 56.32 28.16 84.5 0 126.71 -84.48 84.48 -126.71 126.71 -295.66 0 -28.16 -42.25 0.02z"/>
   <polygon class="fil4" points="7912.29,675.78 8081.22,675.78 8264.25,732.1 8348.73,788.42 8419.11,901.05 8447.27,1041.85 8390.95,1055.92 8264.25,1055.9 8179.77,929.19 8109.38,872.87 8067.15,858.8 7926.36,858.8 7827.81,901.03 7785.58,971.42 7813.74,1055.9 7954.54,1126.29 8179.79,1182.6 8320.59,1224.83 8405.07,1295.22 8475.45,1436.02 8475.45,1604.97 8419.13,1703.52 8334.66,1802.07 8236.11,1858.38 8010.86,1886.54 7799.67,1858.38 7687.04,1802.07 7588.49,1689.43 7518.1,1520.47 7532.17,1450.09 7743.35,1464.15 7785.58,1590.86 7870.06,1661.25 7982.7,1689.41 8137.56,1675.34 8236.11,1619.02 8250.18,1590.86 8250.18,1478.22 8179.79,1407.84 8010.84,1337.45 7771.49,1281.13 7644.79,1210.74 7588.47,1140.35 7574.4,1084.04 7574.4,929.17 7616.63,830.62 7687.01,760.24 7799.65,703.92 "/>
   <path class="fil1" d="M9841.06 2365.23l183.02 0 14.07 56.32 -14.07 1084.06 -98.55 14.07 -56.32 -14.07 -14.07 -70.39 -70.39 56.32 -70.39 28.16 -239.34 -0.02 -112.64 -42.23 -84.48 -98.55 -56.32 -112.64 -28.16 -112.64 0 -126.71 42.23 -154.87 98.55 -126.71 98.55 -84.48 84.48 -28.16 98.57 0 112.64 42.23 98.55 70.39 14.07 -380.1zm-281.57 436.44l-84.48 56.32 -70.39 98.55 -14.07 70.39 0 168.96 56.32 112.64 84.48 70.39 126.71 14.07 112.64 -56.32 56.32 -98.55 14.07 -70.39 0 -154.87 -28.16 -84.48 -84.48 -98.55 -56.32 -28.16 -112.64 0z"/>
   <path class="fil5" d="M9812.92 3885.72l84.46 0 70.39 56.32 -14.07 112.64 -56.32 154.87 -140.8 253.41 -112.64 140.8 -168.96 197.09 -126.71 140.8 -98.55 112.64 -154.87 154.87 -56.32 126.71 0 126.71 70.43 0 126.71 -112.64 98.55 -168.96 84.48 -84.48 42.23 14.07 -14.07 70.39 -84.48 168.96 -112.64 140.8 -112.64 84.48 -98.55 28.16 -112.62 0 -42.23 -28.16 -14.07 -84.48 28.16 -197.09 84.48 -239.34 84.48 -197.09 112.64 -197.09 183.02 -323.82 126.71 -183.02 84.48 -98.55 154.87 -126.71 84.44 -42.25zm-42.25 154.87l-70.39 42.23 -154.87 154.87 -211.18 366.05 -140.8 309.73 14.07 56.32 70.39 -70.39 168.96 -197.09 140.8 -183.02 84.48 -112.64 112.64 -225.25 28.16 -84.48 0 -56.32 -42.25 0z"/>
   <path class="fil5" d="M8855.55 985.51l267.5 0 112.64 56.32 56.32 56.32 14.07 42.23 0 549.07 84.48 28.16 14.07 14.07 0 112.64 -42.23 28.16 -154.87 0 -28.16 -70.39 -211.18 70.39 -225.25 0 -98.55 -42.23 -70.39 -140.8 0 -140.8 56.32 -112.64 168.96 -84.48 337.89 -56.32 0 -84.48 -56.32 -42.23 -42.23 -14.07 -126.75 0 -84.48 14.07 -28.16 84.48 -28.16 14.07 -154.84 0.02 -28.16 -42.23 28.16 -84.48 56.32 -70.39 140.8 -70.39 42.21 -14.09zm267.5 464.6l-295.66 42.23 -56.32 42.23 0 112.64 56.32 56.32 126.71 14.07 112.64 -42.23 70.39 -70.39 14.07 -28.16 0 -112.64 -28.14 -14.07z"/>
   <polygon class="fil6" points="6067.97,0 6124.29,14.07 6124.29,5856.75 6110.22,5884.91 6053.9,5870.84 6053.9,14.07 "/>
   <path class="fil7" d="M11122.23 2632.71l140.8 14.07 140.8 84.48 70.39 56.32 84.48 126.71 28.16 84.48 0 197.09 -56.32 140.8 -84.48 98.55 -112.64 70.39 -42.23 14.07 -281.57 0.02 -112.64 -42.23 -70.39 -70.39 -70.39 -112.64 -42.23 -126.71 0 -140.8 42.23 -140.8 84.48 -112.64 98.55 -84.48 98.55 -42.23 84.46 -14.07zm0 168.96l-140.8 70.39 -56.32 84.48 -14.07 70.39 0 168.96 56.32 112.64 70.39 56.32 140.8 28.16 98.55 -42.23 70.39 -84.48 28.16 -140.8 -14.07 -154.87 -70.39 -112.64 -112.64 -56.32 -56.32 0z"/>
   <polygon class="fil1" points="9869.22,985.51 10052.24,985.51 10164.88,1041.83 10221.2,1112.22 10249.36,1196.69 10249.36,1844.32 10235.29,1858.38 10052.24,1858.38 10038.18,1844.32 10024.11,1210.76 10010.04,1168.54 9953.72,1154.47 9841.06,1154.45 9770.67,1196.67 9728.44,1238.9 9714.38,1281.13 9700.31,1844.27 9686.24,1858.34 9517.26,1858.38 9503.19,1844.32 9503.19,1013.67 9517.26,999.6 9672.13,999.58 9700.29,1041.81 9700.29,1084.04 9784.76,1027.72 "/>
   <polygon class="fil8" points="8292.41,2632.71 8405.04,2632.71 8517.68,2674.94 8630.32,2773.49 8700.71,2886.12 8672.55,2914.28 8545.82,2914.3 8475.43,2886.14 8419.11,2829.83 8376.88,2815.76 8278.34,2815.74 8193.86,2872.05 8236.09,2942.44 8278.32,2970.6 8517.66,3012.83 8644.37,3097.31 8728.84,3209.94 8728.84,3322.58 8672.53,3407.06 8573.98,3491.54 8489.5,3519.7 8193.86,3519.68 8109.38,3491.52 8024.9,3421.13 7982.68,3336.65 7968.61,3266.26 7982.68,3252.19 8151.61,3252.19 8207.93,3322.58 8207.93,3350.74 8264.25,3364.81 8447.27,3364.81 8503.59,3350.74 8503.59,3238.1 8447.27,3195.88 8151.61,3139.56 8067.13,3083.24 8010.81,3012.85 7996.74,2984.69 7996.74,2815.74 8081.22,2717.19 8222.02,2646.8 "/>
   <path class="fil9" d="M10221.2 4575.6l98.55 0 56.32 28.16 28.16 112.64 -28.16 126.71 -56.32 140.8 -14.07 70.39 0 126.71 14.07 28.16 168.96 56.32 14.07 42.23 -42.23 42.23 -42.23 14.07 -183.05 0 -56.32 -56.32 -42.23 -112.64 -126.71 168.96 -112.64 84.48 -42.23 14.07 -112.64 0.02 -70.39 -56.32 -14.07 -42.23 0 -197.09 56.32 -154.87 112.64 -183.02 126.71 -140.8 197.09 -98.55 70.39 -14.09zm-70.39 126.71l-112.64 56.32 -112.64 126.71 -112.64 239.34 -14.07 56.32 0 98.55 28.16 56.32 84.48 -14.07 112.64 -126.71 140.8 -225.25 84.48 -197.09 28.16 -28.16 0 -42.23 -126.73 -0.04z"/>
   <polygon class="fil1" points="7588.47,2365.23 7813.72,2365.23 7813.72,3505.61 7602.56,3505.61 7588.49,3491.54 "/>
   <polygon class="fil7" points="10615.41,2632.71 10699.87,2632.71 10713.93,2646.78 10728,2829.81 10713.93,2843.87 10559.07,2872.03 10446.43,2928.35 10432.36,2984.67 10418.29,3505.59 10235.27,3505.61 10221.2,3491.54 10221.2,2674.96 10390.13,2674.96 10404.2,2689.03 10404.2,2773.51 10559.07,2660.87 "/>
   <polygon class="fil10" points="8869.64,2674.96 9024.51,2674.96 9038.57,2689.03 9038.57,3505.61 8968.19,3519.68 8869.64,3491.52 "/>
   <polygon class="fil11" points="8883.71,2365.23 9024.51,2365.23 9038.57,2379.3 9038.57,2520.1 9024.51,2534.16 8897.8,2534.16 8869.64,2520.1 8869.64,2379.3 "/>
   <polygon class="fil1" points="9221.6,3843.5 9249.76,3871.66 9221.6,3871.66 "/>
  </g>
 </g>
</svg>
