<?xml version="1.0" encoding="UTF-8"?>
<!DOCTYPE svg PUBLIC "-//W3C//DTD SVG 1.1//EN" "http://www.w3.org/Graphics/SVG/1.1/DTD/svg11.dtd">
<!-- Creator: CorelDRAW -->
<svg xmlns="http://www.w3.org/2000/svg" xml:space="preserve" width="32.5914mm" height="31.0358mm" version="1.1" style="shape-rendering:geometricPrecision; text-rendering:geometricPrecision; image-rendering:optimizeQuality; fill-rule:evenodd; clip-rule:evenodd"
viewBox="0 0 3259.14 3103.58"
 xmlns:xlink="http://www.w3.org/1999/xlink"
 xmlns:xodm="http://www.corel.com/coreldraw/odm/2003">
 <defs>
  <style type="text/css">
   <![CDATA[
    .fil0 {fill:#194B3F;fill-rule:nonzero}
    .fil1 {fill:#E2E2E2;fill-rule:nonzero}
   ]]>
  </style>
 </defs>
 <g id="Capa_x0020_1">
  <metadata id="CorelCorpID_0Corel-Layer"/>
  <g id="_1844827603584">
   <g>
    <path class="fil0" d="M974.99 1176.34c0,0 -46.3,-147.64 -46.3,-317.76l0 -790.58 690.56 -63.5 711.2 60.85 0 815.45c0,0 -5.56,153.72 -40.75,277.02 -23.28,100.28 -102.13,313.27 -662.78,542.93 -488.16,-218.81 -565.94,-316.71 -651.93,-524.67l0 0.26zm0 0l0 0 0 0z"/>
   </g>
   <path class="fil1" d="M974.99 1176.34l4.23 -1.32c0,0 -2.91,-9 -7.14,-25.4 -12.96,-49.21 -38.89,-164.04 -38.89,-291.04l0 -790.58 -4.5 0 0.53 4.5 690.03 -63.77 706.7 60.59 0 811.48 4.5 0 -4.23 0c0,0 -0.26,9.26 -1.32,25.66 -3.18,48.95 -12.96,158.22 -39.16,250.3l0 0c0,0 0,0 0,0 -11.64,49.74 -36.51,126.74 -128.85,220.66 -92.08,93.93 -251.62,204.26 -531.55,319.09l1.59 3.97 1.85 -3.97c-243.95,-109.27 -384.97,-188.38 -475.72,-265.64 -90.49,-77.26 -130.97,-152.66 -174.1,-256.65l-3.97 1.59 4.23 -1.32 -4.23 1.32 -3.97 1.59c43.13,104.25 84.4,181.5 176.48,259.82 91.81,78.32 233.63,157.43 477.84,266.96l1.59 0.79 1.85 -0.79c280.72,-115.09 441.06,-225.95 534.46,-320.94 93.4,-94.99 119.33,-174.36 130.97,-224.9l-4.23 -1.06 4.23 1.32c35.45,-124.09 41.01,-278.08 41.01,-278.34l-0.01 0.01 0 -818.89 -715.96 -61.38 -695.06 64.03 0 794.54c0,170.92 46.3,318.82 46.3,319.09l0 0c0,0 0,0.26 0,0.26l3.97 -1.59 0.53 0.01z"/>
   <g>
    <path class="fil1" d="M1010.71 1158.61c0,0 -43.66,-139.7 -43.66,-300.57l0 -747.18 652.99 -60.06 672.31 57.68 0 771c0,0 -5.82,150.55 -38.63,261.94 -21.96,94.72 -96.57,296.07 -626.53,513.29 -461.43,-206.9 -534.99,-299.24 -616.21,-495.83l-0.27 -0.27zm0 0l0 0 0 0z"/>
   </g>
   <g>
    <path class="fil0" d="M1050.4 1136.91c0,0 -41.01,-131.23 -41.01,-282.31l0 -702.47 611.19 -56.36 629.18 54.24 0 724.69c0,0 -6.61,142.88 -35.98,246.33 -20.64,88.9 -90.22,278.34 -586.58,482.6 -432.06,-194.47 -500.59,-281.52 -576.79,-466.2l-0.01 -0.52zm0 0l0 0 0 0z"/>
   </g>
   <g>
    <path class="fil1" d="M1675.87 1241.95c-5.29,-14.82 -10.85,-24.34 -10.85,-24.34 0,0 -13.76,-15.35 -21.43,-21.17 -16.14,-10.85 -10.85,-13.76 2.91,-9.53 10.05,6.61 26.72,17.2 26.72,17.2 0,0 -16.93,-43.39 -39.95,-59.27 -23.02,-16.14 -50.8,-36.51 -17.99,-28.31 20.64,7.94 40.48,27.52 40.48,27.52 0,0 -14.29,-38.63 -31.49,-53.45 -17.46,-14.82 -27.52,-36.51 -6.09,-22.23 20.9,14.82 36.25,38.1 36.25,38.1 0,0 -13.23,-43.66 -27.25,-58.74 -14.29,-15.08 -7.14,-30.96 18.79,5.03 14.29,22.23 20.64,42.33 20.64,42.33 0,0 -10.32,-51.06 -24.08,-75.41 -13.76,-24.35 -23.55,-43.92 -11.64,-37.04 11.64,9 39.42,49.21 51.59,109.54 5.82,-41.28 -9.79,-100.28 -19.84,-122.77 -10.32,-22.49 -6.61,-33.34 9.53,-8.73 8.2,18.79 14.55,30.96 14.55,30.96 0,0 4.23,-68 -4.23,-96.84 -7.67,-26.19 -22.75,-79.9 -5.03,-52.39 1.85,2.91 4.5,8.47 6.88,12.96 1.59,4.5 4.5,12.17 5.82,16.93 7.94,28.31 9.53,56.89 9.26,82.02 0,29.63 3.44,31.22 3.44,31.22 0,0 7.67,-26.72 7.41,-54.5 0,-28.05 0,-64.82 -10.32,-86.25 -7.94,-16.67 -7.14,-35.19 4.76,-23.28 3.18,3.44 6.35,8.73 11.64,19.58 7.41,24.08 17.73,77.26 1.59,134.41 18.52,-16.93 23.02,-71.17 21.17,-108.48 -1.85,-33.87 -9.26,-74.88 5.82,-53.98 1.59,2.12 5.03,10.85 7.41,23.28 2.65,12.44 2.38,70.11 2.38,70.11 0,0 15.88,-28.58 19.05,-64.03 3.18,-35.45 -1.32,-74.35 -1.32,-74.35 0,0 5.03,-26.19 12.44,2.65 6.09,26.99 0,71.17 0,71.17 0,0 7.41,-15.35 11.64,-33.6 2.65,-10.58 2.91,-24.34 3.7,-30.43 1.85,-16.67 -4.23,-39.16 6.09,-41.28 5.29,-0.79 12.44,14.55 8.47,51.33 9,0 14.29,-24.61 15.08,-38.63 0.79,-13.76 11.38,-40.48 14.55,-5.29 0.26,6.35 5.29,0.79 15.35,-12.96 10.05,-13.49 19.05,-24.87 25.66,-20.37 6.61,4.5 -0.53,9.79 -21.17,41.01 -20.64,31.49 -157.43,220.4 -162.19,491.33 0,15.08 -17.46,23.81 -26.46,-1.85l0.26 0.82zm216.43 -405.6c0.79,3.44 -2.91,4.76 -12.7,3.18 -6.35,-0.53 -15.35,1.06 -19.31,3.18 -3.97,2.12 -7.67,1.32 -8.2,-0.53 0,0 -1.59,-2.91 6.09,-5.29 7.67,-2.38 12.7,-5.29 19.31,-5.03 6.61,0 13.49,1.06 14.55,4.5l0.26 -0.01zm-49.21 88.63c10.32,-0.53 20.9,0 22.75,5.03 1.85,4.76 -3.7,7.41 -19.05,6.09 -9.53,0 -23.28,3.18 -29.1,6.61 -5.82,3.43 -11.64,2.91 -12.7,0 0,0 -2.65,-3.97 8.73,-8.2 11.38,-4.23 18.79,-9 29.1,-9.53l0.27 0zm-4.5 -56.35c9.79,-3.44 15.88,-7.41 24.61,-7.94 8.73,-0.26 17.46,0.53 19.05,4.76 1.32,4.23 -3.44,6.35 -16.14,5.03 -7.94,-0.26 -19.58,2.38 -24.61,5.29 -5.03,2.91 -9.79,2.38 -10.58,0 0,0 -2.12,-3.7 7.67,-7.14l0 0zm7.94 24.87c7.94,-1.06 16.14,-1.32 17.99,2.38 1.85,3.44 -2.38,5.82 -14.29,6.09 -7.41,0.53 -17.73,3.97 -22.23,7.14 -4.23,3.18 -9,3.18 -9.79,1.06 0,0 -2.38,-2.91 6.35,-7.14 8.47,-3.97 14.02,-8.2 21.96,-9.53l0.01 0zm41.54 71.96c0,6.35 -12.44,6.09 -26.99,4.76 -6.09,-0.53 -12.7,-1.32 -18.79,-1.85 -16.14,-1.32 -37.84,9.79 -50.01,14.55 -2.91,1.06 -5.82,1.59 -7.14,-1.06 -1.32,-2.65 0.53,-3.7 3.18,-5.82 7.67,-6.35 27.52,-16.67 51.06,-17.73 34.66,-1.59 48.68,-1.85 48.68,7.41l0.01 -0.26zm11.37 28.05c0,7.14 -14.02,6.88 -30.16,5.29 -6.88,-0.53 -14.29,-1.59 -21.17,-2.12 -18.26,-1.59 -42.33,10.85 -56.09,16.14 -3.44,1.32 -6.35,1.85 -7.94,-1.06 -1.59,-2.91 0.53,-4.23 3.44,-6.61 8.73,-6.88 30.96,-18.79 57.41,-19.84 38.89,-1.85 54.77,-2.12 54.5,8.47l0.01 -0.27zm-113.24 97.37c29.9,-2.65 42.07,-3.44 42.33,5.03 0,8.2 -21.7,5.03 -39.42,4.23 -14.02,-0.79 -32.28,10.05 -42.86,14.82 -2.65,1.06 -5.03,1.59 -6.35,-0.53 -1.32,-2.38 0.26,-3.44 2.65,-5.56 6.35,-5.82 23.28,-16.14 43.66,-17.99l-0.01 0zm0.27 -43.66c6.88,-1.85 11.38,-4.23 17.46,-4.23 6.09,0 12.17,1.06 12.96,3.97 0.79,2.91 -2.65,3.97 -11.38,2.65 -5.56,-0.53 -13.76,0.79 -17.2,2.38 -3.44,1.85 -6.88,1.06 -7.41,-0.53 0,0 -1.32,-2.38 5.56,-4.5l0.01 0.26zm10.58 15.61c8.73,-0.53 17.73,0 19.58,3.97 1.59,3.97 -3.18,6.35 -16.14,5.56 -8.2,0 -19.84,2.91 -24.61,6.09 -4.76,3.18 -9.79,2.65 -10.58,0.26 0,0 -2.12,-3.44 7.41,-7.14 9.79,-3.7 15.88,-7.94 24.61,-8.73l-0.27 -0.01zm-4.76 62.71c-15.88,-0.26 -35.98,11.91 -47.63,17.2 -2.91,1.32 -5.56,2.12 -6.88,-0.53 -1.59,-2.38 0,-3.7 2.65,-6.09 7.14,-6.61 25.66,-17.99 48.68,-20.64 33.6,-3.7 47.36,-5.03 47.89,4.23 0.53,9 -24.08,6.09 -44.45,5.56l-0.26 0.27zm-11.11 30.95c-14.55,-0.53 -33.34,11.91 -44.19,17.2 -2.65,1.32 -5.03,1.85 -6.35,-0.53 -1.32,-2.38 0,-3.7 2.38,-5.82 6.61,-6.61 23.81,-17.99 44.98,-20.64 30.96,-3.7 43.66,-5.03 44.19,3.97 0.53,9 -22.23,6.09 -41.01,5.82l0 0zm-14.03 34.4c-6.61,1.06 -15.61,5.56 -19.05,9.26 -3.7,3.7 -7.67,3.97 -8.47,1.85 0,0 -2.12,-3.18 5.29,-7.94 7.41,-5.03 11.91,-10.05 18.79,-11.91 6.88,-1.85 14.29,-2.65 16.14,1.32 1.85,3.7 -1.85,6.61 -12.44,7.67l-0.26 -0.25zm209.29 246.06c-16.93,20.11 -48.42,36.78 -79.9,39.42 -78.85,3.7 -105.57,-24.87 -143.93,-66.41 -38.36,-41.54 -43.66,-92.87 -40.75,-102.39 3.18,-9.26 9.26,-17.46 47.1,-29.63 37.57,-12.17 46.04,-44.19 34.4,-52.92 -11.64,-8.73 -9.79,-20.11 7.41,-26.99 17.2,-7.14 62.97,-23.02 79.9,-42.6 25.66,-29.37 12.44,-47.63 -5.03,-55.3 -17.46,-7.41 -20.11,-19.84 -12.7,-32.01 7.14,-12.17 25.93,-12.96 42.86,-17.99 16.93,-5.03 38.36,-9.26 49.74,-60.59 14.82,-59.53 -22.49,-53.45 -34.13,-53.18 -11.64,0 -33.34,8.47 -34.93,-10.85 -1.59,-19.31 7.94,-21.96 33.07,-39.95 25.14,-17.99 35.19,-29.1 40.75,-59.53 5.56,-30.43 -6.61,-41.54 -36.51,-43.13 -30.16,-1.59 -18.26,-28.05 -2.12,-47.1 20.64,-22.23 13.76,-48.68 -10.32,-65.09 -24.08,-16.67 -48.15,-4.5 -56.89,16.14 -8.73,20.64 -29.37,25.93 -33.87,9.53 -4.5,-16.4 -20.64,-22.49 -40.22,-14.55 -19.58,7.94 -18.79,33.34 -18.26,47.89 0.26,14.55 0,33.87 -9.79,43.92 -9.79,10.05 -25.4,-5.56 -40.48,-23.28 -15.08,-17.99 -42.6,1.06 -60.33,25.66 -17.73,24.6 -11.64,61.65 -8.2,71.7 3.44,10.05 18.79,32.28 24.08,57.41 5.29,24.87 -28.58,24.87 -35.72,14.29 -16.67,-11.91 -29.63,-18.52 -53.45,4.23 -23.81,22.75 1.85,67.73 16.93,85.2 14.82,17.46 14.82,33.87 -12.44,36.25 -27.25,2.38 -29.37,14.82 -30.43,43.13 -0.79,28.31 33.87,63.24 33.87,63.24 0,0 6.61,6.09 21.96,21.43 15.35,15.35 10.85,25.66 -4.5,36.51 -27.52,17.99 26.99,48.42 52.12,61.12 25.14,12.7 34.13,19.84 37.31,38.1 17.2,101.07 80.96,144.46 101.34,159.01 20.37,14.82 17.73,23.02 -2.65,22.23 -20.64,-0.53 -71.17,-1.06 -139.7,-49.48 -75.41,-57.15 -101.07,-121.44 -109.54,-167.75 -7.41,-54.24 -38.1,-152.93 -53.71,-197.11 -15.61,-44.19 -21.96,-46.04 -27.78,-42.33 -5.82,3.7 -1.06,15.88 14.29,46.3 26.19,57.15 55.3,193.68 55.03,218.02 -0.53,24.34 -15.61,30.16 -35.45,1.06 -38.1,-55.03 -62.18,-128.85 -66.41,-230.19 -4.5,-101.07 10.32,-273.05 12.7,-297.13 2.65,-24.08 10.85,-37.57 22.23,-47.36 12.96,-8.2 13.76,-14.02 6.88,-19.84 -7.14,-5.82 -6.88,-16.14 -10.05,-8.2 -3.18,7.94 -11.64,27.25 -20.37,45.24 -8.73,18.26 -14.29,12.96 -15.61,2.38 -1.32,-10.58 -17.73,-84.67 -26.72,-109.8 -9,-25.4 -24.61,-37.31 -27.78,-54.24 -2.38,-15.88 -9,-9.79 -21.17,5.29 -12.17,15.35 -0.53,15.88 10.85,18.79 11.38,2.91 32.54,30.69 45.77,93.13 13.23,62.44 16.67,120.12 17.2,142.35 0.79,21.96 -5.82,20.37 -19.58,9.53 -13.76,-11.11 -23.55,-24.61 -23.55,-24.61 0,0 -7.94,-12.7 -12.7,-14.82 -3.44,-1.32 -3.97,7.41 -5.29,9.53 -3.7,5.82 24.34,28.84 35.45,36.51 11.11,7.67 19.05,14.29 19.05,14.29 0,0 -6.35,116.95 -6.09,209.02 0,91.81 18.52,155.05 89.69,255.85 71.17,101.07 189.44,168.28 303.74,173.04 115.62,5.03 162.98,-37.84 174.36,-56.09 12.44,-19.84 8.73,-27.25 -0.79,-14.29l-0.24 -0.01zm0 0l0 0 0 0z"/>
   </g>
   <g>
    <path class="fil1" d="M1453.62 815.97c0,0 -70.11,-5.82 -123.83,38.36 -53.71,44.19 -65.35,97.63 -51.59,141.02 13.76,43.66 45.51,60.33 79.64,63.24 33.87,2.91 81.23,-15.35 85.46,-75.14 4.23,-59.8 -31.75,-73.29 -54.77,-73.82 -23.02,-0.53 -42.07,15.61 -41.8,37.84 0.26,22.23 15.35,24.34 22.49,24.61 7.14,0 7.94,-10.32 2.12,-12.7 -6.09,-2.38 -17.46,-15.08 0,-29.37 13.49,-10.85 35.19,-7.94 46.83,7.14 11.64,15.08 16.93,55.83 -5.29,82.02 -22.23,26.19 -75.14,31.22 -103.72,-6.88 -10.58,-17.46 -32.28,-61.65 0,-107.42 32.28,-45.77 62.44,-65.09 116.42,-69.59 30.43,-1.32 58.21,3.44 60.59,-7.94 2.65,-11.38 -22.49,-10.58 -32.28,-11.64l-0.27 0.27zm0 0l0 0 0 0z"/>
   </g>
   <g>
    <path class="fil1" d="M1280.85 429.95c0,0 7.67,-16.14 9,-18.79 8.73,-16.67 42.6,-85.99 74.88,-122.77 36.78,-42.07 48.42,-56.36 43.92,-62.44 -4.5,-6.35 -57.41,-42.33 -90.75,-41.54 -33.34,0.79 -53.45,16.14 -80.17,29.1 -25.14,12.44 -35.98,12.7 -55.03,21.17l-3.44 3.97c0,21.96 2.12,25.14 2.12,25.14 0,0 2.38,2.38 4.23,1.06 3.44,-2.65 7.67,-10.85 10.85,-15.08 4.76,-6.35 16.67,-7.94 4.5,11.38 -12.44,19.31 -28.58,40.75 -21.17,44.98 7.41,4.23 14.29,-12.44 23.28,-27.25 8.99,-14.81 21.7,-33.07 25.4,-28.58 3.7,4.5 -11.38,26.72 -20.64,39.16 -9.26,12.44 -19.05,34.4 -14.55,38.36 4.5,3.97 25.4,-34.4 33.07,-47.63 7.67,-13.23 23.81,-37.04 29.1,-34.13 5.29,3.18 -17.46,34.4 -29.9,52.39 -5.82,8.2 -11.91,19.31 -16.93,27.25 -5.82,9.26 -11.64,25.14 -7.94,26.99 6.88,3.7 22.49,-29.63 34.93,-49.21 12.7,-19.84 29.37,-54.5 34.66,-50.54 5.29,3.97 2.38,10.05 -15.61,39.69 -11.11,17.99 -47.89,79.9 -39.42,86.78 7.14,6.88 22.23,-37.31 32.54,-56.62 10.32,-19.05 30.16,-48.15 30.16,-48.15 0,0 12.96,-18.26 16.67,-16.4 3.44,1.85 -0.79,9 -6.61,18.79 -4.23,7.14 -9.26,14.82 -15.35,24.61 -17.73,29.37 -47.36,90.22 -42.33,97.63 5.03,7.14 21.43,-34.66 35.98,-59.8 14.82,-24.87 34.66,-52.92 34.66,-52.92 0,0 8.73,-12.44 13.49,-10.05 4.76,2.38 -0.53,11.38 -11.91,29.37 -11.38,17.99 -52.39,95.25 -46.57,106.1 5.82,10.85 25.93,-40.48 35.72,-60.85 9.79,-20.11 36.25,-63.24 41.28,-60.06 5.03,3.18 -7.14,23.28 -22.49,52.39 -15.08,29.1 -47.1,85.46 -29.9,86.25l0.27 0.25zm0 0l0 0 0 0z"/>
   </g>
   <g>
    <path class="fil1" d="M1400.44 346.34c0,0 -4.76,-9.79 3.18,-12.44 7.94,-2.65 23.02,15.35 16.93,23.81 -6.09,8.47 -20.11,-11.38 -20.11,-11.38l0 0.01zm0 0l0 0 0 0z"/>
   </g>
   <path class="fil1" d="M1419.23 443.97c0,0 -8.47,6.88 -12.96,-0.26 -4.5,-7.14 9.53,-25.93 19.31,-21.7 9.79,3.97 -6.35,21.96 -6.35,21.96z"/>
   <g>
    <path class="fil1" d="M1379.27 470.16c0,0 -10.85,0.53 -10.05,-7.94 0.79,-8.47 23.28,-14.82 28.58,-5.82 5.29,9 -18.52,13.76 -18.52,13.76l-0.01 0zm0 0l0 0 0 0z"/>
   </g>
   <path class="fil1" d="M1337.21 469.63c0,0 -6.35,-3.7 -1.32,-10.32 5.03,-6.88 21.43,-3.44 19.31,5.82 -1.85,9.53 -17.99,4.5 -17.99,4.5z"/>
   <g>
    <path class="fil1" d="M1372.13 422.27c0,0 -6.35,-3.7 -1.32,-10.58 5.03,-6.88 21.43,-3.44 19.31,6.09 -2.12,9.53 -17.99,4.5 -17.99,4.5l0 -0.01zm0 0l0 0 0 0z"/>
   </g>
   <path class="fil1" d="M1422.4 245.27c0,0 -2.38,-6.88 5.82,-8.73 8.2,-1.85 18.52,11.11 10.85,17.2 -7.67,5.82 -16.67,-8.47 -16.67,-8.47z"/>
   <path class="fil1" d="M1429.02 284.69c0,0 3.97,-6.09 10.58,-0.79 6.35,5.56 2.12,21.43 -7.14,19.05 -9.26,-2.65 -3.44,-18.26 -3.44,-18.26z"/>
   <g>
    <path class="fil1" d="M1358.11 345.02c0,0 5.29,-9.53 12.17,-4.5 6.88,5.03 0.26,27.52 -10.05,27.25 -10.58,0 -1.85,-23.02 -1.85,-23.02l-0.27 0.27zm0 0l0 0 0 0z"/>
   </g>
   <path class="fil1" d="M1336.68 389.2c0,0 6.88,-7.41 15.61,-3.44 8.73,3.97 0.53,21.96 -12.96,21.7 -13.49,0 -2.65,-18.26 -2.65,-18.26z"/>
   <path class="fil1" d="M1390.65 375.71c0,0 6.88,-7.41 15.61,-3.44 8.73,3.97 0.53,21.96 -12.96,21.7 -13.49,0 -2.65,-18.26 -2.65,-18.26z"/>
   <g>
    <path class="fil1" d="M1404.14 274.9c0,0 6.88,-7.41 15.61,-3.44 8.73,3.97 0.53,21.96 -13.23,21.7 -13.49,0 -2.65,-18.26 -2.65,-18.26l0.27 0zm0 0l0 0 0 0z"/>
   </g>
   <g>
    <path class="fil1" d="M1473.47 261.94c0,0 5.82,8.2 0,15.88 -5.82,7.94 -21.43,-3.97 -18.52,-17.2 2.91,-13.23 18.26,1.32 18.26,1.32l0.26 0zm0 0l0 0 0 0z"/>
   </g>
   <path class="fil1" d="M1475.05 317.76c0,0 -2.91,9.53 -12.7,9.79 -9.79,0 -9.53,-19.58 2.65,-25.14 12.44,-5.56 10.05,15.35 10.05,15.35z"/>
   <g>
    <path class="fil1" d="M1423.46 329.67c0,0 -6.35,-3.7 -1.32,-10.58 5.03,-6.88 21.43,-3.44 19.31,6.09 -1.85,9.53 -17.99,4.5 -17.99,4.5l0 -0.01zm0 0l0 0 0 0z"/>
   </g>
   <g>
    <path class="fil1" d="M1350.7 440c0,0 -6.35,-3.7 -1.32,-10.58 5.03,-6.88 21.43,-3.44 19.31,6.09 -1.85,9.53 -17.99,4.5 -17.99,4.5l0 -0.01zm0 0l0 0 0 0z"/>
   </g>
   <g>
    <path class="fil1" d="M1332.97 444.23c0,0 -1.32,10.85 -9.53,8.73 -8.2,-2.12 -10.58,-25.4 -1.06,-29.1 9.79,-3.7 10.58,20.37 10.58,20.37l0.01 0zm0 0l0 0 0 0z"/>
   </g>
   <g>
    <path class="fil1" d="M1379.8 315.65c0,0 1.32,-10.05 10.85,-11.91 9.53,-1.85 12.96,17.73 1.85,25.14 -11.11,7.67 -12.44,-13.49 -12.44,-13.49l-0.26 0.26zm0 0l0 0 0 0z"/>
   </g>
   <g>
    <path class="fil1" d="M1432.46 384.44c0,0 5.29,-9 15.61,-1.59 10.32,7.41 6.09,30.96 -7.94,27.78 -14.29,-3.18 -7.41,-26.19 -7.41,-26.19l-0.26 0zm0 0l0 0 0 0z"/>
   </g>
   <g>
    <path class="fil1" d="M1446.74 350.84c0,0 5.29,-9.53 12.17,-4.5 6.88,5.03 0.26,27.52 -10.05,27.25 -10.58,0 -1.85,-23.02 -1.85,-23.02l-0.27 0.27zm0 0l0 0 0 0z"/>
   </g>
   <g>
    <path class="fil1" d="M1275.29 755.12c-0.53,-21.96 -1.06,-86.78 3.7,-141.29 6.35,-63.76 16.4,-85.46 6.35,-88.9 -2.38,-0.79 -4.76,-0.79 -15.08,-1.59 -5.29,-0.26 -11.11,-0.53 -17.46,-0.79 -6.35,0 -12.96,0 -20.11,0 -27.78,0.53 -56.62,3.18 -71.7,12.44 -30.16,18.26 -36.51,43.92 -52.65,71.17 -15.08,25.66 -24.87,31.49 -38.1,50.27l-1.06 5.82c11.91,23.02 15.88,24.87 15.88,24.87 0,0 3.7,1.32 4.76,-1.32 1.85,-4.5 1.32,-15.08 1.85,-21.17 1.06,-9.26 11.11,-17.2 10.58,9.26 -0.53,26.46 -4.5,43.66 5.29,43.92 9.79,0.26 7.14,-20.37 7.14,-40.48 0,-20.11 1.06,-31.75 7.14,-29.1 6.35,2.65 5.29,33.07 3.7,50.8 -1.59,17.73 0.53,39.95 7.14,41.54 6.88,1.32 5.82,-43.39 5.03,-60.85 -0.26,-17.46 0,-50.01 6.61,-49.74 7.14,0.26 5.29,43.66 3.7,68.53 -0.53,11.38 0,25.93 0,36.78 0,12.44 4.76,25.4 9.53,25.4 9.26,0 3.7,-35.98 3.97,-62.44 0.53,-26.72 -5.82,-70.38 1.59,-69.06 7.41,1.06 9.26,9 10.32,47.89 0.79,23.81 1.85,95.78 9.79,98.16 8.2,1.85 3.44,-39.42 2.12,-64.29 -1.32,-24.87 -0.26,-64.03 -0.53,-64.03 0,0 0.53,-25.14 5.82,-25.14 4.5,0 5.29,9.26 5.82,21.96 0.53,9.26 0.26,19.58 0.53,32.81 1.32,38.36 5.29,107.69 14.55,112.18 9.53,4.5 2.91,-38.63 2.38,-71.44 -0.26,-32.81 1.32,-71.17 1.32,-71.17 0,0 0.53,-16.93 6.88,-17.2 6.35,0 7.14,11.64 7.14,35.45 0.53,23.81 3.18,116.15 15.08,124.09 12.17,7.67 4.76,-48.42 2.12,-73.55 -2.12,-25.4 -2.38,-82.02 4.76,-81.76 7.14,0.26 3.97,27.78 6.35,64.56 2.12,36.78 1.32,67.2 12.44,69.59 0,0 5.03,0.26 5.03,-12.44l0.28 0.26zm0 0l0 0 0 0z"/>
   </g>
   <g>
    <path class="fil1" d="M1379.54 638.44c0,0 -7.94,-10.05 1.32,-14.55 9.53,-4.5 32.01,12.7 25.93,23.28 -5.82,10.58 -27.25,-8.73 -27.25,-9l0 0.27zm0 0l0 0 0 0z"/>
   </g>
   <g>
    <path class="fil1" d="M1426.11 727.87c0,0 -5.03,11.91 -13.76,7.14 -8.73,-4.5 -3.7,-31.49 9,-33.07 6.35,-0.79 7.41,5.56 7.14,12.44 -0.26,6.61 -2.12,13.76 -2.12,13.76l-0.26 -0.27zm0 0l0 0 0 0z"/>
   </g>
   <g>
    <path class="fil1" d="M1393.83 778.4c0,0 -10.85,6.61 -14.82,-2.38 -3.97,-9 15.88,-28.31 26.46,-22.23 10.32,6.09 -11.64,24.34 -11.64,24.34l0 0.27zm0 0l0 0 0 0z"/>
   </g>
   <g>
    <path class="fil1" d="M1359.43 798.78c0,0 -8.73,0 -7.41,-9.79 1.32,-9.79 19.84,-15.61 23.28,-5.03 3.44,10.85 -15.88,14.82 -15.88,14.82l0.01 0zm0 0l0 0 0 0z"/>
   </g>
   <g>
    <path class="fil1" d="M1378.48 729.19c0,0 -8.73,0 -7.14,-9.79 1.59,-9.53 20.64,-15.88 23.81,-5.29 3.18,10.58 -16.67,14.82 -16.67,14.82l0 0.26zm0 0l0 0 0 0z"/>
   </g>
   <g>
    <path class="fil1" d="M1325.03 550.33c0,0 -7.94,4.76 -10.05,-5.82 -1.06,-5.29 2.12,-12.17 6.35,-16.67 4.23,-4.5 9.79,-6.09 13.23,-1.59 6.88,9.26 -9.26,23.81 -9.26,24.08l-0.27 0zm0 0l0 0 0 0z"/>
   </g>
   <g>
    <path class="fil1" d="M1367.37 598.49c0,0 0.79,-8.47 11.91,-7.14 11.11,1.59 15.61,19.84 3.18,23.02 -12.44,3.18 -15.08,-15.88 -15.08,-15.88l-0.01 0zm0 0l0 0 0 0z"/>
   </g>
   <path class="fil1" d="M1311.81 678.39c0,0 0,-12.17 10.32,-11.11 10.32,1.06 16.67,26.72 5.29,32.54 -11.11,5.56 -15.61,-21.43 -15.61,-21.43z"/>
   <path class="fil1" d="M1308.89 727.07c0,0 2.65,-11.11 14.29,-12.17 11.64,-1.06 12.96,21.43 -1.06,28.84 -14.02,7.41 -13.23,-16.67 -13.23,-16.67z"/>
   <g>
    <path class="fil1" d="M1338 696.65c0,0 3.18,-11.38 15.08,-12.44 11.91,-1.32 12.7,21.43 -1.85,29.1 -14.55,7.41 -12.96,-16.4 -12.96,-16.4l-0.27 -0.26zm0 0l0 0 0 0z"/>
   </g>
   <g>
    <path class="fil1" d="M1312.07 590.28c0,0 2.91,-11.38 15.88,-12.7 12.96,-1.32 14.29,21.17 -1.32,28.84 -15.35,7.67 -14.55,-16.14 -14.55,-16.4l-0.01 0.26zm0 0l0 0 0 0z"/>
   </g>
   <g>
    <path class="fil1" d="M1406.53 519.9c0,0 11.91,4.23 9.79,15.61 -2.12,11.11 -27.78,9.26 -32.54,-5.29 -2.38,-7.41 3.44,-9.79 9.79,-10.58 6.35,-0.79 12.96,0.53 12.96,0.53l0 -0.27zm0 0l0 0 0 0z"/>
   </g>
   <g>
    <path class="fil1" d="M1366.31 555.62c0,0 1.85,11.38 -9.26,17.46 -10.85,6.09 -22.23,-13.23 -11.11,-26.19 11.11,-12.96 20.11,8.73 20.11,8.73l0.26 0zm0 0l0 0 0 0z"/>
   </g>
   <path class="fil1" d="M1349.11 622.03c0,0 -7.41,0 -6.09,-9.53 1.32,-9.53 17.73,-16.4 20.11,-5.82 2.38,10.58 -14.02,15.35 -14.02,15.35z"/>
   <g>
    <path class="fil1" d="M1352.29 756.18c0,0 -8.73,0 -7.14,-9.79 1.32,-9.53 20.11,-15.61 23.55,-5.03 3.18,10.58 -16.14,14.82 -16.14,14.82l-0.27 0zm0 0l0 0 0 0z"/>
   </g>
   <g>
    <path class="fil1" d="M1338.53 781.58c0,0 4.76,11.64 -4.76,14.02 -9.53,2.65 -25.4,-19.58 -17.46,-28.84 7.94,-9.26 22.49,14.55 22.49,14.55l-0.27 0.27zm0 0l0 0 0 0z"/>
   </g>
   <path class="fil1" d="M1310.75 644.26c0,0 -5.03,-10.58 4.5,-17.73 9.53,-7.14 25.4,9.79 17.46,23.55 -7.67,13.76 -21.96,-5.82 -21.96,-5.82z"/>
   <g>
    <path class="fil1" d="M1419.23 685.53c0,0 -6.61,-10.32 1.59,-22.75 3.97,-6.35 10.58,-6.35 15.61,-2.12 2.38,2.12 4.5,5.03 5.56,9 1.06,3.7 1.06,8.2 0,13.23 -5.29,19.58 -22.75,2.91 -22.75,2.91l-0.01 -0.27zm0 0l0 0 0 0z"/>
   </g>
   <path class="fil1" d="M1426.37 625.47c0,0 0.79,-12.44 11.38,-11.64 10.58,0.79 15.35,26.99 3.44,33.07 -11.91,6.09 -14.82,-21.43 -14.82,-21.43z"/>
   <g>
    <path class="fil1" d="M1775.09 492.65l-1.85 0c0,0 -3.18,-1.59 -3.18,-1.59 -12.96,-16.67 -64.03,-87.58 -99.22,-122.24 -20.64,-19.84 -33.34,-33.6 -41.01,-43.39 -3.7,-4.76 -6.35,-8.47 -7.67,-11.64l-1.06 -3.97 0.53 -3.18c1.85,-3.7 12.96,-17.73 28.05,-31.22 7.41,-6.88 16.14,-13.49 24.87,-18.79 4.5,-2.65 9,-5.03 13.76,-6.88 2.38,-0.79 4.5,-1.85 6.88,-2.38l3.44 -0.79 3.44 -0.79c9,-1.32 17.2,-1.85 24.87,-1.32 7.67,0.26 15.08,1.59 22.23,2.91 14.29,2.91 27.52,7.41 42.33,10.58 27.52,6.09 38.36,3.7 58.47,6.61l3.7 2.65c2.65,20.9 1.59,25.66 1.32,25.4 0,0 -1.85,3.44 -3.97,2.38 -3.7,-1.85 -9.26,-8.73 -12.96,-11.91 -5.82,-5.03 -17.99,-3.44 -2.65,12.96 7.67,8.2 16.67,16.93 23.02,24.61 3.18,3.97 5.56,7.41 6.88,10.58l0.79 2.12 0 2.12c0,0 -0.79,3.44 -0.79,3.44 -6.35,7.41 -17.2,-9.53 -28.84,-23.02 -11.64,-13.49 -27.25,-28.58 -30.43,-23.02 -3.18,5.56 15.88,25.14 27.78,36.25 11.64,10.85 26.99,28.31 23.28,34.4 -3.7,5.82 -33.87,-27.25 -43.66,-39.16 -10.32,-12.17 -30.43,-33.07 -35.45,-28.58 -5.03,4.5 23.02,31.75 39.42,48.68 7.41,7.67 16.14,18.79 23.02,26.72 7.94,9.26 13.49,15.35 10.32,19.05 -6.35,6.61 -26.19,-17.99 -42.86,-36.51 -17.2,-19.05 -39.69,-52.12 -44.45,-46.57 -4.5,5.56 -1.06,11.38 22.75,39.42 14.02,16.4 59.53,64.56 55.56,72.5 -4.5,7.14 -27.78,-20.64 -42.6,-39.95 -14.82,-19.58 -39.95,-46.3 -39.95,-46.3 0,0 -16.14,-16.93 -19.84,-13.76 -3.18,2.91 2.12,9.79 9.53,19.05 5.56,6.88 12.17,14.02 20.11,23.81 23.02,27.78 66.15,74.08 62.18,84.14 -3.97,9.79 -28.05,-17.2 -48.68,-42.33 -20.9,-25.4 -45.51,-51.59 -45.51,-51.59 0,0 -10.85,-11.64 -15.35,-7.94 -4.5,3.7 1.85,12.44 16.67,30.16 14.02,17.2 69.85,84.4 65.88,98.43 -4.5,13.76 -32.54,-28.31 -46.57,-48.95 -14.55,-20.9 -48.68,-62.97 -52.92,-58.47 -4.76,4.5 10.05,24.61 30.96,54.24 21.17,29.37 59.53,69.06 39.69,73.29l-0.26 -0.26zm0 0l0 0 0 0z"/>
   </g>
   <g>
    <path class="fil1" d="M1631.42 454.55c0,0 3.44,-7.94 -6.35,-8.47 -9.53,-0.53 -23.02,15.61 -14.29,20.37 8.73,5.03 20.37,-11.91 20.37,-12.17l0.27 0.27zm0 0l0 0 0 0z"/>
   </g>
   <path class="fil1" d="M1646.77 568.85c0,0 12.17,2.12 13.23,-7.14 1.06,-9 -23.02,-19.58 -31.22,-10.32 -8.2,9 17.99,17.46 17.99,17.46z"/>
   <g>
    <path class="fil1" d="M1715.82 514.88c0,0 -3.44,-10.58 -15.88,-7.67 -12.44,2.65 -12.7,26.46 2.91,29.37 15.35,2.65 12.96,-21.7 12.96,-21.7l0.01 0zm0 0l0 0 0 0z"/>
   </g>
   <g>
    <path class="fil1" d="M1746.25 546.63c0,0 3.44,-7.41 -5.82,-9.79 -9.26,-2.38 -21.96,11.64 -13.76,18.26 4.23,3.18 9,1.06 12.96,-1.85 3.96,-2.91 6.61,-6.61 6.61,-6.61l0.01 -0.01zm0 0l0 0 0 0z"/>
   </g>
   <path class="fil1" d="M1710 567c0,0 7.94,-7.14 -1.59,-14.55 -9.26,-7.41 -32.01,3.18 -25.93,15.08 6.09,11.91 27.52,-0.53 27.52,-0.53z"/>
   <g>
    <path class="fil1" d="M1571.36 356.66c0,0 1.32,-8.47 -8.2,-8.2 -9.53,0 -18.26,17.46 -8.73,21.96 9.53,4.5 16.67,-13.76 16.67,-13.76l0.26 0zm0 0l0 0 0 0z"/>
   </g>
   <g>
    <path class="fil1" d="M1580.36 401.9c0,0 -5.82,-5.82 -11.91,2.12 -6.35,7.94 1.32,25.14 11.64,19.58 10.05,-5.56 0.26,-21.7 0.26,-21.7l0.01 0zm0 0l0 0 0 0z"/>
   </g>
   <path class="fil1" d="M1696.77 432.59c0,0 -6.88,-7.67 -12.44,-1.06 -5.56,6.35 4.76,25.93 14.82,23.02 10.05,-2.65 -2.38,-21.96 -2.38,-21.96z"/>
   <g>
    <path class="fil1" d="M1727.47 470.96c0,0 -6.09,-9.53 -17.2,-6.88 -11.11,2.65 -5.29,23.55 10.05,26.19 15.35,2.65 6.88,-19.31 7.14,-19.31l0.01 0zm0 0l0 0 0 0z"/>
   </g>
   <path class="fil1" d="M1660.53 487.63c0,0 -1.06,-11.38 -12.17,-14.02 -11.11,-2.91 -15.88,18.52 -2.91,27.78 12.7,9.53 15.08,-13.76 15.08,-13.76z"/>
   <g>
    <path class="fil1" d="M1606.82 377.03c0,0 -7.94,-5.82 -16.14,0.26 -7.94,6.09 3.18,21.96 16.67,18.52 13.49,-3.7 -0.53,-18.79 -0.53,-18.79l0 0.01zm0 0l0 0 0 0z"/>
   </g>
   <g>
    <path class="fil1" d="M1533.26 395.02c0,0 -1.32,2.65 -1.59,6.35l0 2.91c0,0 0.53,2.91 0.53,2.91 0.53,2.12 1.59,4.23 3.7,6.09 7.67,7.41 23.28,-10.58 17.73,-24.61 -5.56,-14.29 -20.11,6.09 -20.11,6.09l-0.26 0.26zm0 0l0 0 0 0z"/>
   </g>
   <path class="fil1" d="M1541.2 452.44c0,0 5.29,10.05 16.14,7.41 11.11,-2.65 7.14,-24.87 -7.67,-27.78 -7.41,-1.32 -9.53,3.7 -9.79,9.26 -0.26,5.29 1.32,11.11 1.32,11.11z"/>
   <g>
    <path class="fil1" d="M1593.06 439.21c0,0 -4.23,-9 -11.91,-1.59 -7.67,7.41 -3.7,30.69 7.14,27.78 10.85,-3.18 4.76,-26.19 4.76,-26.19l0.01 0zm0 0l0 0 0 0z"/>
   </g>
   <g>
    <path class="fil1" d="M1689.89 467.25c0,0 -3.7,-9.26 -11.64,-0.79 -7.94,8.2 -5.03,32.81 5.56,28.84 10.58,-4.23 6.09,-27.78 6.09,-27.78l-0.01 -0.27zm0 0l0 0 0 0z"/>
   </g>
   <g>
    <path class="fil1" d="M1739.37 524.4c0,0 4.23,10.85 12.96,6.61 8.47,-4.23 5.29,-29.9 -6.61,-31.22 -11.91,-1.32 -6.61,24.87 -6.35,24.87l0 -0.26zm0 0l0 0 0 0z"/>
   </g>
   <g>
    <path class="fil1" d="M1628.25 415.92c0,0 -3.44,-10.85 -14.55,-10.05 -10.85,0.79 -10.85,23.55 3.18,28.58 14.29,5.29 11.38,-18.52 11.38,-18.52l-0.01 -0.01zm0 0l0 0 0 0z"/>
   </g>
   <g>
    <path class="fil1" d="M1612.11 540.01c0,0 10.85,-0.79 7.41,-13.76 -3.44,-12.96 -28.05,-19.84 -30.16,-5.03 -2.38,14.82 22.49,18.79 22.49,18.79l0.26 0zm0 0l0 0 0 0z"/>
   </g>
   <g>
    <path class="fil1" d="M1572.95 481.28c0,0 -7.94,-9 -14.82,-1.32 -6.88,7.67 5.29,30.69 17.2,27.25 11.91,-3.44 -2.65,-25.93 -2.65,-25.93l0.27 0zm0 0l0 0 0 0z"/>
   </g>
   <g>
    <path class="fil1" d="M1362.87 999.07c1.32,-10.05 20.64,-1.85 23.81,-14.82 3.18,-12.96 7.67,-17.2 15.61,-10.05 7.94,7.14 -2.38,21.96 -10.58,28.84 -8.2,6.88 -30.96,10.85 -29.1,-3.97l0.26 0zm0 0l0 0 0 0z"/>
   </g>
   <g>
    <path class="fil1" d="M1393.03 663.31c0,0 11.91,4.5 9.79,15.61 -2.12,11.11 -27.78,9.26 -32.54,-5.29 -2.38,-7.41 3.44,-9.79 9.79,-10.58 6.35,-0.79 13.23,0.53 13.23,0.53l-0.27 -0.27zm0 0l0 0 0 0z"/>
   </g>
   <path class="fil1" d="M1344.61 648.49c0,0 -0.79,-9.26 8.47,-11.91 9.26,-2.65 16.14,14.29 6.35,22.49 -9.53,8.2 -14.82,-10.58 -14.82,-10.58z"/>
   <g>
    <path class="fil1" d="M1407.06 614.36c0,0 -7.41,0 -6.09,-9.53 1.32,-9.53 17.73,-16.4 20.11,-5.82 2.38,10.58 -14.02,15.35 -14.02,15.08l0 0.27zm0 0l0 0 0 0z"/>
   </g>
   <g>
    <path class="fil1" d="M1375.57 564.35c0,0 3.18,-11.38 15.08,-12.44 11.91,-1.32 12.7,21.43 -1.85,29.1 -14.55,7.67 -12.96,-16.4 -12.96,-16.4l-0.27 -0.26zm0 0l0 0 0 0z"/>
   </g>
   <path class="fil1" d="M1350.96 526.25c0,0 -8.2,-3.18 -3.18,-11.64 4.76,-8.47 25.14,-7.41 24.08,3.7 -0.79,11.11 -20.9,7.94 -20.9,7.94z"/>
   <g>
    <path class="fil1" d="M1439.6 572.82c0,0 4.76,11.64 -4.76,14.02 -9.53,2.65 -25.4,-19.58 -17.46,-28.84 7.94,-9.26 22.49,14.55 22.49,14.55l-0.27 0.27zm0 0l0 0 0 0z"/>
   </g>
   <g>
    <path class="fil1" d="M1657.09 398.2c0,0 -7.94,-1.59 -8.47,8.47 -0.53,10.05 15.35,19.58 20.64,9.53 5.03,-10.32 -11.91,-17.99 -11.91,-17.99l-0.26 -0.01zm0 0l0 0 0 0z"/>
   </g>
   <path class="fil1" d="M1592.53 334.43c0,0 -10.05,0.53 -7.67,12.96 2.38,12.44 24.87,19.05 27.78,5.03 2.91,-14.02 -20.11,-17.99 -20.11,-17.99z"/>
   <g>
    <path class="fil1" d="M1618.19 496.09c0,0 6.35,-5.82 -1.06,-11.64 -7.41,-5.82 -25.14,2.38 -20.64,11.91 4.76,9.53 21.7,-0.53 21.7,-0.53l0 0.26zm0 0l0 0 0 0z"/>
   </g>
   <g>
    <path class="fil1" d="M1621.63 385.23c0,0 4.23,10.05 13.23,7.41 9,-2.65 5.82,-24.87 -6.09,-27.78 -6.09,-1.32 -7.94,3.7 -7.94,9.26 -0.26,5.56 1.06,11.38 1.06,11.38l-0.26 -0.27zm0 0l0 0 0 0z"/>
   </g>
   <g>
    <path class="fil1" d="M1660.26 432.86c0,0 -5.82,-5.82 -11.91,2.12 -6.35,7.94 1.32,25.14 11.64,19.58 10.05,-5.56 0.26,-21.7 0.26,-21.7l0.01 0zm0 0l0 0 0 0z"/>
   </g>
   <g>
    <path class="fil0" d="M177.8 2164.03l-30.69 -77.52 -1.59 -4.23c-1.59,-4.23 -3.18,-6.35 -5.03,-6.35 -0.79,0 -1.85,1.06 -3.18,3.7l-38.1 84.93c-1.59,3.7 -2.65,6.09 -2.65,7.14 0,3.44 2.91,5.03 9,5.03l5.3 0c0,0 59.27,0 59.27,0 6.61,0 9.79,-1.59 9.79,-5.03 0,-0.79 -0.26,-2.38 -1.06,-4.5l-1.06 -3.44 0 0.27zm-2.38 31.75l-70.91 0c-9.79,0 -15.61,0.79 -17.99,2.38 -2.38,1.59 -5.56,6.88 -9.53,15.61l-12.96 28.84c-5.82,13.23 -8.73,23.02 -8.73,29.37 0,6.35 1.59,10.58 4.5,13.23 2.91,2.65 9,5.03 18.26,7.14 3.97,0.79 5.82,2.38 6.09,4.5 0,2.12 -1.59,3.18 -5.56,3.18 -1.32,0 -3.7,0 -6.61,0l-18.79 -1.06c-6.35,-0.26 -13.49,-0.53 -21.7,-0.53 -3.7,0 -6.61,0 -8.73,0 -6.61,0.79 -10.32,1.06 -10.85,1.06 -3.44,0 -5.29,-1.32 -5.29,-3.7 0,-2.12 1.06,-3.44 3.44,-4.23l7.14 -2.12c2.65,-0.79 6.09,-3.97 10.58,-9.53 4.5,-5.56 8.2,-11.38 10.85,-17.46l5.82 -12.96 100.81 -223.84c1.59,-3.97 3.7,-5.82 5.56,-5.82 1.86,0 3.97,1.85 5.29,5.82l84.4 215.9 4.23 10.58c6.09,15.88 11.11,25.66 15.35,29.63 3.97,3.97 12.17,6.88 24.61,9 3.97,0.79 6.09,2.38 5.82,4.76 0,2.12 -1.85,3.18 -5.56,3.18 -1.06,0 -3.7,0 -7.41,-0.53 -6.88,-0.53 -18.79,-1.06 -36.25,-1.06 -17.46,0 -29.63,0.26 -34.13,1.32 -2.65,0.53 -4.76,0.79 -6.09,0.79 -3.44,0 -5.03,-1.32 -5.03,-3.97 0,-2.12 1.59,-3.44 4.76,-3.97l6.09 -1.32c6.61,-1.32 9.79,-5.82 9.79,-13.23 0,-6.88 -3.97,-20.64 -11.91,-41.54l-9.79 -25.93c-2.65,-7.14 -5.03,-11.38 -6.35,-12.44 -1.59,-1.06 -6.09,-1.59 -13.23,-1.59l0.01 0.54zm0 0l0 0 0 0z"/>
   </g>
   <path class="fil0" d="M177.8 2164.03l2.12 -0.79 -30.69 -77.52 -1.59 -3.97c-0.79,-2.12 -1.85,-3.97 -2.65,-5.29 -1.06,-1.32 -2.38,-2.38 -4.23,-2.65l0 2.12c0,0 0,-2.12 0,-2.12l-0.53 -0.01c0,0 -3.18,1.85 -3.18,1.85l-1.85 3.18 -38.1 84.93c-1.85,3.7 -2.65,6.09 -2.65,8.2 0,2.38 1.32,4.5 3.44,5.82 2.12,1.06 4.5,1.59 7.94,1.59l0 -2.12 0 2.12c0,0 5.29,0 5.29,0l59.27 0c3.44,0 6.09,-0.26 8.2,-1.59 2.12,-1.06 3.7,-3.18 3.7,-5.56 0,-1.32 -0.53,-2.91 -1.06,-5.29l-2.12 0.79 2.12 -0.53 -1.06 -3.44 0.01 0.01c0,0 0,0 0,0l-2.12 0.79 -2.12 0.53 1.06 3.44 0.01 0c0,0 0,0 0,0 0.53,1.85 0.79,3.44 0.79,3.7l-1.32 1.85c0,0 -3.18,1.06 -6.35,1.06l-64.3 0.01c0,0 0,0 0,0l0 0c-2.91,0 -4.76,-0.53 -5.82,-1.06l-1.06 -1.85c0,0 0.79,-2.91 2.38,-6.35l38.36 -84.93 1.32 -2.38 0.01 0c0,0 -0.53,-1.06 -0.53,-1.06l0 0.79 0.53 0c0,0 -0.53,-0.79 -0.53,-0.79l0 0.79 0 -1.32 0 1.32c0,0 0,0 0,0l0 -1.32 0 1.32c0,0 0,0 0,0l0 0 1.06 0.79c0,0 1.32,2.12 2.12,4.23l1.59 4.23 30.69 77.52 2.12 -0.79 -2.12 0.53 2.12 -0.53 -0.27 -0.25zm-2.38 31.75l0 -2.12 -70.91 0c-9.79,0 -15.88,0.53 -19.31,2.65 -3.18,2.38 -6.09,7.67 -10.32,16.67l-12.96 28.84c-5.82,13.23 -9,23.28 -9,30.43 0,6.61 1.59,11.64 5.29,15.08 3.7,3.18 10.05,5.56 19.05,7.67l0 -0.01c1.85,0.26 2.91,0.79 3.7,1.32l0.79 1.32 0.01 0.01c0,0 0,0.53 0,0.53 -0.26,0 -1.32,0.53 -3.18,0.53 -1.32,0 -3.44,0 -6.61,0l-18.79 -1.06 0 0c-6.35,-0.26 -13.49,-0.53 -21.7,-0.53 -3.7,0 -6.88,0 -9,0.26l0.01 0.01c-6.61,0.79 -10.32,1.06 -10.58,1.06l-2.65 -0.53 0 -0.79c0,-1.32 0,-1.59 1.32,-2.12l7.14 -2.12c3.7,-1.06 7.14,-4.5 11.64,-10.32 4.5,-5.56 8.2,-11.64 11.38,-17.73l0.01 0c0,0 5.82,-12.96 5.82,-12.96l100.81 -223.84c0.79,-1.85 1.59,-3.18 2.38,-3.7l1.32 -0.79 1.32 0.79c0,0 1.32,1.85 1.85,3.44l84.4 215.9 4.23 10.58c6.35,15.88 11.11,25.93 15.88,30.16 4.76,4.5 13.23,7.41 25.93,9.79l0 -2.12c0,0 0,2.12 0,2.12 1.85,0.26 2.91,0.79 3.44,1.32l0.53 1.06 0 0c0,0 2.12,0 2.12,0l-2.12 0c0,0 -0.53,0.53 -0.53,0.53l-2.91 0.53c0,0 -3.44,0 -7.41,-0.53l0 2.12c0,0 0,-2.12 0,-2.12 -6.88,-0.53 -19.05,-1.06 -36.51,-1.06 -17.46,0 -29.63,0.26 -34.4,1.32l0.01 0.01c-2.65,0.53 -4.5,0.79 -5.56,0.79l-2.38 -0.53 -0.53 -1.32 0.53 -0.79 2.65 -1.06 6.09 -1.32 -0.53 -2.12 0.53 2.12c7.41,-1.32 11.64,-7.41 11.64,-15.61 0,-7.67 -4.23,-21.43 -12.17,-42.33l-9.79 -25.93c-2.91,-7.41 -4.76,-11.38 -7.14,-13.49 -1.32,-1.06 -3.18,-1.32 -5.56,-1.59 -2.38,-0.26 -5.29,-0.53 -9,-0.53l0 4.5c3.7,0 6.35,0 8.47,0.26 2.12,0 3.44,0.79 3.44,0.79 0.53,0 3.18,4.5 5.56,11.38l9.79 25.93c7.94,20.64 11.91,34.4 11.91,40.75 0,7.14 -2.38,9.79 -7.94,11.38l-0.01 -0.02 -6.09 1.32 0.53 2.12 -0.53 -2.12c-1.85,0.26 -3.44,1.06 -4.5,1.85 -1.32,1.06 -2.12,2.65 -2.12,4.23 0,1.85 0.53,3.7 2.12,4.76 1.32,1.06 3.18,1.59 5.29,1.59 1.59,0 3.7,-0.26 6.61,-0.79l-0.53 -2.12 0 2.12c4.5,-0.79 16.14,-1.06 34.13,-1.06 17.99,0 29.37,0.26 35.98,1.06l0.01 0.01c3.7,0.26 6.35,0.53 7.67,0.53 1.85,0 3.7,0 5.03,-1.06 1.59,-0.79 2.38,-2.38 2.65,-4.23l0 0c0,-2.12 -0.79,-3.97 -2.38,-5.03 -1.32,-1.06 -3.18,-1.85 -5.29,-2.12l0 0c-12.17,-2.12 -20.11,-5.29 -23.55,-8.47 -3.44,-3.18 -8.73,-12.96 -14.82,-28.84l-4.23 -10.58 -84.14 -215.9c-0.79,-2.12 -1.59,-3.7 -2.91,-5.03 -1.06,-1.32 -2.65,-2.12 -4.5,-2.12 -1.85,0 -3.44,0.79 -4.5,2.12 -1.06,1.33 -2.12,2.91 -3.18,5.03l-100.81 223.84 -5.56 12.96 1.85 0.79 -1.85 -0.79c-2.91,5.82 -6.35,11.64 -10.58,16.93 -4.23,5.56 -7.94,8.47 -9.53,8.73l-7.14 2.12c-2.91,0.79 -5.03,3.44 -4.76,6.35 0,1.85 0.79,3.44 2.38,4.5 1.59,1.06 3.18,1.32 5.29,1.32 1.06,0 4.5,-0.26 11.11,-1.06l0 -2.12c0,0 0,2.12 0,2.12 1.85,0 4.76,0 8.47,0 8.2,0 15.35,0 21.7,0.53l0 -2.12c0,0 0,2.12 0,2.12l18.79 1.06c2.91,0 5.29,0 6.88,0 2.12,0 3.7,0 5.29,-1.06 1.59,-0.79 2.65,-2.38 2.38,-4.23l0.01 0c0,-2.12 -1.06,-3.7 -2.38,-4.76 -1.32,-1.06 -3.18,-1.59 -5.29,-2.12l-0.53 2.12 0.53 -2.12c-8.73,-1.85 -14.55,-4.23 -17.2,-6.61 -2.38,-2.12 -3.97,-5.82 -3.97,-11.64 0,-5.82 2.65,-15.61 8.47,-28.58l12.96 -28.84c3.7,-8.73 7.14,-14.02 8.73,-14.82 1.32,-1.06 7.41,-2.12 16.93,-1.85l70.91 0.01 0 -2.12 -1.32 -0.79z"/>
   <g>
    <path class="fil0" d="M632.36 2053.17l6.35 47.1 0.53 5.03 -0.53 1.85 -2.91 1.85c-1.59,0 -3.97,-2.65 -7.14,-8.2 -24.34,-42.86 -57.68,-64.03 -99.48,-64.03 -33.34,0 -59.53,10.32 -78.85,30.69 -19.31,20.37 -28.84,48.42 -28.84,83.87 0,40.75 10.58,74.35 32.01,100.01 21.43,25.93 48.95,38.89 82.55,38.89 19.58,0 38.89,-5.29 57.94,-15.61 19.05,-10.58 32.01,-23.28 39.42,-38.1 3.44,-6.88 6.09,-10.58 7.94,-10.58 2.12,0 3.18,1.06 3.18,3.7l0 2.12c0,0 -1.06,4.23 -1.06,4.23l-4.5 24.08 -0.79 3.44c-0.53,3.44 -3.7,6.88 -9.26,10.58 -30.16,19.31 -63.5,28.84 -99.75,28.84 -42.07,0 -75.94,-12.44 -101.6,-37.31 -25.66,-24.87 -38.63,-57.94 -38.63,-98.43 0,-40.49 13.23,-74.61 39.95,-101.6 26.72,-26.99 60.06,-40.48 100.28,-40.48 27.52,0 52.92,6.09 75.94,18.52l7.94 4.23 3.18 1.32 3.44 1.06 2.91 -1.59c2.91,-2.12 4.76,-3.18 5.82,-3.18 2.12,0 3.44,2.38 4.23,7.41l-0.27 0.29zm0 0l0 0 0 0z"/>
   </g>
   <path class="fil0" d="M632.36 2053.17l-2.12 0c0,0 6.35,47.36 6.35,47.36l0.53 4.5 0 0.79c0,0 -2.65,1.59 -2.65,1.59l1.32 1.85 0 -2.12c0,0 0,0 0,0l0 0c0,0 0,0 0,0l0 0c0,0 0,0 0,0l0 -0.53c0,0 0,0 0,0l0 0.53 0 -0.53c0,0 -2.65,-2.38 -5.03,-7.14 -24.61,-43.13 -58.74,-65.35 -101.34,-65.35 -33.87,0 -60.85,10.32 -80.43,31.49 -19.58,20.9 -29.37,49.48 -29.37,85.46 0,41.28 10.85,75.14 32.54,101.6 21.7,26.46 50.01,39.69 84.14,39.69 20.11,0 39.69,-5.29 59,-15.88 19.31,-10.58 32.81,-23.55 40.22,-39.16 1.59,-3.44 3.18,-5.82 4.23,-7.41l1.59 -1.59 0.28 0c0,0 0,-0.26 0,-0.26l0 -0.53c0,0 0,0.53 0,0.53l0 -0.01c0,0 0,-0.53 0,-0.53l0 0.53 0.52 0c0,0 0,1.59 0,1.59l2.12 0 -2.12 0c0,0 0,1.85 0,1.85l-0.79 4.23 -4.5 24.08 -0.79 3.44 0 0c-0.26,2.38 -2.91,5.82 -8.2,9.26 -29.9,19.05 -62.71,28.58 -98.69,28.58 -41.54,0 -74.88,-12.17 -100.28,-36.78 -25.4,-24.61 -37.84,-56.62 -37.84,-96.84 0,-40.22 13.23,-73.55 39.42,-100.01 26.19,-26.46 59,-39.69 98.69,-39.69 27.25,0 52.12,6.09 75.14,18.26l7.94 4.23 0.01 0c0,0 3.18,1.59 3.18,1.59l-0.01 0c0,0 3.44,1.32 3.44,1.32l0.8 0.01c0,0 3.7,-1.85 3.7,-1.85l0 -0.01c0,0 0,0 0,0l3.44 -2.12 1.06 -0.53 0 0.01c0,0 0.79,0.79 0.79,0.79 0.53,0.79 1.06,2.38 1.32,4.76l2.12 0c0,0 2.12,-0.53 2.12,-0.53 -0.26,-2.65 -0.79,-4.76 -1.85,-6.35 -0.79,-1.59 -2.38,-2.91 -4.5,-2.91 -2.38,0 -3.97,1.32 -7.14,3.44l1.32 1.85 -1.06 -1.85 -2.12 1.06 -2.38 -0.79 -2.91 -1.32 -7.67 -3.97c-23.55,-12.7 -49.21,-18.79 -76.99,-18.79 -40.75,0 -74.88,13.76 -101.86,41.01 -26.99,27.25 -40.75,61.91 -40.75,103.19 0,41.28 12.96,74.61 39.16,100.01 26.19,25.4 60.85,38.1 103.19,38.1 36.78,0 70.38,-9.79 100.81,-29.1 5.82,-3.7 9.53,-7.67 10.32,-12.17l-2.13 0c0,0 2.12,0 2.12,0l0.79 -3.44 0 0c0,0 4.5,-24.08 4.5,-24.08l0.79 -4.23 0 0c0,0 0,-2.38 0,-2.38l0 0c0,0 -1.06,-4.23 -1.06,-4.23l-3.97 -1.85 -0.53 -0.01c-2.38,0.26 -3.44,1.85 -5.03,3.7 -1.32,1.85 -2.91,4.76 -4.76,8.2 -7.14,14.55 -19.84,26.72 -38.63,37.31 -18.79,10.32 -37.57,15.35 -56.89,15.35 -33.07,0 -59.8,-12.7 -80.7,-38.1 -20.9,-25.4 -31.49,-58.21 -31.49,-98.69 0,-35.19 9.53,-62.44 28.31,-82.55 18.79,-20.11 44.45,-29.9 77.26,-29.9 41.01,0 73.29,20.64 97.63,62.97 1.59,2.65 2.91,5.03 4.23,6.35 1.32,1.59 2.38,2.65 4.5,2.91l0.81 0c0,0 3.44,-2.38 3.44,-2.38l0.53 -0.53 0.79 -2.65 0 -0.53c0,0 -0.53,-5.29 -0.53,-5.29l-6.35 -47.1 -2.11 0.01 1.06 -0.79z"/>
   <g>
    <path class="fil0" d="M928.16 2164.03l-30.69 -77.52 -1.59 -4.23c-1.59,-4.23 -3.18,-6.35 -5.03,-6.35 -0.79,0 -1.85,1.06 -3.18,3.7l-38.36 84.93c-1.59,3.7 -2.65,6.09 -2.65,7.14 0,3.44 2.91,5.03 9,5.03l5.3 0c0,0 59.27,0 59.27,0 6.61,0 9.79,-1.59 9.79,-5.03 0,-0.79 -0.26,-2.38 -1.06,-4.5l-1.06 -3.44 0.26 0.27zm-2.12 31.75l-70.91 0c-9.79,0 -15.61,0.79 -17.99,2.38 -2.38,1.59 -5.56,6.88 -9.53,15.61l-12.96 28.84c-5.82,13.23 -8.73,23.02 -8.73,29.37 0,6.35 1.59,10.58 4.5,13.23 3.18,2.65 9,5.03 18.26,7.14 3.97,0.79 5.82,2.38 6.09,4.5 0,2.12 -1.59,3.18 -5.56,3.18 -1.32,0 -3.7,0 -6.61,0l-18.79 -1.06c-6.35,-0.26 -13.49,-0.53 -21.7,-0.53 -3.7,0 -6.61,0 -8.73,0 -6.61,0.79 -10.32,1.06 -10.85,1.06 -3.44,0 -5.29,-1.32 -5.29,-3.7 0,-2.12 1.06,-3.44 3.44,-4.23l7.14 -2.12c2.65,-0.79 6.09,-3.97 10.58,-9.53 4.5,-5.56 8.2,-11.38 10.85,-17.46l5.56 -12.96 100.81 -223.84c1.59,-3.97 3.7,-5.82 5.82,-5.82 2.12,0 3.97,1.85 5.29,5.82l84.4 215.9 4.23 10.58c6.09,15.88 11.11,25.66 15.35,29.63 3.97,3.97 12.17,6.88 24.61,9 3.97,0.79 6.09,2.38 5.82,4.76 0,2.12 -1.85,3.18 -5.56,3.18 -1.06,0 -3.7,0 -7.41,-0.53 -6.88,-0.53 -18.79,-1.06 -36.25,-1.06 -17.46,0 -29.63,0.26 -34.13,1.32 -2.65,0.53 -4.76,0.79 -6.09,0.79 -3.44,0 -5.03,-1.32 -5.03,-3.97 0,-2.12 1.59,-3.44 5.03,-3.97l6.09 -1.32c6.61,-1.32 9.79,-5.82 9.79,-13.23 0,-6.88 -3.97,-20.64 -11.91,-41.54l-9.79 -25.93c-2.65,-7.14 -5.03,-11.38 -6.35,-12.44 -1.59,-1.06 -6.09,-1.59 -13.23,-1.59l-0.26 0.54zm0 0l0 0 0 0z"/>
   </g>
   <path class="fil0" d="M928.16 2164.03l2.12 -0.79 -30.69 -77.52 -1.59 -3.97c-0.79,-2.12 -1.59,-3.97 -2.65,-5.29 -1.06,-1.32 -2.38,-2.38 -4.23,-2.65l0 2.12c0,0 0,-2.12 0,-2.12l-0.53 -0.01c0,0 -3.18,1.85 -3.18,1.85l-1.85 3.18 -38.36 84.93c-1.59,3.7 -2.65,6.09 -2.65,8.2 0,2.38 1.32,4.5 3.44,5.82 2.12,1.06 4.5,1.59 7.94,1.59l0 -2.12 0 2.12c0,0 5.29,0 5.29,0l59.27 0c3.44,0 6.09,-0.26 8.2,-1.59 2.12,-1.06 3.7,-3.18 3.7,-5.56 0,-1.32 -0.53,-2.91 -1.06,-5.29l-2.12 0.79 2.12 -0.53 -1.06 -3.44 0.01 0.01c0,0 0,0 0,0l-2.12 0.79 -2.12 0.53 1.06 3.44 0 0c0.53,2.12 0.79,3.44 0.79,3.97l-1.32 1.85c0,0 -3.18,1.06 -6.35,1.06l-64.29 0c0,0 0,0 0,0l0 0c-2.91,0 -4.76,-0.53 -5.56,-1.06l-1.06 -1.85c0,0 0.79,-2.91 2.38,-6.35l38.36 -84.93 1.32 -2.38 0.01 0c0,0 -0.53,-1.06 -0.53,-1.06l0 0.79 0.53 0.01c0,0 -0.53,-0.79 -0.53,-0.79l0 0.79 0 -1.32 0 1.32c0,0 0,0 0,0l0 -1.32 0 1.32c0,0 0,0 0,0l0 0 1.06 0.79c0,0 1.32,2.12 2.12,4.23l1.59 4.23 30.69 77.52 2.12 -0.79 -2.12 0.53 2.12 -0.53 -0.27 -0.52zm-2.12 31.75l0 -2.12 -70.91 0c-9.79,0 -15.88,0.53 -19.31,2.65 -3.18,2.38 -6.09,7.67 -10.32,16.67l-12.96 28.84c-5.82,13.23 -9,23.28 -9,30.43 0,6.61 1.59,11.64 5.29,15.08 3.7,3.18 10.05,5.56 19.05,7.67l0 -0.01c1.85,0.26 2.91,0.79 3.7,1.32l0.79 1.32 0.01 0.01c0,0 0,0.53 0,0.53 -0.26,0 -1.32,0.53 -3.18,0.53 -1.32,0 -3.44,0 -6.61,0l-18.79 -1.06c-6.35,-0.26 -13.49,-0.53 -21.7,-0.53 -3.7,0 -6.88,0 -9,0.26l0.01 0.01c-6.61,0.79 -10.32,1.06 -10.58,1.06l-2.65 -0.53 0 -0.79c0,-1.32 0,-1.59 1.32,-2.12l7.14 -2.12c3.7,-1.06 7.14,-4.5 11.64,-10.32 4.5,-5.56 8.2,-11.64 11.11,-17.73l0.02 0c0,0 5.82,-12.96 5.82,-12.96l100.81 -223.84c0.79,-1.85 1.59,-3.18 2.38,-3.7l1.32 -0.79 1.32 0.79c0,0 1.32,1.85 1.85,3.44l84.4 215.9 4.23 10.58c6.35,15.88 11.11,25.93 15.88,30.16 4.76,4.5 13.23,7.41 25.93,9.79 1.85,0.26 2.91,0.79 3.44,1.32l0.53 1.06 0 0c0,0 2.12,0 2.12,0l-2.12 0c0,0 -0.53,0.53 -0.53,0.53l-2.91 0.53c0,0 -3.44,0 -7.41,-0.53l0 2.12c0,0 0,-2.12 0,-2.12 -6.88,-0.53 -19.05,-1.06 -36.51,-1.06 -17.46,0 -29.63,0.26 -34.4,1.32l0 0.01c-2.65,0.53 -4.5,0.79 -5.56,0.79l-2.38 -0.53 -0.53 -1.32 0.53 -0.79 2.65 -1.06 0 0c0,0 6.09,-1.32 6.09,-1.32l-0.53 -2.12 0.53 2.12c7.41,-1.32 11.64,-7.41 11.64,-15.61 0,-7.67 -4.23,-21.43 -12.17,-42.33l-9.79 -25.93c-2.91,-7.41 -4.76,-11.38 -7.14,-13.49 -1.32,-1.06 -3.18,-1.32 -5.56,-1.59 -2.38,-0.26 -5.29,-0.53 -9,-0.53l0 4.5c3.7,0 6.35,0 8.47,0.26 2.12,0 3.44,0.79 3.44,0.79 0.53,0 3.18,4.5 5.82,11.38l9.79 25.93c7.94,20.64 11.91,34.4 11.91,40.75 0,7.14 -2.38,9.79 -7.94,11.38l0 -0.02 -6.09 1.32 0.53 2.12 -0.53 -2.12c-1.85,0.26 -3.44,1.06 -4.76,1.85 -1.32,1.06 -2.12,2.65 -2.12,4.23 0,1.85 0.79,3.7 2.12,4.76 1.32,1.06 3.18,1.59 5.29,1.59 1.59,0 3.7,-0.26 6.35,-0.79l-0.53 -2.12 0 2.12c4.5,-0.79 15.88,-1.06 34.13,-1.06 18.25,0 29.37,0.26 35.98,1.06l0.01 0.01c3.7,0.26 6.35,0.53 7.67,0.53 2.12,0 3.7,0 5.03,-1.06 1.59,-0.79 2.38,-2.38 2.65,-4.23l-0.01 0c0,-2.12 -0.79,-3.97 -2.38,-5.03 -1.32,-1.06 -3.18,-1.59 -5.29,-2.12 -12.17,-2.12 -20.11,-5.29 -23.55,-8.47 -3.44,-3.18 -8.73,-12.96 -14.82,-28.84l-4.23 -10.58 -84.14 -215.9c-0.79,-2.12 -1.59,-3.7 -2.91,-5.03 -1.06,-1.32 -2.65,-2.12 -4.5,-2.12 -1.85,0 -3.44,0.79 -4.5,2.12 -1.32,1.32 -2.12,2.91 -3.18,5.03l-100.81 223.84 -5.56 12.96 2.12 0.79 -1.85 -0.79c-2.91,5.82 -6.35,11.64 -10.58,16.93 -4.23,5.56 -7.94,8.47 -9.53,8.73l-7.14 2.12c-2.91,0.79 -5.03,3.44 -4.76,6.35 0,1.85 0.79,3.44 2.38,4.5 1.59,1.06 3.18,1.32 5.29,1.32 1.06,0 4.5,-0.26 11.11,-1.06l0 -2.12c0,0 0,2.12 0,2.12 1.85,0 4.76,0 8.73,0 8.2,0 15.35,0 21.7,0.53l18.79 1.06c2.91,0 5.29,0 6.88,0 2.12,0 3.7,0 5.29,-1.06 1.59,-0.79 2.65,-2.65 2.38,-4.23l0.01 0c0,-2.12 -1.06,-3.7 -2.38,-4.76 -1.32,-1.06 -3.18,-1.59 -5.29,-2.12l-0.53 2.12 0.53 -2.12c-8.73,-1.85 -14.55,-4.23 -17.2,-6.61 -2.38,-2.12 -3.97,-5.82 -3.97,-11.64 0,-5.82 2.65,-15.61 8.47,-28.58l12.96 -28.84c3.7,-8.73 7.14,-14.02 8.73,-14.82 1.32,-1.06 7.41,-2.12 16.93,-1.85l70.92 0.01 0 -2.12 -1.33 -0.79z"/>
   <g>
    <path class="fil0" d="M1222.38 2061.63l0 201.88c0,7.94 3.97,13.49 11.91,16.4 6.88,2.65 15.88,5.03 26.46,6.88 10.85,1.85 19.84,2.91 27.25,2.91 22.23,0 42.33,-5.56 60.33,-16.93 30.16,-18.79 45.51,-50.8 45.51,-95.78 0,-24.61 -4.76,-47.1 -14.29,-67.73 -9.53,-20.64 -22.49,-36.78 -39.16,-48.42 -20.11,-14.55 -44.71,-21.7 -73.82,-21.7 -20.64,0 -33.87,2.12 -39.42,6.61 -3.44,2.65 -5.03,7.94 -5.03,16.14l0.26 -0.26zm-30.17 15.61c0,-13.23 -2.12,-22.75 -6.61,-29.1 -4.5,-6.09 -11.91,-9.79 -22.23,-10.85 -4.23,-0.26 -6.35,-1.85 -6.35,-3.97 0,-2.65 1.59,-3.7 5.03,-3.7l15.35 0.79c1.59,0 6.09,0 13.76,0 13.23,0 23.55,-0.26 30.69,-1.06l18.26 -1.85c7.94,-0.53 16.4,-1.06 25.93,-1.06 53.45,0 93.66,13.49 120.65,40.48 24.34,24.61 36.51,56.09 36.51,94.19 0,24.61 -5.29,47.36 -16.14,68 -10.58,20.64 -25.66,37.04 -44.71,48.95 -24.08,15.08 -50.27,22.49 -78.85,22.49 -3.44,0 -9.53,-0.26 -17.99,-1.06 -17.46,-1.06 -32.81,-1.85 -45.77,-1.85 -14.02,0 -26.19,0.79 -36.51,2.12 -4.76,0.79 -8.47,1.06 -11.11,1.06 -4.5,0.26 -6.88,-1.32 -6.88,-4.5 0,-2.12 1.85,-3.7 5.56,-4.5 9,-1.85 14.55,-5.03 17.2,-9.79 2.65,-4.76 3.97,-14.29 3.97,-28.84l0 -176.74 0.24 0.79z"/>
   </g>
   <path class="fil0" d="M1222.38 2061.63l-2.12 0 0 201.88c0,8.73 4.76,15.35 13.23,18.52 7.14,2.65 16.14,5.03 26.99,6.88 10.85,2.12 20.11,2.91 27.78,2.91 22.75,0 43.13,-5.82 61.38,-17.2 30.96,-19.31 46.57,-52.12 46.3,-97.63 0,-24.87 -4.76,-47.63 -14.29,-68.53 -9.53,-20.9 -22.75,-37.31 -39.69,-49.48 -20.64,-14.82 -45.77,-22.23 -75.14,-22.23 -20.9,0 -34.13,2.12 -40.75,7.14 -4.23,3.44 -5.82,9.53 -5.82,17.73l4.51 0.01c0,-7.94 1.85,-12.44 4.23,-14.29 4.5,-3.7 17.46,-6.35 38.1,-6.09 28.58,0 52.65,7.14 72.5,21.43 16.14,11.64 29.1,27.25 38.36,47.63 9.26,20.37 14.02,42.6 14.02,66.94 0,44.71 -14.82,75.67 -44.45,93.93 -17.46,11.11 -37.31,16.4 -59.27,16.4 -7.14,0 -16.14,-1.06 -26.99,-2.91 -10.58,-1.85 -19.31,-4.23 -26.19,-6.88 -7.41,-2.91 -10.32,-7.14 -10.58,-14.29l0 -201.88 -2.11 0.01zm-30.17 15.61l2.12 0c0,-13.49 -2.12,-23.55 -7.14,-30.16 -4.76,-6.88 -12.96,-10.58 -23.81,-11.64l-0.01 0 0 0c-1.85,0 -3.18,-0.53 -3.97,-1.06l-0.53 -0.79 0 -1.06c0,0 2.91,-0.53 2.91,-0.53l0 -2.12 0 2.12c0,0 15.35,0.79 15.35,0.79l0 -2.12c0,0 0,2.12 0,2.12 1.85,0 6.35,0 14.02,0 13.23,0 23.55,-0.26 30.96,-1.06l18.26 -1.85 0 -2.12c0,0 0,2.12 0,2.12 7.67,-0.79 16.4,-1.06 25.66,-1.06 53.18,0 92.87,13.23 119.06,39.69 24.08,24.08 35.98,55.03 35.98,92.87 0,24.34 -5.29,46.57 -15.88,66.94 -10.59,20.37 -25.14,36.25 -43.92,47.89 -23.81,14.82 -49.48,22.23 -77.52,22.23 -3.18,0 -9.26,-0.26 -17.73,-1.06 -17.46,-1.06 -32.81,-1.85 -45.77,-1.85 -14.02,0 -26.19,0.79 -36.78,2.12 -4.76,0.53 -8.47,1.06 -10.85,1.06l-0.78 -0.01c-1.59,0 -2.65,-0.26 -3.18,-0.53l-0.53 -1.59 0.53 -1.06c0,0 1.59,-0.79 3.18,-1.32 9.26,-1.85 15.61,-5.29 18.79,-10.85 2.91,-5.56 4.23,-15.35 4.23,-29.9l0 -176.74 -4.23 0 0 176.74c0,14.29 -1.32,23.81 -3.7,27.78 -2.12,3.97 -7.14,6.88 -15.88,8.73 -2.12,0.53 -3.7,1.06 -5.03,2.12 -1.32,1.06 -2.12,2.65 -2.12,4.5 0,1.85 0.79,3.97 2.38,5.03 1.59,1.06 3.44,1.59 5.82,1.59l1.06 0c0,0 0,-2.12 0,-2.12l0 2.12c2.91,0 6.61,-0.53 11.38,-1.06 10.32,-1.32 22.23,-2.12 36.25,-2.12 12.96,0 28.05,0.53 45.51,1.85 8.73,0.79 14.55,1.06 18.26,1.06 28.84,0 55.56,-7.67 79.9,-22.75 19.31,-12.17 34.66,-28.58 45.51,-49.74 10.85,-20.9 16.4,-43.92 16.4,-69.06 0,-38.63 -12.44,-70.91 -37.31,-95.78 -27.25,-27.52 -68.26,-41.01 -121.97,-41.01 -9.53,0 -18.26,0.26 -25.93,1.06l-18.26 1.85c-7.14,0.53 -17.46,1.06 -30.69,1.06 -7.41,0 -12.17,0 -13.49,0l0 0 -15.61 -0.79 0 0c-1.85,0 -3.7,0.26 -5.03,1.32 -1.59,1.06 -2.12,2.91 -2.12,4.5 0,1.85 1.06,3.7 2.65,4.5 1.59,1.06 3.44,1.32 5.82,1.59l0 -2.12c0,0 0,2.12 0,2.12 10.05,1.06 16.67,4.5 20.64,9.79 3.97,5.56 6.35,14.82 6.35,27.78l2.12 -0.01 -1.33 0z"/>
   <g>
    <path class="fil0" d="M1628.51 2061.1l0 79.11c0,6.09 0.53,9.79 1.59,10.85 1.06,1.32 4.5,1.85 10.05,1.85l30.17 0c13.76,0 24.61,-0.79 32.54,-2.38 7.14,-1.32 11.64,-3.18 13.76,-5.56 2.12,-2.38 3.97,-7.94 5.56,-16.4 0.79,-3.18 2.38,-4.76 5.03,-4.76 2.65,0 3.7,1.85 3.7,5.29 0,0.79 0,2.38 0,4.23 -1.06,12.7 -1.85,24.08 -1.85,34.66 0,7.94 0.53,15.88 1.06,23.55 0,2.65 0.26,4.5 0.26,5.56 0,3.18 -1.32,5.03 -3.7,5.03 -2.91,0 -4.5,-1.59 -5.03,-4.23l-1.06 -5.56c-1.59,-8.73 -4.76,-14.82 -9.53,-17.73 -4.76,-3.18 -12.7,-4.76 -23.81,-4.76l-43.13 0c-6.35,0 -10.58,0.53 -12.7,1.85 -2.12,1.32 -3.18,3.97 -3.18,7.94l0 6.61c0,0 0,72.23 0,72.23 0,11.11 1.85,17.99 6.09,20.9 3.97,2.65 14.02,3.97 30.16,3.97 51.33,0 84.14,-11.64 98.69,-34.66 1.59,-2.12 2.91,-3.44 4.5,-3.44 2.38,0 3.7,1.59 3.7,5.03 0,8.47 -4.76,18.52 -14.29,30.16 -11.38,14.02 -25.93,21.17 -43.66,21.17 -3.7,0 -9,-0.26 -15.35,-0.79 -24.87,-2.38 -45.51,-3.44 -61.91,-3.44 -22.75,0 -38.89,0.79 -48.42,2.38 -5.03,0.79 -8.47,1.32 -10.05,1.32 -4.23,0 -6.35,-1.32 -6.35,-4.23 0,-2.12 1.59,-3.7 5.03,-4.5l7.41 -2.12c9.53,-2.65 14.02,-11.64 14.02,-27.52l0 -12.7c0,0 0,-165.89 0,-165.89 0,-18.79 -2.12,-31.22 -6.09,-37.84 -4.23,-6.35 -12.17,-9.79 -24.08,-9.79 -3.7,0 -5.56,-1.32 -5.56,-3.7 0,-3.44 2.91,-5.29 8.73,-5.29 3.18,0 7.67,0.26 13.23,1.06 18.79,2.12 41.01,3.18 67.47,3.18 15.88,0 30.16,0 42.33,-0.79l27.78 -1.32c7.67,0 12.44,-0.53 14.02,-0.79 3.44,-0.53 6.09,-0.79 7.94,-0.79 4.23,0 6.35,1.85 6.35,5.56 0,1.06 0,2.65 -0.53,4.5 -0.53,1.85 -0.79,6.88 -1.59,15.61l-0.79 11.64c-0.79,7.67 -1.32,12.17 -2.12,14.29 -0.79,1.85 -2.12,2.91 -4.5,2.91 -2.65,0 -3.7,-1.85 -3.7,-5.82l0 -5.03c0,-4.23 -0.79,-8.2 -2.38,-11.91 -2.38,-5.82 -7.41,-9.79 -15.08,-11.64 -7.67,-1.85 -21.43,-2.91 -41.8,-2.91l-30.67 -0.02c-8.2,0 -13.23,1.06 -15.61,3.18 -2.38,2.12 -3.44,6.61 -3.44,13.49l0.79 -0.8zm0 0l0 0 0 0z"/>
   </g>
   <path class="fil0" d="M1628.51 2061.1l-2.12 0 0 79.11c0,6.35 0,9.79 2.12,12.44 2.38,2.38 5.82,2.38 11.64,2.65l30.17 -0.01c13.76,0 24.87,-0.79 33.07,-2.38 7.14,-1.59 12.17,-3.44 14.82,-6.35 2.65,-3.18 4.5,-8.73 6.09,-17.46l1.06 -2.38 1.59 -0.53 -0.01 0c0,0 0,0 0,0l1.32 0.53 0.53 2.65c0,0 0,2.12 0,4.23 -1.06,12.7 -1.85,24.34 -1.85,34.66 0,7.94 0.26,15.88 1.06,23.81 0,2.65 0.26,4.5 0.26,5.56l-0.53 2.38 -1.06 0c-1.85,0 -2.38,0 -2.91,-2.12l0 0c0,0 -1.06,-5.56 -1.06,-5.56l-2.12 0.53 2.12 -0.53c-1.59,-9 -5.03,-15.61 -10.32,-19.31 -5.29,-3.44 -13.76,-5.03 -25.14,-5.03l-43.12 0c-6.61,0 -10.85,0.53 -14.02,2.38 -3.18,1.85 -4.23,5.56 -4.23,9.79l0 0.01c0,0 0,6.61 0,6.61l2.11 0c0,0 -2.12,0 -2.12,0l0 72.23c0,11.38 1.85,18.79 6.88,22.49 5.03,3.18 15.08,4.5 31.49,4.5 51.59,0 85.2,-11.64 100.54,-35.72l-1.85 -1.06 1.85 1.32c1.32,-2.12 2.38,-2.65 2.91,-2.65l0 -2.12c0,0 0,2.12 0,2.12l0.8 0.01c0,0 0.53,2.91 0.53,2.91 0,7.67 -4.5,17.46 -13.76,28.84 -11.11,13.49 -24.87,20.37 -41.8,20.37 -3.7,0 -8.73,0 -15.08,-0.79 -24.87,-2.38 -45.77,-3.44 -62.18,-3.44 -23.02,0 -39.16,0.79 -48.68,2.38l-0.01 0c-4.76,0.79 -8.2,1.32 -9.79,1.32 -1.85,0 -2.91,-0.26 -3.44,-0.79l-0.53 -1.32 0.53 -1.06 2.91 -1.32 0 -0.01c0,0 7.41,-2.12 7.41,-2.12 5.29,-1.32 9.26,-4.76 11.91,-9.79 2.65,-5.03 3.7,-11.64 3.7,-19.58l0 -12.7c0,0 0,-165.89 0,-165.89 0,-18.79 -1.85,-31.75 -6.61,-38.89 -4.76,-7.41 -13.76,-10.85 -25.93,-10.85 -1.59,0 -2.65,-0.26 -3.18,-0.53l-0.53 -0.79 1.06 -2.12c0,0 2.65,-1.06 5.56,-1.06 3.18,0 7.41,0.26 12.96,1.06 18.79,2.12 41.28,3.18 67.73,3.18 15.88,0 30.16,0 42.33,-0.79l27.78 -1.32 0 -2.12c0,0 0,2.12 0,2.12 7.67,0 12.44,-0.53 14.29,-0.79 3.44,-0.53 6.09,-0.79 7.41,-0.79 1.85,0 2.91,0.53 3.44,0.79l0.79 2.65c0,0 0,2.38 -0.53,3.97 -0.53,2.12 -1.06,7.14 -1.59,15.88l-0.79 11.64c-0.53,7.41 -1.32,12.17 -1.85,13.49 -0.53,1.06 -0.79,1.32 -2.38,1.59l0 2.12c0,0 0,-2.12 0,-2.12l0.01 -0.02 -0.79 -0.53c0,0 -0.53,-1.59 -0.53,-3.18l0 -5.03c0,-4.5 -0.79,-8.73 -2.65,-12.7 -2.65,-6.61 -8.47,-11.11 -16.4,-12.96 -7.94,-2.12 -21.96,-2.91 -42.33,-2.91l-30.7 0c-8.2,0 -13.76,0.79 -17.2,3.44 -3.18,2.91 -4.23,7.94 -4.23,15.08l4.23 0.01c0,-6.61 1.32,-10.58 2.65,-11.91 1.32,-1.32 6.35,-2.65 14.29,-2.38l30.68 0c20.11,0 33.87,1.06 41.01,2.91 7.14,1.85 11.38,5.29 13.49,10.58 1.59,3.44 2.12,7.14 2.12,11.11l0 5.03c0,2.12 0.26,3.97 1.32,5.56 0.79,1.59 2.65,2.65 4.5,2.65l0.27 -0.01c2.91,0 5.56,-1.85 6.35,-4.5 0.79,-2.38 1.32,-7.14 2.12,-14.82l0.79 -11.64c0.53,-8.47 1.06,-13.76 1.59,-15.35 0.53,-1.85 0.53,-3.44 0.53,-5.03 0,-2.38 -0.79,-4.5 -2.38,-5.82 -1.59,-1.32 -3.7,-1.85 -6.35,-1.85 -1.85,0 -4.5,0 -8.2,0.79 -1.32,0 -6.35,0.53 -13.76,0.79l0 0.02 -27.78 1.32c-12.17,0.53 -26.19,0.79 -42.33,0.79 -26.19,0 -48.68,-1.06 -67.2,-3.18 -5.56,-0.53 -10.05,-1.06 -13.49,-1.06 -3.18,0 -5.82,0.53 -7.67,1.59 -2.12,1.32 -3.44,3.44 -3.18,5.82 0,1.85 0.79,3.7 2.38,4.5 1.59,1.06 3.44,1.32 5.29,1.32 11.64,0 18.52,3.18 22.23,8.73 3.7,5.56 5.82,17.99 5.82,36.51l0 178.59c0,7.67 -1.32,13.49 -3.44,17.73 -2.12,4.23 -5.03,6.61 -9.26,7.67l-7.41 2.12 0.53 2.12 -0.53 -2.12c-1.85,0.53 -3.44,1.06 -4.76,2.38 -1.32,1.06 -2.12,2.65 -2.12,4.5 0,1.85 0.79,3.97 2.65,5.03 1.59,1.06 3.7,1.32 5.82,1.32 2.12,0 5.56,-0.53 10.58,-1.32l-0.53 -2.12 0 2.12c9.53,-1.59 25.66,-2.38 48.42,-2.38 16.14,0 36.78,1.06 61.65,3.44 6.35,0.53 11.64,0.79 15.61,0.79 17.99,0 33.34,-7.41 45.24,-21.96 9.79,-11.91 14.82,-22.23 14.82,-31.75 0,-1.85 -0.26,-3.44 -1.06,-5.03 -0.79,-1.59 -2.65,-2.38 -4.23,-2.38l-0.28 0.02c0,0 0,0 0,0l0 0c-2.65,0.26 -4.5,2.12 -6.09,4.5l0 -0.01c-13.76,22.23 -46.04,33.87 -97.1,33.87 -15.88,0 -26.19,-1.59 -29.1,-3.7 -2.91,-1.85 -5.03,-8.2 -5.03,-19.05l0 -78.85c0,0 -2.38,0 -2.38,0l2.12 0c0,-3.7 1.06,-5.29 2.12,-6.09 1.32,-0.79 5.56,-1.59 11.64,-1.59l43.12 0.01c11.11,0 18.79,1.59 22.75,4.23 3.97,2.65 6.88,7.94 8.47,16.4l0 0c0,0 1.06,5.56 1.06,5.56l2.12 -0.53 -2.12 0.53c0.53,3.7 3.44,6.35 7.14,6.09 1.85,0 3.44,-0.53 4.5,-2.12 1.06,-1.59 1.32,-3.18 1.32,-5.03 0,-1.32 0,-3.18 -0.26,-5.82 -0.79,-7.67 -1.06,-15.61 -1.06,-23.55 0,-10.32 0.53,-21.96 1.85,-34.4 0,-2.12 0,-3.44 0,-4.5 0,-1.85 -0.26,-3.7 -1.32,-5.03 -1.06,-1.59 -2.65,-2.38 -4.5,-2.38l0 2.12c0,0 0,-2.12 0,-2.12l-0.53 0.01c-1.59,0 -3.44,0.53 -4.5,1.85 -1.06,1.32 -1.85,2.91 -2.12,4.5 -1.59,8.47 -3.7,13.76 -5.29,15.35 -1.32,1.59 -5.56,3.7 -12.44,5.03 -7.67,1.59 -18.52,2.38 -32.01,2.38l-30.15 0c-2.65,0 -4.76,0 -6.35,-0.53l-1.59 -0.53 -0.53 0c0,0 -0.53,-1.06 -0.79,-2.91 0,-1.59 -0.26,-3.97 -0.26,-6.88l0 -79.11 -2.13 0 1.59 -0.27z"/>
   <path class="fil0" d="M2150.53 2100.53c-11.11,19.31 -18.52,32.81 -22.23,40.48l-17.46 37.31 -20.11 41.01c-1.06,2.38 -6.61,14.55 -16.4,36.78 -3.97,9.26 -7.67,16.67 -10.58,22.49 -1.59,3.44 -2.91,6.09 -3.44,7.41 -2.65,6.09 -5.29,9.26 -8.2,9.26 -2.91,0 -6.09,-3.18 -9,-9.53 -0.53,-1.06 -2.38,-4.76 -5.56,-10.85l-3.97 -8.2 -73.82 -159.01 -4.5 97.1c-0.53,7.94 -0.53,23.81 -0.53,47.89 0,24.08 8.2,35.72 24.34,38.36 7.94,1.32 11.91,3.18 11.91,5.82 0,2.91 -1.85,4.5 -5.82,4.5 -2.38,0 -4.76,0 -7.14,-0.26 -14.55,-1.32 -25.93,-1.85 -33.87,-1.85 -9.53,0 -18.52,0.53 -27.25,1.85 -2.65,0.26 -4.5,0.53 -6.09,0.53 -3.97,0 -5.82,-1.32 -5.82,-4.23 0,-2.12 1.59,-3.7 4.76,-4.23 9.53,-2.12 16.14,-6.61 19.84,-13.23 3.7,-6.61 6.09,-17.99 6.88,-34.13l2.65 -56.89c1.85,-41.28 2.91,-67.2 2.91,-78.05 0,-23.28 -2.91,-40.48 -9.26,-51.59 -6.09,-11.11 -16.4,-17.99 -30.69,-20.64 -3.97,-0.53 -5.82,-2.12 -5.82,-4.76 0,-2.91 1.59,-4.23 5.03,-4.23 1.06,0 3.18,0 6.35,0.26 1.85,0 6.35,0.53 13.23,0.53 10.58,0 17.46,0 20.37,-0.53 2.91,-0.26 5.29,-0.53 7.14,-0.53 5.56,0 10.32,3.97 14.02,12.44l2.12 4.5 81.76 176.21 10.05 20.11c1.32,3.44 2.38,5.03 3.18,5.03 0.79,0 1.85,-1.32 2.91,-3.7l2.38 -5.29 1.85 -3.97 92.08 -197.38c1.85,-4.23 3.44,-6.88 4.5,-7.67 1.06,-1.06 2.65,-1.59 5.29,-1.59 1.06,0 3.97,0.26 8.47,0.79 1.85,0 3.97,0 6.35,0 8.2,0 14.82,0 19.84,-0.79 2.38,0 4.23,-0.26 5.56,-0.53 2.65,0 3.97,1.06 3.97,3.7 0,2.38 -1.32,3.97 -3.97,4.5l-8.47 2.12c-6.61,1.59 -11.38,5.56 -14.02,12.17 -2.65,6.61 -3.97,17.46 -3.97,32.54l1.06 47.36 3.7 106.63 1.06 24.87c0,9.79 1.85,17.2 5.56,21.43 3.7,4.23 10.32,7.14 19.84,8.73 6.88,1.06 10.32,2.65 10.32,5.29 0,2.65 -2.38,3.97 -7.14,3.97 -1.59,0 -3.18,0 -5.03,0l-15.35 -1.59c-5.03,-0.53 -10.58,-0.79 -16.4,-0.79 -3.97,0 -10.58,0.26 -19.05,0.79 -13.49,0.79 -21.43,1.06 -23.55,1.06 -3.7,0 -5.56,-1.06 -5.56,-3.44 0,-2.12 1.59,-3.44 4.76,-4.5 7.67,-2.12 12.96,-5.56 15.61,-10.05 2.65,-4.49 3.97,-12.96 3.97,-24.87l-0.79 -32.01 -5.03 -124.62 0.27 -0.29z"/>
   <path class="fil0" d="M2150.53 2100.53l-1.85 -1.06c-11.11,19.58 -18.52,33.07 -22.23,40.75l-17.46 37.31 -20.11 41.01 0.01 -0.01c-1.06,2.38 -6.61,14.55 -16.4,36.78 -3.97,9.26 -7.67,16.67 -10.58,22.49l-0.01 0c-1.85,3.44 -2.91,6.09 -3.7,7.41l-0.01 -0.01c0,0 0,0 0,0 -1.32,2.91 -2.38,5.03 -3.7,6.35l-2.65 1.59 -2.91 -1.59c-1.32,-1.32 -2.65,-3.44 -3.97,-6.61 -0.53,-1.32 -2.38,-4.76 -5.56,-10.85l-1.85 1.06 2.12 -0.79 -3.97 -8.2 -77.52 -166.95 -5.03 105.83c-0.53,7.94 -0.53,24.08 -0.53,47.89 0,11.64 2.12,21.17 6.35,28.05 4.23,6.88 11.11,11.11 19.84,12.44 3.97,0.53 6.61,1.32 8.47,2.12l1.59 1.06 0 -0.02c0,0 -0.53,1.85 -0.53,1.85 -0.26,0.26 -1.32,0.79 -2.91,0.79 -2.38,0 -4.76,0 -6.88,-0.26l0.01 0c-14.55,-1.32 -25.93,-2.12 -34.13,-2.12 -9.53,0 -18.79,0.53 -27.52,1.85l0 0.01c-2.65,0.53 -4.5,0.53 -5.82,0.53 -1.85,0 -2.65,-0.26 -3.18,-0.79l-0.53 -1.32 0.53 -1.06 2.38 -1.06 0 -0.01c9.79,-2.38 17.2,-7.14 21.43,-14.29 4.23,-7.14 6.35,-18.79 7.14,-35.19l2.65 -56.89c1.85,-41.28 2.91,-67.2 2.91,-78.05 0,-23.55 -3.18,-41.01 -9.53,-52.65 -6.35,-11.64 -17.46,-19.05 -32.28,-21.7l0.01 0.01c-1.85,-0.26 -2.91,-0.79 -3.44,-1.32l-0.53 -1.32 0.53 -1.59 2.38 -0.53c0,0 3.18,0 6.35,0.26l0 -2.12c0,0 0,2.12 0,2.12 2.12,0.26 6.61,0.26 13.76,0.26 10.85,0 17.46,0 20.64,-0.26l0 0c2.91,-0.53 5.29,-0.53 6.88,-0.53 4.5,0 8.47,3.18 12.17,11.11l2.12 4.5 81.76 176.21 -0.01 0.01c0,0 10.05,20.37 10.05,20.37l1.85 -1.06 -2.12 0.79c0.79,1.85 1.32,3.18 2.12,4.23l1.06 1.32 2.12 1.06c1.59,0 2.38,-1.06 3.18,-1.85l1.85 -3.18 0 0.01c0,0 2.38,-5.29 2.38,-5.29l1.85 -3.97 92.08 -197.38c1.85,-3.97 3.44,-6.61 3.97,-7.14 0.26,-0.26 1.32,-0.79 3.7,-0.79 0.79,0 3.7,0.26 8.47,0.79l0 0c1.85,0 3.97,0 6.61,0 8.2,0 14.82,0 20.11,-0.79l0 -2.12c0,0 0,2.12 0,2.12 2.38,0 4.23,0 5.82,-0.53l0 -2.12c0,0 0,2.12 0,2.12l0 0c0,0 1.06,0 1.06,0l0 1.32c0,1.59 0,1.85 -1.85,2.65l-8.47 2.12 0.53 2.12 -0.53 -2.12c-7.14,1.59 -12.7,6.35 -15.61,13.49 -2.91,7.14 -4.23,17.99 -4.23,33.34l0 -0.01c0,0 1.06,47.36 1.06,47.36l3.7 106.63 1.06 24.61 2.11 0c0,0 -2.12,0 -2.12,0 0,10.05 1.85,17.73 6.09,22.75 4.23,5.03 11.38,7.94 21.43,9.53 3.44,0.53 5.82,1.06 7.14,1.85l1.32 1.06 -0.53 1.06c0,0 -2.12,0.79 -4.5,0.79 -1.32,0 -2.91,0 -4.76,0l0 2.12c0,0 0,-2.12 0,-2.12l-15.35 -1.59c-5.29,-0.53 -10.58,-0.79 -16.67,-0.79 -4.23,0 -10.58,0.26 -19.31,0.79 -13.49,0.79 -21.43,1.06 -23.28,1.06 -1.59,0 -2.65,-0.26 -3.18,-0.53l0 -0.79c0,0 0,-1.06 0,-1.06l2.65 -1.32c7.94,-2.12 13.76,-5.82 16.93,-11.38 2.91,-5.29 4.23,-13.76 4.23,-25.93l0.02 0c0,0 -0.79,-32.01 -0.79,-32.01l-5.29 -132.29 -3.7 6.61 1.85 1.06 -2.13 0c0,0 5.03,124.62 5.03,124.62l0.79 32.01 2.12 0c0,0 -2.12,0 -2.12,0 0,11.64 -1.32,19.58 -3.7,23.81 -2.12,3.97 -6.88,7.14 -14.29,9.26 -1.85,0.53 -3.44,1.06 -4.5,2.12 -1.32,1.06 -1.85,2.65 -1.85,4.23 0,1.85 0.79,3.7 2.38,4.5 1.59,0.79 3.44,1.06 5.29,1.06 2.12,0 10.05,-0.26 23.55,-1.06 8.73,-0.53 15.08,-0.79 19.05,-0.79 5.82,0 11.11,0 16.14,0.79l15.35 1.59 0 0c1.85,0 3.7,0 5.03,0 2.65,0 4.76,-0.26 6.35,-1.32 1.85,-0.79 2.91,-2.91 2.91,-4.76 0,-2.38 -1.85,-3.97 -3.7,-5.03 -2.12,-1.06 -4.76,-1.85 -8.47,-2.38 -9.53,-1.32 -15.61,-4.23 -18.79,-7.94 -3.18,-3.7 -5.03,-10.32 -5.03,-19.84l0 -0.01c0,0 -1.06,-24.87 -1.06,-24.87l-3.7 -106.63 -1.06 -47.36 -2.12 0c0,0 2.12,0 2.12,0 0,-14.82 1.32,-25.66 3.97,-31.75 2.38,-6.09 6.35,-9.53 12.44,-10.85l8.47 -2.12c3.18,-0.53 5.82,-3.44 5.56,-6.88 0,-1.59 -0.26,-3.18 -1.59,-4.23l-4.23 -1.59 -0.54 0.01c-1.32,0 -3.18,0 -5.56,0.26l0 0c0,0 0,0 0,0 -4.76,0.53 -11.38,0.79 -19.58,0.79 -2.65,0 -4.76,0 -6.35,0l0 2.12c0,0 0,-2.12 0,-2.12 -4.76,-0.53 -7.41,-0.79 -8.73,-0.79 -2.65,0 -5.03,0.53 -6.61,2.12 -1.59,1.59 -2.91,4.23 -4.76,8.47l-92.08 197.38 -1.85 3.97 -2.38 5.29 2.12 0.79 -2.12 -0.79 -1.32 2.38 -0.01 0c0,0 0.53,1.06 0.53,1.06l0 -1.06 -0.53 0c0,0 0.53,1.06 0.53,1.06l0 -1.06 0 1.32 1.06 -1.06 -1.06 0c0,0 0,1.06 0,1.06l1.06 -1.06c0,0 -1.06,-1.59 -2.12,-3.97l0 0c0,0 -10.05,-20.37 -10.05,-20.37l-1.85 1.06 1.85 -0.79 -81.76 -176.21 -2.12 -4.5c-3.7,-8.47 -9.26,-13.49 -16.14,-13.49 -1.85,0 -4.5,0 -7.41,0.53l0 2.12c0,0 0,-2.12 0,-2.12 -2.65,0 -9.53,0.26 -20.11,0.26 -6.88,0 -11.38,0 -12.96,-0.26l0.01 -0.01c-3.18,0 -5.29,-0.53 -6.61,-0.53 -1.85,0 -3.7,0.53 -5.03,1.59 -1.32,1.32 -2.12,3.18 -2.12,4.76 0,1.85 0.79,3.7 2.38,4.76 1.59,1.06 3.18,1.85 5.56,2.12l0 -2.12c0,0 0,2.12 0,2.12 14.02,2.65 23.28,9 29.37,19.58 5.82,10.58 9,27.52 9,50.8 0,10.85 -1.06,36.78 -2.91,78.05l-2.65 56.89c-0.79,15.88 -3.18,26.99 -6.61,33.07 -3.44,6.09 -9.53,10.05 -18.52,12.17l0.53 2.12 -0.53 -2.12c-1.85,0.26 -3.44,1.06 -4.5,2.12 -1.06,1.06 -1.85,2.65 -1.85,4.23 0,1.85 0.79,3.7 2.38,5.03 1.59,1.06 3.44,1.59 5.56,1.59 1.59,0 3.7,0 6.35,-0.53l0 -2.12c0,0 0,2.12 0,2.12 8.73,-1.06 17.73,-1.85 26.99,-1.85 7.94,0 19.05,0.79 33.6,1.85l0 -2.12c0,0 0,2.12 0,2.12 2.38,0.26 5.03,0.53 7.41,0.53 2.12,0 3.97,-0.53 5.56,-1.59 1.59,-1.06 2.38,-3.18 2.38,-5.03 0,-2.65 -1.85,-4.23 -4.23,-5.29 -2.38,-1.06 -5.56,-1.85 -9.53,-2.65 -7.67,-1.32 -12.96,-4.5 -16.67,-10.32 -3.7,-5.82 -5.82,-14.29 -5.82,-25.66 0,-23.81 0,-39.69 0.53,-47.63l4.23 -88.11 69.85 150.81 3.97 8.2 -0.02 0.01c0,0 0,0 0,0 3.18,6.09 5.03,9.53 5.29,10.58 1.59,3.44 2.91,5.82 4.76,7.94 1.85,1.85 3.7,3.18 6.09,3.18 2.39,0 4.23,-1.32 5.82,-3.18 1.59,-1.85 3.18,-4.23 4.5,-7.41l-2.12 -0.79 1.85 0.79c0.53,-1.32 1.85,-3.97 3.44,-7.41l-1.85 -1.06 1.85 1.06c2.91,-5.82 6.61,-13.49 10.58,-22.75 10.05,-22.23 15.35,-34.4 16.4,-36.78l-1.85 -0.79 1.85 1.06 20.11 -41.01 17.46 -37.31c3.7,-7.41 10.85,-20.9 22.23,-40.48l-1.85 -1.06 -2.11 0.01c0,0 2.12,0 2.12,0l-0.8 0z"/>
   <g>
    <path class="fil0" d="M2424.38 2087.56l0 146.84c0,18.26 1.06,30.43 3.44,36.25 2.65,6.61 5.82,11.38 9.79,14.02 3.97,2.65 9.79,4.76 18.26,5.82 6.61,0.79 9.79,2.38 9.79,4.76 0,3.18 -2.12,4.5 -6.09,4.5 -1.85,0 -4.5,0 -7.41,-0.79 -3.97,-0.53 -10.85,-0.79 -20.64,-0.79l-28.58 -0.53 -23.02 1.32c-3.7,0.53 -6.88,0.53 -9.26,0.53 -3.44,0 -5.29,-1.32 -5.29,-3.97 0,-2.38 2.12,-3.7 6.09,-4.5 10.05,-1.59 16.4,-5.03 19.31,-10.32 2.91,-5.29 4.23,-16.14 4.23,-32.81l0 -168.01c0,-16.14 -1.85,-27.25 -5.56,-32.81 -3.7,-5.56 -11.64,-9.53 -23.81,-11.38 -3.97,-0.79 -6.09,-2.38 -6.35,-4.5 0,-2.91 1.85,-4.23 5.56,-4.23l3.45 0.01c9.53,1.32 22.23,1.85 38.1,1.85 9.79,0 17.99,0 24.87,-0.53l13.23 -1.06c2.38,0 4.23,0 5.03,0 3.44,0 5.29,1.32 5.29,3.7 0,2.38 -1.59,3.97 -5.03,5.29l-10.32 3.97c-9.53,3.7 -14.55,19.31 -14.55,47.1l-0.53 0.27zm0 0l0 0 0 0z"/>
   </g>
   <path class="fil0" d="M2424.38 2087.56l-2.12 0 0 146.84c0,18.52 1.06,30.69 3.44,37.04 2.65,6.88 6.09,11.91 10.58,15.08 4.23,3.18 10.58,5.03 19.05,6.35 3.18,0.53 5.29,1.06 6.61,1.59l1.32 1.06 -0.79 1.85c0,0 -1.59,0.79 -3.18,0.79 -1.59,0 -4.23,0 -7.14,-0.53 -4.23,-0.53 -11.11,-0.79 -21.17,-0.79l0 2.12 0 -2.12c0,0 -28.58,-0.53 -28.58,-0.53l-23.28 1.32 0.01 0.01c-3.7,0.26 -6.88,0.53 -9.26,0.53l-2.65 -0.53 -0.53 -1.32 0.53 -1.06c0,0 1.85,-0.79 3.7,-1.06 10.32,-1.85 17.46,-5.29 20.9,-11.38 3.18,-6.09 4.5,-16.93 4.5,-33.87l0 -168.01c0,-16.4 -1.85,-27.52 -5.82,-34.13 -4.5,-6.35 -12.96,-10.32 -25.4,-12.44l0 2.12c0,0 0,-2.12 0,-2.12 -1.85,-0.26 -3.18,-0.79 -3.7,-1.32l-0.79 -1.32 0 0c0,0 0.53,-1.32 0.53,-1.32 0.26,-0.26 1.32,-0.53 2.91,-0.53l0 -2.12 0 2.12c0,0 3.44,0 3.44,0l0 -2.12c0,0 0,2.12 0,2.12 9.79,1.06 22.49,1.85 38.36,1.85 9.79,0 17.99,0 25.14,-0.53l0 0 13.23 -1.06 0 -2.12c0,0 0,2.12 0,2.12 2.38,0 4.23,0 4.76,0l2.65 0.53 0 1.06c0,0 0,1.85 -3.18,3.18l-10.32 3.97c-5.82,2.12 -9.79,7.67 -12.17,15.88 -2.65,8.2 -3.7,19.05 -3.7,33.07l4.5 0c0,-13.76 1.32,-24.34 3.44,-31.75 2.38,-7.41 5.56,-11.64 9.53,-13.23l10.32 -3.97 -0.79 -2.12 0.79 2.12c3.7,-1.06 6.61,-3.7 6.61,-7.14 0,-1.85 -0.79,-3.44 -2.38,-4.5 -1.59,-1.06 -3.18,-1.32 -5.29,-1.32 -0.79,0 -2.65,0 -5.03,0l-13.23 1.06 0 2.12c0,0 0,-2.12 0,-2.12 -6.88,0.53 -15.08,0.53 -24.87,0.53 -15.88,0 -28.31,-0.53 -37.84,-1.85l0 -0.01c0,0 -3.44,0 -3.44,0l0 0c-2.12,0 -3.97,0.26 -5.56,1.32 -1.59,1.06 -2.38,2.91 -2.38,4.76l0 0c0,2.12 1.06,3.97 2.65,5.03 1.32,1.06 3.18,1.59 5.56,2.12l0 0c11.91,1.85 19.31,5.56 22.23,10.58 3.18,4.76 5.29,15.61 5.29,31.49l0 168.01c0,16.4 -1.59,27.25 -3.97,31.75 -2.38,4.23 -7.94,7.67 -17.73,9.26 -2.12,0.26 -3.97,0.79 -5.56,1.85 -1.59,1.06 -2.38,2.91 -2.38,4.5 0,1.85 0.79,3.7 2.12,4.76 1.59,1.06 3.18,1.32 5.29,1.32 2.65,0 5.82,0 9.53,-0.53l0 -2.12c0,0 0,2.12 0,2.12l23.02 -1.32 28.31 0.53 -0.01 0c9.79,0 16.67,0.26 20.37,0.79 3.18,0.53 5.56,0.53 7.67,0.53 2.38,0 4.23,-0.26 5.82,-1.59 1.59,-1.32 2.38,-3.18 2.38,-5.29 0,-2.38 -1.85,-3.97 -3.7,-4.76 -2.12,-1.06 -4.5,-1.59 -7.94,-2.12 -7.94,-1.06 -13.76,-3.18 -17.2,-5.56 -3.44,-2.38 -6.35,-6.61 -9,-13.23 -2.12,-5.29 -3.18,-17.2 -3.18,-35.45l0 -146.84 -2.1 0 0.27 0z"/>
   <g>
    <path class="fil0" d="M2843.48 2053.17l6.35 47.1 0.53 5.03 -0.53 1.85 -2.91 1.85c-1.59,0 -3.97,-2.65 -7.14,-8.2 -24.61,-42.86 -57.68,-64.03 -99.48,-64.03 -33.34,0 -59.53,10.32 -78.85,30.69 -19.31,20.37 -28.84,48.42 -28.84,83.87 0,40.75 10.58,74.35 32.01,100.01 21.43,25.93 48.95,38.89 82.55,38.89 19.58,0 38.89,-5.29 57.94,-15.61 19.05,-10.58 32.01,-23.28 39.42,-38.1 3.44,-6.88 6.09,-10.58 7.94,-10.58 2.12,0 3.18,1.06 3.18,3.7l0 2.12c0,0 -1.06,4.23 -1.06,4.23l-4.5 24.08 -0.79 3.44c-0.53,3.44 -3.7,6.88 -9.26,10.58 -30.16,19.31 -63.5,28.84 -99.75,28.84 -42.07,0 -75.94,-12.44 -101.6,-37.31 -25.66,-24.87 -38.63,-57.94 -38.63,-98.43 0,-40.49 13.23,-74.61 39.95,-101.6 26.72,-26.99 60.06,-40.48 100.28,-40.48 27.52,0 52.92,6.09 75.94,18.52l7.94 4.23 3.18 1.32 3.44 1.06 2.91 -1.59c2.91,-2.12 4.76,-3.18 5.82,-3.18 2.12,0 3.44,2.38 4.23,7.41l-0.27 0.29zm0 0l0 0 0 0z"/>
   </g>
   <path class="fil0" d="M2843.48 2053.17l-2.12 0c0,0 6.35,47.36 6.35,47.36l0.53 4.5 0 0.79c0,0 -2.65,1.59 -2.65,1.59l1.32 1.85 0 -2.12c0,0 0,0 0,0l0.01 0c0,0 0,0 0,0l0 0c0,0 0,0 0,0l0 -0.53c0,0 0,0 0,0l0 0.53 0 -0.53c0,0 -2.65,-2.38 -5.03,-7.14 -24.61,-43.13 -58.74,-65.35 -101.34,-65.35 -33.87,0 -60.85,10.32 -80.43,31.49 -19.58,20.9 -29.37,49.48 -29.37,85.46 0,41.28 10.85,75.14 32.54,101.6 21.7,26.46 50.01,39.69 84.14,39.69 20.11,0 39.69,-5.29 59,-15.88 19.31,-10.58 32.81,-23.55 40.22,-39.16 1.59,-3.44 3.18,-5.82 4.23,-7.41l1.59 -1.59 0.27 0c0,0 0,-0.26 0,-0.26l0 -0.53c0,0 0,0.53 0,0.53l0 -0.01c0,0 0,-0.53 0,-0.53l0 0.53 0.53 0c0,0 0.26,1.59 0.26,1.59l2.12 0 -2.12 0c0,0 0,1.85 0,1.85l-0.79 4.23 -4.5 24.08 -0.79 3.44 0 0c-0.26,2.38 -2.91,5.82 -8.2,9.26 -29.9,19.05 -62.71,28.58 -98.69,28.58 -41.54,0 -74.88,-12.17 -100.28,-36.78 -25.4,-24.61 -37.84,-56.62 -37.84,-96.84 0,-40.22 13.23,-73.55 39.42,-100.01 26.19,-26.46 59,-39.69 98.69,-39.69 27.25,0 52.12,6.09 74.88,18.26l7.94 4.23 0 0c0,0 3.18,1.59 3.18,1.59l-0.01 0c0,0 3.44,1.32 3.44,1.32l0.8 0.01c0,0 3.7,-1.85 3.7,-1.85l0 -0.01c0,0 0,0 0,0l3.44 -2.12 1.06 -0.53 0 0.01c0,0 0,0 0,0l0 0c0,0 0,0 0,0l0 0c0,0 0,0 0,0l0.79 0.79c0,0 1.06,2.38 1.32,4.76l2.12 0c0,0 2.12,-0.53 2.12,-0.53 -0.26,-2.65 -0.79,-4.76 -1.85,-6.35 -0.79,-1.59 -2.65,-2.91 -4.5,-2.91 -2.38,0 -3.97,1.32 -7.14,3.44l1.32 1.85 -1.06 -1.85 -2.12 1.06 -2.38 -0.79 -2.91 -1.32 -7.67 -3.97c-23.55,-12.7 -49.21,-18.79 -76.99,-18.79 -40.75,0 -74.88,13.76 -101.86,41.01 -26.99,27.25 -40.75,61.91 -40.75,103.19 0,41.28 13.23,74.61 39.16,100.01 26.19,25.4 60.85,38.1 103.19,38.1 36.78,0 70.38,-9.79 100.81,-29.1 5.82,-3.7 9.53,-7.67 10.32,-12.17l-2.13 0c0,0 2.12,0 2.12,0l0.79 -3.44 0 0c0,0 4.5,-24.08 4.5,-24.08l0.79 -4.23 0 0c0,0 0,-2.38 0,-2.38l0 0c0,0 -1.06,-4.23 -1.06,-4.23l-3.97 -1.85 -0.52 -0.01c-2.12,0.26 -3.44,1.85 -5.03,3.7 -1.32,1.85 -2.91,4.76 -4.76,8.2 -7.14,14.55 -19.84,26.72 -38.63,37.31 -18.79,10.32 -37.57,15.35 -56.89,15.35 -33.07,0 -59.8,-12.7 -80.7,-38.1 -20.9,-25.4 -31.49,-58.21 -31.49,-98.69 0,-35.19 9.53,-62.44 28.31,-82.55 18.79,-20.11 44.45,-29.9 77.26,-29.9 41.01,0 73.29,20.64 97.63,62.97 1.59,2.65 2.91,5.03 4.23,6.35 1.32,1.59 2.38,2.65 4.5,2.91l0.8 0c0,0 3.44,-2.38 3.44,-2.38l0.53 -0.53 0.79 -2.65 0 -0.53c0,0 -0.53,-5.29 -0.53,-5.29l-6.35 -47.1 -2.11 0.01 1.06 -0.79z"/>
   <g>
    <path class="fil0" d="M3139.55 2164.03l-30.69 -77.52 -1.59 -4.23c-1.59,-4.23 -3.18,-6.35 -5.03,-6.35 -0.79,0 -1.85,1.06 -3.18,3.7l-38.36 84.93c-1.59,3.7 -2.65,6.09 -2.65,7.14 0,3.44 2.91,5.03 9,5.03l5.29 0c0,0 59.27,0 59.27,0 6.61,0 9.79,-1.59 9.79,-5.03 0,-0.79 -0.26,-2.38 -1.06,-4.5l-1.06 -3.44 0.27 0.27zm-2.38 31.75l-70.91 0c-9.79,0 -15.61,0.79 -17.99,2.38 -2.38,1.59 -5.56,6.88 -9.53,15.61l-12.96 28.84c-5.82,13.23 -8.73,23.02 -8.73,29.37 0,6.35 1.59,10.58 4.5,13.23 3.18,2.65 9,5.03 17.99,7.14 3.97,0.79 6.09,2.38 6.09,4.5 0,2.12 -1.59,3.18 -5.56,3.18 -1.59,0 -3.7,0 -6.61,0l-18.79 -1.06c-6.35,-0.26 -13.49,-0.53 -21.7,-0.53 -3.7,0 -6.61,0 -8.73,0 -6.61,0.79 -10.32,1.06 -10.85,1.06 -3.44,0 -5.29,-1.32 -5.29,-3.7 0,-2.12 1.06,-3.44 3.44,-4.23l7.14 -2.12c2.65,-0.79 6.09,-3.97 10.58,-9.53 4.5,-5.56 8.2,-11.38 10.85,-17.46l5.82 -12.96 100.81 -223.84c1.59,-3.97 3.7,-5.82 5.56,-5.82 1.86,0 3.97,1.85 5.29,5.82l84.4 215.9 4.23 10.58c6.09,15.88 11.11,25.66 15.35,29.63 3.97,3.97 12.17,6.88 24.61,9 3.97,0.79 6.09,2.38 5.82,4.76 0,2.12 -1.85,3.18 -5.56,3.18 -1.06,0 -3.7,0 -7.41,-0.53 -6.88,-0.53 -18.79,-1.06 -36.25,-1.06 -17.46,0 -29.37,0.26 -34.13,1.32 -2.65,0.53 -4.76,0.79 -6.09,0.79 -3.44,0 -5.03,-1.32 -5.03,-3.97 0,-2.12 1.59,-3.44 4.76,-3.97l6.09 -1.32c6.61,-1.32 9.79,-5.82 9.79,-13.23 0,-6.88 -3.97,-20.64 -11.91,-41.54l-9.79 -25.93c-2.65,-7.14 -5.03,-11.38 -6.35,-12.44 -1.59,-1.06 -6.09,-1.59 -13.23,-1.59l0.28 0.54zm0 0l0 0 0 0z"/>
   </g>
   <path class="fil0" d="M3139.55 2164.03l2.12 -0.79 -30.69 -77.52 -1.59 -3.97c-0.79,-2.12 -1.59,-3.97 -2.65,-5.29 -1.06,-1.32 -2.38,-2.38 -4.23,-2.65l0 2.12c0,0 0,-2.12 0,-2.12l-0.53 -0.01c0,0 -3.18,1.85 -3.18,1.85l-1.85 3.18 -38.36 84.93c-1.59,3.7 -2.65,6.09 -2.65,8.2 0,2.38 1.32,4.5 3.44,5.82 2.12,1.06 4.5,1.59 7.94,1.59l0 -2.12 0 2.12c0,0 5.29,0 5.29,0l59.26 0c3.44,0 6.09,-0.26 8.2,-1.59 2.12,-1.06 3.7,-3.18 3.7,-5.56 0,-1.32 -0.53,-2.91 -1.06,-5.29l-2.12 0.79 2.12 -0.53 -1.06 -3.44 0.01 0.01c0,0 0,0 0,0l-2.12 0.79 -2.12 0.53 1.06 3.44 0.01 0c0.53,2.12 0.79,3.44 0.79,3.97l-1.32 1.85c0,0 -3.18,1.06 -6.35,1.06l-64.29 0c0,0 0,0 0,0l0 0c-2.91,0 -4.76,-0.53 -5.82,-1.06l-1.06 -1.85c0,0 0.79,-2.91 2.38,-6.35l38.1 -84.93 1.32 -2.38 0 0c0,0 -0.53,-1.06 -0.53,-1.06l0 0.79 0.53 0.01c0,0 -0.53,-0.79 -0.53,-0.79l0 0.79 0 -1.32 0 1.32c0,0 0,0 0,0l0 -1.32 0 1.32c0,0 0,0 0,0l0 0 1.06 0.79c0,0 1.32,2.12 2.12,4.23l1.59 4.23 30.69 77.52 2.12 -0.79 -2.12 0.53 2.12 -0.53 0.26 -0.52zm-2.38 31.75l0 -2.12 -70.91 0c-9.79,0 -15.88,0.53 -19.31,2.65 -3.18,2.38 -6.09,7.67 -10.32,16.67l-12.96 28.84c-5.82,13.23 -8.73,23.28 -9,30.43 0,6.61 1.59,11.64 5.29,15.08 3.7,3.18 10.05,5.56 19.05,7.67l0 -0.01c0,0 0,0 0,0 1.85,0.26 2.91,0.79 3.7,1.32l0.79 1.32 0 0.01c0,0 0,0.53 0,0.53 -0.26,0 -1.32,0.53 -2.91,0.53 -1.32,0 -3.44,0 -6.61,0l-18.79 -1.06c-6.35,-0.26 -13.49,-0.53 -21.96,-0.53 -3.7,0 -6.88,0 -9,0.26l0.01 0.01c-6.61,0.79 -10.32,1.06 -10.58,1.06l-2.65 -0.53 0 -0.79c0,-1.32 0,-1.59 1.32,-2.12l7.14 -2.12c3.7,-1.06 7.14,-4.5 11.64,-10.32 4.5,-5.56 8.2,-11.64 11.11,-17.73l0.01 0c0,0 5.56,-12.96 5.56,-12.96l100.81 -223.84c0.79,-1.85 1.59,-3.18 2.38,-3.7l1.32 -0.79 1.32 0.79c0,0 1.32,1.85 1.85,3.44l84.4 215.9 4.23 10.58c6.35,15.88 11.11,25.93 15.88,30.16 4.76,4.5 13.23,7.41 25.93,9.79 1.85,0.26 2.91,0.79 3.44,1.32l0.53 1.06 0 0c0,0 2.12,0 2.12,0l-2.12 0c0,0 -0.53,0.53 -0.53,0.53l-2.91 0.53c0,0 -3.44,0 -7.41,-0.53l0 2.12c0,0 0,-2.12 0,-2.12 -6.88,-0.53 -19.05,-1.06 -36.51,-1.06 -17.46,0 -29.37,0.26 -34.4,1.32l0 0.01c-2.65,0.53 -4.5,0.79 -5.56,0.79l-2.38 -0.53 -0.53 -1.32 0.53 -0.79 2.65 -1.06 0 0c0,0 6.09,-1.32 6.09,-1.32l-0.53 -2.12 0.53 2.12c7.41,-1.32 11.64,-7.41 11.64,-15.61 0,-7.67 -3.97,-21.43 -12.17,-42.33l-9.79 -25.93c-2.91,-7.41 -4.76,-11.38 -7.14,-13.49 -1.59,-1.06 -3.18,-1.32 -5.56,-1.59 -2.38,-0.26 -5.29,-0.53 -9,-0.53l0 4.5c3.7,0 6.35,0 8.47,0.26 2.12,0 3.44,0.79 3.44,0.79 0.53,0 3.18,4.5 5.82,11.38l9.79 25.93c7.94,20.64 11.91,34.4 11.91,40.75 0,7.14 -2.38,9.79 -7.94,11.38l0 -0.02 -6.09 1.32 0.53 2.12 -0.53 -2.12c-1.85,0.26 -3.44,1.06 -4.76,1.85 -1.32,1.06 -2.12,2.65 -2.12,4.23 0,1.85 0.79,3.7 2.12,4.76 1.32,1.06 3.18,1.59 5.29,1.59 1.59,0 3.7,-0.26 6.61,-0.79l-0.53 -2.12 0 2.12c4.5,-0.79 16.14,-1.06 34.13,-1.06 17.99,0 29.37,0.26 35.98,1.06l0.01 0.01c3.7,0.26 6.35,0.53 7.67,0.53 1.85,0 3.7,0 5.03,-1.06 1.59,-0.79 2.38,-2.38 2.65,-4.23l0 0c0,-2.12 -0.79,-3.97 -2.38,-5.03 -1.32,-1.06 -3.18,-1.59 -5.29,-2.12 -12.17,-2.12 -20.11,-5.29 -23.55,-8.47 -3.44,-3.18 -8.73,-12.96 -14.82,-28.84l-4.23 -10.58 -84.14 -215.9c-0.79,-2.12 -1.59,-3.7 -2.91,-5.03 -1.06,-1.32 -2.65,-2.12 -4.5,-2.12 -1.85,0 -3.44,0.79 -4.5,2.12 -1.06,1.33 -2.12,2.91 -3.18,5.03l-100.81 223.84 -5.56 12.96 1.85 0.79 -1.85 -0.79c-2.91,5.82 -6.35,11.64 -10.58,16.93 -4.23,5.56 -7.94,8.47 -9.53,8.73l-7.14 2.12c-2.91,0.79 -5.03,3.44 -4.76,6.35 0,1.85 0.79,3.44 2.38,4.5 1.59,1.06 3.18,1.32 5.29,1.32 1.06,0 4.5,-0.26 11.11,-1.06l0 -2.12c0,0 0,2.12 0,2.12 1.85,0 4.76,0 8.47,0 8.2,0 15.35,0 21.7,0.53l18.79 1.06c3.18,0 5.29,0 6.88,0 2.12,0 3.7,0 5.29,-1.06 1.59,-0.79 2.65,-2.38 2.38,-4.23l0 0c0,-2.12 -1.06,-3.7 -2.38,-4.76 -1.32,-1.06 -3.18,-1.59 -5.29,-2.12l-0.53 2.12 0.53 -2.12c-8.73,-1.85 -14.82,-4.23 -17.2,-6.61 -2.38,-2.12 -3.97,-5.82 -3.97,-11.64 0,-5.82 2.91,-15.61 8.47,-28.58l12.96 -28.84c3.7,-8.73 7.14,-14.02 8.73,-14.82 1.32,-1.06 7.41,-2.12 16.93,-1.85l70.92 0.01 0 -2.12 -0.79 -0.79z"/>
   <path class="fil0" d="M20.11 2609.85c0,-18.26 -20.11,-13.23 -20.11,-18.79 0,-2.38 0.53,-2.65 2.38,-2.65 9.26,0 18.26,1.06 27.52,1.06 7.67,0 15.35,-1.06 23.28,-1.06 3.97,0 4.76,0.53 4.76,2.38 0,6.09 -17.99,0 -17.99,19.05l0 133.88c0,16.93 22.23,11.11 22.23,18.79 0,1.85 -0.79,2.38 -5.03,2.38 -5.82,0 -16.4,-1.06 -27.25,-1.06 -15.08,0 -20.37,1.06 -23.81,1.06 -4.5,0 -5.29,-1.32 -5.29,-3.7 0,-7.14 19.58,1.06 19.58,-23.55l0 -127.53 -0.27 -0.26z"/>
   <path class="fil0" d="M200.82 2637.37c0,-51.86 -30.16,-37.31 -30.16,-46.57l3.7 -2.38c3.97,0 7.67,1.06 11.64,1.06 3.7,0 7.67,-1.06 11.38,-1.06 2.65,0 5.03,3.97 6.61,5.82l118.8 132.29c1.59,1.85 2.38,2.65 2.91,2.65 0.53,0 0.79,-0.79 0.79,-2.65l0 -104.25c0,-32.54 -27.78,-23.28 -27.78,-31.49 0,-1.85 1.32,-2.38 2.65,-2.38 7.41,0 14.82,1.06 22.75,1.06 8.47,0 19.31,-1.06 25.14,-1.06l2.38 2.38c0,6.35 -14.82,1.85 -14.82,20.11l0 144.2c0,7.14 0,10.58 -2.38,10.58 -1.85,0 -4.23,-1.32 -9.53,-6.88l-107.16 -120.65c0,0 -3.44,-4.76 -5.29,-4.76 -1.06,0 -1.85,0.79 -1.85,5.82l0 101.86c0,22.49 21.96,13.76 21.96,20.37 0,1.32 0,3.18 -2.65,3.18 -6.09,0 -12.96,-1.06 -25.14,-1.06 -8.73,0 -21.7,1.06 -23.55,1.06 -2.91,0 -3.18,-1.59 -3.18,-2.65 0,-8.73 21.96,2.12 21.96,-32.54l0 -92.08 0.82 0.02z"/>
   <path class="fil0" d="M538.43 2613.55c0,-1.85 1.06,-11.11 -2.38,-11.38l-40.48 0.01c-15.35,0 -15.88,3.7 -20.37,17.46 -0.79,2.65 -1.06,5.82 -4.23,5.82l-2.38 -2.91 2.65 -24.08c0,-2.91 0,-9.79 4.5,-9.79 19.31,0 38.63,1.06 70.64,1.06 45.24,0 68,-1.06 73.03,-1.06 5.82,0 6.88,1.59 7.14,7.14l1.32 19.84c0,2.38 0.53,5.56 -2.65,5.56 -9.26,0 4.23,-19.05 -21.17,-19.05l-35.72 0.01c-11.11,0 -10.05,-1.06 -10.05,12.17l0 127.26c0,20.9 20.11,12.7 20.11,20.37 0,0.79 0,2.91 -2.12,2.91 -6.09,0 -12.96,-1.06 -20.11,-1.06 -27.78,0 -32.54,1.06 -34.13,1.06 -2.12,0 -2.91,-0.79 -2.91,-3.18 0,-5.82 19.58,-3.44 19.58,-18.52l0 -129.65 -0.27 0.01z"/>
   <path class="fil0" d="M777.08 2660.91c0,8.47 -0.53,8.47 9.53,8.47l26.98 0c25.93,0 19.31,-19.84 25.14,-19.84 2.12,0 2.65,2.65 2.65,4.76 0,8.73 -0.53,17.2 -0.53,25.14 0,6.35 0.53,12.96 0.53,19.58 0,2.38 -1.06,3.18 -2.65,3.18 -7.67,0 0.79,-21.96 -20.11,-21.96l-36.78 -0.01c-5.29,0 -4.5,4.23 -4.5,7.94l0 45.77c0,14.82 -1.85,20.64 19.05,20.64 57.68,0 66.15,-25.66 69.32,-25.66 1.85,0 2.12,2.38 2.12,2.91 0,9 -6.61,17.73 -12.44,24.08 -7.94,9 -13.49,8.47 -24.34,8.47 -19.05,0 -37.84,-1.59 -56.89,-1.06 -10.05,0 -20.37,1.06 -30.43,1.06 -2.12,0 -3.7,-0.53 -3.7,-2.38 0.53,-2.91 2.91,-2.38 10.85,-6.35 6.61,-2.91 6.88,-10.05 6.88,-21.7l0 -113.77c0,-11.11 0,-23.02 -13.49,-25.14 -2.12,-0.53 -7.41,-1.06 -7.41,-3.97 0,-1.85 1.59,-2.91 8.73,-2.91 47.1,0 60.06,1.06 70.64,1.06 5.03,0 27.78,-1.06 35.72,-1.06 2.12,0 2.38,2.38 2.38,5.56 0,27.52 -3.44,29.63 -5.03,29.63 -6.09,0 -1.85,-11.91 -6.09,-17.73 -6.35,-8.47 -32.28,-6.88 -42.33,-6.88 -23.81,0 -23.55,-1.06 -23.55,15.61l0 46.3 -0.25 0.26z"/>
   <path class="fil0" d="M1014.15 2669.12c0,4.76 15.35,3.44 27.25,3.44 10.58,0 34.66,-4.5 34.66,-35.45 0,-30.95 -23.28,-40.75 -47.63,-40.75 -9,0 -14.29,-0.53 -14.29,9.26l0 63.24 0.01 0.26zm90.49 68.52c17.99,27.52 30.16,18.26 30.16,24.08 0,2.91 -14.02,2.91 -16.14,2.91 -18.26,0 -27.78,-12.7 -37.31,-26.99l-27.52 -43.66c-9,-14.02 -5.29,-13.23 -33.07,-13.23 -7.94,0 -6.35,4.5 -6.35,6.88l0 52.65c0,21.43 25.93,13.76 25.93,22.23 0,2.38 -2.38,2.12 -4.23,2.12 -2.38,0 -7.94,-1.06 -28.58,-1.06 -9.53,0 -19.05,1.06 -28.31,1.06l-2.38 -2.65c0,-6.35 18.26,-2.65 18.26,-21.7l0 -126.74c0,-23.81 -21.43,-13.76 -21.43,-22.23 0,-1.59 1.85,-2.91 5.03,-2.91 4.5,0 3.18,1.06 15.88,1.06 14.55,0 28.58,-1.06 41.54,-1.06 3.97,0 59,-5.03 59,43.13 0,19.31 -14.02,36.25 -31.49,43.13l41.54 62.97 -0.53 0.01z"/>
   <path class="fil0" d="M1264.18 2637.37c0,-51.86 -30.16,-37.31 -30.16,-46.57l3.7 -2.38c3.97,0 7.67,1.06 11.64,1.06 3.7,0 7.67,-1.06 11.38,-1.06 2.65,0 5.03,3.97 6.35,5.82l118.8 132.29c1.59,1.85 2.38,2.65 2.91,2.65 0.53,0 0.79,-0.79 0.79,-2.65l0 -104.25c0,-32.54 -27.78,-23.28 -27.78,-31.49 0,-1.85 1.32,-2.38 2.65,-2.38 7.41,0 14.82,1.06 22.75,1.06 8.47,0 19.31,-1.06 25.14,-1.06l2.38 2.38c0,6.35 -14.82,1.85 -14.82,20.11l0 144.2c0,7.14 0,10.58 -2.38,10.58 -1.85,0 -4.23,-1.32 -9.53,-6.88l-107.16 -120.65c0,0 -3.44,-4.76 -5.29,-4.76 -1.06,0 -1.85,0.79 -1.85,5.82l0 101.86c0,22.49 21.96,13.76 21.96,20.37 0,1.32 0,3.18 -2.65,3.18 -6.09,0 -12.96,-1.06 -25.14,-1.06 -8.73,0 -21.7,1.06 -23.55,1.06 -2.91,0 -3.18,-1.59 -3.18,-2.65 0,-8.73 21.96,2.12 21.96,-32.54l0 -92.08 1.08 0.02z"/>
   <path class="fil0" d="M1591.47 2680.23c-1.85,3.44 0,4.5 3.18,4.5l49.21 0c5.56,0 5.29,-1.85 3.97,-5.03l-24.34 -60.06c-1.32,-2.91 -2.38,-2.91 -3.97,0l-28.05 60.59zm67.47 24.87c-2.38,-5.82 -3.97,-9.53 -10.85,-9.53l-54.77 0c-4.76,0 -9.26,0 -11.64,5.29l-15.88 34.93c-0.79,1.85 -1.85,5.56 -1.85,8.73 0,17.46 17.73,10.05 17.73,16.4 0,4.5 -3.44,3.7 -6.61,3.7 -6.88,0 -14.02,-1.06 -20.9,-1.06 -6.88,0 -13.49,1.06 -19.84,1.06l-2.12 -2.65c0,-5.29 11.64,-1.06 18.26,-15.08l59.53 -127c14.82,-31.49 15.35,-35.45 18.79,-35.45 2.65,0 4.5,7.14 5.29,9.26l51.86 128.32c3.7,9.26 6.61,19.58 12.44,28.31 7.41,11.38 21.96,6.09 21.96,12.17 0,2.38 -1.85,2.38 -3.44,2.38 -10.32,0 -20.37,-1.06 -30.69,-1.06 -6.61,0 -13.49,1.06 -20.11,1.06 -1.59,0 -5.56,0 -5.56,-2.65 0,-6.09 15.08,-3.44 15.08,-12.96 0,-5.56 -5.29,-16.93 -7.67,-23.81l-7.94 -20.37 -1.07 0.01z"/>
   <path class="fil0" d="M1867.69 2613.55c0,-1.85 1.06,-11.11 -2.38,-11.38l-40.74 0.01c-15.35,0 -15.88,3.7 -20.37,17.46 -0.79,2.65 -1.06,5.82 -4.23,5.82l-2.38 -2.91 2.65 -24.08c0,-2.91 0,-9.79 4.5,-9.79 19.58,0 38.63,1.06 70.91,1.06 45.24,0 68,-1.06 73.03,-1.06 5.82,0 6.88,1.59 7.14,7.14l1.32 19.84c0,2.38 0.53,5.56 -2.65,5.56 -9.26,0 4.23,-19.05 -21.17,-19.05l-35.73 0.01c-11.11,0 -10.05,-1.06 -10.05,12.17l0 127.26c0,20.9 20.11,12.7 20.11,20.37 0,0.79 0,2.91 -2.38,2.91 -6.09,0 -12.96,-1.06 -20.11,-1.06 -28.05,0 -32.54,1.06 -34.13,1.06 -2.12,0 -2.91,-0.79 -2.91,-3.18 0,-5.82 19.58,-3.44 19.58,-18.52l0 -129.65 -0.01 0.01z"/>
   <path class="fil0" d="M2091.27 2609.85c-0.26,-18.26 -20.11,-13.23 -20.11,-18.79 0,-2.38 0.53,-2.65 2.65,-2.65 9.26,0 18.26,1.06 27.52,1.06 7.67,0 15.35,-1.06 23.02,-1.06 3.97,0 4.76,0.53 4.76,2.38 0,6.09 -17.99,0 -17.99,19.05l0 133.88c0,16.93 22.23,11.11 22.23,18.79 0,1.85 -0.79,2.38 -5.03,2.38 -5.82,0 -16.4,-1.06 -27.25,-1.06 -15.08,0 -20.37,1.06 -23.81,1.06 -4.5,0 -5.29,-1.32 -5.29,-3.7 0,-7.14 19.31,1.06 19.31,-23.55l0 -127.53 -0.01 -0.26z"/>
   <g>
    <path class="fil0" d="M2267.74 2668.32c0,46.04 30.16,90.75 79.38,90.75 36.51,0 65.62,-29.1 65.62,-75.14 0,-46.04 -30.69,-89.43 -79.38,-89.43 -41.8,0 -65.88,34.66 -65.88,74.08l0.26 -0.26zm-18.25 7.15c0,-51.86 40.48,-89.43 91.55,-89.43 51.07,0 89.96,36.51 89.96,88.11 0,56.09 -38.63,92.34 -94.19,92.34 -55.56,0 -87.31,-38.36 -87.31,-91.02l-0.01 0zm0 0l0 0 0 0z"/>
   </g>
   <path class="fil0" d="M2565.4 2637.37c0,-51.86 -30.16,-37.31 -30.16,-46.57l3.7 -2.38c3.97,0 7.67,1.06 11.64,1.06 3.7,0 7.67,-1.06 11.38,-1.06 2.65,0 5.03,3.97 6.35,5.82l118.8 132.29c1.59,1.85 2.38,2.65 2.91,2.65 0.53,0 0.79,-0.79 0.79,-2.65l0 -104.25c0,-32.54 -27.78,-23.28 -27.78,-31.49 0,-1.85 1.32,-2.38 2.65,-2.38 7.41,0 14.82,1.06 22.75,1.06 8.47,0 19.31,-1.06 25.14,-1.06l2.38 2.38c0,6.35 -14.55,1.85 -14.55,20.11l0 144.2c0,7.14 -0.26,10.58 -2.38,10.58 -1.85,0 -4.23,-1.32 -9.53,-6.88l-107.16 -120.65c0,0 -3.44,-4.76 -5.29,-4.76 -1.06,0 -1.85,0.79 -1.85,5.82l0 101.86c0,22.49 21.96,13.76 21.96,20.37 0,1.32 -0.26,3.18 -2.65,3.18 -6.09,0 -12.96,-1.06 -25.14,-1.06 -8.73,0 -21.7,1.06 -23.55,1.06 -2.91,0 -3.18,-1.59 -3.18,-2.65 0,-8.73 21.96,2.12 21.96,-32.54l0 -92.08 0.81 0.02z"/>
   <path class="fil0" d="M2892.96 2680.23c-1.85,3.44 0,4.5 3.18,4.5l49.2 0c5.56,0 5.29,-1.85 3.97,-5.03l-24.34 -60.06c-1.32,-2.91 -2.38,-2.91 -3.97,0l-28.05 60.59 0.01 0zm67.2 24.87c-2.38,-5.82 -3.97,-9.53 -11.11,-9.53l-54.77 0c-4.76,0 -9.26,0 -11.64,5.29l-15.88 34.93c-0.79,1.85 -1.85,5.56 -1.85,8.73 0,17.46 17.73,10.05 17.73,16.4 0,4.5 -3.44,3.7 -6.61,3.7 -6.88,0 -14.02,-1.06 -20.9,-1.06 -6.88,0 -13.49,1.06 -19.84,1.06l-2.12 -2.65c0,-5.29 11.64,-1.06 18.26,-15.08l59.53 -127c14.82,-31.49 15.35,-35.45 18.79,-35.45 2.65,0 4.5,7.14 5.29,9.26l51.86 128.32c3.7,9.26 6.61,19.58 12.44,28.31 7.41,11.38 21.96,6.09 21.96,12.17 0,2.38 -1.85,2.38 -3.44,2.38 -10.32,0 -20.37,-1.06 -30.69,-1.06 -6.61,0 -13.49,1.06 -20.11,1.06 -1.59,0 -5.56,0 -5.56,-2.65 0,-6.09 14.82,-3.44 14.82,-12.96 0,-5.56 -5.29,-16.93 -7.67,-23.81l-7.94 -20.37 -0.55 0.01z"/>
   <path class="fil0" d="M3168.92 2734.2c0,14.82 -1.85,20.64 19.05,20.64 57.68,0 66.15,-25.66 69.32,-25.66 1.85,0 1.85,2.38 1.85,2.91 0,9 -6.35,17.73 -12.44,24.08 -7.94,9 -13.49,8.47 -24.34,8.47 -18.79,0 -37.84,-1.59 -56.89,-1.06 -10.05,0.26 -20.37,1.06 -30.43,1.06 -2.12,0 -3.7,-0.53 -3.7,-2.38 0.53,-2.91 2.91,-2.65 10.85,-6.61 6.61,-2.91 6.88,-10.05 6.88,-21.7l0 -126.47c0,-12.96 -20.9,-11.11 -20.9,-16.14 0,-2.65 1.85,-3.18 5.03,-3.18 5.29,0 12.96,1.06 25.14,1.06 14.29,0 20.11,-1.06 23.81,-1.06 3.18,0 4.76,0.53 4.76,3.44 0,5.82 -18.26,-0.53 -18.26,21.17l0 121.18 0.27 0.25z"/>
   <path class="fil0" d="M821 3057.79c-1.06,-5.03 0,-7.67 2.65,-7.67 3.44,0 3.44,2.91 4.76,8.2 2.91,11.38 17.99,37.31 52.39,37.31 23.55,0 46.83,-13.23 46.83,-39.42 0,-48.15 -101.07,-21.17 -101.07,-86.25 0,-31.75 26.72,-46.83 55.3,-46.83 30.16,0 38.36,9 41.8,9 2.38,0 2.65,-2.65 5.29,-2.65 1.59,0 2.65,0.79 2.91,3.44l3.7 33.87c0,1.85 0,3.7 -2.65,3.7 -2.65,0 -4.5,-5.29 -5.29,-7.41 -7.41,-21.43 -25.66,-32.28 -47.63,-32.28 -19.58,0 -40.75,9.53 -40.75,32.28 0,46.83 101.07,19.31 101.07,88.11 0,20.9 -14.82,52.39 -71.17,52.39 -18.52,0 -41.01,-9.26 -42.07,-13.76l-6.09 -32.28 0.02 0.25z"/>
   <path class="fil0" d="M1123.16 2950.63c0,-1.85 1.06,-11.11 -2.38,-11.38l-40.75 0c-15.35,0 -15.88,3.7 -20.37,17.46 -0.79,2.65 -1.06,5.82 -4.23,5.82l-2.38 -2.91 2.65 -24.08c0,-2.91 0,-9.79 4.5,-9.79 19.58,0 38.63,1.06 70.91,1.06 45.24,0 68,-1.06 73.03,-1.06 5.82,0 6.88,1.59 7.14,7.14l1.32 19.84c0,2.38 0.53,5.56 -2.65,5.56 -9.26,0 4.23,-19.05 -21.17,-19.05l-35.72 0.01c-11.11,0 -10.05,-1.06 -10.05,12.17l0 127c0,20.9 20.11,12.7 20.11,20.37 0,0.79 0,2.91 -2.12,2.91 -6.09,0 -12.96,-1.06 -20.11,-1.06 -27.78,0 -32.54,1.06 -34.13,1.06 -2.12,0 -2.91,-0.79 -2.91,-3.18 0,-6.09 19.58,-3.44 19.58,-18.52l0 -129.65 -0.27 0.28z"/>
   <path class="fil0" d="M1358.37 3035.3c0,39.95 25.93,57.94 59.53,57.94 46.83,0 57.68,-30.96 57.68,-60.33l0 -80.7c0,-25.4 -23.28,-15.08 -23.28,-24.34l2.38 -2.38c9.79,0 19.31,1.06 29.1,1.06 4.76,0 9.26,-1.06 13.76,-1.06l3.18 2.65c0,6.88 -14.82,1.59 -14.82,24.34l0 77.26c0,12.17 2.91,73.82 -69.59,73.82 -65.62,0 -78.05,-36.51 -78.05,-74.88l0 -83.87c0,-14.82 -20.11,-8.73 -20.11,-16.67 0,-1.85 4.23,-2.38 5.56,-2.38 6.35,0 12.7,1.06 19.31,1.06 7.94,0 15.88,-1.06 23.55,-1.06 1.32,0 7.94,-0.53 7.94,2.38 0,6.88 -16.67,0 -16.67,17.99l0 89.43 0.53 -0.26z"/>
   <path class="fil0" d="M1658.14 3065.73c0,3.97 -0.79,15.88 1.59,18.26 8.2,8.2 27.25,11.11 38.36,11.11 35.45,0 69.06,-18.79 69.06,-76.46 0,-57.67 -36.78,-86.78 -84.14,-87.05 -23.55,0 -24.61,3.97 -24.61,15.61l0 118.27 -0.26 0.26zm-19.84 -113.78c0,-25.4 -20.37,-17.46 -20.37,-24.08 0,-1.85 2.12,-2.38 3.44,-2.38 7.67,0 15.08,1.06 22.49,1.06 16.4,0 32.54,-1.06 53.98,-1.06 44.19,0 87.31,33.34 87.31,79.38 0,57.41 -27.25,97.1 -96.31,97.1 -12.7,0 -25.4,-1.06 -38.1,-1.06 -2.38,0 -26.19,1.06 -28.05,1.06 -1.85,0 -2.38,-1.06 -2.38,-2.65 0,-5.82 17.73,0.53 17.73,-23.02l0 -124.09 0.26 -0.26z"/>
   <path class="fil0" d="M1920.08 2946.93c0,-18.26 -20.11,-13.23 -20.11,-18.79 0,-2.38 0.53,-2.65 2.38,-2.65 9.26,0 18.26,1.06 27.52,1.06 7.67,0 15.35,-1.06 23.28,-1.06 3.97,0 4.76,0.53 4.76,2.38 0,6.09 -17.99,0.26 -17.99,19.05l0 133.88c0,16.93 22.23,11.11 22.23,18.79 0,1.85 -0.79,2.65 -5.03,2.65 -5.82,0 -16.4,-1.06 -27.25,-1.06 -15.08,0 -20.37,1.06 -23.81,1.06 -4.5,0 -5.29,-1.32 -5.29,-3.7 0,-7.14 19.31,1.06 19.31,-23.55l0 -127.53 0 -0.53z"/>
   <path class="fil0" d="M2117.46 2997.99c0,8.47 -0.53,8.47 9.53,8.47l26.98 0c25.93,0 19.31,-19.84 25.14,-19.84 2.12,0 2.65,2.65 2.65,4.76 0,8.73 -0.53,17.2 -0.53,25.14 0,6.61 0.53,12.96 0.53,19.58 0,2.38 -1.06,3.18 -2.65,3.18 -7.67,0 0.79,-21.96 -20.11,-21.96l-36.78 -0.01c-5.29,0 -4.5,4.23 -4.5,7.94l0 45.77c0,14.82 -2.12,20.64 19.05,20.64 57.68,0 66.15,-25.66 69.32,-25.66 1.85,0 1.85,2.38 1.85,2.91 0,9 -6.35,17.73 -12.44,24.08 -7.94,9 -13.49,8.47 -24.34,8.47 -19.05,0 -37.84,-1.59 -56.89,-1.06 -10.05,0 -20.37,1.06 -30.43,1.06 -2.38,0 -3.7,-0.53 -3.7,-2.65 0.53,-2.91 2.91,-2.38 10.85,-6.35 6.61,-2.91 6.88,-10.05 6.88,-21.7l0 -113.51c0,-11.11 0,-23.28 -13.49,-25.14 -2.12,-0.53 -7.41,-1.06 -7.41,-3.97 0,-1.85 1.59,-2.91 8.73,-2.91 47.1,0 60.06,1.06 70.64,1.06 5.03,0 28.05,-1.06 35.72,-1.06 2.12,0 2.38,2.38 2.38,5.56 0,27.52 -3.44,29.63 -5.03,29.63 -6.09,0 -1.85,-11.91 -6.09,-17.73 -6.35,-8.47 -32.28,-6.88 -42.33,-6.88 -23.81,0 -23.55,-1.06 -23.55,15.61l0 46.3 0.02 0.27z"/>
   <path class="fil0" d="M2318.81 3057.79c-1.06,-5.03 0,-7.67 2.65,-7.67 3.44,0 3.44,2.91 4.76,8.2 2.91,11.38 17.99,37.31 52.39,37.31 23.81,0 46.83,-13.23 46.83,-39.42 0,-48.15 -101.07,-21.17 -101.07,-86.25 0,-31.75 26.72,-46.83 55.3,-46.83 30.16,0 38.36,9 41.8,9 2.12,0 2.65,-2.65 5.29,-2.65 1.59,0 2.65,0.79 2.91,3.44l3.7 33.87c0,1.85 0,3.7 -2.65,3.7 -2.65,0 -4.5,-5.29 -5.29,-7.41 -7.41,-21.43 -25.66,-32.28 -47.63,-32.28 -19.58,0 -40.48,9.53 -40.48,32.28 0,46.83 101.07,19.31 101.07,88.11 0,20.9 -14.82,52.39 -71.17,52.39 -18.52,0 -41.01,-9.26 -42.07,-13.76l-6.35 -32.28 0.01 0.25z"/>
  </g>
 </g>
</svg>
