<?xml version="1.0" encoding="UTF-8"?>
<!DOCTYPE svg PUBLIC "-//W3C//DTD SVG 1.1//EN" "http://www.w3.org/Graphics/SVG/1.1/DTD/svg11.dtd">
<!-- Creator: CorelDRAW -->
<svg xmlns="http://www.w3.org/2000/svg" xml:space="preserve" width="37.8337mm" height="37.8337mm" version="1.1" style="shape-rendering:geometricPrecision; text-rendering:geometricPrecision; image-rendering:optimizeQuality; fill-rule:evenodd; clip-rule:evenodd"
viewBox="0 0 474.6 474.6"
 xmlns:xlink="http://www.w3.org/1999/xlink"
 xmlns:xodm="http://www.corel.com/coreldraw/odm/2003">
 <defs>
  <style type="text/css">
   <![CDATA[
    .str0 {stroke:#C19516;stroke-width:3.32;stroke-linejoin:round;stroke-miterlimit:22.9256}
    .fil6 {fill:none}
    .fil0 {fill:none;fill-rule:nonzero}
    .fil4 {fill:#1E804B}
    .fil5 {fill:#294161}
    .fil3 {fill:#C19516}
    .fil1 {fill:#294161;fill-rule:nonzero}
    .fil2 {fill:#C19516;fill-rule:nonzero}
   ]]>
  </style>
 </defs>
 <g id="Capa_x0020_1">
  <metadata id="CorelCorpID_0Corel-Layer"/>
  <path class="fil0 str0" d="M435.91 128.17c1.26,-4.61 3.15,-15.67 -43.78,-15.67 0,0 -3.88,29.64 0,29.64 3.88,0 10.89,-0.5 43.78,-13.94l0 -0.03z"/>
  <g>
   <path class="fil1" d="M435.88 128.17c1.26,-4.61 3.15,-15.67 -43.78,-15.67 0,0 -3.88,29.64 0,29.64 3.88,0 10.85,-0.5 43.78,-13.94l0 -0.03zm0 0l0 0 0 0z"/>
  </g>
  <path class="fil0 str0" d="M40.05 199.6c-1.26,4.61 -3.15,15.67 43.78,15.67 0,0 3.88,-29.64 0,-29.64 -3.88,0 -10.85,0.5 -43.78,13.94l0 0.03z"/>
  <g>
   <path class="fil1" d="M40.05 199.6c-1.26,4.61 -3.15,15.67 43.78,15.67 0,0 3.88,-29.64 0,-29.64 -3.88,0 -10.85,0.5 -43.78,13.94l0 0.03zm0 0l0 0 0 0z"/>
  </g>
  <path class="fil2" d="M373.45 52.96l-272.33 0 0 189.25c0,74.94 56.36,117.13 104.02,152.78 11.15,8.33 21.87,16.36 31.5,24.43 10.29,-8.46 21.61,-16.53 33.32,-24.96 47.7,-34.19 103.46,-74.11 103.46,-152.24l0 -189.25 0.03 0zm-288.56 -32.49l321.09 0 0 221.78c0,94.79 -63.09,140 -117.06,178.66 -15.47,11.09 -30.1,21.57 -41.29,31.96l-11.09 10.32 -11.05 -10.39c-11.15,-10.45 -25.06,-20.88 -39.76,-31.9 -53.64,-40.16 -117.1,-87.62 -117.1,-178.7l0 -221.75 16.26 0z"/>
  <g>
   <path class="fil3" d="M240.36 41.38l142.85 0c1.69,0 3.05,1.36 3.05,3.05l0 110.89c0,1.69 -1.36,3.05 -3.05,3.05l-142.85 0c-1.69,0 -3.05,-1.36 -3.05,-3.05l-0 -110.89c0,-1.69 1.36,-3.05 3.05,-3.05l0 0zm0 0l0 0 0 0z"/>
  </g>
  <path class="fil3" d="M86.02 41.38l142.85 0c1.69,0 3.05,1.36 3.05,3.05l0 110.89c0,1.69 -1.36,3.05 -3.05,3.05l-142.85 0c-1.69,0 -3.05,-1.36 -3.05,-3.05l0 -110.89c0,-1.69 1.36,-3.05 3.05,-3.05z"/>
  <path class="fil2" d="M246.83 50.9l0 92.04 -19.05 0 0 -92.04 -129.91 0 0 191.31c0,76.4 56.46,118.66 104.22,154.37 12.41,9.29 24.23,18.16 34.55,27.12 10.92,-9.33 23.33,-18.22 36.31,-27.52 47.86,-34.29 103.79,-74.35 103.79,-153.97l0 -191.31 -129.91 0z"/>
  <path class="fil1" d="M386.03 251.34c-5.31,103.72 -100.93,140 -149.42,185.14 -47.96,-45.07 -142.52,-86.36 -148,-185.14l297.42 0z"/>
  <g>
   <path class="fil4" d="M92.76 284.6l13.21 -28.18 15.37 -0 -19.02 52.77c3.45,6.97 7.4,13.61 11.75,19.88l22.54 -72.62 15.37 0 -23.27 91.14c5.18,5.81 10.65,11.32 16.3,16.6l22.24 -107.74 15.33 0 -18.72 124.03c6.74,5.48 13.54,10.69 20.25,15.77l13.77 -139.8 15.37 0 -7.67 155.93c8.5,6.47 16.43,12.81 23.37,19.15l-0.43 -175.08 15.23 0 7.33 169.34c7.14,-5.91 15.13,-11.78 23.53,-17.86l-15.5 -151.51 15.3 0 21.08 136.48c6.47,-4.71 12.94,-9.59 19.35,-14.74l-25.09 -121.74 15.27 0 27.25 106.74c5.61,-5.21 11.02,-10.72 16.1,-16.53l-28.01 -90.21 15.27 0 26.22 72.72c4.15,-6.17 7.93,-12.68 11.22,-19.62l-22.07 -53.1 15.3 0 16.06 27.95c2.19,-8.2 3.75,-16.93 4.58,-26.22l-1.73 -1.76 -294.3 0 -2.95 3.68c0.96,8.63 2.59,16.76 4.78,24.49l0.03 0.03zm0 0l0 0 0 0z"/>
  </g>
  <polygon class="fil1" points="154.52,65.11 169.46,65.11 169.46,79.12 185.13,79.12 185.13,94.09 169.46,94.09 169.46,123.96 154.52,123.96 154.52,94.09 138.86,94.09 138.86,79.12 154.52,79.12 "/>
  <g>
   <path class="fil5" d="M307.5 106.3c3.22,-5.08 9.39,-40.69 9.46,-48.56 -1.49,1.23 -11.68,17.79 -13.04,20.81 -2.39,5.34 -2.09,8.3 -0.53,14.14 1.2,4.38 2.02,10.02 4.12,13.57l-0 0.04zm0 0l0 0 0 0z"/>
  </g>
  <path class="fil5" d="M303.15 136.17c5.28,-28.25 6.47,-23.8 -4.28,-35.68 -2.22,-2.46 -5.38,-6.41 -9.33,-7.6 1.49,8.5 8.03,27.78 11.18,38.1 0.3,1 0.37,1.46 0.76,2.42l1.66 2.72 0 0.03z"/>
  <g>
   <path class="fil5" d="M297.84 164.22c1.2,-6.44 5.94,-21.74 2.95,-27.42 -1.13,-2.19 -14.87,-14.9 -16.7,-15.96 0.96,6.44 8.4,29.71 11.29,38.2l1.79 4.25c0,0 0.23,0.37 0.33,0.46 0.07,0.13 0.23,0.3 0.33,0.46l-0 0zm0 0l0 0 0 0z"/>
  </g>
  <g>
   <path class="fil5" d="M302.02 151.8l2.42 -2.09c3.78,-4.41 24.23,-32.59 25.39,-35.48 -3.22,1.23 -19.88,9.63 -21.44,10.92 -4.48,3.82 -5.74,19.05 -6.34,26.65l-0.03 0zm0 0l0 0 0 0z"/>
  </g>
  <g>
   <path class="fil5" d="M307.67 123.82c1.96,-2.89 4.51,-5.87 6.71,-8.86l20.35 -28.51c-3.09,0.76 -19.15,7.57 -21.54,11.15 -2.36,3.52 -3.39,7.63 -4.25,11.95 -0.5,2.42 -2.85,12.11 -1.26,14.27l-0 0zm0 0l0 0 0 0z"/>
  </g>
  <path class="fil1" d="M246.83 50.9l0 92.04 -19.05 0 0 -92.04 -129.91 0 0 191.31c0,76.4 56.46,118.66 104.22,154.37 12.41,9.29 24.23,18.16 34.55,27.12 10.92,-9.33 23.33,-18.22 36.31,-27.52 47.86,-34.29 103.79,-74.35 103.79,-153.97l0 -191.31 -129.91 0zm-158.49 -19.05l307.45 0 0 210.36c0,89.38 -60.21,132.53 -111.75,169.44 -15.23,10.92 -29.67,21.28 -40.96,31.76l-6.51 6.04 -6.47 -6.11c-11.09,-10.42 -24.86,-20.71 -39.4,-31.6 -51.25,-38.37 -111.89,-83.74 -111.89,-169.57l0 -210.33 9.53 0z"/>
  <path class="fil0 str0" d="M39.62 198.47l0 -50.12c132.23,-59.08 264.46,39.4 396.69,-19.68l0 50.12c-132.23,59.08 -264.46,-39.4 -396.69,19.68z"/>
  <path class="fil1" d="M39.62 198.47l0 -50.12c132.23,-59.08 264.46,39.4 396.69,-19.68l0 50.12c-132.23,59.08 -264.46,-39.4 -396.69,19.68z"/>
  <g>
   <path class="fil2" d="M412.38 174.21c-0.1,-0.43 -0.13,-0.93 -0.07,-1.53 0.07,-0.6 0.2,-1.1 0.4,-1.49 2.29,0.4 4.02,0.4 5.21,0 1.23,-0.43 2.06,-0.93 2.52,-1.53 0.43,-0.6 0.56,-1.26 0.33,-1.93 -0.37,-1.06 -1.39,-1.63 -3.09,-1.69l-2.29 -0.07c-3.45,-0.13 -5.54,-1.33 -6.34,-3.62 -0.56,-1.66 -0.4,-3.15 0.46,-4.51 0.86,-1.36 2.26,-2.36 4.18,-3.02 1.96,-0.66 4.05,-0.9 6.24,-0.66 0.17,0.5 0.23,1.03 0.2,1.63 0,0.6 -0.17,1.1 -0.4,1.49 -1.99,-0.2 -3.72,-0.07 -5.21,0.43 -0.8,0.27 -1.36,0.66 -1.69,1.23 -0.33,0.53 -0.4,1.1 -0.2,1.69 0.2,0.56 0.53,0.96 0.96,1.16 0.46,0.2 1.13,0.3 2.02,0.37l2.46 0.1c3.45,0.13 5.61,1.43 6.44,3.85 0.56,1.66 0.37,3.19 -0.56,4.58 -0.96,1.39 -2.52,2.46 -4.71,3.22 -2.19,0.73 -4.48,0.86 -6.9,0.33l0.03 -0.03zm-90.48 11.82l0.8 -16 -3.29 -0.1c-0.03,-0.2 -0.07,-0.43 -0.07,-0.7 0,-0.27 0,-0.5 0,-0.76 0,-0.6 0.1,-1.06 0.23,-1.49l3.09 0.2c-0.07,-1.56 -0.1,-2.69 -0.07,-3.39 0.03,-0.86 0.23,-1.66 0.53,-2.36 0.3,-0.7 0.73,-1.33 1.26,-1.83 0.53,-0.5 1.16,-0.9 1.89,-1.16 0.73,-0.27 1.53,-0.37 2.42,-0.33 1.79,0.1 3.42,0.46 4.91,1.13 -0.07,1.13 -0.4,2.02 -1.06,2.62 -0.56,-0.2 -1.13,-0.37 -1.63,-0.5 -0.5,-0.13 -1,-0.2 -1.43,-0.23 -1.06,-0.07 -1.86,0.2 -2.36,0.73 -0.5,0.53 -0.76,1.39 -0.83,2.52 0,0.43 0,0.9 0,1.36 0,0.5 0.07,1.03 0.1,1.59l5.38 0.2c0.03,0.23 0.07,0.46 0.07,0.7 0,0.23 0,0.5 0,0.8 0,0.27 -0.03,0.5 -0.07,0.76 -0.03,0.27 -0.1,0.46 -0.13,0.66l-5.11 -0.33 -0.8 16c-0.27,0.03 -0.6,0.07 -0.93,0.07 -0.33,0 -0.66,0 -1.03,0 -0.37,0 -0.7,-0.03 -1.03,-0.1 -0.33,-0.03 -0.63,-0.1 -0.86,-0.17l0 0.1zm-38.63 -5.64c1.63,0.2 3.19,-0.4 4.75,-1.73l0.43 -3.59c-0.5,-0.1 -1.03,-0.2 -1.56,-0.3 -0.56,-0.1 -1.13,-0.17 -1.73,-0.23 -1.16,-0.13 -2.09,0.03 -2.82,0.53 -0.7,0.5 -1.13,1.2 -1.23,2.12 -0.1,0.9 0,1.66 0.43,2.22 0.4,0.56 1,0.9 1.76,1l-0.03 -0.03zm9.29 1.99c-0.4,0.86 -1,1.49 -1.73,1.83 -1.46,-0.46 -2.36,-1.36 -2.75,-2.72 -1.99,1.49 -3.95,2.12 -5.84,1.93 -0.96,-0.1 -1.79,-0.37 -2.46,-0.76 -0.7,-0.4 -1.23,-0.86 -1.66,-1.46 -0.43,-0.56 -0.73,-1.23 -0.9,-1.93 -0.17,-0.7 -0.2,-1.43 -0.1,-2.16 0.27,-2.06 1.1,-3.55 2.56,-4.45 1.46,-0.9 3.29,-1.23 5.48,-0.96 0.63,0.07 1.26,0.17 1.86,0.27 0.6,0.1 1.2,0.27 1.76,0.43l0.17 -1.49c0.27,-2.26 -0.63,-3.52 -2.69,-3.78 -1.43,-0.17 -3.48,0.07 -6.11,0.76 -0.66,-0.73 -0.93,-1.73 -0.8,-2.99 2.72,-0.86 5.41,-1.13 8.03,-0.8 1.96,0.23 3.42,0.93 4.38,2.12 0.96,1.16 1.33,2.82 1.06,4.95l-0.93 7.77c-0.2,1.56 0.03,2.69 0.66,3.39l-0 0.07zm-56.75 -10.02c0.17,0.8 0.17,1.66 0.03,2.56 -0.23,1.66 -0.96,3.09 -2.09,4.32 -1.16,1.23 -2.69,1.99 -4.58,2.36 -0.33,-0.23 -0.53,-0.53 -0.66,-0.9 -0.1,-0.37 -0.13,-0.76 -0.07,-1.2 0.93,-0.23 1.76,-0.66 2.42,-1.26 0.66,-0.6 1.1,-1.26 1.26,-2.06 -0.46,-0.2 -0.83,-0.37 -1.1,-0.5 -0.27,-0.13 -0.4,-0.3 -0.43,-0.53 0,-0.23 -0.03,-0.46 -0.03,-0.73 0,-0.27 0,-0.6 0.1,-0.96 0.1,-0.56 0.2,-1.03 0.33,-1.33 0.13,-0.3 0.33,-0.5 0.6,-0.53 0.27,-0.07 0.56,-0.1 0.9,-0.1 0.33,0 0.73,0 1.16,0.07 1.03,0.17 1.76,0.43 2.19,0.83l-0.03 -0.04zm24.69 -4.11l0.07 -0.43c0.4,-2.85 -0.5,-4.41 -2.69,-4.75 -1.2,-0.17 -2.22,0.27 -3.02,1.33 -0.83,1.06 -1.39,2.75 -1.73,5.05 -0.63,4.32 0.5,6.71 3.32,7.1 1.39,0.2 3.02,-0.2 4.81,-1.23 0.33,0.27 0.63,0.63 0.86,1.13 0.27,0.5 0.4,0.96 0.46,1.43 -2.12,1.59 -4.51,2.19 -7.17,1.83 -1.33,-0.2 -2.46,-0.6 -3.35,-1.23 -0.9,-0.63 -1.59,-1.43 -2.12,-2.39 -0.5,-0.96 -0.83,-2.09 -0.96,-3.39 -0.13,-1.29 -0.1,-2.66 0.1,-4.15 0.23,-1.53 0.63,-2.85 1.23,-4.02 0.6,-1.13 1.33,-2.06 2.16,-2.75 0.83,-0.7 1.76,-1.2 2.75,-1.49 1,-0.3 2.02,-0.37 3.09,-0.2 1.1,0.17 2.02,0.46 2.82,0.9 0.8,0.46 1.46,1 1.96,1.59 0.53,0.6 0.9,1.29 1.1,2.02 0.2,0.73 0.27,1.46 0.17,2.16 -0.2,1.43 -0.96,2.06 -2.26,1.86 -0.66,-0.1 -1.2,-0.23 -1.59,-0.4l0 0.03zm-38.63 -11.15c0.4,-0.9 0.96,-1.53 1.73,-1.86 1.69,0.63 2.66,1.93 2.95,3.85 1.33,-2.09 3.12,-2.99 5.41,-2.66 0.6,0.1 1.26,0.27 1.96,0.5 -0.2,1.46 -0.7,2.66 -1.46,3.55 -0.2,-0.1 -0.73,-0.23 -1.53,-0.4 -1.73,-0.23 -3.19,0.53 -4.45,2.29l-1.76 12.31c-0.5,0.03 -1.16,0 -1.96,-0.13 -0.83,-0.13 -1.46,-0.27 -1.93,-0.43l1.86 -12.94c0.23,-1.73 -0.03,-3.09 -0.83,-4.08l-0 0zm45.04 6.44c0.37,-0.9 0.96,-1.53 1.73,-1.89 1.69,0.6 2.69,1.89 2.99,3.82 1.29,-2.12 3.12,-3.02 5.41,-2.69 0.6,0.07 1.26,0.23 1.96,0.5 -0.2,1.46 -0.66,2.66 -1.43,3.59 -0.23,-0.1 -0.73,-0.23 -1.53,-0.4 -1.73,-0.23 -3.19,0.53 -4.41,2.32l-1.66 12.31c-0.5,0.03 -1.16,0 -1.96,-0.1 -0.83,-0.1 -1.46,-0.23 -1.93,-0.4l1.73 -12.98c0.23,-1.73 -0.07,-3.09 -0.86,-4.08l-0.03 -0zm-55.89 -7.04c-2.72,-0.37 -4.41,1.73 -5.01,6.31 -0.6,4.55 0.43,7.04 3.19,7.4 2.75,0.37 4.45,-1.73 5.05,-6.27 0.6,-4.55 -0.46,-7.04 -3.22,-7.4l-0 -0.03zm3.52 15.33c-1.56,1.2 -3.48,1.66 -5.74,1.33 -1.29,-0.17 -2.42,-0.56 -3.39,-1.16 -0.93,-0.6 -1.69,-1.39 -2.29,-2.36 -0.56,-0.96 -0.96,-2.06 -1.16,-3.32 -0.2,-1.26 -0.2,-2.62 0,-4.08 0.2,-1.46 0.56,-2.79 1.1,-3.95 0.53,-1.16 1.2,-2.12 1.99,-2.89 0.8,-0.76 1.76,-1.33 2.82,-1.66 1.06,-0.33 2.26,-0.4 3.59,-0.23 1.29,0.17 2.42,0.56 3.39,1.16 0.93,0.6 1.69,1.39 2.29,2.36 0.56,0.96 0.96,2.06 1.16,3.32 0.2,1.26 0.2,2.62 0,4.08 -0.46,3.39 -1.69,5.84 -3.72,7.4l-0.04 0zm-21.21 -17.19c-1.53,-0.17 -2.99,0.37 -4.38,1.66l-1.26 10.52c0.9,0.43 1.96,0.7 3.19,0.83 1.26,0.17 2.36,-0.33 3.32,-1.39 0.96,-1.1 1.56,-2.72 1.83,-4.88 0.27,-2.19 0.13,-3.85 -0.37,-4.91 -0.5,-1.1 -1.26,-1.69 -2.32,-1.83zm-9.76 13.84l3.22 -26.65 0.27 -0.2 1.46 0.17c0.8,0.1 1.29,0.37 1.56,0.8 0.27,0.43 0.37,1.1 0.23,1.96l-1 8.26c1.66,-1.1 3.48,-1.53 5.44,-1.29 2.02,0.23 3.48,1.29 4.35,3.19 0.9,1.86 1.16,4.35 0.76,7.47 -0.17,1.46 -0.56,2.75 -1.13,3.85 -0.56,1.1 -1.29,2.02 -2.12,2.75 -0.86,0.73 -1.83,1.26 -2.89,1.56 -1.06,0.3 -2.19,0.4 -3.39,0.23 -2.42,-0.3 -4.68,-1 -6.8,-2.09l0.03 0zm110.69 14.54c0.07,-0.43 0.23,-0.9 0.53,-1.43 0.3,-0.53 0.63,-0.93 0.96,-1.2 1.93,1.26 3.52,1.96 4.78,2.06 1.29,0.1 2.26,-0.03 2.92,-0.43 0.66,-0.4 1,-0.93 1.06,-1.63 0.1,-1.13 -0.63,-2.02 -2.19,-2.79l-2.06 -0.96c-3.12,-1.46 -4.58,-3.42 -4.38,-5.81 0.13,-1.76 0.86,-3.09 2.19,-3.98 1.33,-0.9 3.02,-1.26 5.05,-1.13 2.06,0.17 4.05,0.76 6.01,1.86 -0.03,0.5 -0.2,1.03 -0.43,1.56 -0.27,0.53 -0.56,0.96 -0.96,1.23 -1.73,-0.96 -3.39,-1.53 -4.95,-1.66 -0.83,-0.07 -1.53,0.1 -2.06,0.46 -0.53,0.37 -0.83,0.86 -0.86,1.46 -0.03,0.6 0.1,1.1 0.43,1.46 0.33,0.37 0.93,0.73 1.73,1.13l2.22 1.06c3.12,1.49 4.58,3.52 4.38,6.07 -0.13,1.76 -0.93,3.09 -2.32,3.98 -1.43,0.9 -3.29,1.26 -5.58,1.1 -2.32,-0.17 -4.45,-1 -6.47,-2.42l-0 0zm-123.5 -17.46c1.63,0.13 3.19,-0.53 4.68,-1.93l0.3 -3.62c-0.5,-0.1 -1.03,-0.17 -1.59,-0.23 -0.56,-0.07 -1.13,-0.13 -1.76,-0.17 -1.16,-0.1 -2.09,0.13 -2.79,0.63 -0.7,0.53 -1.06,1.26 -1.16,2.19 -0.07,0.9 0.1,1.66 0.53,2.19 0.43,0.56 1.03,0.86 1.79,0.93zm9.36 1.59c-0.37,0.9 -0.93,1.53 -1.63,1.89 -1.46,-0.4 -2.42,-1.26 -2.85,-2.59 -1.93,1.59 -3.85,2.29 -5.74,2.16 -0.96,-0.07 -1.79,-0.3 -2.49,-0.66 -0.7,-0.37 -1.26,-0.83 -1.73,-1.39 -0.46,-0.56 -0.76,-1.2 -0.96,-1.86 -0.2,-0.7 -0.27,-1.39 -0.2,-2.12 0.17,-2.09 0.96,-3.59 2.36,-4.55 1.43,-0.96 3.22,-1.36 5.44,-1.2 0.63,0.03 1.26,0.13 1.86,0.2 0.6,0.1 1.2,0.2 1.76,0.33l0.13 -1.49c0.17,-2.29 -0.76,-3.48 -2.85,-3.65 -1.46,-0.1 -3.48,0.23 -6.07,1.03 -0.7,-0.7 -1,-1.66 -0.93,-2.95 2.69,-0.96 5.34,-1.33 8,-1.13 1.99,0.17 3.48,0.8 4.48,1.93 1,1.13 1.43,2.75 1.26,4.91l-0.6 7.8c-0.13,1.56 0.13,2.69 0.8,3.35l-0.04 0zm-19.22 -2.56l1.39 0.07c0.2,0.66 0.27,1.23 0.27,1.73 0,0.5 -0.07,0.86 -0.17,1.16 -1.03,0.13 -2.12,0.17 -3.25,0.1 -2.52,-0.13 -3.72,-1.49 -3.59,-4.12l1.2 -24 0.27 -0.2 1.49 0.07c0.8,0.03 1.33,0.27 1.63,0.66 0.3,0.4 0.43,1.06 0.37,1.96l-1.06 20.81c-0.07,1.13 0.4,1.73 1.39,1.79l0.07 -0.03zm171.5 5.05c0.27,-0.93 0.76,-1.63 1.49,-2.06 1.76,0.4 2.89,1.56 3.42,3.45 1.06,-2.26 2.75,-3.35 5.05,-3.32 0.6,0 1.29,0.1 2.02,0.27 0,1.46 -0.37,2.72 -1.03,3.72 -0.23,-0.07 -0.76,-0.17 -1.56,-0.23 -1.73,0 -3.12,0.9 -4.12,2.82l-0.23 12.41c-0.5,0.1 -1.13,0.13 -1.96,0.13 -0.83,0 -1.49,-0.07 -1.96,-0.2l0.23 -13.08c0,-1.73 -0.43,-3.05 -1.33,-3.95l-0.03 0.03zm-198.08 -19.05c-2.42,0.03 -3.68,1.86 -3.78,5.44l7.7 -0.13 0 -0.5c-0.03,-1.46 -0.37,-2.62 -1.03,-3.52 -0.63,-0.9 -1.59,-1.33 -2.89,-1.29l0 0zm7.5 8.1l-11.22 0.23c0.1,1.76 0.5,3.09 1.2,4.02 0.7,0.93 1.83,1.36 3.45,1.36 0.76,0 1.59,-0.13 2.46,-0.4 0.86,-0.23 1.76,-0.63 2.69,-1.16 0.63,0.56 1.1,1.39 1.29,2.49 -1.99,1.46 -4.38,2.22 -7.14,2.26 -1.46,0 -2.69,-0.2 -3.68,-0.7 -1,-0.5 -1.83,-1.16 -2.46,-2.06 -0.63,-0.86 -1.1,-1.93 -1.43,-3.15 -0.3,-1.23 -0.46,-2.56 -0.5,-3.98 0,-1.39 0.13,-2.69 0.46,-3.92 0.33,-1.23 0.83,-2.26 1.46,-3.12 0.63,-0.86 1.46,-1.56 2.42,-2.09 0.96,-0.53 2.06,-0.8 3.29,-0.8 1.23,0 2.32,0.17 3.29,0.53 0.96,0.4 1.79,0.93 2.46,1.66 0.66,0.7 1.2,1.56 1.56,2.56 0.37,1 0.56,2.09 0.56,3.25 0,0.5 0,1 0,1.49 0,0.5 -0.1,1 -0.17,1.49l0 0.04zm205.52 21.84l-0.53 -8.86c-0.1,-1.53 -0.37,-2.66 -0.86,-3.39 0.6,-0.6 1.39,-0.93 2.42,-1 1.39,-0.1 2.16,0.7 2.26,2.32l0.6 9.69c0.07,1.33 0.3,2.26 0.66,2.79 0.37,0.53 0.96,0.8 1.79,0.73 0.83,-0.07 1.66,-0.3 2.52,-0.8 0.83,-0.46 1.56,-1.06 2.22,-1.83l-0.8 -13.24c0.7,-0.13 1.36,-0.23 1.93,-0.27 0.6,-0.03 1.26,0 2.02,0l0.83 13.48c0.1,1.79 0.53,2.95 1.29,3.55 -0.23,0.93 -0.66,1.63 -1.36,2.06 -1.63,-0.17 -2.72,-1.03 -3.35,-2.56 -1.86,1.99 -3.92,3.05 -6.17,3.22 -1.66,0.1 -2.95,-0.4 -3.88,-1.49 -0.9,-1.1 -1.43,-2.59 -1.53,-4.45l-0.07 0.03zm-230.08 -35.12c-0.27,-0.43 -0.4,-1 -0.43,-1.66 -0.07,-1.03 0.1,-1.66 0.46,-1.89 0.37,-0.2 1,-0.37 1.89,-0.43 1.03,-0.03 1.66,0.07 1.96,0.27 0.3,0.2 0.46,0.8 0.56,1.76 0,0.93 -0.1,1.49 -0.37,1.79 -0.27,0.27 -0.9,0.46 -1.93,0.53 -1,0.07 -1.73,-0.07 -2.16,-0.37l0 0zm5.18 6.54l0.96 15.53c-0.46,0.13 -1.13,0.23 -1.96,0.27 -0.83,0.07 -1.49,0.03 -1.96,0l-0.86 -13.94c-0.03,-0.7 -0.2,-1.2 -0.46,-1.49 -0.27,-0.3 -0.7,-0.43 -1.33,-0.37l-0.43 0c-0.17,-0.53 -0.27,-1 -0.27,-1.36 0,-0.37 0,-0.86 0.1,-1.46 0.83,-0.17 1.63,-0.27 2.39,-0.3l0.53 0c0.96,-0.1 1.73,0.17 2.32,0.73 0.6,0.56 0.9,1.39 0.96,2.42l0 -0.03zm253.64 20.64l0 -0.43c-0.37,-2.85 -1.63,-4.15 -3.82,-3.92 -1.2,0.13 -2.06,0.8 -2.59,2.06 -0.53,1.23 -0.66,2.99 -0.43,5.31 0.46,4.35 2.12,6.37 4.98,6.07 1.39,-0.17 2.85,-0.96 4.35,-2.39 0.37,0.17 0.76,0.46 1.13,0.86 0.37,0.43 0.63,0.83 0.8,1.26 -1.66,2.06 -3.82,3.25 -6.47,3.55 -1.33,0.13 -2.52,0 -3.55,-0.37 -1.03,-0.4 -1.93,-1 -2.66,-1.79 -0.73,-0.83 -1.33,-1.83 -1.79,-3.02 -0.46,-1.2 -0.76,-2.56 -0.93,-4.05 -0.17,-1.53 -0.1,-2.92 0.2,-4.18 0.3,-1.26 0.76,-2.32 1.39,-3.19 0.63,-0.9 1.39,-1.59 2.29,-2.12 0.9,-0.53 1.89,-0.86 2.95,-0.96 1.1,-0.13 2.06,-0.07 2.95,0.17 0.9,0.23 1.66,0.6 2.29,1.06 0.66,0.46 1.16,1.03 1.56,1.69 0.4,0.66 0.63,1.36 0.7,2.06 0.17,1.43 -0.43,2.22 -1.73,2.36 -0.66,0.07 -1.2,0.07 -1.66,0l0.03 -0.03zm-270.14 -6.51c1.63,-0.17 2.92,-1.13 3.88,-2.82l-1.03 -9.39c-1.53,-0.76 -2.79,-1.1 -3.82,-0.96 -1.13,0.13 -2.02,0.8 -2.62,2.02 -0.6,1.23 -0.8,2.92 -0.56,5.14 0.23,2.19 0.73,3.78 1.49,4.75 0.76,0.96 1.66,1.39 2.62,1.29l0.03 -0.03zm-1.92 -16.26c1.36,-0.13 2.82,0.1 4.41,0.8l-1.06 -9.86 0.23 -0.27 1.49 -0.17c0.8,-0.1 1.36,0.03 1.69,0.4 0.33,0.33 0.56,0.96 0.66,1.89l2.16 20.01c0.2,1.76 0.66,2.92 1.46,3.48 -0.07,0.37 -0.2,0.76 -0.43,1.2 -0.23,0.43 -0.5,0.76 -0.76,0.96 -1.46,-0.13 -2.56,-0.8 -3.25,-2.02 -1.29,1.89 -3.02,2.92 -5.18,3.15 -2.16,0.23 -3.88,-0.46 -5.18,-2.06 -1.29,-1.63 -2.12,-3.95 -2.46,-7.04 -0.17,-1.53 -0.13,-2.92 0.13,-4.18 0.27,-1.23 0.66,-2.32 1.26,-3.22 0.56,-0.9 1.26,-1.63 2.12,-2.16 0.83,-0.53 1.76,-0.83 2.72,-0.93l-0.03 -0zm284.77 12.71c0.2,0.4 0.37,0.86 0.5,1.43 0.13,0.53 0.17,1.03 0.13,1.46l-4.61 0.9 2.39 11.12c0.23,1.1 0.86,1.53 1.89,1.29l2.56 -0.56c0.33,0.5 0.53,1.06 0.66,1.63 0.13,0.56 0.17,0.93 0.17,1.13 -1.39,0.5 -2.79,0.86 -4.12,1.16 -2.62,0.56 -4.18,-0.43 -4.75,-2.99l-2.56 -11.92 -2.75 0.63c-0.2,-0.4 -0.33,-0.86 -0.46,-1.36 -0.1,-0.5 -0.17,-1 -0.17,-1.49l2.79 -0.53 -0.7 -3.29c-0.2,-0.9 -0.17,-1.56 0.03,-1.99 0.23,-0.43 0.7,-0.73 1.49,-0.9l1.46 -0.3 0.33 0.2 1.2 5.51 4.55 -1.1 -0.03 -0.03zm-303.56 -7.3c-2.69,0.56 -3.55,3.12 -2.59,7.63 0.96,4.51 2.79,6.47 5.51,5.87 2.72,-0.6 3.59,-3.12 2.62,-7.63 -0.96,-4.51 -2.82,-6.47 -5.54,-5.87l0 0zm8.46 13.21c-1.06,1.66 -2.72,2.72 -4.98,3.22 -1.29,0.27 -2.49,0.3 -3.59,0.03 -1.1,-0.23 -2.06,-0.73 -2.95,-1.43 -0.86,-0.7 -1.59,-1.63 -2.22,-2.72 -0.6,-1.1 -1.06,-2.39 -1.39,-3.85 -0.3,-1.43 -0.4,-2.79 -0.3,-4.08 0.1,-1.26 0.4,-2.42 0.9,-3.42 0.5,-1 1.2,-1.86 2.09,-2.52 0.9,-0.66 1.99,-1.16 3.29,-1.43 1.29,-0.27 2.49,-0.3 3.59,-0.03 1.1,0.23 2.06,0.73 2.95,1.43 0.86,0.7 1.63,1.63 2.22,2.75 0.63,1.13 1.1,2.39 1.39,3.85 0.73,3.32 0.37,6.07 -1,8.2l0 0zm300.34 6.37l-2.36 -8.56c-0.4,-1.46 -0.93,-2.52 -1.53,-3.12 0.46,-0.7 1.2,-1.2 2.16,-1.46 1.36,-0.37 2.26,0.23 2.69,1.83l2.59 9.36c0.37,1.26 0.76,2.12 1.23,2.59 0.46,0.46 1.1,0.56 1.93,0.33 0.8,-0.23 1.56,-0.66 2.29,-1.29 0.73,-0.63 1.33,-1.39 1.79,-2.26l-3.52 -12.81c0.66,-0.3 1.26,-0.5 1.83,-0.66 0.56,-0.17 1.23,-0.3 1.99,-0.4l3.59 13.01c0.46,1.73 1.13,2.79 1.99,3.22 0,0.96 -0.33,1.73 -0.9,2.29 -1.63,0.17 -2.89,-0.43 -3.82,-1.79 -1.43,2.36 -3.22,3.82 -5.38,4.41 -1.63,0.43 -2.99,0.23 -4.08,-0.66 -1.13,-0.9 -1.93,-2.22 -2.42,-4.05l-0.07 0.03zm-325.3 -14.5l-0.8 -2.72 -2.16 -7.8c0.5,-0.23 1.13,-0.46 1.96,-0.7 0.8,-0.23 1.49,-0.37 2.02,-0.4l6.9 25.13c-0.53,0.27 -1.2,0.5 -1.96,0.7 -0.76,0.2 -1.43,0.33 -2.02,0.4l-2.36 -8.6 -0.7 -2.72 -2.06 0.6 -6.17 1.69 -2.09 0.53 0.8 2.72 2.36 8.6c-0.5,0.23 -1.13,0.46 -1.93,0.7 -0.8,0.23 -1.46,0.33 -1.96,0.4l-6.9 -25.13c0.46,-0.23 1.1,-0.46 1.89,-0.66 0.8,-0.23 1.46,-0.37 1.99,-0.4l2.16 7.8 0.7 2.72 2.09 -0.6 6.17 -1.69 2.06 -0.53 0 -0.03z"/>
  </g>
  <polygon class="fil1" points="385.2,256.42 385.07,256.29 328.14,202.25 287.69,240.66 238.03,193.56 188.41,240.66 147.95,202.25 91.7,255.66 90.9,256.42 "/>
  <rect class="fil6" x="-0" y="-0" width="474.6" height="474.6"/>
 </g>
</svg>
