<?xml version="1.0" encoding="UTF-8"?>
<svg id="Capa_2" data-name="Capa 2" xmlns="http://www.w3.org/2000/svg" viewBox="0 0 199.16 260.1">
  <defs>
    <style>
      .cls-1 {
        fill: #294161;
      }

      .cls-1, .cls-2, .cls-3, .cls-4, .cls-5 {
        stroke-width: 0px;
      }

      .cls-2 {
        fill: #1e804b;
        fill-rule: evenodd;
      }

      .cls-3 {
        fill: #f1f1f1;
      }

      .cls-4 {
        fill: #fff;
      }

      .cls-5 {
        fill: #c29616;
      }
    </style>
  </defs>
  <g id="Capa_1-2" data-name="Capa 1">
    <g>
      <g>
        <path class="cls-5" d="M104.93,22.07H21.4v107.27c0,42.84,31.66,66.53,58.43,86.57,6.95,5.2,13.6,10.17,19.38,15.2,6.12-5.23,13.08-10.22,20.36-15.44,26.83-19.22,58.19-41.69,58.19-86.33V22.07h-72.84Z"/>
        <path class="cls-5" d="M175.93,23.23H23.23v106.12c0,42.02,31.6,65.67,58.32,85.67,6.25,4.68,12.26,9.18,17.67,13.7,5.77-4.74,12.11-9.28,18.69-14,26.75-19.16,58.01-41.56,58.01-85.37V23.23Z"/>
        <g>
          <path class="cls-5" d="M91.24,249.25c-6.15-5.78-13.89-11.57-22.08-17.7C39.46,209.32,2.5,181.66,2.5,129.35V2.5h194.17v126.85c0,54.45-36.97,80.93-66.68,102.22-8.61,6.17-16.74,12-22.9,17.73l-7.93,7.39-7.91-7.43Z"/>
          <path class="cls-4" d="M194.16,5v124.35c0,53.16-35.37,78.5-65.63,100.18-8.66,6.21-16.88,12.09-23.15,17.93l-6.22,5.79-6.2-5.83c-6.25-5.87-14.04-11.7-22.29-17.88C40.58,207.04,5,180.41,5,129.35V5h189.16M199.16,0H0v129.35c0,53.56,37.52,81.64,67.66,104.2,8.14,6.09,15.82,11.84,21.87,17.52l6.2,5.83,3.41,3.2,3.42-3.19,6.22-5.79c6.04-5.62,14.11-11.4,22.65-17.52,15.04-10.78,32.1-22.99,45.15-39.22,15.19-18.88,22.57-40.15,22.57-65.03V0h0Z"/>
        </g>
        <path class="cls-1" d="M176.41,160.96c-18.53,41.92-49.06,57.42-72.63,75.93-23.32-18.48-71.04-37.96-80.55-75.93h153.18Z"/>
        <path class="cls-2" d="M23.91,172.95l6.91-11.99h8.03l-9.95,22.46c1.81,2.97,3.88,5.79,6.15,8.46l11.79-30.92h8.03l-12.17,38.8c2.71,2.47,5.57,4.82,8.53,7.06l11.63-45.86h8.02l-9.79,52.79c3.52,2.33,7.08,4.55,10.59,6.71l7.2-59.5h8.04l-4.01,66.37c4.44,2.75,8.59,5.45,12.22,8.15l-.23-74.53h7.97l3.83,72.08c3.73-2.51,7.92-5.02,12.31-7.6l-8.11-64.48h8l11.02,58.08c3.38-2.01,6.77-4.09,10.11-6.27l-13.12-51.82h7.98l14.25,45.44c2.94-2.22,5.76-4.56,8.43-7.04l-14.65-38.4h7.99l13.72,30.96c2.17-2.62,4.14-5.4,5.87-8.35l-11.55-22.61h7.99l8.39,11.89c1.14-3.49,1.96-7.2,2.4-11.16l-.9-.75H22.94l-1.54,1.57c.5,3.67,1.35,7.14,2.51,10.43"/>
        <path class="cls-1" d="M104.93,22.07H21.4v107.27c0,42.84,31.66,66.53,58.43,86.57,6.95,5.2,13.6,10.17,19.38,15.2,6.12-5.23,13.08-10.22,20.36-15.44,26.83-19.22,58.19-41.69,58.19-86.33V22.07h-72.84ZM16.06,11.38h172.4v117.96c0,50.13-33.77,74.32-62.66,95.02-8.54,6.12-16.64,11.92-22.97,17.82l-3.65,3.4-3.64-3.42c-6.22-5.84-13.93-11.62-22.09-17.72-28.74-21.51-62.74-46.95-62.74-95.09V11.38h5.35Z"/>
        <polyline class="cls-1" points="182.1 161.83 182.03 161.76 150.1 131.47 127.41 153 99.58 126.59 71.75 153 49.06 131.47 17.51 161.41 17.07 161.83"/>
      </g>
      <g>
        <path class="cls-3" d="M42.17,64.49v-26.36h26.36v14.09c0,8.74-5.88,12.27-11.77,12.27h-14.59ZM52.45,59.5c4.7,0,5.82-3.5,5.82-6.62v-10.35h-5.83v16.97Z"/>
        <path class="cls-3" d="M98.51,42.79v17.13c0,2.42-1.53,4.58-4.05,4.58h-18.26c-2.53,0-4.05-2.16-4.05-4.58v-17.13c0-2.51,1.67-4.66,4.05-4.66h18.26c2.38,0,4.05,2.15,4.05,4.66ZM82.65,42.53v17.32h5.36v-17.32h-5.36Z"/>
        <path class="cls-3" d="M127.31,42.59h0c0,.07,0,.13,0,.2v17.13c0,2.42-2.54,4.58-5.17,4.58h-15.13c-2.63,0-5.17-2.16-5.17-4.58v-6.39h10.94v6.31h3.59v-17.32h-11.42v-4.39h22.36v4.46Z"/>
        <path class="cls-3" d="M156.99,42.79v17.13c0,2.42-1.53,4.58-4.05,4.58h-18.26c-2.53,0-4.05-2.16-4.05-4.58v-17.13c0-2.51,1.67-4.66,4.05-4.66h18.26c2.38,0,4.05,2.15,4.05,4.66ZM141.13,42.53v17.32h5.36v-17.32h-5.36Z"/>
      </g>
      <path class="cls-1" d="M154.76,81.3c-5.53,1.77-37.06,4.35-55.59,4.35s-44.81-2.69-47.68-3.13c-2.87-.44-5.42-.8-8.1-1.66-2.68-.85-2.03.91-2.03.91,0,0,.7,2.17,1,2.8.95,3.34,2.95,3.86,2.95,3.86,0,0,.49.47,3.2.47s2.93,1.92,2.93,1.92c0,0,.7,2.15.81,3.03.49,3.11,2.76,2.8,2.76,2.8l11.22,1.16-.65,6.06-17.07-1.01v7.92l16.42-.31-8.41,50.31,12.06.21,3.05-51.3,56.28.04,3.21,51.25h11.5l-7.68-50.71,16.09.7v-7.92l-17.03.89-.28-6.21s4.67-.35,9.31-.82c3.13-.12,4.1-2.17,4.1-2.17l1.63-5.71s2.07-.43,4.63-.62c2.56-.19,3.05-1.9,3.05-1.9l1.18-2.95s1.54-3.65-2.86-2.24ZM128.16,104.08l-56.49.31v-6.29h56.49v5.98Z"/>
      <g>
        <circle class="cls-3" cx="31.87" cy="51.31" r="4.38"/>
        <circle class="cls-3" cx="167.3" cy="51.31" r="4.38"/>
      </g>
    </g>
  </g>
</svg>