<?xml version="1.0" encoding="UTF-8"?>
<svg id="Capa_2" data-name="Capa 2" xmlns="http://www.w3.org/2000/svg" viewBox="0 0 195.61 250.7">
  <defs>
    <style>
      .cls-1 {
        fill: #008043;
      }

      .cls-1, .cls-2, .cls-3, .cls-4 {
        stroke-width: 0px;
      }

      .cls-2 {
        fill: #fff;
      }

      .cls-3 {
        fill: #18355a;
      }

      .cls-4 {
        fill: #cb9b0b;
      }
    </style>
  </defs>
  <g id="Capa_1-2" data-name="Capa 1">
    <g>
      <path class="cls-2" d="M5.88,0h189.73v126.28c0,53.66-37.16,79.55-68.95,101.71-9.4,6.55-18.32,12.76-25.28,19.07l-4.02,3.64c-9.19-8.41-18.2-15.27-28.32-22.64C37.41,205.04,0,177.81,0,126.28V0h5.88Z"/>
      <path class="cls-1" d="M98.09,234.04s81.75-43.67,81.75-100.37V17.3H16.34v116.37c0,56.69,81.75,100.37,81.75,100.37"/>
      <rect class="cls-2" x="46.93" y="123.45" width="8.5" height="6.95"/>
      <rect class="cls-2" x="80.82" y="142.67" width="68.42" height="6.96"/>
      <rect class="cls-2" x="58.15" y="161.89" width="32.95" height="6.96"/>
      <path class="cls-2" d="M87.79,123.5h32.77c3.73,0,7.61,1.46,10.86,3.82,3.2,2.32,5.85,5.56,7.17,9.16l4.82,13.11h-37.72c-3.73,0-7.61-1.46-10.86-3.82-3.2-2.32-5.85-5.56-7.18-9.16l-2.26-6.16-11.08-6.95h13.48ZM120.55,130.37h-27.82l1.44,3.9c.84,2.29,2.6,4.41,4.76,5.97,2.11,1.52,4.53,2.47,6.76,2.47h27.82l-1.43-3.9c-.84-2.29-2.6-4.41-4.76-5.97-2.11-1.53-4.53-2.47-6.76-2.47Z"/>
      <path class="cls-2" d="M91.23,162.07h1.73c2.23,0,4.65-.95,6.76-2.48,2.15-1.56,3.92-3.68,4.76-5.97l1.43-3.9h-1.73c-2.23,0-4.66.95-6.76,2.48-2.16,1.56-3.92,3.68-4.76,5.97l-1.44,3.9ZM92.96,168.93h-11.63l4.82-13.1c1.33-3.6,3.98-6.84,7.18-9.16,3.25-2.35,7.13-3.82,10.86-3.82h11.63l-4.82,13.1c-1.32,3.6-3.97,6.84-7.17,9.16-3.25,2.35-7.13,3.82-10.86,3.82Z"/>
      <path class="cls-2" d="M70.43,123.63h6.68c3.73,0,7.61,1.46,10.86,3.82,3.2,2.32,5.85,5.56,7.18,9.16l4.82,13.1h-11.63c-3.73,0-7.61-1.46-10.86-3.82-3.2-2.32-5.85-5.56-7.18-9.16l-4.82-13.1h4.95ZM77.11,130.5h-1.73l1.43,3.9c.84,2.29,2.6,4.41,4.76,5.97,2.11,1.52,4.53,2.47,6.76,2.47h1.73l-1.44-3.9c-.84-2.29-2.6-4.41-4.76-5.97-2.11-1.53-4.53-2.48-6.76-2.48Z"/>
      <path class="cls-2" d="M81.63,104.28h6.68c3.73,0,7.61,1.46,10.86,3.82,3.2,2.32,5.85,5.56,7.18,9.16l4.82,13.1h-11.63c-3.73,0-7.61-1.46-10.86-3.82-3.2-2.32-5.85-5.56-7.17-9.16l-4.82-13.1h4.95ZM88.31,111.15h-1.73l1.43,3.9c.84,2.29,2.6,4.4,4.76,5.97,2.11,1.53,4.53,2.48,6.76,2.48h1.73l-1.44-3.9c-.84-2.29-2.6-4.41-4.76-5.97-2.11-1.53-4.53-2.48-6.76-2.48Z"/>
      <path class="cls-2" d="M73.77,162.07h1.73c2.23,0,4.66-.95,6.76-2.48,2.16-1.56,3.92-3.68,4.76-5.97l1.44-3.9h-1.73c-2.23,0-4.66.95-6.77,2.48-2.16,1.56-3.91,3.68-4.76,5.97l-1.43,3.9ZM75.5,168.93h-11.63l4.82-13.1c1.32-3.6,3.97-6.84,7.18-9.16,3.25-2.35,7.13-3.82,10.86-3.82h11.63l-4.82,13.1c-1.32,3.6-3.97,6.84-7.18,9.16-3.25,2.35-7.13,3.82-10.86,3.82Z"/>
      <rect class="cls-2" x="70.81" y="104.24" width="13.03" height="6.96"/>
      <path class="cls-2" d="M120.2,133.06c1.94,0,3.52,1.56,3.52,3.48s-1.58,3.48-3.52,3.48-3.52-1.56-3.52-3.48,1.58-3.48,3.52-3.48"/>
      <path class="cls-2" d="M137.58,134.26c.13.36.36.72.54,1.07.94,1.88,2.48,3.59,4.3,4.91,2.11,1.52,4.53,2.47,6.77,2.47v6.87c-3.73,0-7.61-1.46-10.86-3.82-3.2-2.32-5.85-5.56-7.18-9.16l-.86-2.33h7.3Z"/>
      <path class="cls-2" d="M71.21,138.78c-.13-.36-.36-.73-.54-1.07-.94-1.88-2.48-3.59-4.3-4.91-2.11-1.53-4.53-2.48-6.76-2.48v-6.87c3.73,0,7.61,1.46,10.86,3.82,3.2,2.32,5.85,5.56,7.17,9.16l.86,2.33h-7.3Z"/>
      <path class="cls-2" d="M69.74,153.52c-.13.36-.36.72-.53,1.07-.94,1.88-2.48,3.59-4.3,4.91-2.11,1.53-4.53,2.48-6.76,2.48v6.87c3.73,0,7.61-1.46,10.86-3.82,3.2-2.32,5.85-5.56,7.18-9.16l.85-2.33h-7.3Z"/>
      <rect class="cls-2" x="46.93" y="161.98" width="7.04" height="6.95"/>
      <path class="cls-2" d="M82.41,119.56c-.13-.36-.36-.72-.54-1.07-.94-1.88-2.48-3.59-4.3-4.91-2.11-1.53-4.53-2.48-6.77-2.48v-6.87c3.73,0,7.62,1.46,10.86,3.82,3.2,2.32,5.85,5.56,7.18,9.16l.86,2.33h-7.3Z"/>
      <rect class="cls-2" x="58.13" y="104.24" width="8.51" height="6.96"/>
      <path class="cls-2" d="M103.98,111.1h1.73c2.23,0,4.66.95,6.77,2.48,2.15,1.57,3.91,3.68,4.76,5.97l1.43,3.9h-1.73c-2.23,0-4.66-.95-6.77-2.48-2.15-1.56-3.91-3.68-4.75-5.97l-1.44-3.9ZM105.71,104.24h-34.9l24.79,4.11,3.31,9c1.33,3.6,3.98,6.84,7.18,9.16,3.25,2.35,7.13,3.82,10.86,3.82h11.63l-4.82-13.11c-1.32-3.6-3.97-6.84-7.18-9.16-3.25-2.35-7.13-3.82-10.86-3.82Z"/>
      <rect class="cls-2" x="59.61" y="123.45" width="61.8" height="6.95"/>
      <rect class="cls-3" x="12.43" y="14.28" width="171.33" height="69.17"/>
      <rect class="cls-4" x="12.82" y="83.22" width="170.55" height="10.14"/>
      <rect class="cls-4" x="35.69" y="179.38" width="124.8" height="10.13"/>
      <polygon class="cls-4" points="133.45 211.31 63.84 211.31 56.88 201.17 139.3 201.17 133.45 211.31"/>
      <path class="cls-3" d="M19.53,19.69v106.52c0,42.54,31.82,66.07,58.72,85.96,6.99,5.17,13.66,10.1,19.47,15.09,6.15-5.19,13.15-10.15,20.46-15.33,26.96-19.09,58.47-41.39,58.47-85.72V19.69H19.53ZM14.16,9.08h173.24v117.14c0,49.78-33.93,73.8-62.96,94.35-8.59,6.08-16.72,11.84-23.08,17.69l-3.67,3.37-3.65-3.39c-6.25-5.8-14-11.53-22.2-17.6-28.88-21.36-63.04-46.62-63.04-94.42V9.08h5.37Z"/>
      <path class="cls-2" d="M48.54,26.34c0-2.27,2.05-4.05,5.57-4.05,3.13,0,6.2,1.2,9.28,3.48l3.23-4.49c-3.47-2.75-7.43-4.25-12.41-4.25-6.79,0-11.67,3.96-11.67,9.85,0,6.28,4.1,8.4,11.38,10.13,6.35,1.45,7.71,2.75,7.71,5.21,0,2.6-2.34,4.29-6.05,4.29-4.25,0-7.52-1.59-10.79-4.39l-3.61,4.25c4.11,3.62,9.03,5.4,14.26,5.4,7.18,0,12.21-3.77,12.21-10.13,0-5.65-3.76-8.21-10.99-9.94-6.55-1.54-8.1-2.7-8.1-5.35"/>
      <rect class="cls-2" x="75.06" y="17.51" width="6.01" height="33.78"/>
      <path class="cls-2" d="M119.93,45.88l-3.86-3.86c-2.93,2.7-5.62,4.39-9.82,4.39-6.54,0-11.28-5.4-11.28-12.06s4.74-11.97,11.28-11.97c3.91,0,6.84,1.69,9.57,4.2l3.86-4.39c-3.27-3.09-7.08-5.26-13.38-5.26-10.35,0-17.63,7.87-17.63,17.52s7.42,17.42,17.38,17.42c6.4,0,10.3-2.32,13.87-5.98"/>
      <path class="cls-2" d="M154.99,45.88l-3.86-3.86c-2.93,2.7-5.61,4.39-9.81,4.39-6.54,0-11.28-5.4-11.28-12.06s4.74-11.97,11.28-11.97c3.91,0,6.84,1.69,9.57,4.2l3.86-4.39c-3.27-3.09-7.08-5.26-13.38-5.26-10.35,0-17.63,7.87-17.63,17.52s7.42,17.42,17.38,17.42c6.4,0,10.3-2.32,13.87-5.98"/>
      <path class="cls-2" d="M49.46,68.19c0-.84.76-1.51,2.07-1.51,1.16,0,2.31.45,3.45,1.3l1.2-1.67c-1.29-1.02-2.76-1.58-4.61-1.58-2.53,0-4.34,1.47-4.34,3.66,0,2.33,1.52,3.12,4.23,3.77,2.36.54,2.87,1.03,2.87,1.94,0,.97-.87,1.6-2.25,1.6-1.58,0-2.8-.6-4.02-1.63l-1.35,1.58c1.53,1.35,3.36,2.01,5.31,2.01,2.67,0,4.54-1.4,4.54-3.77,0-2.1-1.4-3.05-4.08-3.7-2.44-.57-3.02-1-3.02-1.99"/>
      <path class="cls-2" d="M77.74,72.48h-4.37l2.18-5.02,2.2,5.02ZM76.61,64.82h-2.07l-5.6,12.65h2.29l1.31-3.03h6.01l1.28,3.03h2.36l-5.59-12.65Z"/>
      <polygon class="cls-2" points="95.51 77.47 104.42 77.47 104.42 75.46 97.74 75.46 97.74 64.91 95.51 64.91 95.51 77.47"/>
      <polygon class="cls-2" points="121.42 66.96 125.45 66.96 125.45 64.91 115.13 64.91 115.13 66.96 119.17 66.96 119.17 77.47 121.42 77.47 121.42 66.96"/>
      <path class="cls-2" d="M144.99,72.48h-4.38l2.18-5.02,2.2,5.02ZM143.86,64.82h-2.07l-5.6,12.65h2.29l1.31-3.03h6.01l1.29,3.03h2.36l-5.59-12.65Z"/>
      <rect class="cls-2" x="42.22" y="57.52" width="111.74" height="1.83"/>
    </g>
  </g>
</svg>