<?xml version="1.0" encoding="UTF-8"?>
<!DOCTYPE svg PUBLIC "-//W3C//DTD SVG 1.1//EN" "http://www.w3.org/Graphics/SVG/1.1/DTD/svg11.dtd">
<!-- Creator: CorelDRAW -->
<svg xmlns="http://www.w3.org/2000/svg" xml:space="preserve" width="69.7968mm" height="33.3546mm" version="1.1" style="shape-rendering:geometricPrecision; text-rendering:geometricPrecision; image-rendering:optimizeQuality; fill-rule:evenodd; clip-rule:evenodd"
viewBox="0 0 10478.48 5007.47"
 xmlns:xlink="http://www.w3.org/1999/xlink"
 xmlns:xodm="http://www.corel.com/coreldraw/odm/2003"
 data-name="Capa 1">
 <defs>
  <style type="text/css">
   <![CDATA[
    .fil0 {fill:none;fill-rule:nonzero}
    .fil2 {fill:#15824E;fill-rule:nonzero}
    .fil1 {fill:#284161;fill-rule:nonzero}
    .fil3 {fill:#C29617;fill-rule:nonzero}
   ]]>
  </style>
 </defs>
 <g id="Capa_x0020_1">
  <metadata id="CorelCorpID_0Corel-Layer"/>
  <g id="San_x0020_isidro_x0020_Balance_x0020_Color.svg">
   <g>
    <line class="fil0" x1="7299.12" y1="3290.42" x2="7329.52" y2= "3307.93" />
    <g>
     <path class="fil1" d="M8955.94 3016.83c229.01,0 359.99,-157.33 359.99,-376.58 0,-219.23 -130.99,-375.28 -359.99,-375.28 -229.01,0 -359.99,157.33 -359.99,375.28 0,217.96 130.99,376.58 359.99,376.58l0 0zm0 -124.17c-140.75,0 -202.84,-128.22 -202.84,-252.4 0,-124.17 62.08,-251.12 202.84,-251.12 140.76,0 202.85,128.22 202.85,251.12 0,122.88 -62.09,252.4 -202.85,252.4zm-787.59 104.82l157.32 0 0 -339.35c0,-157.33 85.5,-244.11 193.08,-244.11 22.11,0 45.5,4.05 67.62,6.82l0 -151.81c-13.81,-1.29 -23.41,-4.05 -59.33,-4.05 -96.53,0 -190.3,81.43 -208.36,157.33l-2.76 0 0 -137.98 -147.56 0 0 713.15zm-171.16 -984.9l-157.33 0 0 364.23 -2.76 0c-48.27,-78.67 -147.58,-111.83 -237.29,-111.83 -155.86,0 -308.96,113.12 -308.96,371.04 0,213.9 108.89,380.82 333.84,380.82 89.72,0 179.25,-34.45 220.7,-115.88l2.76 0 0 96.53 149.05 0 0 -984.9zm-549.02 635.97c0,-128.22 52.51,-259.41 200.08,-259.41 121.41,0 197.31,93.77 197.31,251.12 0,124.17 -59.32,252.4 -200.08,252.4 -140.75,0 -197.31,-121.41 -197.31,-244.11l0 0zm-451 -486.93l157.33 0 0 -149.05 -157.33 0 0 149.05zm0 835.85l157.33 0 0 -713.15 -157.33 0 0 713.15zm-758.87 -228.99c2.78,168.2 136.53,248.34 315.96,248.34 147.58,0 318.74,-62.08 318.74,-231.77 0,-140.75 -115.88,-182.02 -230.3,-208.36 -115.88,-26.15 -231.77,-37.22 -231.77,-114.41 0,-62.08 84.19,-73.14 129.7,-73.14 68.91,0 131,20.64 144.81,95.26l164.15 0c-19.34,-158.63 -151.81,-219.43 -297.9,-219.43 -129.71,0 -297.91,48.27 -297.91,204.13 0,144.81 113.12,186.26 229.01,211.14 114.41,26.15 229.01,35.91 233.06,118.65 4.05,81.43 -99.29,93.77 -158.63,93.77 -84.19,0 -153.1,-33.16 -161.39,-124.17l-157.33 0 -0.2 0zm-322.78 228.99l172.45 0 0 -984.9 -172.45 0 0 984.9zm1638.95 -1427.62l157.33 0 0 -420.79c0,-104.83 67.62,-187.56 172.44,-187.56 92.49,0 136.53,48.27 139.29,160.1l0 448.43 157.33 0 0 -489.69c0,-160.1 -98.02,-242.82 -252.4,-242.82 -93.79,0 -175.21,48.27 -222.19,126.93l-2.76 -2.76 0 -104.83 -149.05 0 0 713.17 0 -0.18zm-169.69 -525.63c0,-150.32 -146.27,-206.89 -285.56,-206.89 -157.32,0 -313.18,53.79 -324.25,237.29l157.33 0c7,-77.18 68.91,-113.11 157.33,-113.11 63.38,0 147.58,15.1 147.58,96.53 0,92.48 -100.78,79.96 -213.9,100.78 -132.46,15.1 -274.51,44.21 -274.51,222.19 0,139.27 115.88,208.36 244.11,208.36 84.19,0 184.79,-26.17 246.87,-86.95 12.36,64.84 57.86,86.95 121.42,86.95 26.15,0 75.9,-9.58 99.29,-17.87l0 -109.07c-16.57,2.76 -28.93,2.76 -38.69,2.76 -28.93,0 -37.22,-15.1 -37.22,-53.79l0 -367 0.18 -0.2zm-157.32 285.56c0,99.31 -107.6,135.24 -176.51,135.24 -55.08,0 -144.8,-20.64 -144.8,-91.01 0,-82.72 60.61,-107.6 128.22,-118.65 68.89,-12.36 144.8,-11.06 193.08,-42.74l0 117.18 0 -0.02zm-1371.26 -88.25c4.05,244.11 186.26,351.71 411.04,351.71 195.83,0 391.67,-88.25 391.67,-308.96 0,-102.06 -62.08,-212.42 -191.79,-251.1 -51.03,-15.12 -268.97,-71.67 -284.09,-75.9 -70.38,-19.35 -117.18,-57.86 -117.18,-126.95 0,-99.29 100.78,-128.22 180.74,-128.22 118.65,0 204.13,46.99 212.42,173.73l172.44 0.02c0,-205.62 -172.44,-314.49 -378.05,-314.49 -177.96,0 -359.99,92.49 -359.99,289.63 0,102.06 49.75,204.13 217.96,249.63 135.22,37.22 224.95,55.28 293.85,81.43 39.98,15.12 81.43,45.5 81.43,121.41 0,75.9 -56.55,149.05 -208.36,149.05 -137.98,0 -249.63,-59.32 -249.63,-211.13l-172.44 -0.02 0 0.18z"/>
    </g>
    <rect class="fil1" x="4580.02" y="0" width="67.06" height="5007.48"/>
    <g>
     <path class="fil1" d="M5867.63 4415.91l0 -961.33 347.1 0c56,0 104.08,5.7 144.26,17.31 39.98,11.6 72.77,28.01 98.18,49.38 25.43,21.36 43.85,46.98 55.46,76.82 11.6,29.85 17.32,62.45 17.32,98.2 0,35.75 -4.43,63.01 -13.27,87.51 -8.84,24.5 -20.45,44.96 -34.63,61.36 -14.19,16.39 -30.58,29.29 -48.82,38.69 -18.23,9.4 -37.22,15.84 -56.73,19.34l0 2.58c66.69,9.76 116.44,36.11 148.85,78.85 32.43,42.74 48.82,96.17 48.82,160.29 0,49.92 -7.73,92.12 -23.39,126.75 -15.66,34.63 -37.22,62.81 -64.68,84.19 -27.64,21.36 -60.79,36.66 -99.49,46.06 -38.69,9.38 -80.69,13.99 -126.2,13.99l-392.6 0.02 -0.18 0zm90.83 -536.68l229.55 0c47.17,0 86.77,-4.05 118.84,-11.97 32.05,-7.93 57.84,-19.73 77.38,-35.39 19.53,-15.48 33.52,-34.63 42.01,-57.47 8.48,-22.67 12.72,-48.82 12.72,-78.13 0,-29.29 -4.97,-55.82 -14.74,-76.82 -9.76,-20.82 -25.42,-37.77 -46.8,-50.67 -21.36,-12.88 -49.18,-22.28 -83.46,-28 -34.26,-5.7 -76.27,-8.66 -126.2,-8.66l-209.67 0 0 347.1 0.38 0zm0 459.3l231.03 0c49.92,0 93.21,-2.22 130.25,-6.64 36.84,-4.43 67.42,-13.63 91.37,-27.44 23.96,-13.83 42.02,-33.36 53.99,-58.78 11.98,-25.42 18.06,-58.96 18.06,-100.78 0,-41.81 -6.64,-72.21 -20.09,-96.73 -13.27,-24.5 -32.43,-43.48 -57.48,-56.73 -24.88,-13.27 -54.72,-22.47 -89.54,-27.46 -34.63,-4.79 -73.52,-7.36 -116.06,-7.36l-241.71 -0.02 0 381.91 0.18 0.02z"/>
     <path class="fil1" d="M7043.78 4012.8c15.1,-1.85 33.16,-4.41 53.97,-8.11 20.82,-3.5 38.13,-8.47 51.4,-14.74 13.27,-6.26 21.56,-16.75 24.68,-31.32 3.14,-14.74 4.61,-28.18 4.61,-40.71 0,-40.89 -13.09,-74.61 -39.42,-100.78 -26.35,-26.15 -70.58,-39.42 -132.83,-39.42 -27.64,0 -52.88,2.4 -76.09,7.37 -23.22,4.97 -43.48,13.27 -60.8,25.42 -17.31,11.98 -31.5,28.01 -42.74,48.1 -11.23,20.07 -18.42,45.13 -22.1,75.53l-81.44 0c2.78,-40.89 11.98,-75.9 28.01,-104.83 16.03,-28.91 36.66,-52.5 62.08,-70.74 25.43,-18.24 54.72,-31.5 88.07,-39.98 33.34,-8.47 68.73,-12.72 106.13,-12.72 34.63,0 67.42,3.87 98.18,11.42 30.78,7.55 57.48,19.53 80.14,36.11 22.67,16.41 40.53,38.51 53.43,66.15 12.9,27.64 19.35,61.36 19.35,101.52l0 376.57c0,31.14 5.52,51.04 16.77,59.33 11.05,8.48 33.52,6.46 67.42,-6.08l0 62.83c-6.26,1.85 -15.28,4.41 -27.44,8.11 -11.98,3.5 -23.77,5.33 -35.37,5.33 -12.54,0 -24.5,-1.28 -36.12,-4.04 -13.26,-1.85 -23.95,-6.08 -32.05,-12.72 -8.11,-6.64 -14.55,-14.74 -19.35,-23.96 -4.97,-9.4 -8.29,-19.53 -9.94,-30.78 -1.85,-11.05 -2.76,-22.83 -2.76,-35.37 -33.9,37.4 -72.6,65.97 -116.08,85.5 -43.66,19.53 -90.83,29.29 -141.5,29.29 -30.21,0 -59.5,-4.05 -87.51,-11.98 -28,-7.93 -52.68,-20.45 -74.06,-37.4 -21.36,-16.95 -38.31,-37.59 -50.67,-62.08 -12.52,-24.52 -18.6,-53.61 -18.6,-87.52 0,-117.54 80.51,-186.98 241.72,-208.36l110.9 -14.74 0.02 -0.18zm134.86 39.98c-33.9,14.19 -68.17,23.59 -102.81,28.01 -34.63,4.41 -69.46,8.11 -104.1,10.69 -61.34,4.41 -109.25,18.24 -143.51,41.45 -34.27,23.21 -51.4,58.22 -51.4,105.38 0,21.38 4.23,39.8 12.72,55.46 8.47,15.66 19.53,28.55 33.34,38.69 13.81,10.31 29.85,17.87 48.09,22.65 18.24,4.97 36.66,7.37 55.46,7.37 32.05,0 63.19,-4.05 93.41,-11.98 30.21,-7.93 57.11,-20.25 80.69,-36.66 23.59,-16.39 42.56,-37.4 56.73,-62.81 14.19,-25.43 21.38,-55.46 21.38,-90.09l0 -108.15z"/>
     <polygon class="fil1" points="7460.33,4415.91 7460.33,3454.57 7540.47,3454.57 7540.47,4415.91 "/>
     <path class="fil1" d="M8042.51 4012.8c15.1,-1.85 33.16,-4.41 53.97,-8.11 20.82,-3.5 38.15,-8.47 51.4,-14.74 13.27,-6.26 21.56,-16.75 24.7,-31.32 3.12,-14.74 4.59,-28.18 4.59,-40.71 0,-40.89 -13.08,-74.61 -39.42,-100.78 -26.35,-26.15 -70.56,-39.42 -132.83,-39.42 -27.64,0 -52.88,2.4 -76.09,7.37 -23.21,4.97 -43.48,13.27 -60.79,25.42 -17.32,11.98 -31.51,28.01 -42.74,48.1 -11.24,20.07 -18.42,45.13 -22.11,75.53l-81.43 0c2.76,-40.89 11.98,-75.9 28,-104.83 16.03,-28.91 36.66,-52.5 62.09,-70.74 25.42,-18.24 54.71,-31.5 88.07,-39.98 33.34,-8.47 68.71,-12.72 106.11,-12.72 34.63,0 67.44,3.87 98.2,11.42 30.76,7.55 57.48,19.53 80.14,36.11 22.65,16.41 40.53,38.51 53.43,66.15 12.9,27.64 19.34,61.36 19.34,101.52l0 376.57c0,31.14 5.52,51.04 16.77,59.33 11.06,8.48 33.52,6.46 67.44,-6.08l0 62.83c-6.28,1.85 -15.3,4.41 -27.46,8.11 -11.98,3.5 -23.77,5.33 -35.37,5.33 -12.52,0 -24.5,-1.28 -36.11,-4.04 -13.27,-1.85 -23.96,-6.08 -32.07,-12.72 -8.11,-6.64 -14.55,-14.74 -19.34,-23.96 -4.97,-9.4 -8.3,-19.53 -9.95,-30.78 -1.85,-11.05 -2.76,-22.83 -2.76,-35.37 -33.9,37.4 -72.59,65.97 -116.06,85.5 -43.67,19.53 -90.83,29.29 -141.5,29.29 -30.22,0 -59.51,-4.05 -87.51,-11.98 -28.01,-7.93 -52.7,-20.45 -74.06,-37.4 -21.38,-16.95 -38.33,-37.59 -50.67,-62.08 -12.54,-24.52 -18.62,-53.61 -18.62,-87.52 0,-117.54 80.51,-186.98 241.72,-208.36l110.91 -14.74 0 -0.18zm134.86 39.98c-33.9,14.19 -68.17,23.59 -102.81,28.01 -34.63,4.41 -69.46,8.11 -104.1,10.69 -61.34,4.41 -109.25,18.24 -143.51,41.45 -34.27,23.21 -51.4,58.22 -51.4,105.38 0,21.38 4.23,39.8 12.72,55.46 8.47,15.66 19.53,28.55 33.34,38.69 13.81,10.31 29.85,17.87 48.09,22.65 18.24,4.97 36.66,7.37 55.46,7.37 32.05,0 63.19,-4.05 93.39,-11.98 30.22,-7.93 57.12,-20.25 80.71,-36.66 23.59,-16.39 42.55,-37.4 56.73,-62.81 14.19,-25.43 21.38,-55.46 21.38,-90.09l0 -108.15z"/>
     <path class="fil1" d="M8527.05 4415.91l-80.15 0 0 -691.63 80.15 0 0 96.17c32.05,-33.9 65.22,-61.34 99.49,-82.72 34.26,-21.36 75.33,-32.05 123.44,-32.05 42.73,0 82.35,7.36 118.83,22.1 36.48,14.74 67.24,40.35 92.12,76.84 16.95,24.86 26.9,50.47 30.03,76.82 3.14,26.33 4.61,53.61 4.61,82.17l0 452.67 -80.15 0 0 -451.18c0,-62.27 -13.81,-109.07 -41.45,-140.2 -27.64,-31.14 -73.5,-46.8 -137.44,-46.8 -24.86,0 -47.71,3.87 -68.16,11.42 -20.46,7.55 -38.88,17.5 -55.46,30.03 -16.39,12.54 -30.58,26.72 -42.01,42.74 -11.6,16.03 -20.46,32.98 -26.71,50.67 -7.93,22.29 -12.9,43.67 -14.74,64.12 -1.85,20.45 -2.78,42.74 -2.78,66.69l0 372.53 0.39 -0.38z"/>
     <path class="fil1" d="M9659.35 3942.06c-14.19,-51.58 -38.69,-91.94 -73.52,-120.87 -34.81,-28.91 -78.85,-43.48 -132.1,-43.48 -40.89,0 -76.09,8.48 -105.57,25.43 -29.29,16.95 -53.42,39.42 -72.03,67.42 -18.6,28.01 -32.43,59.71 -41.45,94.7 -8.84,35.19 -13.26,70.56 -13.26,106.13 0,35.55 4.23,72.03 12.7,106.85 8.48,34.83 22.11,65.97 40.71,93.41 18.62,27.64 42.74,49.56 72.05,66.15 29.29,16.39 65.04,24.68 106.85,24.68 59.71,0 107.42,-16.39 143.52,-49.38 36.11,-32.98 58.96,-78.31 68.71,-136.15l85.5 0.02c-7.19,38.31 -18.44,73.13 -34.09,104.82 -15.66,31.69 -35.55,58.78 -60.05,81.44 -24.5,22.65 -53.61,40.34 -87.51,52.68 -33.9,12.54 -72.6,18.8 -116.08,18.8 -55.26,0 -102.79,-9.4 -142.77,-28 -39.98,-18.8 -72.96,-44.23 -98.75,-76.84 -25.79,-32.43 -44.95,-70.92 -57.48,-115.51 -12.52,-44.39 -18.8,-92.12 -18.8,-142.77 0,-48.09 6.82,-94.15 20.64,-138.18 13.81,-44.03 34.08,-82.9 60.79,-116.81 26.71,-33.9 59.89,-60.79 99.49,-80.69 39.62,-20.09 85.12,-30.03 136.89,-30.03 80.14,0 144.81,19.16 194.19,57.47 49.38,38.33 80.32,98.02 92.85,178.89l-81.43 0 0 -0.18z"/>
     <path class="fil1" d="M9941.04 4088.88c0,37.4 4.98,72.78 14.74,106.13 9.77,33.34 24.32,62.27 43.48,86.77 19.17,24.5 43.48,44.03 72.78,58.76 29.29,14.74 63.19,22.11 101.52,22.11 52.5,0 97.45,-13.81 134.86,-41.45 37.4,-27.64 62.27,-66.69 74.79,-117.54l89.54 0c-9.76,32.97 -22.65,63.37 -38.69,91.56 -16.03,28 -36.11,52.51 -60.07,73.5 -23.95,21 -52.5,37.23 -85.48,48.82 -32.97,11.6 -71.3,17.32 -114.77,17.32 -55.28,0 -102.81,-9.4 -142.79,-28.01 -39.98,-18.8 -72.96,-44.21 -98.75,-76.82 -25.79,-32.43 -44.95,-70.74 -57.47,-114.79 -12.54,-44.03 -18.62,-91.37 -18.62,-142.22 0,-50.86 7.37,-98.39 21.93,-142.79 14.74,-44.39 35.55,-83.46 62.81,-116.8 27.08,-33.36 60.25,-59.71 99.49,-78.86 39.24,-19.16 83.65,-28.73 133.57,-28.73 95.26,0 170.05,32.79 224.4,98.18 54.35,65.41 81.07,160.47 80.14,285.02l-536.66 0.02 -0.75 -0.2zm451.2 -66.69c0,-33.9 -4.61,-65.58 -14.01,-95.42 -9.4,-29.85 -23.21,-55.64 -41.45,-77.39 -18.24,-21.74 -41.09,-39.05 -68.71,-52.14 -27.64,-12.9 -59.15,-19.34 -94.88,-19.34 -35.75,0 -67.06,6.64 -94.15,20.07 -27.08,13.45 -50.29,31.14 -69.46,53.43 -19.16,22.29 -34.45,48.09 -46.06,77.39 -11.6,29.29 -19.16,60.61 -22.65,93.39l451.2 0 0.18 0z"/>
    </g>
   </g>
   <g>
    <path class="fil1" d="M872.31 590.47l-36.11 36.11c-270.83,270.83 -270.83,711.52 0,982.34l593.05 593.05 -1210.79 1210.79c-291.28,291.28 -291.28,763.46 0,1054.74l0 0c0,0 2265.33,-2265.53 2265.33,-2265.53l-1611.67 -1611.69 0.18 0.2z"/>
    <path class="fil2" d="M2590.66 3424.55c-310.26,-306.58 -815.05,-306.58 -1125.3,0l-38.69 38.13 1016.97 1004.81 601.16 -594.15 -454.32 -448.97 0.18 0.18z"/>
    <circle class="fil3" cx="2586.24" cy="1459.87" r="458.74"/>
   </g>
  </g>
 </g>
</svg>
