<?xml version="1.0" encoding="UTF-8"?>
<svg id="Capa_2" data-name="Capa 2" xmlns="http://www.w3.org/2000/svg" viewBox="0 0 226.82 108.35">
  <defs>
    <style>
      .cls-1, .cls-2, .cls-3, .cls-4, .cls-5 {
        stroke-width: 0px;
      }

      .cls-1, .cls-5 {
        fill: #294161;
      }

      .cls-2 {
        fill: #1e804b;
      }

      .cls-2, .cls-4, .cls-5 {
        fill-rule: evenodd;
      }

      .cls-6 {
        fill: none;
        stroke: #c19516;
        stroke-linejoin: round;
      }

      .cls-3, .cls-4 {
        fill: #c19516;
      }
    </style>
  </defs>
  <g id="Capa_1-2" data-name="Capa 1">
    <g>
      <g>
        <path class="cls-1" d="M199.38,65.28c4.95,0,7.79-3.4,7.79-8.15s-2.84-8.12-7.79-8.12-7.79,3.4-7.79,8.12,2.84,8.15,7.79,8.15M199.38,62.59c-3.04,0-4.39-2.78-4.39-5.46s1.34-5.43,4.39-5.43,4.39,2.78,4.39,5.43-1.34,5.46-4.39,5.46ZM182.34,64.86h3.4v-7.34c0-3.4,1.85-5.28,4.18-5.28.48,0,.98.09,1.46.15v-3.28c-.3-.03-.51-.09-1.28-.09-2.09,0-4.12,1.76-4.51,3.4h-.06v-2.98h-3.19v15.43ZM178.64,43.55h-3.4v7.88h-.06c-1.04-1.7-3.19-2.42-5.13-2.42-3.37,0-6.69,2.45-6.69,8.03,0,4.63,2.36,8.24,7.22,8.24,1.94,0,3.88-.75,4.78-2.51h.06v2.09h3.22v-21.31ZM166.76,57.31c0-2.78,1.13-5.61,4.33-5.61,2.63,0,4.27,2.03,4.27,5.43,0,2.69-1.28,5.46-4.33,5.46s-4.27-2.63-4.27-5.28ZM157,46.77h3.4v-3.22h-3.4v3.22ZM157,64.86h3.4v-15.43h-3.4v15.43ZM140.58,59.9c.06,3.64,2.95,5.37,6.84,5.37,3.19,0,6.89-1.34,6.89-5.01,0-3.04-2.51-3.94-4.98-4.51-2.51-.57-5.01-.81-5.01-2.48,0-1.34,1.82-1.58,2.81-1.58,1.49,0,2.84.45,3.13,2.06h3.55c-.42-3.43-3.28-4.75-6.45-4.75-2.81,0-6.45,1.04-6.45,4.42,0,3.13,2.45,4.03,4.95,4.57,2.48.57,4.95.78,5.04,2.57.09,1.76-2.15,2.03-3.43,2.03-1.82,0-3.31-.72-3.49-2.69h-3.4ZM133.6,64.86h3.73v-21.31h-3.73v21.31ZM169.06,33.97h3.4v-9.1c0-2.27,1.46-4.06,3.73-4.06,2,0,2.95,1.04,3.01,3.46v9.7h3.4v-10.6c0-3.46-2.12-5.25-5.46-5.25-2.03,0-3.79,1.04-4.81,2.75l-.06-.06v-2.27h-3.22v15.43ZM165.38,22.6c0-3.25-3.16-4.48-6.18-4.48-3.4,0-6.78,1.16-7.01,5.13h3.4c.15-1.67,1.49-2.45,3.4-2.45,1.37,0,3.19.33,3.19,2.09,0,2-2.18,1.73-4.63,2.18-2.87.33-5.94.95-5.94,4.81,0,3.01,2.51,4.51,5.28,4.51,1.82,0,4-.57,5.34-1.88.27,1.4,1.25,1.88,2.63,1.88.57,0,1.64-.21,2.15-.39v-2.36c-.36.06-.63.06-.84.06-.63,0-.81-.33-.81-1.16v-7.94ZM161.98,28.77c0,2.15-2.33,2.93-3.82,2.93-1.19,0-3.13-.45-3.13-1.97,0-1.79,1.31-2.33,2.78-2.57,1.49-.27,3.13-.24,4.18-.93v2.54ZM132.31,26.86c.09,5.28,4.03,7.61,8.89,7.61,4.24,0,8.48-1.91,8.48-6.69,0-2.21-1.34-4.6-4.15-5.43-1.1-.33-5.82-1.55-6.15-1.64-1.52-.42-2.54-1.25-2.54-2.75,0-2.15,2.18-2.78,3.91-2.78,2.57,0,4.42,1.01,4.6,3.76h3.73c0-4.45-3.73-6.81-8.18-6.81-3.85,0-7.79,2-7.79,6.27,0,2.21,1.07,4.42,4.72,5.4,2.93.81,4.87,1.19,6.36,1.76.87.33,1.76.98,1.76,2.63s-1.22,3.22-4.51,3.22c-2.98,0-5.4-1.28-5.4-4.57h-3.73Z"/>
        <path class="cls-1" d="M214.96,87.37c.3-2.81,2-5.49,5.07-5.49s4.81,2.66,4.89,5.49h-9.97ZM226.81,88.95c.15-4.33-1.82-8.66-6.78-8.66s-6.95,4.09-6.95,8.15c0,4.39,2.06,8.15,6.95,8.15,3.88,0,5.91-2.03,6.72-5.52h-1.88c-.6,2.33-2.09,3.94-4.84,3.94-3.61,0-5.04-3.31-5.07-6.06h11.85ZM210.27,80.75h-1.88v2.66h-.06c-.75-1.7-2.66-3.1-4.89-3.1-4.45,0-6.95,3.52-6.95,7.76s2.03,7.91,6.95,7.91c2.21,0,4.03-1.28,4.89-3.16h.06v2.09c0,3.76-1.49,5.82-4.95,5.82-2.09,0-4.09-.81-4.51-3.07h-1.88c.27,3.28,3.31,4.66,6.39,4.66,5.04,0,6.81-2.81,6.83-7.4v-14.15ZM203.44,94.39c-3.46,0-5.07-3.01-5.07-6.12s1.49-6.39,5.07-6.39,4.95,3.37,4.95,6.39-1.7,6.12-4.95,6.12ZM182.87,87.37c.3-2.81,2-5.49,5.07-5.49s4.81,2.66,4.89,5.49h-9.97ZM194.72,88.95c.15-4.33-1.82-8.66-6.78-8.66s-6.95,4.09-6.95,8.15c0,4.39,2.06,8.15,6.95,8.15,3.88,0,5.91-2.03,6.72-5.52h-1.88c-.6,2.33-2.09,3.94-4.84,3.94-3.61,0-5.04-3.31-5.07-6.06h11.85ZM176.28,96.15h1.88v-21.31h-1.88v21.31ZM170.76,96.15h1.88v-21.31h-1.88v21.31ZM160.64,81.88c3.61,0,5.4,3.28,5.4,6.57s-1.79,6.57-5.4,6.57-5.4-3.28-5.4-6.57,1.79-6.57,5.4-6.57ZM160.64,80.3c-4.72,0-7.28,3.73-7.28,8.15s2.57,8.15,7.28,8.15,7.28-3.73,7.28-8.15-2.57-8.15-7.28-8.15ZM151.09,81.28c-.54-4.48-4.54-6.89-8.57-6.89-6.72,0-10.06,5.28-10.06,11.1s3.34,11.1,10.06,11.1c4.98,0,8.3-3.34,8.86-8.57h-2.03c-.39,3.79-2.9,6.83-6.84,6.83-5.64,0-8.03-4.72-8.03-9.37s2.39-9.37,8.03-9.37c3.1,0,5.82,1.88,6.54,5.16h2.03Z"/>
      </g>
      <g>
        <path class="cls-6" d="M84.67,30.03c.27-.98.67-3.33-9.3-3.33,0,0-.82,6.29,0,6.29s2.31-.1,9.3-2.96Z"/>
        <path class="cls-1" d="M84.67,30.03c.27-.98.67-3.33-9.3-3.33,0,0-.82,6.29,0,6.29s2.31-.1,9.3-2.96"/>
        <path class="cls-6" d="M.6,45.2c-.27.98-.67,3.33,9.3,3.33,0,0,.82-6.29,0-6.29s-2.31.1-9.3,2.96Z"/>
        <path class="cls-1" d="M.6,45.21c-.27.98-.67,3.33,9.3,3.33,0,0,.82-6.29,0-6.29s-2.31.1-9.3,2.96"/>
        <path class="cls-3" d="M71.41,14.06H13.57v40.19c0,15.92,11.97,24.87,22.09,32.45,2.37,1.77,4.64,3.48,6.69,5.19,2.19-1.79,4.59-3.51,7.08-5.3,10.13-7.26,21.97-15.74,21.97-32.34V14.06ZM10.12,7.16h68.2v47.1c0,20.14-13.4,29.73-24.86,37.95-3.28,2.35-6.39,4.58-8.77,6.79l-2.36,2.19-2.35-2.21c-2.37-2.22-5.32-4.43-8.44-6.77-11.39-8.53-24.87-18.61-24.87-37.95V7.16h3.45Z"/>
        <path class="cls-4" d="M43.14,11.6h30.34c.36,0,.65.29.65.65v23.56c0,.36-.29.65-.65.65h-30.34c-.36,0-.65-.29-.65-.65V12.25c0-.36.29-.65.65-.65"/>
        <path class="cls-4" d="M10.36,11.6h30.34c.36,0,.65.29.65.65v23.56c0,.36-.29.65-.65.65H10.36c-.36,0-.65-.29-.65-.65V12.25c0-.36.29-.65.65-.65"/>
        <path class="cls-3" d="M44.52,13.62v19.55h-4.05V13.62H12.88v40.63c0,16.23,11.99,25.2,22.13,32.79,2.63,1.97,5.15,3.85,7.34,5.76,2.32-1.98,4.96-3.87,7.71-5.85,10.16-7.28,22.04-15.79,22.04-32.7V13.62h-27.59Z"/>
        <path class="cls-1" d="M74.08,56.19c-1.13,22.03-21.43,29.74-31.73,39.32-10.19-9.57-30.27-18.34-31.44-39.32h63.17Z"/>
        <path class="cls-2" d="M11.79,63.26l2.81-5.98h3.26l-4.04,11.21c.74,1.48,1.58,2.89,2.5,4.22l4.79-15.43h3.26l-4.94,19.36c1.1,1.23,2.26,2.4,3.46,3.52l4.72-22.88h3.26l-3.98,26.34c1.43,1.16,2.87,2.27,4.3,3.35l2.93-29.69h3.26l-1.63,33.12c1.8,1.37,3.49,2.72,4.96,4.07l-.09-37.19h3.24l1.56,35.97c1.52-1.25,3.21-2.51,5-3.79l-3.29-32.18h3.25l4.48,28.98c1.37-1,2.75-2.04,4.11-3.13l-5.33-25.86h3.24l5.79,22.67c1.19-1.11,2.34-2.28,3.42-3.51l-5.95-19.16h3.24l5.57,15.45c.88-1.31,1.68-2.69,2.38-4.17l-4.69-11.28h3.25l3.41,5.93c.46-1.74.8-3.59.98-5.57l-.36-.37H11.4l-.63.78c.2,1.83.55,3.56,1.02,5.2"/>
        <polygon class="cls-1" points="24.91 16.64 28.09 16.64 28.09 19.62 31.41 19.62 31.41 22.79 28.09 22.79 28.09 29.14 24.91 29.14 24.91 22.79 21.59 22.79 21.59 19.62 24.91 19.62 24.91 16.64"/>
        <path class="cls-5" d="M57.4,25.39c.69-1.08,1.99-8.65,2.01-10.31-.32.26-2.48,3.78-2.77,4.42-.51,1.14-.44,1.76-.11,3,.25.93.43,2.13.87,2.89"/>
        <path class="cls-5" d="M56.48,31.73c1.12-6,1.38-5.06-.91-7.57-.47-.52-1.14-1.36-1.98-1.61.32,1.81,1.7,5.9,2.37,8.09.06.21.08.31.16.51l.36.58Z"/>
        <path class="cls-5" d="M55.35,37.69c.25-1.37,1.26-4.62.63-5.82-.24-.46-3.16-3.17-3.55-3.39.2,1.36,1.78,6.31,2.4,8.11l.38.9s.05.07.07.1c.02.02.05.07.07.1"/>
        <path class="cls-5" d="M56.24,35.05l.51-.44c.8-.94,5.14-6.92,5.39-7.53-.68.26-4.23,2.04-4.56,2.32-.95.81-1.22,4.04-1.35,5.66"/>
        <path class="cls-5" d="M57.44,29.11c.41-.61.96-1.25,1.42-1.88l4.32-6.06c-.66.16-4.07,1.6-4.58,2.37-.5.75-.72,1.62-.9,2.54-.1.52-.61,2.57-.27,3.03"/>
        <path class="cls-1" d="M44.52,13.62v19.55h-4.05V13.62H12.88v40.63c0,16.23,11.99,25.2,22.13,32.79,2.63,1.97,5.15,3.85,7.34,5.76,2.32-1.98,4.96-3.87,7.71-5.85,10.16-7.28,22.04-15.79,22.04-32.7V13.62h-27.59ZM10.85,9.57h65.3v44.68c0,18.99-12.79,28.15-23.73,35.99-3.24,2.32-6.3,4.52-8.7,6.75l-1.38,1.29-1.38-1.29c-2.36-2.21-5.28-4.4-8.37-6.71-10.89-8.15-23.76-17.78-23.76-36.02V9.57h2.02Z"/>
        <path class="cls-6" d="M.51,44.96v-10.64c28.09-12.55,56.17,8.37,84.26-4.18v10.64c-28.09,12.55-56.17-8.37-84.26,4.18Z"/>
        <path class="cls-1" d="M.51,44.96v-10.64c28.09-12.55,56.17,8.37,84.26-4.18v10.64c-28.09,12.55-56.17-8.37-84.26,4.18"/>
        <path class="cls-3" d="M79.68,39.81c-.02-.09-.03-.2-.02-.32.01-.13.04-.23.09-.32.48.09.85.09,1.11,0,.26-.09.44-.2.53-.33.09-.13.12-.27.07-.41-.08-.23-.3-.34-.66-.36l-.48-.02c-.73-.03-1.18-.28-1.34-.77-.12-.35-.09-.67.1-.96.18-.29.48-.5.89-.64.41-.14.86-.19,1.33-.14.03.1.05.22.04.34,0,.13-.03.23-.08.32-.42-.05-.79-.01-1.11.09-.17.06-.29.14-.36.26-.07.12-.09.23-.05.36.04.12.11.2.21.25.1.04.24.07.43.08l.52.02c.73.03,1.19.3,1.37.82.12.35.08.68-.12.97-.2.3-.53.52-1,.68-.47.16-.95.18-1.46.07M60.46,42.32l.17-3.4-.7-.02s-.01-.09-.02-.15,0-.11,0-.16c0-.12.02-.23.05-.31l.65.04c-.02-.33-.02-.57-.01-.72,0-.18.05-.35.11-.5.06-.15.15-.28.27-.39.11-.11.25-.19.4-.24.15-.05.33-.08.51-.07.38.02.72.1,1.04.24-.01.24-.09.43-.22.56-.12-.04-.24-.08-.35-.11-.11-.03-.21-.04-.3-.05-.23-.01-.39.04-.5.16-.11.12-.16.3-.18.54,0,.09,0,.19,0,.29,0,.1.01.22.02.34l1.14.04s.01.1.02.15c0,.05,0,.11,0,.17,0,.05,0,.11-.02.16,0,.05-.02.1-.03.14l-1.08-.07-.17,3.4c-.06,0-.12.01-.2.01-.07,0-.14,0-.22,0-.08,0-.15-.01-.22-.02-.07,0-.13-.02-.18-.03ZM52.26,41.12c.34.04.68-.08,1.01-.37l.09-.76c-.11-.02-.22-.05-.33-.06-.12-.02-.24-.04-.37-.05-.25-.03-.45,0-.6.11-.15.1-.24.26-.26.45-.02.19,0,.35.09.47.08.12.21.19.37.21ZM54.23,41.55c-.09.19-.21.31-.36.39-.31-.1-.5-.29-.58-.58-.42.32-.84.45-1.24.41-.2-.02-.38-.08-.52-.16-.14-.08-.26-.19-.35-.31-.09-.12-.15-.26-.19-.41-.03-.15-.04-.3-.02-.46.05-.44.23-.76.54-.95.31-.19.7-.26,1.16-.2.13.02.26.04.39.06.13.02.25.05.37.09l.04-.32c.06-.48-.13-.75-.57-.8-.31-.04-.74.02-1.3.16-.14-.15-.2-.36-.17-.63.58-.18,1.15-.24,1.71-.17.42.05.73.2.93.45.2.25.28.6.22,1.05l-.2,1.65c-.04.33,0,.57.14.72ZM42.18,39.41c.03.17.04.35,0,.54-.05.35-.2.66-.45.92-.25.26-.57.43-.97.5-.07-.05-.12-.11-.14-.19-.02-.08-.03-.17-.02-.26.2-.05.37-.14.51-.27.14-.13.23-.27.27-.43-.1-.04-.17-.08-.23-.1-.06-.03-.09-.06-.09-.11,0-.05,0-.1,0-.16,0-.06,0-.13.02-.21.02-.12.04-.22.07-.28.03-.07.07-.11.13-.12.06-.01.12-.02.19-.02.07,0,.15,0,.24.02.22.03.37.09.47.18ZM47.42,38.54v-.09c.1-.6-.09-.94-.56-1.01-.26-.04-.47.06-.64.28-.17.23-.29.58-.36,1.07-.13.92.1,1.42.71,1.51.3.04.64-.04,1.02-.26.07.05.13.13.19.24.06.11.09.21.1.3-.45.34-.96.47-1.52.39-.28-.04-.52-.13-.71-.26-.19-.13-.34-.3-.45-.51-.11-.21-.18-.45-.21-.72-.03-.27-.02-.56.02-.88.05-.33.13-.61.26-.85.13-.24.28-.44.46-.59.18-.15.37-.25.59-.32.21-.06.43-.08.66-.05.23.03.43.1.6.19.17.1.31.21.42.34.11.13.19.27.23.43.05.16.06.31.04.46-.04.3-.2.44-.48.4-.14-.02-.25-.05-.34-.08ZM39.22,36.17c.08-.19.2-.32.37-.4.36.13.57.41.63.82.28-.44.67-.63,1.15-.56.13.02.27.05.42.11-.04.31-.15.56-.31.76-.05-.02-.15-.05-.32-.09-.36-.05-.68.11-.95.49l-.38,2.61c-.1,0-.24,0-.42-.03-.17-.02-.31-.06-.41-.09l.39-2.75c.05-.36,0-.65-.18-.87ZM48.78,37.54c.08-.19.2-.32.36-.4.36.13.57.4.63.81.28-.45.66-.64,1.15-.57.13.02.27.05.42.11-.04.31-.14.56-.31.76-.05-.02-.15-.05-.32-.08-.36-.05-.68.12-.94.49l-.35,2.62c-.1,0-.24,0-.42-.02-.17-.02-.31-.05-.41-.09l.37-2.75c.05-.36-.01-.65-.19-.87ZM36.91,36.05c-.58-.08-.94.37-1.07,1.34-.13.97.1,1.49.68,1.57.59.08.94-.37,1.07-1.33.13-.97-.1-1.49-.68-1.57ZM37.66,39.3c-.33.25-.74.35-1.22.29-.28-.04-.52-.12-.72-.25-.2-.13-.36-.29-.48-.5-.12-.2-.21-.44-.25-.7-.04-.26-.04-.55,0-.87.04-.31.12-.59.23-.84.11-.25.25-.45.43-.62.17-.17.37-.28.6-.35.23-.07.48-.09.76-.05.28.04.52.12.72.25.2.13.36.29.48.5.12.2.21.44.25.71.04.27.04.56,0,.87-.1.72-.36,1.24-.79,1.57ZM33.15,35.65c-.32-.04-.63.08-.93.35l-.27,2.24c.19.09.42.15.68.18.27.03.5-.07.7-.3.2-.23.33-.58.39-1.04.06-.47.03-.81-.07-1.04-.11-.23-.27-.36-.5-.39ZM31.08,38.59l.68-5.66.05-.04.31.04c.17.02.28.08.33.17.06.09.07.23.05.42l-.21,1.75c.35-.23.74-.33,1.16-.28.43.05.74.28.93.67.19.4.24.93.16,1.59-.04.31-.12.58-.24.82-.12.24-.27.43-.45.59-.18.15-.39.26-.61.33-.23.06-.47.08-.72.05-.51-.06-1-.21-1.45-.44ZM54.59,41.68c.01-.09.05-.19.11-.3.06-.11.13-.2.21-.26.41.27.75.42,1.02.44.27.02.48,0,.62-.09.14-.08.21-.2.23-.35.02-.24-.14-.43-.46-.59l-.44-.2c-.66-.31-.97-.72-.93-1.23.03-.37.19-.65.47-.84.28-.19.64-.27,1.07-.24.44.03.86.17,1.28.39,0,.11-.04.22-.1.33-.06.12-.12.2-.2.26-.37-.21-.72-.32-1.05-.35-.18-.01-.32.02-.43.1-.11.08-.17.18-.18.31-.01.13.02.23.09.31.07.08.19.16.37.24l.47.22c.66.32.97.75.93,1.29-.03.37-.19.65-.5.85-.3.19-.7.27-1.19.23-.49-.04-.95-.21-1.37-.51ZM28.36,37.97c.34.03.67-.11.99-.41l.06-.77c-.11-.02-.22-.04-.34-.05-.12-.01-.24-.03-.37-.04-.25-.02-.44.03-.59.14-.15.11-.23.27-.24.46-.02.19.02.35.11.47.09.12.22.18.38.2ZM30.34,38.31c-.08.19-.2.32-.35.4-.31-.08-.52-.27-.61-.55-.41.34-.82.49-1.22.46-.2-.02-.38-.06-.53-.14-.15-.08-.27-.17-.37-.29-.1-.12-.16-.25-.2-.4-.04-.15-.05-.3-.04-.45.03-.44.2-.76.5-.97.3-.2.68-.29,1.15-.25.13.01.27.02.39.04.13.02.25.04.38.07l.02-.32c.04-.48-.16-.74-.61-.78-.31-.02-.74.05-1.29.22-.15-.15-.21-.35-.19-.62.57-.2,1.14-.28,1.7-.24.42.03.74.17.95.41.21.24.3.59.27,1.04l-.13,1.65c-.03.33.03.57.17.71ZM26.27,37.77l.3.02c.04.14.06.26.05.36,0,.1-.02.19-.04.24-.22.03-.45.04-.69.02-.53-.03-.79-.32-.76-.87l.26-5.1.06-.05.32.02c.17,0,.28.06.35.14.06.09.09.23.08.41l-.22,4.42c-.01.24.09.37.3.38ZM62.69,38.84c.06-.2.16-.35.32-.44.37.09.61.33.72.73.22-.48.58-.71,1.07-.7.13,0,.27.02.43.06,0,.31-.08.58-.22.79-.05-.02-.16-.03-.33-.05-.37,0-.66.19-.88.6l-.05,2.64c-.1.02-.24.03-.42.02-.18,0-.31-.02-.42-.04l.05-2.78c0-.37-.09-.65-.28-.84ZM20.62,34.79c-.51,0-.78.4-.8,1.16l1.64-.03v-.11c0-.31-.08-.56-.22-.74-.14-.19-.34-.28-.62-.28ZM22.21,36.51l-2.38.05c.02.37.11.66.26.85.15.2.39.29.73.29.16,0,.34-.03.52-.08.19-.05.38-.13.57-.25.14.12.23.3.28.53-.43.31-.93.47-1.51.48-.31,0-.57-.04-.78-.15-.21-.1-.39-.25-.52-.44-.14-.19-.24-.41-.3-.67-.06-.26-.1-.54-.11-.84,0-.3.03-.57.1-.83.07-.26.17-.48.31-.67.14-.19.31-.33.51-.44.21-.11.44-.17.7-.17.26,0,.49.03.69.12.2.08.38.2.52.35.14.15.25.33.33.54.08.21.12.44.12.69,0,.11,0,.21,0,.32,0,.11-.02.21-.04.32ZM65.86,41.15l-.12-1.88c-.02-.32-.08-.56-.18-.72.13-.13.3-.2.51-.21.3-.02.46.15.48.5l.13,2.06c.02.28.06.48.14.59.08.11.2.17.38.15.18-.01.36-.07.53-.17.18-.1.33-.23.47-.39l-.17-2.81c.15-.03.29-.05.41-.06.12,0,.27,0,.43,0l.18,2.86c.02.38.11.63.27.75-.05.2-.14.34-.29.44-.34-.04-.58-.22-.71-.54-.4.42-.83.65-1.31.68-.36.02-.63-.08-.82-.31-.19-.23-.3-.55-.33-.95ZM17,33.69c-.05-.09-.09-.21-.09-.35-.01-.22.02-.35.1-.4.08-.05.21-.08.4-.09.22,0,.35.01.42.06.06.05.1.17.12.37,0,.19-.02.32-.07.38-.06.06-.19.1-.41.11-.21.01-.36-.01-.46-.08ZM18.09,35.08l.2,3.3c-.1.03-.24.05-.41.06-.18.01-.31,0-.42,0l-.18-2.96c0-.15-.04-.26-.1-.32-.06-.06-.15-.09-.28-.08h-.09c-.03-.11-.05-.21-.06-.29,0-.08,0-.18.02-.31.18-.03.35-.05.51-.06h.11c.2-.02.37.04.49.16.12.12.19.29.21.51ZM71.97,39.47v-.09c-.07-.61-.34-.88-.81-.83-.26.03-.44.17-.55.43-.11.26-.14.64-.09,1.13.1.92.45,1.35,1.06,1.29.3-.03.61-.2.93-.51.08.03.16.1.24.19.08.09.14.18.17.27-.35.44-.81.69-1.38.75-.28.03-.54,0-.75-.08-.22-.08-.41-.21-.56-.38-.16-.17-.28-.39-.38-.64-.1-.26-.16-.54-.19-.86-.04-.33-.02-.62.04-.89.06-.26.16-.49.3-.68.13-.19.3-.34.49-.45.19-.11.4-.18.63-.21.23-.02.44-.01.63.04.19.05.35.13.49.22.14.1.25.22.33.36.08.14.13.29.15.44.03.31-.09.47-.37.5-.14.02-.26.02-.35,0ZM14.59,38.08c.35-.04.62-.24.82-.6l-.22-2c-.32-.16-.59-.23-.81-.21-.24.03-.43.17-.56.43-.13.26-.17.62-.12,1.1.05.47.16.8.32,1.01.16.21.35.3.56.27ZM14.19,34.63c.29-.03.6.02.94.17l-.23-2.09.05-.05.31-.03c.17-.02.29.01.36.08.07.07.12.21.14.4l.46,4.25c.04.38.14.62.31.74-.01.08-.04.16-.09.25-.05.09-.11.16-.16.21-.31-.03-.54-.17-.69-.43-.28.4-.64.62-1.1.67-.46.05-.82-.1-1.1-.44-.28-.34-.45-.84-.52-1.5-.04-.33-.03-.62.03-.89.06-.26.14-.49.26-.68.12-.19.27-.34.45-.46.18-.11.37-.18.58-.2ZM74.67,37.33c.05.08.08.18.11.3.02.12.03.22.02.31l-.98.19.51,2.36c.05.23.18.32.4.28l.55-.12c.07.11.11.22.14.34.03.12.04.2.04.24-.3.1-.59.19-.87.25-.55.12-.89-.09-1.01-.64l-.54-2.53-.58.13c-.04-.09-.07-.18-.1-.29-.02-.11-.03-.21-.04-.32l.59-.11-.15-.7c-.04-.19-.04-.33,0-.42.05-.09.15-.16.31-.19l.31-.07.07.04.25,1.17.97-.23ZM10.19,35.78c-.57.12-.76.66-.55,1.62.21.96.59,1.37,1.17,1.25.58-.12.76-.66.56-1.62-.21-.96-.6-1.37-1.17-1.25ZM11.99,38.59c-.23.35-.58.58-1.05.68-.27.06-.53.06-.76.01-.23-.05-.44-.15-.62-.3-.18-.15-.34-.34-.47-.58-.13-.23-.23-.51-.3-.82-.07-.31-.09-.59-.07-.86.02-.27.09-.51.19-.72.11-.21.25-.39.44-.53.19-.14.42-.24.7-.3.27-.06.53-.06.76,0,.23.05.44.15.62.3.18.15.34.34.47.58.13.24.23.51.3.81.15.71.08,1.29-.21,1.74ZM75.78,39.94l-.5-1.82c-.09-.31-.19-.53-.33-.67.1-.15.25-.25.46-.31.29-.08.48.05.57.39l.55,1.99c.07.27.16.45.26.55.1.1.23.12.41.07.17-.05.33-.14.49-.27.15-.13.28-.29.38-.48l-.75-2.72c.14-.06.27-.11.39-.14.12-.03.26-.06.42-.08l.76,2.76c.1.36.24.59.42.68,0,.2-.07.37-.19.49-.34.03-.61-.09-.81-.38-.3.5-.68.81-1.14.94-.34.09-.63.05-.87-.14-.24-.19-.41-.47-.51-.86ZM6.69,36.86l-.17-.58-.46-1.66c.1-.05.24-.1.41-.15.17-.05.31-.08.43-.08l1.47,5.33c-.12.05-.25.1-.41.15-.16.04-.3.07-.43.09l-.5-1.83-.15-.58-.43.13-1.31.36-.45.11.17.58.5,1.83c-.1.05-.24.1-.41.15-.17.05-.31.07-.42.08l-1.47-5.33c.1-.05.23-.1.4-.14.17-.05.31-.07.43-.08l.46,1.66.15.58.44-.13,1.31-.36.44-.11Z"/>
        <polygon class="cls-1" points="73.91 57.27 73.88 57.24 61.79 45.77 53.19 53.92 42.65 43.92 32.11 53.92 23.52 45.77 11.57 57.11 11.4 57.27 73.91 57.27"/>
      </g>
    </g>
  </g>
</svg>