<?xml version="1.0" encoding="UTF-8"?>
<!DOCTYPE svg PUBLIC "-//W3C//DTD SVG 1.1//EN" "http://www.w3.org/Graphics/SVG/1.1/DTD/svg11.dtd">
<!-- Creator: CorelDRAW -->
<svg xmlns="http://www.w3.org/2000/svg" xml:space="preserve" width="172.064mm" height="35.7066mm" version="1.1" style="shape-rendering:geometricPrecision; text-rendering:geometricPrecision; image-rendering:optimizeQuality; fill-rule:evenodd; clip-rule:evenodd"
viewBox="0 0 17545.93 3641.12"
 xmlns:xlink="http://www.w3.org/1999/xlink"
 xmlns:xodm="http://www.corel.com/coreldraw/odm/2003">
 <defs>
  <style type="text/css">
   <![CDATA[
    .fil7 {fill:#251B02;fill-rule:nonzero}
    .fil4 {fill:#261B02;fill-rule:nonzero}
    .fil6 {fill:#271B02;fill-rule:nonzero}
    .fil3 {fill:#281B02;fill-rule:nonzero}
    .fil5 {fill:#291B03;fill-rule:nonzero}
    .fil9 {fill:#2A1C03;fill-rule:nonzero}
    .fil13 {fill:#2B1C03;fill-rule:nonzero}
    .fil10 {fill:#2C1C03;fill-rule:nonzero}
    .fil12 {fill:#2D1C04;fill-rule:nonzero}
    .fil15 {fill:#2D2002;fill-rule:nonzero}
    .fil8 {fill:#2E1C04;fill-rule:nonzero}
    .fil26 {fill:#2F1D04;fill-rule:nonzero}
    .fil25 {fill:#301D04;fill-rule:nonzero}
    .fil23 {fill:#321D05;fill-rule:nonzero}
    .fil24 {fill:#331D05;fill-rule:nonzero}
    .fil21 {fill:#341D05;fill-rule:nonzero}
    .fil18 {fill:#361E06;fill-rule:nonzero}
    .fil19 {fill:#391E07;fill-rule:nonzero}
    .fil34 {fill:#3A1F07;fill-rule:nonzero}
    .fil20 {fill:#3F1F08;fill-rule:nonzero}
    .fil32 {fill:#3F2008;fill-rule:nonzero}
    .fil22 {fill:#432009;fill-rule:nonzero}
    .fil33 {fill:#44210A;fill-rule:nonzero}
    .fil36 {fill:#47210A;fill-rule:nonzero}
    .fil30 {fill:#4A220B;fill-rule:nonzero}
    .fil31 {fill:#4F220C;fill-rule:nonzero}
    .fil35 {fill:#50230D;fill-rule:nonzero}
    .fil29 {fill:#56240E;fill-rule:nonzero}
    .fil28 {fill:#5F2510;fill-rule:nonzero}
    .fil11 {fill:#E73F33;fill-rule:nonzero}
    .fil2 {fill:#EF4134;fill-rule:nonzero}
    .fil0 {fill:#EF4135;fill-rule:nonzero}
    .fil1 {fill:#FDFCFC;fill-rule:nonzero}
    .fil14 {fill:#FEDD00;fill-rule:nonzero}
    .fil17 {fill:#FEDE01;fill-rule:nonzero}
    .fil27 {fill:#FEDE02;fill-rule:nonzero}
    .fil16 {fill:#FFDE00;fill-rule:nonzero}
   ]]>
  </style>
 </defs>
 <g id="Capa_x0020_1">
  <metadata id="CorelCorpID_0Corel-Layer"/>
  <g id="_2vE5frkZoN51nCxf683jcgYCMwO.svg">
   <polygon class="fil0" points="-0,42.84 3109.95,42.84 3109.95,2021.89 3092.81,2218.94 3049.98,2433.12 2990.01,2613.03 2904.33,2775.81 2818.65,2895.76 2715.84,3007.14 2613.04,3092.81 2450.26,3195.62 2218.95,3315.56 1807.71,3521.18 1662.06,3589.71 1567.83,3641.12 1524.99,3632.55 668.25,3204.18 531.18,3118.51 411.24,3024.27 299.86,2912.9 214.18,2792.95 137.08,2655.87 77.11,2501.67 34.27,2338.89 8.58,2167.54 0.01,2073.3 "/>
   <polygon class="fil1" points="1233.69,111.38 1867.68,111.38 1867.68,1302.24 3041.4,1302.24 3041.4,1936.23 1876.25,1936.22 1876.25,3409.8 1567.82,3564.01 1524.99,3555.45 1233.69,3409.81 1233.69,1936.23 68.54,1936.22 68.54,1302.24 1233.69,1302.24 "/>
   <polygon class="fil2" points="68.54,102.81 1867.68,102.81 1867.68,111.38 1233.69,111.38 1233.69,1302.24 68.54,1302.24 "/>
   <polygon class="fil2" points="1867.68,1927.65 3041.4,1936.22 3041.4,2081.86 3024.27,2236.08 2981.43,2433.12 2921.46,2604.47 2852.93,2732.98 2767.25,2852.93 2673.01,2955.73 2570.2,3041.4 2407.42,3144.21 2261.78,3221.32 2081.86,3306.99 1919.08,3392.67 1867.68,3401.24 "/>
   <polygon class="fil0" points="68.54,1936.22 1233.69,1936.22 1233.69,3409.8 1070.91,3332.7 728.22,3161.35 574.01,3067.11 454.07,2972.88 359.82,2878.63 274.15,2767.26 205.61,2647.32 137.07,2467.41 85.67,2253.22 68.54,2099.01 "/>
   <polygon class="fil3" points="6828.18,1850.55 7273.68,1850.55 7436.46,2210.37 7770.58,2955.73 7796.28,3007.14 7907.66,2750.12 8096.14,2304.62 8241.78,1961.92 8293.19,1850.55 8730.13,1850.55 8730.13,1901.95 8721.57,1910.52 8627.32,1919.08 8567.35,1944.78 8541.65,1987.62 8533.09,2021.88 8533.09,2236.07 8593.06,3238.46 8627.32,3306.99 8695.87,3332.69 8772.97,3341.25 8772.97,3401.22 8130.41,3401.24 8130.41,3341.26 8250.36,3324.13 8293.19,3298.44 8310.33,3247.03 8293.19,2767.26 8267.49,2253.21 8258.92,2158.98 8104.71,2527.37 7976.2,2835.79 7821.99,3204.19 7736.31,3409.81 7676.34,3409.8 7564.96,3161.35 7290.81,2544.5 7145.17,2218.94 7128.03,2176.11 7102.33,2595.9 7076.64,3075.68 7076.64,3204.19 7102.33,3281.29 7136.61,3315.57 7188.01,3332.7 7282.24,3341.26 7282.24,3401.24 6759.63,3401.24 6759.63,3341.26 6871.01,3324.13 6922.41,3289.86 6948.12,3238.46 6965.25,3135.66 7025.22,2176.11 7025.22,2047.6 6999.52,1979.07 6948.12,1936.23 6913.85,1919.1 6828.17,1910.53 "/>
   <path class="fil4" d="M10426.47 1850.55l813.89 0 137.08 25.7 102.81 42.84 85.68 77.1 42.83 68.54 25.71 77.11 8.57 119.94 -17.14 85.67 -59.97 119.95 -68.54 68.54 -111.38 68.54 -34.27 17.14 -25.7 0 42.84 77.1 376.96 565.45 68.54 51.4 102.81 25.7 0 59.97 -402.66 0 -94.24 -145.64 -239.88 -376.96 -102.81 -162.78 -25.71 -34.27 -162.78 0 0 488.34 17.13 94.24 34.27 51.4 42.84 17.13 119.94 8.57 0 59.97 -676.82 0 0 -59.97 94.23 -8.57 51.4 -25.7 34.27 -42.84 8.57 -25.7 0 -1182.3 -17.14 -77.1 -34.26 -42.84 -34.27 -17.13 -102.81 -8.57 0.01 -59.98zm548.31 59.97l-85.68 8.57 -8.57 8.57 0 676.82 8.57 8.57 179.91 0.01 119.95 -25.71 85.67 -51.4 51.4 -68.54 34.27 -102.81 0 -197.04 -34.27 -94.24 -34.27 -51.4 -68.54 -59.97 -102.81 -42.83 -51.4 -8.57 -94.23 -0.01z"/>
   <path class="fil5" d="M8987.14 1850.55l805.33 0 137.08 25.7 102.8 42.84 77.11 59.97 51.4 85.67 17.13 51.4 0 145.65 -34.27 94.23 -68.54 85.68 -94.23 59.97 -119.95 42.84 -42.83 8.57 162.78 34.26 119.94 59.97 85.67 77.11 59.97 102.8 17.14 77.11 0 111.38 -25.71 102.81 -51.4 85.67 -59.97 68.54 -119.94 77.11 -85.67 34.26 -94.24 17.14 -839.61 0.01 0 -59.97 111.38 -17.13 51.4 -34.27 25.7 -59.97 0 -1173.72 -17.13 -68.54 -34.27 -51.4 -34.26 -17.14 -102.81 -8.57 0 -59.97zm471.21 59.97l0 616.85 197.04 0 111.38 -34.26 68.55 -51.4 42.83 -68.55 25.71 -102.81 0 -94.23 -17.14 -85.68 -42.83 -85.67 -68.55 -59.97 -94.23 -34.27 -222.75 0zm0 685.38l0 633.99 34.26 68.54 68.55 34.27 51.4 8.57 77.1 0 102.81 -25.7 77.1 -51.4 59.97 -68.54 42.84 -85.68 17.13 -77.1 0 -128.52 -25.7 -102.8 -51.4 -85.68 -68.54 -59.97 -68.55 -34.27 -137.07 -25.7 -179.91 -0.01z"/>
   <path class="fil4" d="M12902.43 1850.55l831.03 0 154.21 25.7 154.21 51.4 94.24 51.4 85.67 68.54 68.54 68.55 77.11 119.94 51.4 119.94 25.7 102.81 8.57 77.1 0 162.78 -25.7 145.65 -51.4 137.07 -77.11 128.51 -94.23 102.81 -68.54 59.97 -128.52 68.55 -137.07 42.83 -119.94 17.14 -848.17 0 0 -59.97 102.81 -8.57 51.4 -25.7 25.7 -42.84 8.57 -51.4 0 -1173.72 -17.13 -68.54 -42.84 -42.84 -25.7 -8.57 -102.81 -8.57 0 -59.98zm471.21 68.54l-8.57 8.57 0 1293.67 34.26 68.54 59.97 34.27 42.84 8.57 171.35 0 137.08 -34.27 94.23 -51.39 85.68 -77.11 59.97 -68.54 68.54 -137.08 34.27 -119.94 8.57 -51.4 0 -299.85 -25.71 -137.08 -42.83 -128.51 -59.97 -102.81 -42.84 -51.4 -102.81 -77.1 -102.81 -42.84 -94.23 -25.7 -59.97 -8.57 -257.02 -0.01z"/>
   <path class="fil6" d="M-0 42.84l3109.95 0 0 1979.06 -17.14 197.04 -42.83 214.18 -59.97 179.91 -85.68 162.78 -85.68 119.95 -102.81 111.38 -102.8 85.67 -162.78 102.81 -231.32 119.94 -411.24 205.62 -145.65 68.54 -94.23 51.4 -42.84 -8.57 -856.74 -428.37 -137.07 -85.67 -119.94 -94.24 -111.38 -111.38 -85.68 -119.94 -77.1 -137.08 -59.97 -154.2 -42.84 -162.78 -25.7 -171.35 -8.57 -94.24 -0.01 -2030.46zm68.54 59.97l0 1996.2 25.7 197.04 42.84 171.35 51.4 137.08 59.97 119.94 85.67 119.94 94.24 102.81 85.68 77.1 128.51 85.68 154.21 85.68 428.37 214.17 197.04 94.24 119.94 59.97 42.84 -8.57 308.43 -154.21 179.91 -85.67 162.78 -85.68 137.07 -68.54 119.95 -68.55 119.94 -85.67 111.38 -102.81 102.81 -128.51 77.1 -137.08 51.4 -128.51 42.83 -145.65 34.27 -188.48 8.57 -94.24 0 -1979.06 -2972.86 0z"/>
   <polygon class="fil6" points="15369.82,1807.71 15635.41,1807.71 15806.76,1833.41 15952.4,1867.68 15986.67,1884.81 16012.38,2253.21 15952.4,2253.21 15909.57,2124.7 15858.16,2030.46 15823.9,1987.63 15729.65,1927.66 15635.41,1901.95 15575.44,1893.39 15446.93,1893.39 15309.85,1919.08 15172.77,1987.62 15095.67,2056.17 15035.7,2141.84 14992.87,2227.51 14958.59,2330.32 14932.9,2510.23 14932.9,2647.31 14950.03,2792.95 14992.87,2955.73 15061.4,3092.81 15129.94,3187.05 15189.91,3247.02 15309.85,3315.56 15446.93,3349.83 15635.41,3349.83 15772.49,3324.13 15763.93,2904.33 15729.65,2852.93 15669.68,2827.23 15584.01,2818.66 15575.44,2810.1 15575.44,2758.69 16175.15,2758.69 16175.15,2818.66 16089.48,2835.79 16055.21,2870.07 16038.07,2930.04 16029.51,3366.96 15918.13,3401.24 15738.22,3435.51 15661.12,3444.07 15344.12,3444.07 15189.91,3409.8 15078.53,3366.97 14984.29,3315.57 14898.62,3247.03 14812.95,3161.35 14735.84,3041.41 14675.87,2895.76 14650.17,2775.82 14641.6,2715.85 14641.6,2493.1 14675.87,2330.32 14735.84,2193.24 14804.38,2099.01 14872.93,2021.89 14975.73,1944.79 15104.24,1876.26 15232.75,1833.42 "/>
   <polygon class="fil7" points="2356.02,145.65 2398.85,188.48 2407.41,214.18 2441.69,197.04 2467.39,197.05 2484.53,231.32 2484.53,274.15 2518.8,282.72 2527.37,299.85 2527.37,368.39 2484.53,428.36 2484.53,505.47 2527.37,548.3 2578.77,565.44 2741.55,574.01 2878.62,608.27 2878.62,582.57 2784.38,556.88 2664.44,514.04 2595.9,462.63 2561.63,419.79 2544.5,376.96 2544.5,282.72 2578.77,231.32 2621.6,197.05 2673,179.91 2741.55,179.91 2878.62,214.18 2895.76,162.78 2938.59,188.48 2964.3,231.32 2964.3,299.85 2930.03,316.98 2912.9,351.26 2878.62,368.39 2818.65,368.4 2690.15,308.43 2638.74,299.86 2638.74,342.69 2715.84,368.4 2767.25,394.1 2835.78,419.79 2930.03,471.2 2981.43,531.17 2990,556.88 2990,625.41 2964.3,676.82 2921.46,702.51 2835.78,702.52 2870.06,796.76 2878.62,805.32 2921.46,805.33 2938.59,771.06 2964.3,779.63 2972.87,839.6 2972.87,1028.08 2964.3,1182.29 2887.19,1156.59 2801.52,1190.86 2775.81,1190.86 2775.81,1088.05 2724.41,1088.05 2732.98,1028.08 2784.38,985.24 2844.35,968.11 2844.35,933.84 2741.55,891.01 2698.71,873.87 2707.28,908.14 2750.12,916.71 2741.55,976.68 2707.28,1036.65 2647.31,1105.19 2595.9,1165.16 2561.63,1199.43 2535.93,1190.86 2527.37,1173.72 2424.56,1173.72 2381.72,1182.29 2381.72,1122.32 2415.99,1070.91 2424.56,1045.22 2415.99,1028.08 2390.28,1019.52 2398.85,993.81 2433.12,976.68 2493.09,976.68 2535.93,1010.94 2578.77,1010.94 2595.9,976.68 2561.63,916.71 2535.93,865.3 2544.5,805.33 2553.06,771.06 2475.96,796.77 2475.96,831.03 2424.56,899.58 2347.45,985.24 2330.31,985.24 2313.18,1028.08 2253.21,1105.19 2218.94,1173.72 2184.67,1156.59 2141.84,1148.02 2056.16,1173.72 2021.89,1190.85 2030.46,1105.19 2056.16,1053.78 2056.16,1002.38 2004.75,985.24 2004.75,968.1 2064.72,933.84 2133.26,942.41 2193.23,950.97 2244.63,891 2253.2,873.86 2253.2,813.89 2201.81,813.9 2184.67,831.03 2176.11,873.87 2141.84,865.3 2073.3,779.63 2047.59,711.09 2030.46,676.82 2021.89,616.85 1996.2,574.02 1996.2,522.61 1961.92,428.37 1961.92,394.11 1996.2,385.54 2004.76,265.59 1987.62,197.05 2030.46,214.18 2099,265.59 2133.27,325.56 2150.4,385.53 2176.11,419.8 2176.11,488.34 2133.27,574.02 2150.4,633.99 2184.67,668.25 2218.95,651.12 2236.08,599.71 2244.64,445.5 2176.11,359.83 2167.54,342.69 2167.54,291.29 2193.24,265.59 2236.08,265.59 2244.64,197.05 2278.91,197.05 2313.18,205.62 "/>
   <polygon class="fil7" points="505.47,145.65 548.3,188.48 565.44,214.18 608.27,188.48 633.98,231.32 633.98,274.15 668.24,291.29 676.81,299.85 676.81,359.82 625.4,445.49 642.54,522.6 693.95,556.87 728.21,565.43 890.99,574 1028.07,608.27 1010.93,582.57 813.89,514.03 745.35,462.62 702.51,411.23 693.95,385.52 693.95,282.71 728.22,231.31 771.05,197.04 813.89,179.9 891,179.91 1028.07,214.18 1036.64,162.78 1079.48,179.91 1113.75,231.32 1113.75,291.29 1062.35,351.26 1028.07,368.39 968.1,368.4 839.6,308.43 788.19,299.86 788.19,342.69 865.29,368.4 942.41,402.66 1079.48,471.21 1130.88,531.18 1139.45,556.88 1139.45,625.41 1105.19,676.82 1062.35,702.51 985.24,702.52 1019.51,796.76 1028.07,805.32 1070.91,805.33 1088.04,771.06 1105.19,771.06 1122.32,848.16 1122.32,1028.08 1113.75,1182.29 1036.65,1156.59 942.41,1190.86 925.26,1190.86 925.26,1088.05 865.29,1088.05 882.44,1028.08 916.7,993.81 993.81,968.11 993.81,933.84 848.16,873.87 856.73,908.14 899.57,916.71 891,968.11 831.03,1070.92 753.93,1156.59 711.09,1199.43 685.39,1190.86 676.82,1173.73 574.01,1173.72 531.17,1182.29 522.6,1148.02 565.44,1062.35 574.01,1028.08 531.17,1010.94 574.01,976.68 633.98,976.68 685.38,1010.94 728.22,1010.94 736.79,1002.38 736.79,950.97 693.95,891.01 685.38,831.04 702.52,771.07 608.28,796.77 616.85,848.17 505.47,976.68 471.2,1010.95 394.1,1113.76 368.4,1173.73 334.13,1156.59 291.29,1148.02 205.62,1173.73 171.35,1190.86 179.91,1105.19 205.62,1053.78 197.05,1010.95 154.21,985.24 162.78,959.55 214.18,933.85 282.72,942.42 342.69,950.98 394.1,891.01 402.66,873.87 402.66,813.91 351.26,813.9 334.13,831.03 325.56,873.87 291.29,865.3 231.32,796.77 197.04,711.09 179.91,685.39 162.78,608.28 145.64,582.58 145.64,522.61 111.38,428.37 111.38,394.11 145.64,385.54 145.64,325.57 154.2,265.6 137.07,197.06 179.91,214.19 248.45,274.17 274.14,308.44 299.85,385.54 325.55,419.8 325.55,479.77 282.71,574.02 299.85,633.99 334.12,668.26 368.39,651.12 385.52,591.15 385.52,436.95 325.55,359.83 316.98,342.7 316.98,291.3 342.69,265.6 385.53,265.59 394.1,197.05 428.36,197.05 462.63,214.18 479.76,179.91 "/>
   <polygon class="fil5" points="16320.8,1850.55 17408.85,1850.55 17408.85,2184.67 17357.45,2193.24 17331.75,2064.73 17280.34,1987.62 17211.8,1953.36 17100.43,1936.22 16783.44,1936.22 16774.87,2535.93 17100.43,2527.37 17151.83,2501.67 17186.11,2458.83 17211.8,2373.16 17220.37,2338.89 17271.77,2338.89 17271.77,2852.93 17228.94,2852.93 17211.8,2801.52 17186.11,2707.29 17143.27,2664.45 17066.17,2638.75 16783.44,2638.74 16783.44,3187.06 16809.13,3264.16 16869.1,3298.43 16989.05,3315.57 17108.99,3315.57 17237.5,3307 17348.88,3272.73 17417.41,3212.76 17468.82,3109.95 17494.53,3049.98 17545.93,3058.54 17528.79,3169.92 17477.38,3401.24 16320.8,3401.24 16320.8,3341.26 16423.61,3332.7 16475.02,3307 16500.71,3264.16 16500.71,1987.63 16475.02,1944.79 16423.61,1919.1 16320.8,1910.53 "/>
   <polygon class="fil7" points="496.9,2004.76 531.17,2021.89 565.44,2056.17 616.85,2039.03 633.98,2081.86 633.98,2116.14 668.25,2124.7 676.82,2141.84 676.82,2218.94 625.41,2287.47 633.98,2356.02 642.54,2390.28 728.21,2415.99 882.43,2441.69 968.1,2467.38 1036.64,2475.95 1036.64,2441.69 882.43,2407.41 779.62,2364.58 728.21,2321.75 693.95,2253.21 693.95,2150.4 728.21,2090.43 796.76,2047.59 891,2047.6 1036.64,2116.14 1053.78,2107.57 1062.35,2073.3 1096.61,2081.86 1122.32,2107.57 1122.32,2184.67 1036.64,2253.21 942.41,2253.21 856.73,2201.81 831.03,2184.67 788.19,2184.67 779.63,2227.5 856.73,2261.78 985.23,2287.47 1070.91,2321.75 1113.75,2364.59 1139.45,2398.85 1148.01,2484.53 1122.32,2535.93 1088.04,2561.63 1010.94,2570.19 1028.07,2690.15 1036.64,2707.28 1079.48,2707.29 1105.19,2698.72 1113.75,2767.26 1113.75,2955.73 1105.19,3067.11 1088.04,3101.38 1062.35,3092.82 1036.65,3144.22 1002.38,3204.19 968.1,3187.06 925.27,3084.25 908.13,3084.24 882.44,3109.95 856.73,3075.68 856.73,2998.57 916.7,2947.17 968.1,2912.9 976.67,2895.76 976.67,2827.23 933.84,2784.39 899.57,2775.82 899.57,2792.95 925.26,2810.1 916.7,2852.93 882.44,2895.76 856.73,2938.6 822.46,2981.43 788.19,3032.84 771.06,3067.11 736.79,3049.97 719.66,3007.14 625.41,3024.27 625.41,2964.3 642.55,2904.33 599.71,2878.63 616.85,2844.36 659.69,2818.66 728.22,2827.23 779.63,2835.79 745.35,2724.42 736.79,2698.72 736.79,2621.61 753.93,2587.35 693.96,2595.91 711.09,2621.61 702.52,2664.45 668.25,2707.28 642.55,2758.68 608.29,2775.82 591.15,2827.23 556.89,2878.63 548.32,2904.33 514.05,2887.2 496.92,2870.06 496.92,2844.36 376.96,2852.93 376.96,2784.39 394.11,2750.12 385.54,2715.84 368.4,2681.58 419.8,2647.31 471.2,2647.31 505.47,2673.01 531.17,2673.01 522.6,2630.17 471.2,2587.35 428.36,2578.78 376.96,2604.48 359.82,2638.75 325.56,2621.61 274.15,2561.64 222.75,2484.54 188.48,2398.86 171.35,2321.76 128.51,2227.52 137.07,2201.82 188.48,2201.81 188.48,2064.73 231.32,2073.3 282.72,2116.13 308.42,2158.97 325.55,2236.07 342.69,2261.78 334.13,2313.18 316.98,2338.88 316.98,2390.28 351.26,2441.69 385.53,2441.7 402.66,2330.32 402.66,2278.92 342.69,2210.37 334.13,2193.24 334.13,2141.84 385.53,2107.57 411.23,2047.6 462.63,2064.73 479.76,2021.89 "/>
   <path class="fil3" d="M5885.76 1850.55l119.95 0 197.04 522.6 257.02 685.39 77.1 197.04 51.4 59.97 42.84 17.14 51.4 8.57 0 59.97 -599.71 0 0 -59.97 102.81 -17.13 34.26 -25.7 8.58 -68.55 -77.11 -231.32 -51.4 -137.07 0 -17.14 -488.34 0 -25.7 85.68 -85.68 248.45 -8.57 85.68 25.71 42.83 59.97 25.71 85.67 8.57 0 59.97 -479.77 0 0 -51.4 59.97 -17.13 68.55 -34.27 51.4 -59.97 68.54 -171.35 145.64 -402.66 291.3 -788.19 17.13 -25.71zm-34.26 325.56l-145.65 402.66 -59.97 162.78 0 25.7 419.8 0.01 -17.14 -77.11 -162.78 -454.07 -25.7 -59.97 -8.57 0z"/>
   <polygon class="fil7" points="2321.75,2004.76 2347.45,2004.76 2381.72,2047.59 2381.72,2064.73 2433.12,2047.59 2458.82,2124.7 2493.09,2150.4 2493.09,2218.94 2458.82,2270.34 2433.12,2304.62 2441.69,2373.15 2475.96,2398.85 2690.15,2450.25 2767.25,2475.96 2801.52,2475.96 2801.52,2458.83 2664.44,2398.86 2578.77,2356.02 2527.37,2296.05 2518.8,2270.35 2518.8,2176.11 2553.06,2107.57 2595.9,2073.3 2621.6,2064.73 2741.55,2064.73 2844.36,2099.01 2878.62,2099.01 2887.19,2064.73 2930.03,2073.3 2947.16,2107.57 2947.16,2176.11 2870.06,2236.08 2844.36,2244.64 2784.38,2244.64 2664.44,2184.67 2621.61,2184.67 2613.04,2227.5 2673.01,2253.21 2767.25,2278.91 2861.49,2338.88 2904.32,2390.28 2921.46,2433.12 2912.9,2493.09 2887.19,2535.92 2844.36,2561.63 2750.12,2561.64 2767.25,2578.77 2835.78,2587.34 2818.65,2664.44 2801.52,2681.58 2784.38,2741.55 2767.25,2750.12 2741.55,2810.09 2698.71,2878.62 2664.45,2861.49 2613.04,2895.75 2587.34,2887.19 2570.2,2801.52 2578.77,2775.81 2535.93,2784.38 2544.5,2732.97 2578.77,2690.15 2638.74,2681.58 2673.01,2690.15 2673.01,2655.87 2621.61,2647.31 2561.64,2595.9 2553.07,2681.58 2493.1,2801.52 2501.67,2852.93 2527.37,2870.06 2510.23,2904.33 2433.12,2981.43 2390.29,3007.14 2304.62,3092.81 2270.34,3109.94 2261.78,3135.65 2236.08,3135.65 2218.94,3118.51 2116.13,3161.35 2107.56,3178.48 2090.43,3178.48 2081.86,3152.79 2081.86,3067.11 2116.13,3015.7 2141.84,2947.17 2193.24,2912.9 2304.62,2904.33 2347.44,2870.07 2356.01,2827.23 2347.44,2801.53 2347.44,2715.85 2398.85,2638.75 2415.99,2621.62 2364.59,2647.32 2338.88,2707.29 2296.05,2758.69 2270.34,2792.96 2244.64,2792.95 2227.5,2835.79 2176.1,2861.49 2133.27,2921.46 2099,2912.9 2081.86,2887.2 2004.75,2895.76 1996.19,2921.46 1979.06,2921.46 1979.06,2818.66 2013.32,2767.26 2013.32,2741.55 1979.06,2732.98 1996.19,2698.72 2047.59,2673.01 2099,2681.58 2141.84,2707.29 2176.1,2698.72 2193.24,2673.01 2193.24,2621.61 2158.97,2587.35 2099,2595.91 2056.16,2638.74 2030.46,2604.48 2013.33,2553.07 1996.19,2467.39 1996.19,2390.29 1979.06,2278.92 1961.92,2193.24 1996.19,2184.67 2004.75,2081.86 1996.19,2047.6 2047.59,2056.17 2116.14,2116.14 2124.7,2133.27 2133.27,2210.37 2167.53,2253.21 2158.97,2296.05 2124.7,2338.88 2116.14,2398.85 2141.84,2458.82 2184.67,2450.25 2201.81,2390.28 2210.37,2287.47 2150.4,2201.81 2141.84,2150.4 2184.67,2107.56 2210.37,2099 2236.07,2039.03 2287.47,2064.73 2304.62,2021.89 "/>
   <polygon class="fil3" points="4472.15,1816.28 4746.3,1816.28 4934.79,1850.55 5097.57,1910.52 5123.27,1927.65 5140.4,2278.91 5131.83,2287.47 5080.43,2287.48 5029.03,2150.4 4977.63,2056.17 4900.52,1979.06 4797.71,1927.65 4677.77,1901.95 4532.13,1901.95 4395.05,1936.22 4300.8,1987.62 4215.13,2064.73 4155.16,2158.97 4112.32,2253.21 4069.5,2415.99 4060.93,2493.09 4060.93,2681.57 4078.06,2810.09 4112.34,2938.59 4155.16,3041.4 4215.13,3135.64 4275.1,3204.18 4395.05,3281.28 4497.86,3315.56 4540.69,3324.12 4737.74,3324.13 4874.82,3289.86 4951.92,3255.6 5046.17,3195.63 5097.57,3152.79 5148.97,3092.82 5174.67,3118.51 5191.8,3152.79 5183.24,3187.06 5140.41,3238.46 5020.47,3332.7 4874.82,3401.24 4746.31,3435.51 4686.34,3444.07 4489.29,3444.07 4369.34,3426.94 4223.7,3384.1 4078.05,3307 3966.68,3212.76 3889.57,3109.95 3829.6,2990.01 3786.77,2844.36 3769.63,2724.42 3769.63,2535.94 3795.33,2398.86 3846.74,2261.79 3906.71,2150.41 4000.95,2039.04 4095.19,1961.93 4215.13,1893.39 4317.94,1850.56 "/>
   <path class="fil3" d="M9595.42 59.97l591.15 0 137.08 17.13 94.23 34.27 68.54 51.4 34.27 42.84 34.27 85.67 0 154.21 -34.27 77.1 -59.97 77.11 -77.1 51.4 -68.54 34.26 34.26 59.97 197.05 299.86 85.67 128.51 68.55 59.97 77.1 17.13 0 51.4 -316.99 0.01 -51.4 -77.1 -137.07 -214.18 -179.92 -282.72 -128.51 -0.01 0 411.24 25.71 77.1 42.83 25.71 94.24 8.57 8.57 8.57 0 42.83 -539.74 0.01 0 -51.4 77.11 -8.57 51.39 -34.27 17.14 -34.26 0 -950.98 -25.71 -77.1 -42.83 -25.71 -77.1 -8.57 -0.01 -51.4zm462.64 51.4l-94.24 8.57 -8.57 8.57 0 539.74 179.91 0 85.68 -25.7 68.54 -51.4 34.27 -68.54 17.13 -77.11 0 -111.38 -34.27 -102.81 -59.97 -68.54 -68.54 -34.26 -94.24 -17.14 -25.7 0z"/>
   <path class="fil3" d="M15763.93 34.27l137.07 0 171.35 34.26 102.81 42.84 94.23 59.97 102.81 102.81 68.55 119.94 34.26 102.81 8.57 42.84 0 222.75 -34.26 145.64 -68.55 137.08 -59.97 77.1 -68.54 68.54 -94.23 59.97 -85.68 42.84 -145.65 34.27 -179.91 0 -154.21 -34.26 -119.94 -59.97 -77.1 -59.97 -77.1 -77.11 -68.55 -111.38 -42.83 -119.94 -17.14 -94.23 0 -154.21 25.71 -128.52 42.83 -102.8 51.4 -85.68 77.11 -94.24 102.8 -77.1 102.81 -51.4 111.38 -34.27 59.98 -8.57zm0 68.54l-94.24 25.7 -77.1 42.84 -68.55 68.54 -68.54 137.08 -34.27 171.35 0 171.35 25.71 154.21 42.83 119.94 42.84 85.68 77.1 94.23 94.24 59.97 77.1 25.71 154.21 0 94.24 -25.7 85.68 -59.97 59.97 -77.11 42.83 -94.23 25.71 -102.81 8.57 -68.54 0 -248.46 -34.27 -154.21 -68.54 -137.07 -59.97 -77.11 -85.68 -68.54 -85.67 -34.27 -42.84 -8.57 -111.36 0z"/>
   <polygon class="fil8" points="5080.43,59.97 5423.13,59.97 5525.94,179.91 5620.17,299.85 5722.98,419.8 5817.23,539.74 5911.46,651.12 5980.01,736.79 6057.11,831.03 6168.48,968.11 6168.48,248.45 6142.79,171.35 6099.95,137.08 6057.11,119.94 5988.57,111.38 5988.57,59.97 6434.07,59.97 6434.07,111.38 6356.97,119.94 6305.56,145.64 6271.29,222.75 6262.73,257.01 6254.16,1310.8 6185.62,1310.8 6117.09,1233.7 6039.98,1139.46 5945.74,1028.08 5851.5,908.14 5740.12,779.64 5645.89,659.69 5534.51,531.18 5440.27,411.24 5346.03,299.86 5346.03,1130.89 5380.3,1208.01 5414.57,1233.7 5517.38,1250.83 5517.38,1302.24 5071.86,1302.24 5071.86,1259.4 5080.43,1250.83 5174.67,1233.7 5217.51,1190.86 5243.21,1122.33 5243.21,214.18 5200.37,145.65 5140.4,119.95 5071.86,111.39 5071.86,68.55 "/>
   <polygon class="fil4" points="12011.42,1850.55 12662.54,1850.55 12662.54,1901.95 12653.98,1910.52 12559.74,1919.08 12508.33,1944.78 12482.63,1979.06 12474.07,2021.88 12474.07,3229.89 12491.2,3289.86 12534.04,3324.12 12559.74,3332.69 12653.98,3341.25 12662.54,3349.82 12662.54,3401.22 12011.42,3401.24 12011.42,3341.26 12139.93,3324.13 12182.76,3281.29 12191.33,3255.6 12191.33,1996.2 12165.63,1944.79 12105.66,1919.1 12011.42,1910.53 "/>
   <polygon class="fil9" points="3675.39,59.97 4198,59.97 4198,111.38 4095.19,128.51 4060.92,154.21 4043.79,231.32 4043.79,891 4060.92,1028.08 4095.19,1113.75 4163.73,1190.85 4232.27,1225.13 4300.8,1242.26 4437.88,1242.27 4532.12,1216.56 4609.23,1165.16 4660.63,1088.05 4694.9,985.24 4703.46,933.84 4703.46,197.05 4677.77,145.65 4634.93,119.94 4549.26,111.38 4549.26,68.55 4557.83,59.98 4951.92,59.97 4951.92,111.38 4849.11,128.51 4823.41,162.78 4814.85,188.48 4806.28,882.44 4789.15,1002.38 4763.44,1088.05 4712.04,1182.29 4643.5,1250.83 4540.69,1302.24 4429.32,1327.94 4232.27,1327.94 4095.19,1302.24 4018.08,1267.97 3940.98,1216.56 3889.57,1156.59 3846.74,1062.36 3829.6,993.81 3821.04,214.18 3803.91,154.21 3778.2,128.52 3675.4,111.38 3666.83,68.55 "/>
   <polygon class="fil10" points="8481.67,59.97 9346.98,59.97 9346.98,325.56 9304.14,334.13 9278.44,222.75 9252.73,179.91 9184.2,145.65 9141.37,137.08 8850.07,137.08 8841.51,608.28 9107.09,599.71 9158.49,565.44 9184.2,505.48 9192.76,454.08 9244.17,454.07 9244.17,856.74 9192.76,856.74 9175.63,762.49 9132.79,711.09 9072.82,693.96 8850.07,693.96 8850.07,1130.89 8875.77,1190.86 8918.61,1216.56 8944.31,1225.13 9201.33,1225.13 9287.01,1199.43 9338.41,1165.16 9389.82,1079.49 9415.51,1019.52 9458.35,1028.08 9415.51,1250.83 9398.38,1302.24 8481.67,1302.24 8481.67,1250.83 8567.34,1242.27 8610.18,1216.57 8627.31,1173.73 8627.31,197.05 8610.18,145.65 8558.78,119.95 8481.67,111.39 "/>
   <polygon class="fil11" points="1319.37,1310.8 1370.77,1310.8 1405.04,1336.5 1490.72,1336.51 1516.41,1310.8 1567.82,1310.8 1593.53,1327.94 1593.53,1345.08 1679.19,1336.51 1704.89,1310.8 1756.31,1310.8 1790.57,1336.5 1901.94,1345.07 1901.94,1859.11 1807.71,1859.11 1807.71,2056.17 1687.76,2056.17 1687.76,1859.11 1405.04,1859.11 1405.04,2056.17 1285.1,2056.17 1285.1,1859.11 1190.85,1859.11 1190.85,1345.08 1293.66,1336.51 "/>
   <polygon class="fil12" points="13622.08,59.97 14127.55,59.97 14136.12,68.54 14136.12,111.38 14050.45,128.51 14033.31,171.35 14084.71,265.58 14230.36,488.33 14316.04,616.85 14401.71,488.33 14573.05,214.17 14581.62,145.64 14538.79,119.94 14461.68,111.38 14461.68,68.54 14470.24,59.97 14812.95,59.97 14812.95,111.38 14735.84,145.65 14693,188.48 14624.47,282.72 14521.66,445.5 14435.98,574.01 14376.01,668.25 14367.45,676.82 14367.45,1165.16 14393.15,1225.12 14427.42,1242.26 14530.22,1250.82 14530.22,1302.23 13964.77,1302.24 13964.77,1259.4 13973.34,1250.83 14067.58,1242.27 14110.42,1216.57 14136.12,1156.6 14136.12,719.67 14024.74,556.89 13921.93,411.24 13801.99,239.89 13742.02,162.79 13673.49,119.95 13613.52,102.82 "/>
   <polygon class="fil9" points="12448.36,0 12491.19,8.57 12534.03,51.4 13459.3,51.4 13493.58,25.71 13502.14,0 13553.55,0 13519.27,325.56 13476.44,325.56 13467.88,316.99 13450.74,214.18 13425.04,171.35 13356.5,145.65 13099.48,145.65 13099.48,1148.02 13125.18,1216.56 13168.02,1242.27 13262.25,1250.83 13270.81,1259.4 13270.81,1302.23 12705.37,1302.24 12705.37,1250.83 12808.18,1242.27 12851.02,1216.57 12868.15,1173.73 12876.72,137.08 12602.56,145.65 12534.03,162.78 12499.75,205.62 12465.49,316.99 12422.65,325.56 12414.09,308.42 12439.78,8.57 "/>
   <polygon class="fil13" points="16629.22,59.97 17494.53,59.97 17494.53,325.56 17451.69,334.13 17425.99,222.75 17391.72,171.35 17348.89,145.65 17314.61,137.08 16989.05,128.52 16989.05,608.28 17288.92,599.71 17331.75,556.89 17357.45,471.21 17400.28,471.21 17400.28,856.74 17357.45,865.3 17331.75,762.49 17288.92,711.09 17228.95,693.95 16997.62,693.96 16997.62,1173.73 17023.32,1225.14 17066.16,1242.27 17177.53,1250.83 17186.1,1293.67 17177.53,1302.24 16629.22,1302.24 16629.22,1250.83 16740.6,1233.7 16766.29,1199.43 16774.86,1173.73 16774.86,197.05 16757.73,137.08 16706.32,119.94 16629.22,111.38 "/>
   <polygon class="fil10" points="7170.87,59.97 7676.34,59.97 7684.91,68.54 7684.91,111.38 7607.8,119.94 7573.53,145.64 7564.96,188.48 7590.67,274.14 7881.96,1002.38 7881.96,1028.07 7899.09,1028.08 7916.23,950.97 8053.3,565.44 8173.25,231.32 8173.25,154.21 8147.55,128.52 8044.74,111.38 8044.74,59.98 8396,59.97 8396,111.38 8318.89,137.07 8284.62,188.48 7873.39,1285.1 7856.25,1310.8 7787.71,1310.8 7762.02,1276.53 7633.51,959.55 7487.86,608.28 7350.78,274.15 7307.95,179.91 7273.68,137.08 7230.85,119.94 7170.88,111.38 "/>
   <polygon class="fil5" points="11214.66,51.4 11386,51.4 11548.78,77.1 11565.91,257.01 11565.91,325.56 11514.52,325.56 11480.25,222.75 11428.84,154.21 11360.31,119.94 11266.06,111.38 11188.96,128.51 11120.42,171.35 11077.59,239.88 11069.02,265.59 11069.02,394.1 11111.86,462.63 11180.39,522.6 11317.47,591.14 11454.55,668.25 11540.22,736.79 11600.19,831.02 11625.9,950.97 11617.33,1053.78 11583.06,1148.01 11523.09,1225.12 11454.55,1276.52 11360.31,1319.36 11248.93,1345.06 11111.85,1345.08 10991.91,1319.37 10897.66,1285.11 10880.53,1250.83 10863.4,1088.05 10863.4,1002.38 10906.23,993.81 10940.5,1096.62 10991.91,1182.3 11069.01,1242.27 11146.12,1267.97 11257.5,1267.97 11343.16,1233.7 11386,1199.43 11420.28,1130.89 11420.28,1002.38 11386,933.84 11317.47,873.87 11163.25,788.2 11043.31,719.66 10957.63,651.12 10914.8,591.15 10880.53,488.34 10880.53,342.7 10914.8,248.46 10966.2,171.36 11026.17,119.95 11111.85,77.11 "/>
   <polygon class="fil5" points="11805.81,59.97 12311.28,59.97 12319.84,68.54 12319.84,111.38 12217.03,128.51 12182.77,154.2 12174.21,179.91 12174.21,1182.29 12199.9,1225.13 12234.18,1242.26 12311.28,1250.82 12319.84,1259.39 12319.84,1302.23 11805.81,1302.24 11797.24,1259.4 11805.81,1250.83 11908.62,1233.7 11934.31,1208.01 11942.88,1182.3 11942.88,179.92 11917.18,137.08 11874.34,119.95 11797.24,111.39 11797.24,68.55 "/>
   <polygon class="fil3" points="6579.72,59.97 7093.76,59.97 7093.76,111.38 6999.52,128.51 6956.68,171.35 6956.68,1190.86 6973.82,1225.13 7008.09,1242.27 7093.77,1250.83 7102.33,1293.66 7093.77,1302.23 6579.72,1302.24 6579.72,1259.4 6588.29,1250.83 6691.1,1233.7 6716.79,1208.01 6725.36,1182.3 6725.36,188.49 6699.66,137.08 6656.82,119.95 6579.72,111.39 "/>
   <polygon class="fil14" points="496.9,188.48 531.17,205.62 548.3,257.02 591.14,222.75 608.27,239.88 616.84,282.72 659.67,325.56 642.54,385.53 616.85,385.53 608.28,359.83 591.14,488.34 574.01,531.18 616.85,539.74 633.98,565.44 633.98,599.71 599.7,591.15 591.14,582.58 574.01,642.55 539.73,625.41 531.17,616.85 505.47,676.82 479.76,676.82 454.07,608.28 436.92,642.55 479.76,693.96 505.46,719.66 539.73,676.82 608.27,659.69 651.11,625.41 736.79,599.71 873.86,599.71 993.81,625.41 1036.65,625.41 1053.78,608.28 1053.78,565.44 1010.94,548.31 848.16,488.34 771.06,445.51 719.66,385.54 711.09,299.86 745.36,239.89 805.33,205.62 908.13,205.62 1010.94,239.88 1045.22,239.88 1053.78,197.05 1088.04,231.32 1079.48,274.15 1070.91,282.72 1010.94,282.72 942.41,265.59 1045.22,308.42 1036.65,325.56 985.24,334.13 839.6,265.59 788.19,274.15 762.49,299.85 762.49,359.82 796.76,411.23 805.32,376.95 873.87,419.79 916.7,462.62 908.13,428.36 959.54,436.92 1010.94,496.9 1036.65,479.76 1079.48,514.03 1105.19,574 1096.62,633.97 1053.78,668.24 985.24,668.25 933.84,651.12 899.57,651.12 950.97,711.09 985.24,805.32 1019.51,831.03 1088.05,839.6 1096.62,899.57 1062.35,908.13 1096.62,950.96 1096.62,993.8 1070.91,1002.37 1053.78,993.8 1088.05,1045.21 1088.05,1130.88 1045.22,1113.74 1036.65,1070.91 1019.52,1079.48 1019.52,1122.31 968.11,1148.01 942.41,1148.02 959.54,1070.92 1019.51,976.68 1019.51,916.71 942.41,882.44 891,848.17 831.03,779.64 762.49,676.83 762.49,685.39 753.93,728.22 676.82,728.22 633.98,745.36 599.7,745.36 591.14,728.22 565.44,779.63 574.01,856.74 539.73,873.87 539.73,856.74 522.6,856.74 522.6,908.14 496.91,942.41 471.2,933.84 445.5,993.81 411.23,1010.94 402.66,993.81 385.53,1079.49 359.83,1130.89 325.56,1122.33 316.99,1070.92 282.72,1088.05 265.59,1122.33 197.05,1139.46 205.62,1079.49 342.69,976.68 385.53,933.84 419.8,891.01 445.5,831.04 436.93,771.07 411.24,685.39 411.24,539.75 445.5,522.61 419.8,462.64 402.67,376.97 402.67,342.7 394.11,351.27 394.11,394.11 368.4,385.54 342.7,325.57 351.27,291.3 376.96,282.73 402.67,291.3 411.24,231.33 436.92,231.32 471.2,257.01 479.76,214.18 "/>
   <polygon class="fil14" points="2347.45,188.48 2381.72,205.62 2398.85,257.02 2450.25,222.75 2467.39,282.72 2510.22,308.42 2501.66,368.39 2493.09,385.53 2458.83,376.96 2441.69,488.34 2424.56,531.17 2467.39,539.73 2484.53,565.44 2484.53,599.7 2450.25,591.14 2433.12,582.57 2433.12,633.98 2398.85,633.98 2390.28,608.28 2373.15,608.28 2364.59,668.25 2330.31,676.82 2304.62,608.28 2296.05,651.12 2330.31,693.95 2356.02,719.66 2390.28,676.82 2458.83,659.69 2501.66,625.41 2587.34,599.71 2724.41,599.71 2844.36,625.41 2887.19,625.41 2904.33,608.28 2904.33,565.44 2861.49,548.31 2681.58,479.77 2604.48,428.37 2570.2,376.96 2561.64,308.43 2595.91,239.88 2655.88,205.62 2758.68,205.62 2904.33,248.45 2904.33,205.62 2921.46,197.05 2938.59,231.32 2930.03,274.15 2921.46,282.72 2861.49,282.72 2792.95,265.59 2895.76,308.42 2895.76,325.56 2835.79,334.13 2690.15,265.59 2638.74,274.15 2613.04,308.42 2613.04,359.82 2647.31,411.23 2647.31,385.53 2690.15,394.1 2741.55,436.92 2767.25,462.63 2758.68,428.36 2810.09,436.92 2852.93,479.76 2861.49,496.9 2887.19,479.76 2930.03,514.03 2955.72,574 2947.16,633.97 2921.46,659.67 2904.33,668.24 2844.36,668.25 2784.39,651.12 2750.12,651.12 2792.94,693.95 2844.35,813.9 2870.06,831.03 2938.59,839.6 2947.16,899.57 2912.89,908.13 2947.16,950.97 2947.16,993.8 2912.89,1002.37 2938.59,1045.21 2930.03,1130.88 2904.32,1122.32 2878.62,1070.91 2870.06,1096.61 2861.49,1130.88 2801.52,1148.01 2810.09,1070.91 2870.06,976.67 2870.06,916.7 2792.95,882.43 2741.55,848.16 2681.58,779.62 2621.61,685.38 2613.03,685.38 2604.47,728.22 2527.37,728.22 2484.53,745.36 2450.25,745.36 2441.69,728.22 2415.99,788.19 2424.56,856.74 2390.28,873.87 2390.28,856.74 2373.15,856.74 2373.15,916.71 2356.02,942.41 2330.31,942.41 2321.75,925.27 2304.62,985.24 2278.92,1010.94 2261.78,1010.94 2261.78,985.24 2244.64,985.24 2244.64,1070.91 2218.94,1105.19 2210.37,1130.88 2184.67,1130.89 2167.53,1079.49 2158.97,1070.92 2133.27,1079.49 2116.14,1122.32 2047.59,1139.46 2056.16,1079.49 2099,1045.22 2176.1,993.81 2227.5,950.97 2278.91,873.87 2296.05,839.61 2296.05,788.2 2270.34,728.23 2261.78,685.39 2261.78,539.74 2296.05,522.61 2270.34,462.64 2253.21,368.41 2244.64,394.11 2218.95,385.54 2201.81,351.27 2201.81,291.3 2227.51,282.73 2261.78,291.3 2261.78,231.33 2287.48,231.32 2304.62,239.88 2304.62,257.01 2321.75,257.01 2330.31,214.18 "/>
   <polygon class="fil14" points="505.47,2030.46 539.73,2073.3 548.3,2099 599.7,2064.73 608.27,2073.3 608.27,2141.84 651.11,2141.84 659.67,2150.4 651.11,2218.94 642.54,2236.08 625.41,2236.08 616.85,2218.94 591.15,2347.45 582.58,2364.59 608.28,2364.59 633.98,2415.99 642.54,2450.26 599.7,2441.7 582.57,2484.54 556.88,2484.54 539.73,2467.39 539.73,2433.13 522.6,2433.13 505.47,2475.96 471.2,2458.83 462.63,2424.56 471.2,2484.53 496.9,2510.23 531.17,2501.67 565.44,2518.8 591.14,2518.8 633.98,2475.96 668.25,2458.83 779.63,2450.26 916.7,2475.96 976.67,2493.1 1036.65,2493.1 1062.35,2475.96 1053.78,2424.56 993.81,2398.86 856.73,2364.59 771.06,2321.76 728.22,2278.92 711.09,2218.95 719.66,2150.41 779.63,2081.86 805.32,2073.3 891,2073.3 993.81,2124.7 1019.51,2141.84 1062.35,2141.84 1088.04,2107.57 1096.61,2116.14 1096.61,2167.54 1062.35,2193.24 993.8,2184.67 916.7,2141.84 985.23,2193.24 1028.07,2210.37 1019.51,2227.51 942.41,2218.95 856.73,2158.98 839.6,2150.41 779.63,2150.4 753.93,2184.67 762.49,2253.21 831.03,2313.18 822.46,2287.48 882.44,2296.05 925.26,2330.31 925.26,2304.62 985.23,2313.18 1028.07,2356.02 1036.64,2338.88 1070.91,2356.02 1113.74,2424.56 1113.74,2475.96 1070.91,2527.37 1053.77,2535.93 993.81,2535.93 908.13,2510.23 899.57,2518.8 933.84,2527.37 959.54,2553.07 1002.38,2707.28 1028.07,2732.98 1079.48,2750.12 1079.48,2844.36 1045.21,2835.79 1079.48,2895.76 1079.48,2938.59 1053.78,2947.16 1070.91,2981.43 1070.91,3058.53 1019.51,3024.27 1028.07,3101.37 993.8,3152.78 976.67,3152.79 959.54,3101.38 959.54,3041.41 993.81,2930.04 1002.38,2818.66 976.67,2775.82 882.44,2707.29 813.89,2535.94 805.32,2553.07 745.35,2544.51 693.96,2561.64 651.12,2553.07 642.55,2587.35 676.82,2630.18 659.69,2673.01 642.55,2681.58 616.86,2673.01 625.42,2707.29 608.28,2741.56 574.02,2724.42 574.02,2792.96 531.18,2861.5 514.05,2844.36 514.05,2767.26 479.77,2775.82 471.21,2810.1 402.67,2818.66 419.8,2758.69 454.08,2732.99 531.18,2698.72 556.88,2673.02 556.88,2621.62 514.05,2578.78 471.21,2544.51 428.37,2467.41 419.8,2398.87 436.95,2373.16 471.21,2364.6 436.95,2321.77 419.8,2227.52 419.8,2193.25 411.24,2236.09 376.97,2218.96 359.83,2193.25 359.83,2141.86 394.11,2133.29 411.24,2141.86 411.24,2090.45 428.38,2073.31 479.78,2107.58 488.35,2056.18 "/>
   <polygon class="fil14" points="2330.31,2030.46 2356.02,2056.17 2364.59,2107.57 2398.85,2081.86 2424.56,2081.86 2433.12,2141.84 2467.38,2150.4 2475.95,2158.97 2475.95,2210.37 2458.82,2236.07 2433.12,2236.08 2424.56,2201.81 2407.42,2304.62 2364.59,2373.15 2398.86,2364.59 2433.12,2433.13 2424.56,2458.83 2381.73,2441.7 2364.59,2484.53 2338.89,2475.96 2330.32,2433.13 2313.18,2433.13 2304.62,2484.54 2278.91,2484.54 2261.78,2458.83 2261.78,2510.23 2296.05,2544.51 2304.62,2518.8 2347.44,2510.23 2381.72,2510.23 2441.69,2467.39 2518.79,2450.26 2630.16,2458.83 2750.12,2493.1 2818.65,2493.1 2827.22,2450.26 2827.22,2433.13 2784.38,2415.99 2613.03,2338.89 2553.06,2287.48 2535.93,2236.08 2544.5,2167.54 2595.9,2107.57 2655.87,2081.86 2741.55,2090.43 2870.06,2133.27 2895.76,2133.27 2904.33,2090.43 2921.46,2107.57 2921.46,2158.98 2904.33,2176.11 2844.36,2176.11 2758.68,2133.27 2741.55,2133.27 2818.65,2176.11 2870.06,2193.24 2870.06,2210.37 2801.52,2218.94 2715.84,2176.11 2673.01,2150.4 2621.61,2150.4 2587.34,2184.67 2587.34,2244.64 2621.61,2287.47 2638.74,2296.04 2638.74,2278.91 2681.58,2287.47 2715.84,2313.18 2715.84,2296.04 2758.68,2304.6 2801.52,2338.88 2818.65,2356.01 2852.91,2364.58 2887.19,2415.98 2887.19,2475.95 2844.35,2527.36 2827.22,2535.92 2767.25,2535.93 2655.87,2501.67 2664.44,2510.23 2724.41,2587.34 2792.94,2613.03 2784.38,2655.87 2758.68,2655.88 2767.25,2690.15 2758.68,2715.85 2732.98,2715.85 2724.41,2775.82 2698.71,2827.23 2681.58,2818.66 2681.58,2775.82 2664.44,2775.82 2647.31,2835.79 2604.47,2852.93 2604.47,2767.26 2681.58,2707.29 2690.15,2690.15 2690.15,2638.74 2613.03,2613.04 2561.63,2544.51 2553.06,2561.64 2458.83,2553.07 2364.59,2595.91 2338.89,2578.77 2321.75,2613.04 2321.75,2681.58 2313.18,2698.72 2278.92,2690.16 2261.78,2741.56 2227.51,2750.13 2210.38,2792.95 2167.54,2818.66 2124.7,2887.2 2099.01,2870.07 2107.57,2810.1 2056.17,2852.93 2004.76,2861.49 2013.33,2810.09 2056.17,2775.82 2176.11,2732.98 2210.38,2690.15 2218.95,2673.01 2218.95,2441.7 2236.08,2373.16 2261.78,2356.02 2236.08,2287.48 2218.95,2218.95 2193.24,2227.51 2167.54,2184.67 2176.11,2141.84 2218.95,2133.27 2236.08,2099.01 2261.78,2073.3 2287.48,2099.01 2313.18,2047.6 "/>
   <path class="fil15" d="M1319.37 1310.8l51.4 0 34.26 25.7 85.68 0.01 25.7 -25.71 51.4 0 25.71 17.13 0 17.14 85.67 -8.57 25.7 -25.71 51.41 0 34.26 25.7 111.38 8.57 0 514.05 -94.23 0 0 197.05 -119.95 0 0 -197.05 -282.72 0 0 197.05 -119.94 0 0 -197.05 -94.24 0 0 -514.04 102.81 -8.57 25.71 -25.71zm17.13 34.27l-17.13 17.13 0 25.7 -85.68 0 0 25.71 85.68 0 0 25.7 -85.68 0 0 385.53 625.42 0 8.57 -8.57 0 -376.96 -102.81 0 8.57 -25.7 85.68 0 8.57 -25.71 -102.81 0 -17.14 -42.83 -34.26 8.57 -8.57 34.26 -128.52 0 -17.13 -42.83 -34.26 8.57 -8.57 34.26 -137.08 0 -8.57 -34.26 -34.27 -8.57z"/>
   <polygon class="fil14" points="2467.39,2578.77 2501.66,2587.34 2544.5,2604.47 2535.93,2655.87 2484.53,2732.98 2467.39,2767.25 2467.39,2835.79 2484.53,2878.62 2458.83,2912.9 2433.12,2904.33 2415.99,2947.17 2373.15,2955.73 2347.45,2998.56 2304.62,2990 2296.05,3049.97 2253.22,3092.81 2236.08,3084.24 2236.08,3032.84 2210.38,3049.97 2193.25,3092.81 2176.11,3109.94 2107.57,3127.07 2107.57,3067.1 2150.41,3024.27 2287.48,2947.17 2373.16,2878.62 2390.29,2844.36 2373.16,2724.41 2398.86,2673 2441.7,2630.17 2458.83,2587.34 "/>
   <polygon class="fil16" points="188.48,257.01 231.32,291.29 248.45,334.13 257.01,574.01 291.29,668.25 325.55,693.95 359.82,685.38 394.1,659.69 402.66,693.95 402.66,762.49 334.12,796.76 299.85,831.03 265.58,779.63 265.58,762.49 308.42,762.49 308.42,745.36 265.59,736.8 222.75,693.96 214.18,642.55 231.32,633.99 179.91,574.02 179.91,531.18 197.05,522.61 145.65,454.08 137.08,411.24 171.35,402.67 197.05,428.38 188.49,385.54 171.35,342.7 "/>
   <polygon class="fil16" points="2039.03,265.59 2073.29,282.72 2099,334.13 2107.56,574.02 2141.83,668.25 2176.1,693.95 2210.37,685.38 2244.63,659.69 2253.2,693.96 2253.2,762.49 2184.66,796.77 2150.39,831.03 2116.13,779.63 2116.13,762.49 2158.97,762.49 2158.97,745.36 2116.13,736.8 2073.3,693.96 2064.73,642.55 2081.86,633.99 2039.03,591.15 2030.46,531.18 2064.73,522.61 2030.46,505.48 1987.63,428.38 1987.63,411.24 2021.89,402.67 2047.6,428.38 2039.04,385.54 2030.47,376.97 2030.47,308.44 "/>
   <polygon class="fil16" points="771.06,753.93 796.76,753.93 822.46,805.33 822.46,908.14 865.29,942.41 848.16,985.24 822.46,976.68 822.46,1036.65 805.32,1062.35 779.63,1062.35 779.63,1045.22 762.49,1045.22 762.49,1105.19 702.52,1165.16 693.95,1165.16 693.95,1105.19 702.51,1088.05 625.41,1139.46 556.88,1139.46 582.57,1088.05 633.98,1062.35 736.79,1028.08 762.48,1002.38 762.48,942.41 719.66,865.3 719.66,796.77 "/>
   <polygon class="fil16" points="2621.61,753.93 2647.31,753.93 2673,805.33 2673,899.57 2715.84,942.41 2698.71,985.24 2673,976.68 2673,1036.65 2655.87,1062.35 2630.17,1062.35 2630.17,1045.22 2613.03,1045.22 2613.03,1105.19 2553.06,1165.16 2544.5,1165.16 2544.5,1105.19 2553.06,1088.05 2475.96,1139.46 2407.41,1139.46 2424.56,1096.62 2458.82,1070.92 2570.19,1036.65 2613.03,1002.38 2613.03,942.41 2570.19,856.74 2570.19,805.33 2613.03,762.49 "/>
   <polygon class="fil16" points="222.75,2099.01 274.15,2141.84 282.72,2158.97 282.72,2218.94 274.15,2253.21 274.15,2347.45 308.42,2433.12 359.82,2475.96 411.23,2450.26 436.92,2518.8 428.36,2553.07 368.4,2578.77 334.13,2587.34 308.43,2544.5 334.13,2535.93 334.13,2518.8 291.29,2518.8 248.45,2467.39 257.01,2433.13 214.18,2381.73 205.62,2338.89 222.75,2321.76 179.91,2270.35 171.35,2218.95 214.18,2227.51 231.32,2236.08 214.18,2150.4 "/>
   <polygon class="fil16" points="2039.03,2090.43 2073.29,2107.57 2099,2141.84 2099,2227.51 2090.43,2296.05 2090.43,2398.86 2107.56,2458.83 2141.84,2484.53 2184.66,2475.96 2210.37,2467.39 2201.81,2561.64 2124.69,2561.64 2056.16,2578.77 2039.03,2518.8 2064.72,2501.67 2030.45,2467.39 2021.88,2415.99 2039.03,2398.86 2030.46,2381.73 2030.46,2330.32 2047.59,2330.32 2004.75,2261.78 1996.19,2210.37 2047.59,2218.94 2039.03,2193.24 "/>
   <polygon class="fil16" points="796.76,2595.9 822.46,2604.47 856.73,2681.58 873.86,2810.09 891,2810.09 882.44,2852.93 856.73,2852.93 831.03,2912.9 796.76,2904.33 796.76,2964.3 762.49,3015.7 745.35,3015.7 736.79,2938.6 719.66,2938.6 711.09,2972.87 651.12,2990.01 659.69,2938.6 719.66,2887.2 788.19,2852.93 796.76,2844.36 796.76,2784.39 762.48,2690.16 762.48,2621.61 "/>
   <polygon class="fil16" points="1336.5,1345.08 1370.77,1353.64 1379.34,1387.91 1516.41,1387.91 1524.98,1353.64 1559.25,1345.08 1576.38,1387.91 1704.9,1387.91 1713.47,1353.64 1747.73,1345.08 1764.87,1387.91 1867.68,1387.91 1859.11,1413.61 1773.44,1413.61 1756.31,1465.02 1722.03,1473.58 1704.9,1456.44 1704.9,1413.61 1576.38,1413.61 1576.38,1456.44 1559.25,1473.58 1516.42,1465.02 1516.42,1413.61 1379.34,1413.61 1379.34,1456.44 1362.2,1473.58 1327.94,1465.02 1319.37,1456.45 1319.37,1413.61 1233.69,1413.61 1233.69,1387.91 1319.37,1387.91 1327.94,1353.64 "/>
   <polygon class="fil7" points="1507.85,1584.96 1576.38,1584.96 1662.06,1627.8 1619.22,1670.63 1559.25,1687.77 1482.15,1679.2 1430.75,1644.93 1430.75,1619.23 "/>
   <path class="fil17" d="M1516.41 1559.25l94.24 8.57 77.1 51.4 0 25.71 -59.97 51.4 -59.97 17.13 -85.67 -8.57 -68.55 -42.84 -25.7 -34.26 51.4 -42.84 77.1 -25.71zm-8.57 25.71l-85.67 42.84 42.83 42.83 59.97 17.14 77.11 -8.57 51.4 -34.27 0 -25.7 -77.11 -34.27 -68.54 0z"/>
   <polygon class="fil18" points="2450.25,1345.08 2484.53,1370.77 2475.96,1405.05 2475.96,1490.72 2510.23,1567.82 2535.93,1602.09 2475.96,1602.09 2467.39,1653.5 2450.25,1662.06 2433.12,1602.09 2381.72,1602.09 2381.72,1584.96 2415.99,1550.69 2441.69,1456.45 2433.12,1396.48 2424.56,1379.34 "/>
   <polygon class="fil19" points="265.58,1345.08 299.85,1370.77 282.72,1430.75 299.85,1524.98 351.26,1602.09 291.29,1602.09 274.15,1662.06 257.01,1644.93 248.45,1602.09 197.04,1602.09 248.45,1499.28 257.01,1413.61 239.88,1379.34 "/>
   <polygon class="fil20" points="1722.03,3015.7 1756.31,3032.84 1764.87,3058.54 1747.73,3075.68 1747.73,3135.65 1773.44,3221.32 1807.7,3255.59 1807.7,3272.73 1764.87,3272.73 1739.16,3332.7 1722.03,3324.13 1704.9,3272.73 1653.5,3272.73 1704.9,3187.05 1713.47,3152.79 1713.47,3075.68 1704.9,3041.41 "/>
   <polygon class="fil21" points="1550.69,574.02 1584.96,599.71 1567.82,659.69 1584.96,753.92 1619.22,805.32 1627.79,831.03 1584.96,831.03 1559.25,891 1542.12,873.87 1533.55,831.03 1482.15,831.03 1533.55,728.22 1542.12,642.55 1524.98,599.71 "/>
   <polygon class="fil21" points="1550.69,2690.15 1584.96,2724.42 1567.82,2758.69 1584.96,2870.07 1619.22,2921.46 1627.79,2947.17 1576.38,2947.17 1559.25,3007.14 1542.12,2998.57 1533.55,2947.17 1482.15,2947.17 1482.15,2930.04 1499.28,2930.04 1533.55,2844.36 1542.12,2758.68 1524.98,2724.42 "/>
   <polygon class="fil18" points="2261.78,1559.25 2296.05,1593.53 2278.91,1627.8 2287.47,1713.47 2321.75,1790.58 2338.88,1799.14 2338.88,1816.28 2287.48,1816.28 2270.34,1876.25 2253.21,1867.68 2244.64,1816.28 2184.67,1816.28 2236.08,1739.17 2253.21,1627.8 2236.08,1610.67 2244.64,1576.39 "/>
   <polygon class="fil18" points="1028.07,1345.08 1062.35,1370.77 1045.22,1413.61 1053.78,1499.28 1088.04,1567.82 1113.75,1602.09 1053.78,1602.09 1036.65,1662.06 1019.51,1644.93 1010.94,1602.09 959.54,1602.09 959.54,1584.96 976.67,1584.96 1010.94,1499.28 1019.51,1413.61 1002.38,1370.77 "/>
   <polygon class="fil22" points="1370.77,3015.7 1405.04,3041.4 1387.91,3101.37 1405.04,3187.05 1439.31,3247.02 1456.44,3272.72 1396.47,3264.15 1387.91,3324.12 1370.77,3332.69 1345.08,3272.72 1302.23,3272.73 1353.63,3169.92 1362.2,3075.68 1345.07,3041.41 "/>
   <polygon class="fil23" points="839.6,1559.25 873.86,1593.53 856.73,1627.8 865.29,1722.03 899.57,1790.58 916.7,1816.28 865.29,1824.84 848.16,1876.25 831.03,1867.68 822.46,1816.28 762.49,1816.28 805.32,1756.31 822.46,1704.9 822.46,1619.23 813.89,1584.96 "/>
   <polygon class="fil24" points="2073.29,1345.08 2107.56,1379.34 2090.43,1405.05 2090.43,1465.01 2116.13,1550.69 2150.4,1602.09 2099,1610.66 2081.85,1662.06 2064.72,1653.5 2056.16,1602.09 1996.19,1602.09 2039.03,1542.12 2056.16,1482.15 2056.16,1405.05 2047.59,1370.77 "/>
   <polygon class="fil18" points="1370.77,248.45 1405.04,274.15 1396.47,308.42 1387.91,334.13 1405.05,419.79 1430.75,471.2 1456.44,505.47 1396.47,505.47 1387.91,556.88 1370.77,565.44 1353.63,514.04 1302.23,505.47 1345.07,436.93 1362.2,359.83 1353.63,299.86 1353.63,274.15 "/>
   <polygon class="fil24" points="2638.74,1567.83 2673.01,1584.96 2664.45,1619.23 2664.45,1696.33 2698.71,1782 2724.41,1816.28 2664.44,1816.28 2655.87,1876.25 2638.74,1876.25 2621.61,1824.84 2570.2,1816.28 2613.03,1747.74 2630.17,1687.77 2630.17,1619.23 2613.03,1593.54 "/>
   <polygon class="fil8" points="1722.03,257.01 1756.31,274.15 1756.31,299.85 1747.74,308.42 1747.74,368.39 1773.44,454.07 1807.71,505.47 1756.31,514.04 1739.16,565.44 1722.03,565.44 1713.47,505.47 1653.5,505.47 1696.32,445.5 1713.47,385.53 1713.47,308.43 1704.9,274.15 "/>
   <polygon class="fil21" points="1722.03,2373.15 1756.31,2390.29 1756.31,2415.99 1747.74,2433.12 1747.74,2493.09 1782,2587.34 1807.71,2621.61 1756.31,2630.17 1739.16,2681.57 1722.03,2681.58 1713.47,2621.61 1653.5,2621.61 1662.06,2604.48 1679.19,2604.48 1696.33,2561.64 1713.47,2501.67 1713.47,2424.57 1704.9,2390.29 "/>
   <polygon class="fil25" points="454.07,1567.83 488.33,1584.96 479.76,1619.23 479.76,1704.9 514.04,1782 539.73,1816.28 479.76,1816.28 471.2,1867.68 454.07,1876.25 436.92,1824.84 385.53,1816.28 428.36,1747.74 445.5,1679.2 445.5,1627.8 428.36,1593.53 "/>
   <polygon class="fil8" points="2835.78,1345.08 2870.06,1387.91 2852.93,1405.05 2852.93,1465.01 2878.62,1550.69 2912.9,1602.09 2861.49,1610.66 2844.35,1662.06 2827.22,1653.5 2818.65,1602.09 2758.68,1602.09 2801.52,1542.12 2818.65,1482.15 2818.65,1405.05 2810.09,1370.77 "/>
   <polygon class="fil21" points="1722.03,899.57 1756.31,916.71 1764.87,933.84 1747.73,959.54 1747.73,1019.51 1782,1113.75 1807.7,1148.01 1756.29,1156.58 1739.16,1216.55 1722.03,1207.98 1713.47,1148.01 1653.5,1148.02 1687.76,1105.19 1713.47,1028.08 1713.47,959.55 1704.9,925.27 "/>
   <polygon class="fil25" points="642.54,1353.64 676.82,1370.77 676.82,1396.47 668.25,1405.05 668.25,1473.58 693.95,1550.69 728.22,1602.09 668.25,1602.09 659.69,1662.06 642.54,1662.06 633.98,1602.09 574.01,1602.09 625.41,1516.42 633.98,1482.15 633.98,1405.05 625.41,1370.77 "/>
   <polygon class="fil23" points="1550.69,2047.6 1584.96,2073.3 1567.82,2133.27 1584.96,2218.94 1610.66,2270.34 1627.79,2296.05 1576.38,2296.05 1567.82,2347.45 1550.69,2364.59 1533.55,2321.76 1533.55,2296.05 1482.15,2296.05 1524.98,2227.51 1542.12,2150.4 1542.12,2107.57 1524.98,2073.3 "/>
   <polygon class="fil26" points="1370.77,899.57 1387.91,899.57 1405.04,942.41 1387.91,985.24 1405.04,1070.91 1439.31,1130.88 1456.44,1148.01 1396.47,1148.02 1387.91,1199.43 1370.77,1216.56 1353.63,1148.02 1302.23,1148.02 1345.07,1079.49 1362.2,1010.94 1362.2,959.55 1345.07,925.27 "/>
   <polygon class="fil12" points="1370.77,2373.15 1387.91,2373.15 1405.04,2415.99 1387.91,2458.83 1405.04,2544.5 1447.88,2621.61 1396.47,2621.61 1387.91,2673.01 1370.77,2681.58 1353.63,2621.61 1302.23,2621.61 1345.07,2553.07 1362.2,2484.54 1362.2,2433.13 1345.07,2398.86 "/>
   <polygon class="fil16" points="1722.03,1345.08 1756.31,1353.64 1764.87,1387.91 1867.68,1387.91 1859.11,1413.61 1773.44,1413.61 1756.31,1465.02 1722.03,1473.58 1704.9,1456.44 1704.9,1413.61 1576.38,1413.61 1576.38,1387.91 1704.9,1387.91 1713.47,1353.64 "/>
   <polygon class="fil7" points="2304.62,419.8 2415.99,419.8 2424.56,454.07 2381.72,539.74 2347.45,548.31 2321.75,514.04 2304.62,462.63 "/>
   <polygon class="fil7" points="2270.34,2253.21 2330.31,2261.78 2373.15,2253.21 2381.72,2287.48 2330.31,2364.59 2296.04,2347.45 2270.34,2296.05 "/>
   <polygon class="fil7" points="462.63,2261.78 531.17,2270.34 574.01,2261.78 565.44,2313.18 531.17,2364.59 496.9,2356.02 462.63,2304.62 "/>
   <polygon class="fil27" points="1533.55,1345.08 1567.82,1353.64 1576.38,1370.77 1576.38,1456.44 1559.25,1473.58 1516.41,1465.02 1516.41,1362.21 "/>
   <polygon class="fil7" points="454.07,419.8 556.88,419.8 565.44,454.07 539.73,514.04 531.17,514.04 531.17,454.07 488.33,462.63 496.9,531.18 522.6,531.18 522.6,548.31 488.33,539.74 445.5,436.93 "/>
   <polygon class="fil16" points="1713.47,1901.95 1764.87,1901.95 1773.44,1910.52 1773.44,1979.06 1764.87,1987.62 1713.47,1987.62 1704.9,1979.06 1704.9,1910.52 "/>
   <polygon class="fil16" points="959.54,2955.73 968.1,2955.73 959.54,3015.7 925.27,3049.98 891,3049.98 882.44,3067.11 873.87,3032.84 899.57,2990.01 "/>
   <polygon class="fil16" points="1310.79,1901.95 1362.2,1901.95 1370.76,1910.52 1370.76,1987.62 1310.79,1987.62 "/>
   <polygon class="fil16" points="2056.16,959.55 2116.13,959.55 2167.53,976.68 2150.4,1010.94 2090.43,1019.51 2047.59,985.24 "/>
   <polygon class="fil16" points="205.61,959.55 265.58,959.55 316.98,976.68 308.42,1002.38 282.72,1019.51 239.88,1019.51 197.04,985.24 "/>
   <polygon class="fil16" points="1507.85,1602.09 1567.82,1602.09 1610.66,1619.23 1602.09,1636.36 1576.38,1644.93 1507.85,1644.93 1473.58,1627.8 1482.15,1610.66 "/>
   <polygon class="fil16" points="2218.94,2930.04 2253.21,2938.6 2236.08,2972.87 2158.97,3007.14 2150.4,2981.43 2193.24,2938.6 "/>
   <polygon class="fil16" points="2047.59,2698.71 2099,2707.28 2133.27,2741.55 2099,2758.68 2056.16,2750.12 2021.89,2724.42 2021.89,2707.29 "/>
   <polygon class="fil16" points="676.82,2835.79 745.35,2852.93 736.79,2878.63 659.69,2887.2 633.99,2861.49 "/>
   <polygon class="fil16" points="2450.25,993.81 2501.66,1002.38 2527.37,1028.08 2527.37,1045.22 2467.39,1053.78 2433.12,1019.51 2433.12,1002.38 "/>
   <polygon class="fil7" points="1379.34,1413.61 1516.41,1413.61 1516.41,1439.31 1379.34,1439.31 "/>
   <polygon class="fil0" points="1379.34,1387.91 1516.41,1387.91 1516.41,1413.61 1379.34,1413.61 "/>
   <polygon class="fil16" points="436.92,2664.45 479.76,2681.58 496.9,2707.28 471.2,2724.42 428.36,2715.85 402.66,2681.58 "/>
   <polygon class="fil16" points="599.7,993.81 642.54,1002.38 676.82,1036.65 642.54,1053.78 608.27,1045.22 582.57,1019.52 582.57,1002.38 "/>
   <polygon class="fil7" points="428.36,299.85 488.33,334.13 488.33,385.53 462.63,385.53 428.36,342.69 419.79,308.43 "/>
   <polygon class="fil7" points="1576.38,1413.61 1704.9,1413.61 1704.9,1439.31 1576.38,1439.31 "/>
   <polygon class="fil0" points="1576.38,1387.91 1704.9,1387.91 1704.9,1413.61 1576.38,1413.61 "/>
   <polygon class="fil28" points="1028.07,1345.08 1062.35,1370.77 1045.22,1413.61 1045.22,1465.01 1019.51,1465.02 1019.51,1413.61 1002.38,1370.77 "/>
   <polygon class="fil29" points="265.58,1345.08 299.85,1370.77 282.72,1430.75 282.72,1456.44 257.01,1465.01 257.01,1413.6 239.88,1379.34 "/>
   <polygon class="fil7" points="2278.91,299.85 2338.88,334.13 2338.88,385.53 2321.75,394.1 2296.05,368.4 2278.91,342.69 "/>
   <polygon class="fil16" points="2604.47,2698.71 2647.31,2698.71 2647.31,2724.42 2613.03,2750.12 2561.63,2758.68 2570.19,2724.41 "/>
   <polygon class="fil30" points="1550.69,2690.15 1584.96,2724.42 1567.82,2758.69 1567.82,2801.52 1542.12,2810.09 1542.12,2758.68 1524.99,2724.42 "/>
   <polygon class="fil31" points="1550.69,574.02 1584.96,599.71 1567.82,659.69 1559.25,685.38 1542.12,685.38 1533.55,625.41 1533.55,591.15 "/>
   <polygon class="fil29" points="2261.78,1559.25 2296.05,1593.53 2261.78,1670.63 2253.21,1653.5 2236.08,1584.96 "/>
   <polygon class="fil16" points="2338.88,454.07 2381.72,454.07 2381.72,514.04 2373.15,531.18 2347.45,531.18 2338.88,514.04 "/>
   <polygon class="fil7" points="2424.56,299.85 2433.12,334.13 2398.85,394.1 2381.72,394.1 2373.15,334.13 "/>
   <polygon class="fil7" points="574.01,299.85 582.57,334.13 548.3,394.1 531.17,394.1 522.6,334.13 "/>
   <polygon class="fil16" points="2124.69,411.23 2150.4,419.79 2158.97,462.63 2133.26,505.47 2116.13,496.91 2116.13,428.36 "/>
   <polygon class="fil16" points="274.15,411.23 299.85,419.79 308.42,462.63 282.72,505.47 265.58,496.91 265.58,428.36 "/>
   <polygon class="fil30" points="1722.03,3015.7 1756.31,3032.84 1764.87,3058.54 1722.03,3101.37 1704.9,3067.11 1713.47,3032.84 "/>
   <polygon class="fil9" points="1550.69,2047.6 1584.96,2073.3 1559.25,2150.4 1550.69,2150.4 1533.55,2099 1533.55,2064.73 "/>
   <polygon class="fil16" points="933.84,1010.94 976.67,1019.51 950.97,1062.35 899.57,1062.35 916.7,1019.52 "/>
   <polygon class="fil32" points="1370.77,899.57 1387.91,899.57 1405.04,942.41 1387.91,985.24 1370.77,993.81 1353.63,950.97 1353.63,916.7 "/>
   <polygon class="fil33" points="1722.03,899.57 1756.31,916.71 1764.87,933.84 1730.6,985.24 1713.47,959.55 1704.9,925.27 "/>
   <polygon class="fil34" points="1370.77,3015.7 1405.04,3041.4 1387.91,3101.37 1370.77,3109.94 1353.63,3067.11 1353.63,3032.84 "/>
   <polygon class="fil34" points="1370.77,2373.15 1387.91,2373.15 1405.04,2415.99 1387.91,2458.83 1370.77,2467.39 1345.07,2398.85 "/>
   <polygon class="fil34" points="1722.03,2373.15 1756.31,2390.29 1756.31,2415.99 1730.6,2458.83 1713.47,2424.56 1704.9,2390.28 "/>
   <polygon class="fil35" points="2450.25,1345.08 2484.53,1370.77 2475.96,1405.05 2458.83,1430.75 2458.83,1413.61 2441.69,1413.61 2424.56,1379.34 "/>
   <polygon class="fil16" points="2784.38,1010.94 2818.65,1010.94 2810.09,1053.78 2801.52,1062.35 2750.12,1062.35 2767.25,1019.52 "/>
   <polygon class="fil7" points="436.92,2158.97 496.9,2176.11 496.9,2227.51 462.63,2218.95 436.92,2176.11 "/>
   <polygon class="fil7" points="2253.21,2150.4 2296.05,2167.54 2313.18,2176.11 2313.18,2218.94 2278.91,2218.94 2253.21,2167.54 "/>
   <polygon class="fil36" points="454.07,1567.83 488.33,1584.96 479.76,1619.23 462.63,1653.5 462.63,1627.8 445.5,1627.8 428.36,1593.53 "/>
   <polygon class="fil36" points="1370.77,248.45 1405.04,274.15 1396.47,308.42 1379.34,325.56 1345.07,291.29 "/>
   <polygon class="fil0" points="1764.87,1387.91 1867.68,1387.91 1859.11,1413.61 1773.44,1413.61 "/>
   <polygon class="fil16" points="291.29,2236.08 325.56,2261.78 308.42,2304.62 299.85,2321.75 282.72,2321.75 282.72,2253.21 "/>
   <polygon class="fil7" points="2390.28,2158.97 2407.41,2167.54 2356.02,2236.08 2338.88,2218.94 2347.44,2176.11 "/>
   <polygon class="fil16" points="496.9,2287.48 539.73,2296.05 531.17,2347.45 496.9,2338.89 488.33,2296.05 "/>
   <polygon class="fil0" points="1233.69,1387.91 1319.37,1387.91 1319.37,1413.61 1233.69,1413.61 "/>
   <polygon class="fil16" points="2304.62,2287.48 2347.45,2287.48 2338.88,2338.89 2304.62,2338.89 "/>
   <polygon class="fil16" points="1773.44,1730.61 1816.28,1739.17 1816.28,1773.44 1782,1782 1764.87,1764.87 "/>
   <polygon class="fil16" points="1782,1490.72 1816.28,1499.28 1807.71,1542.12 1773.44,1542.12 1764.87,1507.85 "/>
   <polygon class="fil7" points="574.01,2158.97 591.14,2158.97 574.01,2193.24 539.73,2227.51 531.17,2184.67 "/>
   <polygon class="fil7" points="2595.9,2681.58 2638.74,2681.58 2647.31,2698.71 2587.34,2715.85 2553.06,2732.98 2570.2,2698.71 "/>
   <polygon class="fil16" points="2116.13,2236.08 2141.84,2244.64 2141.84,2287.47 2107.56,2313.18 "/>
   <polygon class="fil16" points="1276.53,1730.61 1319.36,1739.17 1319.36,1773.44 1293.66,1782 1267.97,1756.31 "/>
   <polygon class="fil16" points="1285.1,1490.72 1319.37,1499.28 1310.8,1542.12 1276.53,1533.55 1267.97,1516.42 "/>
  </g>
 </g>
</svg>
