<?xml version="1.0" encoding="UTF-8"?>
<svg id="Capa_2" data-name="Capa 2" xmlns="http://www.w3.org/2000/svg" viewBox="0 0 321.55 154.45">
  <defs>
    <style>
      .cls-1, .cls-2, .cls-3, .cls-4, .cls-5, .cls-6 {
        stroke-width: 0px;
      }

      .cls-1, .cls-6 {
        fill: #294161;
      }

      .cls-2 {
        fill: #1e804b;
      }

      .cls-2, .cls-4, .cls-6 {
        fill-rule: evenodd;
      }

      .cls-7 {
        stroke: #fff;
        stroke-linecap: round;
        stroke-miterlimit: 22.93;
        stroke-width: .75px;
      }

      .cls-7, .cls-8 {
        fill: none;
      }

      .cls-8 {
        stroke: #c19516;
        stroke-linejoin: round;
      }

      .cls-3, .cls-4 {
        fill: #c19516;
      }

      .cls-5 {
        fill: #fff;
      }
    </style>
  </defs>
  <g id="Capa_1-2" data-name="Capa 1">
    <g>
      <g>
        <path class="cls-5" d="M282.62,92.97c7.03,0,11.05-4.83,11.05-11.56s-4.02-11.52-11.05-11.52-11.05,4.83-11.05,11.52,4.02,11.56,11.05,11.56M282.62,89.16c-4.32,0-6.22-3.94-6.22-7.75s1.91-7.71,6.22-7.71,6.22,3.94,6.22,7.71-1.91,7.75-6.22,7.75ZM258.45,92.38h4.83v-10.42c0-4.83,2.62-7.49,5.93-7.49.68,0,1.4.13,2.07.21v-4.66c-.42-.04-.72-.13-1.82-.13-2.96,0-5.84,2.5-6.39,4.83h-.08v-4.23h-4.53v21.89ZM253.2,62.15h-4.83v11.18h-.08c-1.48-2.41-4.53-3.43-7.28-3.43-4.78,0-9.48,3.47-9.48,11.39,0,6.56,3.34,11.69,10.25,11.69,2.75,0,5.5-1.06,6.77-3.56h.08v2.96h4.57v-30.23ZM236.35,81.67c0-3.94,1.61-7.96,6.14-7.96,3.73,0,6.05,2.88,6.05,7.71,0,3.81-1.82,7.75-6.14,7.75s-6.05-3.73-6.05-7.49ZM222.5,66.72h4.83v-4.57h-4.83v4.57ZM222.5,92.38h4.83v-21.89h-4.83v21.89ZM199.21,85.35c.08,5.17,4.19,7.62,9.7,7.62,4.53,0,9.78-1.91,9.78-7.11,0-4.32-3.56-5.59-7.07-6.39-3.56-.8-7.11-1.14-7.11-3.51,0-1.91,2.58-2.24,3.98-2.24,2.12,0,4.02.64,4.45,2.92h5.04c-.59-4.87-4.66-6.73-9.15-6.73-3.98,0-9.15,1.48-9.15,6.27,0,4.45,3.47,5.72,7.03,6.48,3.51.8,7.03,1.1,7.16,3.64.13,2.5-3.05,2.88-4.87,2.88-2.58,0-4.7-1.02-4.95-3.81h-4.83ZM189.31,92.38h5.29v-30.23h-5.29v30.23ZM239.61,48.56h4.83v-12.91c0-3.22,2.07-5.76,5.29-5.76,2.84,0,4.19,1.48,4.28,4.91v13.76h4.83v-15.03c0-4.91-3.01-7.45-7.75-7.45-2.88,0-5.38,1.48-6.82,3.9l-.08-.08v-3.22h-4.57v21.89ZM234.4,32.43c0-4.61-4.49-6.35-8.76-6.35-4.83,0-9.61,1.65-9.95,7.28h4.83c.21-2.37,2.12-3.47,4.83-3.47,1.95,0,4.53.47,4.53,2.96,0,2.84-3.09,2.46-6.56,3.09-4.06.47-8.43,1.35-8.43,6.82,0,4.28,3.56,6.39,7.49,6.39,2.58,0,5.67-.8,7.58-2.67.38,1.99,1.78,2.67,3.73,2.67.8,0,2.33-.3,3.05-.55v-3.34c-.51.08-.89.08-1.19.08-.89,0-1.14-.47-1.14-1.65v-11.26ZM229.57,41.19c0,3.05-3.3,4.15-5.42,4.15-1.69,0-4.45-.64-4.45-2.79,0-2.54,1.86-3.3,3.94-3.64,2.12-.38,4.45-.34,5.93-1.31v3.6ZM187.49,38.48c.13,7.49,5.72,10.8,12.62,10.8,6.01,0,12.02-2.71,12.02-9.48,0-3.13-1.91-6.52-5.89-7.71-1.57-.47-8.26-2.2-8.72-2.33-2.16-.59-3.6-1.78-3.6-3.9,0-3.05,3.09-3.94,5.55-3.94,3.64,0,6.27,1.44,6.52,5.33h5.29c0-6.31-5.29-9.65-11.6-9.65-5.46,0-11.05,2.84-11.05,8.89,0,3.13,1.52,6.27,6.69,7.66,4.15,1.14,6.9,1.69,9.02,2.5,1.23.47,2.5,1.4,2.5,3.73s-1.74,4.57-6.39,4.57c-4.23,0-7.66-1.82-7.66-6.48h-5.29Z"/>
        <path class="cls-5" d="M304.73,124.32c.42-3.98,2.84-7.79,7.2-7.79s6.82,3.77,6.94,7.79h-14.14ZM321.54,126.56c.21-6.14-2.58-12.28-9.61-12.28s-9.87,5.8-9.87,11.56c0,6.22,2.92,11.56,9.87,11.56,5.5,0,8.38-2.88,9.53-7.83h-2.67c-.85,3.3-2.96,5.59-6.86,5.59-5.12,0-7.16-4.7-7.2-8.6h16.81ZM298.08,114.92h-2.67v3.77h-.08c-1.06-2.41-3.77-4.4-6.94-4.4-6.31,0-9.87,5-9.87,11.01s2.88,11.22,9.87,11.22c3.13,0,5.72-1.82,6.94-4.49h.08v2.96c0,5.34-2.12,8.26-7.03,8.26-2.96,0-5.8-1.14-6.39-4.36h-2.67c.38,4.66,4.7,6.6,9.06,6.6,7.16,0,9.65-3.98,9.7-10.5v-20.07ZM288.38,134.27c-4.91,0-7.2-4.28-7.2-8.68s2.12-9.06,7.2-9.06,7.03,4.78,7.03,9.06-2.41,8.68-7.03,8.68ZM259.21,124.32c.42-3.98,2.84-7.79,7.2-7.79s6.82,3.77,6.94,7.79h-14.14ZM276.02,126.56c.21-6.14-2.58-12.28-9.61-12.28s-9.87,5.8-9.87,11.56c0,6.22,2.92,11.56,9.87,11.56,5.5,0,8.38-2.88,9.53-7.83h-2.67c-.85,3.3-2.96,5.59-6.86,5.59-5.12,0-7.16-4.7-7.2-8.6h16.81ZM249.85,136.76h2.67v-30.23h-2.67v30.23ZM242.02,136.76h2.67v-30.23h-2.67v30.23ZM227.67,116.53c5.12,0,7.66,4.66,7.66,9.31s-2.54,9.31-7.66,9.31-7.66-4.66-7.66-9.31,2.54-9.31,7.66-9.31ZM227.67,114.28c-6.69,0-10.33,5.29-10.33,11.56s3.64,11.56,10.33,11.56,10.33-5.29,10.33-11.56-3.64-11.56-10.33-11.56ZM214.12,115.68c-.76-6.35-6.44-9.78-12.15-9.78-9.53,0-14.27,7.49-14.27,15.75s4.74,15.75,14.27,15.75c7.07,0,11.77-4.74,12.58-12.15h-2.88c-.55,5.38-4.11,9.7-9.7,9.7-8,0-11.39-6.69-11.39-13.29s3.39-13.29,11.39-13.29c4.4,0,8.26,2.67,9.27,7.32h2.88Z"/>
        <line class="cls-7" x1="149.34" y1=".38" x2="149.34" y2="154.07"/>
      </g>
      <g>
        <path class="cls-8" d="M119.91,42.98c.38-1.39.95-4.72-13.19-4.72,0,0-1.17,8.93,0,8.93s3.28-.15,13.19-4.2Z"/>
        <path class="cls-1" d="M119.9,42.98c.38-1.39.95-4.72-13.19-4.72,0,0-1.17,8.93,0,8.93s3.27-.15,13.19-4.2"/>
        <path class="cls-8" d="M.64,64.5c-.38,1.39-.95,4.72,13.19,4.72,0,0,1.17-8.93,0-8.93s-3.27.15-13.19,4.2Z"/>
        <path class="cls-1" d="M.64,64.5c-.38,1.39-.95,4.72,13.19,4.72,0,0,1.17-8.93,0-8.93s-3.27.15-13.19,4.2"/>
        <path class="cls-3" d="M101.09,20.32H19.04v57.02c0,22.58,16.98,35.29,31.34,46.03,3.36,2.51,6.59,4.93,9.49,7.36,3.1-2.55,6.51-4.98,10.04-7.52,14.37-10.3,31.17-22.33,31.17-45.87V20.32ZM14.15,10.53h96.74v66.82c0,28.56-19.01,42.18-35.27,53.83-4.66,3.34-9.07,6.5-12.44,9.63l-3.34,3.11-3.33-3.13c-3.36-3.15-7.55-6.29-11.98-9.61-16.16-12.1-35.28-26.4-35.28-53.84V10.53h4.9Z"/>
        <path class="cls-4" d="M60.99,16.83h43.04c.51,0,.92.41.92.92v33.41c0,.51-.41.92-.92.92h-43.04c-.51,0-.92-.41-.92-.92V17.75c0-.51.41-.92.92-.92"/>
        <path class="cls-4" d="M14.49,16.83h43.04c.51,0,.92.41.92.92v33.41c0,.51-.41.92-.92.92H14.49c-.51,0-.92-.41-.92-.92V17.75c0-.51.41-.92.92-.92"/>
        <path class="cls-3" d="M62.94,19.7v27.73h-5.74v-27.73H18.06v57.64c0,23.02,17.01,35.75,31.4,46.51,3.74,2.8,7.3,5.47,10.41,8.17,3.29-2.81,7.03-5.49,10.94-8.29,14.42-10.33,31.27-22.4,31.27-46.39V19.7h-39.14Z"/>
        <path class="cls-1" d="M104.88,80.09c-1.6,31.25-30.41,42.18-45.02,55.78-14.45-13.58-42.94-26.02-44.59-55.78h89.61Z"/>
        <path class="cls-2" d="M16.52,90.11l3.98-8.49h4.63l-5.73,15.9c1.04,2.1,2.23,4.1,3.54,5.99l6.79-21.88h4.63l-7.01,27.46c1.56,1.75,3.21,3.41,4.91,5l6.7-32.46h4.62l-5.64,37.37c2.03,1.65,4.08,3.22,6.1,4.75l4.15-42.12h4.63l-2.31,46.98c2.56,1.95,4.95,3.86,7.04,5.77l-.13-52.75h4.59l2.21,51.02c2.15-1.78,4.56-3.55,7.09-5.38l-4.67-45.65h4.61l6.35,41.12c1.95-1.42,3.9-2.89,5.83-4.44l-7.56-36.68h4.6l8.21,32.16c1.69-1.57,3.32-3.23,4.85-4.98l-8.44-27.18h4.6l7.9,21.91c1.25-1.86,2.39-3.82,3.38-5.91l-6.65-16h4.61l4.84,8.42c.66-2.47,1.13-5.1,1.38-7.9l-.52-.53H15.96l-.89,1.11c.29,2.6.78,5.05,1.44,7.38"/>
        <polygon class="cls-1" points="35.13 23.98 39.63 23.98 39.63 28.2 44.35 28.2 44.35 32.71 39.63 32.71 39.63 41.71 35.13 41.71 35.13 32.71 30.41 32.71 30.41 28.2 35.13 28.2 35.13 23.98"/>
        <path class="cls-6" d="M81.22,36.39c.97-1.53,2.83-12.26,2.85-14.63-.45.37-3.52,5.36-3.93,6.27-.72,1.61-.63,2.5-.16,4.26.36,1.32.61,3.02,1.24,4.09"/>
        <path class="cls-6" d="M79.91,45.39c1.59-8.51,1.95-7.17-1.29-10.75-.67-.74-1.62-1.93-2.81-2.29.45,2.56,2.42,8.37,3.37,11.48.09.3.11.44.23.73l.5.82Z"/>
        <path class="cls-6" d="M78.31,53.84c.36-1.94,1.79-6.55.89-8.26-.34-.66-4.48-4.49-5.03-4.81.29,1.94,2.53,8.95,3.4,11.51l.54,1.28s.07.11.1.14c.02.04.07.09.1.14"/>
        <path class="cls-6" d="M79.57,50.1l.73-.63c1.14-1.33,7.3-9.82,7.65-10.69-.97.37-5.99,2.9-6.46,3.29-1.35,1.15-1.73,5.74-1.91,8.03"/>
        <path class="cls-6" d="M81.27,41.67c.59-.87,1.36-1.77,2.02-2.67l6.13-8.59c-.93.23-5.77,2.28-6.49,3.36-.71,1.06-1.02,2.3-1.28,3.6-.15.73-.86,3.65-.38,4.3"/>
        <path class="cls-1" d="M62.94,19.7v27.73h-5.74v-27.73H18.06v57.64c0,23.02,17.01,35.75,31.4,46.51,3.74,2.8,7.3,5.47,10.41,8.17,3.29-2.81,7.03-5.49,10.94-8.29,14.42-10.33,31.27-22.4,31.27-46.39V19.7h-39.14ZM15.19,13.96h92.63v63.38c0,26.93-18.14,39.93-33.67,51.05-4.59,3.29-8.94,6.41-12.34,9.57l-1.96,1.82-1.95-1.84c-3.34-3.14-7.49-6.24-11.87-9.52-15.44-11.56-33.71-25.23-33.71-51.09V13.96h2.87Z"/>
        <path class="cls-8" d="M.51,64.16v-15.1c39.84-17.8,79.68,11.87,119.52-5.93v15.1c-39.84,17.8-79.68-11.87-119.52,5.93Z"/>
        <path class="cls-1" d="M.51,64.16v-15.1c39.84-17.8,79.68,11.87,119.52-5.93v15.1c-39.84,17.8-79.68-11.87-119.52,5.93"/>
        <path class="cls-3" d="M112.82,56.85c-.03-.13-.04-.28-.02-.46.02-.18.06-.33.12-.45.69.12,1.21.12,1.57,0,.37-.13.62-.28.76-.46.13-.18.17-.38.1-.58-.11-.32-.42-.49-.93-.51l-.69-.02c-1.04-.04-1.67-.4-1.91-1.09-.17-.5-.12-.95.14-1.36.26-.41.68-.71,1.26-.91.59-.2,1.22-.27,1.88-.2.05.15.07.31.06.49,0,.18-.05.33-.12.45-.6-.06-1.12-.02-1.57.13-.24.08-.41.2-.51.37-.1.16-.12.33-.06.51.06.17.16.29.29.35.14.06.34.09.61.11l.74.03c1.04.04,1.69.43,1.94,1.16.17.5.11.96-.17,1.38-.29.42-.76.74-1.42.97-.66.22-1.35.26-2.08.1M85.56,60.41l.24-4.82-.99-.03c-.01-.06-.02-.13-.02-.21s0-.15,0-.23c0-.18.03-.32.07-.45l.93.06c-.02-.47-.03-.81-.02-1.02.01-.26.07-.5.16-.71.09-.21.22-.4.38-.55.16-.15.35-.27.57-.35.22-.08.46-.11.73-.1.54.03,1.03.14,1.48.34-.02.34-.12.61-.32.79-.17-.06-.34-.11-.49-.15-.15-.04-.3-.06-.43-.07-.32-.02-.56.06-.71.22-.15.16-.23.42-.25.76,0,.13,0,.27,0,.41,0,.15.02.31.03.48l1.62.06c.01.07.02.14.02.21,0,.07,0,.15,0,.24,0,.08-.01.15-.02.23-.01.08-.03.14-.04.2l-1.54-.1-.24,4.82c-.08.01-.18.02-.28.02-.1,0-.2,0-.31,0-.11,0-.21-.01-.31-.03-.1-.01-.19-.03-.26-.05ZM73.92,58.71c.49.06.96-.12,1.43-.52l.13-1.08c-.15-.03-.31-.06-.47-.09-.17-.03-.34-.05-.52-.07-.35-.04-.63.01-.85.16-.21.15-.34.36-.37.64-.03.27,0,.5.13.67.12.17.3.27.53.3ZM76.72,59.31c-.12.26-.3.45-.52.55-.44-.14-.71-.41-.83-.82-.6.45-1.19.64-1.76.58-.29-.03-.54-.11-.74-.23-.21-.12-.37-.26-.5-.44-.13-.17-.22-.37-.27-.58-.05-.21-.06-.43-.03-.65.08-.62.33-1.07.77-1.34.44-.27.99-.37,1.65-.29.19.02.38.05.56.08.18.03.36.08.53.13l.05-.45c.08-.68-.19-1.06-.81-1.14-.43-.05-1.05.02-1.84.23-.2-.22-.28-.52-.24-.9.82-.26,1.63-.34,2.42-.24.59.07,1.03.28,1.32.64.29.35.4.85.32,1.49l-.28,2.34c-.06.47.01.81.2,1.02ZM59.62,56.29c.05.24.05.5.01.77-.07.5-.29.93-.63,1.3-.35.37-.81.6-1.38.71-.1-.07-.16-.16-.2-.27-.03-.11-.04-.23-.02-.36.28-.07.53-.2.73-.38.2-.18.33-.38.38-.62-.14-.06-.25-.11-.33-.15-.08-.04-.12-.09-.13-.16,0-.07-.01-.14-.01-.22,0-.08,0-.18.03-.29.03-.17.06-.31.1-.4.04-.09.1-.15.18-.16.08-.02.17-.03.27-.03.1,0,.22,0,.35.02.31.05.53.13.66.25ZM67.06,55.05l.02-.13c.12-.86-.15-1.33-.81-1.43-.36-.05-.67.08-.91.4-.25.32-.42.83-.52,1.52-.19,1.3.15,2.02,1,2.14.42.06.91-.06,1.45-.37.1.08.19.19.26.34.08.15.12.29.14.43-.64.48-1.36.66-2.16.55-.4-.06-.74-.18-1.01-.37-.27-.19-.48-.43-.64-.72-.15-.29-.25-.63-.29-1.02-.04-.39-.03-.8.03-1.25.07-.46.19-.86.37-1.21.18-.34.4-.62.65-.83.25-.21.53-.36.83-.45.3-.09.61-.11.93-.06.33.05.61.14.85.27.24.14.44.3.59.48.16.18.27.39.33.61.06.22.08.44.05.65-.06.43-.29.62-.68.56-.2-.03-.36-.07-.48-.12ZM55.42,51.69c.12-.27.29-.46.52-.56.51.19.8.58.89,1.16.4-.63.94-.9,1.63-.8.18.03.38.08.59.15-.06.44-.21.8-.44,1.07-.06-.03-.22-.07-.46-.12-.52-.07-.96.16-1.34.69l-.53,3.71c-.15.01-.35,0-.59-.04-.25-.04-.44-.08-.58-.13l.56-3.9c.07-.52-.01-.93-.25-1.23ZM68.99,53.63c.11-.27.29-.46.52-.57.51.18.81.57.9,1.15.39-.64.94-.91,1.63-.81.18.02.38.07.59.15-.06.44-.2.8-.43,1.08-.07-.03-.22-.07-.46-.12-.52-.07-.96.16-1.33.7l-.5,3.71c-.15.01-.35,0-.59-.03-.25-.03-.44-.07-.58-.12l.52-3.91c.07-.52-.02-.93-.26-1.23ZM52.15,51.51c-.82-.11-1.33.52-1.51,1.9-.18,1.37.13,2.12.96,2.23.83.11,1.34-.52,1.52-1.89.18-1.37-.14-2.12-.97-2.23ZM53.21,56.13c-.47.36-1.05.5-1.73.4-.39-.05-.73-.17-1.02-.35-.28-.18-.51-.42-.69-.71-.17-.29-.29-.62-.35-1-.06-.38-.06-.79,0-1.23.06-.44.17-.84.33-1.19.16-.35.36-.64.6-.87.24-.23.53-.4.85-.5.32-.1.68-.12,1.08-.07.39.05.73.17,1.02.35.28.18.51.42.69.71.17.29.29.62.35,1,.06.38.06.79,0,1.23-.14,1.02-.51,1.76-1.12,2.23ZM46.82,50.95c-.46-.05-.9.11-1.32.5l-.38,3.17c.27.13.59.21.96.25.38.05.71-.1,1-.42.29-.33.47-.82.55-1.47.08-.66.04-1.16-.11-1.48-.15-.33-.38-.51-.7-.55ZM43.88,55.12l.97-8.03.08-.06.44.05c.24.03.39.11.47.24.08.13.11.33.07.59l-.3,2.49c.5-.33,1.05-.46,1.64-.39.61.07,1.05.39,1.31.96.27.56.35,1.31.23,2.25-.05.44-.17.83-.34,1.16-.17.33-.39.61-.64.83-.26.22-.55.38-.87.47-.32.09-.66.12-1.02.07-.73-.09-1.41-.3-2.05-.63ZM77.23,59.5c.02-.13.07-.27.16-.43.09-.16.19-.28.29-.36.58.38,1.06.59,1.44.62.39.03.68-.01.88-.13.2-.12.3-.28.32-.49.03-.34-.19-.61-.66-.84l-.62-.29c-.94-.44-1.38-1.03-1.32-1.75.04-.53.26-.93.66-1.2.4-.27.91-.38,1.52-.34.62.05,1.22.23,1.81.56-.01.15-.06.31-.13.47-.08.16-.17.29-.29.37-.52-.29-1.02-.46-1.49-.5-.25-.02-.46.03-.62.14-.16.11-.25.26-.26.44-.01.18.03.33.13.44.1.11.28.22.52.34l.67.32c.94.45,1.38,1.06,1.32,1.83-.04.53-.28.93-.7,1.2-.43.27-.99.38-1.68.33-.7-.05-1.34-.3-1.95-.73ZM40.02,54.24c.49.04.96-.16,1.41-.58l.09-1.09c-.15-.03-.31-.05-.48-.07-.17-.02-.34-.04-.53-.05-.35-.03-.63.04-.84.19-.21.16-.32.38-.35.66-.02.27.03.5.16.66.13.17.31.26.54.28ZM42.84,54.72c-.11.27-.28.46-.49.57-.44-.12-.73-.38-.86-.78-.58.48-1.16.69-1.73.65-.29-.02-.54-.09-.75-.2-.21-.11-.38-.25-.52-.42-.14-.17-.23-.36-.29-.56-.06-.21-.08-.42-.06-.64.05-.63.29-1.08.71-1.37.43-.29.97-.41,1.64-.36.19.01.38.04.56.06.18.03.36.06.53.1l.04-.45c.05-.69-.23-1.05-.86-1.1-.44-.03-1.05.07-1.83.31-.21-.21-.3-.5-.28-.89.81-.29,1.61-.4,2.41-.34.6.05,1.05.24,1.35.58.3.34.43.83.38,1.48l-.18,2.35c-.04.47.04.81.24,1.01ZM37.05,53.95l.42.02c.06.2.08.37.08.52,0,.15-.02.26-.05.35-.31.04-.64.05-.98.03-.76-.04-1.12-.45-1.08-1.24l.36-7.23.08-.06.45.02c.24.01.4.08.49.2.09.12.13.32.11.59l-.32,6.27c-.02.34.12.52.42.54ZM88.72,55.47c.08-.28.23-.49.45-.62.53.12.87.47,1.03,1.04.32-.68.83-1.01,1.52-1,.18,0,.39.03.61.08,0,.44-.11.82-.31,1.12-.07-.02-.23-.05-.47-.07-.52,0-.94.27-1.24.85l-.07,3.74c-.15.03-.34.04-.59.04-.25,0-.45-.02-.59-.06l.07-3.94c0-.52-.13-.92-.4-1.19ZM29.04,49.73c-.73.01-1.11.56-1.14,1.64l2.32-.04v-.15c-.01-.44-.11-.79-.31-1.06-.19-.27-.48-.4-.87-.39ZM31.3,52.17l-3.38.07c.03.53.15.93.36,1.21.21.28.55.41,1.04.41.23,0,.48-.04.74-.12.26-.07.53-.19.81-.35.19.17.33.42.39.75-.6.44-1.32.67-2.15.68-.44,0-.81-.06-1.11-.21-.3-.15-.55-.35-.74-.62-.19-.26-.33-.58-.43-.95-.09-.37-.14-.77-.15-1.2,0-.42.04-.81.14-1.18.1-.37.25-.68.44-.94.19-.26.44-.47.73-.63.29-.16.62-.24.99-.24.37,0,.7.05.99.16.29.12.54.28.74.5.2.21.36.47.47.77.11.3.17.63.17.98,0,.15,0,.3,0,.45,0,.15-.03.3-.05.45ZM93.22,58.75l-.16-2.67c-.03-.46-.11-.8-.26-1.02.18-.18.42-.28.73-.3.42-.03.65.21.68.7l.18,2.92c.02.4.09.68.2.84.11.16.29.24.54.22.25-.02.5-.09.76-.24.25-.14.47-.32.67-.55l-.24-3.99c.21-.04.41-.07.58-.08.18-.01.38,0,.61,0l.25,4.06c.03.54.16.89.39,1.07-.07.28-.2.49-.41.62-.49-.05-.82-.31-1.01-.77-.56.6-1.18.92-1.86.97-.5.03-.89-.12-1.17-.45-.27-.33-.43-.78-.46-1.34ZM23.9,48.17c-.08-.13-.12-.3-.13-.5-.02-.31.03-.5.14-.57.11-.06.3-.11.57-.13.31-.01.5.02.59.08.09.06.14.24.17.53,0,.28-.03.45-.11.54-.08.08-.27.14-.58.16-.3.02-.52-.02-.65-.11ZM25.46,50.14l.29,4.68c-.14.04-.34.07-.59.08-.25.02-.45.01-.59,0l-.26-4.2c-.01-.21-.06-.36-.14-.45-.08-.09-.21-.13-.4-.11h-.13c-.05-.16-.08-.3-.08-.41,0-.11,0-.26.03-.44.25-.05.49-.08.72-.09h.16c.29-.03.52.05.7.22.18.17.27.42.29.73ZM101.88,56.36v-.13c-.11-.86-.49-1.25-1.15-1.18-.36.04-.62.24-.78.62-.16.37-.2.9-.13,1.6.14,1.31.64,1.92,1.5,1.83.42-.05.86-.29,1.31-.72.11.05.23.14.34.26.11.13.19.25.24.38-.5.62-1.15.98-1.95,1.07-.4.04-.76,0-1.07-.11-.31-.12-.58-.3-.8-.54-.22-.25-.4-.55-.54-.91-.14-.36-.23-.77-.28-1.22-.05-.46-.03-.88.06-1.26.09-.38.23-.7.42-.96.19-.27.42-.48.69-.64.27-.16.57-.26.89-.29.33-.04.62-.02.89.05.27.07.5.18.69.32.2.14.35.31.47.51.12.2.19.41.21.62.05.43-.13.67-.52.71-.2.02-.36.02-.5,0ZM20.49,54.4c.49-.05.88-.34,1.17-.85l-.31-2.83c-.46-.23-.84-.33-1.15-.29-.34.04-.61.24-.79.61-.18.37-.24.88-.17,1.55.07.66.22,1.14.45,1.43.23.29.5.42.79.39ZM19.91,49.5c.41-.04.85.03,1.33.24l-.32-2.97.07-.08.45-.05c.24-.03.41.01.51.12.1.1.17.29.2.57l.65,6.03c.06.53.2.88.44,1.05-.02.11-.06.23-.13.36-.07.13-.15.23-.23.29-.44-.04-.77-.24-.98-.61-.39.57-.91.88-1.56.95-.65.07-1.17-.14-1.56-.62-.39-.49-.64-1.19-.74-2.12-.05-.46-.04-.88.04-1.26.08-.37.2-.7.38-.97.17-.27.38-.49.64-.65.25-.16.53-.25.82-.28ZM105.71,53.33c.06.12.11.26.15.43.04.16.05.31.04.44l-1.39.27.72,3.35c.07.33.26.46.57.39l.77-.17c.1.15.16.32.2.49.04.17.05.28.05.34-.42.15-.84.26-1.24.35-.79.17-1.26-.13-1.43-.9l-.77-3.59-.83.19c-.06-.12-.1-.26-.14-.41-.03-.15-.05-.3-.05-.45l.84-.16-.21-.99c-.06-.27-.05-.47.01-.6.07-.13.21-.22.45-.27l.44-.09.1.06.36,1.66,1.37-.33ZM14.25,51.13c-.81.17-1.07.94-.78,2.3.29,1.36.84,1.95,1.66,1.77.82-.18,1.08-.94.79-2.3-.29-1.36-.85-1.95-1.67-1.77ZM16.8,55.11c-.32.5-.82.82-1.5.97-.39.08-.75.09-1.08.01-.33-.07-.62-.22-.89-.43-.26-.21-.48-.49-.67-.82-.18-.33-.32-.72-.42-1.16-.09-.43-.12-.84-.09-1.23.03-.38.12-.73.27-1.03.15-.3.36-.56.63-.76.27-.2.6-.35.99-.43.39-.08.75-.09,1.08-.01.33.07.62.22.89.43.26.21.49.49.67.83.19.34.33.72.42,1.16.22,1,.11,1.83-.3,2.47ZM107.29,57.03l-.71-2.58c-.12-.44-.28-.76-.46-.94.14-.21.36-.36.65-.44.41-.11.68.07.81.55l.78,2.82c.11.38.23.64.37.78.14.14.33.17.58.1.24-.07.47-.2.69-.39.22-.19.4-.42.54-.68l-1.06-3.86c.2-.09.38-.15.55-.2.17-.05.37-.09.6-.12l1.08,3.92c.14.52.34.84.6.97,0,.29-.1.52-.27.69-.49.05-.87-.13-1.15-.54-.43.71-.97,1.15-1.62,1.33-.49.13-.9.07-1.23-.2-.34-.27-.58-.67-.73-1.22ZM9.28,52.66l-.24-.82-.65-2.35c.15-.07.34-.14.59-.21.24-.07.45-.11.61-.12l2.08,7.57c-.16.08-.36.15-.59.21-.23.06-.43.1-.61.12l-.71-2.59-.21-.82-.62.18-1.86.51-.63.16.24.82.71,2.59c-.15.07-.34.14-.58.21-.24.07-.44.1-.59.12l-2.08-7.57c.14-.07.33-.14.57-.2.24-.07.44-.11.6-.12l.65,2.35.21.82.63-.18,1.86-.51.62-.16Z"/>
        <polygon class="cls-1" points="104.63 81.62 104.59 81.58 87.44 65.3 75.25 76.87 60.29 62.68 45.34 76.87 33.15 65.3 16.2 81.39 15.96 81.62 104.63 81.62"/>
      </g>
    </g>
  </g>
</svg>