<?xml version="1.0" encoding="UTF-8"?>
<!DOCTYPE svg PUBLIC "-//W3C//DTD SVG 1.1//EN" "http://www.w3.org/Graphics/SVG/1.1/DTD/svg11.dtd">
<!-- Creator: CorelDRAW -->
<svg xmlns="http://www.w3.org/2000/svg" xml:space="preserve" width="47.3718mm" height="44.9792mm" version="1.1" style="shape-rendering:geometricPrecision; text-rendering:geometricPrecision; image-rendering:optimizeQuality; fill-rule:evenodd; clip-rule:evenodd"
viewBox="0 0 1687.39 1602.17"
 xmlns:xlink="http://www.w3.org/1999/xlink"
 xmlns:xodm="http://www.corel.com/coreldraw/odm/2003">
 <defs>
  <style type="text/css">
   <![CDATA[
    .fil0 {fill:white;fill-rule:nonzero}
    .fil3 {fill:#294161;fill-rule:nonzero;fill-opacity:0.701961}
    .fil1 {fill:#66B12E;fill-rule:nonzero;fill-opacity:0.701961}
    .fil2 {fill:#C19516;fill-rule:nonzero;fill-opacity:0.701961}
   ]]>
  </style>
 </defs>
 <g id="Capa_x0020_1">
  <metadata id="CorelCorpID_0Corel-Layer"/>
  <path class="fil0" d="M1652.68 913.74c-83.22,-168.23 -190.38,-253.42 -224.4,-277.55 -2.54,-17.25 -6.41,-35.72 -11.78,-55.7 0,0 -79.82,-256.06 -203.76,-445.12 -123.93,-189.05 -423.35,-133.26 -593.93,-78.13 -170.59,55.13 -179.63,211.2 -261.81,404.12 -19.79,46.46 -27.52,89.82 -26.58,130.25 -39.11,19.98 -60.6,37.23 -60.6,37.23 0,0 -135.05,82.28 -235.33,284.9 -100.28,202.63 99.43,432.59 233.26,551.71 133.83,119.12 371.04,199.7 481.03,21.2 28.28,-45.99 60.98,-93.87 94.72,-140.9 33.74,47.03 66.44,95 94.72,140.9 109.98,178.5 347.1,97.92 481.03,-21.2 133.83,-119.12 333.53,-349.09 233.26,-551.71l0.19 0z"/>
  <path class="fil1" d="M866.58 583.32c324.67,-137.22 550.86,45.52 550.86,45.52 0,0 135.05,82.28 235.33,284.9 100.28,202.63 -99.43,432.59 -233.26,551.71 -133.83,119.12 -371.04,199.7 -481.03,21.2 -109.98,-178.5 -285.47,-386.22 -334.95,-460.2 -49.48,-73.98 -107.72,-229.77 -13.66,-300.17 93.96,-70.4 276.8,-142.88 276.8,-142.88l-0.1 -0.09z"/>
  <path class="fil2" d="M1099.74 980.66c297.81,-153.81 367.37,-210.07 316.85,-400.16 0,0 -79.82,-256.06 -203.76,-445.12 -123.93,-189.05 -423.35,-133.26 -593.84,-78.13 -170.59,55.13 -179.63,211.2 -261.81,404.12 -117.34,275.29 188.58,441.63 227.32,521.84 38.73,80.11 140.8,121.2 249.18,75.77 108.38,-45.43 266.15,-78.32 266.15,-78.32l-0.1 0z"/>
  <path class="fil3" d="M820.87 583.32c-324.67,-137.22 -550.86,45.52 -550.86,45.52 0,0 -135.05,82.28 -235.33,284.9 -100.28,202.63 99.43,432.59 233.26,551.71 133.83,119.12 371.04,199.7 481.03,21.2 109.98,-178.5 285.47,-386.22 334.95,-460.2 49.48,-73.98 107.72,-229.77 13.66,-300.17 -94.06,-70.4 -276.8,-142.88 -276.8,-142.88l0.1 -0.09z"/>
  <path class="fil0" d="M1099.27 979.34c60.98,-34.68 122.9,-68.99 181.42,-107.35 55.42,-37.13 116.2,-81.34 134.11,-147.97 16.11,-66.06 -7.44,-136.75 -30.35,-199.05 -48.82,-131.19 -102.54,-261.62 -175.67,-381.22 -35.43,-59.94 -96.22,-101.13 -163.14,-118.94 -136.28,-35.53 -281.23,-5.84 -412.89,36.28 -15.93,5.56 -32.89,11.5 -47.78,19.51 -112.81,53.53 -142.59,193.77 -182.46,301.02 -38.83,106.31 -82.09,179.44 -40.34,295.65 35.62,98.58 115.07,170.96 188.02,243.62 18.57,18.66 38.64,40.24 50.33,65.31 36.1,67.95 121.48,93.49 193.49,76.15 33.84,-8.2 66.06,-23.56 99.43,-33.27 67.39,-21.02 136.66,-37.04 205.83,-49.76l-0 0zm0.94 2.64c-85.57,22.15 -169.83,46.09 -251.07,79.64 -6.13,2.54 -18.47,7.82 -24.69,10.08 -88.59,37.23 -203.85,9.9 -249.47,-79.35 -10.74,-20.36 -27.05,-35.62 -43.92,-52.3 -76.06,-71.91 -160.78,-149.75 -197.25,-252.76 -26.11,-69.36 -22.62,-148.53 4.81,-216.76 13.29,-33.74 26.86,-64.37 38.92,-98.11 41.66,-107.91 74.26,-244.19 187.55,-301.49 19.7,-10.46 41.66,-18.47 62.96,-24.69 135.24,-37.98 281.13,-64.75 419.86,-30.35 69.36,17.34 134.68,58.34 173.98,119.22 88.68,132.98 153.53,280.28 203.19,431.83 28.75,93.3 29.87,186.13 -49.57,254.65 -81.15,70.68 -179.73,113.66 -275.38,160.31l0 -0 0.1 0.1z"/>
  <path class="fil0" d="M820.3 584.64c-15.74,-5.84 -43.73,-15.93 -59.19,-21.67 -16.49,-3.96 -44.58,-12.35 -61.07,-15.46 -144.95,-28.65 -303.37,2.45 -422.41,90.66 -93.11,65.12 -165.78,158.33 -221.57,256.91 -29.78,48.91 -45.05,103.77 -40.24,160.88 8.95,114.98 77.28,216.95 151.92,301.68 75.68,85.1 164.36,164.17 273.78,200.46 78.41,27.05 169.45,33.84 238.91,-15.74 21.96,-15.74 40.34,-36.38 54.94,-59.56 30.16,-49.29 62.67,-97.92 96.22,-145.23 66.73,-94.62 139.58,-185.1 209.98,-276.61 60.6,-74.08 134.02,-215.16 74.73,-305.64 -15.93,-22.81 -41.56,-37.79 -64.37,-53.44 -24.03,-15.74 -49.1,-30.06 -74.45,-43.82 -50.99,-27.14 -103.48,-51.36 -157.01,-73.32l0.01 0 -0.19 -0.1zm1.04 -2.64c93.49,38.92 187.83,78.51 272.93,134.21 69.55,41.66 72.95,134.96 51.74,204.89 -15.46,57.58 -45.52,110.17 -81.81,156.92 -69.65,92.93 -141.18,183.31 -208.75,276.7 -33.93,46.65 -66.44,93.77 -97.35,142.69 -71.15,114.23 -207.25,125.63 -323.45,79.17 -54.94,-21.11 -105.84,-51.83 -151.17,-89.16 -126.48,-115.17 -256.16,-254.37 -281.51,-430.23 -7.54,-59.09 6.97,-119.97 35.91,-171.71 51.36,-102.92 132.7,-205.45 224.49,-266.05 120.92,-84.82 277.65,-108.85 420.71,-79.54 24.22,3.39 55.23,13.85 78.98,19.98 15.46,5.75 43.63,16.4 59.28,22.24l-0 0 0 -0.09z"/>
  <path class="fil0" d="M866.02 582c15.83,-5.94 43.82,-16.4 59.28,-22.24 23.84,-6.03 54.76,-16.49 78.98,-19.98 143.06,-29.31 299.79,-5.28 420.71,79.54 91.79,60.69 173.04,163.14 224.49,266.05 28.93,51.65 43.54,112.62 35.91,171.71 -25.64,176.33 -154.84,314.59 -281.51,430.23 -45.24,37.42 -96.22,68.05 -151.17,89.16 -116.2,46.37 -252.2,35.25 -323.45,-79.17 -30.91,-48.91 -63.33,-96.04 -97.35,-142.69 -67.58,-93.4 -139.1,-183.78 -208.75,-276.7 -36.38,-46.74 -66.35,-99.33 -81.81,-156.92 -21.2,-69.84 -17.81,-163.23 51.74,-204.89 85.01,-55.7 179.35,-95.28 272.93,-134.21l-0 -0 0 0.1zm1.13 2.64c-53.44,21.96 -106.03,46.18 -157.01,73.32 -25.45,13.66 -50.42,28.09 -74.45,43.82 -22.81,15.74 -48.54,30.63 -64.37,53.44 -59.28,90.48 14.23,231.56 74.73,305.64 70.4,91.51 143.25,181.99 209.98,276.61 33.46,47.31 66.06,95.94 96.22,145.23 14.61,23.19 32.98,43.82 54.94,59.56 69.46,49.57 160.5,42.79 238.91,15.74 109.42,-36.28 198.1,-115.36 273.78,-200.46 74.55,-84.73 142.88,-186.7 151.92,-301.68 4.71,-57.11 -10.46,-111.96 -40.24,-160.88 -55.79,-98.58 -128.46,-191.79 -221.57,-256.91 -119.12,-88.31 -277.55,-119.41 -422.41,-90.66 -16.4,3.3 -44.67,11.31 -61.07,15.46 -15.46,5.56 -43.54,15.93 -59.19,21.67l0.01 0 -0.19 0.09z"/>
  <path class="fil0" d="M782.56 331.92l5.3 -12.86c0.58,-1.42 1.16,-2.33 1.74,-2.71 0.57,-0.38 1.65,-0.57 3.23,-0.57l13.56 0c2.43,0 3.64,0.83 3.64,2.48 0,1.09 -0.4,2 -1.2,2.72 -0.8,0.73 -1.79,1.1 -2.97,1.1l-0.71 0 -11.19 0 -3.99 9.85 3.28 0 0.68 0c1.98,0 2.97,0.85 2.97,2.56 0,1.03 -0.41,1.92 -1.22,2.65 -0.81,0.73 -1.79,1.09 -2.96,1.09l-0.71 0 -4.59 0 -5.84 14.32 18.16 0 0.68 0c1.96,0 2.94,0.82 2.94,2.48 0,1.09 -0.4,2 -1.19,2.72 -0.8,0.73 -1.78,1.09 -2.95,1.09l-0.71 0 -19.47 0 -0.34 0.74c-1.23,2.74 -2.19,4.67 -2.88,5.78 -0.69,1.1 -1.6,2.18 -2.72,3.22 -2.92,2.69 -6.29,4.04 -10.09,4.04 -3.1,0 -5.65,-0.92 -7.66,-2.77 -2,-1.85 -3.01,-4.19 -3.01,-7.04 0,-1.77 0.43,-3.43 1.28,-4.99 0.86,-1.54 2.03,-2.75 3.5,-3.61 1.91,-1.1 4.5,-1.66 7.75,-1.66l9.3 0 5.83 -14.32 -0.24 0 -0.63 0c-1.97,0 -2.96,-0.86 -2.96,-2.58 0,-1.03 0.4,-1.91 1.21,-2.64 0.81,-0.72 1.8,-1.08 2.95,-1.08l0.72 0 1.5 0zm-10.93 26.91l-6.94 0c-3.42,0 -5.13,1.22 -5.13,3.67 0,1 0.37,1.85 1.14,2.53 0.76,0.67 1.71,1.02 2.83,1.02 1.57,0 3.08,-0.64 4.52,-1.93 1.44,-1.28 2.64,-3.05 3.59,-5.28zm61.28 -12.86l3.12 0c2.22,0 3.32,0.78 3.32,2.33 0,1.06 -0.38,1.89 -1.16,2.49 -0.78,0.59 -1.87,0.89 -3.26,0.89l-5.33 0c-1.15,0 -2.08,-0.31 -2.8,-0.92 -0.71,-0.62 -1.07,-1.42 -1.07,-2.42 0,-0.68 0.23,-1.6 0.7,-2.78l2.43 -6.01c0.14,-0.35 0.21,-0.67 0.21,-0.97 0,-1.14 -0.57,-1.71 -1.73,-1.71 -0.89,0 -1.78,0.41 -2.65,1.21 -0.87,0.8 -1.57,1.87 -2.1,3.2l-2.94 7.25c-0.96,2.34 -2.36,3.52 -4.2,3.52 -0.72,0 -1.33,-0.24 -1.83,-0.71 -0.51,-0.48 -0.76,-1.03 -0.76,-1.68 0,-0.51 0.14,-1.1 0.4,-1.78l0.29 -0.72 2.96 -7.32c0.26,-0.65 0.4,-1.16 0.4,-1.52 0,-0.39 -0.18,-0.73 -0.53,-1.02 -0.35,-0.28 -0.76,-0.43 -1.23,-0.43 -1.89,0 -3.4,1.36 -4.5,4.1l-3.08 7.53c-0.96,2.36 -2.36,3.54 -4.18,3.54 -0.72,0 -1.34,-0.24 -1.86,-0.7 -0.51,-0.47 -0.77,-1.03 -0.77,-1.7 0,-0.53 0.14,-1.12 0.4,-1.79l0.28 -0.71 5.24 -12.9c0.73,-1.8 1.84,-2.71 3.31,-2.71 1.52,0 2.46,0.72 2.84,2.16 1.18,-1 2.15,-1.67 2.9,-1.99 0.74,-0.33 1.66,-0.49 2.75,-0.49 2.35,0 4.11,1.01 5.28,3.04 1.96,-2.03 4.17,-3.04 6.62,-3.04 1.68,0 3.08,0.48 4.21,1.46 1.13,0.97 1.7,2.16 1.7,3.59 0,0.89 -0.19,1.81 -0.57,2.75l-2.8 6.94zm12.06 3.65l-6.85 16.86c-0.95,2.32 -2.33,3.49 -4.15,3.49 -0.7,0 -1.3,-0.24 -1.8,-0.7 -0.49,-0.46 -0.74,-1.01 -0.74,-1.67 0,-0.54 0.22,-1.36 0.66,-2.46l12.66 -31.22c0.65,-1.58 1.77,-2.37 3.37,-2.37 1.1,0 1.98,0.53 2.63,1.58 1.23,-1.26 2.73,-1.9 4.5,-1.9 1.84,0 3.33,0.7 4.47,2.09 1.13,1.39 1.7,3.22 1.7,5.5 0,4.31 -1.34,7.81 -4.03,10.52 -0.88,0.9 -1.78,1.51 -2.71,1.84 -0.93,0.33 -2.23,0.5 -3.89,0.5 -1.8,0 -3.02,-0.12 -3.7,-0.37 -0.67,-0.24 -1.37,-0.81 -2.09,-1.69zm2.15 -5.36c0.44,0.76 0.86,1.25 1.26,1.48 0.4,0.22 1.02,0.34 1.88,0.34 1.24,0 2.21,-0.47 2.91,-1.4 1.42,-1.87 2.13,-3.8 2.13,-5.78 0,-1.71 -0.81,-2.56 -2.42,-2.56 -1.77,0 -3.04,1.03 -3.82,3.08 -0.08,0.24 -0.15,0.42 -0.21,0.58l-1.74 4.25zm28.74 1.71l2.9 0c2.22,0 3.33,0.77 3.33,2.3 0,1.06 -0.39,1.89 -1.18,2.49 -0.8,0.6 -1.88,0.9 -3.27,0.9l-3.36 0c-1.51,0 -2.54,-0.58 -3.08,-1.76 -1.32,1.18 -2.58,1.76 -3.81,1.76l-3 0c-1.93,0 -3.49,-0.69 -4.68,-2.06 -1.19,-1.37 -1.78,-3.17 -1.78,-5.39 0,-3.37 1.16,-6.37 3.49,-9.03 2.33,-2.64 4.95,-3.97 7.88,-3.97 2.25,0 3.89,0.76 4.93,2.3 0.88,-1.32 2.03,-1.97 3.44,-1.97 0.77,0 1.41,0.24 1.93,0.73 0.51,0.5 0.77,1.1 0.77,1.82 0,0.5 -0.14,1.09 -0.42,1.77l-0.29 0.71 -3.79 9.39zm-9.54 0.11l0.66 0c1.45,0 2.4,-0.59 2.88,-1.77l1.85 -4.55c0.24,-0.6 0.37,-1.09 0.37,-1.5 0,-0.48 -0.23,-0.89 -0.7,-1.24 -0.47,-0.35 -1.03,-0.53 -1.68,-0.53 -1.29,0 -2.55,0.74 -3.76,2.23 -1.22,1.5 -1.83,3.04 -1.83,4.63 0,1.8 0.74,2.71 2.22,2.71zm29.34 -14.53l0.82 0c2.22,0 3.33,0.78 3.33,2.35 0,1.08 -0.4,1.91 -1.19,2.51 -0.78,0.6 -1.86,0.9 -3.25,0.9l-1.92 0 -3.52 8.67 2.94 0c2.22,0 3.32,0.78 3.32,2.33 0,1.06 -0.38,1.89 -1.16,2.49 -0.77,0.59 -1.87,0.89 -3.26,0.89l-4.71 0c-1.33,0 -2.38,-0.31 -3.16,-0.92 -0.78,-0.61 -1.17,-1.45 -1.17,-2.49 0,-0.65 0.16,-1.36 0.48,-2.16l0.49 -1.15 3.1 -7.64 -0.4 0c-1.98,0 -2.97,-0.76 -2.97,-2.29 0,-1.1 0.4,-1.95 1.18,-2.55 0.79,-0.61 1.88,-0.91 3.29,-0.91l1.21 0 1.39 -3.44 0.3 -0.71c0.82,-1.94 2.12,-2.91 3.89,-2.91 0.72,0 1.34,0.24 1.85,0.72 0.52,0.48 0.78,1.07 0.78,1.75 0,0.66 -0.24,1.5 -0.69,2.51l-0.98 2.07zm9.29 14.42l2.97 0c2.2,0 3.29,0.78 3.29,2.33 0,1.06 -0.38,1.89 -1.16,2.49 -0.77,0.59 -1.86,0.89 -3.26,0.89l-4.18 0c-1.54,0 -2.75,-0.31 -3.63,-0.95 -0.89,-0.63 -1.33,-1.49 -1.33,-2.58 0,-0.58 0.19,-1.32 0.56,-2.2l4.34 -10.68 0.28 -0.74c0.81,-1.98 2.1,-2.97 3.89,-2.97 0.74,0 1.37,0.24 1.91,0.73 0.53,0.5 0.8,1.09 0.8,1.77 0,0.57 -0.24,1.42 -0.71,2.58l-3.78 9.34zm7.73 -19.89l-3.25 2.55c-0.77,0.62 -1.44,0.93 -2,0.93 -0.47,0 -0.9,-0.18 -1.26,-0.54 -0.37,-0.36 -0.56,-0.78 -0.56,-1.25 0,-0.2 0.04,-0.38 0.11,-0.56l0.21 -0.52 1 -2.63c0.44,-1.16 1.26,-1.74 2.45,-1.74l1.52 0c1.78,0 2.67,0.69 2.67,2.08 0,0.65 -0.3,1.21 -0.9,1.68zm16.41 19.89l2.9 0c2.22,0 3.33,0.77 3.33,2.3 0,1.06 -0.39,1.89 -1.18,2.49 -0.8,0.6 -1.88,0.9 -3.27,0.9l-3.36 0c-1.51,0 -2.54,-0.58 -3.08,-1.76 -1.32,1.18 -2.58,1.76 -3.81,1.76l-3 0c-1.93,0 -3.49,-0.69 -4.68,-2.06 -1.19,-1.37 -1.78,-3.17 -1.78,-5.39 0,-3.37 1.16,-6.37 3.49,-9.03 2.33,-2.64 4.95,-3.97 7.88,-3.97 2.25,0 3.89,0.76 4.93,2.3 0.88,-1.32 2.03,-1.97 3.44,-1.97 0.77,0 1.41,0.24 1.93,0.73 0.51,0.5 0.77,1.1 0.77,1.82 0,0.5 -0.14,1.09 -0.42,1.77l-0.29 0.71 -3.79 9.39zm-9.54 0.11l0.66 0c1.45,0 2.4,-0.59 2.88,-1.77l1.85 -4.55c0.24,-0.6 0.37,-1.09 0.37,-1.5 0,-0.48 -0.23,-0.89 -0.7,-1.24 -0.47,-0.35 -1.03,-0.53 -1.68,-0.53 -1.29,0 -2.55,0.74 -3.76,2.23 -1.22,1.5 -1.83,3.04 -1.83,4.63 0,1.8 0.74,2.71 2.22,2.71z"/>
  <path class="fil0" d="M268.2 1234.01l-7.28 0 -8.7 15.07c-4.1,7.14 -8.96,10.71 -14.58,10.71 -3.46,0 -6.35,-1.24 -8.69,-3.72 -2.34,-2.49 -3.51,-5.56 -3.51,-9.22 0,-2.98 0.91,-5.86 2.71,-8.62 1.8,-2.76 4.27,-5.06 7.38,-6.88 2.33,-1.34 4.92,-2.27 7.76,-2.81 2.84,-0.55 6.61,-0.82 11.33,-0.82l1.95 0 2.07 -3.81c2.9,-5.31 6.42,-8.85 10.59,-10.62 2.68,-1.14 6.19,-1.71 10.51,-1.71 1.1,0 1.97,0.24 2.6,0.73 0.64,0.5 0.95,1.18 0.95,2.06 0,0.4 -0.11,0.87 -0.31,1.42l-0.24 0.6 -4.52 11.33 2 0 0.68 0c1.96,0 2.93,0.85 2.93,2.56 0,1.03 -0.4,1.92 -1.21,2.65 -0.8,0.73 -1.77,1.09 -2.93,1.09l-0.71 0 -3.31 0 -2.92 7.16 4.29 0 0.68 0c1.97,0 2.94,0.84 2.94,2.53 0,1.05 -0.4,1.95 -1.21,2.68 -0.81,0.73 -1.78,1.09 -2.94,1.09l-0.71 0 -5.62 0c-1.51,0 -2.74,-0.38 -3.69,-1.16 -0.96,-0.78 -1.44,-1.8 -1.44,-3.04 0,-0.96 0.36,-2.33 1.08,-4.1l2.08 -5.15zm2.58 -6.3l3.78 -9.34c-1.86,0.12 -3.43,0.71 -4.69,1.78 -1.27,1.06 -2.72,2.98 -4.35,5.77l-1.08 1.78 6.33 0zm-17.82 6.3l-2.23 0c-5,0 -8.98,0.93 -11.93,2.79 -1.88,1.19 -3.37,2.68 -4.48,4.47 -1.11,1.8 -1.67,3.6 -1.67,5.42 0,1.67 0.54,3.1 1.6,4.28 1.07,1.18 2.36,1.78 3.89,1.78 2.65,0 4.99,-1.76 7.01,-5.26l7.8 -13.47zm24.27 7.75l3 0c2.23,0 3.34,0.78 3.34,2.33 0,1.06 -0.4,1.89 -1.18,2.49 -0.79,0.59 -1.88,0.89 -3.26,0.89l-3.54 0c-1.37,0 -2.37,-0.57 -3,-1.68 -1.12,1.12 -2.32,1.68 -3.6,1.68l-3.34 0c-1.94,0 -3.5,-0.66 -4.66,-1.99 -1.16,-1.34 -1.75,-3.1 -1.75,-5.31 0,-3.37 1.15,-6.41 3.46,-9.1 2.3,-2.7 4.89,-4.05 7.76,-4.05 2.12,0 3.81,0.75 5.08,2.25l5.85 -14.35c1,-2.45 2.39,-3.67 4.17,-3.67 0.76,0 1.39,0.24 1.91,0.73 0.53,0.48 0.79,1.07 0.79,1.77 0,0.55 -0.13,1.16 -0.4,1.84l-0.31 0.72 -10.3 25.46zm-9.61 0.11l0.99 0c1.21,0 2.01,-0.48 2.39,-1.45l1.97 -4.83c0.24,-0.59 0.37,-1.05 0.37,-1.36 0,-0.52 -0.22,-0.97 -0.66,-1.34 -0.45,-0.37 -1,-0.54 -1.67,-0.54 -1.36,0 -2.63,0.76 -3.81,2.28 -1.18,1.52 -1.77,3.16 -1.77,4.92 0,1.55 0.73,2.33 2.19,2.33zm33.87 -0.11l2.9 0c2.22,0 3.33,0.77 3.33,2.3 0,1.06 -0.39,1.89 -1.18,2.49 -0.8,0.6 -1.88,0.9 -3.27,0.9l-3.36 0c-1.51,0 -2.54,-0.58 -3.08,-1.76 -1.32,1.18 -2.58,1.76 -3.81,1.76l-3 0c-1.93,0 -3.49,-0.69 -4.68,-2.06 -1.19,-1.37 -1.78,-3.17 -1.78,-5.39 0,-3.37 1.16,-6.37 3.49,-9.03 2.33,-2.64 4.95,-3.97 7.88,-3.97 2.25,0 3.89,0.76 4.93,2.3 0.88,-1.32 2.03,-1.97 3.44,-1.97 0.77,0 1.41,0.24 1.93,0.73 0.51,0.5 0.77,1.1 0.77,1.82 0,0.5 -0.14,1.09 -0.42,1.77l-0.29 0.71 -3.79 9.39zm-9.54 0.11l0.66 0c1.45,0 2.4,-0.59 2.88,-1.77l1.85 -4.55c0.24,-0.6 0.37,-1.09 0.37,-1.5 0,-0.48 -0.23,-0.89 -0.7,-1.24 -0.47,-0.35 -1.03,-0.53 -1.68,-0.53 -1.29,0 -2.55,0.74 -3.76,2.23 -1.22,1.5 -1.83,3.04 -1.83,4.63 0,1.8 0.74,2.71 2.22,2.71zm21.36 3.54l-6.85 16.86c-0.95,2.32 -2.33,3.49 -4.15,3.49 -0.7,0 -1.3,-0.24 -1.8,-0.7 -0.49,-0.46 -0.74,-1.01 -0.74,-1.67 0,-0.54 0.22,-1.36 0.66,-2.46l12.66 -31.22c0.65,-1.58 1.77,-2.37 3.37,-2.37 1.1,0 1.98,0.53 2.63,1.58 1.23,-1.26 2.73,-1.9 4.5,-1.9 1.84,0 3.33,0.7 4.47,2.09 1.13,1.39 1.7,3.22 1.7,5.5 0,4.31 -1.34,7.81 -4.03,10.52 -0.88,0.9 -1.78,1.51 -2.71,1.84 -0.93,0.33 -2.23,0.5 -3.89,0.5 -1.8,0 -3.02,-0.12 -3.7,-0.37 -0.67,-0.24 -1.37,-0.81 -2.09,-1.69zm2.15 -5.36c0.44,0.76 0.86,1.25 1.26,1.48 0.4,0.22 1.02,0.34 1.88,0.34 1.24,0 2.21,-0.47 2.91,-1.4 1.42,-1.87 2.13,-3.8 2.13,-5.78 0,-1.71 -0.81,-2.56 -2.42,-2.56 -1.77,0 -3.04,1.03 -3.82,3.08 -0.08,0.24 -0.15,0.42 -0.21,0.58l-1.74 4.25zm27.7 -12.71l0.82 0c2.22,0 3.33,0.78 3.33,2.35 0,1.08 -0.4,1.91 -1.19,2.51 -0.78,0.6 -1.86,0.9 -3.25,0.9l-1.92 0 -3.52 8.67 2.94 0c2.22,0 3.32,0.78 3.32,2.33 0,1.06 -0.38,1.89 -1.16,2.49 -0.77,0.59 -1.87,0.89 -3.26,0.89l-4.71 0c-1.33,0 -2.38,-0.31 -3.16,-0.92 -0.78,-0.61 -1.17,-1.45 -1.17,-2.49 0,-0.65 0.16,-1.36 0.48,-2.16l0.49 -1.15 3.1 -7.64 -0.4 0c-1.98,0 -2.97,-0.76 -2.97,-2.29 0,-1.1 0.4,-1.95 1.18,-2.55 0.79,-0.61 1.88,-0.91 3.29,-0.91l1.21 0 1.39 -3.44 0.3 -0.71c0.82,-1.94 2.12,-2.91 3.89,-2.91 0.72,0 1.34,0.24 1.85,0.72 0.52,0.48 0.78,1.07 0.78,1.75 0,0.66 -0.24,1.5 -0.69,2.51l-0.98 2.07zm19.92 14.42l2.9 0c2.22,0 3.33,0.77 3.33,2.3 0,1.06 -0.39,1.89 -1.18,2.49 -0.8,0.6 -1.88,0.9 -3.27,0.9l-3.36 0c-1.51,0 -2.54,-0.58 -3.08,-1.76 -1.32,1.18 -2.58,1.76 -3.81,1.76l-3 0c-1.93,0 -3.49,-0.69 -4.68,-2.06 -1.19,-1.37 -1.78,-3.17 -1.78,-5.39 0,-3.37 1.16,-6.37 3.49,-9.03 2.33,-2.64 4.95,-3.97 7.88,-3.97 2.25,0 3.89,0.76 4.93,2.3 0.88,-1.32 2.03,-1.97 3.44,-1.97 0.77,0 1.41,0.24 1.93,0.73 0.51,0.5 0.77,1.1 0.77,1.82 0,0.5 -0.14,1.09 -0.42,1.77l-0.29 0.71 -3.79 9.39zm-9.54 0.11l0.66 0c1.45,0 2.4,-0.59 2.88,-1.77l1.85 -4.55c0.24,-0.6 0.37,-1.09 0.37,-1.5 0,-0.48 -0.23,-0.89 -0.7,-1.24 -0.47,-0.35 -1.03,-0.53 -1.68,-0.53 -1.29,0 -2.55,0.74 -3.76,2.23 -1.22,1.5 -1.83,3.04 -1.83,4.63 0,1.8 0.74,2.71 2.22,2.71zm28.7 -14.53c0.78,-0.22 1.48,-0.32 2.1,-0.32 2.03,0 3.68,0.75 4.93,2.27 1.26,1.52 1.89,3.48 1.89,5.89 0,4.67 -1.8,8.32 -5.41,10.92 -1.26,0.91 -2.58,1.36 -3.94,1.36l-2.5 0c-1.73,0 -3.21,-0.62 -4.44,-1.87 -0.73,1.25 -1.88,1.87 -3.45,1.87 -0.76,0 -1.39,-0.24 -1.91,-0.73 -0.53,-0.5 -0.79,-1.09 -0.79,-1.79 0,-0.53 0.14,-1.14 0.42,-1.82l0.29 -0.71 10.99 -27.17 0.29 -0.73c0.83,-1.97 2.09,-2.94 3.8,-2.94 0.79,0 1.44,0.24 1.98,0.73 0.53,0.47 0.8,1.07 0.8,1.77 0,0.55 -0.14,1.15 -0.42,1.82l-0.29 0.74 -4.34 10.72zm-5.23 12.89c0.87,1.13 1.9,1.7 3.07,1.7 0.84,0 1.55,-0.24 2.14,-0.71 0.81,-0.64 1.51,-1.61 2.12,-2.88 0.6,-1.28 0.9,-2.42 0.9,-3.43 0,-0.79 -0.22,-1.43 -0.68,-1.93 -0.46,-0.49 -1.06,-0.74 -1.8,-0.74 -1.67,0 -3,1.23 -4,3.69l-1.76 4.31zm21.78 1.54l2.97 0c2.2,0 3.29,0.78 3.29,2.33 0,1.06 -0.38,1.89 -1.16,2.49 -0.77,0.59 -1.86,0.89 -3.26,0.89l-4.18 0c-1.54,0 -2.75,-0.31 -3.63,-0.95 -0.89,-0.63 -1.33,-1.49 -1.33,-2.58 0,-0.58 0.19,-1.32 0.56,-2.2l4.34 -10.68 0.28 -0.74c0.81,-1.98 2.1,-2.97 3.89,-2.97 0.74,0 1.37,0.24 1.91,0.73 0.53,0.5 0.8,1.09 0.8,1.77 0,0.57 -0.24,1.42 -0.71,2.58l-3.78 9.34zm3.46 -22.82c1.02,0 1.88,0.36 2.59,1.07 0.71,0.71 1.07,1.57 1.07,2.59 0,1.02 -0.36,1.88 -1.07,2.59 -0.71,0.71 -1.57,1.07 -2.59,1.07 -1.02,0 -1.88,-0.36 -2.59,-1.07 -0.71,-0.71 -1.07,-1.58 -1.07,-2.59 0,-1.02 0.36,-1.88 1.07,-2.59 0.71,-0.71 1.58,-1.07 2.59,-1.07zm9.78 22.82l2.75 0c2.22,0 3.33,0.78 3.33,2.33 0,1.06 -0.38,1.89 -1.16,2.49 -0.78,0.59 -1.87,0.89 -3.27,0.89l-4.73 0c-1.29,0 -2.3,-0.31 -3.06,-0.92 -0.74,-0.61 -1.12,-1.44 -1.12,-2.47 0,-0.54 0.25,-1.44 0.76,-2.71l10.58 -26.14 0.28 -0.72c0.81,-1.97 2.09,-2.94 3.86,-2.94 0.74,0 1.35,0.24 1.87,0.73 0.51,0.5 0.77,1.08 0.77,1.77 0,0.52 -0.14,1.12 -0.4,1.79l-0.28 0.72 -10.2 25.19zm13.48 0l2.97 0c2.2,0 3.29,0.78 3.29,2.33 0,1.06 -0.38,1.89 -1.16,2.49 -0.77,0.59 -1.86,0.89 -3.26,0.89l-4.18 0c-1.54,0 -2.75,-0.31 -3.63,-0.95 -0.89,-0.63 -1.33,-1.49 -1.33,-2.58 0,-0.58 0.19,-1.32 0.56,-2.2l4.34 -10.68 0.28 -0.74c0.81,-1.98 2.1,-2.97 3.89,-2.97 0.74,0 1.37,0.24 1.91,0.73 0.53,0.5 0.8,1.09 0.8,1.77 0,0.57 -0.24,1.42 -0.71,2.58l-3.78 9.34zm3.46 -22.82c1.02,0 1.88,0.36 2.59,1.07 0.71,0.71 1.07,1.57 1.07,2.59 0,1.02 -0.36,1.88 -1.07,2.59 -0.71,0.71 -1.57,1.07 -2.59,1.07 -1.02,0 -1.88,-0.36 -2.59,-1.07 -0.71,-0.71 -1.07,-1.58 -1.07,-2.59 0,-1.02 0.36,-1.88 1.07,-2.59 0.71,-0.71 1.58,-1.07 2.59,-1.07zm20.79 22.82l3 0c2.23,0 3.34,0.78 3.34,2.33 0,1.06 -0.4,1.89 -1.18,2.49 -0.79,0.59 -1.88,0.89 -3.26,0.89l-3.54 0c-1.37,0 -2.37,-0.57 -3,-1.68 -1.12,1.12 -2.32,1.68 -3.6,1.68l-3.34 0c-1.94,0 -3.5,-0.66 -4.66,-1.99 -1.16,-1.34 -1.75,-3.1 -1.75,-5.31 0,-3.37 1.15,-6.41 3.46,-9.1 2.3,-2.7 4.89,-4.05 7.76,-4.05 2.12,0 3.81,0.75 5.08,2.25l5.85 -14.35c1,-2.45 2.39,-3.67 4.17,-3.67 0.76,0 1.39,0.24 1.91,0.73 0.53,0.48 0.79,1.07 0.79,1.77 0,0.55 -0.13,1.16 -0.4,1.84l-0.31 0.72 -10.3 25.46zm-9.61 0.11l0.99 0c1.21,0 2.01,-0.48 2.39,-1.45l1.97 -4.83c0.24,-0.59 0.37,-1.05 0.37,-1.36 0,-0.52 -0.22,-0.97 -0.66,-1.34 -0.45,-0.37 -1,-0.54 -1.67,-0.54 -1.36,0 -2.63,0.76 -3.81,2.28 -1.18,1.52 -1.77,3.16 -1.77,4.92 0,1.55 0.73,2.33 2.19,2.33zm33.87 -0.11l2.9 0c2.22,0 3.33,0.77 3.33,2.3 0,1.06 -0.39,1.89 -1.18,2.49 -0.8,0.6 -1.88,0.9 -3.27,0.9l-3.36 0c-1.51,0 -2.54,-0.58 -3.08,-1.76 -1.32,1.18 -2.58,1.76 -3.81,1.76l-3 0c-1.93,0 -3.49,-0.69 -4.68,-2.06 -1.19,-1.37 -1.78,-3.17 -1.78,-5.39 0,-3.37 1.16,-6.37 3.49,-9.03 2.33,-2.64 4.95,-3.97 7.88,-3.97 2.25,0 3.89,0.76 4.93,2.3 0.88,-1.32 2.03,-1.97 3.44,-1.97 0.77,0 1.41,0.24 1.93,0.73 0.51,0.5 0.77,1.1 0.77,1.82 0,0.5 -0.14,1.09 -0.42,1.77l-0.29 0.71 -3.79 9.39zm-9.54 0.11l0.66 0c1.45,0 2.4,-0.59 2.88,-1.77l1.85 -4.55c0.24,-0.6 0.37,-1.09 0.37,-1.5 0,-0.48 -0.23,-0.89 -0.7,-1.24 -0.47,-0.35 -1.03,-0.53 -1.68,-0.53 -1.29,0 -2.55,0.74 -3.76,2.23 -1.22,1.5 -1.83,3.04 -1.83,4.63 0,1.8 0.74,2.71 2.22,2.71zm33.71 -0.11l3 0c2.23,0 3.34,0.78 3.34,2.33 0,1.06 -0.4,1.89 -1.18,2.49 -0.79,0.59 -1.88,0.89 -3.26,0.89l-3.54 0c-1.37,0 -2.37,-0.57 -3,-1.68 -1.12,1.12 -2.32,1.68 -3.6,1.68l-3.34 0c-1.94,0 -3.5,-0.66 -4.66,-1.99 -1.16,-1.34 -1.75,-3.1 -1.75,-5.31 0,-3.37 1.15,-6.41 3.46,-9.1 2.3,-2.7 4.89,-4.05 7.76,-4.05 2.12,0 3.81,0.75 5.08,2.25l5.85 -14.35c1,-2.45 2.39,-3.67 4.17,-3.67 0.76,0 1.39,0.24 1.91,0.73 0.53,0.48 0.79,1.07 0.79,1.77 0,0.55 -0.13,1.16 -0.4,1.84l-0.31 0.72 -10.3 25.46zm-9.61 0.11l0.99 0c1.21,0 2.01,-0.48 2.39,-1.45l1.97 -4.83c0.24,-0.59 0.37,-1.05 0.37,-1.36 0,-0.52 -0.22,-0.97 -0.66,-1.34 -0.45,-0.37 -1,-0.54 -1.67,-0.54 -1.36,0 -2.63,0.76 -3.81,2.28 -1.18,1.52 -1.77,3.16 -1.77,4.92 0,1.55 0.73,2.33 2.19,2.33z"/>
  <path class="fil0" d="M1205.38 1229.54c-2.37,4.19 -3.55,8.07 -3.55,11.66 0,2.55 0.58,4.37 1.75,5.47 1.16,1.1 3.1,1.65 5.82,1.65l14.61 0c2.43,0 3.65,0.82 3.65,2.48 0,1.19 -0.43,2.13 -1.28,2.81 -0.85,0.67 -2.05,1.01 -3.6,1.01l-15.24 0c-2.55,0 -4.57,-0.35 -6.1,-1.05 -2.13,-0.98 -3.79,-2.49 -5,-4.53 -1.21,-2.03 -1.81,-4.36 -1.81,-6.96 0,-3.5 1.08,-7.68 3.22,-12.54l-1.47 0 -0.68 0c-1.97,0 -2.95,-0.84 -2.95,-2.53 0,-1.06 0.41,-1.94 1.21,-2.67 0.81,-0.73 1.78,-1.1 2.94,-1.1l0.72 0 3.8 0c1.58,-2.64 3.7,-5.16 6.36,-7.6 3.4,-3.08 7.07,-4.61 11.01,-4.61 2.59,0 4.73,0.8 6.44,2.39 1.69,1.6 2.55,3.63 2.55,6.11 0,3.53 -1.64,6.23 -4.92,8.12 -2.23,1.26 -5.77,1.89 -10.62,1.89l-6.85 0zm3.91 -6.3l5.1 0c4.36,0 6.54,-1.17 6.54,-3.52 0,-0.74 -0.29,-1.34 -0.85,-1.81 -0.57,-0.47 -1.29,-0.7 -2.17,-0.7 -1.34,0 -2.8,0.55 -4.36,1.64 -1.56,1.09 -2.98,2.56 -4.26,4.38zm24.3 3.77c2.54,0 4.63,0.81 6.26,2.41 1.64,1.62 2.46,3.66 2.46,6.14 0,1.87 -0.43,3.73 -1.28,5.58 -0.86,1.85 -1.97,3.32 -3.34,4.42 -0.92,0.72 -1.86,1.21 -2.82,1.49 -0.97,0.27 -2.33,0.4 -4.08,0.4 -2.86,0 -4.78,-0.34 -5.78,-1.02 -2.34,-1.61 -3.52,-3.99 -3.52,-7.14 0,-3.33 1.2,-6.21 3.6,-8.64 2.4,-2.43 5.24,-3.65 8.51,-3.65zm-0.63 5.6c-1.29,0 -2.47,0.64 -3.53,1.92 -1.07,1.28 -1.6,2.69 -1.6,4.24 0,2.03 1.13,3.05 3.4,3.05 1.33,0 2.34,-0.41 3.06,-1.24 1.18,-1.35 1.77,-2.89 1.77,-4.63 0,-1 -0.28,-1.8 -0.86,-2.41 -0.58,-0.62 -1.33,-0.93 -2.25,-0.93zm16.72 9.15l2.75 0c2.22,0 3.33,0.78 3.33,2.33 0,1.06 -0.38,1.89 -1.16,2.49 -0.78,0.59 -1.87,0.89 -3.27,0.89l-4.73 0c-1.29,0 -2.3,-0.31 -3.06,-0.92 -0.74,-0.61 -1.12,-1.44 -1.12,-2.47 0,-0.54 0.25,-1.44 0.76,-2.71l10.58 -26.14 0.28 -0.72c0.81,-1.97 2.09,-2.94 3.86,-2.94 0.74,0 1.35,0.24 1.87,0.73 0.51,0.5 0.77,1.08 0.77,1.77 0,0.52 -0.14,1.12 -0.4,1.79l-0.28 0.72 -10.2 25.19zm24.11 0l2.9 0c2.22,0 3.33,0.77 3.33,2.3 0,1.06 -0.39,1.89 -1.18,2.49 -0.8,0.6 -1.88,0.9 -3.27,0.9l-3.36 0c-1.51,0 -2.54,-0.58 -3.08,-1.76 -1.32,1.18 -2.58,1.76 -3.81,1.76l-3 0c-1.93,0 -3.49,-0.69 -4.68,-2.06 -1.19,-1.37 -1.78,-3.17 -1.78,-5.39 0,-3.37 1.16,-6.37 3.49,-9.03 2.33,-2.64 4.95,-3.97 7.88,-3.97 2.25,0 3.89,0.76 4.93,2.3 0.88,-1.32 2.03,-1.97 3.44,-1.97 0.77,0 1.41,0.24 1.93,0.73 0.51,0.5 0.77,1.1 0.77,1.82 0,0.5 -0.14,1.09 -0.42,1.77l-0.29 0.71 -3.79 9.39zm-9.54 0.11l0.66 0c1.45,0 2.4,-0.59 2.88,-1.77l1.85 -4.55c0.24,-0.6 0.37,-1.09 0.37,-1.5 0,-0.48 -0.23,-0.89 -0.7,-1.24 -0.47,-0.35 -1.03,-0.53 -1.68,-0.53 -1.29,0 -2.55,0.74 -3.76,2.23 -1.22,1.5 -1.83,3.04 -1.83,4.63 0,1.8 0.74,2.71 2.22,2.71zm28.7 -14.53c0.78,-0.22 1.48,-0.32 2.1,-0.32 2.03,0 3.68,0.75 4.93,2.27 1.26,1.52 1.89,3.48 1.89,5.89 0,4.67 -1.8,8.32 -5.41,10.92 -1.26,0.91 -2.58,1.36 -3.94,1.36l-2.5 0c-1.73,0 -3.21,-0.62 -4.44,-1.87 -0.73,1.25 -1.88,1.87 -3.45,1.87 -0.76,0 -1.39,-0.24 -1.91,-0.73 -0.53,-0.5 -0.79,-1.09 -0.79,-1.79 0,-0.53 0.14,-1.14 0.42,-1.82l0.29 -0.71 10.99 -27.17 0.29 -0.73c0.83,-1.97 2.09,-2.94 3.8,-2.94 0.79,0 1.44,0.24 1.98,0.73 0.53,0.47 0.8,1.07 0.8,1.77 0,0.55 -0.14,1.15 -0.42,1.82l-0.29 0.74 -4.34 10.72zm-5.23 12.89c0.87,1.13 1.9,1.7 3.07,1.7 0.84,0 1.55,-0.24 2.14,-0.71 0.81,-0.64 1.51,-1.61 2.12,-2.88 0.6,-1.28 0.9,-2.42 0.9,-3.43 0,-0.79 -0.22,-1.43 -0.68,-1.93 -0.46,-0.49 -1.06,-0.74 -1.8,-0.74 -1.67,0 -3,1.23 -4,3.69l-1.76 4.31zm26.64 -13.21c2.54,0 4.63,0.81 6.26,2.41 1.64,1.62 2.46,3.66 2.46,6.14 0,1.87 -0.43,3.73 -1.28,5.58 -0.86,1.85 -1.97,3.32 -3.34,4.42 -0.92,0.72 -1.86,1.21 -2.82,1.49 -0.97,0.27 -2.33,0.4 -4.08,0.4 -2.86,0 -4.78,-0.34 -5.78,-1.02 -2.34,-1.61 -3.52,-3.99 -3.52,-7.14 0,-3.33 1.2,-6.21 3.6,-8.64 2.4,-2.43 5.24,-3.65 8.51,-3.65zm-0.63 5.6c-1.29,0 -2.47,0.64 -3.53,1.92 -1.07,1.28 -1.6,2.69 -1.6,4.24 0,2.03 1.13,3.05 3.4,3.05 1.33,0 2.34,-0.41 3.06,-1.24 1.18,-1.35 1.77,-2.89 1.77,-4.63 0,-1 -0.28,-1.8 -0.86,-2.41 -0.58,-0.62 -1.33,-0.93 -2.25,-0.93zm35.62 0.48l-0.89 2.22c-0.81,1.97 -1.86,2.95 -3.15,2.95 -0.78,0 -1.44,-0.24 -1.96,-0.71 -0.53,-0.48 -0.79,-1.07 -0.79,-1.77 0,-0.41 0.19,-1.09 0.57,-2.06l2.97 -7.34c0.71,-1.77 1.72,-2.66 3.04,-2.66 1.29,0 2.08,0.61 2.39,1.84l0.2 0.82c0.11,0.42 0.26,0.69 0.48,0.79 0.21,0.11 0.72,0.16 1.54,0.16l6.15 0c2.29,0 3.43,0.81 3.43,2.42 0,2.23 -1.45,3.34 -4.35,3.34l-0.29 0.26c-2.75,2.68 -4.13,4.76 -4.13,6.22 0,1.46 0.79,2.19 2.37,2.19l3.32 0c2.23,0 3.36,0.77 3.36,2.3 0,1.08 -0.4,1.92 -1.18,2.51 -0.78,0.59 -1.87,0.89 -3.28,0.89l-5.16 0c-1.74,0 -3.16,-0.6 -4.28,-1.81 -1.1,-1.21 -1.66,-2.79 -1.66,-4.72 0,-1.23 0.3,-2.42 0.89,-3.58 0.59,-1.16 1.64,-2.57 3.14,-4.26l-2.74 0zm27.42 8.67l2.9 0c2.22,0 3.33,0.77 3.33,2.3 0,1.06 -0.39,1.89 -1.18,2.49 -0.8,0.6 -1.88,0.9 -3.27,0.9l-3.36 0c-1.51,0 -2.54,-0.58 -3.08,-1.76 -1.32,1.18 -2.58,1.76 -3.81,1.76l-3 0c-1.93,0 -3.49,-0.69 -4.68,-2.06 -1.19,-1.37 -1.78,-3.17 -1.78,-5.39 0,-3.37 1.16,-6.37 3.49,-9.03 2.33,-2.64 4.95,-3.97 7.88,-3.97 2.25,0 3.89,0.76 4.93,2.3 0.88,-1.32 2.03,-1.97 3.44,-1.97 0.77,0 1.41,0.24 1.93,0.73 0.51,0.5 0.77,1.1 0.77,1.82 0,0.5 -0.14,1.09 -0.42,1.77l-0.29 0.71 -3.79 9.39zm-9.54 0.11l0.66 0c1.45,0 2.4,-0.59 2.88,-1.77l1.85 -4.55c0.24,-0.6 0.37,-1.09 0.37,-1.5 0,-0.48 -0.23,-0.89 -0.7,-1.24 -0.47,-0.35 -1.03,-0.53 -1.68,-0.53 -1.29,0 -2.55,0.74 -3.76,2.23 -1.22,1.5 -1.83,3.04 -1.83,4.63 0,1.8 0.74,2.71 2.22,2.71zm30.72 5.6l-7.62 0c-2.19,0 -3.98,-0.77 -5.35,-2.32 -1.38,-1.53 -2.07,-3.53 -2.07,-5.98 0,-3.27 1.13,-6.12 3.39,-8.53 2.26,-2.41 4.92,-3.62 7.96,-3.62 2.07,0 3.76,0.58 5.05,1.74 1.3,1.16 1.95,2.66 1.95,4.52 0,1.3 -0.32,2.37 -0.97,3.2 -0.64,0.84 -1.48,1.25 -2.49,1.25 -1.6,0 -2.41,-0.75 -2.41,-2.26 0,-0.22 0,-0.41 0,-0.57 0,-0.19 0,-0.38 0,-0.55 0,-1.23 -0.61,-1.84 -1.82,-1.84 -1.14,0 -2.18,0.6 -3.12,1.81 -0.94,1.2 -1.41,2.55 -1.41,4.04 0,1.24 0.39,2.12 1.15,2.64 0.77,0.51 2.07,0.77 3.9,0.77l4.97 0c2.22,0 3.33,0.78 3.33,2.33 0,1.04 -0.4,1.87 -1.19,2.47 -0.8,0.6 -1.87,0.9 -3.24,0.9zm11.64 -5.7l2.97 0c2.2,0 3.29,0.78 3.29,2.33 0,1.06 -0.38,1.89 -1.16,2.49 -0.77,0.59 -1.86,0.89 -3.26,0.89l-4.18 0c-1.54,0 -2.75,-0.31 -3.63,-0.95 -0.89,-0.63 -1.33,-1.49 -1.33,-2.58 0,-0.58 0.19,-1.32 0.56,-2.2l4.34 -10.68 0.28 -0.74c0.81,-1.98 2.1,-2.97 3.89,-2.97 0.74,0 1.37,0.24 1.91,0.73 0.53,0.5 0.8,1.09 0.8,1.77 0,0.57 -0.24,1.42 -0.71,2.58l-3.78 9.34zm3.46 -22.82c1.02,0 1.88,0.36 2.59,1.07 0.71,0.71 1.07,1.57 1.07,2.59 0,1.02 -0.36,1.88 -1.07,2.59 -0.71,0.71 -1.57,1.07 -2.59,1.07 -1.02,0 -1.88,-0.36 -2.59,-1.07 -0.71,-0.71 -1.07,-1.58 -1.07,-2.59 0,-1.02 0.36,-1.88 1.07,-2.59 0.71,-0.71 1.58,-1.07 2.59,-1.07zm14.9 8.07c2.54,0 4.63,0.81 6.26,2.41 1.64,1.62 2.46,3.66 2.46,6.14 0,1.87 -0.43,3.73 -1.28,5.58 -0.86,1.85 -1.97,3.32 -3.34,4.42 -0.92,0.72 -1.86,1.21 -2.82,1.49 -0.97,0.27 -2.33,0.4 -4.08,0.4 -2.86,0 -4.78,-0.34 -5.78,-1.02 -2.34,-1.61 -3.52,-3.99 -3.52,-7.14 0,-3.33 1.2,-6.21 3.6,-8.64 2.4,-2.43 5.24,-3.65 8.51,-3.65zm-0.63 5.6c-1.29,0 -2.47,0.64 -3.53,1.92 -1.07,1.28 -1.6,2.69 -1.6,4.24 0,2.03 1.13,3.05 3.4,3.05 1.33,0 2.34,-0.41 3.06,-1.24 1.18,-1.35 1.77,-2.89 1.77,-4.63 0,-1 -0.28,-1.8 -0.86,-2.41 -0.58,-0.62 -1.33,-0.93 -2.25,-0.93zm5.93 -10.74l-3.25 2.55c-0.77,0.62 -1.43,0.93 -2,0.93 -0.47,0 -0.9,-0.18 -1.26,-0.54 -0.37,-0.36 -0.56,-0.78 -0.56,-1.25 0,-0.2 0.04,-0.38 0.11,-0.56l0.21 -0.52 1 -2.63c0.44,-1.16 1.25,-1.74 2.45,-1.74l1.52 0c1.79,0 2.68,0.69 2.68,2.08 0,0.65 -0.3,1.21 -0.9,1.68zm23.21 19.89l3.16 0c2.22,0 3.32,0.78 3.32,2.33 0,1.06 -0.4,1.89 -1.18,2.49 -0.79,0.59 -1.87,0.89 -3.25,0.89l-5.49 0c-1.08,0 -1.98,-0.32 -2.72,-0.97 -0.73,-0.66 -1.1,-1.47 -1.1,-2.45 0,-0.59 0.25,-1.49 0.74,-2.68l2.35 -5.73c0.25,-0.59 0.38,-1.08 0.41,-1.45 0.02,-0.42 -0.15,-0.78 -0.51,-1.08 -0.36,-0.3 -0.83,-0.45 -1.38,-0.45 -1.81,0 -3.27,1.36 -4.38,4.07l-3.1 7.63c-0.93,2.32 -2.32,3.47 -4.16,3.47 -0.76,0 -1.4,-0.22 -1.93,-0.68 -0.53,-0.46 -0.79,-1.02 -0.79,-1.68 0,-0.49 0.14,-1.08 0.42,-1.77l0.29 -0.71 5.31 -13.1c0.69,-1.7 1.85,-2.55 3.5,-2.55 1.36,0 2.32,0.6 2.9,1.79 1.87,-1.41 3.67,-2.12 5.36,-2.12 1.65,0 3.01,0.47 4.08,1.42 1.07,0.95 1.61,2.15 1.61,3.6 0,0.81 -0.2,1.68 -0.58,2.65l-2.88 7.07z"/>
  <path class="fil0" d="M735.1 1129.55c-2.37,4.19 -3.55,8.07 -3.55,11.66 0,2.55 0.58,4.37 1.75,5.47 1.16,1.1 3.1,1.65 5.82,1.65l14.61 0c2.43,0 3.65,0.82 3.65,2.48 0,1.19 -0.43,2.13 -1.28,2.81 -0.85,0.67 -2.05,1.01 -3.6,1.01l-15.24 0c-2.55,0 -4.57,-0.35 -6.1,-1.05 -2.13,-0.98 -3.79,-2.49 -5,-4.53 -1.21,-2.03 -1.81,-4.36 -1.81,-6.96 0,-3.5 1.08,-7.68 3.22,-12.54l-1.47 0 -0.68 0c-1.97,0 -2.95,-0.84 -2.95,-2.53 0,-1.06 0.41,-1.94 1.21,-2.67 0.81,-0.73 1.78,-1.1 2.94,-1.1l0.72 0 3.8 0c1.58,-2.64 3.7,-5.16 6.36,-7.6 3.4,-3.08 7.07,-4.61 11.01,-4.61 2.59,0 4.73,0.8 6.44,2.39 1.69,1.6 2.55,3.63 2.55,6.11 0,3.53 -1.64,6.23 -4.92,8.12 -2.23,1.26 -5.77,1.89 -10.62,1.89l-6.85 0zm3.91 -6.3l5.1 0c4.36,0 6.54,-1.17 6.54,-3.52 0,-0.74 -0.29,-1.34 -0.85,-1.81 -0.57,-0.47 -1.29,-0.7 -2.17,-0.7 -1.34,0 -2.8,0.55 -4.36,1.64 -1.56,1.09 -2.98,2.56 -4.26,4.38zm19.24 9.85l-0.89 2.22c-0.81,1.97 -1.86,2.95 -3.15,2.95 -0.78,0 -1.44,-0.24 -1.96,-0.71 -0.53,-0.48 -0.79,-1.07 -0.79,-1.77 0,-0.41 0.19,-1.09 0.57,-2.06l2.97 -7.34c0.71,-1.77 1.72,-2.66 3.04,-2.66 1.29,0 2.08,0.61 2.39,1.84l0.2 0.82c0.11,0.42 0.26,0.69 0.48,0.79 0.21,0.11 0.72,0.16 1.54,0.16l6.15 0c2.29,0 3.43,0.81 3.43,2.42 0,2.23 -1.45,3.34 -4.35,3.34l-0.29 0.26c-2.75,2.68 -4.13,4.76 -4.13,6.22 0,1.46 0.79,2.19 2.37,2.19l3.32 0c2.23,0 3.36,0.77 3.36,2.3 0,1.08 -0.4,1.92 -1.18,2.51 -0.78,0.59 -1.87,0.89 -3.28,0.89l-5.16 0c-1.74,0 -3.16,-0.6 -4.28,-1.81 -1.1,-1.21 -1.66,-2.79 -1.66,-4.72 0,-1.23 0.3,-2.42 0.89,-3.58 0.59,-1.16 1.64,-2.57 3.14,-4.26l-2.74 0zm52.58 8.67l2.9 0c2.22,0 3.33,0.77 3.33,2.3 0,1.06 -0.39,1.89 -1.18,2.49 -0.8,0.6 -1.88,0.9 -3.27,0.9l-3.36 0c-1.51,0 -2.54,-0.58 -3.08,-1.76 -1.32,1.18 -2.58,1.76 -3.81,1.76l-3 0c-1.93,0 -3.49,-0.69 -4.68,-2.06 -1.19,-1.37 -1.78,-3.17 -1.78,-5.39 0,-3.37 1.16,-6.37 3.49,-9.03 2.33,-2.64 4.95,-3.97 7.88,-3.97 2.25,0 3.89,0.76 4.93,2.3 0.88,-1.32 2.03,-1.97 3.44,-1.97 0.77,0 1.41,0.24 1.93,0.73 0.51,0.5 0.77,1.1 0.77,1.82 0,0.5 -0.14,1.09 -0.42,1.77l-0.29 0.71 -3.79 9.39zm-9.54 0.11l0.66 0c1.45,0 2.4,-0.59 2.88,-1.77l1.85 -4.55c0.24,-0.6 0.37,-1.09 0.37,-1.5 0,-0.48 -0.23,-0.89 -0.7,-1.24 -0.47,-0.35 -1.03,-0.53 -1.68,-0.53 -1.29,0 -2.55,0.74 -3.76,2.23 -1.22,1.5 -1.83,3.04 -1.83,4.63 0,1.8 0.74,2.71 2.22,2.71zm28.8 -14.53l0.82 0c2.22,0 3.33,0.78 3.33,2.35 0,1.08 -0.4,1.91 -1.19,2.51 -0.78,0.6 -1.86,0.9 -3.25,0.9l-1.92 0 -3.52 8.67 2.94 0c2.22,0 3.32,0.78 3.32,2.33 0,1.06 -0.38,1.89 -1.16,2.49 -0.77,0.59 -1.87,0.89 -3.26,0.89l-4.71 0c-1.33,0 -2.38,-0.31 -3.16,-0.92 -0.78,-0.61 -1.17,-1.45 -1.17,-2.49 0,-0.65 0.16,-1.36 0.48,-2.16l0.49 -1.15 3.1 -7.64 -0.4 0c-1.98,0 -2.97,-0.76 -2.97,-2.29 0,-1.1 0.4,-1.95 1.18,-2.55 0.79,-0.61 1.88,-0.91 3.29,-0.91l1.21 0 1.39 -3.44 0.3 -0.71c0.82,-1.94 2.12,-2.91 3.89,-2.91 0.72,0 1.34,0.24 1.85,0.72 0.52,0.48 0.78,1.07 0.78,1.75 0,0.66 -0.24,1.5 -0.69,2.51l-0.98 2.07zm9.29 14.42l2.97 0c2.2,0 3.29,0.78 3.29,2.33 0,1.06 -0.38,1.89 -1.16,2.49 -0.77,0.59 -1.86,0.89 -3.26,0.89l-4.18 0c-1.54,0 -2.75,-0.31 -3.63,-0.95 -0.89,-0.63 -1.33,-1.49 -1.33,-2.58 0,-0.58 0.19,-1.32 0.56,-2.2l4.34 -10.68 0.28 -0.74c0.81,-1.98 2.1,-2.97 3.89,-2.97 0.74,0 1.37,0.24 1.91,0.73 0.53,0.5 0.8,1.09 0.8,1.77 0,0.57 -0.24,1.42 -0.71,2.58l-3.78 9.34zm3.46 -22.82c1.02,0 1.88,0.36 2.59,1.07 0.71,0.71 1.07,1.57 1.07,2.59 0,1.02 -0.36,1.88 -1.07,2.59 -0.71,0.71 -1.57,1.07 -2.59,1.07 -1.02,0 -1.88,-0.36 -2.59,-1.07 -0.71,-0.71 -1.07,-1.58 -1.07,-2.59 0,-1.02 0.36,-1.88 1.07,-2.59 0.71,-0.71 1.58,-1.07 2.59,-1.07zm9.36 19.26l6.1 -8.28 0.48 -0.71c1.01,-1.46 2.15,-2.2 3.42,-2.2 0.83,0 1.5,0.26 2.03,0.77 0.53,0.52 0.79,1.18 0.79,1.98 0,0.88 -0.53,2 -1.58,3.36l-9.72 12.58c-1.08,1.42 -2.37,2.13 -3.84,2.13 -1.24,0 -2.23,-0.43 -2.94,-1.3 -0.72,-0.87 -1.08,-2.06 -1.08,-3.57 0,-0.31 0.01,-0.56 0.02,-0.76l0.95 -10.5c0.12,-1.42 0.5,-2.5 1.14,-3.25 0.64,-0.74 1.51,-1.12 2.59,-1.12 1.67,0 2.5,0.84 2.5,2.53 0,0.24 -0.04,0.66 -0.11,1.25l-0.76 7.08zm41.91 3.56l3 0c2.23,0 3.34,0.78 3.34,2.33 0,1.06 -0.4,1.89 -1.18,2.49 -0.79,0.59 -1.88,0.89 -3.26,0.89l-3.54 0c-1.37,0 -2.37,-0.57 -3,-1.68 -1.12,1.12 -2.32,1.68 -3.6,1.68l-3.34 0c-1.94,0 -3.5,-0.66 -4.66,-1.99 -1.16,-1.34 -1.75,-3.1 -1.75,-5.31 0,-3.37 1.15,-6.41 3.46,-9.1 2.3,-2.7 4.89,-4.05 7.76,-4.05 2.12,0 3.81,0.75 5.08,2.25l5.85 -14.35c1,-2.45 2.39,-3.67 4.17,-3.67 0.76,0 1.39,0.24 1.91,0.73 0.53,0.48 0.79,1.07 0.79,1.77 0,0.55 -0.13,1.16 -0.4,1.84l-0.31 0.72 -10.3 25.46zm-9.61 0.11l0.99 0c1.21,0 2.01,-0.48 2.39,-1.45l1.97 -4.83c0.24,-0.59 0.37,-1.05 0.37,-1.36 0,-0.52 -0.22,-0.97 -0.66,-1.34 -0.45,-0.37 -1,-0.54 -1.67,-0.54 -1.36,0 -2.63,0.76 -3.81,2.28 -1.18,1.52 -1.77,3.16 -1.77,4.92 0,1.55 0.73,2.33 2.19,2.33zm33.87 -0.11l2.9 0c2.22,0 3.33,0.77 3.33,2.3 0,1.06 -0.39,1.89 -1.18,2.49 -0.8,0.6 -1.88,0.9 -3.27,0.9l-3.36 0c-1.51,0 -2.54,-0.58 -3.08,-1.76 -1.32,1.18 -2.58,1.76 -3.81,1.76l-3 0c-1.93,0 -3.49,-0.69 -4.68,-2.06 -1.19,-1.37 -1.78,-3.17 -1.78,-5.39 0,-3.37 1.16,-6.37 3.49,-9.03 2.33,-2.64 4.95,-3.97 7.88,-3.97 2.25,0 3.89,0.76 4.93,2.3 0.88,-1.32 2.03,-1.97 3.44,-1.97 0.77,0 1.41,0.24 1.93,0.73 0.51,0.5 0.77,1.1 0.77,1.82 0,0.5 -0.14,1.09 -0.42,1.77l-0.29 0.71 -3.79 9.39zm-9.54 0.11l0.66 0c1.45,0 2.4,-0.59 2.88,-1.77l1.85 -4.55c0.24,-0.6 0.37,-1.09 0.37,-1.5 0,-0.48 -0.23,-0.89 -0.7,-1.24 -0.47,-0.35 -1.03,-0.53 -1.68,-0.53 -1.29,0 -2.55,0.74 -3.76,2.23 -1.22,1.5 -1.83,3.04 -1.83,4.63 0,1.8 0.74,2.71 2.22,2.71zm33.71 -0.11l3 0c2.23,0 3.34,0.78 3.34,2.33 0,1.06 -0.4,1.89 -1.18,2.49 -0.79,0.59 -1.88,0.89 -3.26,0.89l-3.54 0c-1.37,0 -2.37,-0.57 -3,-1.68 -1.12,1.12 -2.32,1.68 -3.6,1.68l-3.34 0c-1.94,0 -3.5,-0.66 -4.66,-1.99 -1.16,-1.34 -1.75,-3.1 -1.75,-5.31 0,-3.37 1.15,-6.41 3.46,-9.1 2.3,-2.7 4.89,-4.05 7.76,-4.05 2.12,0 3.81,0.75 5.08,2.25l5.85 -14.35c1,-2.45 2.39,-3.67 4.17,-3.67 0.76,0 1.39,0.24 1.91,0.73 0.53,0.48 0.79,1.07 0.79,1.77 0,0.55 -0.13,1.16 -0.4,1.84l-0.31 0.72 -10.3 25.46zm-9.61 0.11l0.99 0c1.21,0 2.01,-0.48 2.39,-1.45l1.97 -4.83c0.24,-0.59 0.37,-1.05 0.37,-1.36 0,-0.52 -0.22,-0.97 -0.66,-1.34 -0.45,-0.37 -1,-0.54 -1.67,-0.54 -1.36,0 -2.63,0.76 -3.81,2.28 -1.18,1.52 -1.77,3.16 -1.77,4.92 0,1.55 0.73,2.33 2.19,2.33zm-159.43 -2.1c0,1.33 0.99,1.99 2.97,1.99l7.8 0c2.22,0 3.32,0.78 3.32,2.33 0,1.06 -0.4,1.89 -1.18,2.49 -0.78,0.59 -1.87,0.89 -3.27,0.89l-7.43 0c-2.78,0 -4.89,-0.68 -6.34,-2.04 -1.44,-1.36 -2.17,-3.36 -2.17,-5.99 0,-3.37 1.14,-6.29 3.43,-8.74 2.29,-2.45 5.01,-3.68 8.16,-3.68 2.3,0 4.15,0.6 5.54,1.8 1.39,1.2 2.09,2.78 2.09,4.74 0,2.36 -0.96,4.11 -2.89,5.25 -1.06,0.64 -2.66,0.97 -4.76,0.97l-5.26 0zm1.26 -4.79l2.89 0c1.88,0 2.79,-0.4 2.74,-1.21 -0.05,-0.92 -0.65,-1.37 -1.81,-1.37 -1.61,0 -2.88,0.86 -3.81,2.58zm95.11 6.78l2.97 0c2.2,0 3.29,0.78 3.29,2.33 0,1.06 -0.38,1.89 -1.16,2.49 -0.77,0.59 -1.86,0.89 -3.26,0.89l-4.18 0c-1.54,0 -2.75,-0.31 -3.63,-0.95 -0.89,-0.63 -1.33,-1.49 -1.33,-2.58 0,-0.58 0.19,-1.32 0.56,-2.2l4.34 -10.68 0.28 -0.74c0.81,-1.98 2.1,-2.97 3.89,-2.97 0.74,0 1.37,0.24 1.91,0.73 0.53,0.5 0.8,1.09 0.8,1.77 0,0.57 -0.24,1.42 -0.71,2.58l-3.78 9.34zm3.46 -22.82c1.02,0 1.88,0.36 2.59,1.07 0.71,0.71 1.07,1.57 1.07,2.59 0,1.02 -0.36,1.88 -1.07,2.59 -0.71,0.71 -1.57,1.07 -2.59,1.07 -1.02,0 -1.88,-0.36 -2.59,-1.07 -0.71,-0.71 -1.07,-1.58 -1.07,-2.59 0,-1.02 0.36,-1.88 1.07,-2.59 0.71,-0.71 1.58,-1.07 2.59,-1.07z"/>
  <path class="fil0" d="M457.44 610.3l-7.28 0 -8.7 15.07c-4.1,7.14 -8.96,10.71 -14.58,10.71 -3.46,0 -6.35,-1.24 -8.69,-3.72 -2.34,-2.49 -3.51,-5.56 -3.51,-9.22 0,-2.98 0.91,-5.86 2.71,-8.62 1.8,-2.76 4.27,-5.06 7.38,-6.88 2.33,-1.34 4.92,-2.27 7.76,-2.81 2.84,-0.55 6.61,-0.82 11.33,-0.82l1.95 0 2.07 -3.81c2.9,-5.31 6.42,-8.85 10.59,-10.62 2.68,-1.14 6.19,-1.71 10.51,-1.71 1.1,0 1.97,0.24 2.6,0.73 0.64,0.5 0.95,1.18 0.95,2.06 0,0.4 -0.11,0.87 -0.31,1.42l-0.24 0.6 -4.52 11.33 2 0 0.68 0c1.96,0 2.93,0.85 2.93,2.56 0,1.03 -0.4,1.92 -1.21,2.65 -0.8,0.73 -1.77,1.09 -2.93,1.09l-0.71 0 -3.31 0 -2.92 7.16 4.29 0 0.68 0c1.97,0 2.94,0.84 2.94,2.53 0,1.05 -0.4,1.95 -1.21,2.68 -0.81,0.73 -1.78,1.09 -2.94,1.09l-0.71 0 -5.62 0c-1.51,0 -2.74,-0.38 -3.69,-1.16 -0.96,-0.78 -1.44,-1.8 -1.44,-3.04 0,-0.96 0.36,-2.33 1.08,-4.1l2.08 -5.15zm2.58 -6.3l3.78 -9.34c-1.86,0.12 -3.43,0.71 -4.69,1.78 -1.27,1.06 -2.72,2.98 -4.35,5.77l-1.08 1.78 6.33 0zm-17.82 6.3l-2.23 0c-5,0 -8.98,0.93 -11.93,2.79 -1.88,1.19 -3.37,2.68 -4.48,4.47 -1.11,1.8 -1.67,3.6 -1.67,5.42 0,1.67 0.54,3.1 1.6,4.28 1.07,1.18 2.36,1.78 3.89,1.78 2.65,0 4.99,-1.76 7.01,-5.26l7.8 -13.47zm24.75 7.75l3.05 0c1.21,0 2.07,0.18 2.58,0.54 0.51,0.36 0.76,0.94 0.76,1.77 0,1.06 -0.4,1.89 -1.18,2.49 -0.78,0.6 -1.87,0.9 -3.27,0.9l-4.71 0c-1.47,0 -2.45,-0.57 -2.94,-1.71 -0.96,1.14 -2.17,1.71 -3.62,1.71l-3.84 0c-1.54,0 -2.81,-0.48 -3.83,-1.44 -1.02,-0.96 -1.52,-2.18 -1.52,-3.65 0,-0.83 0.22,-1.82 0.68,-2.94l3.56 -8.76c0.99,-2.43 2.36,-3.65 4.09,-3.65 0.76,0 1.39,0.24 1.91,0.73 0.53,0.47 0.79,1.07 0.79,1.77 0,0.53 -0.14,1.13 -0.41,1.81l-0.3 0.71 -2.74 6.75 -0.28 0.78c-0.16,0.46 -0.24,0.8 -0.26,1.02 -0.04,0.78 0.48,1.18 1.52,1.18 2.17,0 3.62,-0.88 4.34,-2.63l3.28 -8.11c0.98,-2.46 2.37,-3.69 4.15,-3.69 0.74,0 1.36,0.24 1.89,0.73 0.53,0.5 0.79,1.09 0.79,1.77 0,0.55 -0.22,1.39 -0.68,2.53l-3.83 9.39zm22.65 -14.42l0.82 0c2.22,0 3.33,0.78 3.33,2.35 0,1.08 -0.4,1.91 -1.19,2.51 -0.78,0.6 -1.86,0.9 -3.25,0.9l-1.92 0 -3.52 8.67 2.94 0c2.22,0 3.32,0.78 3.32,2.33 0,1.06 -0.38,1.89 -1.16,2.49 -0.77,0.59 -1.87,0.89 -3.26,0.89l-4.71 0c-1.33,0 -2.38,-0.31 -3.16,-0.92 -0.78,-0.61 -1.17,-1.45 -1.17,-2.49 0,-0.65 0.16,-1.36 0.48,-2.16l0.49 -1.15 3.1 -7.64 -0.4 0c-1.98,0 -2.97,-0.76 -2.97,-2.29 0,-1.1 0.4,-1.95 1.18,-2.55 0.79,-0.61 1.88,-0.91 3.29,-0.91l1.21 0 1.39 -3.44 0.3 -0.71c0.82,-1.94 2.12,-2.91 3.89,-2.91 0.72,0 1.34,0.24 1.85,0.72 0.52,0.48 0.78,1.07 0.78,1.75 0,0.66 -0.24,1.5 -0.69,2.51l-0.98 2.07zm15.76 -0.32c2.54,0 4.63,0.81 6.26,2.41 1.64,1.62 2.46,3.66 2.46,6.14 0,1.87 -0.43,3.73 -1.28,5.58 -0.86,1.85 -1.97,3.32 -3.34,4.42 -0.92,0.72 -1.86,1.21 -2.82,1.49 -0.97,0.27 -2.33,0.4 -4.08,0.4 -2.86,0 -4.78,-0.34 -5.78,-1.02 -2.34,-1.61 -3.52,-3.99 -3.52,-7.14 0,-3.33 1.2,-6.21 3.6,-8.64 2.4,-2.43 5.24,-3.65 8.51,-3.65zm-0.63 5.6c-1.29,0 -2.47,0.64 -3.53,1.92 -1.07,1.28 -1.6,2.69 -1.6,4.24 0,2.03 1.13,3.05 3.4,3.05 1.33,0 2.34,-0.41 3.06,-1.24 1.18,-1.35 1.77,-2.89 1.77,-4.63 0,-1 -0.28,-1.8 -0.86,-2.41 -0.58,-0.62 -1.33,-0.93 -2.25,-0.93zm29.14 9.15l3.16 0c2.22,0 3.32,0.78 3.32,2.33 0,1.06 -0.4,1.89 -1.18,2.49 -0.79,0.59 -1.87,0.89 -3.25,0.89l-5.49 0c-1.08,0 -1.98,-0.32 -2.72,-0.97 -0.73,-0.66 -1.1,-1.47 -1.1,-2.45 0,-0.59 0.25,-1.49 0.74,-2.68l2.35 -5.73c0.25,-0.59 0.38,-1.08 0.41,-1.45 0.02,-0.42 -0.15,-0.78 -0.51,-1.08 -0.36,-0.3 -0.83,-0.45 -1.38,-0.45 -1.81,0 -3.27,1.36 -4.38,4.07l-3.1 7.63c-0.93,2.32 -2.32,3.47 -4.16,3.47 -0.76,0 -1.4,-0.22 -1.93,-0.68 -0.53,-0.46 -0.79,-1.02 -0.79,-1.68 0,-0.49 0.14,-1.08 0.42,-1.77l0.29 -0.71 5.31 -13.1c0.69,-1.7 1.85,-2.55 3.5,-2.55 1.36,0 2.32,0.6 2.9,1.79 1.87,-1.41 3.67,-2.12 5.36,-2.12 1.65,0 3.01,0.47 4.08,1.42 1.07,0.95 1.61,2.15 1.61,3.6 0,0.81 -0.2,1.68 -0.58,2.65l-2.88 7.07zm18.56 -14.75c2.54,0 4.63,0.81 6.26,2.41 1.64,1.62 2.46,3.66 2.46,6.14 0,1.87 -0.43,3.73 -1.28,5.58 -0.86,1.85 -1.97,3.32 -3.34,4.42 -0.92,0.72 -1.86,1.21 -2.82,1.49 -0.97,0.27 -2.33,0.4 -4.08,0.4 -2.86,0 -4.78,-0.34 -5.78,-1.02 -2.34,-1.61 -3.52,-3.99 -3.52,-7.14 0,-3.33 1.2,-6.21 3.6,-8.64 2.4,-2.43 5.24,-3.65 8.51,-3.65zm-0.63 5.6c-1.29,0 -2.47,0.64 -3.53,1.92 -1.07,1.28 -1.6,2.69 -1.6,4.24 0,2.03 1.13,3.05 3.4,3.05 1.33,0 2.34,-0.41 3.06,-1.24 1.18,-1.35 1.77,-2.89 1.77,-4.63 0,-1 -0.28,-1.8 -0.86,-2.41 -0.58,-0.62 -1.33,-0.93 -2.25,-0.93zm41.28 9.15l3.12 0c2.22,0 3.32,0.78 3.32,2.33 0,1.06 -0.38,1.89 -1.16,2.49 -0.78,0.59 -1.87,0.89 -3.26,0.89l-5.33 0c-1.15,0 -2.08,-0.31 -2.8,-0.92 -0.71,-0.62 -1.07,-1.42 -1.07,-2.42 0,-0.68 0.23,-1.6 0.7,-2.78l2.43 -6.01c0.14,-0.35 0.21,-0.67 0.21,-0.97 0,-1.14 -0.57,-1.71 -1.73,-1.71 -0.89,0 -1.78,0.41 -2.65,1.21 -0.87,0.8 -1.57,1.87 -2.1,3.2l-2.94 7.25c-0.96,2.34 -2.36,3.52 -4.2,3.52 -0.72,0 -1.33,-0.24 -1.83,-0.71 -0.51,-0.48 -0.76,-1.03 -0.76,-1.68 0,-0.51 0.14,-1.1 0.4,-1.78l0.29 -0.72 2.96 -7.32c0.26,-0.65 0.4,-1.16 0.4,-1.52 0,-0.39 -0.18,-0.73 -0.53,-1.02 -0.35,-0.28 -0.76,-0.43 -1.23,-0.43 -1.89,0 -3.4,1.36 -4.5,4.1l-3.08 7.53c-0.96,2.36 -2.36,3.54 -4.18,3.54 -0.72,0 -1.34,-0.24 -1.86,-0.7 -0.51,-0.47 -0.77,-1.03 -0.77,-1.7 0,-0.53 0.14,-1.12 0.4,-1.79l0.28 -0.71 5.24 -12.9c0.73,-1.8 1.84,-2.71 3.31,-2.71 1.52,0 2.46,0.72 2.84,2.16 1.18,-1 2.15,-1.67 2.9,-1.99 0.74,-0.33 1.66,-0.49 2.75,-0.49 2.35,0 4.11,1.01 5.28,3.04 1.96,-2.03 4.17,-3.04 6.62,-3.04 1.68,0 3.08,0.48 4.21,1.46 1.13,0.97 1.7,2.16 1.7,3.59 0,0.89 -0.19,1.81 -0.57,2.75l-2.8 6.94zm13.67 0l2.97 0c2.2,0 3.29,0.78 3.29,2.33 0,1.06 -0.38,1.89 -1.16,2.49 -0.77,0.59 -1.86,0.89 -3.26,0.89l-4.18 0c-1.54,0 -2.75,-0.31 -3.63,-0.95 -0.89,-0.63 -1.33,-1.49 -1.33,-2.58 0,-0.58 0.19,-1.32 0.56,-2.2l4.34 -10.68 0.28 -0.74c0.81,-1.98 2.1,-2.97 3.89,-2.97 0.74,0 1.37,0.24 1.91,0.73 0.53,0.5 0.8,1.09 0.8,1.77 0,0.57 -0.24,1.42 -0.71,2.58l-3.78 9.34zm7.73 -19.89l-3.25 2.55c-0.77,0.62 -1.44,0.93 -2,0.93 -0.47,0 -0.9,-0.18 -1.26,-0.54 -0.37,-0.36 -0.56,-0.78 -0.56,-1.25 0,-0.2 0.04,-0.38 0.11,-0.56l0.21 -0.52 1 -2.63c0.44,-1.16 1.26,-1.74 2.45,-1.74l1.52 0c1.78,0 2.67,0.69 2.67,2.08 0,0.65 -0.3,1.21 -0.9,1.68zm16.41 19.89l2.9 0c2.22,0 3.33,0.77 3.33,2.3 0,1.06 -0.39,1.89 -1.18,2.49 -0.8,0.6 -1.88,0.9 -3.27,0.9l-3.36 0c-1.51,0 -2.54,-0.58 -3.08,-1.76 -1.32,1.18 -2.58,1.76 -3.81,1.76l-3 0c-1.93,0 -3.49,-0.69 -4.68,-2.06 -1.19,-1.37 -1.78,-3.17 -1.78,-5.39 0,-3.37 1.16,-6.37 3.49,-9.03 2.33,-2.64 4.95,-3.97 7.88,-3.97 2.25,0 3.89,0.76 4.93,2.3 0.88,-1.32 2.03,-1.97 3.44,-1.97 0.77,0 1.41,0.24 1.93,0.73 0.51,0.5 0.77,1.1 0.77,1.82 0,0.5 -0.14,1.09 -0.42,1.77l-0.29 0.71 -3.79 9.39zm-9.54 0.11l0.66 0c1.45,0 2.4,-0.59 2.88,-1.77l1.85 -4.55c0.24,-0.6 0.37,-1.09 0.37,-1.5 0,-0.48 -0.23,-0.89 -0.7,-1.24 -0.47,-0.35 -1.03,-0.53 -1.68,-0.53 -1.29,0 -2.55,0.74 -3.76,2.23 -1.22,1.5 -1.83,3.04 -1.83,4.63 0,1.8 0.74,2.71 2.22,2.71z"/>
  <path class="fil0" d="M1015.2 608.93l5.54 13.19c0.73,1.7 1.66,2.55 2.82,2.55l1.05 -0.05 10.99 0c2.42,0 3.62,0.82 3.62,2.48 0,1.21 -0.42,2.15 -1.26,2.81 -0.84,0.67 -2.03,1 -3.59,1l-12.12 0c-3.33,0 -5.63,-1.58 -6.93,-4.73l-7.6 -18.29 -3.52 8.68c-1.69,4.16 -2.88,6.97 -3.59,8.44 -0.71,1.46 -1.54,2.81 -2.46,4.06 -3.35,4.53 -7.56,6.79 -12.65,6.79 -3.69,0 -6.69,-1.16 -8.99,-3.47 -2.29,-2.32 -3.44,-5.35 -3.44,-9.1 0,-4.9 1.8,-9.2 5.42,-12.92 1.95,-1.98 4.38,-3.58 7.32,-4.8 2.92,-1.22 5.83,-1.83 8.71,-1.83 1.36,0 2.48,0.31 3.33,0.93 0.85,0.63 1.28,1.44 1.28,2.44 0,1.08 -0.46,1.96 -1.37,2.6 -0.52,0.37 -1.54,0.63 -3.05,0.79 -3.52,0.32 -6.33,1.11 -8.46,2.4 -1.8,1.08 -3.2,2.49 -4.24,4.21 -1.03,1.71 -1.55,3.52 -1.55,5.39 0,1.98 0.5,3.55 1.52,4.7 1,1.15 2.38,1.72 4.11,1.72 2.14,0 4,-0.9 5.57,-2.71 1.57,-1.8 3.29,-5.02 5.16,-9.62l9.09 -22.43 -2.71 0c-2.43,0 -3.64,-0.84 -3.64,-2.5 0,-1.21 0.42,-2.14 1.26,-2.81 0.84,-0.66 2.05,-0.99 3.59,-0.99l8.73 0c2.28,0 3.95,0.14 5,0.4 1.07,0.26 2.08,0.81 3.07,1.63 2.03,1.7 3.05,4.09 3.05,7.17 0,2.8 -0.83,5.29 -2.49,7.48 -1.66,2.18 -3.85,3.64 -6.56,4.4zm-5.91 -4.94l0.77 -0.05c2.01,-0.12 3.51,-0.5 4.5,-1.15 1.91,-1.25 2.86,-2.91 2.86,-5.01 0,-2.41 -1.18,-3.62 -3.52,-3.62l-0.59 0 -4.02 9.84zm0.97 12.06c0,1.33 0.99,1.99 2.97,1.99l7.8 0c2.22,0 3.32,0.78 3.32,2.33 0,1.06 -0.4,1.89 -1.18,2.49 -0.78,0.59 -1.87,0.89 -3.27,0.89l-7.43 0c-2.78,0 -4.89,-0.68 -6.34,-2.04 -1.44,-1.36 -2.17,-3.36 -2.17,-5.99 0,-3.37 1.14,-6.29 3.43,-8.74 2.29,-2.45 5.01,-3.68 8.16,-3.68 2.3,0 4.15,0.6 5.54,1.8 1.39,1.2 2.09,2.78 2.09,4.74 0,2.36 -0.96,4.11 -2.89,5.25 -1.06,0.64 -2.66,0.97 -4.76,0.97l-5.26 0zm1.26 -4.79l2.89 0c1.88,0 2.79,-0.4 2.74,-1.21 -0.05,-0.92 -0.65,-1.37 -1.81,-1.37 -1.61,0 -2.88,0.86 -3.81,2.58zm21.5 -0.45l-0.5 1.22c-0.77,1.75 -1.87,2.62 -3.29,2.62 -0.73,0 -1.37,-0.25 -1.94,-0.76 -0.57,-0.49 -0.86,-1.07 -0.86,-1.72 0,-0.61 0.25,-1.43 0.76,-2.45l3.49 -7.1c0.86,-1.7 1.93,-2.56 3.21,-2.56 0.68,0 1.26,0.22 1.76,0.67 0.49,0.45 0.73,0.98 0.73,1.59 0,0.16 -0.05,0.5 -0.16,1.02 -0.07,0.38 -0.11,0.73 -0.11,1.03 0,1.1 0.41,2.23 1.25,3.38l1.51 2.08c1.53,2.12 2.3,4.17 2.3,6.15 0,2.21 -0.83,4.05 -2.48,5.53 -1.64,1.48 -3.7,2.22 -6.15,2.22l-5.49 0c-2.22,0 -3.32,-0.77 -3.32,-2.3 0,-1.06 0.4,-1.89 1.18,-2.49 0.79,-0.6 1.86,-0.9 3.25,-0.9l3.05 0c2.45,0 3.67,-0.89 3.67,-2.66 0,-0.65 -0.23,-1.42 -0.69,-2.3l-1.16 -2.27zm14.66 10.88l-6.85 16.86c-0.95,2.32 -2.33,3.49 -4.15,3.49 -0.7,0 -1.3,-0.24 -1.8,-0.7 -0.49,-0.46 -0.74,-1.01 -0.74,-1.67 0,-0.54 0.22,-1.36 0.66,-2.46l12.66 -31.22c0.65,-1.58 1.77,-2.37 3.37,-2.37 1.1,0 1.98,0.53 2.63,1.58 1.23,-1.26 2.73,-1.9 4.5,-1.9 1.84,0 3.33,0.7 4.47,2.09 1.13,1.39 1.7,3.22 1.7,5.5 0,4.31 -1.34,7.81 -4.03,10.52 -0.88,0.9 -1.78,1.51 -2.71,1.84 -0.93,0.33 -2.23,0.5 -3.89,0.5 -1.8,0 -3.02,-0.12 -3.7,-0.37 -0.67,-0.24 -1.37,-0.81 -2.09,-1.69zm2.15 -5.36c0.44,0.76 0.86,1.25 1.26,1.48 0.4,0.22 1.02,0.34 1.88,0.34 1.24,0 2.21,-0.47 2.91,-1.4 1.42,-1.87 2.13,-3.8 2.13,-5.78 0,-1.71 -0.81,-2.56 -2.42,-2.56 -1.77,0 -3.04,1.03 -3.82,3.08 -0.08,0.24 -0.15,0.42 -0.21,0.58l-1.74 4.25zm26.73 -13.03c2.54,0 4.63,0.81 6.26,2.41 1.64,1.62 2.46,3.66 2.46,6.14 0,1.87 -0.43,3.73 -1.28,5.58 -0.86,1.85 -1.97,3.32 -3.34,4.42 -0.92,0.72 -1.86,1.21 -2.82,1.49 -0.97,0.27 -2.33,0.4 -4.08,0.4 -2.86,0 -4.78,-0.34 -5.78,-1.02 -2.34,-1.61 -3.52,-3.99 -3.52,-7.14 0,-3.33 1.2,-6.21 3.6,-8.64 2.4,-2.43 5.24,-3.65 8.51,-3.65zm-0.63 5.6c-1.29,0 -2.47,0.64 -3.53,1.92 -1.07,1.28 -1.6,2.69 -1.6,4.24 0,2.03 1.13,3.05 3.4,3.05 1.33,0 2.34,-0.41 3.06,-1.24 1.18,-1.35 1.77,-2.89 1.77,-4.63 0,-1 -0.28,-1.8 -0.86,-2.41 -0.58,-0.62 -1.33,-0.93 -2.25,-0.93zm29.14 9.15l3.16 0c2.22,0 3.32,0.78 3.32,2.33 0,1.06 -0.4,1.89 -1.18,2.49 -0.79,0.59 -1.87,0.89 -3.25,0.89l-5.49 0c-1.08,0 -1.98,-0.32 -2.72,-0.97 -0.73,-0.66 -1.1,-1.47 -1.1,-2.45 0,-0.59 0.25,-1.49 0.74,-2.68l2.35 -5.73c0.25,-0.59 0.38,-1.08 0.41,-1.45 0.02,-0.42 -0.15,-0.78 -0.51,-1.08 -0.36,-0.3 -0.83,-0.45 -1.38,-0.45 -1.81,0 -3.27,1.36 -4.38,4.07l-3.1 7.63c-0.93,2.32 -2.32,3.47 -4.16,3.47 -0.76,0 -1.4,-0.22 -1.93,-0.68 -0.53,-0.46 -0.79,-1.02 -0.79,-1.68 0,-0.49 0.14,-1.08 0.42,-1.77l0.29 -0.71 5.31 -13.1c0.69,-1.7 1.85,-2.55 3.5,-2.55 1.36,0 2.32,0.6 2.9,1.79 1.87,-1.41 3.67,-2.12 5.36,-2.12 1.65,0 3.01,0.47 4.08,1.42 1.07,0.95 1.61,2.15 1.61,3.6 0,0.81 -0.2,1.68 -0.58,2.65l-2.88 7.07zm15.14 -7.23l-0.5 1.22c-0.77,1.75 -1.87,2.62 -3.29,2.62 -0.73,0 -1.37,-0.25 -1.94,-0.76 -0.57,-0.49 -0.86,-1.07 -0.86,-1.72 0,-0.61 0.25,-1.43 0.76,-2.45l3.49 -7.1c0.86,-1.7 1.93,-2.56 3.21,-2.56 0.68,0 1.26,0.22 1.76,0.67 0.49,0.45 0.73,0.98 0.73,1.59 0,0.16 -0.05,0.5 -0.16,1.02 -0.07,0.38 -0.11,0.73 -0.11,1.03 0,1.1 0.41,2.23 1.25,3.38l1.51 2.08c1.53,2.12 2.3,4.17 2.3,6.15 0,2.21 -0.83,4.05 -2.48,5.53 -1.64,1.48 -3.7,2.22 -6.15,2.22l-5.49 0c-2.22,0 -3.32,-0.77 -3.32,-2.3 0,-1.06 0.4,-1.89 1.18,-2.49 0.79,-0.6 1.86,-0.9 3.25,-0.9l3.05 0c2.45,0 3.67,-0.89 3.67,-2.66 0,-0.65 -0.23,-1.42 -0.69,-2.3l-1.16 -2.27zm22 -7.19c0.78,-0.22 1.48,-0.32 2.1,-0.32 2.03,0 3.68,0.75 4.93,2.27 1.26,1.52 1.89,3.48 1.89,5.89 0,4.67 -1.8,8.32 -5.41,10.92 -1.26,0.91 -2.58,1.36 -3.94,1.36l-2.5 0c-1.73,0 -3.21,-0.62 -4.44,-1.87 -0.73,1.25 -1.88,1.87 -3.45,1.87 -0.76,0 -1.39,-0.24 -1.91,-0.73 -0.53,-0.5 -0.79,-1.09 -0.79,-1.79 0,-0.53 0.14,-1.14 0.42,-1.82l0.29 -0.71 10.99 -27.17 0.29 -0.73c0.83,-1.97 2.09,-2.94 3.8,-2.94 0.79,0 1.44,0.24 1.98,0.73 0.53,0.47 0.8,1.07 0.8,1.77 0,0.55 -0.14,1.15 -0.42,1.82l-0.29 0.74 -4.34 10.72zm-5.23 12.89c0.87,1.13 1.9,1.7 3.07,1.7 0.84,0 1.55,-0.24 2.14,-0.71 0.81,-0.64 1.51,-1.61 2.12,-2.88 0.6,-1.28 0.9,-2.42 0.9,-3.43 0,-0.79 -0.22,-1.43 -0.68,-1.93 -0.46,-0.49 -1.06,-0.74 -1.8,-0.74 -1.67,0 -3,1.23 -4,3.69l-1.76 4.31zm21.78 1.54l2.97 0c2.2,0 3.29,0.78 3.29,2.33 0,1.06 -0.38,1.89 -1.16,2.49 -0.77,0.59 -1.86,0.89 -3.26,0.89l-4.18 0c-1.54,0 -2.75,-0.31 -3.63,-0.95 -0.89,-0.63 -1.33,-1.49 -1.33,-2.58 0,-0.58 0.19,-1.32 0.56,-2.2l4.34 -10.68 0.28 -0.74c0.81,-1.98 2.1,-2.97 3.89,-2.97 0.74,0 1.37,0.24 1.91,0.73 0.53,0.5 0.8,1.09 0.8,1.77 0,0.57 -0.24,1.42 -0.71,2.58l-3.78 9.34zm3.46 -22.82c1.02,0 1.88,0.36 2.59,1.07 0.71,0.71 1.07,1.57 1.07,2.59 0,1.02 -0.36,1.88 -1.07,2.59 -0.71,0.71 -1.57,1.07 -2.59,1.07 -1.02,0 -1.88,-0.36 -2.59,-1.07 -0.71,-0.71 -1.07,-1.58 -1.07,-2.59 0,-1.02 0.36,-1.88 1.07,-2.59 0.71,-0.71 1.58,-1.07 2.59,-1.07zm9.78 22.82l2.75 0c2.22,0 3.33,0.78 3.33,2.33 0,1.06 -0.38,1.89 -1.16,2.49 -0.78,0.59 -1.87,0.89 -3.27,0.89l-4.73 0c-1.29,0 -2.3,-0.31 -3.06,-0.92 -0.74,-0.61 -1.12,-1.44 -1.12,-2.47 0,-0.54 0.25,-1.44 0.76,-2.71l10.58 -26.14 0.28 -0.72c0.81,-1.97 2.09,-2.94 3.86,-2.94 0.74,0 1.35,0.24 1.87,0.73 0.51,0.5 0.77,1.08 0.77,1.77 0,0.52 -0.14,1.12 -0.4,1.79l-0.28 0.72 -10.2 25.19zm13.48 0l2.97 0c2.2,0 3.29,0.78 3.29,2.33 0,1.06 -0.38,1.89 -1.16,2.49 -0.77,0.59 -1.86,0.89 -3.26,0.89l-4.18 0c-1.54,0 -2.75,-0.31 -3.63,-0.95 -0.89,-0.63 -1.33,-1.49 -1.33,-2.58 0,-0.58 0.19,-1.32 0.56,-2.2l4.34 -10.68 0.28 -0.74c0.81,-1.98 2.1,-2.97 3.89,-2.97 0.74,0 1.37,0.24 1.91,0.73 0.53,0.5 0.8,1.09 0.8,1.77 0,0.57 -0.24,1.42 -0.71,2.58l-3.78 9.34zm3.46 -22.82c1.02,0 1.88,0.36 2.59,1.07 0.71,0.71 1.07,1.57 1.07,2.59 0,1.02 -0.36,1.88 -1.07,2.59 -0.71,0.71 -1.57,1.07 -2.59,1.07 -1.02,0 -1.88,-0.36 -2.59,-1.07 -0.71,-0.71 -1.07,-1.58 -1.07,-2.59 0,-1.02 0.36,-1.88 1.07,-2.59 0.71,-0.71 1.58,-1.07 2.59,-1.07zm20.79 22.82l3 0c2.23,0 3.34,0.78 3.34,2.33 0,1.06 -0.4,1.89 -1.18,2.49 -0.79,0.59 -1.88,0.89 -3.26,0.89l-3.54 0c-1.37,0 -2.37,-0.57 -3,-1.68 -1.12,1.12 -2.32,1.68 -3.6,1.68l-3.34 0c-1.94,0 -3.5,-0.66 -4.66,-1.99 -1.16,-1.34 -1.75,-3.1 -1.75,-5.31 0,-3.37 1.15,-6.41 3.46,-9.1 2.3,-2.7 4.89,-4.05 7.76,-4.05 2.12,0 3.81,0.75 5.08,2.25l5.85 -14.35c1,-2.45 2.39,-3.67 4.17,-3.67 0.76,0 1.39,0.24 1.91,0.73 0.53,0.48 0.79,1.07 0.79,1.77 0,0.55 -0.13,1.16 -0.4,1.84l-0.31 0.72 -10.3 25.46zm-9.61 0.11l0.99 0c1.21,0 2.01,-0.48 2.39,-1.45l1.97 -4.83c0.24,-0.59 0.37,-1.05 0.37,-1.36 0,-0.52 -0.22,-0.97 -0.66,-1.34 -0.45,-0.37 -1,-0.54 -1.67,-0.54 -1.36,0 -2.63,0.76 -3.81,2.28 -1.18,1.52 -1.77,3.16 -1.77,4.92 0,1.55 0.73,2.33 2.19,2.33zm33.87 -0.11l2.9 0c2.22,0 3.33,0.77 3.33,2.3 0,1.06 -0.39,1.89 -1.18,2.49 -0.8,0.6 -1.88,0.9 -3.27,0.9l-3.36 0c-1.51,0 -2.54,-0.58 -3.08,-1.76 -1.32,1.18 -2.58,1.76 -3.81,1.76l-3 0c-1.93,0 -3.49,-0.69 -4.68,-2.06 -1.19,-1.37 -1.78,-3.17 -1.78,-5.39 0,-3.37 1.16,-6.37 3.49,-9.03 2.33,-2.64 4.95,-3.97 7.88,-3.97 2.25,0 3.89,0.76 4.93,2.3 0.88,-1.32 2.03,-1.97 3.44,-1.97 0.77,0 1.41,0.24 1.93,0.73 0.51,0.5 0.77,1.1 0.77,1.82 0,0.5 -0.14,1.09 -0.42,1.77l-0.29 0.71 -3.79 9.39zm-9.54 0.11l0.66 0c1.45,0 2.4,-0.59 2.88,-1.77l1.85 -4.55c0.24,-0.6 0.37,-1.09 0.37,-1.5 0,-0.48 -0.23,-0.89 -0.7,-1.24 -0.47,-0.35 -1.03,-0.53 -1.68,-0.53 -1.29,0 -2.55,0.74 -3.76,2.23 -1.22,1.5 -1.83,3.04 -1.83,4.63 0,1.8 0.74,2.71 2.22,2.71zm33.71 -0.11l3 0c2.23,0 3.34,0.78 3.34,2.33 0,1.06 -0.4,1.89 -1.18,2.49 -0.79,0.59 -1.88,0.89 -3.26,0.89l-3.54 0c-1.37,0 -2.37,-0.57 -3,-1.68 -1.12,1.12 -2.32,1.68 -3.6,1.68l-3.34 0c-1.94,0 -3.5,-0.66 -4.66,-1.99 -1.16,-1.34 -1.75,-3.1 -1.75,-5.31 0,-3.37 1.15,-6.41 3.46,-9.1 2.3,-2.7 4.89,-4.05 7.76,-4.05 2.12,0 3.81,0.75 5.08,2.25l5.85 -14.35c1,-2.45 2.39,-3.67 4.17,-3.67 0.76,0 1.39,0.24 1.91,0.73 0.53,0.48 0.79,1.07 0.79,1.77 0,0.55 -0.13,1.16 -0.4,1.84l-0.31 0.72 -10.3 25.46zm-9.61 0.11l0.99 0c1.21,0 2.01,-0.48 2.39,-1.45l1.97 -4.83c0.24,-0.59 0.37,-1.05 0.37,-1.36 0,-0.52 -0.22,-0.97 -0.66,-1.34 -0.45,-0.37 -1,-0.54 -1.67,-0.54 -1.36,0 -2.63,0.76 -3.81,2.28 -1.18,1.52 -1.77,3.16 -1.77,4.92 0,1.55 0.73,2.33 2.19,2.33z"/>
  <g id="_2725103522864">
   <path class="fil0" d="M635.73 777.98l5.3 -12.86c0.58,-1.42 1.16,-2.33 1.74,-2.71 0.57,-0.38 1.65,-0.57 3.23,-0.57l13.56 0c2.43,0 3.64,0.83 3.64,2.48 0,1.09 -0.4,2 -1.2,2.72 -0.8,0.73 -1.79,1.1 -2.97,1.1l-0.71 0 -11.19 0 -3.99 9.85 3.28 0 0.68 0c1.98,0 2.97,0.85 2.97,2.56 0,1.03 -0.41,1.92 -1.22,2.65 -0.81,0.73 -1.79,1.09 -2.96,1.09l-0.71 0 -4.59 0 -5.84 14.32 18.16 0 0.68 0c1.96,0 2.94,0.82 2.94,2.48 0,1.09 -0.4,2 -1.19,2.72 -0.8,0.73 -1.78,1.09 -2.95,1.09l-0.71 0 -19.47 0 -0.34 0.74c-1.23,2.74 -2.19,4.67 -2.88,5.78 -0.69,1.1 -1.6,2.18 -2.72,3.22 -2.92,2.69 -6.29,4.04 -10.09,4.04 -3.1,0 -5.65,-0.92 -7.66,-2.77 -2,-1.85 -3.01,-4.19 -3.01,-7.04 0,-1.77 0.43,-3.43 1.28,-4.99 0.86,-1.54 2.03,-2.75 3.5,-3.61 1.91,-1.1 4.5,-1.66 7.75,-1.66l9.3 0 5.83 -14.32 -0.24 0 -0.63 0c-1.97,0 -2.96,-0.86 -2.96,-2.58 0,-1.03 0.4,-1.91 1.21,-2.64 0.81,-0.72 1.8,-1.08 2.95,-1.08l0.72 0 1.5 0zm-10.93 26.91l-6.94 0c-3.42,0 -5.13,1.22 -5.13,3.67 0,1 0.37,1.85 1.14,2.53 0.76,0.67 1.71,1.02 2.83,1.02 1.57,0 3.08,-0.64 4.52,-1.93 1.44,-1.28 2.64,-3.05 3.59,-5.28zm39.49 -20.09l-0.5 1.22c-0.77,1.75 -1.87,2.62 -3.29,2.62 -0.73,0 -1.37,-0.25 -1.94,-0.76 -0.57,-0.49 -0.86,-1.07 -0.86,-1.72 0,-0.61 0.25,-1.43 0.76,-2.45l3.49 -7.1c0.86,-1.7 1.93,-2.56 3.21,-2.56 0.68,0 1.26,0.22 1.76,0.67 0.49,0.45 0.73,0.98 0.73,1.59 0,0.16 -0.05,0.5 -0.16,1.02 -0.07,0.38 -0.11,0.73 -0.11,1.03 0,1.1 0.41,2.23 1.25,3.38l1.51 2.08c1.53,2.12 2.3,4.17 2.3,6.15 0,2.21 -0.83,4.05 -2.48,5.53 -1.64,1.48 -3.7,2.22 -6.15,2.22l-5.49 0c-2.22,0 -3.32,-0.77 -3.32,-2.3 0,-1.06 0.4,-1.89 1.18,-2.49 0.79,-0.6 1.86,-0.9 3.25,-0.9l3.05 0c2.45,0 3.67,-0.89 3.67,-2.66 0,-0.65 -0.23,-1.42 -0.69,-2.3l-1.16 -2.27zm23.17 -7.19l0.82 0c2.22,0 3.33,0.78 3.33,2.35 0,1.08 -0.4,1.91 -1.19,2.51 -0.78,0.6 -1.86,0.9 -3.25,0.9l-1.92 0 -3.52 8.67 2.94 0c2.22,0 3.32,0.78 3.32,2.33 0,1.06 -0.38,1.89 -1.16,2.49 -0.77,0.59 -1.87,0.89 -3.26,0.89l-4.71 0c-1.33,0 -2.38,-0.31 -3.16,-0.92 -0.78,-0.61 -1.17,-1.45 -1.17,-2.49 0,-0.65 0.16,-1.36 0.48,-2.16l0.49 -1.15 3.1 -7.64 -0.4 0c-1.98,0 -2.97,-0.76 -2.97,-2.29 0,-1.1 0.4,-1.95 1.18,-2.55 0.79,-0.61 1.88,-0.91 3.29,-0.91l1.21 0 1.39 -3.44 0.3 -0.71c0.82,-1.94 2.12,-2.91 3.89,-2.91 0.72,0 1.34,0.24 1.85,0.72 0.52,0.48 0.78,1.07 0.78,1.75 0,0.66 -0.24,1.5 -0.69,2.51l-0.98 2.07zm21.58 14.42l3.05 0c1.21,0 2.07,0.18 2.58,0.54 0.51,0.36 0.76,0.94 0.76,1.77 0,1.06 -0.4,1.89 -1.18,2.49 -0.78,0.6 -1.87,0.9 -3.27,0.9l-4.71 0c-1.47,0 -2.45,-0.57 -2.94,-1.71 -0.96,1.14 -2.17,1.71 -3.62,1.71l-3.84 0c-1.54,0 -2.81,-0.48 -3.83,-1.44 -1.02,-0.96 -1.52,-2.18 -1.52,-3.65 0,-0.83 0.22,-1.82 0.68,-2.94l3.56 -8.76c0.99,-2.43 2.36,-3.65 4.09,-3.65 0.76,0 1.39,0.24 1.91,0.73 0.53,0.47 0.79,1.07 0.79,1.77 0,0.53 -0.14,1.13 -0.41,1.81l-0.3 0.71 -2.74 6.75 -0.28 0.78c-0.16,0.46 -0.24,0.8 -0.26,1.02 -0.04,0.78 0.48,1.18 1.52,1.18 2.17,0 3.62,-0.88 4.34,-2.63l3.28 -8.11c0.98,-2.46 2.37,-3.69 4.15,-3.69 0.74,0 1.36,0.24 1.89,0.73 0.53,0.5 0.79,1.09 0.79,1.77 0,0.55 -0.22,1.39 -0.68,2.53l-3.83 9.39zm25.41 0l3 0c2.23,0 3.34,0.78 3.34,2.33 0,1.06 -0.4,1.89 -1.18,2.49 -0.79,0.59 -1.88,0.89 -3.26,0.89l-3.54 0c-1.37,0 -2.37,-0.57 -3,-1.68 -1.12,1.12 -2.32,1.68 -3.6,1.68l-3.34 0c-1.94,0 -3.5,-0.66 -4.66,-1.99 -1.16,-1.34 -1.75,-3.1 -1.75,-5.31 0,-3.37 1.15,-6.41 3.46,-9.1 2.3,-2.7 4.89,-4.05 7.76,-4.05 2.12,0 3.81,0.75 5.08,2.25l5.85 -14.35c1,-2.45 2.39,-3.67 4.17,-3.67 0.76,0 1.39,0.24 1.91,0.73 0.53,0.48 0.79,1.07 0.79,1.77 0,0.55 -0.13,1.16 -0.4,1.84l-0.31 0.72 -10.3 25.46zm-9.61 0.11l0.99 0c1.21,0 2.01,-0.48 2.39,-1.45l1.97 -4.83c0.24,-0.59 0.37,-1.05 0.37,-1.36 0,-0.52 -0.22,-0.97 -0.66,-1.34 -0.45,-0.37 -1,-0.54 -1.67,-0.54 -1.36,0 -2.63,0.76 -3.81,2.28 -1.18,1.52 -1.77,3.16 -1.77,4.92 0,1.55 0.73,2.33 2.19,2.33zm24.31 -0.11l2.97 0c2.2,0 3.29,0.78 3.29,2.33 0,1.06 -0.38,1.89 -1.16,2.49 -0.77,0.59 -1.86,0.89 -3.26,0.89l-4.18 0c-1.54,0 -2.75,-0.31 -3.63,-0.95 -0.89,-0.63 -1.33,-1.49 -1.33,-2.58 0,-0.58 0.19,-1.32 0.56,-2.2l4.34 -10.68 0.28 -0.74c0.81,-1.98 2.1,-2.97 3.89,-2.97 0.74,0 1.37,0.24 1.91,0.73 0.53,0.5 0.8,1.09 0.8,1.77 0,0.57 -0.24,1.42 -0.71,2.58l-3.78 9.34zm3.46 -22.82c1.02,0 1.88,0.36 2.59,1.07 0.71,0.71 1.07,1.57 1.07,2.59 0,1.02 -0.36,1.88 -1.07,2.59 -0.71,0.71 -1.57,1.07 -2.59,1.07 -1.02,0 -1.88,-0.36 -2.59,-1.07 -0.71,-0.71 -1.07,-1.58 -1.07,-2.59 0,-1.02 0.36,-1.88 1.07,-2.59 0.71,-0.71 1.58,-1.07 2.59,-1.07zm21.76 22.82l2.9 0c2.22,0 3.33,0.77 3.33,2.3 0,1.06 -0.39,1.89 -1.18,2.49 -0.8,0.6 -1.88,0.9 -3.27,0.9l-3.36 0c-1.51,0 -2.54,-0.58 -3.08,-1.76 -1.32,1.18 -2.58,1.76 -3.81,1.76l-3 0c-1.93,0 -3.49,-0.69 -4.68,-2.06 -1.19,-1.37 -1.78,-3.17 -1.78,-5.39 0,-3.37 1.16,-6.37 3.49,-9.03 2.33,-2.64 4.95,-3.97 7.88,-3.97 2.25,0 3.89,0.76 4.93,2.3 0.88,-1.32 2.03,-1.97 3.44,-1.97 0.77,0 1.41,0.24 1.93,0.73 0.51,0.5 0.77,1.1 0.77,1.82 0,0.5 -0.14,1.09 -0.42,1.77l-0.29 0.71 -3.79 9.39zm-9.54 0.11l0.66 0c1.45,0 2.4,-0.59 2.88,-1.77l1.85 -4.55c0.24,-0.6 0.37,-1.09 0.37,-1.5 0,-0.48 -0.23,-0.89 -0.7,-1.24 -0.47,-0.35 -1.03,-0.53 -1.68,-0.53 -1.29,0 -2.55,0.74 -3.76,2.23 -1.22,1.5 -1.83,3.04 -1.83,4.63 0,1.8 0.74,2.71 2.22,2.71zm66.18 -2.1c0,1.33 0.99,1.99 2.97,1.99l7.8 0c2.22,0 3.32,0.78 3.32,2.33 0,1.06 -0.4,1.89 -1.18,2.49 -0.78,0.59 -1.87,0.89 -3.27,0.89l-7.43 0c-2.78,0 -4.89,-0.68 -6.34,-2.04 -1.44,-1.36 -2.17,-3.36 -2.17,-5.99 0,-3.37 1.14,-6.29 3.43,-8.74 2.29,-2.45 5.01,-3.68 8.16,-3.68 2.3,0 4.15,0.6 5.54,1.8 1.39,1.2 2.09,2.78 2.09,4.74 0,2.36 -0.96,4.11 -2.89,5.25 -1.06,0.64 -2.66,0.97 -4.76,0.97l-5.26 0zm1.26 -4.79l2.89 0c1.88,0 2.79,-0.4 2.74,-1.21 -0.05,-0.92 -0.65,-1.37 -1.81,-1.37 -1.61,0 -2.88,0.86 -3.81,2.58zm-35.53 6.78l3.16 0c2.22,0 3.32,0.78 3.32,2.33 0,1.06 -0.4,1.89 -1.18,2.49 -0.79,0.59 -1.87,0.89 -3.25,0.89l-5.49 0c-1.08,0 -1.98,-0.32 -2.72,-0.97 -0.73,-0.66 -1.1,-1.47 -1.1,-2.45 0,-0.59 0.25,-1.49 0.74,-2.68l2.35 -5.73c0.25,-0.59 0.38,-1.08 0.41,-1.45 0.02,-0.42 -0.15,-0.78 -0.51,-1.08 -0.36,-0.3 -0.83,-0.45 -1.38,-0.45 -1.81,0 -3.27,1.36 -4.38,4.07l-3.1 7.63c-0.93,2.32 -2.32,3.47 -4.16,3.47 -0.76,0 -1.4,-0.22 -1.93,-0.68 -0.53,-0.46 -0.79,-1.02 -0.79,-1.68 0,-0.49 0.14,-1.08 0.42,-1.77l0.29 -0.71 5.31 -13.1c0.69,-1.7 1.85,-2.55 3.5,-2.55 1.36,0 2.32,0.6 2.9,1.79 1.87,-1.41 3.67,-2.12 5.36,-2.12 1.65,0 3.01,0.47 4.08,1.42 1.07,0.95 1.61,2.15 1.61,3.6 0,0.81 -0.2,1.68 -0.58,2.65l-2.88 7.07zm23.3 -14.42l0.82 0c2.22,0 3.33,0.78 3.33,2.35 0,1.08 -0.4,1.91 -1.19,2.51 -0.78,0.6 -1.86,0.9 -3.25,0.9l-1.92 0 -3.52 8.67 2.94 0c2.22,0 3.32,0.78 3.32,2.33 0,1.06 -0.38,1.89 -1.16,2.49 -0.77,0.59 -1.87,0.89 -3.26,0.89l-4.71 0c-1.33,0 -2.38,-0.31 -3.16,-0.92 -0.78,-0.61 -1.17,-1.45 -1.17,-2.49 0,-0.65 0.16,-1.36 0.48,-2.16l0.49 -1.15 3.1 -7.64 -0.4 0c-1.98,0 -2.97,-0.76 -2.97,-2.29 0,-1.1 0.4,-1.95 1.18,-2.55 0.79,-0.61 1.88,-0.91 3.29,-0.91l1.21 0 1.39 -3.44 0.3 -0.71c0.82,-1.94 2.12,-2.91 3.89,-2.91 0.72,0 1.34,0.24 1.85,0.72 0.52,0.48 0.78,1.07 0.78,1.75 0,0.66 -0.24,1.5 -0.69,2.51l-0.98 2.07zm57.79 20.13l-7.62 0c-2.19,0 -3.98,-0.77 -5.35,-2.32 -1.38,-1.53 -2.07,-3.53 -2.07,-5.98 0,-3.27 1.13,-6.12 3.39,-8.53 2.26,-2.41 4.92,-3.62 7.96,-3.62 2.07,0 3.76,0.58 5.05,1.74 1.3,1.16 1.95,2.66 1.95,4.52 0,1.3 -0.32,2.37 -0.97,3.2 -0.64,0.84 -1.48,1.25 -2.49,1.25 -1.6,0 -2.41,-0.75 -2.41,-2.26 0,-0.22 0,-0.41 0,-0.57 0,-0.19 0,-0.38 0,-0.55 0,-1.23 -0.61,-1.84 -1.82,-1.84 -1.14,0 -2.18,0.6 -3.12,1.81 -0.94,1.2 -1.41,2.55 -1.41,4.04 0,1.24 0.39,2.12 1.15,2.64 0.77,0.51 2.07,0.77 3.9,0.77l4.97 0c2.22,0 3.33,0.78 3.33,2.33 0,1.04 -0.4,1.87 -1.19,2.47 -0.8,0.6 -1.87,0.9 -3.24,0.9zm20.81 -20.45c2.54,0 4.63,0.81 6.26,2.41 1.64,1.62 2.46,3.66 2.46,6.14 0,1.87 -0.43,3.73 -1.28,5.58 -0.86,1.85 -1.97,3.32 -3.34,4.42 -0.92,0.72 -1.86,1.21 -2.82,1.49 -0.97,0.27 -2.33,0.4 -4.08,0.4 -2.86,0 -4.78,-0.34 -5.78,-1.02 -2.34,-1.61 -3.52,-3.99 -3.52,-7.14 0,-3.33 1.2,-6.21 3.6,-8.64 2.4,-2.43 5.24,-3.65 8.51,-3.65zm-0.63 5.6c-1.29,0 -2.47,0.64 -3.53,1.92 -1.07,1.28 -1.6,2.69 -1.6,4.24 0,2.03 1.13,3.05 3.4,3.05 1.33,0 2.34,-0.41 3.06,-1.24 1.18,-1.35 1.77,-2.89 1.77,-4.63 0,-1 -0.28,-1.8 -0.86,-2.41 -0.58,-0.62 -1.33,-0.93 -2.25,-0.93zm42.36 9.15l3.12 0c2.22,0 3.32,0.78 3.32,2.33 0,1.06 -0.38,1.89 -1.16,2.49 -0.78,0.59 -1.87,0.89 -3.26,0.89l-5.33 0c-1.15,0 -2.08,-0.31 -2.8,-0.92 -0.71,-0.62 -1.07,-1.42 -1.07,-2.42 0,-0.68 0.23,-1.6 0.7,-2.78l2.43 -6.01c0.14,-0.35 0.21,-0.67 0.21,-0.97 0,-1.14 -0.57,-1.71 -1.73,-1.71 -0.89,0 -1.78,0.41 -2.65,1.21 -0.87,0.8 -1.57,1.87 -2.1,3.2l-2.94 7.25c-0.96,2.34 -2.36,3.52 -4.2,3.52 -0.72,0 -1.33,-0.24 -1.83,-0.71 -0.51,-0.48 -0.76,-1.03 -0.76,-1.68 0,-0.51 0.14,-1.1 0.4,-1.78l0.29 -0.72 2.96 -7.32c0.26,-0.65 0.4,-1.16 0.4,-1.52 0,-0.39 -0.18,-0.73 -0.53,-1.02 -0.35,-0.28 -0.76,-0.43 -1.23,-0.43 -1.89,0 -3.4,1.36 -4.5,4.1l-3.08 7.53c-0.96,2.36 -2.36,3.54 -4.18,3.54 -0.72,0 -1.34,-0.24 -1.86,-0.7 -0.51,-0.47 -0.77,-1.03 -0.77,-1.7 0,-0.53 0.14,-1.12 0.4,-1.79l0.28 -0.71 5.24 -12.9c0.73,-1.8 1.84,-2.71 3.31,-2.71 1.52,0 2.46,0.72 2.84,2.16 1.18,-1 2.15,-1.67 2.9,-1.99 0.74,-0.33 1.66,-0.49 2.75,-0.49 2.35,0 4.11,1.01 5.28,3.04 1.96,-2.03 4.17,-3.04 6.62,-3.04 1.68,0 3.08,0.48 4.21,1.46 1.13,0.97 1.7,2.16 1.7,3.59 0,0.89 -0.19,1.81 -0.57,2.75l-2.8 6.94zm19.61 -14.75c2.54,0 4.63,0.81 6.26,2.41 1.64,1.62 2.46,3.66 2.46,6.14 0,1.87 -0.43,3.73 -1.28,5.58 -0.86,1.85 -1.97,3.32 -3.34,4.42 -0.92,0.72 -1.86,1.21 -2.82,1.49 -0.97,0.27 -2.33,0.4 -4.08,0.4 -2.86,0 -4.78,-0.34 -5.78,-1.02 -2.34,-1.61 -3.52,-3.99 -3.52,-7.14 0,-3.33 1.2,-6.21 3.6,-8.64 2.4,-2.43 5.24,-3.65 8.51,-3.65zm-0.63 5.6c-1.29,0 -2.47,0.64 -3.53,1.92 -1.07,1.28 -1.6,2.69 -1.6,4.24 0,2.03 1.13,3.05 3.4,3.05 1.33,0 2.34,-0.41 3.06,-1.24 1.18,-1.35 1.77,-2.89 1.77,-4.63 0,-1 -0.28,-1.8 -0.86,-2.41 -0.58,-0.62 -1.33,-0.93 -2.25,-0.93zm-255.65 79.43l-7.62 0c-2.19,0 -3.98,-0.77 -5.35,-2.32 -1.38,-1.53 -2.07,-3.53 -2.07,-5.98 0,-3.27 1.13,-6.12 3.39,-8.53 2.26,-2.41 4.92,-3.62 7.96,-3.62 2.07,0 3.76,0.58 5.05,1.74 1.3,1.16 1.95,2.66 1.95,4.52 0,1.3 -0.32,2.37 -0.97,3.2 -0.64,0.84 -1.48,1.25 -2.49,1.25 -1.6,0 -2.41,-0.75 -2.41,-2.26 0,-0.22 0,-0.41 0,-0.57 0,-0.19 0,-0.38 0,-0.55 0,-1.23 -0.61,-1.84 -1.82,-1.84 -1.14,0 -2.18,0.6 -3.12,1.81 -0.94,1.2 -1.41,2.55 -1.41,4.04 0,1.24 0.39,2.12 1.15,2.64 0.77,0.51 2.07,0.77 3.9,0.77l4.97 0c2.22,0 3.33,0.78 3.33,2.33 0,1.04 -0.4,1.87 -1.19,2.47 -0.8,0.6 -1.87,0.9 -3.24,0.9zm15.49 -7.69c0,1.33 0.99,1.99 2.97,1.99l7.8 0c2.22,0 3.32,0.78 3.32,2.33 0,1.06 -0.4,1.89 -1.18,2.49 -0.78,0.59 -1.87,0.89 -3.27,0.89l-7.43 0c-2.78,0 -4.89,-0.68 -6.34,-2.04 -1.44,-1.36 -2.17,-3.36 -2.17,-5.99 0,-3.37 1.14,-6.29 3.43,-8.74 2.29,-2.45 5.01,-3.68 8.16,-3.68 2.3,0 4.15,0.6 5.54,1.8 1.39,1.2 2.09,2.78 2.09,4.74 0,2.36 -0.96,4.11 -2.89,5.25 -1.06,0.64 -2.66,0.97 -4.76,0.97l-5.26 0zm1.26 -4.79l2.89 0c1.88,0 2.79,-0.4 2.74,-1.21 -0.05,-0.92 -0.65,-1.37 -1.81,-1.37 -1.61,0 -2.88,0.86 -3.81,2.58zm38.67 6.78l3.16 0c2.22,0 3.32,0.78 3.32,2.33 0,1.06 -0.4,1.89 -1.18,2.49 -0.79,0.59 -1.87,0.89 -3.25,0.89l-5.49 0c-1.08,0 -1.98,-0.32 -2.72,-0.97 -0.73,-0.66 -1.1,-1.47 -1.1,-2.45 0,-0.59 0.25,-1.49 0.74,-2.68l2.35 -5.73c0.25,-0.59 0.38,-1.08 0.41,-1.45 0.02,-0.42 -0.15,-0.78 -0.51,-1.08 -0.36,-0.3 -0.83,-0.45 -1.38,-0.45 -1.81,0 -3.27,1.36 -4.38,4.07l-3.1 7.63c-0.93,2.32 -2.32,3.47 -4.16,3.47 -0.76,0 -1.4,-0.22 -1.93,-0.68 -0.53,-0.46 -0.79,-1.02 -0.79,-1.68 0,-0.49 0.14,-1.08 0.42,-1.77l0.29 -0.71 5.31 -13.1c0.69,-1.7 1.85,-2.55 3.5,-2.55 1.36,0 2.32,0.6 2.9,1.79 1.87,-1.41 3.67,-2.12 5.36,-2.12 1.65,0 3.01,0.47 4.08,1.42 1.07,0.95 1.61,2.15 1.61,3.6 0,0.81 -0.2,1.68 -0.58,2.65l-2.88 7.07zm23.3 -14.42l0.82 0c2.22,0 3.33,0.78 3.33,2.35 0,1.08 -0.4,1.91 -1.19,2.51 -0.78,0.6 -1.86,0.9 -3.25,0.9l-1.92 0 -3.52 8.67 2.94 0c2.22,0 3.32,0.78 3.32,2.33 0,1.06 -0.38,1.89 -1.16,2.49 -0.77,0.59 -1.87,0.89 -3.26,0.89l-4.71 0c-1.33,0 -2.38,-0.31 -3.16,-0.92 -0.78,-0.61 -1.17,-1.45 -1.17,-2.49 0,-0.65 0.16,-1.36 0.48,-2.16l0.49 -1.15 3.1 -7.64 -0.4 0c-1.98,0 -2.97,-0.76 -2.97,-2.29 0,-1.1 0.4,-1.95 1.18,-2.55 0.79,-0.61 1.88,-0.91 3.29,-0.91l1.21 0 1.39 -3.44 0.3 -0.71c0.82,-1.94 2.12,-2.91 3.89,-2.91 0.72,0 1.34,0.24 1.85,0.72 0.52,0.48 0.78,1.07 0.78,1.75 0,0.66 -0.24,1.5 -0.69,2.51l-0.98 2.07zm11.24 5.76l-0.89 2.22c-0.81,1.97 -1.86,2.95 -3.15,2.95 -0.78,0 -1.44,-0.24 -1.96,-0.71 -0.53,-0.48 -0.79,-1.07 -0.79,-1.77 0,-0.41 0.19,-1.09 0.57,-2.06l2.97 -7.34c0.71,-1.77 1.72,-2.66 3.04,-2.66 1.29,0 2.08,0.61 2.39,1.84l0.2 0.82c0.11,0.42 0.26,0.69 0.48,0.79 0.21,0.11 0.72,0.16 1.54,0.16l6.15 0c2.29,0 3.43,0.81 3.43,2.42 0,2.23 -1.45,3.34 -4.35,3.34l-0.29 0.26c-2.75,2.68 -4.13,4.76 -4.13,6.22 0,1.46 0.79,2.19 2.37,2.19l3.32 0c2.23,0 3.36,0.77 3.36,2.3 0,1.08 -0.4,1.92 -1.18,2.51 -0.78,0.59 -1.87,0.89 -3.28,0.89l-5.16 0c-1.74,0 -3.16,-0.6 -4.28,-1.81 -1.1,-1.21 -1.66,-2.79 -1.66,-4.72 0,-1.23 0.3,-2.42 0.89,-3.58 0.59,-1.16 1.64,-2.57 3.14,-4.26l-2.74 0zm22.72 -6.08c2.54,0 4.63,0.81 6.26,2.41 1.64,1.62 2.46,3.66 2.46,6.14 0,1.87 -0.43,3.73 -1.28,5.58 -0.86,1.85 -1.97,3.32 -3.34,4.42 -0.92,0.72 -1.86,1.21 -2.82,1.49 -0.97,0.27 -2.33,0.4 -4.08,0.4 -2.86,0 -4.78,-0.34 -5.78,-1.02 -2.34,-1.61 -3.52,-3.99 -3.52,-7.14 0,-3.33 1.2,-6.21 3.6,-8.64 2.4,-2.43 5.24,-3.65 8.51,-3.65zm-0.63 5.6c-1.29,0 -2.47,0.64 -3.53,1.92 -1.07,1.28 -1.6,2.69 -1.6,4.24 0,2.03 1.13,3.05 3.4,3.05 1.33,0 2.34,-0.41 3.06,-1.24 1.18,-1.35 1.77,-2.89 1.77,-4.63 0,-1 -0.28,-1.8 -0.86,-2.41 -0.58,-0.62 -1.33,-0.93 -2.25,-0.93zm42.25 9.15l3 0c2.23,0 3.34,0.78 3.34,2.33 0,1.06 -0.4,1.89 -1.18,2.49 -0.79,0.59 -1.88,0.89 -3.26,0.89l-3.54 0c-1.37,0 -2.37,-0.57 -3,-1.68 -1.12,1.12 -2.32,1.68 -3.6,1.68l-3.34 0c-1.94,0 -3.5,-0.66 -4.66,-1.99 -1.16,-1.34 -1.75,-3.1 -1.75,-5.31 0,-3.37 1.15,-6.41 3.46,-9.1 2.3,-2.7 4.89,-4.05 7.76,-4.05 2.12,0 3.81,0.75 5.08,2.25l5.85 -14.35c1,-2.45 2.39,-3.67 4.17,-3.67 0.76,0 1.39,0.24 1.91,0.73 0.53,0.48 0.79,1.07 0.79,1.77 0,0.55 -0.13,1.16 -0.4,1.84l-0.31 0.72 -10.3 25.46zm-9.61 0.11l0.99 0c1.21,0 2.01,-0.48 2.39,-1.45l1.97 -4.83c0.24,-0.59 0.37,-1.05 0.37,-1.36 0,-0.52 -0.22,-0.97 -0.66,-1.34 -0.45,-0.37 -1,-0.54 -1.67,-0.54 -1.36,0 -2.63,0.76 -3.81,2.28 -1.18,1.52 -1.77,3.16 -1.77,4.92 0,1.55 0.73,2.33 2.19,2.33zm23.31 -2.1c0,1.33 0.99,1.99 2.97,1.99l7.8 0c2.22,0 3.32,0.78 3.32,2.33 0,1.06 -0.4,1.89 -1.18,2.49 -0.78,0.59 -1.87,0.89 -3.27,0.89l-7.43 0c-2.78,0 -4.89,-0.68 -6.34,-2.04 -1.44,-1.36 -2.17,-3.36 -2.17,-5.99 0,-3.37 1.14,-6.29 3.43,-8.74 2.29,-2.45 5.01,-3.68 8.16,-3.68 2.3,0 4.15,0.6 5.54,1.8 1.39,1.2 2.09,2.78 2.09,4.74 0,2.36 -0.96,4.11 -2.89,5.25 -1.06,0.64 -2.66,0.97 -4.76,0.97l-5.26 0zm1.26 -4.79l2.89 0c1.88,0 2.79,-0.4 2.74,-1.21 -0.05,-0.92 -0.65,-1.37 -1.81,-1.37 -1.61,0 -2.88,0.86 -3.81,2.58zm20.87 6.78l2.75 0c2.22,0 3.33,0.78 3.33,2.33 0,1.06 -0.38,1.89 -1.16,2.49 -0.78,0.59 -1.87,0.89 -3.27,0.89l-4.73 0c-1.29,0 -2.3,-0.31 -3.06,-0.92 -0.74,-0.61 -1.12,-1.44 -1.12,-2.47 0,-0.54 0.25,-1.44 0.76,-2.71l10.58 -26.14 0.28 -0.72c0.81,-1.97 2.09,-2.94 3.86,-2.94 0.74,0 1.35,0.24 1.87,0.73 0.51,0.5 0.77,1.08 0.77,1.77 0,0.52 -0.14,1.12 -0.4,1.79l-0.28 0.72 -10.2 25.19zm-210.52 64.58l2.9 0c2.22,0 3.33,0.77 3.33,2.3 0,1.06 -0.39,1.89 -1.18,2.49 -0.8,0.6 -1.88,0.9 -3.27,0.9l-3.36 0c-1.51,0 -2.54,-0.58 -3.08,-1.76 -1.32,1.18 -2.58,1.76 -3.81,1.76l-3 0c-1.93,0 -3.49,-0.69 -4.68,-2.06 -1.19,-1.37 -1.78,-3.17 -1.78,-5.39 0,-3.37 1.16,-6.37 3.49,-9.03 2.33,-2.64 4.95,-3.97 7.88,-3.97 2.25,0 3.89,0.76 4.93,2.3 0.88,-1.32 2.03,-1.97 3.44,-1.97 0.77,0 1.41,0.24 1.93,0.73 0.51,0.5 0.77,1.1 0.77,1.82 0,0.5 -0.14,1.09 -0.42,1.77l-0.29 0.71 -3.79 9.39zm-9.54 0.11l0.66 0c1.45,0 2.4,-0.59 2.88,-1.77l1.85 -4.55c0.24,-0.6 0.37,-1.09 0.37,-1.5 0,-0.48 -0.23,-0.89 -0.7,-1.24 -0.47,-0.35 -1.03,-0.53 -1.68,-0.53 -1.29,0 -2.55,0.74 -3.76,2.23 -1.22,1.5 -1.83,3.04 -1.83,4.63 0,1.8 0.74,2.71 2.22,2.71zm22.44 3.54l-6.85 16.86c-0.95,2.32 -2.33,3.49 -4.15,3.49 -0.7,0 -1.3,-0.24 -1.8,-0.7 -0.49,-0.46 -0.74,-1.01 -0.74,-1.67 0,-0.54 0.22,-1.36 0.66,-2.46l12.66 -31.22c0.65,-1.58 1.77,-2.37 3.37,-2.37 1.1,0 1.98,0.53 2.63,1.58 1.23,-1.26 2.73,-1.9 4.5,-1.9 1.84,0 3.33,0.7 4.47,2.09 1.13,1.39 1.7,3.22 1.7,5.5 0,4.31 -1.34,7.81 -4.03,10.52 -0.88,0.9 -1.78,1.51 -2.71,1.84 -0.93,0.33 -2.23,0.5 -3.89,0.5 -1.8,0 -3.02,-0.12 -3.7,-0.37 -0.67,-0.24 -1.37,-0.81 -2.09,-1.69zm2.15 -5.36c0.44,0.76 0.86,1.25 1.26,1.48 0.4,0.22 1.02,0.34 1.88,0.34 1.24,0 2.21,-0.47 2.91,-1.4 1.42,-1.87 2.13,-3.8 2.13,-5.78 0,-1.71 -0.81,-2.56 -2.42,-2.56 -1.77,0 -3.04,1.03 -3.82,3.08 -0.08,0.24 -0.15,0.42 -0.21,0.58l-1.74 4.25zm29.74 -6.95l-0.89 2.22c-0.81,1.97 -1.86,2.95 -3.15,2.95 -0.78,0 -1.44,-0.24 -1.96,-0.71 -0.53,-0.48 -0.79,-1.07 -0.79,-1.77 0,-0.41 0.19,-1.09 0.57,-2.06l2.97 -7.34c0.71,-1.77 1.72,-2.66 3.04,-2.66 1.29,0 2.08,0.61 2.39,1.84l0.2 0.82c0.11,0.42 0.26,0.69 0.48,0.79 0.21,0.11 0.72,0.16 1.54,0.16l6.15 0c2.29,0 3.43,0.81 3.43,2.42 0,2.23 -1.45,3.34 -4.35,3.34l-0.29 0.26c-2.75,2.68 -4.13,4.76 -4.13,6.22 0,1.46 0.79,2.19 2.37,2.19l3.32 0c2.23,0 3.36,0.77 3.36,2.3 0,1.08 -0.4,1.92 -1.18,2.51 -0.78,0.59 -1.87,0.89 -3.28,0.89l-5.16 0c-1.74,0 -3.16,-0.6 -4.28,-1.81 -1.1,-1.21 -1.66,-2.79 -1.66,-4.72 0,-1.23 0.3,-2.42 0.89,-3.58 0.59,-1.16 1.64,-2.57 3.14,-4.26l-2.74 0z"/>
   <path class="fil0" d="M744.94 919.19c0,1.33 0.99,1.99 2.97,1.99l7.8 0c2.22,0 3.32,0.78 3.32,2.33 0,1.06 -0.4,1.89 -1.18,2.49 -0.78,0.59 -1.87,0.89 -3.27,0.89l-7.43 0c-2.78,0 -4.89,-0.68 -6.34,-2.04 -1.44,-1.36 -2.17,-3.36 -2.17,-5.99 0,-3.37 1.14,-6.29 3.43,-8.74 2.29,-2.45 5.01,-3.68 8.16,-3.68 2.3,0 4.15,0.6 5.54,1.8 1.39,1.2 2.09,2.78 2.09,4.74 0,2.36 -0.96,4.11 -2.89,5.25 -1.06,0.64 -2.66,0.97 -4.76,0.97l-5.26 0zm1.26 -4.79l2.89 0c1.88,0 2.79,-0.4 2.74,-1.21 -0.05,-0.92 -0.65,-1.37 -1.81,-1.37 -1.61,0 -2.88,0.86 -3.81,2.58zm33.29 6.78l3.16 0c2.22,0 3.32,0.78 3.32,2.33 0,1.06 -0.4,1.89 -1.18,2.49 -0.79,0.59 -1.87,0.89 -3.25,0.89l-5.49 0c-1.08,0 -1.98,-0.32 -2.72,-0.97 -0.73,-0.66 -1.1,-1.47 -1.1,-2.45 0,-0.59 0.25,-1.49 0.74,-2.68l2.35 -5.73c0.25,-0.59 0.38,-1.08 0.41,-1.45 0.02,-0.42 -0.15,-0.78 -0.51,-1.08 -0.36,-0.3 -0.83,-0.45 -1.38,-0.45 -1.81,0 -3.27,1.36 -4.38,4.07l-3.1 7.63c-0.93,2.32 -2.32,3.47 -4.16,3.47 -0.76,0 -1.4,-0.22 -1.93,-0.68 -0.53,-0.46 -0.79,-1.02 -0.79,-1.68 0,-0.49 0.14,-1.08 0.42,-1.77l0.29 -0.71 5.31 -13.1c0.69,-1.7 1.85,-2.55 3.5,-2.55 1.36,0 2.32,0.6 2.9,1.79 1.87,-1.41 3.67,-2.12 5.36,-2.12 1.65,0 3.01,0.47 4.08,1.42 1.07,0.95 1.61,2.15 1.61,3.6 0,0.81 -0.2,1.68 -0.58,2.65l-2.88 7.07zm25.52 0l3 0c2.23,0 3.34,0.78 3.34,2.33 0,1.06 -0.4,1.89 -1.18,2.49 -0.79,0.59 -1.88,0.89 -3.26,0.89l-3.54 0c-1.37,0 -2.37,-0.57 -3,-1.68 -1.12,1.12 -2.32,1.68 -3.6,1.68l-3.34 0c-1.94,0 -3.5,-0.66 -4.66,-1.99 -1.16,-1.34 -1.75,-3.1 -1.75,-5.31 0,-3.37 1.15,-6.41 3.46,-9.1 2.3,-2.7 4.89,-4.05 7.76,-4.05 2.12,0 3.81,0.75 5.08,2.25l5.85 -14.35c1,-2.45 2.39,-3.67 4.17,-3.67 0.76,0 1.39,0.24 1.91,0.73 0.53,0.48 0.79,1.07 0.79,1.77 0,0.55 -0.13,1.16 -0.4,1.84l-0.31 0.72 -10.3 25.46zm-9.61 0.11l0.99 0c1.21,0 2.01,-0.48 2.39,-1.45l1.97 -4.83c0.24,-0.59 0.37,-1.05 0.37,-1.36 0,-0.52 -0.22,-0.97 -0.66,-1.34 -0.45,-0.37 -1,-0.54 -1.67,-0.54 -1.36,0 -2.63,0.76 -3.81,2.28 -1.18,1.52 -1.77,3.16 -1.77,4.92 0,1.55 0.73,2.33 2.19,2.33zm24.31 -0.11l2.97 0c2.2,0 3.29,0.78 3.29,2.33 0,1.06 -0.38,1.89 -1.16,2.49 -0.77,0.59 -1.86,0.89 -3.26,0.89l-4.18 0c-1.54,0 -2.75,-0.31 -3.63,-0.95 -0.89,-0.63 -1.33,-1.49 -1.33,-2.58 0,-0.58 0.19,-1.32 0.56,-2.2l4.34 -10.68 0.28 -0.74c0.81,-1.98 2.1,-2.97 3.89,-2.97 0.74,0 1.37,0.24 1.91,0.73 0.53,0.5 0.8,1.09 0.8,1.77 0,0.57 -0.24,1.42 -0.71,2.58l-3.78 9.34zm3.46 -22.82c1.02,0 1.88,0.36 2.59,1.07 0.71,0.71 1.07,1.57 1.07,2.59 0,1.02 -0.36,1.88 -1.07,2.59 -0.71,0.71 -1.57,1.07 -2.59,1.07 -1.02,0 -1.88,-0.36 -2.59,-1.07 -0.71,-0.71 -1.07,-1.58 -1.07,-2.59 0,-1.02 0.36,-1.88 1.07,-2.59 0.71,-0.71 1.58,-1.07 2.59,-1.07zm13.61 22.82l6.62 0c2.22,0 3.34,0.78 3.34,2.33 0,1.06 -0.4,1.89 -1.18,2.49 -0.78,0.59 -1.88,0.89 -3.29,0.89l-12.24 0c-1.08,0 -1.94,-0.27 -2.58,-0.82 -0.64,-0.54 -0.95,-1.28 -0.95,-2.21 0,-0.89 0.58,-1.91 1.76,-3.05l8.57 -8.28 -2.92 0.09 -0.66 0c-1.91,0 -2.87,-0.79 -2.87,-2.37 0,-0.98 0.38,-1.81 1.14,-2.49 0.75,-0.67 1.67,-1.01 2.77,-1.01l0.65 0 8.17 0c2.45,0 3.68,1.04 3.68,3.11 0,1.07 -0.56,2.16 -1.66,3.24l-8.35 8.08zm29.14 0l2.9 0c2.22,0 3.33,0.77 3.33,2.3 0,1.06 -0.39,1.89 -1.18,2.49 -0.8,0.6 -1.88,0.9 -3.27,0.9l-3.36 0c-1.51,0 -2.54,-0.58 -3.08,-1.76 -1.32,1.18 -2.58,1.76 -3.81,1.76l-3 0c-1.93,0 -3.49,-0.69 -4.68,-2.06 -1.19,-1.37 -1.78,-3.17 -1.78,-5.39 0,-3.37 1.16,-6.37 3.49,-9.03 2.33,-2.64 4.95,-3.97 7.88,-3.97 2.25,0 3.89,0.76 4.93,2.3 0.88,-1.32 2.03,-1.97 3.44,-1.97 0.77,0 1.41,0.24 1.93,0.73 0.51,0.5 0.77,1.1 0.77,1.82 0,0.5 -0.14,1.09 -0.42,1.77l-0.29 0.71 -3.79 9.39zm-9.54 0.11l0.66 0c1.45,0 2.4,-0.59 2.88,-1.77l1.85 -4.55c0.24,-0.6 0.37,-1.09 0.37,-1.5 0,-0.48 -0.23,-0.89 -0.7,-1.24 -0.47,-0.35 -1.03,-0.53 -1.68,-0.53 -1.29,0 -2.55,0.74 -3.76,2.23 -1.22,1.5 -1.83,3.04 -1.83,4.63 0,1.8 0.74,2.71 2.22,2.71zm24.52 6.67l2.89 0c2.22,0 3.33,0.78 3.33,2.33 0,1.04 -0.4,1.87 -1.18,2.46 -0.78,0.6 -1.87,0.91 -3.28,0.91l-4.1 0 -1.87 3.77 -0.76 1.55c-2.41,4.85 -5.87,7.27 -10.39,7.27 -2.71,0 -4.99,-0.83 -6.82,-2.49 -1.84,-1.66 -2.75,-3.72 -2.75,-6.19 0,-1.45 0.36,-2.88 1.08,-4.28 0.72,-1.39 1.66,-2.49 2.83,-3.32 1.9,-1.35 4.86,-2.03 8.84,-2.03l5.47 0 5.96 -14.74 -2.84 0c-2.21,0 -3.31,-0.78 -3.31,-2.33 0,-1.06 0.38,-1.89 1.16,-2.49 0.77,-0.59 1.87,-0.89 3.27,-0.89l6.28 0c2.11,0 3.17,0.89 3.17,2.65 0,0.68 -0.18,1.47 -0.55,2.37l-6.42 15.43zm-9.07 5.71l-3.68 0c-4.01,0 -6.01,1.3 -6.01,3.9 0,0.84 0.28,1.54 0.84,2.07 0.56,0.54 1.28,0.81 2.18,0.81 1.27,0 2.4,-0.49 3.39,-1.49 1,-0.99 2.08,-2.76 3.27,-5.29zm15.61 -35.3c1.02,0 1.88,0.36 2.59,1.07 0.71,0.71 1.07,1.57 1.07,2.59 0,1.02 -0.36,1.88 -1.07,2.59 -0.71,0.71 -1.57,1.07 -2.59,1.07 -1.02,0 -1.88,-0.36 -2.59,-1.07 -0.71,-0.71 -1.07,-1.58 -1.07,-2.59 0,-1.02 0.36,-1.88 1.07,-2.59 0.71,-0.71 1.58,-1.07 2.59,-1.07zm7.78 20.83c0,1.33 0.99,1.99 2.97,1.99l7.8 0c2.22,0 3.32,0.78 3.32,2.33 0,1.06 -0.4,1.89 -1.18,2.49 -0.78,0.59 -1.87,0.89 -3.27,0.89l-7.43 0c-2.78,0 -4.89,-0.68 -6.34,-2.04 -1.44,-1.36 -2.17,-3.36 -2.17,-5.99 0,-3.37 1.14,-6.29 3.43,-8.74 2.29,-2.45 5.01,-3.68 8.16,-3.68 2.3,0 4.15,0.6 5.54,1.8 1.39,1.2 2.09,2.78 2.09,4.74 0,2.36 -0.96,4.11 -2.89,5.25 -1.06,0.64 -2.66,0.97 -4.76,0.97l-5.26 0zm1.26 -4.79l2.89 0c1.88,0 2.79,-0.4 2.74,-1.21 -0.05,-0.92 -0.65,-1.37 -1.81,-1.37 -1.61,0 -2.88,0.86 -3.81,2.58z"/>
  </g>
 </g>
</svg>
