<?xml version="1.0" encoding="UTF-8"?>
<svg id="Capa_2" data-name="Capa 2" xmlns="http://www.w3.org/2000/svg" viewBox="0 0 127.1 105.98">
  <defs>
    <style>
      .cls-1 {
        fill: #4285f4;
      }

      .cls-1, .cls-2, .cls-3, .cls-4, .cls-5, .cls-6 {
        stroke-width: 0px;
      }

      .cls-2 {
        fill: #000;
      }

      .cls-3 {
        fill: #fbbc05;
      }

      .cls-4 {
        fill: #34a853;
      }

      .cls-5 {
        fill: #fff;
      }

      .cls-6 {
        fill: #ea4335;
      }
    </style>
  </defs>
  <g id="Capa_1-2" data-name="Capa 1">
    <path class="cls-2" d="M111.37,92.54l.78-10.91c.03-.46.86-1.1,1.26-1.13.52-.05,1.29.74,1.25,1.37l-.7,10.45c-.34,5.09-3.95,8.99-9.31,9.1l-.08,3.43c-.01.47-.85,1.14-1.3,1.12s-1.12-.77-1.13-1.25l-.06-3.3H25.15s-.15,3.25-.15,3.25c-.02.47-.63,1.21-1.06,1.28-.59.09-1.4-.63-1.41-1.19l-.03-3.36c-4.51.01-8.78-3.05-9.14-7.68l-.93-11.84c-.04-.51.74-1.35,1.19-1.37.64-.04,1.37.67,1.41,1.37l.59,9.83c.2,3.35,2.15,7.03,5.99,7.03h18.07c2.18,0,3.73-2.26,3.83-4.07.11-2.01-1.4-4.36-3.77-4.37l-13.91-.07c-1.11,0-1.52-.81-1.57-1.82l-.47-9.7c-.29-6.02-5.2-10-10.96-9.87-6.28.14-10.39,4.62-10.37,10.81l.11,24.97c0,.56-.65,1.26-1.08,1.35C.93,106.07,0,105.4,0,104.66l.11-26.96c.03-6.67,5.99-11.17,12.33-11.43,6.83-.29,12.95,4.18,13.71,11.1l.63,10.32h11.69s2.99.28,2.99.28l-1.37-8.35c-.36-2.23,1.03-4.52,3.63-4.52l39.52-.02c2.53,0,3.88,2.27,3.52,4.41l-1.51,8.93c1.17-.37,2.4-.75,3.54-.75h11.5s.5-9.3.5-9.3c.4-7.42,6.46-12.37,13.7-12.13,6.99.23,12.61,5.26,12.61,12.44v25.92c0,.53-.72,1.27-1.15,1.33-.56.08-1.4-.55-1.41-1.29l-.08-26.6c-.02-5.8-5.26-9.26-10.62-9.24-5.7.03-10.23,4.02-10.51,9.86l-.47,9.77c-.04.85-.54,1.76-1.46,1.76l-13.23.06c-2.38.01-4.04,1.98-4.08,4.16-.04,1.87,1.51,4.29,3.84,4.3l16.48.1c3.69.02,6.69-2.42,6.97-6.3ZM81.01,98.81l.49-3.59c.18-1.31.17-2.49.63-3.7l2.16-12.54c.1-.55-.43-1.31-1.02-1.31l-39.61-.03c-.6,0-1.2.77-1.11,1.33l1.8,10.95c3.02,3.57.69,6.15,1.6,8.91h35.06Z"/>
    <path class="cls-2" d="M62.85,34.41c-.26.42-.82.89-1.16.93s-1.17-.37-1.36-.7l-3.27-5.75-5.95-.02c-7.68-.02-13.98-5.95-14.43-13.57S41.77.65,49.62.28c9.08-.43,17.99-.29,27.13-.06,7.85.2,13.65,7.22,13.46,14.6-.2,7.59-6.43,14.03-14.12,14.03h-9.82s-3.42,5.56-3.42,5.56ZM61.56,31.7l3.23-5.34,11.87-.17c6.32-.09,11.12-5.84,10.97-12-.14-5.83-4.93-11.38-11.16-11.45-8.99-.1-17.67-.27-26.58.1-6.47.27-10.94,6.28-10.65,12.23.3,6.08,5.37,11.12,11.56,11.16l6.57.05c.74,0,1.57.65,1.92,1.28l2.28,4.13Z"/>
    <path class="cls-2" d="M72.07,66.39l-15.41-.16c-8.74-.09-8.07,7.29-10.39,6.06-2.48-1.32,2.96-9.48,11.27-8.67-6.26-3.77-8.44-11.29-4.36-17.37,2.85-4.24,7.87-6.21,12.98-5,4.56,1.09,8.27,5.21,8.87,10.06.63,5.07-1.87,9.75-6.6,12.37,9.44-1.19,14.33,7.46,11.96,8.64-.5.25-1.5-.05-1.76-.72-1-2.64-3.37-5.19-6.56-5.22ZM60.87,43.76c-5.34,1.35-8.2,6.76-6.82,11.65s6.41,7.85,11.25,6.69c5.11-1.23,8.18-6.4,7.01-11.34s-6.15-8.34-11.43-7Z"/>
    <path class="cls-2" d="M14.77,41.86c6.78-1.6,13.16,2.81,14.58,9.32,1.39,6.33-2.73,12.76-9.13,14.25-6.51,1.52-12.91-2.47-14.5-9.07-1.5-6.22,2.29-12.9,9.04-14.5ZM22.14,61.91c4.56-2.66,6.01-8.02,3.96-12.33-2.16-4.54-7.36-6.67-12.1-4.77-5.26,2.1-7.43,8.09-5.11,12.94,2.34,4.89,8.34,7.03,13.24,4.17Z"/>
    <path class="cls-2" d="M115.65,63.79c-6.32,4-14.35,1.22-17.28-5.25-3-6.61.34-14.23,7.39-16.53,5.73-1.87,11.88.97,14.4,6.18,2.7,5.57.94,12.15-4.51,15.6ZM111.47,62.83c4.35-1.1,7.25-4.89,7.37-9.01.12-4.27-2.63-8.1-6.83-9.39-3.95-1.22-8.06.39-10.31,3.51s-2.53,7.56-.31,10.82,5.98,5.11,10.08,4.07Z"/>
    <path class="cls-1" d="M81.01,98.81h-35.06c-.91-2.74,1.42-5.32-1.6-8.89l-1.8-10.95c-.09-.56.5-1.33,1.11-1.33l39.61.03c.59,0,1.11.76,1.02,1.31l-2.16,12.54c-.45,1.21-.45,2.39-.63,3.7l-.49,3.59ZM62.98,92.31c2.28.25,3.78-1.38,4.1-3.09.36-1.91-.56-3.87-2.48-4.49-2.36-.75-4.5.72-4.97,2.97-.42,1.99.92,4.35,3.35,4.61Z"/>
    <path class="cls-6" d="M60.87,43.76c5.28-1.34,10.24,1.97,11.43,7s-1.9,10.11-7.01,11.34c-4.83,1.16-9.88-1.8-11.25-6.69s1.48-10.3,6.82-11.65Z"/>
    <path class="cls-3" d="M22.14,61.91c-4.9,2.86-10.91.72-13.24-4.17-2.32-4.85-.14-10.84,5.11-12.94,4.74-1.89,9.94.23,12.1,4.77s.6,9.67-3.96,12.33Z"/>
    <path class="cls-4" d="M111.47,62.83c-4.1,1.04-7.9-.88-10.08-4.07s-2.03-7.55.31-10.82,6.35-4.73,10.31-3.51c4.2,1.3,6.95,5.12,6.83,9.39-.12,4.11-3.01,7.91-7.37,9.01Z"/>
    <path class="cls-2" d="M62.98,92.31c-2.43-.27-3.77-2.62-3.35-4.61.47-2.24,2.61-3.72,4.97-2.97,1.93.61,2.84,2.58,2.48,4.49-.33,1.72-1.82,3.34-4.1,3.09ZM62.62,87.25c-.66.4-.68,1.51-.23,2.06.35.44,1.4.58,1.92.15.4-.34.5-1.45.17-1.89-.27-.37-1.42-.58-1.86-.32Z"/>
    <path class="cls-2" d="M53.1,12.87c.92-.51,2.16-.1,2.49.72.35.87.1,2.03-.88,2.55-.6.32-1.8.06-2.29-.59-.58-.76-.45-2.06.68-2.68Z"/>
    <path class="cls-2" d="M72.32,12.79c.91-.36,2.07,0,2.41.81.35.84.06,2-.88,2.5-.69.37-1.99-.02-2.41-.78-.47-.85-.12-2.14.88-2.54Z"/>
    <path class="cls-2" d="M62.52,12.91c.95-.54,2.09-.19,2.57.65.4.7.14,1.98-.55,2.4-.79.48-1.94.32-2.37-.17-.7-.8-.69-2.28.36-2.88Z"/>
    <path class="cls-5" d="M62.62,87.25c.44-.26,1.58-.06,1.86.32.32.44.23,1.55-.17,1.89-.51.44-1.56.29-1.92-.15-.45-.55-.43-1.67.23-2.06Z"/>
  </g>
</svg>