<?xml version="1.0" encoding="UTF-8"?>
<svg id="Capa_2" data-name="Capa 2" xmlns="http://www.w3.org/2000/svg" xmlns:xlink="http://www.w3.org/1999/xlink" viewBox="0 0 40.59 40.1">
  <defs>
    <style>
      .cls-1 {
        fill: url(#Degradado_sin_nombre_12);
      }

      .cls-1, .cls-2, .cls-3, .cls-4, .cls-5, .cls-6 {
        stroke-width: 0px;
      }

      .cls-2 {
        fill: url(#Degradado_sin_nombre_13);
      }

      .cls-3 {
        fill: #3c90ff;
      }

      .cls-4 {
        fill: #bbe2ff;
      }

      .cls-5 {
        fill: #fff;
      }

      .cls-7 {
        mask: url(#mask-1);
      }

      .cls-8 {
        mask: url(#mask);
      }

      .cls-6 {
        fill: #3186ff;
      }
    </style>
    <mask id="mask" x="0" y="2.93" width="40.59" height="37.17" maskUnits="userSpaceOnUse">
      <g id="a">
        <path class="cls-3" d="M1.68,10.12c-.5-3.81,2.46-7.19,6.3-7.19h24.63c3.84,0,6.8,3.38,6.3,7.19l-1.5,11.4,1.5,11.4c.5,3.81-2.46,7.19-6.3,7.19H7.98c-3.84,0-6.8-3.38-6.3-7.19l1.5-11.4-1.5-11.4Z"/>
      </g>
    </mask>
    <linearGradient id="Degradado_sin_nombre_13" data-name="Degradado sin nombre 13" x1="7.3" y1="691.41" x2="7.3" y2="709.99" gradientTransform="translate(13 -669.89)" gradientUnits="userSpaceOnUse">
      <stop offset="0" stop-color="#4fa0ff"/>
      <stop offset="1" stop-color="#3186ff"/>
    </linearGradient>
    <mask id="mask-1" x="1.62" y="0" width="37.34" height="40.1" maskUnits="userSpaceOnUse">
      <g id="c">
        <path class="cls-6" d="M1.68,10.12c-.5-3.81,2.46-7.19,6.3-7.19h24.63c3.84,0,6.8,3.38,6.3,7.19l-1.5,11.4,1.5,11.4c.5,3.81-2.46,7.19-6.3,7.19H7.98c-3.84,0-6.8-3.38-6.3-7.19l1.5-11.4-1.5-11.4Z"/>
      </g>
    </mask>
    <linearGradient id="Degradado_sin_nombre_12" data-name="Degradado sin nombre 12" x1="20.3" y1="2521.51" x2="20.3" y2="2503.26" gradientTransform="translate(0 2524.88) scale(1 -1)" gradientUnits="userSpaceOnUse">
      <stop offset="0" stop-color="#a9a8ff"/>
      <stop offset=".8" stop-color="#3c90ff"/>
    </linearGradient>
  </defs>
  <g id="Capa_1-2" data-name="Capa 1">
    <g>
      <path class="cls-4" d="M4.65,7.04C4.65,3.15,7.8,0,11.69,0h17.21c3.89,0,7.04,3.15,7.04,7.04v7.43c0,3.89-3.15,7.04-7.04,7.04H11.69c-3.89,0-7.04-3.15-7.04-7.04v-7.43Z"/>
      <path class="cls-3" d="M1.68,10.12c-.5-3.81,2.46-7.19,6.3-7.19h24.63c3.84,0,6.8,3.38,6.3,7.19l-1.5,11.4,1.5,11.4c.5,3.81-2.46,7.19-6.3,7.19H7.98c-3.84,0-6.8-3.38-6.3-7.19l1.5-11.4-1.5-11.4Z"/>
      <g class="cls-8">
        <path class="cls-2" d="M0,40.1h40.59v-18.58H0v18.58Z"/>
      </g>
      <g class="cls-7">
        <path class="cls-1" d="M4.65,4.69C4.65,2.1,6.75,0,9.34,0h21.91c2.59,0,4.69,2.1,4.69,4.69v16.82H4.65V4.69Z"/>
      </g>
      <path class="cls-5" d="M15.25,30.65c-1.02,0-1.9-.17-2.64-.5-.73-.33-1.35-.78-1.86-1.34-.5-.57-.85-1.12-1.06-1.66s-.29-.87-.25-.99c.05-.12.13-.22.25-.27l1.39-.55c.12-.06.23-.07.35-.02.12.03.25.22.41.57.17.35.4.72.7,1.11.3.38.67.69,1.1.91.42.22.95.32,1.57.32,1.01,0,1.81-.29,2.4-.87.6-.58.9-1.32.9-2.22,0-.97-.32-1.72-.95-2.25-.63-.53-1.47-.8-2.51-.8h-1.31c-.12,0-.24-.04-.32-.12-.08-.09-.12-.2-.12-.31v-1.34c0-.13.04-.23.12-.31.08-.09.2-.14.32-.14h1.14c.93,0,1.68-.25,2.25-.76.57-.51.85-1.17.85-1.97s-.25-1.44-.76-1.94-1.21-.74-2.1-.74c-.5,0-.93.08-1.3.25-.36.16-.69.4-.95.7-.26.28-.49.59-.69.92-.19.32-.35.49-.46.52-.12.02-.23,0-.34-.06l-1.31-.64c-.11-.06-.18-.15-.21-.27s.07-.42.3-.87c.24-.47.61-.94,1.1-1.42.49-.49,1.08-.87,1.72-1.12.66-.27,1.42-.4,2.3-.4,1.62,0,2.91.43,3.86,1.29.95.85,1.42,1.97,1.42,3.37,0,.97-.23,1.8-.7,2.51-.46.71-1.11,1.21-1.95,1.5v.05c1.02.3,1.82.85,2.4,1.65.59.79.89,1.74.89,2.84,0,1.57-.55,2.86-1.65,3.87-1.1,1.01-2.53,1.51-4.3,1.51h0ZM27.78,30.36c-.14,0-.27-.05-.37-.16-.1-.1-.15-.24-.15-.39v-13.89l-2.81,2.02c-.1.07-.22.1-.35.08-.12-.02-.23-.09-.3-.19l-.81-1.15c-.07-.1-.1-.23-.09-.35.02-.13.09-.24.2-.31l4.98-3.56s.09-.06.14-.07c.05-.02.11-.04.17-.04h1.05c.14,0,.25.05.34.15.09.09.14.21.14.35v16.96c0,.15-.05.28-.16.39-.1.11-.23.17-.37.16h-1.6Z"/>
    </g>
  </g>
</svg>