<?xml version="1.0" encoding="UTF-8"?>
<svg id="Capa_2" data-name="Capa 2" xmlns="http://www.w3.org/2000/svg" viewBox="0 0 89.64 102.27">
  <defs>
    <style>
      .cls-1 {
        fill: #4285f4;
      }

      .cls-1, .cls-2, .cls-3, .cls-4, .cls-5 {
        stroke-width: 0px;
      }

      .cls-2 {
        fill: #000;
      }

      .cls-3 {
        fill: #fbbc05;
      }

      .cls-4 {
        fill: #34a853;
      }

      .cls-5 {
        fill: #ea4335;
      }
    </style>
  </defs>
  <g id="Capa_1-2" data-name="Capa 1">
    <path class="cls-1" d="M49.78,58.65c.53,0,1.24.77,1.26,1.16.02.42-.37,1.11-.79,1.38l-17.52.04c1.37,4.56,3.75,8.41,7.52,11.3,3.6.53,7.28-1.38,7.52.65.05.43-.5,1.35-1.02,1.46-8.82,1.86-17.68-.56-24.41-6.59-7.13-6.38-10.7-15.93-9.17-25.44,2.23-13.84,14.12-24.1,28.15-24.04,15.29.07,27.61,12.44,27.99,27.64.02.79-.62,1.27-1.34,1.42l-3.7.77-12.43.24h-21.44c.18,3.5.63,6.7,1.42,10.06l17.96-.07ZM49.72,33.88c-1.27-4.86-3.34-8.66-6.57-11.75-.6-.38-1.45-.96-1.97-.97-2.75-.04-8.12,8.47-8.78,12.78,6.04.42,11.51.47,17.32-.06ZM29.81,33.54c1.27-4.68,3.13-8.23,6.14-11.81-5.99,1.29-11.6,4.55-15.24,9.7,3.22,1.11,6.05,1.83,9.1,2.12ZM61.56,31.39c-3.99-5.01-9.03-8.45-15.32-9.71,3.1,3.61,4.87,7.49,6.11,11.95,3.23-.51,6.06-1.12,9.21-2.24ZM27.84,46.07c.17-4,.63-6.93,1.27-10.08-3.55-.45-6.63-1.25-9.84-2.59-2.3,3.81-3.79,7.95-3.91,12.7l12.48-.03ZM66.81,45.98c-.31-4.87-1.55-8.83-3.8-12.51l-9.95,2.52,1.11,10.13,12.64-.14ZM51.6,46.08c-.15-3.87-.51-6.73-1.14-9.78-6.58.75-12.54.62-18.84.04-.71,3.43-1.14,6.55-1.23,9.79l21.22-.05ZM29.28,58.98c-.81-3.69-1.24-6.76-1.42-10.32h-12.42c.28,4.69,1.86,8.97,4.33,12.53l9.5-2.21ZM35.62,72.04c-2.55-3.46-4.3-6.62-5.53-10.59-2.99.28-5.93.85-8.74,1.82,3.78,4.68,8.68,7.53,14.27,8.77Z"/>
    <path class="cls-2" d="M2.82,47.03c.07,5.57,1.69,10.53,3.82,15.41,6.49,14.84,19.77,25.22,34.6,31.11l4.75-1.92c.39-.16,1.26-.11,1.57.15.35.31.22,1.7-.21,1.89l-5.1,2.25c-.51.23-1.83.07-2.35-.14-17.17-6.97-31.99-19.56-37.6-37.58-1.16-3.74-2.01-7.4-2.04-11.36L0,18.59c-.01-1.47,1.32-2.3,2.57-2.49,5.6-.83,10.93-1.73,16.32-3.47,7.88-2.55,15.05-6.42,21.24-11.84,1.2-1.05,2.38-1.04,3.62.02,7.16,6.12,15.4,10.29,24.52,12.73l12.36,2.63c1.5.32,2.32,1.38,2.28,3.01l-.61,27.34-.43,3.91c-.05.49-1.4.68-1.76.42-.52-.39-.46-1.22-.44-2.06l.67-30.12c-14.62-2.15-27.26-6.43-38.43-16.05C30.36,12.7,17.66,16.74,2.47,18.68l.35,28.35Z"/>
    <path class="cls-2" d="M83.27,102.23l-25.73.04c-2.9,0-6.57-1.66-6.57-5.08l-.06-23.23c0-3.1,3.02-5.09,5.92-5.23l.19-6.91c.92-7.12,7.89-12.3,15-11.25,5.73.84,10.51,5.26,11.26,10.94l.21,7.2c3.61,0,6.17,2.69,6.15,6.21l-.09,21.81c-.01,3.36-3.08,5.49-6.28,5.5ZM81.02,68.74l-.17-6.89c-1.08-5.68-6.31-9.45-11.81-8.77-5.69.7-9.86,5.49-9.71,11.29l.11,4.4,21.59-.03ZM83.82,99.68c1.75,0,3.26-1.62,3.26-3.17v-21.9c.01-1.89-1.47-3.31-3.38-3.32l-26.75-.02c-2.11,0-3.62,1.44-3.62,3.65l.05,21.33c0,1.85,1.35,3.41,3.29,3.41h27.15Z"/>
    <path class="cls-5" d="M83.82,99.68h-27.15c-1.95,0-3.29-1.57-3.29-3.42l-.05-21.33c0-2.21,1.5-3.65,3.62-3.65l26.75.02c1.92,0,3.4,1.43,3.4,3.32v21.9c-.01,1.55-1.52,3.17-3.28,3.17ZM73.12,92.22c.39-.35.63-1.32.64-1.95l.06-2.24c2.52-2.17,2.55-5.76.44-8.02-2.06-2.21-5.63-2.26-7.87-.15-2.47,2.32-2.4,6.15.31,8.16.03,1.17-.02,2.63.29,3.6.53,1.66,4.99,1.61,6.12.6Z"/>
    <path class="cls-4" d="M81.02,68.74l-21.59.03-.11-4.4c-.15-5.8,4.02-10.59,9.71-11.29,5.5-.67,10.73,3.09,11.81,8.77l.17,6.89Z"/>
    <path class="cls-2" d="M73.12,92.22c-1.14,1.02-5.59,1.06-6.12-.6-.31-.97-.26-2.43-.29-3.6-2.71-2.01-2.78-5.84-.31-8.16,2.24-2.11,5.81-2.06,7.87.15,2.11,2.25,2.08,5.85-.44,8.02l-.06,2.24c-.02.63-.26,1.61-.64,1.95ZM71.21,90.04l.25-3.37c1.57-.82,2.1-2.3,1.57-3.8-.42-1.18-1.71-2.05-3.15-1.95-1.25.09-2.43,1.09-2.68,2.49-.25,1.39.51,2.4,1.89,3.38l.13,3.46c.35.1,1.95,0,1.99-.21Z"/>
    <path class="cls-3" d="M71.21,90.04c-.04.21-1.64.31-1.99.21l-.13-3.46c-1.38-.98-2.13-2-1.89-3.38.25-1.4,1.43-2.39,2.68-2.49,1.44-.11,2.73.77,3.15,1.95.54,1.51,0,2.98-1.57,3.8l-.25,3.37Z"/>
  </g>
</svg>