<?xml version="1.0" encoding="UTF-8"?>
<svg id="Capa_2" data-name="Capa 2" xmlns="http://www.w3.org/2000/svg" xmlns:xlink="http://www.w3.org/1999/xlink" viewBox="0 0 39.34 33.98">
  <defs>
    <style>
      .cls-1, .cls-2, .cls-3, .cls-4, .cls-5, .cls-6, .cls-7, .cls-8, .cls-9, .cls-10, .cls-11, .cls-12 {
        stroke-width: 0px;
      }

      .cls-1, .cls-2, .cls-3, .cls-5, .cls-6, .cls-7, .cls-8, .cls-9, .cls-10, .cls-11, .cls-12 {
        fill-rule: evenodd;
      }

      .cls-1, .cls-9 {
        fill: #fff;
      }

      .cls-2 {
        fill: #0f9d58;
      }

      .cls-3 {
        fill: url(#Degradado_sin_nombre_27);
      }

      .cls-4 {
        fill: none;
      }

      .cls-4, .cls-5, .cls-9, .cls-10 {
        isolation: isolate;
        opacity: .2;
      }

      .cls-5 {
        fill: #bf360c;
      }

      .cls-6 {
        fill: #f1f1f1;
      }

      .cls-7 {
        fill: #f7f7f7;
      }

      .cls-8 {
        fill: #57bb8a;
      }

      .cls-10 {
        fill: #263238;
      }

      .cls-13 {
        mask: url(#mask-1);
      }

      .cls-14 {
        mask: url(#mask);
      }

      .cls-11 {
        fill: #f4b400;
      }

      .cls-12 {
        fill: url(#Degradado_sin_nombre_26);
      }
    </style>
    <mask id="mask" x="0" y="0" width="39.34" height="33.98" maskUnits="userSpaceOnUse">
      <g id="a">
        <path class="cls-1" d="M36.66,0H2.68C1.2,0,0,1.2,0,2.68v28.61c0,1.48,1.2,2.68,2.68,2.68h33.98c1.48,0,2.68-1.2,2.68-2.68V2.68C39.34,1.2,38.14,0,36.66,0Z"/>
      </g>
    </mask>
    <linearGradient id="Degradado_sin_nombre_27" data-name="Degradado sin nombre 27" x1="29.04" y1="2488.3" x2="29.04" y2="2484.74" gradientTransform="translate(0 2518.75) scale(1 -1)" gradientUnits="userSpaceOnUse">
      <stop offset="0" stop-color="#bf360c" stop-opacity=".2"/>
      <stop offset="1" stop-color="#bf360c" stop-opacity=".02"/>
    </linearGradient>
    <mask id="mask-1" x="0" y="0" width="39.34" height="33.98" maskUnits="userSpaceOnUse">
      <g id="b">
        <path class="cls-1" d="M36.66,0H2.68C1.2,0,0,1.2,0,2.68v28.61c0,1.48,1.2,2.68,2.68,2.68h33.98c1.48,0,2.68-1.2,2.68-2.68V2.68C39.34,1.2,38.14,0,36.66,0Z"/>
      </g>
    </mask>
    <radialGradient id="Degradado_sin_nombre_26" data-name="Degradado sin nombre 26" cx="-4318.84" cy="1688.65" fx="-4318.84" fy="1688.65" r=".4" gradientTransform="translate(510665.67 172442.56) scale(118.24 -102.12)" gradientUnits="userSpaceOnUse">
      <stop offset="0" stop-color="#fff" stop-opacity=".1"/>
      <stop offset="1" stop-color="#fff" stop-opacity="0"/>
    </radialGradient>
  </defs>
  <g id="Capa_1-2" data-name="Capa 1">
    <g>
      <g class="cls-14">
        <g>
          <path class="cls-2" d="M3.58,3.58h32.19v26.82H3.58V3.58Z"/>
          <path class="cls-8" d="M12.52,17.88c1.11,0,2.01-.9,2.01-2.01,0-1.11-.9-2.01-2.01-2.01h0c-1.11,0-2.01.9-2.01,2.01,0,1.11.9,2.01,2.01,2.01ZM28.83,15.87c0,1.11-.9,2.01-2.01,2.01s-2.01-.9-2.01-2.01h0c0-1.11.9-2.01,2.01-2.01,1.11,0,2.01.9,2.01,2.01ZM22.35,21.78c0-1.41,2.32-2.55,4.47-2.55s4.47,1.14,4.47,2.56v1.47h-8.94v-1.47ZM8.05,21.78c0-1.41,2.32-2.55,4.47-2.55s4.47,1.14,4.47,2.56v1.47h-8.94v-1.47Z"/>
          <path class="cls-7" d="M22.35,13.41c0,1.48-1.2,2.68-2.68,2.68-1.48,0-2.68-1.2-2.68-2.68h0c0-1.48,1.2-2.68,2.68-2.68s2.68,1.2,2.68,2.68ZM13.41,21.46c0-1.98,3.24-3.58,6.26-3.58s6.26,1.6,6.26,3.58v1.79h-12.52v-1.79Z"/>
          <path class="cls-4" d="M21.91,27.27h10.73v4.51h-10.73v-4.51Z"/>
          <path class="cls-6" d="M23.25,28.61h8.05v1.79h-8.05v-1.79Z"/>
          <path class="cls-11" d="M2.68,0h33.98c1.48,0,2.68,1.2,2.68,2.68v28.61c0,1.48-1.2,2.68-2.68,2.68H2.68c-1.48,0-2.68-1.2-2.68-2.68V2.68C0,1.2,1.2,0,2.68,0ZM3.58,30.4h32.19V3.58H3.58v26.82Z"/>
          <path class="cls-9" d="M36.66,0H2.68C1.2,0,0,1.2,0,2.68v.22C0,1.42,1.2.22,2.68.22h33.98c1.48,0,2.68,1.2,2.68,2.68v-.22c0-1.48-1.2-2.68-2.68-2.68h0Z"/>
          <path class="cls-5" d="M36.66,33.75H2.68c-1.48,0-2.68-1.2-2.68-2.68v.22c0,1.48,1.2,2.68,2.68,2.68h33.98c1.48,0,2.68-1.2,2.68-2.68v-.22c0,1.48-1.2,2.68-2.68,2.68h0Z"/>
          <path class="cls-3" d="M31.28,30.4h-8.05l3.57,3.58h8.04l-3.57-3.58Z"/>
          <path class="cls-10" d="M3.58,3.35h32.19v.22H3.58v-.22Z"/>
        </g>
      </g>
      <g class="cls-13">
        <path class="cls-9" d="M3.58,30.4h32.19v.22H3.58v-.22Z"/>
      </g>
      <path class="cls-12" d="M36.66,0H2.68C1.2,0,0,1.2,0,2.68v28.61c0,1.48,1.2,2.68,2.68,2.68h33.98c1.48,0,2.68-1.2,2.68-2.68V2.68C39.34,1.2,38.14,0,36.66,0Z"/>
    </g>
  </g>
</svg>