<?xml version="1.0" encoding="UTF-8"?>
<svg id="Capa_2" data-name="Capa 2" xmlns="http://www.w3.org/2000/svg" viewBox="0 0 121.05 112.55">
  <defs>
    <style>
      .cls-1 {
        fill: #4285f4;
      }

      .cls-1, .cls-2, .cls-3, .cls-4, .cls-5 {
        stroke-width: 0px;
      }

      .cls-2 {
        fill: #000;
      }

      .cls-3 {
        fill: #fbbc05;
      }

      .cls-4 {
        fill: #34a853;
      }

      .cls-5 {
        fill: #ea4335;
      }
    </style>
  </defs>
  <g id="Capa_1-2" data-name="Capa 1">
    <g>
      <path class="cls-2" d="M72.9,69.4c-.48,2.41-.93,5.07,1.35,5.98.87.35,2.51.11,3.22-.8.98-1.27.85-3.09.32-4.64-.41-1.18-.03-3.19,1.43-3.26l4.85-.24.05-15.32c0-1.44-.53-2.54-2.15-2.53l-15.49.02c-1.03,1.9-.36,3.65.65,5.31,1.95,3.22.86,8.13-1.9,8.19-.36,0-.84-.77-.93-1.28,1.86-1.69,2.31-4.54.48-6.51-1.1-1.19-1.14-2.51-1.14-4.15,0-2.16,1.01-3.99,3.38-3.99l14.66-.04c2.33,0,4.75,1.46,4.75,4.07l.05,15.25c0,2.03-1.18,3.47-3.29,3.44l-3.26-.05.54,2.18,2.58-.03c1.29-.02,3.36,1,3.36,2.66v16.12c.01,2.45-2.12,4-4.43,3.98l-16.8-.15c-2.93-.03-2.04-5.95-3.12-6.48-.49-.24-1.64-.09-2.1.19-1.08.65.27,3.57-1.05,5.25-.46.58-1.7,1.2-2.62,1.2h-15.98c-2.24-.02-3.92-2.07-3.92-4.19v-15.66c0-1.43,1.23-2.79,2.66-2.82l4.12-.09-.28-2.15-3.57.03c-1.57.02-2.92-1.13-2.92-2.76v-15.62c0-2.63,2.07-4.35,4.57-4.35h15.33c1.33,0,3.07.96,3.12,2.44l.15,4.18c1.71-.12,3.01.9,3.79,2.38s.92,3.12.15,4.64c-.68,1.35-2.1,2.41-3.96,2.44l-.07,3.92c-.02,1.31-1.43,2.67-2.77,2.69l-3.82.05-.48,2.1,4.11.15c2.33.09,3.34,2.22,2.98,4.42-.16.98,0,1.93.73,2.31.62.33,2.27.41,2.37-.38l.42-3.25c.29-2.27,2.62-3.76,4.57-2.9.34.15.68,1.06.58,1.4-.44,1.39-2.72.15-2.82,1.77-.1,1.52-.11,2.85-.54,4.17-.47,1.43-2.76,2.27-4.05,1.87s-2.56-.8-3.79-.74c-1.62.09-2.5,1.48-2.49,2.74,0,1.38.86,2.56,2.47,2.86,2.59.49,3.99-2.1,6.82.03,1.99,1.5.67,4,1.77,5.93l16.13.02c.87,0,2.39-.37,2.39-1.49l.02-16.3-3.62-.18c-.58,2.74-2.7,4.41-5.18,4.45-2.68.04-4.92-1.88-5.24-4.75-.14-1.26.24-2.68.58-4.08l-4.56-.12c-.71-.02-1.69-.86-2.05-1.41-.43-.66-.54-2.16-.04-2.74.25-.29,1.49-.39,1.62-.04l.65,1.75,4.68.19c1.49.06,2.28,1.25,1.98,2.75ZM57.21,62.24c0-.75.35-1.88.94-2.21.43-.25,1.35-.26,2.05-.29,1.24-.05,1.84-1.44,1.68-2.57-.11-.79-.98-2.11-1.97-1.98-1.2.15-2.55-.09-2.6-1.49l-.2-5.07-16.45-.05c-1.27,0-1.95,1.06-1.95,2.23l.02,15.56,3.97.15c.21-3.09,2.48-4.92,5.26-4.86,2.6.06,4.83,1.86,5.06,4.85l4.14-.06.06-4.19ZM57.08,91.34l.16-3.7c-2.98-.06-5.17-2.34-5.16-5.07.01-2.66,2.09-4.9,5.11-5.16l-.15-3.91-4.72-.11c-1.27-.03-2.26-1.07-2.08-2.49l.48-3.77c.25-1.96-1.57-3.29-3.06-3.18-1.96.15-2.95,1.88-2.49,3.82.67,2.87.44,5.56-1.51,5.61l-4.87.11-.04,16.37c0,.65.98,1.53,1.6,1.53l16.73-.04Z"/>
      <path class="cls-2" d="M75.15,39.8l-27-.02c-.76,0-1.54-1.01-1.54-1.65l.02-5.89c.02-6.39,4.83-11.51,11.47-12.07-3.32-1.58-5.77-4.37-6.4-7.68-.71-3.73.4-7.38,3.22-9.87,4.95-4.37,12.41-3.09,15.7,2.41,3.36,5.6.76,12.61-5.42,15.14,6.43.47,11.21,5.09,11.69,11.27l.09,6.58c-.11.94-.78,1.78-1.82,1.78ZM63.91,17.95c4.7-1.46,6.87-6.38,5.13-10.62-1.71-4.15-6.72-6.28-10.84-4.06-3.76,2.03-5.33,6.26-3.72,10.1,1.47,3.51,5.4,5.84,9.42,4.59ZM74.49,37.37l-.04-5.77c-.34-5.1-4.69-9.15-9.7-9.02l-7.57.2c-4.69.56-8.17,4.8-8.21,9.45l-.05,5.14h25.56Z"/>
      <path class="cls-2" d="M28.73,108.41H1.92c-1.12,0-1.89-.86-1.9-1.96L0,101.21c-.04-6.75,5.29-12.02,11.79-12.39-4.97-2.03-7.65-6.97-6.68-11.8.99-4.92,5.25-8.4,10.32-8.33,4.87.07,9.16,3.77,9.99,8.61.86,4.98-2.05,9.53-6.78,11.56,6.46.42,11.62,5.2,11.68,11.41l.06,6.59c0,.61-.78,1.56-1.66,1.56ZM14.27,71.18c-4.5.56-7.53,4.78-6.84,9.02.67,4.08,4.59,7.24,8.84,6.62,4.15-.61,7.32-4.4,6.79-8.79-.49-4.03-4.2-7.42-8.79-6.85ZM27.99,105.98l.02-4.79c0-4.96-3.77-9.7-8.91-9.81l-6.47-.14c-5.2-.12-10.07,3.72-10.13,9.04l-.06,5.72h25.54Z"/>
      <path class="cls-2" d="M119.07,108.41l-26.67.02c-.96,0-1.63-1.11-1.62-1.91l.09-6.25c.09-6.34,5.29-11.03,11.75-11.43-4.74-1.79-7.63-6.44-6.88-11.39.73-4.89,4.95-8.61,9.86-8.77,5.03-.17,9.42,3.47,10.4,8.21,1.07,5.14-1.8,9.87-6.58,11.95,6.3.59,11.45,5,11.53,11.1l.09,6.53c.02,1.13-.85,1.93-1.97,1.93ZM105.08,71.16c-4.63.52-7.54,4.74-6.95,8.88.61,4.34,4.37,7.26,8.69,6.78s7.47-4.35,6.94-8.74c-.49-4.09-4.16-7.44-8.68-6.93ZM118.71,105.96v-4.75c.02-5.45-4.28-9.99-9.75-9.97l-6.46.02c-5.04.02-9.26,4.37-9.29,9.37l-.03,5.36,25.54-.03Z"/>
      <path class="cls-2" d="M82.25,104.65c.47-.26,1.43-.12,1.58.19.19.38.09,1.19-.17,1.68-13.64,7.96-30.26,8.04-43.99.24-.55-.29-.98-.95-.89-1.38.13-.63,1.14-1.19,1.77-.84,12.95,7.38,28.61,7.52,41.69.11Z"/>
      <path class="cls-2" d="M16.29,60.69c-.08.65-.81,1.16-1.19,1.16-.43,0-1.24-.71-1.17-1.31,1.47-13.88,9.45-26.24,21.58-33.08.46-.26,1.45-.06,1.68.27.27.38.19,1.43-.37,1.74-11.5,6.41-19,18.01-20.53,31.23Z"/>
      <path class="cls-2" d="M106.83,60.32c.09.72-.63,1.46-1,1.53-.43.08-1.29-.41-1.36-1.02-1.46-12.35-8.15-23.43-18.57-30.18-.62-.4-.88-1.14-.67-1.77.16-.46,1.27-.74,1.84-.37,10.94,7.09,18.17,18.66,19.75,31.81Z"/>
      <path class="cls-5" d="M57.08,91.34l-16.73.04c-.61,0-1.6-.88-1.6-1.53l.04-16.37,4.87-.11c1.95-.04,2.18-2.74,1.51-5.61-.46-1.94.53-3.66,2.49-3.82,1.49-.12,3.31,1.21,3.06,3.18l-.48,3.77c-.18,1.41.81,2.46,2.08,2.49l4.72.11.15,3.91c-3.02.26-5.1,2.5-5.11,5.16-.01,2.73,2.18,5.02,5.16,5.07l-.16,3.7Z"/>
      <path class="cls-4" d="M57.21,62.24l-.06,4.19-4.14.06c-.23-2.99-2.46-4.79-5.06-4.85-2.78-.06-5.04,1.77-5.26,4.86l-3.97-.15-.02-15.56c0-1.17.68-2.23,1.95-2.23l16.45.05.2,5.07c.05,1.4,1.4,1.64,2.6,1.49,1-.12,1.87,1.19,1.97,1.98.15,1.13-.44,2.52-1.68,2.57-.7.03-1.62.04-2.05.29-.59.34-.93,1.47-.94,2.21Z"/>
      <path class="cls-5" d="M74.49,37.37h-25.56s.05-5.14.05-5.14c.04-4.65,3.52-8.89,8.21-9.45l7.57-.2c5-.13,9.36,3.92,9.7,9.02l.04,5.77Z"/>
      <path class="cls-4" d="M63.91,17.95c-4.03,1.25-7.95-1.08-9.42-4.59-1.61-3.84-.04-8.07,3.72-10.1,4.12-2.22,9.13-.1,10.84,4.06,1.75,4.25-.43,9.16-5.13,10.62Z"/>
      <path class="cls-3" d="M27.99,105.98H2.45s.06-5.71.06-5.71c.06-5.32,4.93-9.16,10.13-9.04l6.47.14c5.14.11,8.91,4.86,8.91,9.81l-.02,4.79Z"/>
      <path class="cls-1" d="M14.27,71.18c4.59-.57,8.31,2.83,8.79,6.85.53,4.39-2.64,8.18-6.79,8.79-4.26.62-8.18-2.54-8.84-6.62-.69-4.24,2.34-8.46,6.84-9.02Z"/>
      <path class="cls-1" d="M118.71,105.96l-25.54.03.03-5.36c.03-5,4.25-9.35,9.29-9.37l6.46-.02c5.48-.02,9.77,4.52,9.76,9.97v4.75Z"/>
      <path class="cls-3" d="M105.08,71.16c4.52-.51,8.18,2.84,8.68,6.93.53,4.39-2.67,8.27-6.94,8.74s-8.08-2.45-8.69-6.78c-.59-4.14,2.32-8.36,6.95-8.88Z"/>
    </g>
  </g>
</svg>