<?xml version="1.0" encoding="UTF-8"?>
<svg id="Capa_2" data-name="Capa 2" xmlns="http://www.w3.org/2000/svg" xmlns:xlink="http://www.w3.org/1999/xlink" viewBox="0 0 40.79 32.45">
  <defs>
    <style>
      .cls-1 {
        fill: url(#Degradado_sin_nombre_24);
      }

      .cls-1, .cls-2, .cls-3 {
        stroke-width: 0px;
      }

      .cls-2 {
        fill: #fc413d;
      }

      .cls-3 {
        fill: url(#Degradado_sin_nombre_25);
      }
    </style>
    <linearGradient id="Degradado_sin_nombre_25" data-name="Degradado sin nombre 25" x1="36.39" y1="2513.05" x2="36.39" y2="2484.77" gradientTransform="translate(0 2517.22) scale(1 -1)" gradientUnits="userSpaceOnUse">
      <stop offset="0" stop-color="#60d673"/>
      <stop offset=".17" stop-color="#42c868"/>
      <stop offset=".39" stop-color="#0ebc5f"/>
      <stop offset=".62" stop-color="#00a9bb"/>
      <stop offset=".86" stop-color="#3c90ff"/>
      <stop offset="1" stop-color="#3186ff"/>
    </linearGradient>
    <linearGradient id="Degradado_sin_nombre_24" data-name="Degradado sin nombre 24" x1="0" y1="2505.71" x2="40.79" y2="2505.71" gradientTransform="translate(0 2517.22) scale(1 -1)" gradientUnits="userSpaceOnUse">
      <stop offset=".08" stop-color="#ff63a0"/>
      <stop offset=".3" stop-color="#fc413d"/>
      <stop offset=".5" stop-color="#fc413d"/>
      <stop offset=".65" stop-color="#fc413d"/>
      <stop offset=".72" stop-color="#fc5c30"/>
      <stop offset=".86" stop-color="#feb10c"/>
      <stop offset=".91" stop-color="#fec700"/>
      <stop offset=".96" stop-color="#ffdb0f"/>
    </linearGradient>
  </defs>
  <g id="Capa_1-2" data-name="Capa 1">
    <g>
      <path class="cls-3" d="M31.99,4.17h8.81v25.5c0,1.54-1.25,2.78-2.78,2.78h-4.64c-.77,0-1.39-.62-1.39-1.39V4.17Z"/>
      <path class="cls-2" d="M8.81,4.17H0v25.5C0,31.2,1.25,32.45,2.78,32.45h4.64c.77,0,1.39-.62,1.39-1.39V4.17Z"/>
      <path class="cls-1" d="M7.24,1.03C5.38-.53,2.6-.29,1.03,1.57-.53,3.43-.29,6.21,1.57,7.78l17.63,14.82c.69.58,1.7.58,2.39,0l17.63-14.82c1.86-1.56,2.1-4.34.54-6.2-1.56-1.86-4.34-2.1-6.2-.54l-13.16,11.06L7.24,1.03Z"/>
    </g>
  </g>
</svg>