<?xml version="1.0" encoding="UTF-8"?>
<!DOCTYPE svg PUBLIC "-//W3C//DTD SVG 1.1//EN" "http://www.w3.org/Graphics/SVG/1.1/DTD/svg11.dtd">
<!-- Creator: CorelDRAW -->
<svg xmlns="http://www.w3.org/2000/svg" xml:space="preserve" width="14.0834mm" height="9.9321mm" version="1.1" style="shape-rendering:geometricPrecision; text-rendering:geometricPrecision; image-rendering:optimizeQuality; fill-rule:evenodd; clip-rule:evenodd"
viewBox="0 0 1078.3 760.45"
 xmlns:xlink="http://www.w3.org/1999/xlink"
 xmlns:xodm="http://www.corel.com/coreldraw/odm/2003">
 <defs>
  <style type="text/css">
   <![CDATA[
    .fil0 {fill:white;fill-rule:nonzero}
   ]]>
  </style>
 </defs>
 <g id="Capa_x0020_1">
  <metadata id="CorelCorpID_0Corel-Layer"/>
  <path class="fil0" d="M763.92 29.78l-728.47 -29.78 -35.45 77.99 22.28 0 0 275.1 754.6 0.01 0 -275.11 22.28 0 -35.45 -48.42 0.21 0.21zm-377.21 81.84l33.43 0 0 70.7 -33.43 0 0 -70.7zm-55.71 0l33.43 0 0 70.7 -33.43 0 0 -70.7zm-245.32 193.26l-33.43 0 0 -70.7 33.43 0 0 70.7zm0 -122.76l-33.43 0 0 -70.7 33.43 0 0 70.7zm55.71 122.76l-33.43 0 0 -70.7 33.43 0 0 70.7zm0 -122.76l-33.43 0 0 -70.7 33.43 0 0 70.7zm55.71 122.76l-33.43 0 0 -70.7 33.43 0 0 70.7zm0 -122.76l-33.43 0 0 -70.7 33.43 0 0 70.7zm55.71 122.76l-33.42 0 0 -70.7 33.42 0 0 70.7zm0 -122.76l-33.42 0 0 -70.7 33.42 0 0 70.7zm55.92 122.76l-33.43 0 0 -70.7 33.43 0 0 70.7zm0 -122.76l-33.43 0 0 -70.7 33.43 0 0 70.7zm115.26 167.33l-92.98 0 0 -115.27 92.98 0 0 115.27zm52.06 -44.57l-33.42 0 0 -70.7 33.42 0 0 70.7zm0 -122.76l-33.42 0 0 -70.7 33.42 0 0 70.7zm55.71 122.76l-33.42 0 0 -70.7 33.42 0 0 70.7zm0 -122.76l-33.42 0 0 -70.7 33.42 0 0 70.7zm55.71 122.76l-33.42 0 0 -70.7 33.42 0 0 70.7zm0 -122.76l-33.42 0 0 -70.7 33.42 0 0 70.7zm55.71 122.76l-33.42 0 0 -70.7 33.42 0 0 70.7zm0 -122.76l-33.42 0 0 -70.7 33.42 0 0 70.7zm55.92 122.76l-33.43 0 0 -70.7 33.43 0 0 70.7zm0 -122.76l-33.43 0 0 -70.7 33.43 0 0 70.7zm55.71 122.76l-33.43 0 0 -70.7 33.43 0 0 70.7zm0 -122.76l-33.43 0 0 -70.7 33.43 0 0 70.7z"/>
  <path class="fil0" d="M27.52 511.07l27.03 17.92c5.06,-2.23 10.58,-4.1 16.55,-5.61 5.97,-1.52 12.3,-2.28 18.98,-2.28 11.54,0 20.7,2.53 27.48,7.64 6.78,5.06 10.18,12.3 10.18,21.66 0,9.77 -3.19,17.21 -9.57,22.27 -6.38,5.11 -15.03,7.64 -25.96,7.64 -9.51,0 -18.32,-2.02 -26.41,-6.07 -8.1,-4.05 -16.19,-9.72 -24.29,-17.01l-28.24 33.6c10.33,9.87 21.87,17.61 34.62,23.23 12.76,5.62 27.73,8.45 44.94,8.45 12.14,0 23.23,-1.72 33.3,-5.16 10.02,-3.45 18.57,-8.35 25.61,-14.73 7.04,-6.38 12.5,-14.12 16.35,-23.23 3.9,-9.11 5.82,-19.33 5.82,-30.67 0,-12.14 -1.92,-22.52 -5.82,-31.12 -3.84,-8.61 -9.16,-15.63 -15.89,-21.1 -6.73,-5.47 -14.57,-9.52 -23.64,-12.15 -9.06,-2.63 -18.83,-3.94 -29.36,-3.94 -5.86,0 -10.93,0.35 -15.18,1.06 -4.25,0.71 -8.5,1.57 -12.75,2.59l2.43 -36.74 90.75 0 0 -41 -130.83 0 -6.08 104.76zm182.19 0l27.03 17.92c5.06,-2.23 10.58,-4.1 16.55,-5.61 5.97,-1.52 12.3,-2.28 18.98,-2.28 11.54,0 20.7,2.53 27.48,7.64 6.78,5.06 10.18,12.3 10.18,21.66 0,9.77 -3.19,17.21 -9.57,22.27 -6.38,5.11 -15.03,7.64 -25.96,7.64 -9.51,0 -18.32,-2.02 -26.41,-6.07 -8.1,-4.05 -16.19,-9.72 -24.29,-17.01l-28.24 33.6c10.33,9.87 21.87,17.61 34.62,23.23 12.76,5.62 27.73,8.45 44.94,8.45 12.14,0 23.23,-1.72 33.3,-5.16 10.02,-3.45 18.57,-8.35 25.61,-14.73 7.04,-6.38 12.5,-14.12 16.35,-23.23 3.9,-9.11 5.82,-19.33 5.82,-30.67 0,-12.14 -1.92,-22.52 -5.82,-31.12 -3.84,-8.61 -9.16,-15.63 -15.89,-21.1 -6.73,-5.47 -14.57,-9.52 -23.64,-12.15 -9.06,-2.63 -18.83,-3.94 -29.36,-3.94 -5.86,0 -10.93,0.35 -15.18,1.06 -4.25,0.71 -8.5,1.57 -12.75,2.59l2.43 -36.74 90.75 0 0 -41 -130.83 0 -6.08 104.76zm360.15 1.22c0,-15.39 -2.23,-29.76 -6.68,-43.12 -4.45,-13.36 -10.78,-25 -18.98,-34.92 -8.19,-9.92 -18.12,-17.66 -29.75,-23.23 -11.65,-5.57 -24.55,-8.35 -38.72,-8.35 -14.17,0 -27.08,2.84 -38.72,8.51 -11.64,5.67 -21.61,13.46 -29.91,23.38 -8.31,9.92 -14.73,21.61 -19.29,35.07 -4.56,13.46 -6.83,27.89 -6.83,43.27 0,15.59 2.23,30.01 6.68,43.27 4.46,13.26 10.78,24.85 18.98,34.77 8.2,9.92 18.12,17.66 29.76,23.23 11.64,5.57 24.55,8.35 38.72,8.35 14.16,0 27.07,-2.83 38.71,-8.51 11.65,-5.67 21.61,-13.46 29.91,-23.38 8.3,-9.92 14.73,-21.56 19.28,-34.92 4.56,-13.37 6.84,-27.84 6.84,-43.43zm-47.98 0.6c0,9.72 -1.06,18.67 -3.19,26.87 -2.13,8.2 -5.21,15.34 -9.26,21.41 -4.05,6.08 -8.9,10.78 -14.57,14.13 -5.67,3.34 -12.05,5.01 -19.13,5.01 -7.08,0 -13.51,-1.72 -19.29,-5.16 -5.77,-3.45 -10.67,-8.2 -14.72,-14.27 -4.05,-6.07 -7.19,-13.26 -9.42,-21.56 -2.22,-8.3 -3.34,-17.31 -3.34,-27.03 0,-9.72 1.06,-18.73 3.19,-27.03 2.12,-8.3 5.21,-15.44 9.26,-21.41 4.05,-5.97 8.91,-10.63 14.58,-13.97 5.67,-3.35 12.04,-5.02 19.13,-5.02 7.08,0 13.51,1.72 19.28,5.16 5.77,3.45 10.68,8.2 14.73,14.28 4.04,6.07 7.18,13.25 9.41,21.55 2.23,8.31 3.34,17.31 3.34,27.03zm260.56 -0.6c0,-15.39 -2.23,-29.76 -6.68,-43.12 -4.45,-13.36 -10.78,-25 -18.98,-34.92 -8.19,-9.92 -18.12,-17.66 -29.75,-23.23 -11.65,-5.57 -24.55,-8.35 -38.72,-8.35 -14.17,0 -27.08,2.84 -38.72,8.51 -11.64,5.67 -21.61,13.46 -29.91,23.38 -8.31,9.92 -14.73,21.61 -19.29,35.07 -4.56,13.46 -6.83,27.89 -6.83,43.27 0,15.59 2.23,30.01 6.68,43.27 4.46,13.26 10.78,24.85 18.98,34.77 8.2,9.92 18.12,17.66 29.76,23.23 11.64,5.57 24.55,8.35 38.72,8.35 14.16,0 27.07,-2.83 38.71,-8.51 11.65,-5.67 21.61,-13.46 29.91,-23.38 8.3,-9.92 14.73,-21.56 19.28,-34.92 4.56,-13.37 6.84,-27.84 6.84,-43.43zm-47.98 0.6c0,9.72 -1.06,18.67 -3.19,26.87 -2.13,8.2 -5.21,15.34 -9.26,21.41 -4.05,6.08 -8.9,10.78 -14.57,14.13 -5.67,3.34 -12.05,5.01 -19.13,5.01 -7.08,0 -13.51,-1.72 -19.29,-5.16 -5.77,-3.45 -10.67,-8.2 -14.72,-14.27 -4.05,-6.07 -7.19,-13.26 -9.42,-21.56 -2.22,-8.3 -3.34,-17.31 -3.34,-27.03 0,-9.72 1.06,-18.73 3.19,-27.03 2.12,-8.3 5.21,-15.44 9.26,-21.41 4.05,-5.97 8.91,-10.63 14.58,-13.97 5.67,-3.35 12.04,-5.02 19.13,-5.02 7.08,0 13.51,1.72 19.28,5.16 5.77,3.45 10.68,8.2 14.73,14.28 4.04,6.07 7.18,13.25 9.41,21.55 2.23,8.31 3.34,17.31 3.34,27.03zm-605.12 245.81l0 -50.83c0,-9.43 -2.33,-16.56 -6.99,-21.42 -4.66,-4.85 -11.12,-7.28 -19.37,-7.28 -5.34,0 -10.1,1.04 -14.27,3.15 -4.18,2.11 -7.96,5.2 -11.36,9.33 -2.04,-4.03 -4.93,-7.09 -8.67,-9.25 -3.74,-2.17 -8.18,-3.23 -13.33,-3.23 -2.82,0 -5.37,0.34 -7.65,1.02 -2.28,0.7 -4.34,1.62 -6.19,2.79 -1.85,1.19 -3.52,2.52 -5.03,4.03 -1.5,1.53 -2.89,3.11 -4.15,4.79l0 -11.17 -22.13 0 0 78.07 22.13 0 0 -43.45c0,-5.22 1.19,-9.18 3.57,-11.83 2.38,-2.66 5.66,-4 9.83,-4 4.18,0 7.38,1.34 9.62,4 2.24,2.65 3.35,6.61 3.35,11.83l0 43.45 22.13 0 0 -43.45c0,-5.22 1.19,-9.18 3.57,-11.83 2.38,-2.66 5.66,-4 9.83,-4 4.18,0 7.38,1.34 9.62,4 2.24,2.65 3.35,6.61 3.35,11.83l0 43.45 22.13 0zm49.96 -83.17c4.08,0 7.38,1.12 9.91,3.35 2.53,2.24 3.79,5.51 3.79,9.88 0,2.14 -0.32,4.1 -0.95,5.9 -0.63,1.77 -1.65,3.61 -3.05,5.51 -1.41,1.89 -3.23,3.88 -5.47,5.97 -2.24,2.08 -4.95,4.42 -8.15,7.04l-33.94 27.77 0 17.75 75.45 0 0 -19.37 -44.43 0 16.61 -12.82c4.46,-3.5 8.4,-6.73 11.8,-9.69 3.4,-2.96 6.19,-5.95 8.38,-8.96 2.18,-3.02 3.84,-6.19 4.95,-9.54 1.12,-3.35 1.67,-7.17 1.67,-11.44 0,-4.75 -0.8,-9.08 -2.4,-12.96 -1.61,-3.88 -3.94,-7.21 -7,-9.98 -3.05,-2.77 -6.75,-4.91 -11.06,-6.41 -4.33,-1.51 -9.2,-2.26 -14.64,-2.26 -4.56,0 -8.64,0.46 -12.24,1.39 -3.6,0.94 -6.88,2.3 -9.83,4.13 -2.96,1.79 -5.73,4.03 -8.31,6.68 -2.57,2.62 -5.12,5.65 -7.65,9.07l15.73 12.68c3.79,-4.66 7.21,-8.11 10.27,-10.34 3.06,-2.24 6.58,-3.35 10.56,-3.35zm159.36 70.65l-12.96 -13.11c-2.72,2.53 -5.47,4.54 -8.23,6.04 -2.76,1.51 -6,2.26 -9.69,2.26 -3.01,0 -5.73,-0.56 -8.15,-1.68 -2.43,-1.11 -4.52,-2.64 -6.27,-4.59 -1.75,-1.94 -3.08,-4.23 -4,-6.84 -0.92,-2.62 -1.38,-5.44 -1.38,-8.45l0 -0.29c0,-2.92 0.46,-5.66 1.38,-8.23 0.93,-2.57 2.24,-4.83 3.94,-6.78 1.7,-1.94 3.69,-3.47 5.97,-4.59 2.28,-1.12 4.83,-1.68 7.65,-1.68 3.98,0 7.3,0.78 9.98,2.33 2.67,1.55 5.27,3.64 7.79,6.26l13.54 -14.56c-3.69,-4.08 -7.96,-7.28 -12.82,-9.62 -4.85,-2.33 -10.97,-3.49 -18.35,-3.49 -6.03,0 -11.53,1.06 -16.53,3.2 -5.01,2.14 -9.3,5.05 -12.89,8.74 -3.59,3.69 -6.41,8.01 -8.45,12.96 -2.04,4.95 -3.06,10.2 -3.06,15.73l0 0.29c0,5.54 1.02,10.75 3.06,15.66 2.04,4.9 4.85,9.17 8.45,12.82 3.59,3.64 7.89,6.53 12.89,8.67 5,2.14 10.41,3.2 16.24,3.2 7.76,0 14.08,-1.33 18.93,-4 4.85,-2.67 9.17,-6.09 12.96,-10.27zm90.75 -26.36l0 -0.29c0,-5.64 -1.07,-10.9 -3.21,-15.81 -2.14,-4.9 -5.07,-9.17 -8.81,-12.82 -3.74,-3.64 -8.18,-6.5 -13.32,-8.59 -5.15,-2.09 -10.73,-3.13 -16.75,-3.13 -6.12,0 -11.75,1.06 -16.9,3.2 -5.15,2.14 -9.61,5.05 -13.4,8.74 -3.79,3.69 -6.75,7.99 -8.88,12.89 -2.14,4.91 -3.21,10.18 -3.21,15.81l0 0.29c0,5.63 1.07,10.9 3.21,15.8 2.14,4.9 5.07,9.17 8.8,12.82 3.74,3.64 8.18,6.51 13.33,8.59 5.15,2.09 10.73,3.13 16.75,3.13 6.12,0 11.75,-1.06 16.9,-3.2 5.15,-2.14 9.61,-5.05 13.4,-8.74 3.79,-3.69 6.75,-7.99 8.88,-12.89 2.14,-4.91 3.21,-10.18 3.21,-15.8zm-21.85 0.29c0,2.91 -0.46,5.65 -1.38,8.22 -0.93,2.58 -2.26,4.83 -4.01,6.78 -1.75,1.94 -3.86,3.48 -6.33,4.59 -2.48,1.12 -5.31,1.68 -8.52,1.68 -3.11,0 -5.9,-0.58 -8.38,-1.75 -2.47,-1.16 -4.63,-2.74 -6.48,-4.73 -1.85,-1.99 -3.25,-4.27 -4.23,-6.85 -0.97,-2.57 -1.45,-5.31 -1.45,-8.22l0 -0.29c0,-2.92 0.46,-5.66 1.38,-8.23 0.93,-2.57 2.26,-4.83 4,-6.78 1.75,-1.94 3.87,-3.47 6.34,-4.59 2.47,-1.12 5.31,-1.68 8.52,-1.68 3.01,0 5.78,0.58 8.3,1.75 2.53,1.17 4.71,2.75 6.55,4.74 1.85,1.99 3.25,4.27 4.23,6.84 0.97,2.57 1.45,5.31 1.45,8.23l0 0.29zm105.02 38.6l0 -50.54c0,-9.03 -2.3,-16.12 -6.91,-21.27 -4.62,-5.15 -11.15,-7.72 -19.59,-7.72 -2.82,0 -5.34,0.34 -7.57,1.02 -2.24,0.7 -4.27,1.62 -6.12,2.79 -1.85,1.19 -3.52,2.52 -5.03,4.03 -1.5,1.53 -2.89,3.11 -4.15,4.79l0 -11.17 -22.13 0 0 78.07 22.13 0 0 -43.45c0,-5.22 1.24,-9.18 3.71,-11.83 2.48,-2.66 5.86,-4 10.13,-4 4.27,0 7.57,1.34 9.9,4 2.34,2.65 3.5,6.61 3.5,11.83l0 43.45 22.13 0zm72.11 -23.74l0 -0.29c0,-3.59 -0.73,-6.65 -2.18,-9.17 -1.46,-2.53 -3.31,-4.66 -5.54,-6.42 -2.24,-1.75 -4.76,-3.22 -7.57,-4.44 -2.82,-1.21 -5.59,-2.26 -8.31,-3.13 -2.14,-0.68 -4.15,-1.36 -6.04,-2.04 -1.9,-0.68 -3.57,-1.39 -5.03,-2.11 -1.45,-0.73 -2.62,-1.51 -3.49,-2.33 -0.87,-0.83 -1.31,-1.78 -1.31,-2.84l0 -0.29c0,-1.55 0.67,-2.84 2.04,-3.86 1.36,-1.03 3.4,-1.53 6.12,-1.53 2.82,0 6.07,0.65 9.76,1.97 3.68,1.31 7.47,3.08 11.35,5.31l8.45 -15.3c-4.27,-2.81 -8.96,-5.02 -14.06,-6.62 -5.1,-1.6 -10.12,-2.4 -15.08,-2.4 -3.98,0 -7.69,0.54 -11.14,1.6 -3.45,1.07 -6.46,2.67 -9.03,4.81 -2.57,2.14 -4.61,4.73 -6.12,7.79 -1.5,3.05 -2.26,6.58 -2.26,10.56l0 0.29c0,3.79 0.7,6.99 2.11,9.62 1.41,2.62 3.23,4.83 5.47,6.62 2.23,1.8 4.73,3.25 7.5,4.37 2.77,1.12 5.51,2.06 8.23,2.84 2.14,0.68 4.17,1.31 6.12,1.89 1.94,0.58 3.67,1.19 5.17,1.82 1.51,0.63 2.7,1.39 3.58,2.26 0.87,0.87 1.31,1.89 1.31,3.05l0 0.29c0,1.75 -0.76,3.16 -2.26,4.23 -1.51,1.07 -3.86,1.6 -7.07,1.6 -3.69,0 -7.65,-0.77 -11.87,-2.33 -4.23,-1.55 -8.48,-3.88 -12.75,-6.99l-9.46 14.56c5.24,4.08 10.75,7.07 16.53,8.96 5.77,1.9 11.43,2.84 16.97,2.84 4.17,0 8.09,-0.51 11.73,-1.53 3.64,-1.02 6.82,-2.54 9.54,-4.59 2.72,-2.04 4.83,-4.63 6.33,-7.79 1.51,-3.15 2.26,-6.91 2.26,-11.29zm55.35 20.53l0 -17.76c-3.4,1.85 -7.04,2.76 -10.93,2.76 -4.75,0 -7.14,-2.53 -7.14,-7.57l0 -33.36 18.35 0 0 -18.93 -18.35 0 0 -19.95 -22.14 0 0 19.95 -9.32 0 0 18.93 9.32 0 0 37c0,4.56 0.56,8.33 1.68,11.29 1.12,2.96 2.67,5.36 4.66,7.2 1.99,1.85 4.36,3.13 7.14,3.87 2.76,0.73 5.85,1.09 9.25,1.09 3.69,0 6.94,-0.41 9.76,-1.23 2.81,-0.83 5.38,-1.92 7.72,-3.28zm59.28 -53.16l0 -23.16c-6.6,-0.29 -11.84,1.16 -15.73,4.37 -3.89,3.2 -6.94,7.47 -9.18,12.82l0 -15.73 -22.13 0 0 78.07 22.13 0 0 -28.84c0,-9.42 2.11,-16.36 6.34,-20.83 4.23,-4.47 10.02,-6.7 17.4,-6.7l1.16 0zm80.4 56.37l0 -78.07 -22.13 0 0 43.46c0,5.21 -1.24,9.17 -3.71,11.82 -2.48,2.67 -5.86,4 -10.13,4 -4.27,0 -7.57,-1.33 -9.9,-4 -2.34,-2.65 -3.5,-6.61 -3.5,-11.82l0 -43.46 -22.13 0 0 50.54c0,9.03 2.3,16.12 6.91,21.27 4.62,5.15 11.15,7.72 19.59,7.72 2.82,0 5.34,-0.34 7.57,-1.02 2.24,-0.7 4.27,-1.62 6.12,-2.79 1.85,-1.19 3.52,-2.52 5.02,-4.03 1.51,-1.53 2.89,-3.11 4.16,-4.79l0 11.17 22.13 0zm39.19 -86.66l0 -19.67 -23.31 0 0 19.67 23.31 0zm-0.59 86.66l0 -78.07 -22.13 0 0 78.07 22.13 0zm94.97 0l0 -106.33 -22.14 0 0 38.36c-2.63,-3.09 -5.85,-5.77 -9.69,-8.09 -3.84,-2.3 -8.71,-3.47 -14.64,-3.47 -4.66,0 -9.13,0.87 -13.4,2.62 -4.27,1.75 -8.04,4.35 -11.29,7.79 -3.25,3.45 -5.87,7.67 -7.86,12.67 -1.99,5 -2.99,10.76 -2.99,17.27l0 0.29c0,6.5 1,12.26 2.99,17.26 1.99,5 4.64,9.23 7.94,12.67 3.3,3.45 7.09,6.05 11.36,7.79 4.27,1.75 8.69,2.62 13.25,2.62 5.83,0 10.66,-1.19 14.49,-3.54 3.84,-2.35 7.11,-5.36 9.83,-9.03l0 11.12 22.14 0zm-21.85 -38.89c0,3.22 -0.51,6.19 -1.53,8.86 -1.02,2.7 -2.38,5 -4.07,6.89 -1.7,1.92 -3.69,3.38 -5.97,4.42 -2.28,1.03 -4.74,1.53 -7.36,1.53 -2.63,0 -5.08,-0.51 -7.36,-1.53 -2.28,-1.04 -4.3,-2.5 -6.04,-4.42 -1.75,-1.89 -3.13,-4.2 -4.16,-6.89 -1.02,-2.67 -1.52,-5.64 -1.52,-8.86l0 -0.29c0,-3.33 0.51,-6.32 1.52,-8.94 1.03,-2.65 2.4,-4.93 4.16,-6.82 1.75,-1.92 3.76,-3.38 6.04,-4.42 2.28,-1.02 4.73,-1.53 7.36,-1.53 2.62,0 5.08,0.51 7.36,1.53 2.28,1.04 4.27,2.5 5.97,4.42 1.69,1.89 3.05,4.2 4.07,6.89 1.02,2.67 1.53,5.64 1.53,8.87l0 0.29zm117.98 0l0 -0.29c0,-5.64 -1.07,-10.9 -3.21,-15.81 -2.14,-4.9 -5.07,-9.17 -8.81,-12.82 -3.74,-3.64 -8.18,-6.5 -13.32,-8.59 -5.15,-2.09 -10.73,-3.13 -16.75,-3.13 -6.12,0 -11.75,1.06 -16.9,3.2 -5.15,2.14 -9.61,5.05 -13.4,8.74 -3.79,3.69 -6.75,7.99 -8.88,12.89 -2.14,4.91 -3.21,10.18 -3.21,15.81l0 0.29c0,5.63 1.07,10.9 3.21,15.8 2.14,4.9 5.07,9.17 8.8,12.82 3.74,3.64 8.18,6.51 13.33,8.59 5.15,2.09 10.73,3.13 16.75,3.13 6.12,0 11.75,-1.06 16.9,-3.2 5.15,-2.14 9.61,-5.05 13.4,-8.74 3.79,-3.69 6.75,-7.99 8.88,-12.89 2.14,-4.91 3.21,-10.18 3.21,-15.8zm-21.85 0.29c0,2.91 -0.46,5.65 -1.38,8.22 -0.93,2.58 -2.26,4.83 -4.01,6.78 -1.75,1.94 -3.86,3.48 -6.33,4.59 -2.48,1.12 -5.31,1.68 -8.52,1.68 -3.11,0 -5.9,-0.58 -8.38,-1.75 -2.47,-1.16 -4.63,-2.74 -6.48,-4.73 -1.85,-1.99 -3.25,-4.27 -4.23,-6.85 -0.97,-2.57 -1.45,-5.31 -1.45,-8.22l0 -0.29c0,-2.92 0.46,-5.66 1.38,-8.23 0.93,-2.57 2.26,-4.83 4,-6.78 1.75,-1.94 3.87,-3.47 6.34,-4.59 2.47,-1.12 5.31,-1.68 8.52,-1.68 3.01,0 5.78,0.58 8.3,1.75 2.53,1.17 4.71,2.75 6.55,4.74 1.85,1.99 3.25,4.27 4.23,6.84 0.97,2.57 1.45,5.31 1.45,8.23l0 0.29zm90.75 14.85l0 -0.29c0,-3.59 -0.73,-6.65 -2.18,-9.17 -1.46,-2.53 -3.31,-4.66 -5.54,-6.42 -2.24,-1.75 -4.76,-3.22 -7.57,-4.44 -2.82,-1.21 -5.59,-2.26 -8.31,-3.13 -2.14,-0.68 -4.15,-1.36 -6.04,-2.04 -1.9,-0.68 -3.57,-1.39 -5.03,-2.11 -1.45,-0.73 -2.62,-1.51 -3.49,-2.33 -0.87,-0.83 -1.31,-1.78 -1.31,-2.84l0 -0.29c0,-1.55 0.67,-2.84 2.04,-3.86 1.36,-1.03 3.4,-1.53 6.12,-1.53 2.82,0 6.07,0.65 9.76,1.97 3.68,1.31 7.47,3.08 11.35,5.31l8.45 -15.3c-4.27,-2.81 -8.96,-5.02 -14.06,-6.62 -5.1,-1.6 -10.12,-2.4 -15.08,-2.4 -3.98,0 -7.69,0.54 -11.14,1.6 -3.45,1.07 -6.46,2.67 -9.03,4.81 -2.57,2.14 -4.61,4.73 -6.12,7.79 -1.5,3.05 -2.26,6.58 -2.26,10.56l0 0.29c0,3.79 0.7,6.99 2.11,9.62 1.41,2.62 3.23,4.83 5.47,6.62 2.23,1.8 4.73,3.25 7.5,4.37 2.77,1.12 5.51,2.06 8.23,2.84 2.14,0.68 4.17,1.31 6.12,1.89 1.94,0.58 3.67,1.19 5.17,1.82 1.51,0.63 2.7,1.39 3.58,2.26 0.87,0.87 1.31,1.89 1.31,3.05l0 0.29c0,1.75 -0.76,3.16 -2.26,4.23 -1.51,1.07 -3.86,1.6 -7.07,1.6 -3.69,0 -7.65,-0.77 -11.87,-2.33 -4.23,-1.55 -8.48,-3.88 -12.75,-6.99l-9.46 14.56c5.24,4.08 10.75,7.07 16.53,8.96 5.77,1.9 11.43,2.84 16.97,2.84 4.17,0 8.09,-0.51 11.73,-1.53 3.64,-1.02 6.82,-2.54 9.54,-4.59 2.72,-2.04 4.83,-4.63 6.33,-7.79 1.51,-3.15 2.26,-6.91 2.26,-11.29z"/>
 </g>
</svg>
