<?xml version="1.0" encoding="UTF-8"?>
<svg id="Capa_2" data-name="Capa 2" xmlns="http://www.w3.org/2000/svg" viewBox="0 0 27.24 26.9">
  <defs>
    <style>
      .cls-1 {
        fill: #fff;
        stroke-width: 0px;
      }
    </style>
  </defs>
  <g id="Capa_1-2" data-name="Capa 1">
    <g>
      <path class="cls-1" d="M13.45,0C6.02,0,0,6.02,0,13.45s6.02,13.45,13.45,13.45,13.45-6.02,13.45-13.45S20.88,0,13.45,0ZM13.45,26.28C6.37,26.28.62,20.53.62,13.45S6.37.62,13.45.62s12.83,5.74,12.83,12.83-5.74,12.83-12.83,12.83Z"/>
      <path class="cls-1" d="M11.54.6s-4.53.59-7.61,4.13c0,0,2.37-2.47,3.82-2.47l.32.14s-.05.12-.09.17c-.05.05-.23.29-.23.36s.02.26.02.26l-.11.15s-.11.05-.14.09c-.03.05-.09.06-.09.17s.03.25.03.25l.02.26-.08.15-.2.12s-.23.05-.32,0c-.09-.05-.12-.23-.12-.23l.26-.17s.03-.05-.05-.09c-.08-.05-.06-.2-.2-.17-.14.03-.35.22-.35.22l-.23.15s-.11.28-.06.28.17.08.17.08c0,0,.03.08.03.15s-.08.23-.08.23c0,0-.05.08-.2.05-.15-.03-.29-.06-.39-.09-.09-.03-.18-.08-.28-.05-.09.03-.12.06-.14.11-.02.05-.34.23-.34.23,0,0-.11.05-.11.11s-.09.29-.09.29c0,0-.11.11-.31.16-.2.05-.25.11-.25.11l-.11.23s-.15.11-.26.25c-.11.14-.43.37-.48.38-.05.01-.17.15-.22.28-.05.12-.03.31-.08.37-.05.06-.11.23-.12.35-.01.12-.09.28-.15.32-.06.05-.16.14-.2.15-.05.02-.32.11-.42.17-.09.06-.14.22-.14.26s.14.15.19.15c.05,0,.18.05.18.05,0,0,.01.25.01.29s-.09.28,0,.28.23.03.23.03l.25.06.22.14.12.09s-.03.14-.06.19c-.03.05-.09.15-.14.14-.05-.02-.03-.02-.08-.12-.05-.11-.03-.15-.14-.18-.11-.03-.22.08-.26.05-.05-.03-.12-.03-.2-.11-.08-.08-.09.06-.08-.08.02-.14.08-.2.05-.26-.03-.06-.12-.2-.18-.2s.03.12-.06,0c-.09-.12-.15-.17-.2-.15-.05.02-.11.03-.11-.05s.05-.23.05-.31.05-.2.05-.26.06-.43.06-.43c0,0-.41.81-.55,1.42,0,0,.16-.02.16.08s.04.2.02.31c-.02.1-.02.08-.02.41s.08.41.04.51c-.04.1-.1.25-.12.37-.02.12.08.43.12.49.04.06.04.08.1.14.06.06-.1.31.06.06.16-.25.23-.35.23-.35l.1-.12s0-.16.21-.12c.21.04.23,0,.29.08.06.08-.08.29.02.31.1.02.41-.12.49-.1.08.02.18.04.22.18.04.14.1.35.19.39.08.04.06.22.1.35.04.12.33.21.39.21s.35.04.43.08c.08.04,0,.19.16.23.17.04.21.37.21.37,0,0,.06.29.02.37-.04.08-.02.23.08.25.1.02.37.06.37.06,0,0-.14.2.08.29.23.08.45.16.51.21.06.04-.14.23.12.21.27-.02.51-.06.64.04.12.1.02.25.35.43.33.18.43.25.51.29.08.04.25.02.21.27-.04.25-.08.41-.21.51-.12.1-.29.43-.37.53-.08.1-.16.29-.08.45.08.16.18.35.18.45s.04.41-.02.53c-.06.12-.18.35-.18.35,0,0,.23.19.06.35-.16.16-.41.35-.53.39-.12.04-.37.27-.37.27,0,0,.02.51,0,.62-.02.1-.49.92-.33,1.11.16.19.18.39.14.51-.04.12-.1.1-.14.2-.04.1-.35.02-.17.31.19.29.29.35.37.51.08.16.06.23.18.39.12.16.18.33.33.45.14.12.31.21.31.35s.31.47-.06.23c-.37-.25-.04-.02-.51-.41-.47-.39-.59-.23-.8-.47-.21-.25.1.62-.29-.41-.39-1.03-.49-.9-.6-1.13-.1-.23-.02.02-.31-.49s-.04-.18-.29-.51c-.25-.33-.27.12-.39-.47-.12-.59-.14-.2-.31-.88-.16-.68.12-.7-.25-1.03-.37-.33-.35-.16-.47-.39-.12-.23.04-.02-.29-.6-.33-.58-.78-.8-.76-1.79.02-.99.02-1.15.02-1.15,0,0-.49-.39-.33-.97.16-.58.23-.39.16-.58-.06-.18-.12-.14-.29-.37-.17-.23-.19-.2-.23-.35-.04-.14-.1-.45-.1-.45l-.12.1s-1.32,12.99,11.63,14.9c0,0-2.99-.65-3.24-1.23,0,0-.06-.55.06-.55s.31.09.49-.06c.18-.15.4-.34.4-.34l.03.25s-.18.03.4-.06c.59-.09.59-.03.8-.12.22-.09.46-.55.58-.28.12.28-.15.15.12.28.28.12.8-.06.8-.06,0,0,.89.06.99-.03.09-.09.09-.25.25-.22.15.03.25.28.25.28l-.49.28-.46.34s-.22.06-.03.15c.19.09.28.06.49.09.22.03.74.43.86.19.12-.25.15-.28.25-.43.09-.16.06-.34.28-.34s.43.06.43.06l-.19.4s.37-.03.52-.03.19.25.4.03c.22-.22.25-.22.46-.25.22-.03.52-.12.62-.09.09.03.28.06.37.06s.55.34.65.28c.09-.06.65-.03.65-.03,0,0-1.51,1.39-4.71,1.45,0,0,7.17.33,11.2-6.66,4.03-6.99,1.23-15.95-7.97-19.07,0,0,6.88,2.55,8.7,9.14l-.06.12c-.19-.19-.19-.09-.34-.4-.15-.31-.03-.25-.15-.46-.12-.22-.09-.06-.25-.28-.15-.22-.19-.18-.31-.31-.12-.12-.25-.52-.34-.65-.09-.12-.37-.15-.49-.18-.12-.03-.06-.19-.12-.03-.06.15.18.4.18.4v.49s.18.46.18.59-.15.46-.15.46c0,0-.06.37-.18.43-.12.06-.83.18-.83.18,0,0-.22-.25-.34-.46-.12-.22-.52-.28-.58-.37-.06-.09.09-.28-.09-.52-.18-.25,0-.18-.25-.4l-.25-.22s-.55-.19-.37.12c.18.31-.03.65.12.68.15.03.25-.09.37.19.12.28.15.4.25.49.09.09.12.49.25.52.12.03.46,0,.43.15-.03.15-.22.37,0,.43.22.06.25.15.37.12.12-.03.06.03.28-.06.21-.09.46-.09.46-.09,0,0,.28.22.28.31s-.09.62-.09.62l-.28.52s.03.92-.12.92-.34.4-.43.46c-.09.06-.12.68-.12.68l-.28.34s-.03.46,0,.59c.03.12.09.62.03.86-.06.25-.4.49-.4.49,0,0,.46.43.21.49-.25.06-.49.43-.55.52-.06.09-.03.28-.18.31-.16.03-.43.06-.43.15v.46l-.49.71-.59.49s.06.34-.12.37c-.18.03-.8.28-.89.37-.09.09-.55.31-.71.31s.09.43-.15,0c-.25-.43-.06-.15-.28-.65-.22-.49-.22-.12-.22-.49s.03-.03,0-.37c-.03-.34.09-.09-.09-.49-.18-.4-.15-.28-.4-.52-.25-.25-.43,0-.28-.4.15-.4.06,0,.15-.4.09-.4-.03-.46.22-.65.25-.19.46-.22.43-.46-.03-.25-.03-.34-.09-.49-.06-.16-.31-.4-.34-.49-.03-.09-.03-.03-.22-.31-.18-.28-.31-.43-.31-.43,0,0-.06-.65-.06-.89s-.09.15,0-.25c.09-.4.12-.65.12-.65,0,0-.46-.31-.65-.28-.19.03-.15.31-.43.09-.28-.22-.22-.37-.31-.43-.09-.06-.28-.09-.43.03-.15.12-.49.12-.77.25-.28.12-.37.09-.74.09s-.8.12-1.08-.03c-.28-.15-.31.06-.43-.25-.12-.31,0-.28-.28-.43-.28-.15-.34-.03-.37-.31-.03-.28.12-.22-.09-.46-.22-.25.12.12-.22-.25-.34-.37-.46-.06-.34-.37.12-.31.22-.12.22-.49s.55.15.22-.59c-.34-.74-.4-.59-.09-1.14.31-.55.71-.74.77-.86.06-.12.18-.43.31-.52.12-.09.03-.19.31-.15.28.03.59-.09.77-.28.18-.18.43-.46.56-.49.12-.03.06.03.34-.03.28-.06.34-.09.52-.09s-.19.06.34-.03c.53-.09.4-.09.53-.09s.06.03.28.06c.22.03.19-.43.22.03.03.46-.18.68.19.71.37.03,0,.03.37.03s.28.06.46.15c.19.09.28.22.55.22s-.12.4.28,0c.4-.4-.31-.46.4-.4.71.06.8.22.92.15.12-.06.15.06.46-.09.31-.15.34-.15.46-.09.12.06.12.34.25.06.12-.28.37-.19,0-.37-.37-.19-.49.03-.55-.22-.06-.25.31-.19-.06-.25-.37-.06-.31-.06-.58-.15-.28-.09-.56.28-.65,0-.09-.28-.62.19-.09-.28.52-.46.31-.65.65-.55.34.09.25.4.46.22.22-.19.62-.31.22-.59-.4-.28-.12-.15-.52-.34-.4-.19-.77.71-.95.59-.18-.12-.28-.22-.4-.15-.12.06-.12.4-.15.65-.03.25.22.31-.18.12-.4-.18.43-.09-.46-.43-.89-.34-1.2-.25-1.32-.12-.12.12-.31.09-.4.18-.09.09.28.31-.09.09-.37-.22-.74.12-.74.12,0,0-.12-.06-.28.06-.15.12-.46.22-.65.15-.19-.06-.59.06-.25-.37.34-.43.09-.18.62-.4.52-.22,1.3-.25.62-.4s.37-.15-.52-.59c-.89-.43-.92.16-.89-.43.03-.59-.06-.62-.25-.59-.18.03-.74.15-.96.19-.22.03.03.22-.37-.03-.4-.25-.56.12-.4-.25.16-.37.19-.43.43-.65.25-.22.18-1.02.8-.71.62.31.37.22.86.25.49.03.71-.06.71-.15s-.56-.37-.56-.37c0,0-.18.06-.12-.03.06-.09.19-.28.19-.28l-.19-.15s-1.72,0-2.16.09Z"/>
    </g>
  </g>
</svg>