<?xml version="1.0" encoding="UTF-8"?>
<!DOCTYPE svg PUBLIC "-//W3C//DTD SVG 1.1//EN" "http://www.w3.org/Graphics/SVG/1.1/DTD/svg11.dtd">
<!-- Creator: CorelDRAW -->
<svg xmlns="http://www.w3.org/2000/svg" xml:space="preserve" width="13.8095mm" height="9.4558mm" version="1.1" style="shape-rendering:geometricPrecision; text-rendering:geometricPrecision; image-rendering:optimizeQuality; fill-rule:evenodd; clip-rule:evenodd"
viewBox="0 0 1858.81 1272.78"
 xmlns:xlink="http://www.w3.org/1999/xlink"
 xmlns:xodm="http://www.corel.com/coreldraw/odm/2003">
 <defs>
  <style type="text/css">
   <![CDATA[
    .fil0 {fill:white;fill-rule:nonzero}
   ]]>
  </style>
 </defs>
 <g id="Capa_x0020_1">
  <metadata id="CorelCorpID_0Corel-Layer"/>
  <path class="fil0" d="M211.72 404.25l-205 237.56 13.35 58.19 182.58 0 0 80.61 78.47 0 0 -80.61 50.18 0 0 -66.72 -50.18 0 0 -229.03 -69.4 0zm-9.07 229.03l-99.3 0 99.3 -116.39 0 116.39zm-75.12 371.14l-22.79 -23.04c-4.78,4.44 -9.61,7.98 -14.47,10.62 -4.86,2.65 -10.54,3.97 -17.03,3.97 -5.29,0 -10.07,-0.98 -14.34,-2.95 -4.28,-1.95 -7.94,-4.64 -11.02,-8.06 -3.07,-3.42 -5.41,-7.43 -7.04,-12.03 -1.62,-4.6 -2.42,-9.56 -2.42,-14.85l0 -0.51c0,-5.13 0.81,-9.95 2.42,-14.47 1.63,-4.52 3.93,-8.49 6.92,-11.91 2.99,-3.42 6.49,-6.1 10.5,-8.06 4.01,-1.97 8.49,-2.95 13.45,-2.95 7,0 12.84,1.37 17.54,4.09 4.7,2.73 9.26,6.41 13.7,11.01l23.81 -25.6c-6.49,-7.17 -14,-12.8 -22.53,-16.91 -8.53,-4.09 -19.29,-6.14 -32.26,-6.14 -10.59,0 -20.27,1.87 -29.06,5.63 -8.8,3.76 -16.35,8.88 -22.67,15.37 -6.31,6.49 -11.27,14.08 -14.85,22.79 -3.59,8.71 -5.38,17.93 -5.38,27.66l0 0.51c0,9.73 1.79,18.9 5.38,27.53 3.58,8.61 8.53,16.13 14.85,22.53 6.31,6.39 13.86,11.48 22.67,15.24 8.79,3.76 18.31,5.63 28.55,5.63 13.65,0 24.75,-2.34 33.29,-7.04 8.53,-4.7 16.13,-10.71 22.79,-18.05zm145.72 -42.76l0 -0.51c0,-9.73 -1.33,-19.07 -3.97,-28.04 -2.65,-8.96 -6.74,-16.91 -12.29,-23.81 -5.56,-6.92 -12.5,-12.42 -20.88,-16.53 -8.36,-4.09 -18.27,-6.14 -29.71,-6.14 -10.07,0 -19.25,1.87 -27.53,5.63 -8.28,3.76 -15.4,8.88 -21.38,15.37 -5.98,6.49 -10.63,14.08 -13.96,22.79 -3.32,8.71 -4.99,17.93 -4.99,27.66l0 0.51c0,10.58 1.79,20.18 5.38,28.81 3.58,8.61 8.57,16.09 14.97,22.4 6.41,6.33 14,11.19 22.8,14.6 8.79,3.41 18.31,5.11 28.55,5.11 12.46,0 23.3,-2.26 32.52,-6.78 9.22,-4.52 17.07,-10.8 23.56,-18.82l-22.28 -19.72c-5.46,4.95 -10.75,8.53 -15.88,10.75 -5.11,2.22 -10.92,3.32 -17.4,3.32 -8.71,0 -16,-2.26 -21.9,-6.78 -5.88,-4.52 -9.77,-11.23 -11.64,-20.1l95.51 0c0.16,-1.88 0.3,-3.5 0.38,-4.87 0.08,-1.36 0.13,-2.99 0.13,-4.86zm-37.9 -14.59l-58.63 0c1.53,-8.88 4.82,-15.96 9.85,-21.25 5.03,-5.3 11.66,-7.94 19.84,-7.94 8.2,0 14.77,2.69 19.72,8.06 4.95,5.38 8.02,12.42 9.22,21.13zm141.86 -19.72l0 -40.72c-11.6,-0.51 -20.82,2.05 -27.65,7.69 -6.84,5.63 -12.21,13.14 -16.14,22.53l0 -27.66 -38.91 0 0 137.26 38.91 0 0 -50.71c0,-16.56 3.72,-28.76 11.15,-36.61 7.43,-7.86 17.62,-11.78 30.6,-11.78l2.05 0zm93.72 93.46l0 -31.23c-5.98,3.24 -12.38,4.86 -19.21,4.86 -8.36,0 -12.55,-4.44 -12.55,-13.31l0 -58.65 32.26 0 0 -33.29 -32.26 0 0 -35.08 -38.93 0 0 35.08 -16.38 0 0 33.29 16.38 0 0 65.04c0,8.02 0.98,14.64 2.95,19.85 1.97,5.21 4.7,9.42 8.2,12.67 3.5,3.24 7.67,5.51 12.55,6.8 4.86,1.28 10.28,1.91 16.26,1.91 6.49,0 12.21,-0.73 17.16,-2.17 4.94,-1.45 9.46,-3.38 13.57,-5.77zm63.26 -146.72l0 -34.58 -40.97 0 0 34.58 40.97 0zm-1.04 152.36l0 -137.26 -38.91 0 0 137.26 38.91 0zm168.5 -152.36l0 -34.58 -40.97 0 0 34.58 40.97 0zm-94.49 16.64l0 -5.37c0,-9.91 4.7,-14.86 14.08,-14.86 3.42,0 6.49,0.31 9.22,0.9 2.73,0.59 5.55,1.41 8.45,2.44l0 -32.26c-3.59,-1.2 -7.55,-2.14 -11.91,-2.83 -4.35,-0.67 -9.6,-1.02 -15.75,-1.02 -13.82,0 -24.36,3.54 -31.62,10.63 -7.26,7.08 -10.89,18.23 -10.89,33.41l0 8.71 -16.13 0 0 32.01 16.13 0 0 103.97 38.93 0 0 -103.97 30.99 0 0 -31.75 -31.5 0zm93.47 135.72l0 -137.26 -38.93 0 0 137.26 38.93 0zm142.1 -22.02l-22.79 -23.04c-4.78,4.44 -9.61,7.98 -14.47,10.62 -4.86,2.65 -10.54,3.97 -17.03,3.97 -5.29,0 -10.07,-0.98 -14.34,-2.95 -4.28,-1.95 -7.94,-4.64 -11.02,-8.06 -3.07,-3.42 -5.41,-7.43 -7.04,-12.03 -1.62,-4.6 -2.42,-9.56 -2.42,-14.85l0 -0.51c0,-5.13 0.81,-9.95 2.42,-14.47 1.63,-4.52 3.93,-8.49 6.92,-11.91 2.99,-3.42 6.49,-6.1 10.5,-8.06 4.01,-1.97 8.49,-2.95 13.45,-2.95 7,0 12.84,1.37 17.54,4.09 4.7,2.73 9.26,6.41 13.7,11.01l23.81 -25.6c-6.49,-7.17 -14,-12.8 -22.53,-16.91 -8.53,-4.09 -19.29,-6.14 -32.26,-6.14 -10.59,0 -20.27,1.87 -29.06,5.63 -8.8,3.76 -16.35,8.88 -22.67,15.37 -6.31,6.49 -11.27,14.08 -14.85,22.79 -3.59,8.71 -5.38,17.93 -5.38,27.66l0 0.51c0,9.73 1.79,18.9 5.38,27.53 3.58,8.61 8.53,16.13 14.85,22.53 6.31,6.39 13.86,11.48 22.67,15.24 8.79,3.76 18.31,5.63 28.55,5.63 13.65,0 24.75,-2.34 33.29,-7.04 8.53,-4.7 16.13,-10.71 22.79,-18.05zm135.73 22.02l0 -79.63c0,-18.62 -4.87,-33.13 -14.6,-43.54 -9.73,-10.4 -25.27,-15.61 -46.6,-15.61 -11.6,0 -21.51,1.02 -29.71,3.07 -8.2,2.05 -16.04,4.7 -23.56,7.94l9.73 29.71c6.31,-2.4 12.33,-4.23 18.05,-5.51 5.72,-1.28 12.33,-1.92 19.84,-1.92 9.73,0 17.08,2.14 22.02,6.41 4.95,4.27 7.43,10.5 7.43,18.68l0 2.32c-4.95,-1.71 -10.03,-3.08 -15.24,-4.11 -5.21,-1.02 -11.31,-1.53 -18.31,-1.53 -8.2,0 -15.67,0.9 -22.41,2.69 -6.74,1.79 -12.55,4.48 -17.4,8.06 -4.87,3.58 -8.67,8.12 -11.4,13.57 -2.73,5.46 -4.09,11.95 -4.09,19.46l0 0.51c0,6.84 1.24,12.85 3.72,18.05 2.48,5.21 5.84,9.61 10.11,13.19 4.27,3.59 9.26,6.27 14.98,8.06 5.72,1.8 11.82,2.69 18.31,2.69 9.57,0 17.67,-1.57 24.34,-4.74 6.65,-3.15 12.37,-7.38 17.15,-12.67l0 14.85 37.65 0zm-36.88 -48.4c0,7.17 -2.77,12.98 -8.32,17.42 -5.55,4.44 -12.94,6.66 -22.16,6.66 -6.31,0 -11.43,-1.45 -15.36,-4.36 -3.93,-2.89 -5.9,-7 -5.9,-12.29l0 -0.51c0,-6.14 2.4,-10.84 7.17,-14.08 4.78,-3.24 11.35,-4.87 19.72,-4.87 4.78,0 9.26,0.47 13.45,1.41 4.17,0.94 7.98,2.18 11.39,3.72l0 6.91zm200.76 48.4l0 -186.94 -38.93 0 0 67.44c-4.62,-5.42 -10.28,-10.15 -17.03,-14.21 -6.74,-4.05 -15.32,-6.1 -25.74,-6.1 -8.2,0 -16.04,1.53 -23.56,4.6 -7.51,3.08 -14.13,7.65 -19.85,13.7 -5.72,6.06 -10.32,13.49 -13.82,22.28 -3.5,8.79 -5.25,18.91 -5.25,30.35l0 0.51c0,11.43 1.75,21.55 5.25,30.34 3.5,8.79 8.16,16.22 13.96,22.28 5.8,6.06 12.46,10.63 19.98,13.7 7.51,3.07 15.28,4.6 23.3,4.6 10.24,0 18.74,-2.09 25.48,-6.23 6.74,-4.13 12.5,-9.42 17.28,-15.87l0 19.54 38.93 0zm-38.42 -68.37c0,5.67 -0.9,10.88 -2.69,15.57 -1.79,4.74 -4.19,8.79 -7.16,12.11 -2.99,3.38 -6.49,5.94 -10.5,7.77 -4.01,1.8 -8.33,2.69 -12.94,2.69 -4.62,0 -8.92,-0.89 -12.94,-2.69 -4.01,-1.83 -7.55,-4.39 -10.62,-7.77 -3.08,-3.32 -5.51,-7.38 -7.31,-12.11 -1.79,-4.7 -2.68,-9.91 -2.68,-15.57l0 -0.51c0,-5.86 0.89,-11.1 2.68,-15.71 1.8,-4.66 4.23,-8.67 7.31,-11.99 3.07,-3.38 6.61,-5.94 10.62,-7.77 4.01,-1.79 8.32,-2.69 12.94,-2.69 4.6,0 8.92,0.9 12.94,2.69 4.01,1.83 7.51,4.39 10.5,7.77 2.97,3.32 5.37,7.38 7.16,12.11 1.79,4.7 2.69,9.91 2.69,15.59l0 0.51zm207.41 0l0 -0.51c0,-9.91 -1.88,-19.17 -5.64,-27.8 -3.76,-8.61 -8.91,-16.13 -15.49,-22.53 -6.57,-6.39 -14.38,-11.43 -23.42,-15.1 -9.05,-3.67 -18.87,-5.51 -29.45,-5.51 -10.75,0 -20.66,1.87 -29.71,5.63 -9.05,3.76 -16.89,8.88 -23.56,15.37 -6.66,6.49 -11.86,14.04 -15.61,22.65 -3.76,8.63 -5.64,17.89 -5.64,27.8l0 0.51c0,9.89 1.88,19.15 5.64,27.78 3.76,8.61 8.91,16.13 15.48,22.53 6.58,6.39 14.39,11.44 23.43,15.1 9.05,3.67 18.87,5.51 29.45,5.51 10.75,0 20.66,-1.87 29.71,-5.63 9.05,-3.76 16.89,-8.88 23.56,-15.37 6.66,-6.49 11.86,-14.04 15.61,-22.65 3.76,-8.63 5.64,-17.89 5.64,-27.78zm-38.42 0.51c0,5.11 -0.81,9.93 -2.42,14.46 -1.63,4.54 -3.97,8.49 -7.05,11.91 -3.07,3.42 -6.78,6.11 -11.13,8.06 -4.36,1.97 -9.34,2.95 -14.98,2.95 -5.46,0 -10.36,-1.02 -14.73,-3.07 -4.35,-2.05 -8.14,-4.82 -11.39,-8.32 -3.24,-3.5 -5.72,-7.51 -7.43,-12.05 -1.71,-4.52 -2.56,-9.34 -2.56,-14.46l0 -0.51c0,-5.13 0.81,-9.95 2.42,-14.47 1.63,-4.52 3.97,-8.49 7.04,-11.91 3.08,-3.42 6.8,-6.1 11.15,-8.06 4.35,-1.97 9.34,-2.95 14.98,-2.95 5.29,0 10.16,1.02 14.59,3.07 4.44,2.06 8.28,4.83 11.52,8.33 3.24,3.5 5.72,7.51 7.43,12.03 1.71,4.52 2.56,9.34 2.56,14.47l0 0.51zm159.55 26.11l0 -0.51c0,-6.31 -1.28,-11.7 -3.84,-16.13 -2.57,-4.44 -5.81,-8.2 -9.73,-11.28 -3.93,-3.07 -8.37,-5.67 -13.31,-7.81 -4.95,-2.13 -9.83,-3.97 -14.6,-5.51 -3.76,-1.2 -7.3,-2.38 -10.62,-3.58 -3.34,-1.2 -6.27,-2.44 -8.84,-3.72 -2.56,-1.28 -4.6,-2.65 -6.14,-4.09 -1.53,-1.45 -2.3,-3.12 -2.3,-4.99l0 -0.51c0,-2.73 1.18,-4.99 3.58,-6.78 2.38,-1.8 5.98,-2.69 10.75,-2.69 4.95,0 10.67,1.14 17.16,3.46 6.47,2.3 13.14,5.41 19.96,9.34l14.86 -26.89c-7.51,-4.94 -15.75,-8.83 -24.71,-11.64 -8.96,-2.81 -17.79,-4.23 -26.5,-4.23 -7,0 -13.53,0.94 -19.58,2.81 -6.07,1.88 -11.36,4.7 -15.88,8.45 -4.52,3.76 -8.1,8.32 -10.75,13.7 -2.64,5.37 -3.97,11.56 -3.97,18.56l0 0.51c0,6.66 1.24,12.29 3.72,16.91 2.48,4.6 5.68,8.49 9.61,11.64 3.92,3.16 8.32,5.72 13.18,7.69 4.87,1.97 9.69,3.62 14.47,4.99 3.76,1.2 7.34,2.3 10.75,3.32 3.42,1.02 6.45,2.1 9.09,3.2 2.65,1.1 4.74,2.44 6.29,3.97 1.53,1.53 2.3,3.32 2.3,5.37l0 0.51c0,3.08 -1.33,5.56 -3.97,7.43 -2.65,1.88 -6.78,2.81 -12.42,2.81 -6.49,0 -13.45,-1.36 -20.86,-4.09 -7.43,-2.73 -14.9,-6.82 -22.41,-12.29l-16.64 25.6c9.21,7.17 18.9,12.42 29.06,15.75 10.15,3.34 20.1,4.99 29.83,4.99 7.34,0 14.21,-0.89 20.62,-2.69 6.39,-1.79 11.99,-4.47 16.77,-8.06 4.78,-3.58 8.49,-8.14 11.13,-13.7 2.65,-5.55 3.97,-12.15 3.97,-19.84zm-1382.27 132.65l0 -34.58 -40.97 0 0 34.58 40.97 0zm-1.04 152.36l0 -137.26 -38.91 0 0 137.26 38.91 0zm154.67 0l0 -88.85c0,-15.88 -4.05,-28.35 -12.15,-37.39 -8.12,-9.05 -19.6,-13.57 -34.45,-13.57 -4.95,0 -9.38,0.59 -13.31,1.79 -3.93,1.24 -7.51,2.85 -10.75,4.91 -3.24,2.09 -6.19,4.43 -8.84,7.08 -2.64,2.69 -5.07,5.46 -7.3,8.41l0 -19.64 -38.91 0 0 137.26 38.91 0 0 -76.39c0,-9.18 2.18,-16.14 6.53,-20.8 4.36,-4.68 10.3,-7.04 17.81,-7.04 7.51,0 13.31,2.36 17.4,7.04 4.11,4.66 6.15,11.62 6.15,20.8l0 76.39 38.91 0zm103.2 -5.64l0 -31.23c-5.98,3.24 -12.38,4.86 -19.21,4.86 -8.36,0 -12.55,-4.44 -12.55,-13.31l0 -58.65 32.26 0 0 -33.29 -32.26 0 0 -35.08 -38.93 0 0 35.08 -16.38 0 0 33.29 16.38 0 0 65.04c0,8.02 0.98,14.64 2.95,19.85 1.97,5.21 4.7,9.42 8.2,12.67 3.5,3.24 7.67,5.51 12.55,6.8 4.86,1.28 10.28,1.91 16.26,1.91 6.49,0 12.21,-0.73 17.16,-2.17 4.94,-1.45 9.46,-3.38 13.57,-5.77zm149.54 -59.14l0 -0.51c0,-9.73 -1.33,-19.07 -3.97,-28.04 -2.65,-8.96 -6.74,-16.91 -12.29,-23.81 -5.56,-6.92 -12.5,-12.42 -20.88,-16.53 -8.36,-4.09 -18.27,-6.14 -29.71,-6.14 -10.07,0 -19.25,1.87 -27.53,5.63 -8.28,3.76 -15.4,8.88 -21.38,15.37 -5.98,6.49 -10.63,14.08 -13.96,22.79 -3.32,8.71 -4.99,17.93 -4.99,27.66l0 0.51c0,10.58 1.79,20.18 5.38,28.81 3.58,8.61 8.57,16.09 14.97,22.4 6.41,6.33 14,11.19 22.8,14.6 8.79,3.41 18.31,5.11 28.55,5.11 12.46,0 23.3,-2.26 32.52,-6.78 9.22,-4.52 17.07,-10.8 23.56,-18.82l-22.28 -19.72c-5.46,4.95 -10.75,8.53 -15.88,10.75 -5.11,2.22 -10.92,3.32 -17.4,3.32 -8.71,0 -16,-2.26 -21.9,-6.78 -5.88,-4.52 -9.77,-11.23 -11.64,-20.1l95.51 0c0.16,-1.88 0.3,-3.5 0.38,-4.87 0.08,-1.36 0.13,-2.99 0.13,-4.86zm-37.9 -14.59l-58.63 0c1.53,-8.88 4.82,-15.96 9.85,-21.25 5.03,-5.3 11.66,-7.94 19.84,-7.94 8.2,0 14.77,2.69 19.72,8.06 4.95,5.38 8.02,12.42 9.22,21.13zm141.87 -19.72l0 -40.72c-11.6,-0.51 -20.82,2.05 -27.65,7.69 -6.84,5.63 -12.21,13.14 -16.14,22.53l0 -27.66 -38.91 0 0 137.26 38.91 0 0 -50.71c0,-16.56 3.72,-28.76 11.15,-36.61 7.43,-7.86 17.62,-11.78 30.6,-11.78l2.05 0zm142.37 99.1l0 -88.85c0,-15.88 -4.05,-28.35 -12.15,-37.39 -8.12,-9.05 -19.6,-13.57 -34.45,-13.57 -4.95,0 -9.38,0.59 -13.31,1.79 -3.93,1.24 -7.51,2.85 -10.75,4.91 -3.24,2.09 -6.19,4.43 -8.84,7.08 -2.64,2.69 -5.07,5.46 -7.3,8.41l0 -19.64 -38.91 0 0 137.26 38.91 0 0 -76.39c0,-9.18 2.18,-16.14 6.53,-20.8 4.36,-4.68 10.3,-7.04 17.81,-7.04 7.51,0 13.31,2.36 17.4,7.04 4.11,4.66 6.15,11.62 6.15,20.8l0 76.39 38.91 0zm144.17 0l0 -79.63c0,-18.62 -4.87,-33.13 -14.6,-43.54 -9.73,-10.4 -25.27,-15.61 -46.6,-15.61 -11.6,0 -21.51,1.02 -29.71,3.07 -8.2,2.05 -16.04,4.7 -23.56,7.94l9.73 29.71c6.31,-2.4 12.33,-4.23 18.05,-5.51 5.72,-1.28 12.33,-1.92 19.84,-1.92 9.73,0 17.08,2.14 22.02,6.41 4.95,4.27 7.43,10.5 7.43,18.68l0 2.32c-4.95,-1.71 -10.03,-3.08 -15.24,-4.11 -5.21,-1.02 -11.31,-1.53 -18.31,-1.53 -8.2,0 -15.67,0.9 -22.41,2.69 -6.74,1.79 -12.55,4.48 -17.4,8.06 -4.87,3.58 -8.67,8.12 -11.4,13.57 -2.73,5.46 -4.09,11.95 -4.09,19.46l0 0.51c0,6.84 1.24,12.85 3.72,18.05 2.48,5.21 5.84,9.61 10.11,13.19 4.27,3.59 9.26,6.27 14.98,8.06 5.72,1.8 11.82,2.69 18.31,2.69 9.57,0 17.67,-1.57 24.34,-4.74 6.65,-3.15 12.37,-7.38 17.15,-12.67l0 14.85 37.65 0zm-36.88 -48.4c0,7.17 -2.77,12.98 -8.32,17.42 -5.55,4.44 -12.94,6.66 -22.16,6.66 -6.31,0 -11.43,-1.45 -15.36,-4.36 -3.93,-2.89 -5.9,-7 -5.9,-12.29l0 -0.51c0,-6.14 2.4,-10.84 7.17,-14.08 4.78,-3.24 11.35,-4.87 19.72,-4.87 4.78,0 9.26,0.47 13.45,1.41 4.17,0.94 7.98,2.18 11.39,3.72l0 6.91zm183.6 26.38l-22.79 -23.04c-4.78,4.44 -9.61,7.98 -14.47,10.62 -4.86,2.65 -10.54,3.97 -17.03,3.97 -5.29,0 -10.07,-0.98 -14.34,-2.95 -4.28,-1.95 -7.94,-4.64 -11.02,-8.06 -3.07,-3.42 -5.41,-7.43 -7.04,-12.03 -1.62,-4.6 -2.42,-9.56 -2.42,-14.85l0 -0.51c0,-5.13 0.81,-9.95 2.42,-14.47 1.63,-4.52 3.93,-8.49 6.92,-11.91 2.99,-3.42 6.49,-6.1 10.5,-8.06 4.01,-1.97 8.49,-2.95 13.45,-2.95 7,0 12.84,1.37 17.54,4.09 4.7,2.73 9.26,6.41 13.7,11.01l23.81 -25.6c-6.49,-7.17 -14,-12.8 -22.53,-16.91 -8.53,-4.09 -19.29,-6.14 -32.26,-6.14 -10.59,0 -20.27,1.87 -29.06,5.63 -8.8,3.76 -16.35,8.88 -22.67,15.37 -6.31,6.49 -11.27,14.08 -14.85,22.79 -3.59,8.71 -5.38,17.93 -5.38,27.66l0 0.51c0,9.73 1.79,18.9 5.38,27.53 3.58,8.61 8.53,16.13 14.85,22.53 6.31,6.39 13.86,11.48 22.67,15.24 8.79,3.76 18.31,5.63 28.55,5.63 13.65,0 24.75,-2.34 33.29,-7.04 8.53,-4.7 16.13,-10.71 22.79,-18.05zm59.43 -130.34l0 -34.58 -40.97 0 0 34.58 40.97 0zm-1.04 152.36l0 -137.26 -38.91 0 0 137.26 38.91 0zm170.8 -68.37l0 -0.51c0,-9.91 -1.88,-19.17 -5.64,-27.8 -3.76,-8.61 -8.91,-16.13 -15.49,-22.53 -6.57,-6.39 -14.38,-11.43 -23.42,-15.1 -9.05,-3.67 -18.87,-5.51 -29.45,-5.51 -10.75,0 -20.66,1.87 -29.71,5.63 -9.05,3.76 -16.89,8.88 -23.56,15.37 -6.66,6.49 -11.86,14.04 -15.61,22.65 -3.76,8.63 -5.64,17.89 -5.64,27.8l0 0.51c0,9.89 1.88,19.15 5.64,27.78 3.76,8.61 8.91,16.13 15.48,22.53 6.58,6.39 14.39,11.44 23.43,15.1 9.05,3.67 18.87,5.51 29.45,5.51 10.75,0 20.66,-1.87 29.71,-5.63 9.05,-3.76 16.89,-8.88 23.56,-15.37 6.66,-6.49 11.86,-14.04 15.61,-22.65 3.76,-8.63 5.64,-17.89 5.64,-27.78zm-38.42 0.51c0,5.11 -0.81,9.93 -2.42,14.46 -1.63,4.54 -3.97,8.49 -7.05,11.91 -3.07,3.42 -6.78,6.11 -11.13,8.06 -4.36,1.97 -9.34,2.95 -14.98,2.95 -5.46,0 -10.36,-1.02 -14.73,-3.07 -4.35,-2.05 -8.14,-4.82 -11.39,-8.32 -3.24,-3.5 -5.72,-7.51 -7.43,-12.05 -1.71,-4.52 -2.56,-9.34 -2.56,-14.46l0 -0.51c0,-5.13 0.81,-9.95 2.42,-14.47 1.63,-4.52 3.97,-8.49 7.04,-11.91 3.08,-3.42 6.8,-6.1 11.15,-8.06 4.35,-1.97 9.34,-2.95 14.98,-2.95 5.29,0 10.16,1.02 14.59,3.07 4.44,2.06 8.28,4.83 11.52,8.33 3.24,3.5 5.72,7.51 7.43,12.03 1.71,4.52 2.56,9.34 2.56,14.47l0 0.51zm184.62 67.85l0 -88.85c0,-15.88 -4.05,-28.35 -12.15,-37.39 -8.12,-9.05 -19.6,-13.57 -34.45,-13.57 -4.95,0 -9.38,0.59 -13.31,1.79 -3.93,1.24 -7.51,2.85 -10.75,4.91 -3.24,2.09 -6.19,4.43 -8.84,7.08 -2.64,2.69 -5.07,5.46 -7.3,8.41l0 -19.64 -38.91 0 0 137.26 38.91 0 0 -76.39c0,-9.18 2.18,-16.14 6.53,-20.8 4.36,-4.68 10.3,-7.04 17.81,-7.04 7.51,0 13.31,2.36 17.4,7.04 4.11,4.66 6.15,11.62 6.15,20.8l0 76.39 38.91 0zm144.19 0l0 -79.63c0,-18.62 -4.87,-33.13 -14.6,-43.54 -9.73,-10.4 -25.27,-15.61 -46.6,-15.61 -11.6,0 -21.51,1.02 -29.71,3.07 -8.2,2.05 -16.04,4.7 -23.56,7.94l9.73 29.71c6.31,-2.4 12.33,-4.23 18.05,-5.51 5.72,-1.28 12.33,-1.92 19.84,-1.92 9.73,0 17.08,2.14 22.02,6.41 4.95,4.27 7.43,10.5 7.43,18.68l0 2.32c-4.95,-1.71 -10.03,-3.08 -15.24,-4.11 -5.21,-1.02 -11.31,-1.53 -18.31,-1.53 -8.2,0 -15.67,0.9 -22.41,2.69 -6.74,1.79 -12.55,4.48 -17.4,8.06 -4.87,3.58 -8.67,8.12 -11.4,13.57 -2.73,5.46 -4.09,11.95 -4.09,19.46l0 0.51c0,6.84 1.24,12.85 3.72,18.05 2.48,5.21 5.84,9.61 10.11,13.19 4.27,3.59 9.26,6.27 14.98,8.06 5.72,1.8 11.82,2.69 18.31,2.69 9.57,0 17.67,-1.57 24.34,-4.74 6.65,-3.15 12.37,-7.38 17.15,-12.67l0 14.85 37.65 0zm-36.88 -48.4c0,7.17 -2.77,12.98 -8.32,17.42 -5.55,4.44 -12.94,6.66 -22.16,6.66 -6.31,0 -11.43,-1.45 -15.36,-4.36 -3.93,-2.89 -5.9,-7 -5.9,-12.29l0 -0.51c0,-6.14 2.4,-10.84 7.17,-14.08 4.78,-3.24 11.35,-4.87 19.72,-4.87 4.78,0 9.26,0.47 13.45,1.41 4.17,0.94 7.98,2.18 11.39,3.72l0 6.91zm103.44 48.4l0 -186.94 -38.91 0 0 186.94 38.91 0zm156.97 -64.78l0 -0.51c0,-9.73 -1.33,-19.07 -3.97,-28.04 -2.65,-8.96 -6.74,-16.91 -12.29,-23.81 -5.56,-6.92 -12.5,-12.42 -20.88,-16.53 -8.36,-4.09 -18.27,-6.14 -29.71,-6.14 -10.07,0 -19.25,1.87 -27.53,5.63 -8.28,3.76 -15.4,8.88 -21.38,15.37 -5.98,6.49 -10.63,14.08 -13.96,22.79 -3.32,8.71 -4.99,17.93 -4.99,27.66l0 0.51c0,10.58 1.79,20.18 5.38,28.81 3.58,8.61 8.57,16.09 14.97,22.4 6.41,6.33 14,11.19 22.8,14.6 8.79,3.41 18.31,5.11 28.55,5.11 12.46,0 23.3,-2.26 32.52,-6.78 9.22,-4.52 17.07,-10.8 23.56,-18.82l-22.28 -19.72c-5.46,4.95 -10.75,8.53 -15.88,10.75 -5.11,2.22 -10.92,3.32 -17.4,3.32 -8.71,0 -16,-2.26 -21.9,-6.78 -5.88,-4.52 -9.77,-11.23 -11.64,-20.1l95.51 0c0.16,-1.88 0.3,-3.5 0.38,-4.87 0.08,-1.36 0.13,-2.99 0.13,-4.86zm-37.9 -14.59l-58.63 0c1.53,-8.88 4.82,-15.96 9.85,-21.25 5.03,-5.3 11.66,-7.94 19.84,-7.94 8.2,0 14.77,2.69 19.72,8.06 4.95,5.38 8.02,12.42 9.22,21.13zm159.79 37.64l0 -0.51c0,-6.31 -1.28,-11.7 -3.84,-16.13 -2.57,-4.44 -5.81,-8.2 -9.73,-11.28 -3.93,-3.07 -8.37,-5.67 -13.31,-7.81 -4.95,-2.13 -9.83,-3.97 -14.6,-5.51 -3.76,-1.2 -7.3,-2.38 -10.62,-3.58 -3.34,-1.2 -6.27,-2.44 -8.84,-3.72 -2.56,-1.28 -4.6,-2.65 -6.14,-4.09 -1.53,-1.45 -2.3,-3.12 -2.3,-4.99l0 -0.51c0,-2.73 1.18,-4.99 3.58,-6.78 2.38,-1.8 5.98,-2.69 10.75,-2.69 4.95,0 10.67,1.14 17.16,3.46 6.47,2.3 13.14,5.41 19.96,9.34l14.86 -26.89c-7.51,-4.94 -15.75,-8.83 -24.71,-11.64 -8.96,-2.81 -17.79,-4.23 -26.5,-4.23 -7,0 -13.53,0.94 -19.58,2.81 -6.07,1.88 -11.36,4.7 -15.88,8.45 -4.52,3.76 -8.1,8.32 -10.75,13.7 -2.64,5.37 -3.97,11.56 -3.97,18.56l0 0.51c0,6.66 1.24,12.29 3.72,16.91 2.48,4.6 5.68,8.49 9.61,11.64 3.92,3.16 8.32,5.72 13.18,7.69 4.87,1.97 9.69,3.62 14.47,4.99 3.76,1.2 7.34,2.3 10.75,3.32 3.42,1.02 6.45,2.1 9.09,3.2 2.65,1.1 4.74,2.44 6.29,3.97 1.53,1.53 2.3,3.32 2.3,5.37l0 0.51c0,3.08 -1.33,5.56 -3.97,7.43 -2.65,1.88 -6.78,2.81 -12.42,2.81 -6.49,0 -13.45,-1.36 -20.86,-4.09 -7.43,-2.73 -14.9,-6.82 -22.41,-12.29l-16.64 25.6c9.21,7.17 18.9,12.42 29.06,15.75 10.15,3.34 20.1,4.99 29.83,4.99 7.34,0 14.21,-0.89 20.62,-2.69 6.39,-1.79 11.99,-4.47 16.77,-8.06 4.78,-3.58 8.49,-8.14 11.13,-13.7 2.65,-5.55 3.97,-12.15 3.97,-19.84z"/>
  <path class="fil0" d="M1184.79 646l-4.28 -15.67 13.89 -8.55 -8.9 -13.53 10.69 -12.46 -12.83 -9.97 6.06 -14.95 -15.32 -5.69 1.43 -16.03 -16.38 -0.71 -3.92 -15.67 -15.67 4.28 -8.55 -13.89 -13.53 8.9 -12.46 -10.69 -9.97 12.83 -14.95 -6.06 -5.69 15.32 -16.03 -1.43 -0.71 16.38 -15.67 3.92 4.28 15.67 -13.89 8.55 8.9 13.53 -10.69 12.46 12.83 9.97 -6.06 14.95 15.32 5.69 -1.43 16.03 16.38 0.71 2.14 8.55 -30.27 91.53 38.11 -22.44 17.09 40.6 22.44 -68.73 17.81 -1.78 34.19 60.18 8.9 -43.09 41.67 14.6 -50.57 -89.39 15.67 -3.92 -0.01 -0.01zm-39.53 -15.67c-6.77,8.2 -16.03,13.18 -26.36,14.24 -21.38,2.14 -40.96,-13.53 -42.74,-35.25 -1.78,-21.72 13.53,-40.96 35.25,-42.74 1.43,0 2.49,0 3.92,0 8.9,0 17.81,3.2 24.93,8.9 8.2,6.77 13.18,16.03 14.24,26.36 1.06,10.32 -2.14,20.66 -8.55,28.85l-0.7 -0.35z"/>
  <polygon class="fil0" points="1142.06,235.03 1140.28,215.8 651.66,263.88 647.74,264.23 649.88,283.46 1138.5,235.73 "/>
  <polygon class="fil0" points="1151.68,310.53 1149.54,291.3 660.92,339.38 657.35,339.73 659.14,358.96 1147.75,310.88 "/>
  <polygon class="fil0" points="666.23,430.04 872.51,409.75 870.63,390.61 664.35,410.9 "/>
  <path class="fil0" d="M722.89 501.77c-14.24,1.43 -27.07,8.2 -36.33,19.23 -9.26,11.04 -13.18,24.93 -12.11,39.17 2.85,27.78 25.99,48.43 53.42,48.43 1.78,0 3.57,0 5.34,0 14.24,-1.43 27.07,-8.2 36.33,-19.23 9.26,-11.04 13.18,-24.93 12.11,-39.17 -2.85,-29.56 -29.21,-51.28 -58.77,-48.08l0 -0.35zm39.53 50.21c1.78,18.87 -12.11,35.62 -30.62,37.39 -18.87,2.14 -35.62,-11.75 -37.39,-30.62 -1.78,-18.87 12.11,-35.62 30.62,-37.39 1.06,0 2.14,0 3.2,0 17.44,0 32.41,13.18 34.19,30.99l0 -0.36z"/>
  <path class="fil0" d="M1398.13 613.24l-54.14 -551.66c-3.57,-37.39 -37.04,-64.81 -74.44,-61.26l-790.27 77.64c-18.16,1.78 -34.54,10.69 -45.94,24.58 -11.4,14.24 -17.09,31.7 -15.32,49.86l54.14 551.66c1.78,18.16 10.69,34.54 24.58,45.94 12.46,9.97 27.42,15.67 43.09,15.67 2.14,0 4.63,0 6.77,0l495.39 -48.79 2.49 0.01c0,0 6.77,-20.3 6.77,-20.3l-506.43 49.86c-12.83,1.43 -25.64,-2.49 -35.62,-10.69 -9.97,-8.2 -16.38,-19.95 -17.44,-32.76l-54.14 -551.66c-1.43,-12.83 2.49,-25.64 10.69,-35.62 8.2,-9.97 19.95,-16.38 32.76,-17.44l790.27 -77.64c26.71,-2.49 50.57,17.09 53.42,43.8l54.14 551.66c2.49,26.71 -17.09,50.57 -43.8,53.42l-137.47 13.53 10.32 18.52 128.92 -12.83c18.16,-1.78 34.54,-10.69 45.94,-24.58 11.4,-14.24 17.09,-31.7 15.32,-49.86l-0.01 -1.06z"/>
 </g>
</svg>
