<?xml version="1.0" encoding="UTF-8"?>
<!DOCTYPE svg PUBLIC "-//W3C//DTD SVG 1.1//EN" "http://www.w3.org/Graphics/SVG/1.1/DTD/svg11.dtd">
<!-- Creator: CorelDRAW -->
<svg xmlns="http://www.w3.org/2000/svg" xml:space="preserve" width="29.5948mm" height="29.5948mm" version="1.1" style="shape-rendering:geometricPrecision; text-rendering:geometricPrecision; image-rendering:optimizeQuality; fill-rule:evenodd; clip-rule:evenodd"
viewBox="0 0 2682.8 2682.8"
 xmlns:xlink="http://www.w3.org/1999/xlink"
 xmlns:xodm="http://www.corel.com/coreldraw/odm/2003"
 data-name="Capa 2">
 <defs>
  <style type="text/css">
   <![CDATA[
    .fil0 {fill:none}
    .fil1 {fill:white;fill-rule:nonzero}
   ]]>
  </style>
 </defs>
 <g id="Capa_x0020_1">
  <metadata id="CorelCorpID_0Corel-Layer"/>
  <polygon class="fil0" points="-0,0 2682.8,0 2682.8,2682.8 -0,2682.8 "/>
  <g id="ico-centro-proyecto.svg">
   <g id="Capa_1-2" data-name="Capa 1">
    <g>
     <polygon class="fil1" points="1293.08,1583.83 139.48,1092.05 1323.23,599.43 2465.12,1080.3 "/>
     <g>
      <rect class="fil1" x="2368.77" y="1063.57" width="72.89" height="721.33"/>
      <path class="fil1" d="M2520.4 1810.04c0,-60.32 -51.92,-108.93 -115.61,-108.93 -63.67,0 -115.6,48.61 -115.6,108.93 0,60.32 51.92,108.92 115.6,108.92 63.68,0 115.61,-48.6 115.61,-108.92z"/>
      <g>
       <path class="fil1" d="M2352.84 1844.36c0,0 -91.31,180.13 -55.28,454.91l131.53 0 0 -480.88c0,0 -76.25,40.21 -76.25,25.96z"/>
       <path class="fil1" d="M2468.48 1844.36c0,0 91.31,180.13 54.45,454.91l-129.88 0 0 -480.88c0,0 75.39,40.21 75.39,25.96l0.04 0z"/>
      </g>
     </g>
     <path class="fil1" d="M1949.07 1385.26c0,5.03 -564.66,252.17 -674.41,299.92 -108.93,-47.75 -674.41,-294.89 -674.41,-299.92l0 731.37c181.77,182.63 541.19,211.95 655.98,216.99l-0.04 0c0,0 6.72,0.82 18.43,0 11.71,0 18.43,0 18.43,0l0.03 0c114.78,-5.86 473.34,-35.18 655.99,-217.82l0 -731.37 0 0.82z"/>
    </g>
   </g>
  </g>
 </g>
</svg>
