<?xml version="1.0" encoding="UTF-8"?>
<!DOCTYPE svg PUBLIC "-//W3C//DTD SVG 1.1//EN" "http://www.w3.org/Graphics/SVG/1.1/DTD/svg11.dtd">
<!-- Creator: CorelDRAW -->
<svg xmlns="http://www.w3.org/2000/svg" xml:space="preserve" width="29.5948mm" height="29.5948mm" version="1.1" style="shape-rendering:geometricPrecision; text-rendering:geometricPrecision; image-rendering:optimizeQuality; fill-rule:evenodd; clip-rule:evenodd"
viewBox="0 0 2196.45 2196.45"
 xmlns:xlink="http://www.w3.org/1999/xlink"
 xmlns:xodm="http://www.corel.com/coreldraw/odm/2003"
 data-name="Capa 2">
 <defs>
  <style type="text/css">
   <![CDATA[
    .fil0 {fill:none}
    .fil1 {fill:white;fill-rule:nonzero}
   ]]>
  </style>
 </defs>
 <g id="Capa_x0020_1">
  <metadata id="CorelCorpID_0Corel-Layer"/>
  <polygon class="fil0" points="-0,0 2196.45,0 2196.45,2196.45 -0,2196.45 "/>
  <g id="ico-sustentabilidad.svg">
   <g id="Capa_1-2" data-name="Capa 1">
    <path class="fil1" d="M1988.44 1794.38c-30.07,-2.14 -55.12,-5.74 -83.78,-6.44 -124.6,-1.44 -249.19,22.92 -361.57,77.34 -65.16,31.5 -128.89,57.29 -199.76,72.3 -136.77,28.63 -277.82,25.79 -413.12,-10.01 -78.74,-20.75 -149.64,-52.98 -218.38,-95.23l-513.38 -317.21c-65.87,-40.8 -83.05,-126.73 -37.94,-189.02 25.06,-35.07 57.99,-61.56 98.81,-76.61 32.23,-57.99 90.92,-95.93 158.22,-97.37 64.44,-65.16 158.96,-70.17 236.28,-25.06l315.05 186.89c7.17,0 15.75,-2.14 22.19,-5.01 20.76,-117.42 29.36,-223.39 35.07,-345.11 -125.29,14.32 -245.58,13.61 -365.16,-27.93 -186.89,-65.16 -290.69,-219.09 -329.36,-408.11 -20.76,-103.1 -23.62,-207.64 -10.75,-312.18 2.14,-15.04 12.18,-25.79 27.2,-27.93 97.37,-11.44 194.03,-10.01 290.69,6.44 206.21,37.23 371.61,144.64 436.77,354.43 38.67,-126.73 120.28,-225.53 234.13,-285.69 63.73,-34.36 131.03,-55.12 203.34,-68.73 96.66,-16.48 194.03,-17.89 291.42,-6.44 15.05,2.14 25.06,12.88 26.5,27.2 11.44,98.09 10.01,195.46 -7.17,292.13 -34.37,192.59 -133.9,353.69 -322.93,424.59 -120.99,45.12 -247.02,46.55 -375.18,30.8 4.3,94.52 11.44,186.15 25.06,281.38 37.94,-20.75 73.04,-42.24 108.11,-65.87 62.29,-42.24 128.16,-75.9 199.76,-100.23 115.99,-37.94 233.41,-44.38 342.98,16.48l194.76 108.11c12.88,7.17 20.75,15.04 20.75,31.5l0 532c0,15.76 -13.61,29.37 -29.36,27.93l0.76 0.68zm-1369.01 -1348.96l421.73 421.73c30.79,-262.06 -39.38,-493.33 -300.74,-586.39 -116.71,-40.81 -239.87,-48.69 -363.73,-37.94 -14.32,145.35 0.71,307.88 69.44,437.47 110.28,208.34 332.94,254.19 554.2,227.69l-418.86 -418.85c-12.18,-12.18 -13.61,-27.93 -3.57,-40.11 8.6,-10.75 27.93,-16.48 41.54,-3.57l0 -0.03zm983.79 12.18l-450.36 450.35c108.85,13.62 220.53,8.61 320.76,-26.49 95.93,-33.67 174.71,-98.81 224.83,-186.89 75.91,-131.03 92.36,-303.58 78.05,-452.52 -148.92,-12.88 -312.89,1.43 -443.92,73.74 -88.06,47.97 -153.95,123.16 -189.73,216.95 -40.1,100.97 -45.11,225.53 -31.5,333.67l449.65 -449.65c11.44,-11.45 29.36,-9.31 38.67,0 9.31,9.31 15.05,27.93 2.14,40.8l1.41 0.03zm-505.48 814.09l-20.76 -171.14 -22.19 188.32 43.68 -17.18 -0.73 0zm-441.07 194.75l-249.88 -151.08c-68.04,-40.81 -153.22,-20.05 -198.34,42.24 -28.63,39.38 -15.75,86.63 24.36,110.98l507.65 313.61c66.6,40.8 136.03,72.3 211.94,91.66 113.85,28.63 229.84,32.23 345.82,13.61 78.75,-12.88 148.92,-40.11 220.53,-74.48 123.85,-60.15 261.33,-88.79 398.09,-82.34l44.38 2.14 0 -484.02c0,0 -190.46,-105.98 -190.46,-105.98 -37.23,-20.75 -75.91,-30.79 -117.42,-34.36 -127.46,-9.31 -262.77,51.55 -366.6,121.72 -133.17,90.22 -258.46,144.64 -419.59,159.66 -65.16,5.74 -126.02,35.08 -155.36,95.23 -17.89,36.51 -12.88,79.48 17.19,108.11 27.19,26.5 82.34,24.36 119.59,20.76 148.92,-15.05 292.82,-52.99 431.74,-108.11 16.48,-6.44 32.93,0 39.37,15.75 6.44,15.75 -2.14,31.5 -18.62,37.94 -151.08,60.16 -307.88,100.97 -470.41,113.85 -30.8,2.14 -59.43,0 -88.06,-7.87 -83.05,-23.62 -120.99,-121.72 -84.49,-199.04l-1.43 0.02zm225.55 -136.77l-262.77 -154.65c-36.5,-22.92 -80.91,-27.19 -121.72,-8.6l304.31 178.28 80.18 -14.32 0 -0.71zm-195.49 87.35c17.18,-18.61 31.5,-30.07 50.85,-44.37l-254.89 -149.65c-45.11,-22.92 -98.09,-17.89 -138.17,12.88 33.67,4.3 62.29,11.44 90.22,27.92l252.03 152.52 -0.03 0.7z"/>
   </g>
  </g>
 </g>
</svg>
