<?xml version="1.0" encoding="UTF-8"?>
<!DOCTYPE svg PUBLIC "-//W3C//DTD SVG 1.1//EN" "http://www.w3.org/Graphics/SVG/1.1/DTD/svg11.dtd">
<!-- Creator: CorelDRAW -->
<svg xmlns="http://www.w3.org/2000/svg" xml:space="preserve" width="29.5948mm" height="29.5948mm" version="1.1" style="shape-rendering:geometricPrecision; text-rendering:geometricPrecision; image-rendering:optimizeQuality; fill-rule:evenodd; clip-rule:evenodd"
viewBox="0 0 800.86 800.86"
 xmlns:xlink="http://www.w3.org/1999/xlink"
 xmlns:xodm="http://www.corel.com/coreldraw/odm/2003"
 data-name="Capa 2">
 <defs>
  <style type="text/css">
   <![CDATA[
    .fil1 {fill:none}
    .fil0 {fill:white;fill-rule:nonzero}
   ]]>
  </style>
 </defs>
 <g id="Capa_x0020_1">
  <metadata id="CorelCorpID_0Corel-Layer"/>
  <g id="ico-bienestar.svg">
   <g id="Capa_1-2" data-name="Capa 1">
    <path class="fil0" d="M584.91 95.73c-75.95,-11.6 -152.44,26.38 -183.55,89.67 -14.5,-27.96 -38.76,-52.75 -68.57,-69.37 -53.81,-30.06 -107.08,-32.18 -167.74,-6.59 -58.28,24.52 -91.26,92.57 -99.96,112.87 -24.26,56.18 -11.34,124.22 2.64,176.97 2.11,7.92 9.76,12.13 17.67,10.02 8.18,-2.11 12.66,-9.76 10.55,-17.67 -20.04,-76.21 -26.11,-180.13 59.87,-243.42 38.24,-27.96 101.53,-36.13 141.36,-17.93 41.15,18.73 85.97,56.97 89.4,107.86 0.53,7.91 6.59,13.97 14.24,13.97l0 0.01c6.86,0 13.97,-4.75 14.77,-13.72 3.43,-39.03 26.9,-73.58 64.35,-94.94 42.72,-24.53 94.69,-27.43 135.82,-8.17 88.61,41.93 119.47,158.5 92.57,241.31 -13.71,42.46 -63.04,40.62 -106.82,38.76 -8.97,-0.26 -17.67,-0.53 -25.32,-0.53l-16.36 0.01c-21.63,0 -43.25,0.26 -64.88,0 -6.86,0 -11.87,0 -15.3,0 -3.43,-6.33 -10.02,-24.53 -12.4,-31.12l-2.11 -6.07c-2.64,-6.86 -9.23,-10.82 -15.56,-9.76 -6.86,0.79 -12.13,6.33 -12.92,13.45 -3.69,28.49 -10.02,56.71 -16.09,84.4 -1.32,-13.19 -2.64,-26.38 -3.69,-39.56 -3.96,-42.46 -8.18,-86.5 -15.3,-129.23 -1.06,-6.59 -6.59,-11.07 -13.45,-11.34 0,0 -0.26,0 -0.53,0 -7.12,0 -12.92,4.49 -14.5,10.82l-26.9 116.05 -8.7 -38.76c-1.59,-6.59 -7.64,-11.6 -15.03,-11.08 -7.12,0 -12.4,4.75 -13.45,11.34l-1.06 6.59c-1.06,7.92 -4.22,32.18 -8.18,35.34 -2.64,1.06 -13.71,0 -18.73,-0.53 -3.69,-0.26 -6.86,-0.79 -8.97,-0.79l-88.09 -0.53c-3.17,0 -6.33,0 -9.76,0 -22.68,-0.53 -50.64,-1.32 -66.46,14.77 -7.92,7.92 -11.87,19.52 -11.34,33.76 0.79,24.79 19.78,48.26 35.34,66.98l5.01 6.33c19.52,24.53 43.52,47.48 75.69,72.52 42.99,33.76 90.46,61.71 136.35,89.14 14.24,8.7 28.75,17.15 42.99,25.85 2.37,1.32 4.74,2.11 7.38,2.11 2.64,0 5.01,-0.53 7.38,-1.85 106.02,-57.75 196.74,-135.03 277.19,-236.3 3.43,-4.22 4.22,-10.02 2.37,-15.03 -2.11,-5.27 -6.59,-8.97 -11.6,-9.76 -4.75,-0.79 -9.23,1.06 -12.4,5.01 -60.93,76.48 -116.57,130.81 -174.85,171.16 -4.49,3.17 -10.29,7.64 -16.88,12.66 -22.16,17.15 -55.65,43.52 -74.64,40.62 -7.12,-1.06 -17.67,-8.7 -26.38,-15.03 -4.48,-3.43 -8.7,-6.33 -12.4,-8.44 -16.88,-10.02 -33.76,-20.05 -50.38,-30.59 -30.06,-18.99 -69.37,-44.57 -104.44,-75.95 -27.16,-24.53 -77.27,-77.8 -71.47,-104.44 1.58,-6.59 6.86,-11.34 16.34,-14.24 15.3,-4.75 38.51,-2.64 59.08,-0.79 10.02,0.79 19.52,1.58 27.96,1.84l75.17 0.53 0.02 0c4.74,0 9.23,-2.37 11.87,-6.33l9.76 44.05c1.32,6.59 7.12,10.82 14.24,11.08 7.12,0 12.92,-4.22 14.24,-10.82l23.2 -99.96c1.59,16.34 3.17,32.7 4.74,48.52 3.96,42.46 8.18,86.5 15.3,129.49 1.06,6.86 6.33,11.87 13.19,11.34 6.86,0 14.5,-5.27 15.56,-13.71 3.69,-29.54 10.29,-59.08 16.88,-87.56 2.9,-12.92 6.07,-26.37 8.7,-39.82 5.27,6.07 12.66,11.07 23.48,12.92 25.58,4.22 53.81,2.64 81.23,1.32 12.4,-0.53 24.79,-1.32 36.39,-1.32 6.59,0 13.72,0 21.1,0.53 30.86,1.06 65.94,2.37 90.73,-17.67 25.32,-20.57 31.65,-54.85 34.55,-89.4 9.23,-105.49 -48.26,-224.7 -160.35,-241.58l0.79 -0.26z"/>
   </g>
  </g>
  <polygon class="fil1" points="-0,0 800.86,0 800.86,800.86 -0,800.86 "/>
 </g>
</svg>
