<?xml version="1.0" encoding="UTF-8"?>
<!DOCTYPE svg PUBLIC "-//W3C//DTD SVG 1.1//EN" "http://www.w3.org/Graphics/SVG/1.1/DTD/svg11.dtd">
<!-- Creator: CorelDRAW -->
<svg xmlns="http://www.w3.org/2000/svg" xml:space="preserve" width="29.5948mm" height="29.5948mm" version="1.1" style="shape-rendering:geometricPrecision; text-rendering:geometricPrecision; image-rendering:optimizeQuality; fill-rule:evenodd; clip-rule:evenodd"
viewBox="0 0 808.04 808.04"
 xmlns:xlink="http://www.w3.org/1999/xlink"
 xmlns:xodm="http://www.corel.com/coreldraw/odm/2003"
 data-name="Capa 2">
 <defs>
  <style type="text/css">
   <![CDATA[
    .fil0 {fill:none}
    .fil1 {fill:white;fill-rule:nonzero}
   ]]>
  </style>
 </defs>
 <g id="Capa_x0020_1">
  <metadata id="CorelCorpID_0Corel-Layer"/>
  <polygon class="fil0" points="-0,0 808.04,0 808.04,808.04 -0,808.04 "/>
  <g id="ico-ciudadanos-globales.svg">
   <g id="Capa_1-2" data-name="Capa 1">
    <g>
     <path class="fil1" d="M398.55 83.44c-176.63,0 -319.74,143.1 -319.74,319.74 0,176.64 143.12,319.74 319.74,319.74 176.63,0 319.74,-143.12 319.74,-319.74 0,-176.63 -143.1,-319.74 -319.74,-319.74zm0 624.75c-168.31,0 -305.01,-136.69 -305.01,-305.01 0,-168.32 136.7,-305.01 305.01,-305.01 168.31,0 305.01,136.46 305.01,305.01 0,168.55 -136.46,305.01 -305.01,305.01z"/>
     <path class="fil1" d="M353.15 97.7c0,0 -107.7,14.03 -180.91,98.18 0,0 56.35,-58.72 90.81,-58.72l7.61 3.33c0,0 -1.18,2.86 -2.14,4.04 -1.18,1.18 -5.47,6.89 -5.47,8.56 0,1.67 0.48,6.18 0.48,6.18l-2.61 3.57c0,0 -2.62,1.19 -3.33,2.14 -0.71,1.18 -2.14,1.43 -2.14,4.04 0,2.62 0.71,5.94 0.71,5.94l0.48 6.18 -1.9 3.57 -4.75 2.86c0,0 -5.47,1.18 -7.61,0 -2.14,-1.19 -2.86,-5.47 -2.86,-5.47l6.18 -4.04c0,0 0.71,-1.19 -1.18,-2.14 -1.91,-1.19 -1.43,-4.75 -4.75,-4.04 -3.33,0.71 -8.32,5.23 -8.32,5.23l-5.47 3.57c0,0 -2.61,6.66 -1.43,6.66 1.19,0 4.04,1.91 4.04,1.91 0,0 0.71,1.9 0.71,3.57 0,1.66 -1.91,5.47 -1.91,5.47 0,0 -1.18,1.91 -4.75,1.19 -3.57,-0.71 -6.89,-1.43 -9.27,-2.14 -2.14,-0.71 -4.28,-1.9 -6.66,-1.18 -2.14,0.71 -2.86,1.43 -3.33,2.62 -0.48,1.18 -8.09,5.47 -8.09,5.47 0,0 -2.61,1.18 -2.61,2.61 0,1.43 -2.14,6.89 -2.14,6.89 0,0 -2.62,2.62 -7.37,3.8 -4.75,1.19 -5.94,2.62 -5.94,2.62l-2.62 5.47c0,0 -3.57,2.62 -6.18,5.94 -2.62,3.33 -10.23,8.8 -11.41,9.03 -1.19,0.23 -4.04,3.57 -5.23,6.66 -1.18,2.86 -0.71,7.37 -1.9,8.8 -1.19,1.43 -2.62,5.47 -2.86,8.32 -0.23,2.86 -2.14,6.66 -3.57,7.61 -1.43,1.18 -3.8,3.32 -4.75,3.57 -1.18,0.48 -7.61,2.62 -9.98,4.04 -2.14,1.43 -3.33,5.23 -3.33,6.18 0,0.95 3.33,3.57 4.52,3.57 1.18,0 4.28,1.19 4.28,1.19 0,0 0.23,5.94 0.23,6.89 0,0.95 -2.14,6.66 0,6.66 2.14,0 5.47,0.71 5.47,0.71l5.94 1.43 5.23 3.32 2.86 2.14c0,0 -0.71,3.32 -1.43,4.52 -0.71,1.18 -2.14,3.57 -3.32,3.32 -1.19,-0.48 -0.71,-0.48 -1.91,-2.86 -1.18,-2.62 -0.71,-3.57 -3.32,-4.28 -2.62,-0.71 -5.23,1.91 -6.18,1.19 -1.18,-0.71 -2.86,-0.71 -4.75,-2.62 -1.91,-1.9 -2.14,1.43 -1.91,-1.9 0.48,-3.33 1.91,-4.75 1.18,-6.18 -0.71,-1.43 -2.86,-4.75 -4.28,-4.75 -1.42,0 0.71,2.86 -1.43,0 -2.14,-2.86 -3.57,-4.04 -4.75,-3.57 -1.19,0.48 -2.62,0.71 -2.62,-1.18 0,-1.9 1.19,-5.47 1.19,-7.37 0,-1.89 1.18,-4.75 1.18,-6.18 0,-1.43 1.43,-10.23 1.43,-10.23 0,0 -9.75,19.25 -13.07,33.76 0,0 3.8,-0.48 3.8,1.91 0,2.38 0.95,4.75 0.48,7.37 -0.48,2.38 -0.48,1.91 -0.48,9.75 0,7.84 1.91,9.75 0.95,12.12 -0.95,2.38 -2.38,5.94 -2.86,8.8 -0.48,2.86 1.91,10.23 2.86,11.64 0.95,1.43 0.95,1.9 2.38,3.32 1.43,1.43 -2.38,7.37 1.43,1.43 3.8,-5.94 5.47,-8.32 5.47,-8.32l2.38 -2.86c0,0 0,-3.8 5,-2.86 5,0.95 5.47,0 6.89,1.91 1.43,1.9 -1.9,6.89 0.48,7.37 2.38,0.48 9.75,-2.86 11.64,-2.38 1.9,0.48 4.28,0.95 5.23,4.28 0.95,3.32 2.38,8.32 4.52,9.27 1.91,0.95 1.43,5.23 2.38,8.32 0.95,2.86 7.84,5 9.27,5 1.43,0 8.32,0.95 10.23,1.91 1.91,0.95 0,4.52 3.8,5.47 4.04,0.95 5,8.79 5,8.79 0,0 1.43,6.89 0.48,8.8 -0.95,1.91 -0.48,5.47 1.91,5.94 2.38,0.48 8.8,1.43 8.8,1.43 0,0 -3.33,4.75 1.9,6.89 5.47,1.9 10.7,3.8 12.12,4.99 1.43,0.95 -3.33,5.47 2.86,5 6.42,-0.48 12.12,-1.43 15.21,0.95 2.86,2.38 0.48,5.94 8.32,10.23 7.84,4.28 10.23,5.94 12.12,6.89 1.91,0.95 5.94,0.48 5,6.42 -0.95,5.94 -1.91,9.75 -5,12.12 -2.86,2.38 -6.89,10.23 -8.79,12.6 -1.91,2.38 -3.8,6.89 -1.91,10.7 1.91,3.8 4.28,8.32 4.28,10.7 0,2.38 0.95,9.75 -0.48,12.6 -1.43,2.86 -4.28,8.32 -4.28,8.32 0,0 5.47,4.52 1.43,8.32 -3.8,3.8 -9.75,8.32 -12.6,9.27 -2.86,0.95 -8.8,6.42 -8.8,6.42 0,0 0.48,12.12 0,14.74 -0.48,2.38 -11.64,21.87 -7.84,26.39 3.8,4.52 4.28,9.27 3.33,12.12 -0.95,2.86 -2.38,2.38 -3.33,4.75 -0.95,2.38 -8.32,0.48 -4.04,7.37 4.52,6.89 6.89,8.32 8.79,12.12 1.91,3.8 1.43,5.47 4.28,9.27 2.86,3.8 4.28,7.84 7.84,10.7 3.32,2.86 7.37,5 7.37,8.32 0,3.32 7.37,11.18 -1.43,5.47 -8.8,-5.94 -0.95,-0.48 -12.12,-9.75 -11.18,-9.27 -14.03,-5.47 -19.02,-11.18 -5,-5.94 2.38,14.74 -6.89,-9.75 -9.27,-24.49 -11.64,-21.39 -14.27,-26.87 -2.38,-5.47 -0.48,0.48 -7.37,-11.64 -6.89,-12.12 -0.95,-4.28 -6.89,-12.12 -5.94,-7.84 -6.41,2.86 -9.27,-11.18 -2.86,-14.03 -3.32,-4.75 -7.37,-20.92 -3.8,-16.16 2.86,-16.64 -5.94,-24.48 -8.79,-7.84 -8.32,-3.8 -11.18,-9.27 -2.86,-5.47 0.95,-0.48 -6.89,-14.27 -7.84,-13.79 -18.55,-19.02 -18.07,-42.55 0.48,-23.53 0.48,-27.34 0.48,-27.34 0,0 -11.64,-9.27 -7.84,-23.05 3.8,-13.79 5.47,-9.27 3.8,-13.79 -1.43,-4.28 -2.86,-3.32 -6.89,-8.79 -4.04,-5.47 -4.52,-4.75 -5.47,-8.32 -0.95,-3.32 -2.38,-10.7 -2.38,-10.7l-2.86 2.38c0,0 -31.38,308.81 276.48,354.22 0,0 -71.08,-15.45 -77.03,-29.24 0,0 -1.43,-13.07 1.43,-13.07 2.86,0 7.37,2.14 11.64,-1.43 4.28,-3.57 9.5,-8.09 9.5,-8.09l0.71 5.94c0,0 -4.28,0.71 9.51,-1.43 14.03,-2.14 14.03,-0.71 19.02,-2.86 5.23,-2.14 10.93,-13.07 13.79,-6.66 2.86,6.66 -3.57,3.57 2.86,6.66 6.66,2.86 19.02,-1.43 19.02,-1.43 0,0 21.16,1.43 23.53,-0.71 2.14,-2.14 2.14,-5.94 5.94,-5.23 3.57,0.71 5.94,6.66 5.94,6.66l-11.64 6.66 -10.93 8.09c0,0 -5.23,1.43 -0.71,3.57 4.52,2.14 6.66,1.43 11.64,2.14 5.23,0.71 17.59,10.23 20.44,4.52 2.86,-5.94 3.57,-6.66 5.94,-10.23 2.14,-3.8 1.43,-8.09 6.66,-8.09 5.23,0 10.23,1.43 10.23,1.43l-4.52 9.5c0,0 8.79,-0.71 12.36,-0.71 3.57,0 4.52,5.94 9.51,0.71 5.23,-5.23 5.94,-5.23 10.93,-5.94 5.23,-0.71 12.36,-2.86 14.74,-2.14 2.14,0.71 6.66,1.43 8.79,1.43 2.14,0 13.07,8.09 15.46,6.66 2.14,-1.43 15.45,-0.71 15.45,-0.71 0,0 -35.9,33.05 -111.97,34.46 0,0 170.46,7.84 266.26,-158.33 95.81,-166.17 29.24,-379.18 -189.47,-453.35 0,0 163.55,60.62 206.83,217.29l-1.43 2.86c-4.52,-4.52 -4.52,-2.14 -8.08,-9.51 -3.57,-7.37 -0.71,-5.94 -3.57,-10.93 -2.86,-5.23 -2.14,-1.43 -5.94,-6.66 -3.57,-5.23 -4.52,-4.28 -7.37,-7.37 -2.86,-2.86 -5.94,-12.36 -8.09,-15.45 -2.14,-2.86 -8.8,-3.57 -11.64,-4.28 -2.86,-0.71 -1.43,-4.52 -2.86,-0.71 -1.43,3.57 4.28,9.51 4.28,9.51l0 11.64c0,0 4.28,10.93 4.28,14.03 0,3.09 -3.57,10.93 -3.57,10.93 0,0 -1.43,8.8 -4.28,10.23 -2.86,1.43 -19.73,4.28 -19.73,4.28 0,0 -5.23,-5.94 -8.09,-10.93 -2.86,-5.23 -12.36,-6.66 -13.79,-8.79 -1.43,-2.14 2.14,-6.66 -2.14,-12.37 -4.28,-5.94 0,-4.28 -5.94,-9.5l-5.94 -5.23c0,0 -13.07,-4.52 -8.8,2.86 4.28,7.37 -0.71,15.45 2.86,16.16 3.57,0.71 5.94,-2.14 8.8,4.52 2.86,6.66 3.57,9.51 5.94,11.64 2.14,2.14 2.86,11.64 5.94,12.37 2.86,0.71 10.93,0 10.23,3.57 -0.71,3.57 -5.23,8.8 0,10.23 5.23,1.43 5.94,3.57 8.79,2.86 2.86,-0.71 1.43,0.71 6.66,-1.43 5,-2.14 10.93,-2.14 10.93,-2.14 0,0 6.66,5.23 6.66,7.37 0,2.14 -2.14,14.74 -2.14,14.74l-6.66 12.36c0,0 0.71,21.87 -2.86,21.87 -3.57,0 -8.09,9.5 -10.23,10.93 -2.14,1.43 -2.86,16.16 -2.86,16.16l-6.66 8.09c0,0 -0.71,10.93 0,14.03 0.71,2.86 2.14,14.74 0.71,20.44 -1.43,5.94 -9.51,11.64 -9.51,11.64 0,0 10.93,10.23 5,11.64 -5.94,1.43 -11.64,10.23 -13.07,12.36 -1.43,2.14 -0.71,6.66 -4.28,7.37 -3.8,0.71 -10.23,1.43 -10.23,3.57l0 10.93 -11.64 16.88 -14.03 11.64c0,0 1.43,8.08 -2.86,8.79 -4.28,0.71 -19.02,6.66 -21.16,8.8 -2.14,2.14 -13.07,7.37 -16.88,7.37 -3.81,0 2.14,10.23 -3.57,0 -5.94,-10.23 -1.43,-3.57 -6.66,-15.46 -5.23,-11.64 -5.23,-2.86 -5.23,-11.64 0,-8.79 0.71,-0.71 0,-8.79 -0.71,-8.09 2.14,-2.14 -2.14,-11.64 -4.28,-9.51 -3.57,-6.66 -9.5,-12.36 -5.94,-5.94 -10.23,0 -6.66,-9.51 3.57,-9.51 1.43,0 3.57,-9.51 2.14,-9.51 -0.71,-10.93 5.23,-15.45 5.94,-4.52 10.93,-5.23 10.23,-10.93 -0.71,-5.94 -0.71,-8.09 -2.14,-11.64 -1.43,-3.8 -7.37,-9.51 -8.09,-11.64 -0.71,-2.14 -0.71,-0.71 -5.23,-7.37 -4.28,-6.66 -7.37,-10.23 -7.37,-10.23 0,0 -1.43,-15.46 -1.43,-21.16 0,-5.71 -2.14,3.57 0,-5.94 2.14,-9.5 2.86,-15.45 2.86,-15.45 0,0 -10.93,-7.37 -15.45,-6.66 -4.52,0.71 -3.57,7.37 -10.23,2.14 -6.66,-5.23 -5.23,-8.8 -7.37,-10.23 -2.14,-1.43 -6.66,-2.14 -10.23,0.71 -3.57,2.86 -11.64,2.86 -18.3,5.94 -6.66,2.86 -8.8,2.14 -17.59,2.14 -8.8,0 -19.02,2.86 -25.68,-0.71 -6.66,-3.57 -7.37,1.43 -10.23,-5.94 -2.86,-7.37 0,-6.66 -6.66,-10.23 -6.66,-3.57 -8.09,-0.71 -8.8,-7.37 -0.71,-6.66 2.86,-5.23 -2.14,-10.93 -5.23,-5.94 2.86,2.86 -5.23,-5.94 -8.09,-8.79 -10.93,-1.43 -8.09,-8.79 2.86,-7.37 5.23,-2.86 5.23,-11.64 0,-8.79 13.07,3.57 5.23,-14.03 -8.09,-17.59 -9.51,-14.03 -2.14,-27.1 7.37,-13.08 16.88,-17.59 18.3,-20.44 1.43,-2.86 4.28,-10.23 7.37,-12.36 2.86,-2.14 0.71,-4.52 7.37,-3.57 6.66,0.71 14.03,-2.14 18.3,-6.66 4.28,-4.28 10.23,-10.93 13.32,-11.64 2.86,-0.71 1.43,0.71 8.09,-0.71 6.66,-1.43 8.09,-2.14 12.36,-2.14 4.28,0 -4.52,1.43 8.09,-0.71 12.6,-2.14 9.51,-2.14 12.6,-2.14 3.09,0 1.43,0.71 6.66,1.43 5.23,0.71 4.52,-10.23 5.23,0.71 0.71,10.93 -4.28,16.16 4.52,16.88 8.8,0.71 0,0.71 8.8,0.71 8.79,0 6.66,1.43 10.93,3.57 4.52,2.14 6.66,5.23 13.08,5.23 6.41,0 -2.86,9.51 6.66,0 9.51,-9.51 -7.37,-10.93 9.51,-9.51 16.88,1.43 19.02,5.23 21.87,3.57 2.86,-1.43 3.57,1.43 10.93,-2.14 7.37,-3.57 8.08,-3.57 10.93,-2.14 2.86,1.43 2.86,8.09 5.94,1.43 2.86,-6.66 8.8,-4.52 0,-8.79 -8.8,-4.52 -11.64,0.71 -13.07,-5.23 -1.43,-5.94 7.37,-4.52 -1.43,-5.94 -8.79,-1.43 -7.37,-1.43 -13.79,-3.57 -6.66,-2.14 -13.32,6.66 -15.45,0 -2.14,-6.66 -14.74,4.52 -2.14,-6.66 12.36,-10.93 7.37,-15.45 15.45,-13.07 8.09,2.14 5.94,9.51 10.93,5.23 5.23,-4.52 14.74,-7.37 5.23,-14.03 -9.51,-6.66 -2.86,-3.57 -12.36,-8.08 -9.51,-4.52 -18.3,16.88 -22.59,14.03 -4.28,-2.86 -6.66,-5.23 -9.51,-3.57 -2.86,1.43 -2.86,9.51 -3.57,15.45 -0.71,5.94 5.23,7.37 -4.28,2.86 -9.51,-4.28 10.23,-2.14 -10.93,-10.23 -21.16,-8.09 -28.53,-5.94 -31.39,-2.86 -2.86,2.86 -7.37,2.14 -9.5,4.28 -2.14,2.14 6.66,7.37 -2.14,2.14 -8.79,-5.23 -17.59,2.86 -17.59,2.86 0,0 -2.86,-1.43 -6.66,1.43 -3.57,2.86 -10.93,5.23 -15.45,3.57 -4.52,-1.43 -14.03,1.43 -5.94,-8.79 8.09,-10.23 2.14,-4.28 14.74,-9.51 12.36,-5.23 30.91,-5.94 14.74,-9.51 -16.17,-3.57 8.8,-3.57 -12.36,-14.03 -21.16,-10.23 -21.87,3.8 -21.16,-10.23 0.71,-14.03 -1.43,-14.74 -5.94,-14.03 -4.28,0.71 -17.59,3.57 -22.82,4.52 -5.23,0.71 0.71,5.23 -8.8,-0.71 -9.51,-5.94 -13.32,2.86 -9.51,-5.94 3.8,-8.8 4.52,-10.23 10.23,-15.45 5.94,-5.23 4.28,-24.25 19.02,-16.88 14.74,7.37 8.8,5.23 20.44,5.94 11.64,0.71 16.88,-1.43 16.88,-3.57 0,-2.14 -13.32,-8.79 -13.32,-8.79 0,0 -4.28,1.43 -2.86,-0.71 1.43,-2.14 4.52,-6.66 4.52,-6.66l-4.52 -3.57c0,0 -40.89,0 -51.35,2.14l-0.65 0.22z"/>
    </g>
   </g>
  </g>
 </g>
</svg>
