<?xml version="1.0" encoding="UTF-8"?>
<svg id="Capa_2" data-name="Capa 2" xmlns="http://www.w3.org/2000/svg" viewBox="0 0 24.75 26.86">
  <defs>
    <style>
      .cls-1 {
        fill: #fff;
        stroke-width: 0px;
      }
    </style>
  </defs>
  <g id="Capa_1-2" data-name="Capa 1">
    <g>
      <path class="cls-1" d="M5.78,6.68c.11.11.25.17.39.18.18.02.37-.04.51-.18.25-.25.25-.65,0-.9l-.51-.51-1.65-1.66c-.25-.25-.65-.25-.9,0-.25.25-.25.65,0,.9l2.16,2.16Z"/>
      <path class="cls-1" d="M12.33,4.32s.03,0,.05,0c.35,0,.63-.28.63-.64V.64c0-.35-.28-.64-.63-.64-.02,0-.03,0-.05,0-.33.03-.59.3-.59.64v3.05c0,.33.26.61.59.63Z"/>
      <path class="cls-1" d="M18.53,6.87c.16,0,.32-.06.44-.19l2.16-2.16c.25-.25.25-.65,0-.9-.25-.25-.65-.25-.9,0l-1.7,1.7-.46.46c-.25.25-.25.65,0,.9.13.13.29.19.46.19Z"/>
      <path class="cls-1" d="M4.32,12.38c0-.35-.28-.64-.63-.64H.63c-.35,0-.63.29-.63.64s.28.63.63.63h3.06c.35,0,.63-.28.63-.63Z"/>
      <path class="cls-1" d="M24.12,11.75h-3.06c-.35,0-.63.29-.63.64s.28.63.63.63h3.06c.35,0,.63-.28.63-.63s-.28-.64-.63-.64Z"/>
      <path class="cls-1" d="M18.97,18.07c-.12-.12-.28-.18-.44-.19-.17,0-.33.06-.46.19-.25.25-.25.65,0,.9l.46.46,1.7,1.7c.25.25.65.25.9,0,.25-.25.25-.65,0-.9l-2.16-2.16Z"/>
      <path class="cls-1" d="M6.18,17.89c-.14.01-.28.07-.39.18l-2.16,2.16c-.25.25-.25.65,0,.9.25.25.65.25.9,0l1.65-1.66.51-.51c.25-.25.25-.65,0-.9-.14-.14-.32-.2-.51-.18Z"/>
      <path class="cls-1" d="M19.17,12.37c0-1.04-.23-2.02-.64-2.9-1.09-2.33-3.46-3.94-6.2-3.94h0c-2.7,0-5.04,1.57-6.15,3.85-.44.91-.69,1.92-.69,3s.25,2.09.69,3c.54,1.11,1.38,2.06,2.41,2.73v5.38c0,1.87,1.52,3.38,3.38,3.38h.84c1.87,0,3.38-1.52,3.38-3.38v-5.46c1-.69,1.82-1.64,2.34-2.75.41-.88.64-1.86.64-2.9ZM15.12,17.03c-.21.13-.34.36-.34.61v3.13h-4.78v-3.06c0-.25-.13-.49-.36-.61-1.64-.94-2.74-2.7-2.74-4.72,0-1.5.61-2.86,1.59-3.84.99-.98,2.34-1.59,3.84-1.59h0c1.5,0,2.86.61,3.84,1.59.99.98,1.59,2.34,1.59,3.84,0,1.98-1.06,3.71-2.64,4.66Z"/>
    </g>
  </g>
</svg>