<?xml version="1.0" encoding="UTF-8"?>
<!DOCTYPE svg PUBLIC "-//W3C//DTD SVG 1.1//EN" "http://www.w3.org/Graphics/SVG/1.1/DTD/svg11.dtd">
<!-- Creator: CorelDRAW -->
<svg xmlns="http://www.w3.org/2000/svg" xml:space="preserve" width="29.5948mm" height="29.5948mm" version="1.1" style="shape-rendering:geometricPrecision; text-rendering:geometricPrecision; image-rendering:optimizeQuality; fill-rule:evenodd; clip-rule:evenodd"
viewBox="0 0 475.18 475.18"
 xmlns:xlink="http://www.w3.org/1999/xlink"
 xmlns:xodm="http://www.corel.com/coreldraw/odm/2003"
 data-name="Capa 2">
 <defs>
  <style type="text/css">
   <![CDATA[
    .fil0 {fill:none}
    .fil1 {fill:white;fill-rule:nonzero}
   ]]>
  </style>
 </defs>
 <g id="Capa_x0020_1">
  <metadata id="CorelCorpID_0Corel-Layer"/>
  <polygon class="fil0" points="-0,0 475.18,0 475.18,475.18 -0,475.18 "/>
  <g id="ico-innovacion-tecnologia.svg">
   <g id="Capa_1-2" data-name="Capa 1">
    <g>
     <path class="fil1" d="M142.52 128.27c1.59,1.59 3.61,2.46 5.63,2.6 2.6,0.29 5.34,-0.58 7.36,-2.6 3.61,-3.61 3.61,-9.39 0,-13l-7.36 -7.36 -23.84 -23.97c-3.61,-3.61 -9.39,-3.61 -13,0 -3.61,3.61 -3.61,9.39 0,13l31.2 31.2 0 0.14z"/>
     <path class="fil1" d="M237.13 94.18c0,0 0.43,0 0.72,0 5.06,0 9.1,-4.04 9.1,-9.24l0 -43.91c0,-5.05 -4.04,-9.24 -9.1,-9.24 -0.29,0 -0.43,0 -0.72,0 -4.77,0.43 -8.52,4.34 -8.52,9.24l0 44.05c0,4.77 3.76,8.81 8.52,9.1l0 -0.01z"/>
     <path class="fil1" d="M326.68 131.01c2.31,0 4.62,-0.87 6.35,-2.75l31.2 -31.2c3.61,-3.61 3.61,-9.39 0,-13 -3.61,-3.61 -9.39,-3.61 -13,0l-24.55 24.55 -6.64 6.64c-3.61,3.61 -3.61,9.39 0,13 1.88,1.88 4.19,2.75 6.64,2.75z"/>
     <path class="fil1" d="M121.44 210.6c0,-5.05 -4.05,-9.24 -9.1,-9.24l-44.2 0c-5.06,0 -9.1,4.19 -9.1,9.24 0,5.06 4.04,9.1 9.1,9.1l44.2 0c5.05,0 9.1,-4.04 9.1,-9.1z"/>
     <path class="fil1" d="M407.42 201.5l-44.2 0c-5.05,0 -9.1,4.19 -9.1,9.24 0,5.05 4.05,9.1 9.1,9.1l44.2 0c5.06,0 9.1,-4.04 9.1,-9.1 0,-5.06 -4.04,-9.24 -9.1,-9.24z"/>
     <path class="fil1" d="M333.03 292.79c-1.73,-1.74 -4.04,-2.6 -6.35,-2.75 -2.46,0 -4.77,0.87 -6.64,2.75 -3.61,3.61 -3.61,9.39 0,13l6.64 6.64 24.55 24.55c3.61,3.61 9.39,3.61 13,0 3.61,-3.61 3.61,-9.39 0,-13l-31.2 -31.2z"/>
     <path class="fil1" d="M148.3 290.18c-2.02,0.14 -4.04,1.01 -5.63,2.6l-31.2 31.2c-3.61,3.61 -3.61,9.39 0,13 3.61,3.61 9.39,3.61 13,0l23.83 -23.98 7.36 -7.36c3.61,-3.61 3.61,-9.39 0,-13 -2.02,-2.02 -4.62,-2.89 -7.36,-2.6l0 0.14z"/>
     <path class="fil1" d="M335.92 210.45c0,-15.02 -3.33,-29.18 -9.24,-41.89 -15.74,-33.65 -49.98,-56.91 -89.55,-56.91l0 0c-39,0 -72.79,22.68 -88.83,55.61 -6.35,13.15 -9.97,27.73 -9.97,43.33 0,15.6 3.61,30.19 9.97,43.33 7.8,16.03 19.93,29.75 34.81,39.43l0 77.71c0,27.01 21.96,48.82 48.82,48.82l12.14 -0c27.01,0 48.82,-21.96 48.82,-48.82l0 -78.86c14.45,-9.97 26.29,-23.69 33.8,-39.72 5.92,-12.71 9.24,-26.86 9.24,-41.89l0 -0.15zm-58.49 67.31c-3.03,1.88 -4.91,5.2 -4.91,8.81l0 45.21 -69.04 0 0 -44.2c0,-3.61 -1.88,-7.08 -5.2,-8.81 -23.69,-13.58 -39.58,-39 -39.58,-68.17 0,-21.67 8.81,-41.31 22.97,-55.46 14.3,-14.16 33.8,-22.96 55.46,-22.96l0 0c21.67,0 41.31,8.81 55.46,22.96 14.3,14.16 22.97,33.8 22.97,55.46 0,28.6 -15.31,53.59 -38.13,67.31l0 -0.15z"/>
    </g>
   </g>
  </g>
 </g>
</svg>
