<?xml version="1.0" encoding="UTF-8"?>
<!DOCTYPE svg PUBLIC "-//W3C//DTD SVG 1.1//EN" "http://www.w3.org/Graphics/SVG/1.1/DTD/svg11.dtd">
<!-- Creator: CorelDRAW -->
<svg xmlns="http://www.w3.org/2000/svg" xml:space="preserve" width="10.4309mm" height="9.6474mm" version="1.1" style="shape-rendering:geometricPrecision; text-rendering:geometricPrecision; image-rendering:optimizeQuality; fill-rule:evenodd; clip-rule:evenodd"
viewBox="0 0 233.46 215.92"
 xmlns:xlink="http://www.w3.org/1999/xlink"
 xmlns:xodm="http://www.corel.com/coreldraw/odm/2003">
 <defs>
  <style type="text/css">
   <![CDATA[
    .fil0 {fill:white;fill-rule:nonzero}
   ]]>
  </style>
 </defs>
 <g id="Capa_x0020_1">
  <metadata id="CorelCorpID_0Corel-Layer"/>
  <path class="fil0" d="M232.98 62.4c0,-1.18 -0.12,-2.43 -0.18,-3.67 -0.24,-2.55 -1.07,-5.51 -1.66,-7.58 -0.59,-1.9 -1.01,-2.96 -2.07,-5.39 -0.95,-2.67 -2.01,-5.09 -3.14,-7.28 -1.54,-3.61 -2.13,-5.03 -3.49,-7.22 -1.6,-2.67 -2.9,-4.26 -4.03,-5.15 -0.41,-0.59 -0.77,-1.13 -1.18,-1.66 -4.38,-6.22 -7.52,-9.06 -9.77,-10.84 -3.55,-2.84 -6.81,-4.38 -10.9,-6.34l-1.07 -0.53c-5.57,-2.67 -10.3,-4.8 -16.52,-5.98 -5.27,-1.01 -10.36,-1.01 -18.24,0 -12.5,1.6 -22.38,2.84 -32.27,7.82 -4.91,2.49 -9.18,5.63 -12.79,9 -5.33,2.84 -9.83,10.07 -13.15,17.05 -4.74,8.59 -6.75,15.87 -7.11,17.41 -1.3,5.21 -6.87,32.45 10.78,56.85 11.9,16.4 28.13,22.98 36.78,25.41 6.69,1.9 13.03,2.55 18.53,2.55 9.47,0 16.7,-1.9 19.84,-2.78 6.28,-1.66 23.04,-6.1 36.54,-22.09 4.98,-5.92 13.62,-18.42 15.28,-36.01 0.53,-5.33 0.3,-9.89 -0.18,-13.5l-0 -0.06zm-15.99 10.9c0.59,1.95 1.24,3.97 0.41,6.22 -0.53,1.48 -1.36,2.19 -2.37,2.96 -1.3,1.01 -2.78,2.19 -3.14,4.98 -0.12,0.83 -0.12,1.6 -0.06,2.43 0,1.24 0,2.67 -0.3,4.86 -0.41,2.55 -0.83,3.08 -0.95,3.26 -0.59,0.77 -1.18,0.95 -2.07,1.18 -0.83,0.24 -1.9,0.53 -2.84,1.48 -1.42,1.3 -1.48,2.72 -1.6,4.62 -0.06,1.3 -0.18,2.9 -0.65,5.21 -0.71,3.61 -1.36,6.04 -3.26,7.22 -1.18,0.77 -2.13,0.77 -2.67,0.65 -1.07,-0.24 -1.84,-1.36 -4.21,-5.63 -1.3,-2.31 -2.07,-3.79 -2.61,-4.8 -0.95,-1.84 -1.18,-2.19 -1.84,-2.9 -0.83,-0.89 -2.07,-1.95 -8.76,-4.98 -1.54,-0.71 -2.84,-1.24 -4.03,-1.78 -4.5,-1.95 -5.86,-2.61 -6.69,-4.32 -0.59,-1.18 -0.65,-2.31 -0.65,-3.55 -0.12,-2.9 0.65,-5.57 2.13,-7.4 1.54,-1.9 3.55,-2.61 5.86,-3.44 2.96,-1.07 4.8,-1.13 6.75,-1.18 1.84,0 3.79,-0.12 6.63,-1.07 2.9,-0.95 7.82,-2.61 9.36,-7.11 1.01,-2.9 0.36,-6.34 -1.66,-8.76 -2.25,-2.72 -5.45,-3.26 -6.4,-3.32 -2.01,-0.18 -4.15,0.3 -8.35,3.08 -3.38,2.19 -5.03,3.91 -6.4,5.27 -1.3,1.36 -2.31,2.31 -4.38,3.32 -1.6,0.77 -5.39,2.55 -8.82,1.01 -0.59,-0.3 -2.67,-1.3 -3.55,-3.55 -1.07,-2.61 -0.12,-5.63 1.36,-7.34 0.71,-0.83 1.54,-1.3 2.31,-1.72 1.07,-0.59 2.31,-1.3 2.67,-2.9 0.24,-1.24 -0.18,-2.07 -0.59,-2.84 -0.24,-0.47 -0.47,-0.95 -0.65,-1.6 -0.53,-2.19 0.12,-4.98 1.48,-6.45 1.01,-1.13 2.25,-1.3 3.67,-1.48 1.72,-0.24 3.67,-0.47 5.27,-2.43 0.89,-1.07 1.13,-2.07 1.3,-2.84 0.18,-0.77 0.3,-1.24 1.01,-1.9 1.48,-1.36 3.61,-1.42 4.62,-1.48 0.65,0 2.37,0 4.74,0.95 2.13,0.83 3.26,1.78 4.26,2.61 1.13,0.95 2.19,1.78 3.97,1.95 1.72,0.12 3.55,-1.01 6.87,-3.02 4.15,-2.55 6.93,-4.26 10.3,-7.22 0.36,-0.3 0.65,-0.59 0.95,-0.83 1.18,-1.07 1.42,-1.24 1.84,-1.24l0 -0c0,0 0.41,0 1.01,0.53 2.13,3.08 4.68,6.93 7.05,11.73 0,0.12 0.06,0.18 0.12,0.3l0.71 1.6c0.65,1.6 1.18,2.84 1.66,3.91 0.18,0.47 0.36,0.89 0.53,1.24 1.07,2.96 2.01,6.22 2.72,9.77 0.3,1.42 0.71,3.49 1.01,6.1 0,3.49 -0.71,3.97 -0.83,4.03l-0 0c0,0 -0.77,-0.36 -1.18,-0.59 -1.13,-0.71 -2.67,-1.72 -4.98,-1.72l0 0c-0.77,0 -4.26,0.12 -6.1,2.55 -1.6,2.07 -0.89,4.38 -0.24,6.51l0.24 -0.12zm-97 -54.36c1.42,-0.12 2.13,0.3 3.79,1.3 2.01,1.18 5.03,3.02 11.55,4.98 6.04,1.78 9.06,2.67 13.44,2.25 1.95,-0.18 3.67,-0.59 4.98,-0.89 1.3,-0.3 2.72,-0.65 3.02,-0.36 0.59,0.65 -0.47,3.61 -1.24,5.74 -0.77,2.19 -1.9,4.26 -3.26,6.16 -0.47,0.59 -1.84,2.49 -6.1,6.28 -2.61,2.31 -4.38,3.61 -5.63,4.5 -1.9,1.36 -2.78,2.07 -3.26,3.85 -0.59,2.19 0.18,3.97 0.77,5.39 0.65,1.54 1.01,2.49 0.47,3.79 -0.95,2.37 -3.91,3.44 -4.03,3.49 -1.95,0.65 -3.67,0.24 -5.39,-0.18 -1.84,-0.47 -3.79,-0.95 -5.39,0.47 -1.78,1.54 -1.72,4.09 -1.66,4.91 0.12,3.02 2.01,4.91 2.84,5.74 2.61,2.67 6.1,3.26 7.46,3.44 1.01,0.12 1.78,0.06 2.37,0 0.77,0 0.95,0 1.3,0.18 0.41,0.24 0.53,0.47 0.77,1.07 0.3,0.59 0.71,1.48 1.6,2.37 0.53,0.53 2.49,2.31 5.15,2.43 1.84,0.12 2.9,-0.65 3.85,-1.36 0.65,-0.47 1.24,-0.89 2.19,-1.13 2.9,-0.71 6.51,1.07 7.16,2.96 0.24,0.77 -0.12,1.54 -1.48,4.56l0 0.12c0,0 -2.01,4.15 -6.16,13.21 -1.13,2.49 -1.66,3.85 -2.07,4.8 -0.47,1.18 -0.71,1.78 -1.54,3.2 -0.89,1.66 -1.6,2.67 -2.25,3.61 -0.89,1.3 -1.6,2.37 -2.31,4.32 -0.53,1.48 -0.83,2.78 -1.07,3.91 -0.47,-1.24 -1.13,-2.78 -2.01,-4.5 -1.72,-3.32 -2.78,-5.33 -5.15,-6.81 -1.6,-1.01 -2.84,-1.13 -3.85,-1.24 -0.95,-0.12 -1.6,-0.18 -2.49,-0.89 -1.48,-1.13 -2.84,-3.44 -2.55,-5.45l0 0.01c0.12,-0.59 0.3,-0.95 0.59,-1.36 0.36,-0.65 0.83,-1.42 0.77,-2.67 -0.12,-1.54 -0.95,-2.37 -1.6,-3.02 -0.47,-0.47 -0.89,-0.89 -1.13,-1.6 -0.89,-2.43 1.07,-5.45 1.07,-5.45 0.83,-1.24 2.13,-2.01 3.26,-2.67 1.36,-0.83 2.78,-1.66 2.67,-3.32 -0.06,-0.95 -0.65,-1.36 -1.36,-1.9 -0.3,-0.24 -0.77,-0.53 -1.36,-1.07 -1.07,-0.89 -1.66,-1.48 -2.13,-1.95 -0.71,-0.71 -1.24,-1.24 -2.31,-1.84 -0.71,-0.41 -1.48,-0.71 -3.61,-1.13 -2.55,-0.59 -4.44,-0.77 -5.86,-0.95 -0.77,-0.12 -1.66,-0.18 -2.01,-0.3 0.06,-0.18 0.18,-0.41 0.24,-0.65 0.24,-0.59 0.59,-1.48 1.07,-2.84 1.07,-2.96 1.54,-4.21 1.24,-5.21 -0.53,-2.01 -2.25,-2.67 -3.79,-3.2 -1.3,-0.47 -2.55,-0.95 -3.2,-2.13 -0.36,-0.71 -0.36,-1.24 -0.3,-2.01 0,-1.13 0.12,-2.49 -0.95,-4.26 -1.01,-1.72 -2.49,-2.9 -3.26,-3.49 -0.83,-0.65 -1.72,-1.24 -2.67,-1.72 1.3,-4.21 3.32,-9.65 5.8,-14.81 2.9,-5.15 6.87,-10.78 12.2,-15.75 0.95,-0.47 1.9,-0.77 2.84,-0.83l-0.06 -0.12zm110.5 56.79c-1.6,16.82 -9.89,28.84 -14.69,34.52 -12.97,15.34 -29.14,19.66 -35.17,21.26 -4.8,1.3 -19.48,5.15 -37.01,0.24 -8.29,-2.37 -23.92,-8.65 -35.35,-24.4 -16.94,-23.39 -11.61,-49.51 -10.3,-54.6 0.83,0.41 1.6,0.89 2.31,1.48 0.71,0.53 1.84,1.48 2.61,2.78 0.65,1.13 0.65,1.9 0.59,2.84 0,0.95 -0.12,2.07 0.59,3.44 1.13,2.07 3.08,2.84 4.62,3.38 1.36,0.53 2.01,0.77 2.13,1.3 0,0.41 -0.53,1.95 -1.18,3.73 -0.47,1.3 -0.77,2.13 -1.07,2.72 -0.47,1.13 -0.77,1.84 -0.3,2.78 0.65,1.42 2.07,1.6 4.26,1.84 1.3,0.18 3.14,0.36 5.63,0.89 1.95,0.41 2.49,0.65 2.9,0.89 0.71,0.41 1.07,0.71 1.72,1.36 0.53,0.53 1.18,1.18 2.37,2.13 0.65,0.53 1.13,0.89 1.48,1.13 0,0 0,0 0.06,0 -0.3,0.24 -0.77,0.47 -1.13,0.71 -1.24,0.71 -2.9,1.72 -4.09,3.44 0,0 -2.78,4.09 -1.36,7.93 0.47,1.24 1.13,1.95 1.72,2.55 0.59,0.59 0.77,0.83 0.83,1.36 0,0.41 -0.06,0.59 -0.36,1.13 -0.3,0.53 -0.77,1.24 -0.95,2.37 -0.53,3.14 1.48,6.34 3.55,7.93 1.48,1.18 2.72,1.3 3.85,1.42 0.89,0.12 1.66,0.18 2.72,0.89 1.78,1.07 2.55,2.67 4.21,5.74 1.24,2.37 1.95,4.32 2.43,5.8 0.59,1.78 1.07,3.02 2.31,3.02 0.06,0 0.12,0 0.18,0 1.42,-0.12 1.54,-1.54 1.72,-2.96 0.18,-1.3 0.36,-3.32 1.24,-5.57 0.59,-1.66 1.18,-2.49 2.01,-3.73 0.59,-0.89 1.36,-2.07 2.37,-3.79 0.89,-1.6 1.18,-2.31 1.66,-3.49 0.41,-0.95 0.95,-2.25 2.01,-4.68 4.15,-9 6.04,-13.15 6.1,-13.15l0 -0.12c1.66,-3.44 2.25,-4.74 1.66,-6.51 -1.13,-3.38 -6.16,-5.68 -10.3,-4.74 -1.42,0.36 -2.37,1.01 -3.14,1.54 -0.77,0.59 -1.24,0.89 -2.19,0.83 -1.78,-0.06 -3.2,-1.48 -3.38,-1.66 -0.59,-0.59 -0.83,-1.07 -1.07,-1.6 -0.36,-0.71 -0.71,-1.54 -1.78,-2.19 -1.13,-0.71 -2.01,-0.65 -2.9,-0.59 -0.53,0 -1.13,0.06 -1.9,0 -1.07,-0.12 -3.85,-0.59 -5.86,-2.67 -0.65,-0.65 -2.01,-2.01 -2.07,-3.97 0,-1.42 0.24,-2.31 0.77,-2.78 0.53,-0.47 1.3,-0.36 3.02,0.12 1.84,0.47 4.15,1.07 6.87,0.12 0.71,-0.24 4.38,-1.6 5.68,-5.03 0.89,-2.37 0.12,-4.26 -0.53,-5.74 -0.53,-1.24 -1.01,-2.37 -0.65,-3.67 0.24,-0.83 0.47,-1.07 2.25,-2.37 1.24,-0.89 3.14,-2.31 5.8,-4.68 4.5,-3.97 5.98,-6.04 6.45,-6.69 1.54,-2.13 2.72,-4.38 3.61,-6.81 1.36,-3.67 2.43,-6.57 0.77,-8.41 -1.3,-1.48 -3.32,-1.01 -5.63,-0.47 -1.3,0.3 -2.84,0.65 -4.62,0.83 -3.91,0.36 -6.57,-0.41 -12.5,-2.19 -6.22,-1.84 -9.06,-3.55 -10.96,-4.68 -1.36,-0.83 -2.43,-1.48 -3.91,-1.6 2.55,-1.95 5.39,-3.79 8.47,-5.39 9.42,-4.8 19.13,-5.98 31.39,-7.58 7.58,-0.95 12.44,-0.95 17.41,0 5.92,1.13 10.48,3.2 15.87,5.74l1.07 0.53c4.09,1.95 7.05,3.38 10.42,5.98 1.95,1.54 4.68,4.03 8.53,9.18 -0.83,0.3 -1.54,0.89 -2.55,1.78 -0.3,0.24 -0.59,0.53 -0.89,0.83 -3.2,2.84 -5.74,4.38 -9.95,6.99 -2.55,1.6 -4.38,2.72 -5.27,2.67 -0.95,-0.06 -1.48,-0.47 -2.55,-1.36 -1.13,-0.89 -2.49,-2.07 -5.03,-3.02 -2.72,-1.07 -4.8,-1.13 -5.8,-1.13 -1.24,0 -4.15,0.18 -6.34,2.19 -1.3,1.18 -1.54,2.31 -1.78,3.2 -0.18,0.65 -0.3,1.18 -0.77,1.78 -0.95,1.13 -2.07,1.3 -3.55,1.48 -1.6,0.24 -3.61,0.47 -5.27,2.31 -2.01,2.19 -2.9,5.8 -2.13,8.94 0.24,1.01 0.59,1.72 0.89,2.25 0.3,0.59 0.36,0.77 0.3,1.07 -0.06,0.41 -0.36,0.59 -1.36,1.18 -0.89,0.47 -1.95,1.13 -3.02,2.31 -1.95,2.25 -3.38,6.34 -1.84,10.07 1.24,3.08 3.85,4.5 4.98,4.98 4.56,2.01 9.24,-0.18 11.01,-1.01 2.55,-1.18 3.79,-2.43 5.15,-3.85 1.3,-1.36 2.84,-2.9 5.92,-4.91 3.97,-2.61 5.51,-2.72 6.63,-2.61 0.65,0 2.96,0.41 4.56,2.37 1.42,1.72 1.9,4.21 1.18,6.22 -1.07,3.26 -5.03,4.56 -7.7,5.45 -2.49,0.83 -4.09,0.89 -5.86,0.95 -2.07,0.06 -4.15,0.12 -7.52,1.3 -2.61,0.89 -5.09,1.78 -7.11,4.26 -1.9,2.37 -2.9,5.63 -2.72,9.18 0,1.36 0.12,2.9 0.95,4.56 1.3,2.67 3.44,3.55 8.05,5.57 1.13,0.47 2.43,1.07 3.97,1.72 6.69,3.02 7.46,3.91 7.88,4.32 0.41,0.47 0.47,0.59 1.42,2.37 0.53,1.01 1.36,2.55 2.61,4.86 2.37,4.26 3.55,6.4 5.92,6.93 0.3,0.06 0.71,0.12 1.13,0.12 0.95,0 2.13,-0.24 3.49,-1.13 3.02,-1.9 3.73,-5.51 4.44,-8.94 0.53,-2.49 0.59,-4.26 0.65,-5.57 0.12,-1.78 0.18,-2.25 0.77,-2.84 0.53,-0.47 1.07,-0.65 1.78,-0.89 1.01,-0.3 2.31,-0.71 3.44,-2.13 0.47,-0.65 1.01,-1.66 1.48,-4.44 0.41,-2.43 0.36,-4.03 0.36,-5.33 0,-0.77 0,-1.36 0.06,-2.01 0.24,-1.72 1.01,-2.31 2.19,-3.26 1.13,-0.89 2.49,-1.95 3.26,-4.21 1.07,-3.08 0.24,-5.68 -0.41,-7.82 -0.59,-2.01 -0.95,-3.2 -0.18,-4.15 0.89,-1.18 2.9,-1.48 3.97,-1.48l0 0.01c1.54,0 2.55,0.65 3.55,1.3 1.07,0.65 2.25,1.42 3.67,0.83 0.06,0 0.12,-0.06 0.18,-0.12 0,2.07 0,4.38 -0.24,6.81l0.12 -0.3z"/>
  <path class="fil0" d="M0.46 70.4l2.84 11.18 10.83 -2.66 0 48.73 13.49 0 0 -62.58 -9.32 0 -17.84 5.33zm40.65 25.74l7.9 5.24c1.48,-0.65 3.09,-1.2 4.84,-1.64 1.75,-0.45 3.59,-0.67 5.55,-0.67 3.37,0 6.05,0.74 8.03,2.23 1.98,1.48 2.97,3.6 2.97,6.33 0,2.86 -0.93,5.03 -2.8,6.51 -1.86,1.5 -4.39,2.23 -7.59,2.23 -2.78,0 -5.36,-0.59 -7.72,-1.77 -2.37,-1.18 -4.73,-2.84 -7.1,-4.97l-8.26 9.82c3.02,2.88 6.39,5.15 10.12,6.79 3.73,1.64 8.11,2.47 13.14,2.47 3.55,0 6.79,-0.5 9.73,-1.51 2.93,-1.01 5.43,-2.44 7.49,-4.31 2.06,-1.86 3.65,-4.13 4.78,-6.79 1.14,-2.66 1.7,-5.65 1.7,-8.97 0,-3.55 -0.56,-6.58 -1.7,-9.1 -1.12,-2.52 -2.68,-4.57 -4.65,-6.17 -1.97,-1.6 -4.26,-2.78 -6.91,-3.55 -2.65,-0.77 -5.5,-1.15 -8.58,-1.15 -1.71,0 -3.19,0.1 -4.44,0.31 -1.24,0.21 -2.48,0.46 -3.73,0.76l0.71 -10.74 26.53 0 0 -11.99 -38.24 0 -1.78 30.62zm-20.13 72.39l0 -13.24c0,-3.1 -0.81,-5.51 -2.43,-7.24 -1.62,-1.73 -4.2,-2.6 -7.75,-2.6 -1.93,0 -3.58,0.17 -4.94,0.51 -1.36,0.34 -2.67,0.78 -3.92,1.32l1.62 4.94c1.05,-0.4 2.05,-0.7 3,-0.92 0.95,-0.21 2.05,-0.32 3.3,-0.32 1.62,0 2.84,0.36 3.66,1.07 0.82,0.71 1.24,1.75 1.24,3.11l0 0.38c-0.82,-0.28 -1.67,-0.51 -2.53,-0.68 -0.87,-0.17 -1.88,-0.26 -3.04,-0.26 -1.36,0 -2.61,0.15 -3.73,0.45 -1.12,0.3 -2.09,0.75 -2.89,1.34 -0.81,0.6 -1.44,1.35 -1.9,2.26 -0.45,0.91 -0.68,1.99 -0.68,3.24l0 0.09c0,1.14 0.21,2.14 0.62,3 0.41,0.87 0.97,1.6 1.68,2.19 0.71,0.6 1.54,1.04 2.49,1.34 0.95,0.3 1.97,0.45 3.04,0.45 1.59,0 2.94,-0.26 4.05,-0.79 1.11,-0.52 2.06,-1.23 2.85,-2.11l0 2.47 6.26 0zm-6.13 -8.05c0,1.19 -0.46,2.16 -1.38,2.9 -0.92,0.74 -2.15,1.11 -3.68,1.11 -1.05,0 -1.9,-0.24 -2.55,-0.73 -0.65,-0.48 -0.98,-1.16 -0.98,-2.04l0 -0.09c0,-1.02 0.4,-1.8 1.19,-2.34 0.79,-0.54 1.89,-0.81 3.28,-0.81 0.79,0 1.54,0.08 2.24,0.24 0.69,0.16 1.33,0.36 1.89,0.62l0 1.15zm17.2 8.05l0 -31.08 -6.47 0 0 31.08 6.47 0zm25.55 0l0 -22.82 -6.47 0 0 12.7c0,1.52 -0.36,2.68 -1.09,3.46 -0.73,0.78 -1.71,1.17 -2.96,1.17 -1.25,0 -2.21,-0.39 -2.89,-1.17 -0.68,-0.77 -1.02,-1.93 -1.02,-3.46l0 -12.7 -6.47 0 0 14.77c0,2.64 0.67,4.71 2.02,6.22 1.35,1.5 3.26,2.26 5.73,2.26 0.82,0 1.56,-0.1 2.21,-0.3 0.65,-0.21 1.25,-0.47 1.79,-0.82 0.54,-0.35 1.03,-0.74 1.47,-1.18 0.44,-0.45 0.85,-0.91 1.22,-1.4l0 3.27 6.47 0zm39.34 0l0 -14.86c0,-2.76 -0.68,-4.84 -2.04,-6.26 -1.36,-1.42 -3.25,-2.13 -5.66,-2.13 -1.56,0 -2.95,0.3 -4.17,0.92 -1.22,0.62 -2.33,1.52 -3.32,2.73 -0.6,-1.18 -1.44,-2.07 -2.53,-2.7 -1.09,-0.63 -2.39,-0.94 -3.9,-0.94 -0.82,0 -1.57,0.1 -2.24,0.3 -0.67,0.21 -1.27,0.47 -1.81,0.82 -0.54,0.35 -1.03,0.74 -1.47,1.18 -0.44,0.45 -0.84,0.91 -1.21,1.4l0 -3.27 -6.47 0 0 22.82 6.47 0 0 -12.7c0,-1.53 0.35,-2.68 1.04,-3.46 0.7,-0.78 1.65,-1.17 2.87,-1.17 1.22,0 2.16,0.39 2.81,1.17 0.65,0.77 0.98,1.93 0.98,3.46l0 12.7 6.47 0 0 -12.7c0,-1.53 0.35,-2.68 1.04,-3.46 0.7,-0.78 1.65,-1.17 2.87,-1.17 1.22,0 2.16,0.39 2.81,1.17 0.65,0.77 0.98,1.93 0.98,3.46l0 12.7 6.47 0zm25.25 0l0 -14.77c0,-2.64 -0.67,-4.71 -2.02,-6.22 -1.35,-1.5 -3.26,-2.26 -5.73,-2.26 -0.82,0 -1.56,0.1 -2.21,0.3 -0.65,0.21 -1.25,0.47 -1.79,0.82 -0.54,0.35 -1.03,0.74 -1.47,1.18 -0.44,0.45 -0.84,0.91 -1.21,1.4l0 -3.27 -6.47 0 0 22.82 6.47 0 0 -12.7c0,-1.53 0.36,-2.68 1.09,-3.46 0.73,-0.78 1.71,-1.17 2.96,-1.17 1.25,0 2.21,0.39 2.89,1.17 0.68,0.77 1.02,1.93 1.02,3.46l0 12.7 6.47 0zm27.93 -11.37l0 -0.09c0,-1.65 -0.31,-3.19 -0.94,-4.62 -0.62,-1.43 -1.48,-2.68 -2.58,-3.75 -1.09,-1.06 -2.39,-1.9 -3.89,-2.51 -1.5,-0.61 -3.14,-0.92 -4.9,-0.92 -1.79,0 -3.44,0.31 -4.94,0.94 -1.5,0.62 -2.81,1.48 -3.92,2.56 -1.11,1.08 -1.97,2.33 -2.6,3.77 -0.62,1.43 -0.94,2.97 -0.94,4.62l0 0.09c0,1.65 0.31,3.18 0.94,4.62 0.62,1.43 1.48,2.68 2.57,3.75 1.09,1.06 2.39,1.9 3.9,2.51 1.5,0.61 3.14,0.92 4.9,0.92 1.79,0 3.44,-0.31 4.94,-0.94 1.5,-0.62 2.81,-1.48 3.92,-2.56 1.11,-1.08 1.97,-2.33 2.6,-3.77 0.62,-1.43 0.94,-2.97 0.94,-4.62zm-6.39 0.09c0,0.85 -0.13,1.65 -0.4,2.4 -0.27,0.75 -0.66,1.41 -1.17,1.98 -0.51,0.57 -1.13,1.02 -1.85,1.34 -0.73,0.33 -1.55,0.49 -2.49,0.49 -0.91,0 -1.72,-0.17 -2.45,-0.51 -0.72,-0.34 -1.35,-0.8 -1.89,-1.38 -0.54,-0.58 -0.95,-1.25 -1.24,-2 -0.28,-0.75 -0.43,-1.55 -0.43,-2.4l0 -0.09c0,-0.85 0.13,-1.65 0.4,-2.41 0.27,-0.75 0.66,-1.41 1.17,-1.98 0.51,-0.57 1.13,-1.01 1.85,-1.34 0.72,-0.33 1.55,-0.49 2.49,-0.49 0.88,0 1.69,0.17 2.43,0.51 0.74,0.34 1.38,0.8 1.92,1.39 0.54,0.58 0.95,1.25 1.24,2 0.28,0.75 0.43,1.55 0.43,2.41l0 0.09zm26.53 4.34l0 -0.09c0,-1.05 -0.21,-1.94 -0.64,-2.68 -0.43,-0.74 -0.97,-1.36 -1.62,-1.88 -0.65,-0.51 -1.39,-0.94 -2.21,-1.3 -0.82,-0.35 -1.63,-0.66 -2.43,-0.92 -0.62,-0.2 -1.21,-0.4 -1.77,-0.6 -0.56,-0.2 -1.04,-0.41 -1.47,-0.62 -0.43,-0.21 -0.77,-0.44 -1.02,-0.68 -0.26,-0.24 -0.38,-0.52 -0.38,-0.83l0 -0.09c0,-0.45 0.2,-0.83 0.6,-1.13 0.4,-0.3 0.99,-0.45 1.79,-0.45 0.82,0 1.77,0.19 2.85,0.58 1.08,0.38 2.18,0.9 3.32,1.55l2.47 -4.47c-1.25,-0.82 -2.62,-1.47 -4.11,-1.94 -1.49,-0.47 -2.96,-0.7 -4.41,-0.7 -1.16,0 -2.25,0.16 -3.26,0.47 -1.01,0.31 -1.89,0.78 -2.64,1.41 -0.75,0.62 -1.35,1.38 -1.79,2.28 -0.44,0.89 -0.66,1.92 -0.66,3.09l0 0.09c0,1.11 0.21,2.04 0.62,2.81 0.41,0.77 0.94,1.41 1.6,1.94 0.65,0.53 1.38,0.95 2.19,1.28 0.81,0.33 1.61,0.6 2.41,0.83 0.62,0.2 1.22,0.38 1.79,0.55 0.57,0.17 1.07,0.35 1.51,0.53 0.44,0.18 0.79,0.41 1.05,0.66 0.26,0.26 0.38,0.55 0.38,0.89l0 0.09c0,0.51 -0.22,0.92 -0.66,1.24 -0.44,0.31 -1.13,0.47 -2.07,0.47 -1.08,0 -2.24,-0.23 -3.47,-0.68 -1.24,-0.45 -2.48,-1.13 -3.73,-2.04l-2.77 4.26c1.53,1.19 3.14,2.07 4.83,2.62 1.69,0.56 3.34,0.83 4.96,0.83 1.22,0 2.36,-0.15 3.43,-0.45 1.06,-0.3 1.99,-0.74 2.79,-1.34 0.79,-0.6 1.41,-1.35 1.85,-2.28 0.44,-0.92 0.66,-2.02 0.66,-3.3zm-147.79 36.62l0 -0.09c0,-1.62 -0.22,-3.17 -0.66,-4.66 -0.44,-1.49 -1.12,-2.81 -2.04,-3.96 -0.92,-1.15 -2.08,-2.07 -3.47,-2.75 -1.39,-0.68 -3.04,-1.02 -4.94,-1.02 -1.67,0 -3.2,0.31 -4.58,0.94 -1.38,0.62 -2.56,1.48 -3.55,2.56 -0.99,1.08 -1.77,2.34 -2.32,3.79 -0.55,1.45 -0.83,2.98 -0.83,4.6l0 0.09c0,1.76 0.3,3.36 0.9,4.79 0.6,1.43 1.43,2.67 2.49,3.72 1.07,1.05 2.33,1.86 3.79,2.43 1.46,0.57 3.04,0.85 4.75,0.85 2.07,0 3.87,-0.38 5.41,-1.13 1.53,-0.75 2.84,-1.8 3.92,-3.13l-3.7 -3.28c-0.91,0.82 -1.79,1.42 -2.64,1.79 -0.85,0.37 -1.82,0.55 -2.89,0.55 -1.45,0 -2.66,-0.38 -3.64,-1.13 -0.98,-0.75 -1.62,-1.87 -1.94,-3.34l15.88 0c0.03,-0.31 0.05,-0.58 0.06,-0.81 0.01,-0.23 0.02,-0.5 0.02,-0.81zm-6.3 -2.43l-9.75 0c0.26,-1.48 0.8,-2.65 1.64,-3.53 0.84,-0.88 1.94,-1.32 3.3,-1.32 1.36,0 2.46,0.45 3.28,1.34 0.82,0.9 1.33,2.07 1.53,3.51zm30.83 13.2l-8.05 -11.71 7.71 -11.11 -6.77 0 -4.3 6.64 -4.26 -6.64 -6.94 0 7.71 11.24 -8 11.58 6.77 0 4.6 -7.11 4.6 7.11 6.94 0zm15.42 -0.94l0 -5.19c-0.99,0.54 -2.06,0.81 -3.19,0.81 -1.39,0 -2.09,-0.74 -2.09,-2.21l0 -9.75 5.36 0 0 -5.53 -5.36 0 0 -5.83 -6.47 0 0 5.83 -2.72 0 0 5.53 2.72 0 0 10.81c0,1.33 0.16,2.44 0.49,3.3 0.33,0.87 0.78,1.57 1.36,2.11 0.58,0.54 1.28,0.92 2.09,1.13 0.81,0.21 1.71,0.32 2.7,0.32 1.08,0 2.03,-0.12 2.85,-0.36 0.82,-0.24 1.57,-0.56 2.26,-0.96zm17.33 -15.54l0 -6.77c-1.93,-0.09 -3.46,0.34 -4.6,1.28 -1.14,0.94 -2.03,2.18 -2.68,3.75l0 -4.6 -6.47 0 0 22.82 6.47 0 0 -8.43c0,-2.75 0.62,-4.78 1.85,-6.09 1.24,-1.31 2.93,-1.96 5.09,-1.96l0.34 0zm22.4 16.48l0 -13.24c0,-3.1 -0.81,-5.51 -2.43,-7.24 -1.62,-1.73 -4.2,-2.6 -7.75,-2.6 -1.93,0 -3.58,0.17 -4.94,0.51 -1.36,0.34 -2.67,0.78 -3.92,1.32l1.62 4.94c1.05,-0.4 2.05,-0.7 3,-0.92 0.95,-0.21 2.05,-0.32 3.3,-0.32 1.62,0 2.84,0.36 3.66,1.07 0.82,0.71 1.24,1.75 1.24,3.11l0 0.38c-0.82,-0.28 -1.67,-0.51 -2.53,-0.68 -0.87,-0.17 -1.88,-0.26 -3.04,-0.26 -1.36,0 -2.61,0.15 -3.73,0.45 -1.12,0.3 -2.09,0.75 -2.89,1.34 -0.81,0.6 -1.44,1.35 -1.9,2.26 -0.45,0.91 -0.68,1.99 -0.68,3.24l0 0.09c0,1.14 0.21,2.14 0.62,3 0.41,0.87 0.97,1.6 1.68,2.19 0.71,0.6 1.54,1.04 2.49,1.34 0.95,0.3 1.97,0.45 3.04,0.45 1.59,0 2.94,-0.26 4.05,-0.79 1.11,-0.52 2.06,-1.23 2.85,-2.11l0 2.47 6.26 0zm-6.13 -8.05c0,1.19 -0.46,2.16 -1.38,2.9 -0.92,0.74 -2.15,1.11 -3.68,1.11 -1.05,0 -1.9,-0.24 -2.55,-0.73 -0.65,-0.48 -0.98,-1.16 -0.98,-2.04l0 -0.09c0,-1.02 0.4,-1.8 1.19,-2.34 0.79,-0.54 1.89,-0.81 3.28,-0.81 0.79,0 1.54,0.08 2.24,0.24 0.69,0.16 1.33,0.36 1.89,0.62l0 1.15zm31.34 8.05l0 -14.77c0,-2.64 -0.67,-4.71 -2.02,-6.22 -1.35,-1.5 -3.26,-2.26 -5.73,-2.26 -0.82,0 -1.56,0.1 -2.21,0.3 -0.65,0.21 -1.25,0.47 -1.79,0.82 -0.54,0.35 -1.03,0.74 -1.47,1.18 -0.44,0.45 -0.84,0.91 -1.21,1.4l0 -3.27 -6.47 0 0 22.82 6.47 0 0 -12.7c0,-1.53 0.36,-2.68 1.09,-3.46 0.73,-0.78 1.71,-1.17 2.96,-1.17 1.25,0 2.21,0.39 2.89,1.17 0.68,0.77 1.02,1.93 1.02,3.46l0 12.7 6.47 0zm11.28 -25.33l0 -5.75 -6.81 0 0 5.75 6.81 0zm-0.17 24.95l0 -22.44 -6.47 0 0 21.93c0,0.97 -0.21,1.65 -0.64,2.05 -0.43,0.4 -0.98,0.6 -1.66,0.6 -0.4,0 -0.85,-0.04 -1.36,-0.13l0 5.07c0.45,0.09 0.89,0.15 1.3,0.19 0.41,0.04 0.92,0.06 1.51,0.06 2.41,0 4.24,-0.59 5.47,-1.77 1.24,-1.18 1.85,-3.03 1.85,-5.56zm26.1 -10.39l0 -0.09c0,-1.62 -0.22,-3.17 -0.66,-4.66 -0.44,-1.49 -1.12,-2.81 -2.04,-3.96 -0.92,-1.15 -2.08,-2.07 -3.47,-2.75 -1.39,-0.68 -3.04,-1.02 -4.94,-1.02 -1.67,0 -3.2,0.31 -4.58,0.94 -1.38,0.62 -2.56,1.48 -3.55,2.56 -0.99,1.08 -1.77,2.34 -2.32,3.79 -0.55,1.45 -0.83,2.98 -0.83,4.6l0 0.09c0,1.76 0.3,3.36 0.9,4.79 0.6,1.43 1.43,2.67 2.49,3.72 1.07,1.05 2.33,1.86 3.79,2.43 1.46,0.57 3.04,0.85 4.75,0.85 2.07,0 3.87,-0.38 5.41,-1.13 1.53,-0.75 2.84,-1.8 3.92,-3.13l-3.7 -3.28c-0.91,0.82 -1.79,1.42 -2.64,1.79 -0.85,0.37 -1.82,0.55 -2.89,0.55 -1.45,0 -2.66,-0.38 -3.64,-1.13 -0.98,-0.75 -1.62,-1.87 -1.94,-3.34l15.88 0c0.03,-0.31 0.05,-0.58 0.06,-0.81 0.01,-0.23 0.02,-0.5 0.02,-0.81zm-6.3 -2.43l-9.75 0c0.26,-1.48 0.8,-2.65 1.64,-3.53 0.84,-0.88 1.94,-1.32 3.3,-1.32 1.36,0 2.46,0.45 3.28,1.34 0.82,0.9 1.33,2.07 1.53,3.51zm23.59 -3.28l0 -6.77c-1.93,-0.09 -3.46,0.34 -4.6,1.28 -1.14,0.94 -2.03,2.18 -2.68,3.75l0 -4.6 -6.47 0 0 22.82 6.47 0 0 -8.43c0,-2.75 0.62,-4.78 1.85,-6.09 1.24,-1.31 2.93,-1.96 5.09,-1.96l0.34 0zm26.36 5.11l0 -0.09c0,-1.65 -0.31,-3.19 -0.94,-4.62 -0.62,-1.43 -1.48,-2.68 -2.58,-3.75 -1.09,-1.06 -2.39,-1.9 -3.89,-2.51 -1.5,-0.61 -3.14,-0.92 -4.9,-0.92 -1.79,0 -3.44,0.31 -4.94,0.94 -1.5,0.62 -2.81,1.48 -3.92,2.56 -1.11,1.08 -1.97,2.33 -2.6,3.77 -0.62,1.43 -0.94,2.97 -0.94,4.62l0 0.09c0,1.65 0.31,3.18 0.94,4.62 0.62,1.43 1.48,2.68 2.57,3.75 1.09,1.06 2.39,1.9 3.9,2.51 1.5,0.61 3.14,0.92 4.9,0.92 1.79,0 3.44,-0.31 4.94,-0.94 1.5,-0.62 2.81,-1.48 3.92,-2.56 1.11,-1.08 1.97,-2.33 2.6,-3.77 0.62,-1.43 0.94,-2.97 0.94,-4.62zm-6.39 0.09c0,0.85 -0.13,1.65 -0.4,2.4 -0.27,0.75 -0.66,1.41 -1.17,1.98 -0.51,0.57 -1.13,1.02 -1.85,1.34 -0.73,0.33 -1.55,0.49 -2.49,0.49 -0.91,0 -1.72,-0.17 -2.45,-0.51 -0.72,-0.34 -1.35,-0.8 -1.89,-1.38 -0.54,-0.58 -0.95,-1.25 -1.24,-2 -0.28,-0.75 -0.43,-1.55 -0.43,-2.4l0 -0.09c0,-0.85 0.13,-1.65 0.4,-2.41 0.27,-0.75 0.66,-1.41 1.17,-1.98 0.51,-0.57 1.13,-1.01 1.85,-1.34 0.72,-0.33 1.55,-0.49 2.49,-0.49 0.88,0 1.69,0.17 2.43,0.51 0.74,0.34 1.38,0.8 1.92,1.39 0.54,0.58 0.95,1.25 1.24,2 0.28,0.75 0.43,1.55 0.43,2.41l0 0.09zm26.53 4.34l0 -0.09c0,-1.05 -0.21,-1.94 -0.64,-2.68 -0.43,-0.74 -0.97,-1.36 -1.62,-1.88 -0.65,-0.51 -1.39,-0.94 -2.21,-1.3 -0.82,-0.35 -1.63,-0.66 -2.43,-0.92 -0.62,-0.2 -1.21,-0.4 -1.77,-0.6 -0.56,-0.2 -1.04,-0.41 -1.47,-0.62 -0.43,-0.21 -0.77,-0.44 -1.02,-0.68 -0.26,-0.24 -0.38,-0.52 -0.38,-0.83l0 -0.09c0,-0.45 0.2,-0.83 0.6,-1.13 0.4,-0.3 0.99,-0.45 1.79,-0.45 0.82,0 1.77,0.19 2.85,0.58 1.08,0.38 2.18,0.9 3.32,1.55l2.47 -4.47c-1.25,-0.82 -2.62,-1.47 -4.11,-1.94 -1.49,-0.47 -2.96,-0.7 -4.41,-0.7 -1.16,0 -2.25,0.16 -3.26,0.47 -1.01,0.31 -1.89,0.78 -2.64,1.41 -0.75,0.62 -1.35,1.38 -1.79,2.28 -0.44,0.89 -0.66,1.92 -0.66,3.09l0 0.09c0,1.11 0.21,2.04 0.62,2.81 0.41,0.77 0.94,1.41 1.6,1.94 0.65,0.53 1.38,0.95 2.19,1.28 0.81,0.33 1.61,0.6 2.41,0.83 0.62,0.2 1.22,0.38 1.79,0.55 0.57,0.17 1.07,0.35 1.51,0.53 0.44,0.18 0.79,0.41 1.05,0.66 0.26,0.26 0.38,0.55 0.38,0.89l0 0.09c0,0.51 -0.22,0.92 -0.66,1.24 -0.44,0.31 -1.13,0.47 -2.07,0.47 -1.08,0 -2.24,-0.23 -3.47,-0.68 -1.24,-0.45 -2.48,-1.13 -3.73,-2.04l-2.77 4.26c1.53,1.19 3.14,2.07 4.83,2.62 1.69,0.56 3.34,0.83 4.96,0.83 1.22,0 2.36,-0.15 3.43,-0.45 1.06,-0.3 1.99,-0.74 2.79,-1.34 0.79,-0.6 1.41,-1.35 1.85,-2.28 0.44,-0.92 0.66,-2.02 0.66,-3.3z"/>
 </g>
</svg>
