<?xml version="1.0" encoding="UTF-8"?>
<!DOCTYPE svg PUBLIC "-//W3C//DTD SVG 1.1//EN" "http://www.w3.org/Graphics/SVG/1.1/DTD/svg11.dtd">
<!-- Creator: CorelDRAW -->
<svg xmlns="http://www.w3.org/2000/svg" xml:space="preserve" width="29.5948mm" height="29.5948mm" version="1.1" style="shape-rendering:geometricPrecision; text-rendering:geometricPrecision; image-rendering:optimizeQuality; fill-rule:evenodd; clip-rule:evenodd"
viewBox="0 0 351.21 351.21"
 xmlns:xlink="http://www.w3.org/1999/xlink"
 xmlns:xodm="http://www.corel.com/coreldraw/odm/2003">
 <defs>
  <style type="text/css">
   <![CDATA[
    .fil0 {fill:none}
    .fil1 {fill:white;fill-rule:nonzero}
   ]]>
  </style>
 </defs>
 <g id="Capa_x0020_1">
  <metadata id="CorelCorpID_0Corel-Layer"/>
  <polygon class="fil0" points="-0,0 351.21,0 351.21,351.21 -0,351.21 "/>
  <g id="Capa_1-2" data-name="Capa 1">
   <g>
    <path class="fil1" d="M331.48 226.97c-6.38,-8.16 -18.41,-11.06 -27.09,-15.66 -3.34,-1.78 -6.83,-3.34 -10.17,-5.19 3.19,-0.6 3.12,-5.71 -0.37,-5.49 -2.38,0.15 -4.75,0.22 -7.13,0.3 -3.19,-2.89 -5.94,-6.24 -8.61,-9.65 3.49,-0.37 3.49,-5.79 0,-5.56 -1.48,0.15 -2.89,0.15 -4.38,0.15 -2.82,-3.12 -5.57,-6.31 -8.24,-9.5 0.15,0 0.22,0 0.37,0 3.56,-0.3 3.56,-5.86 0,-5.56 -1.56,0.15 -3.19,0.15 -4.75,0.22 -2.45,-3.12 -4.9,-6.24 -7.2,-9.5 0.07,0 0.15,0 0.22,0 3.56,-0.3 3.56,-5.86 0,-5.56 -1.34,0.07 -2.6,0.07 -3.93,0.15 -1.26,-1.85 -2.52,-3.71 -3.71,-5.64 -0.67,-1.11 -1.34,-2.45 -2.08,-3.78 0.15,0 0.3,0 0.37,0 3.56,-0.3 3.56,-5.86 0,-5.56 -1.04,0.07 -2.08,0 -3.04,0.15 -3.04,-6.24 -6.61,-12.84 -11.72,-14.99 -0.74,-0.3 -1.48,-0.52 -2.23,-0.67 -0.89,-2.75 -1.93,-5.56 -3.04,-8.24 -0.52,-1.34 -0.89,-2.52 -2.08,-3.41 -3.49,-2.45 -10.69,-1.78 -14.47,-0.89 -11.21,2.45 -13.06,12.47 -13.66,22.41l-0 0c-3.12,0.82 -6.24,1.19 -9.43,0.45 -8.16,-1.78 -18.63,-9.05 -23.01,-15.96 -4.01,-6.31 -1.48,-16.33 -8.02,-20.71 -0.67,-0.45 -1.41,-0.82 -2.15,-1.04 5.42,-7.5 2.38,-19.44 -8.39,-20.56 -4.23,-0.45 -8.31,2.3 -8.16,6.9 0,2.75 2.15,4.6 3.41,6.83 2.08,3.63 1.34,8.24 -1.71,11.13 0,0 0,0 0,0 -13.51,11.06 -36.29,24.19 -33.1,44.68 -12.69,5.34 -12.1,25.97 -4.6,35.33 13.8,17.07 35.99,25.9 55.37,34.73 9.94,4.53 19.96,9.05 29.17,15.07 11.95,7.72 21.3,18.18 32.36,27.09 17.14,13.8 31.25,15.14 52.47,15.36 12.32,0.15 24.64,0.15 36.89,-0.74 8.61,-0.67 16.1,-0.82 22.78,-6.75 11.87,-10.54 12.99,-27.61 3.12,-40.3l-0.07 0zm-9.2 -0.74c5.79,4.97 9.94,12.77 10.24,20.41 -15.07,9.28 -38.44,7.72 -55.36,6.01 -8.09,-0.82 -15.66,-2.82 -22.86,-5.71 3.56,-10.91 19,-13.36 28.5,-12.25 4.53,0.52 9.28,1.63 13.88,0.89 7.64,-1.19 14.1,-7.5 18.03,-14.03 2.89,1.41 5.57,2.97 7.64,4.75l-0.07 -0.07zm-87.13 -84.68c-3.86,0 -7.79,0 -11.65,-0.3 -3.56,-0.22 -3.56,5.34 0,5.56 5.05,0.3 10.09,0.3 15.07,0.15 1.85,3.27 3.56,6.61 5.2,9.5 -3.63,0 -7.27,0 -10.98,-0.3 -3.56,-0.22 -3.56,5.34 0,5.56 4.82,0.3 9.65,0.3 14.47,0.15 2.15,3.19 4.31,6.38 6.61,9.43 -3.12,0 -6.24,0 -9.43,-0.3 -3.56,-0.22 -3.56,5.34 0,5.57 4.6,0.3 9.13,0.3 13.73,0.15 2.52,3.19 5.05,6.31 7.72,9.35 -3.04,0 -6.09,0 -9.13,-0.3 -3.56,-0.22 -3.56,5.34 0,5.56 4.6,0.3 9.2,0.3 13.8,0.15 2.75,3.12 5.49,6.24 8.31,9.28 -2.15,0 -4.23,0 -6.38,-0.15 -3.56,-0.22 -3.56,5.34 0,5.56 4.08,0.3 8.24,0.3 12.32,0.22 1.56,1.19 3.19,2.23 4.9,3.26 -18.11,10.69 -34.88,-12.47 -45.2,-24.79 -13.14,-15.66 -23.67,-32.95 -33.47,-50.91 3.63,-1.63 7.27,-2.82 10.17,-2.52 5.79,0.59 10.17,4.75 13.8,9.94l0.15 0.16zm-26.27 -22.93c2.38,-0.67 7.2,-1.26 9.5,0 1.48,0.82 2.82,4.31 3.64,6.98 -5.12,0.74 -10.39,3.12 -14.25,4.68 -2.45,0.96 -4.97,2.15 -7.57,3.19 0.45,-6.38 1.48,-12.91 8.61,-14.92l0.08 0.07zm-63.6 -34.66c5.05,2.67 5.12,9.43 0.59,12.62 -0.15,0.15 -0.3,0.3 -0.37,0.45 0.22,-2.38 0,-4.75 -1.04,-6.83 -0.74,-1.48 -2.08,-2.67 -2.75,-4.16 -1.34,-2.97 1.34,-3.26 3.56,-2.08l-0 0zm-2.89 21.37c7.79,-6.61 10.02,6.46 12.02,11.95 1.85,5.12 5.71,10.17 9.87,13.65 9.72,8.16 22.34,13.58 34.51,9.13 2,-0.74 4.6,-2.08 7.35,-3.49 1.26,2.38 2.67,4.6 4.01,6.98 -13.51,5.42 -25.6,7.12 -39.78,2.08 -17.44,-6.24 -26.42,-20.93 -29.98,-38.52 0.74,-0.59 1.41,-1.11 2.08,-1.71l-0.07 -0.07zm-6.9 5.34c8.68,36.81 42.82,52.1 77.41,37.7 11.13,18.78 23.45,36.22 37.77,52.92 10.98,12.84 29.54,21.89 44.53,11.43 0.74,0.37 1.48,0.74 2.3,1.19 3.41,1.78 7.79,3.41 12.02,5.19 -4.53,7.2 -11.06,11.13 -19.89,10.76 -5.49,-0.22 -10.76,-1.93 -16.25,-1.34 -9.13,0.96 -20.71,6.9 -24.19,16.03 -10.69,-5.05 -20.63,-11.87 -30.13,-19.74 -0.37,-0.3 -0.67,-0.59 -1.04,-0.89 0.37,-0.3 0.74,-0.67 0.96,-1.19 5.42,-13.21 -0.59,-28.94 -11.21,-37.77 -12.47,-10.46 -27.31,-11.13 -42.53,-7.72 -0.45,0.07 -0.82,0.3 -1.11,0.52 -17.66,-11.06 -36.14,-21 -54.55,-30.58 -3.34,-16.18 13.36,-27.53 25.9,-36.66l0 0.15zm78.45 109.76c-14.25,-12.77 -26.27,-27.39 -42.6,-38.07 -0.22,-0.15 -0.45,-0.3 -0.67,-0.45 11.06,-1.93 21.52,-1.19 31.32,5.64 10.24,7.13 16.33,20.86 11.95,32.88zm111.62 41.71c-8.83,6.98 -21.3,6.61 -32.06,6.9 -16.63,0.52 -38.07,3.49 -53.95,-2.08 -18.41,-6.38 -30.65,-23.38 -45.86,-34.66 -15.51,-11.58 -33.77,-18.48 -51.14,-26.72 -9.65,-4.6 -19.07,-9.57 -27.53,-16.1 -4.68,-3.64 -11.06,-8.46 -13.88,-13.73 -3.27,-6.24 -2.08,-20.71 5.86,-23.67 22.86,11.8 46.61,23.9 67.46,38.96 21.22,15.44 36.89,36.66 59.08,51.14 16.25,10.61 32.8,15.51 52.17,16.4 14.47,0.67 32.28,1.26 45.94,-5.27 -1.04,3.26 -2.97,6.24 -6.09,8.68l0 0.15z"/>
    <path class="fil1" d="M128.58 184.36c-7.05,-2.89 -17.88,-10.39 -18.26,-18.92 -0.15,-3.56 -5.71,-3.56 -5.57,0 0.52,11.35 12.77,20.41 22.34,24.27 3.34,1.34 4.75,-4.01 1.48,-5.34z"/>
    <path class="fil1" d="M134.51 189.34c-3.56,0 -3.56,5.56 0,5.56 3.56,0 3.56,-5.56 0,-5.56z"/>
    <path class="fil1" d="M112.4 215.69c-14.03,0 -28.13,-0.52 -42.15,-0.52 -3.56,0 -3.56,5.57 0,5.57 14.03,0 28.13,0.59 42.15,0.52 3.56,0 3.56,-5.56 0,-5.56z"/>
    <path class="fil1" d="M42.49 220.95c3.19,0 6.38,0 9.65,0 3.56,0 3.56,-5.49 0,-5.56 -3.19,0 -6.38,0 -9.65,0 -3.56,0 -3.56,5.49 0,5.56z"/>
    <path class="fil1" d="M102.38 238.47c-20.26,0.45 -40.75,-0.82 -61.01,0.37 -3.56,0.22 -3.56,5.79 0,5.57 20.19,-1.11 40.75,0.07 61.01,-0.37 3.56,0 3.56,-5.64 0,-5.57z"/>
    <path class="fil1" d="M142.6 239.06c-8.02,-0.59 -16.1,0 -24.12,-0.15 -3.56,0 -3.56,5.49 0,5.56 8.02,0.07 16.1,-0.45 24.12,0.15 3.56,0.3 3.56,-5.27 0,-5.56z"/>
    <path class="fil1" d="M26.61 238.84c-3.34,-0.3 -6.83,-0.3 -10.24,0 -3.56,0.3 -3.56,5.86 0,5.57 3.34,-0.3 6.83,-0.3 10.24,0 3.56,0.3 3.56,-5.27 0,-5.57z"/>
   </g>
  </g>
 </g>
</svg>
