<?xml version="1.0" encoding="UTF-8"?>
<!DOCTYPE svg PUBLIC "-//W3C//DTD SVG 1.1//EN" "http://www.w3.org/Graphics/SVG/1.1/DTD/svg11.dtd">
<!-- Creator: CorelDRAW -->
<svg xmlns="http://www.w3.org/2000/svg" xml:space="preserve" width="7.999mm" height="9.9189mm" version="1.1" style="shape-rendering:geometricPrecision; text-rendering:geometricPrecision; image-rendering:optimizeQuality; fill-rule:evenodd; clip-rule:evenodd"
viewBox="0 0 137.29 170.24"
 xmlns:xlink="http://www.w3.org/1999/xlink"
 xmlns:xodm="http://www.corel.com/coreldraw/odm/2003">
 <defs>
  <style type="text/css">
   <![CDATA[
    .fil0 {fill:white;fill-rule:nonzero}
   ]]>
  </style>
 </defs>
 <g id="Capa_x0020_1">
  <metadata id="CorelCorpID_0Corel-Layer"/>
  <path class="fil0" d="M24.33 31.15l0 0c11.22,0 20.32,9.11 20.32,20.35l-0 5.63c0,11.23 -9.1,20.34 -20.32,20.34l-0 0c-11.22,0 -20.32,-9.11 -20.32,-20.34l-0 -5.63c0,-11.23 9.1,-20.34 20.32,-20.34z"/>
  <path class="fil0" d="M37.06 13.21c0,-7.3 -5.92,-13.21 -13.21,-13.21 -7.3,0 -13.21,5.92 -13.21,13.21 0,7.3 5.92,13.21 13.21,13.21 7.3,0 13.21,-5.92 13.21,-13.21z"/>
  <path class="fil0" d="M70.65 31.15l0 0c11.22,0 20.32,9.11 20.32,20.35l-0 5.63c0,11.23 -9.1,20.34 -20.32,20.34l-0 0c-11.22,0 -20.32,-9.11 -20.32,-20.34l-0 -5.63c0,-11.23 9.1,-20.34 20.32,-20.34z"/>
  <path class="fil0" d="M83.39 13.21c0,-7.3 -5.92,-13.21 -13.21,-13.21 -7.3,0 -13.21,5.92 -13.21,13.21 0,7.3 5.92,13.21 13.21,13.21 7.3,0 13.21,-5.92 13.21,-13.21z"/>
  <path class="fil0" d="M116.97 31.15l0 0c11.22,0 20.32,9.11 20.32,20.35l-0 5.63c0,11.23 -9.1,20.34 -20.32,20.34l-0 0c-11.22,0 -20.32,-9.11 -20.32,-20.34l-0 -5.63c0,-11.23 9.1,-20.34 20.32,-20.34z"/>
  <path class="fil0" d="M129.7 13.21c0,-7.3 -5.92,-13.21 -13.21,-13.21 -7.3,0 -13.21,5.92 -13.21,13.21 0,7.3 5.92,13.21 13.21,13.21 7.3,0 13.21,-5.92 13.21,-13.21z"/>
  <path class="fil0" d="M38.17 95.25c-1.04,-0.82 -2.11,-1.54 -3.2,-2.2 -1.09,-0.66 -2.22,-1.2 -3.4,-1.66 -1.18,-0.45 -2.45,-0.78 -3.81,-1.01 -1.36,-0.23 -2.86,-0.34 -4.49,-0.34 -3.54,0 -6.63,0.67 -9.26,2.01 -2.63,1.34 -4.81,3.18 -6.54,5.51 -1.72,2.34 -3.01,5.09 -3.85,8.27 -0.84,3.18 -1.26,6.6 -1.26,10.28 0,4.76 0.51,8.54 1.53,11.33 1.02,2.79 2.39,5.05 4.12,6.77 1.68,1.68 3.61,2.95 5.79,3.81 2.18,0.86 4.83,1.29 7.96,1.29 2.59,0 4.99,-0.4 7.22,-1.19 2.22,-0.79 4.14,-1.93 5.75,-3.4 1.61,-1.48 2.88,-3.22 3.81,-5.24 0.93,-2.02 1.4,-4.25 1.4,-6.71 0,-2.5 -0.43,-4.7 -1.29,-6.6 -0.86,-1.91 -2.04,-3.49 -3.54,-4.76 -1.5,-1.27 -3.27,-2.23 -5.31,-2.89 -2.04,-0.66 -4.24,-0.99 -6.6,-0.99 -2.36,0 -4.3,0.32 -5.82,0.95 -1.52,0.64 -2.87,1.34 -4.05,2.11 0.18,-1.56 0.5,-3.02 0.95,-4.38 0.45,-1.37 1.08,-2.55 1.87,-3.53 0.79,-0.99 1.75,-1.76 2.86,-2.34 1.11,-0.57 2.42,-0.85 3.91,-0.85 1,0 1.93,0.09 2.79,0.27 0.86,0.18 1.68,0.43 2.45,0.75 0.77,0.32 1.52,0.72 2.25,1.19 0.73,0.48 1.47,1.01 2.25,1.6l5.51 -8.07zm-8.58 28.01c0,2.09 -0.71,3.79 -2.16,5.11 -1.43,1.31 -3.45,1.97 -6.05,1.97 -2.6,0 -4.64,-0.67 -6.12,-2.01 -1.49,-1.34 -2.22,-3.05 -2.22,-5.14 0,-2.04 0.72,-3.71 2.16,-5 1.43,-1.29 3.45,-1.94 6.05,-1.94 2.6,0 4.64,0.66 6.12,1.97 1.48,1.32 2.22,3 2.22,5.04zm58.13 -8.65c0,-3.45 -0.5,-6.67 -1.5,-9.67 -1,-3 -2.42,-5.6 -4.25,-7.83 -1.84,-2.22 -4.06,-3.96 -6.67,-5.21 -2.61,-1.25 -5.5,-1.87 -8.68,-1.87 -3.18,0 -6.07,0.64 -8.68,1.91 -2.61,1.27 -4.84,3.02 -6.7,5.24 -1.86,2.22 -3.3,4.84 -4.32,7.86 -1.02,3.02 -1.53,6.25 -1.53,9.7 0,3.49 0.5,6.73 1.5,9.7 1,2.97 2.42,5.57 4.25,7.79 1.84,2.22 4.06,3.96 6.67,5.21 2.61,1.25 5.5,1.87 8.68,1.87 3.18,0 6.07,-0.64 8.68,-1.91 2.61,-1.27 4.85,-3.02 6.71,-5.24 1.86,-2.22 3.3,-4.83 4.32,-7.83 1.02,-3 1.53,-6.24 1.53,-9.74zm-10.76 0.14c0,2.18 -0.24,4.19 -0.71,6.02 -0.48,1.84 -1.17,3.44 -2.08,4.8 -0.91,1.36 -2,2.42 -3.27,3.17 -1.27,0.75 -2.7,1.12 -4.29,1.12 -1.59,0 -3.03,-0.39 -4.32,-1.16 -1.29,-0.77 -2.39,-1.84 -3.3,-3.2 -0.91,-1.36 -1.61,-2.97 -2.11,-4.83 -0.5,-1.86 -0.75,-3.88 -0.75,-6.06 0,-2.18 0.24,-4.2 0.72,-6.06 0.48,-1.86 1.17,-3.46 2.08,-4.8 0.91,-1.34 2,-2.38 3.27,-3.13 1.27,-0.75 2.7,-1.12 4.29,-1.12 1.59,0 3.03,0.39 4.32,1.16 1.29,0.77 2.39,1.84 3.3,3.2 0.91,1.36 1.61,2.97 2.11,4.83 0.5,1.86 0.75,3.88 0.75,6.06zm58.41 -0.14c0,-3.45 -0.5,-6.67 -1.5,-9.67 -1,-3 -2.42,-5.6 -4.25,-7.83 -1.84,-2.22 -4.06,-3.96 -6.67,-5.21 -2.61,-1.25 -5.5,-1.87 -8.68,-1.87 -3.18,0 -6.07,0.64 -8.68,1.91 -2.61,1.27 -4.84,3.02 -6.7,5.24 -1.86,2.22 -3.3,4.84 -4.32,7.86 -1.02,3.02 -1.53,6.25 -1.53,9.7 0,3.49 0.5,6.73 1.5,9.7 1,2.97 2.42,5.57 4.25,7.79 1.84,2.22 4.06,3.96 6.67,5.21 2.61,1.25 5.5,1.87 8.68,1.87 3.18,0 6.07,-0.64 8.68,-1.91 2.61,-1.27 4.85,-3.02 6.71,-5.24 1.86,-2.22 3.3,-4.83 4.32,-7.83 1.02,-3 1.53,-6.24 1.53,-9.74zm-10.76 0.14c0,2.18 -0.24,4.19 -0.71,6.02 -0.48,1.84 -1.17,3.44 -2.08,4.8 -0.91,1.36 -2,2.42 -3.27,3.17 -1.27,0.75 -2.7,1.12 -4.29,1.12 -1.59,0 -3.03,-0.39 -4.32,-1.16 -1.29,-0.77 -2.39,-1.84 -3.3,-3.2 -0.91,-1.36 -1.61,-2.97 -2.11,-4.83 -0.5,-1.86 -0.75,-3.88 -0.75,-6.06 0,-2.18 0.24,-4.2 0.72,-6.06 0.48,-1.86 1.17,-3.46 2.08,-4.8 0.91,-1.34 2,-2.38 3.27,-3.13 1.27,-0.75 2.7,-1.12 4.29,-1.12 1.59,0 3.03,0.39 4.32,1.16 1.29,0.77 2.39,1.84 3.3,3.2 0.91,1.36 1.61,2.97 2.11,4.83 0.5,1.86 0.75,3.88 0.75,6.06zm-108.53 55.1l0 -10.15c0,-2.37 -0.62,-4.22 -1.86,-5.55 -1.24,-1.33 -3.22,-1.99 -5.94,-1.99 -1.48,0 -2.74,0.13 -3.79,0.39 -1.05,0.26 -2.05,0.6 -3,1.01l1.24 3.79c0.8,-0.31 1.57,-0.54 2.3,-0.7 0.73,-0.16 1.57,-0.25 2.53,-0.25 1.24,0 2.18,0.27 2.81,0.82 0.63,0.54 0.95,1.34 0.95,2.38l0 0.3c-0.63,-0.22 -1.28,-0.39 -1.94,-0.52 -0.66,-0.13 -1.44,-0.2 -2.33,-0.2 -1.05,0 -2,0.11 -2.86,0.34 -0.86,0.23 -1.6,0.57 -2.22,1.03 -0.62,0.46 -1.11,1.03 -1.45,1.73 -0.35,0.7 -0.52,1.52 -0.52,2.48l0 0.07c0,0.87 0.16,1.64 0.47,2.3 0.32,0.66 0.74,1.23 1.29,1.68 0.54,0.46 1.18,0.8 1.91,1.03 0.73,0.23 1.51,0.34 2.33,0.34 1.22,0 2.25,-0.2 3.1,-0.6 0.85,-0.4 1.58,-0.94 2.19,-1.62l0 1.89 4.8 0zm-4.7 -6.17c0,0.91 -0.35,1.65 -1.06,2.22 -0.71,0.57 -1.65,0.85 -2.83,0.85 -0.8,0 -1.46,-0.19 -1.96,-0.56 -0.5,-0.37 -0.75,-0.89 -0.75,-1.57l0 -0.07c0,-0.78 0.31,-1.38 0.91,-1.8 0.61,-0.41 1.45,-0.62 2.51,-0.62 0.61,0 1.18,0.06 1.71,0.18 0.53,0.12 1.02,0.28 1.45,0.47l0 0.88zm13.19 6.17l0 -23.84 -4.96 0 0 23.84 4.96 0zm19.59 0l0 -17.5 -4.96 0 0 9.74c0,1.17 -0.28,2.06 -0.83,2.65 -0.56,0.6 -1.31,0.9 -2.27,0.9 -0.96,0 -1.7,-0.3 -2.22,-0.9 -0.52,-0.59 -0.78,-1.48 -0.78,-2.65l0 -9.74 -4.96 0 0 11.33c0,2.03 0.52,3.61 1.55,4.77 1.03,1.15 2.5,1.73 4.39,1.73 0.63,0 1.2,-0.08 1.7,-0.23 0.5,-0.16 0.96,-0.36 1.37,-0.63 0.41,-0.27 0.79,-0.56 1.13,-0.9 0.34,-0.34 0.65,-0.7 0.93,-1.07l0 2.5 4.96 0zm30.17 0l0 -11.39c0,-2.11 -0.52,-3.71 -1.57,-4.8 -1.05,-1.09 -2.49,-1.63 -4.34,-1.63 -1.2,0 -2.26,0.23 -3.2,0.71 -0.94,0.47 -1.79,1.17 -2.55,2.09 -0.46,-0.9 -1.11,-1.59 -1.94,-2.07 -0.84,-0.49 -1.83,-0.72 -2.99,-0.72 -0.63,0 -1.2,0.08 -1.71,0.23 -0.51,0.16 -0.97,0.36 -1.39,0.63 -0.41,0.27 -0.79,0.56 -1.13,0.9 -0.34,0.34 -0.65,0.7 -0.93,1.07l0 -2.5 -4.96 0 0 17.5 4.96 0 0 -9.74c0,-1.17 0.27,-2.06 0.8,-2.65 0.53,-0.6 1.27,-0.9 2.2,-0.9 0.94,0 1.65,0.3 2.16,0.9 0.5,0.59 0.75,1.48 0.75,2.65l0 9.74 4.96 0 0 -9.74c0,-1.17 0.27,-2.06 0.8,-2.65 0.53,-0.6 1.27,-0.9 2.2,-0.9 0.94,0 1.65,0.3 2.16,0.9 0.5,0.59 0.75,1.48 0.75,2.65l0 9.74 4.96 0zm19.36 0l0 -11.33c0,-2.03 -0.52,-3.61 -1.55,-4.77 -1.03,-1.15 -2.5,-1.73 -4.39,-1.73 -0.63,0 -1.2,0.08 -1.7,0.23 -0.5,0.16 -0.96,0.36 -1.37,0.63 -0.41,0.27 -0.79,0.56 -1.13,0.9 -0.34,0.34 -0.65,0.7 -0.93,1.07l0 -2.5 -4.96 0 0 17.5 4.96 0 0 -9.74c0,-1.17 0.28,-2.06 0.83,-2.65 0.56,-0.6 1.31,-0.9 2.27,-0.9 0.96,0 1.7,0.3 2.22,0.9 0.52,0.59 0.78,1.48 0.78,2.65l0 9.74 4.96 0zm21.42 -8.72l0 -0.07c0,-1.26 -0.24,-2.44 -0.72,-3.54 -0.48,-1.1 -1.14,-2.06 -1.98,-2.87 -0.84,-0.82 -1.83,-1.46 -2.99,-1.93 -1.15,-0.47 -2.41,-0.7 -3.76,-0.7 -1.37,0 -2.63,0.24 -3.79,0.72 -1.15,0.48 -2.15,1.13 -3,1.96 -0.85,0.83 -1.51,1.79 -1.99,2.89 -0.48,1.1 -0.72,2.28 -0.72,3.54l0 0.07c0,1.26 0.24,2.44 0.72,3.54 0.48,1.1 1.14,2.06 1.97,2.87 0.84,0.82 1.83,1.46 2.99,1.93 1.15,0.47 2.41,0.7 3.76,0.7 1.37,0 2.63,-0.24 3.79,-0.72 1.15,-0.48 2.15,-1.13 3,-1.96 0.85,-0.83 1.51,-1.79 1.99,-2.89 0.48,-1.1 0.72,-2.28 0.72,-3.54zm-4.9 0.07c0,0.65 -0.1,1.27 -0.31,1.84 -0.21,0.58 -0.51,1.08 -0.9,1.52 -0.39,0.44 -0.87,0.78 -1.42,1.03 -0.56,0.25 -1.19,0.38 -1.91,0.38 -0.7,0 -1.32,-0.13 -1.88,-0.39 -0.55,-0.26 -1.04,-0.61 -1.45,-1.06 -0.41,-0.45 -0.73,-0.96 -0.95,-1.54 -0.22,-0.58 -0.33,-1.19 -0.33,-1.84l0 -0.07c0,-0.65 0.1,-1.27 0.31,-1.85 0.21,-0.58 0.51,-1.08 0.9,-1.52 0.39,-0.44 0.87,-0.78 1.42,-1.03 0.55,-0.25 1.19,-0.38 1.91,-0.38 0.67,0 1.3,0.13 1.86,0.39 0.57,0.26 1.06,0.62 1.47,1.06 0.41,0.45 0.73,0.96 0.95,1.53 0.22,0.58 0.33,1.19 0.33,1.85l0 0.07zm20.34 3.33l0 -0.07c0,-0.8 -0.16,-1.49 -0.49,-2.06 -0.33,-0.57 -0.74,-1.05 -1.24,-1.44 -0.5,-0.39 -1.07,-0.72 -1.7,-1 -0.63,-0.27 -1.25,-0.51 -1.86,-0.7 -0.48,-0.15 -0.93,-0.3 -1.35,-0.46 -0.43,-0.15 -0.8,-0.31 -1.13,-0.47 -0.33,-0.16 -0.59,-0.34 -0.78,-0.52 -0.2,-0.19 -0.29,-0.4 -0.29,-0.64l0 -0.07c0,-0.35 0.15,-0.64 0.46,-0.87 0.3,-0.23 0.76,-0.34 1.37,-0.34 0.63,0 1.36,0.15 2.19,0.44 0.83,0.29 1.68,0.69 2.55,1.19l1.89 -3.43c-0.96,-0.63 -2.01,-1.13 -3.15,-1.48 -1.14,-0.36 -2.27,-0.54 -3.38,-0.54 -0.89,0 -1.72,0.12 -2.5,0.36 -0.77,0.24 -1.45,0.6 -2.03,1.08 -0.58,0.48 -1.03,1.06 -1.37,1.75 -0.34,0.68 -0.51,1.47 -0.51,2.37l0 0.07c0,0.85 0.16,1.57 0.47,2.16 0.32,0.59 0.72,1.08 1.23,1.48 0.5,0.4 1.06,0.73 1.68,0.98 0.62,0.25 1.24,0.46 1.85,0.64 0.48,0.15 0.94,0.29 1.37,0.42 0.44,0.13 0.82,0.27 1.16,0.41 0.34,0.14 0.6,0.31 0.8,0.51 0.2,0.2 0.29,0.42 0.29,0.68l0 0.07c0,0.39 -0.17,0.71 -0.51,0.95 -0.34,0.24 -0.87,0.36 -1.58,0.36 -0.83,0 -1.71,-0.17 -2.66,-0.52 -0.95,-0.35 -1.9,-0.87 -2.86,-1.57l-2.12 3.26c1.17,0.91 2.41,1.58 3.71,2.01 1.29,0.43 2.56,0.64 3.8,0.64 0.94,0 1.81,-0.11 2.63,-0.34 0.82,-0.23 1.53,-0.57 2.14,-1.03 0.61,-0.46 1.08,-1.04 1.42,-1.75 0.34,-0.71 0.51,-1.55 0.51,-2.53z"/>
 </g>
</svg>
