<?xml version="1.0" encoding="UTF-8"?>
<!DOCTYPE svg PUBLIC "-//W3C//DTD SVG 1.1//EN" "http://www.w3.org/Graphics/SVG/1.1/DTD/svg11.dtd">
<!-- Creator: CorelDRAW -->
<svg xmlns="http://www.w3.org/2000/svg" xml:space="preserve" width="29.5948mm" height="29.5948mm" version="1.1" style="shape-rendering:geometricPrecision; text-rendering:geometricPrecision; image-rendering:optimizeQuality; fill-rule:evenodd; clip-rule:evenodd"
viewBox="0 0 930.3 930.3"
 xmlns:xlink="http://www.w3.org/1999/xlink"
 xmlns:xodm="http://www.corel.com/coreldraw/odm/2003">
 <defs>
  <style type="text/css">
   <![CDATA[
    .fil0 {fill:none}
    .fil1 {fill:white;fill-rule:nonzero}
   ]]>
  </style>
 </defs>
 <g id="Capa_x0020_1">
  <metadata id="CorelCorpID_0Corel-Layer"/>
  <polygon class="fil0" points="-0,0 930.3,0 930.3,930.3 -0,930.3 "/>
  <path class="fil1" d="M754.08 383.25c-15.66,34.04 -55.83,48.97 -89.86,33.54 0,0 -0.49,0 -0.73,-0.24l-238.01 -129.28c-9.06,-4.4 -15.43,-7.84 -20.08,-11.26 -6.61,4.9 -14.21,9.06 -22.29,12.24 -35.5,13.23 -90.6,7.35 -137.85,-49.46 -19.34,-23.02 -36.97,-26.45 -48.48,-28.65 -7.59,-1.47 -15.67,-2.94 -19.1,-11.02 -4.16,-9.55 1.47,-19.59 17.14,-44.32 13.46,-21.3 32.56,-36.73 57.05,-45.54 54.6,-20.32 116.06,-2.7 133.2,5.14 28.4,12.98 47.26,33.3 54.6,58.77 2.46,8.33 3.42,16.9 3.42,25.71 0,0.24 0,0.49 0,0.73 0,7.1 -0.98,13.96 -2.69,21.05 -0.98,5.15 -2.46,11.02 -5.39,17.39l-0.98 2.46c0,0 0,0.49 -0.24,0.73 0,0.49 -0.24,0.98 -0.49,1.22 -2.95,6.86 -7.1,12.97 -11.51,18.61 4.16,2.46 11.02,5.88 14.2,7.35l238.01 129.28c23.51,10.53 50.93,0 61.71,-23.27 5.15,-11.26 5.64,-24 1.22,-35.75 -4.4,-11.51 -12.97,-20.81 -24,-25.96l-228.95 -85.95c-5.38,-1.97 -8.33,-8.08 -6.11,-13.47 1.96,-5.38 8.08,-8.33 13.46,-6.11l229.19 86.18c0,0 0.49,0 0.73,0.24 16.41,7.59 29.15,21.05 35.5,37.95 6.36,16.9 5.64,35.5 -1.96,51.91l-0.71 -0.23zm-378.06 -249.51c-19.1,-8.57 -72.48,-21.31 -117.04,-4.66 -19.83,7.35 -35.5,19.83 -46.52,37.22 -2.94,4.4 -10.28,16.16 -13.46,22.77 0.49,0 1.22,0 1.71,0.24 12.73,2.45 36.73,7.1 60.73,35.75 40.41,48.23 85.46,53.87 114.35,43.1 10.04,-3.67 18.85,-9.8 25.96,-17.39 0.74,-0.98 1.47,-2.2 2.46,-3.18 2.94,-3.67 6.37,-8.33 9.55,-15.18 1.96,-4.17 3.42,-8.33 4.66,-12.49 0,-0.73 0.49,-1.71 0.49,-2.45 0,0 0,-0.49 0,-0.49 0.73,-3.67 0.98,-7.1 1.22,-10.04 0,-3.19 0.49,-6.37 1.22,-9.3 0,-6.37 -0.73,-12.73 -2.46,-18.61 -5.64,-19.59 -20.08,-34.77 -43.1,-45.3l0.24 0zm131.73 147.65c-2.69,5.14 -9.06,7.1 -14.2,4.4l-31.59 -16.65c-5.14,-2.69 -7.1,-9.06 -4.4,-14.2 1.22,-2.46 3.18,-4.16 5.64,-4.9 2.7,-0.98 5.88,-0.98 8.57,0.49l31.58 16.64c5.15,2.7 7.1,9.06 4.4,14.21zm28.65 3.18l148.39 77.62c5.15,2.69 7.1,9.06 4.41,14.21 -2.69,5.14 -9.06,7.1 -14.21,4.4l-148.38 -77.62c-5.15,-2.69 -7.1,-9.06 -4.4,-14.21 1.22,-2.46 3.42,-4.16 5.64,-4.9 2.69,-0.98 5.87,-0.98 8.57,0.49z"/>
  <path class="fil1" d="M115.62 803.54c-33.05,0 -61.8,-19.31 -67.81,-48.07 -7.3,-33.9 19.74,-68.45 59.87,-77.03 10.09,-2.15 20.6,-2.58 30.47,-1.07l0 -127.67c0,-13.52 9.44,-25.11 22.75,-27.9l173.8 -36.04 1.28 0c0,0 2.36,0.21 3.86,0.64l2.15 0.64c1.5,0.43 2.15,0.64 3,0.86l4.72 2.58c0,0 1.29,1.07 1.93,1.5 1.29,1.07 1.93,1.5 2.58,2.15l1.72 1.93c0,0 1.29,1.5 1.72,2.15 0.64,0.86 1.07,1.72 1.5,2.58 0.64,1.07 1.07,1.72 1.29,2.36 0.64,1.29 1.07,2.79 1.5,4.51 0.43,1.72 0.43,2.58 0.64,3.43 0,1.5 0.21,2.36 0.21,3.22l0 183.46c0,1.72 0,3.43 -0.43,4.94 -0.43,28.75 -25.96,56.22 -60.94,63.52 -19.1,4.08 -38.63,1.72 -54.72,-6.65 -16.74,-8.58 -27.9,-22.75 -31.33,-39.48 -7.3,-33.9 19.74,-68.45 59.86,-77.04 10.3,-2.15 20.6,-2.36 30.47,-1.07l0.01 -92.5 -110.08 23.18 0 160.28c0,1.72 0,3.22 -0.43,4.94 -0.43,28.97 -26.18,56.22 -60.94,63.52l-0.01 -0.01c-6.22,1.29 -12.23,1.93 -18.24,1.93l-0.42 0.21zm10.3 -110.08c-4.94,0 -9.87,0.43 -14.81,1.5 -31.11,6.65 -52.14,32.19 -46.78,56.86 5.15,24.68 34.76,39.48 65.88,32.83 27.25,-5.79 47.21,-26.18 47.64,-48.5 0.21,-1.93 0.43,-2.58 0.43,-3.22l-0.01 -174.01 144.19 -30.47 0 135.39 -10.94 -3.22c-10.3,-3 -21.89,-3.43 -33.05,-1.07 -31.11,6.65 -52.14,32.19 -46.78,56.86 2.58,11.59 10.51,21.67 22.53,27.9 12.66,6.65 28.11,8.37 43.35,5.15 27.25,-5.79 47.21,-26.18 47.64,-48.5 0.21,-2.15 0.43,-2.58 0.43,-3.22l0 -185.39c-0.43,-1.5 -0.64,-2.15 -0.86,-2.58l-1.07 -1.93 5.58 -6.44 -7.08 4.72 -3.22 -2.15 -4.94 -1.07 -2.14 0.01c0,0 -167.58,35.62 -167.58,35.62 -5.36,1.07 -9.23,5.79 -9.23,11.37l0 149.77 -10.94 -3.22c-5.79,-1.72 -12.02,-2.58 -18.24,-2.58l0 -0.42z"/>
  <path class="fil1" d="M608.37 797.2c-18.18,0 -42.44,-3.37 -57.48,-19.54 -11.68,-12.35 -15.27,-29.41 -11,-50.52 7.19,-34.36 40.42,-55.91 66.92,-63.77 22.9,-6.96 45.36,-6.74 69.61,0.45l-0.01 -109.8c0,-3.59 0,-7.41 0,-11.23l0 -15.95c0,-6.74 3.59,-13.03 9.43,-16.39 8.09,-7.86 32.55,-25.59 68.03,1.8 3.59,2.7 6.96,5.61 10.56,8.31 22.23,17.97 43.33,35.03 71.4,27.84l2.25 -0.45 11.23 3.14 4.27 8.31 -0.67 10.56 -1.8 2.25c-28.96,36.6 -52.54,41.76 -78.81,38.17 -1.8,-0.22 -4.72,-0.9 -8.53,-1.8 -32.78,-7.86 -44.68,-6.51 -48.5,-3.14l0 41.09 2.02 45.81c2.02,47.15 -7.19,92.28 -88.02,103.96 -4.27,0.67 -11.68,1.57 -20.66,1.57l-0.24 -0.69zm32.33 -121.03c-9.66,0 -19.08,1.35 -28.51,4.27 -23.35,7.19 -49.4,25.37 -54.56,50.52 -3.14,15.05 -0.9,26.95 6.51,34.8 13.25,14.15 41.09,15.72 62.65,12.58l0 -0.01c63.55,-9.21 74.77,-38.17 72.76,-85.55l-2.02 -46.25 0 -46.7c0,0 1.12,-2.02 1.12,-2.02 11.45,-20.89 49.17,-11.9 69.39,-6.96 3.14,0.67 5.39,1.35 6.74,1.57 19.76,2.7 35.92,-0.67 57.26,-25.14 -32.33,4.27 -56.59,-15.5 -78.36,-33 -3.37,-2.7 -6.74,-5.39 -10.33,-8.09 -22.67,-17.52 -37.27,-11 -45.36,-2.47l-2.47 1.8 -0.9 17.52c0,3.82 0,7.19 0,10.78l0 135.39 -12.13 -4.72c-14.6,-5.61 -28.29,-8.53 -41.76,-8.53l-0.01 0.22z"/>
 </g>
</svg>
