<?xml version="1.0" encoding="UTF-8"?>
<!DOCTYPE svg PUBLIC "-//W3C//DTD SVG 1.1//EN" "http://www.w3.org/Graphics/SVG/1.1/DTD/svg11.dtd">
<!-- Creator: CorelDRAW -->
<svg xmlns="http://www.w3.org/2000/svg" xml:space="preserve" width="8.8253mm" height="9.7922mm" version="1.1" style="shape-rendering:geometricPrecision; text-rendering:geometricPrecision; image-rendering:optimizeQuality; fill-rule:evenodd; clip-rule:evenodd"
viewBox="0 0 520.27 577.27"
 xmlns:xlink="http://www.w3.org/1999/xlink"
 xmlns:xodm="http://www.corel.com/coreldraw/odm/2003">
 <defs>
  <style type="text/css">
   <![CDATA[
    .fil0 {fill:white;fill-rule:nonzero}
   ]]>
  </style>
 </defs>
 <g id="Capa_x0020_1">
  <metadata id="CorelCorpID_0Corel-Layer"/>
  <path class="fil0" d="M362.96 127.75c0,-63.64 -52.26,-115.27 -116.83,-115.27 -64.57,0 -116.83,51.63 -116.83,115.27 0,54.9 38.84,100.76 90.93,112.3l0 103.57 51.94 0 0 -103.57c52.1,-11.7 90.93,-57.56 90.93,-112.3l-0.15 0z"/>
  <path class="fil0" d="M486.34 83.29c0,-46.01 -37.75,-83.29 -84.38,-83.29 -46.64,0 -84.38,37.28 -84.38,83.29 0,39.62 28.08,72.69 65.67,81.11l0 74.72 37.59 0 0 -74.72c37.59,-8.42 65.67,-41.49 65.67,-81.11l-0.16 0z"/>
  <path class="fil0" d="M80.12 228.92l-39.04 39.2 5.61 22.84 14.97 0c10.29,0 18.2,1.79 23.73,5.38 5.54,3.58 8.3,8.81 8.3,15.63 0,6.23 -2.14,11.14 -6.43,14.69 -4.29,3.58 -9.86,5.38 -16.72,5.38 -8.42,0 -15.7,-1.67 -21.86,-5.03 -6.16,-3.35 -12.04,-8.22 -17.66,-14.61l-24.78 23.65c7.02,8.45 15.7,15.35 26.07,20.62 10.37,5.26 22.96,7.87 37.76,7.87 9.04,0 17.22,-1.33 24.59,-3.97 7.36,-2.65 13.56,-6.39 18.66,-11.22 5.11,-4.83 9.04,-10.52 11.77,-17.07 2.76,-6.55 4.13,-13.72 4.13,-21.51 0,-7.64 -1.25,-14.15 -3.78,-19.53 -2.49,-5.38 -5.81,-9.9 -9.86,-13.56 -4.09,-3.66 -8.81,-6.51 -14.14,-8.54 -5.34,-2.02 -10.79,-3.51 -16.41,-4.44l41.62 -39.52 0 -27.12 -110.83 0 0 30.87 64.3 0zm-19.56 240.47l0 -38.91c0,-6.96 -1.77,-12.42 -5.32,-16.38 -3.55,-3.96 -8.58,-5.94 -15.09,-5.94 -2.17,0 -4.11,0.26 -5.83,0.78 -1.72,0.54 -3.29,1.25 -4.71,2.15 -1.42,0.91 -2.71,1.94 -3.87,3.1 -1.16,1.18 -2.22,2.39 -3.2,3.68l0 -30.36 -17.04 0 0 81.87 17.04 0 0 -33.46c0,-4.02 0.96,-7.07 2.86,-9.11 1.91,-2.05 4.51,-3.08 7.8,-3.08 3.29,0 5.83,1.03 7.62,3.08 1.8,2.04 2.69,5.09 2.69,9.11l0 33.46 17.04 0zm67.52 -28.37l0 -0.22c0,-4.26 -0.58,-8.35 -1.74,-12.28 -1.16,-3.93 -2.95,-7.4 -5.38,-10.43 -2.43,-3.03 -5.48,-5.44 -9.14,-7.24 -3.66,-1.79 -8,-2.69 -13.01,-2.69 -4.41,0 -8.43,0.82 -12.06,2.46 -3.63,1.64 -6.74,3.89 -9.36,6.73 -2.62,2.84 -4.66,6.17 -6.11,9.98 -1.46,3.81 -2.19,7.85 -2.19,12.11l0 0.22c0,4.63 0.78,8.84 2.36,12.62 1.57,3.77 3.76,7.04 6.56,9.81 2.81,2.77 6.13,4.9 9.99,6.4 3.85,1.49 8.02,2.24 12.5,2.24 5.46,0 10.2,-0.99 14.24,-2.97 4.04,-1.98 7.48,-4.73 10.32,-8.24l-9.76 -8.64c-2.39,2.17 -4.71,3.74 -6.96,4.71 -2.24,0.97 -4.78,1.46 -7.62,1.46 -3.81,0 -7.01,-0.99 -9.59,-2.97 -2.58,-1.98 -4.28,-4.92 -5.1,-8.8l41.83 0c0.07,-0.83 0.13,-1.53 0.17,-2.13 0.04,-0.6 0.06,-1.31 0.06,-2.13zm-16.6 -6.39l-25.68 0c0.67,-3.89 2.11,-6.99 4.32,-9.31 2.2,-2.32 5.11,-3.48 8.69,-3.48 3.59,0 6.47,1.18 8.64,3.53 2.17,2.36 3.51,5.44 4.04,9.26zm78.85 25.12l-9.98 -10.09c-2.09,1.95 -4.21,3.5 -6.34,4.65 -2.13,1.16 -4.62,1.74 -7.46,1.74 -2.32,0 -4.41,-0.43 -6.28,-1.29 -1.87,-0.85 -3.48,-2.03 -4.83,-3.53 -1.34,-1.5 -2.37,-3.25 -3.08,-5.27 -0.71,-2.02 -1.06,-4.19 -1.06,-6.5l0 -0.22c0,-2.25 0.35,-4.36 1.06,-6.34 0.71,-1.98 1.72,-3.72 3.03,-5.22 1.31,-1.5 2.84,-2.67 4.6,-3.53 1.76,-0.86 3.72,-1.29 5.89,-1.29 3.07,0 5.62,0.6 7.68,1.79 2.06,1.2 4.06,2.81 6,4.82l10.43 -11.21c-2.84,-3.14 -6.13,-5.61 -9.87,-7.4 -3.74,-1.79 -8.45,-2.69 -14.13,-2.69 -4.64,0 -8.88,0.82 -12.73,2.46 -3.86,1.64 -7.16,3.89 -9.93,6.73 -2.76,2.84 -4.93,6.17 -6.5,9.98 -1.57,3.81 -2.36,7.85 -2.36,12.11l0 0.22c0,4.26 0.78,8.28 2.36,12.06 1.57,3.77 3.74,7.06 6.5,9.87 2.76,2.8 6.07,5.03 9.93,6.67 3.85,1.64 8.02,2.46 12.5,2.46 5.98,0 10.84,-1.03 14.58,-3.08 3.74,-2.06 7.06,-4.69 9.98,-7.91zm41.5 7.17l0 -13.68c-2.62,1.42 -5.42,2.13 -8.41,2.13 -3.66,0 -5.49,-1.95 -5.49,-5.83l0 -25.69 14.13 0 0 -14.58 -14.13 0 0 -15.36 -17.05 0 0 15.36 -7.17 0 0 14.58 7.17 0 0 28.49c0,3.51 0.43,6.41 1.29,8.7 0.86,2.28 2.06,4.13 3.59,5.55 1.53,1.42 3.36,2.41 5.49,2.98 2.13,0.56 4.5,0.84 7.12,0.84 2.84,0 5.35,-0.32 7.52,-0.95 2.16,-0.64 4.14,-1.48 5.94,-2.53zm61.12 2.47l0 -34.88c0,-8.15 -2.13,-14.51 -6.4,-19.07 -4.26,-4.56 -11.07,-6.84 -20.41,-6.84 -5.08,0 -9.42,0.45 -13.01,1.34 -3.59,0.9 -7.03,2.06 -10.32,3.48l4.26 13.01c2.76,-1.05 5.4,-1.85 7.91,-2.41 2.51,-0.56 5.4,-0.84 8.69,-0.84 4.26,0 7.48,0.94 9.64,2.81 2.17,1.87 3.25,4.6 3.25,8.18l0 1.01c-2.17,-0.75 -4.39,-1.35 -6.67,-1.8 -2.28,-0.45 -4.95,-0.67 -8.02,-0.67 -3.59,0 -6.86,0.39 -9.82,1.18 -2.95,0.78 -5.49,1.96 -7.62,3.53 -2.13,1.57 -3.8,3.55 -4.99,5.94 -1.2,2.39 -1.79,5.23 -1.79,8.52l0 0.22c0,2.99 0.54,5.63 1.63,7.91 1.08,2.28 2.56,4.21 4.43,5.78 1.87,1.57 4.06,2.75 6.56,3.53 2.51,0.79 5.18,1.18 8.02,1.18 4.19,0 7.74,-0.69 10.66,-2.08 2.91,-1.38 5.42,-3.23 7.51,-5.55l0 6.5 16.49 0zm-16.15 -21.2c0,3.14 -1.21,5.68 -3.64,7.63 -2.43,1.95 -5.67,2.92 -9.7,2.92 -2.76,0 -5.01,-0.64 -6.73,-1.91 -1.72,-1.27 -2.58,-3.07 -2.58,-5.38l0 -0.22c0,-2.69 1.05,-4.75 3.14,-6.17 2.09,-1.42 4.97,-2.13 8.64,-2.13 2.09,0 4.06,0.21 5.89,0.62 1.83,0.41 3.5,0.96 4.99,1.63l0 3.02zm-4.71 -45.53l14.35 -13.46 -14.69 -6.4 -12.67 19.86 13.01 0zm68.41 23.33l0 -17.83c-5.08,-0.22 -9.12,0.9 -12.11,3.37 -2.99,2.46 -5.35,5.75 -7.07,9.87l0 -12.11 -17.04 0 0 60.11 17.04 0 0 -22.21c0,-7.25 1.63,-12.6 4.88,-16.04 3.25,-3.44 7.72,-5.16 13.4,-5.16l0.9 0zm63.37 15.03l0 -0.22c0,-4.26 -0.58,-8.35 -1.74,-12.28 -1.16,-3.93 -2.95,-7.4 -5.38,-10.43 -2.43,-3.03 -5.48,-5.44 -9.14,-7.24 -3.66,-1.79 -8,-2.69 -13.01,-2.69 -4.41,0 -8.43,0.82 -12.06,2.46 -3.63,1.64 -6.74,3.89 -9.36,6.73 -2.62,2.84 -4.66,6.17 -6.11,9.98 -1.46,3.81 -2.19,7.85 -2.19,12.11l0 0.22c0,4.63 0.78,8.84 2.36,12.62 1.57,3.77 3.76,7.04 6.56,9.81 2.81,2.77 6.13,4.9 9.99,6.4 3.85,1.49 8.02,2.24 12.5,2.24 5.46,0 10.2,-0.99 14.24,-2.97 4.04,-1.98 7.48,-4.73 10.32,-8.24l-9.76 -8.64c-2.39,2.17 -4.71,3.74 -6.96,4.71 -2.24,0.97 -4.78,1.46 -7.62,1.46 -3.81,0 -7.01,-0.99 -9.59,-2.97 -2.58,-1.98 -4.28,-4.92 -5.1,-8.8l41.83 0c0.07,-0.83 0.13,-1.53 0.17,-2.13 0.04,-0.6 0.06,-1.31 0.06,-2.13zm-16.6 -6.39l-25.68 0c0.67,-3.89 2.11,-6.99 4.32,-9.31 2.2,-2.32 5.11,-3.48 8.69,-3.48 3.59,0 6.47,1.18 8.64,3.53 2.17,2.36 3.51,5.44 4.04,9.26zm77.61 34.76l0 -34.88c0,-8.15 -2.13,-14.51 -6.4,-19.07 -4.26,-4.56 -11.07,-6.84 -20.41,-6.84 -5.08,0 -9.42,0.45 -13.01,1.34 -3.59,0.9 -7.03,2.06 -10.32,3.48l4.26 13.01c2.76,-1.05 5.4,-1.85 7.91,-2.41 2.51,-0.56 5.4,-0.84 8.69,-0.84 4.26,0 7.48,0.94 9.64,2.81 2.17,1.87 3.25,4.6 3.25,8.18l0 1.01c-2.17,-0.75 -4.39,-1.35 -6.67,-1.8 -2.28,-0.45 -4.95,-0.67 -8.02,-0.67 -3.59,0 -6.86,0.39 -9.82,1.18 -2.95,0.78 -5.49,1.96 -7.62,3.53 -2.13,1.57 -3.8,3.55 -4.99,5.94 -1.2,2.39 -1.79,5.23 -1.79,8.52l0 0.22c0,2.99 0.54,5.63 1.63,7.91 1.08,2.28 2.56,4.21 4.43,5.78 1.87,1.57 4.06,2.75 6.56,3.53 2.51,0.79 5.18,1.18 8.02,1.18 4.19,0 7.74,-0.69 10.66,-2.08 2.91,-1.38 5.42,-3.23 7.51,-5.55l0 6.5 16.49 0zm-16.15 -21.2c0,3.14 -1.21,5.68 -3.64,7.63 -2.43,1.95 -5.67,2.92 -9.7,2.92 -2.76,0 -5.01,-0.64 -6.73,-1.91 -1.72,-1.27 -2.58,-3.07 -2.58,-5.38l0 -0.22c0,-2.69 1.05,-4.75 3.14,-6.17 2.09,-1.42 4.97,-2.13 8.64,-2.13 2.09,0 4.06,0.21 5.89,0.62 1.83,0.41 3.5,0.96 4.99,1.63l0 3.02zm71.55 2.92l0 -0.22c0,-2.76 -0.56,-5.12 -1.68,-7.06 -1.13,-1.95 -2.55,-3.59 -4.26,-4.94 -1.72,-1.34 -3.67,-2.48 -5.83,-3.42 -2.17,-0.93 -4.3,-1.74 -6.4,-2.41 -1.64,-0.52 -3.2,-1.04 -4.65,-1.57 -1.46,-0.52 -2.75,-1.07 -3.87,-1.63 -1.12,-0.56 -2.02,-1.16 -2.69,-1.79 -0.67,-0.64 -1.01,-1.37 -1.01,-2.19l0 -0.22c0,-1.2 0.52,-2.19 1.57,-2.97 1.04,-0.79 2.62,-1.18 4.71,-1.18 2.17,0 4.67,0.5 7.52,1.52 2.84,1.01 5.75,2.37 8.74,4.09l6.51 -11.78c-3.29,-2.16 -6.9,-3.87 -10.82,-5.1 -3.93,-1.23 -7.79,-1.85 -11.61,-1.85 -3.07,0 -5.92,0.41 -8.58,1.23 -2.66,0.83 -4.98,2.06 -6.96,3.7 -1.98,1.64 -3.55,3.64 -4.71,6 -1.16,2.35 -1.74,5.06 -1.74,8.13l0 0.22c0,2.92 0.54,5.38 1.63,7.4 1.08,2.02 2.49,3.72 4.21,5.1 1.72,1.39 3.64,2.51 5.77,3.37 2.13,0.86 4.24,1.59 6.34,2.19 1.64,0.52 3.21,1.01 4.71,1.46 1.5,0.45 2.82,0.92 3.98,1.4 1.16,0.48 2.08,1.07 2.75,1.74 0.67,0.67 1.01,1.46 1.01,2.35l0 0.22c0,1.35 -0.58,2.43 -1.74,3.25 -1.16,0.83 -2.97,1.23 -5.44,1.23 -2.84,0 -5.89,-0.6 -9.14,-1.79 -3.25,-1.2 -6.53,-2.99 -9.82,-5.38l-7.29 11.21c4.03,3.14 8.28,5.44 12.73,6.9 4.45,1.46 8.8,2.19 13.06,2.19 3.21,0 6.23,-0.39 9.03,-1.18 2.8,-0.78 5.25,-1.96 7.35,-3.53 2.09,-1.57 3.72,-3.57 4.88,-6 1.16,-2.43 1.74,-5.32 1.74,-8.69zm-457.47 64.71l-17.72 0 -13.57 40.26 -13.46 -40.26 -18.06 0 23.67 60.56 15.48 0 23.66 -60.56zm62.58 31.74l0 -0.22c0,-4.26 -0.58,-8.35 -1.74,-12.28 -1.16,-3.93 -2.95,-7.4 -5.38,-10.43 -2.43,-3.03 -5.48,-5.44 -9.14,-7.24 -3.66,-1.79 -8,-2.69 -13.01,-2.69 -4.41,0 -8.43,0.82 -12.06,2.46 -3.63,1.64 -6.74,3.89 -9.36,6.73 -2.62,2.84 -4.66,6.17 -6.11,9.98 -1.46,3.81 -2.19,7.85 -2.19,12.11l0 0.22c0,4.63 0.78,8.84 2.36,12.62 1.57,3.77 3.76,7.04 6.56,9.81 2.81,2.77 6.13,4.9 9.99,6.4 3.85,1.49 8.02,2.24 12.5,2.24 5.46,0 10.2,-0.99 14.24,-2.97 4.04,-1.98 7.48,-4.73 10.32,-8.24l-9.76 -8.64c-2.39,2.17 -4.71,3.74 -6.96,4.71 -2.24,0.97 -4.78,1.46 -7.62,1.46 -3.81,0 -7.01,-0.99 -9.59,-2.97 -2.58,-1.98 -4.28,-4.92 -5.1,-8.8l41.83 0c0.07,-0.83 0.13,-1.53 0.17,-2.13 0.04,-0.6 0.06,-1.31 0.06,-2.13zm-16.6 -6.39l-25.68 0c0.67,-3.89 2.11,-6.99 4.32,-9.31 2.2,-2.32 5.11,-3.48 8.69,-3.48 3.59,0 6.47,1.18 8.64,3.53 2.17,2.36 3.51,5.44 4.04,9.26zm62.13 -8.64l0 -17.83c-5.08,-0.22 -9.12,0.9 -12.11,3.37 -2.99,2.46 -5.35,5.75 -7.07,9.87l0 -12.11 -17.04 0 0 60.11 17.04 0 0 -22.21c0,-7.25 1.63,-12.6 4.88,-16.04 3.25,-3.44 7.72,-5.16 13.4,-5.16l0.9 0zm67.74 43.4l0 -81.87 -17.05 0 0 29.54c-2.02,-2.38 -4.5,-4.45 -7.46,-6.23 -2.95,-1.77 -6.71,-2.67 -11.27,-2.67 -3.59,0 -7.03,0.67 -10.32,2.02 -3.29,1.35 -6.19,3.35 -8.7,6 -2.51,2.65 -4.52,5.91 -6.05,9.76 -1.53,3.85 -2.3,8.28 -2.3,13.29l0 0.22c0,5.01 0.77,9.44 2.3,13.29 1.53,3.85 3.57,7.1 6.11,9.76 2.54,2.65 5.46,4.66 8.75,6 3.29,1.34 6.69,2.02 10.2,2.02 4.49,0 8.21,-0.91 11.16,-2.73 2.95,-1.81 5.48,-4.13 7.57,-6.95l0 8.56 17.05 0zm-16.83 -29.94c0,2.48 -0.39,4.76 -1.18,6.82 -0.78,2.08 -1.83,3.85 -3.14,5.31 -1.31,1.48 -2.84,2.6 -4.6,3.4 -1.76,0.79 -3.65,1.18 -5.67,1.18 -2.02,0 -3.91,-0.39 -5.67,-1.18 -1.76,-0.8 -3.31,-1.92 -4.65,-3.4 -1.35,-1.46 -2.41,-3.23 -3.2,-5.31 -0.78,-2.06 -1.17,-4.34 -1.17,-6.82l0 -0.22c0,-2.56 0.39,-4.86 1.17,-6.88 0.79,-2.04 1.85,-3.8 3.2,-5.25 1.34,-1.48 2.89,-2.6 4.65,-3.4 1.76,-0.78 3.64,-1.18 5.67,-1.18 2.02,0 3.91,0.39 5.67,1.18 1.76,0.8 3.29,1.92 4.6,3.4 1.3,1.46 2.35,3.23 3.14,5.31 0.78,2.06 1.18,4.34 1.18,6.83l0 0.22zm84.79 1.57l0 -0.22c0,-4.26 -0.58,-8.35 -1.74,-12.28 -1.16,-3.93 -2.95,-7.4 -5.38,-10.43 -2.43,-3.03 -5.48,-5.44 -9.14,-7.24 -3.66,-1.79 -8,-2.69 -13.01,-2.69 -4.41,0 -8.43,0.82 -12.06,2.46 -3.63,1.64 -6.74,3.89 -9.36,6.73 -2.62,2.84 -4.66,6.17 -6.11,9.98 -1.46,3.81 -2.19,7.85 -2.19,12.11l0 0.22c0,4.63 0.78,8.84 2.36,12.62 1.57,3.77 3.76,7.04 6.56,9.81 2.81,2.77 6.13,4.9 9.99,6.4 3.85,1.49 8.02,2.24 12.5,2.24 5.46,0 10.2,-0.99 14.24,-2.97 4.04,-1.98 7.48,-4.73 10.32,-8.24l-9.76 -8.64c-2.39,2.17 -4.71,3.74 -6.96,4.71 -2.24,0.97 -4.78,1.46 -7.62,1.46 -3.81,0 -7.01,-0.99 -9.59,-2.97 -2.58,-1.98 -4.28,-4.92 -5.1,-8.8l41.83 0c0.07,-0.83 0.13,-1.53 0.17,-2.13 0.04,-0.6 0.06,-1.31 0.06,-2.13zm-16.6 -6.39l-25.68 0c0.67,-3.89 2.11,-6.99 4.32,-9.31 2.2,-2.32 5.11,-3.48 8.69,-3.48 3.59,0 6.47,1.18 8.64,3.53 2.17,2.36 3.51,5.44 4.04,9.26zm69.98 16.48l0 -0.22c0,-2.76 -0.56,-5.12 -1.68,-7.06 -1.13,-1.95 -2.55,-3.59 -4.26,-4.94 -1.72,-1.34 -3.67,-2.48 -5.83,-3.42 -2.17,-0.93 -4.3,-1.74 -6.4,-2.41 -1.64,-0.52 -3.2,-1.04 -4.65,-1.57 -1.46,-0.52 -2.75,-1.07 -3.87,-1.63 -1.12,-0.56 -2.02,-1.16 -2.69,-1.79 -0.67,-0.64 -1.01,-1.37 -1.01,-2.19l0 -0.22c0,-1.2 0.52,-2.19 1.57,-2.97 1.04,-0.79 2.62,-1.18 4.71,-1.18 2.17,0 4.67,0.5 7.52,1.52 2.84,1.01 5.75,2.37 8.74,4.09l6.51 -11.78c-3.29,-2.16 -6.9,-3.87 -10.82,-5.1 -3.93,-1.23 -7.79,-1.85 -11.61,-1.85 -3.07,0 -5.92,0.41 -8.58,1.23 -2.66,0.83 -4.98,2.06 -6.96,3.7 -1.98,1.64 -3.55,3.64 -4.71,6 -1.16,2.35 -1.74,5.06 -1.74,8.13l0 0.22c0,2.92 0.54,5.38 1.63,7.4 1.08,2.02 2.49,3.72 4.21,5.1 1.72,1.39 3.64,2.51 5.77,3.37 2.13,0.86 4.24,1.59 6.34,2.19 1.64,0.52 3.21,1.01 4.71,1.46 1.5,0.45 2.82,0.92 3.98,1.4 1.16,0.48 2.08,1.07 2.75,1.74 0.67,0.67 1.01,1.46 1.01,2.35l0 0.22c0,1.35 -0.58,2.43 -1.74,3.25 -1.16,0.83 -2.97,1.23 -5.44,1.23 -2.84,0 -5.89,-0.6 -9.14,-1.79 -3.25,-1.2 -6.53,-2.99 -9.82,-5.38l-7.29 11.21c4.03,3.14 8.28,5.44 12.73,6.9 4.45,1.46 8.8,2.19 13.06,2.19 3.21,0 6.23,-0.39 9.03,-1.18 2.8,-0.78 5.25,-1.96 7.35,-3.53 2.09,-1.57 3.72,-3.57 4.88,-6 1.16,-2.43 1.74,-5.32 1.74,-8.69z"/>
 </g>
</svg>
