<?xml version="1.0" encoding="UTF-8"?>
<svg id="Capa_2" data-name="Capa 2" xmlns="http://www.w3.org/2000/svg" viewBox="0 0 112.8 111.77">
  <defs>
    <style>
      .cls-1 {
        fill: #4285f4;
      }

      .cls-1, .cls-2, .cls-3, .cls-4, .cls-5 {
        stroke-width: 0px;
      }

      .cls-2 {
        fill: #000;
      }

      .cls-3 {
        fill: #fbbc05;
      }

      .cls-4 {
        fill: #34a853;
      }

      .cls-5 {
        fill: #ea4335;
      }
    </style>
  </defs>
  <g id="Capa_1-2" data-name="Capa 1">
    <g>
      <path class="cls-2" d="M88.26,111.77l-59.88-.08c-1.76,0-2.7-1.74-2.78-3.01-.08-1.37.75-3.24,2.41-3.3l4.11-.15-3.74-20.53c-.62-3.41,1.97-6.38,5.5-6.39.46-8.76,7.52-15.11,16.19-15.07l17.91.09c8.41.04,14.88,6.83,15.39,15.07,3.37.16,5.93,2.96,5.3,6.31l-3.88,20.6,3.89.14c1.66.06,2.71,1.78,2.61,3.21-.09,1.35-1.08,3.12-3.04,3.12ZM80.91,78.39c-.39-7.73-7.03-13.38-14.87-12.71h-16.6c-7.04.15-12.83,5.52-13.16,12.64l44.63.07ZM79.45,109.37c1.52,0,2.31-.87,2.55-2.16l4.4-23.39c-.13-1.78-1.28-3.02-3.17-3.03l-49.7-.08c-1.71,0-3.11,1.74-2.84,3.26l4.23,23.38c.14.75.96,1.92,1.83,1.92l42.69.09ZM33.1,109.26l-.63-1.61h-3.58c-.37-.01-.99.42-1.04.75s.68.94,1.06.93l4.2-.07ZM88.38,109.34c.29,0,.82-.79.68-.98s-.69-.61-.95-.62l-3.6-.04-.71,1.66,4.58-.02Z"/>
      <path class="cls-2" d="M32.63,23.21l-.19,8.17c-.05,2.32-2.06,4.27-3.98,5.42-9.62,5.74-20.86-.27-20.95-5.07l-.16-8.43-6.56-2.82c-.24-.1-.78-.5-.79-.75,0-.32.18-.92.34-1.32l19.56-8.45,18.77,8.13c.47.21,1.1.73,1.16,1.12.08.47-.58,1.22-1.3,1.53l-.03,13.94c0,.64-.66,1.28-1.27,1.28-.45,0-1.06-.71-1.06-1.28l.03-13.06-3.59,1.6ZM19.91,26.19l15.64-6.85-15.65-6.79-15.64,6.8,15.65,6.84ZM30.12,30.96v-6.6s-10.25,4.37-10.25,4.37l-10.14-4.39.09,6.72c.05,4.13,9.99,8.25,17.52,3.65,1.26-.77,2.79-2.2,2.78-3.76Z"/>
      <path class="cls-2" d="M98.41,46.94l-3.95-.13c-1.37-.05-1.72-1.9-1.51-3.13.08-.45-.76-1.03-1.24-1.13-.57-.12-1.27.17-1.79.74-.6.66-2.1,1.23-2.79.53l-3.09-3.12c-.95-.96.17-2.66.96-3.4.33-.31.14-1.48-.14-1.85-.76-1.04-4.07-.1-4.03-2.56l.07-4.07c.03-1.56,1.74-1.97,3.09-1.85.97.09,1.68-1.79.98-2.43-.98-.9-1.89-2.51-.77-3.62l2.77-2.75c1.62-1.6,3.5,1.45,4.76,1.08,1.97-.58.27-4.33,3.59-4.33h3.2c1.25,0,2.18,1.03,2.13,2.32-.04.93.28,1.67,1.16,2.02.7.28,1.39-.04,2.09-.78.51-.54,2.12-.91,2.64-.38l2.84,2.83c1.01,1.01.4,2.64-.72,3.43-.37.26-.36,1.37-.14,1.8.83,1.62,4.21-.03,4.25,3.32l.03,2.89c.02,1.55-.94,2.57-2.63,2.48-.69-.03-1.45.42-1.74,1.11-.65,1.59,2.96,3.02.81,5.15l-2.29,2.27c-2.26,2.23-3.55-1.33-5.14-.75-.84.31-1.16,1.08-1.12,2.03.06,1.28-.88,2.34-2.28,2.29ZM98.26,44.16l.42-2.81,4.36-1.69,2.38,2,2.07-2.13c-.71-.73-2.08-2.06-1.8-2.81l1.42-3.77c.82-.23,1.95-.32,3.31-.39v-3.07c-1.36-.14-2.53-.28-3.3-.67l-1.67-3.94,1.94-2.68-1.92-1.97-2.57,1.83-4.23-1.63-.29-3.14-3.25.1c.1,1.29.12,2.74-.46,3.14l-4.1,1.59-2.38-2.05-2.1,2.16,2.04,2.68-1.71,3.82c-.34.76-2.18.68-3.24.56l.1,3.27c1.29-.15,2.75-.18,3.07.43l1.74,3.92-1.97,2.69,2.06,1.98,2.53-1.98,4.21,1.66.33,2.93c.35.55,2.79.56,3-.07Z"/>
      <path class="cls-2" d="M73.34,46.53c.13,8.62-7.07,15.4-15.39,15-8.22-.39-14.26-7.42-13.96-15.34.3-7.94,7-14.39,15.23-14.06,7.66.31,14.01,6.48,14.13,14.39ZM70.66,44.17c-1.44-6.71-8.07-10.65-14.23-9.46-6.55,1.27-10.87,7.36-9.92,13.78.95,6.43,6.61,11.28,13.36,10.56,7.17-.77,12.34-7.65,10.79-14.88Z"/>
      <path class="cls-2" d="M81.72,9.32C68.24.46,51.14.07,37.43,8.36c-.43.26-1.38.07-1.63-.25-.32-.4-.22-1.39.32-1.72,14.46-8.85,32.49-8.44,46.67.79.56.36.93.96.82,1.53-.11.64-1.08,1.14-1.89.61Z"/>
      <path class="cls-2" d="M24.22,70.42c.31.4.03,1.48-.27,1.7-.36.25-1.33.2-1.66-.24-5.19-6.82-8.21-14.68-8.91-23.25-.05-.58.61-1.3,1.08-1.34.52-.03,1.27.52,1.31,1.1.61,8.09,3.45,15.51,8.45,22.02Z"/>
      <path class="cls-2" d="M95.4,71.65c-.47.61-1.19.88-1.76.63-.41-.18-.64-1.09-.47-1.66,4.44-5.57,7.19-11.96,8.32-19.01.25-.37.85-.88,1.21-.92.42-.05,1.05.66,1.2,1.21-1.22,7.31-3.92,13.84-8.5,19.76Z"/>
      <path class="cls-1" d="M79.37,109.49l-42.69-.34c-.87,0-1.69-1.18-1.82-1.93l-4.09-23.4c-.27-1.53,1.14-3.26,2.86-3.25l49.7.37c1.88.01,3.02,1.26,3.15,3.05l-4.54,23.36c-.25,1.28-1.05,2.15-2.57,2.14ZM57.9,89.82c-2.91.25-4.68,2.94-4.38,5.38.33,2.71,2.73,4.48,5.2,4.27,2.78-.23,4.8-2.61,4.5-5.39-.26-2.41-2.45-4.51-5.31-4.26Z"/>
      <path class="cls-4" d="M80.91,78.39l-44.63-.07c.33-7.12,6.13-12.49,13.16-12.65h16.6c7.84-.66,14.48,4.99,14.87,12.72Z"/>
      <path class="cls-5" d="M88.38,109.34l-4.58.02.71-1.66,3.6.04c.26,0,.81.43.95.62s-.39.98-.68.98Z"/>
      <path class="cls-5" d="M33.1,109.26l-4.2.07c-.38,0-1.11-.61-1.06-.93s.67-.76,1.04-.76h3.58s.63,1.62.63,1.62Z"/>
      <polygon class="cls-1" points="19.91 26.19 4.26 19.35 19.9 12.55 35.55 19.34 19.91 26.19"/>
      <path class="cls-1" d="M30.12,30.96c0,1.56-1.52,2.98-2.78,3.76-7.53,4.6-17.47.47-17.52-3.65l-.09-6.72,10.14,4.39,10.25-4.37v6.6Z"/>
      <path class="cls-5" d="M98.26,44.16c-.21.63-2.64.62-3,.07l-.33-2.93-4.21-1.66-2.53,1.98-2.06-1.98,1.97-2.69-1.74-3.92c-.32-.61-1.78-.58-3.07-.43l-.1-3.27c1.06.12,2.9.2,3.24-.56l1.71-3.82-2.04-2.68,2.1-2.16,2.38,2.05,4.1-1.59c.58-.4.56-1.85.46-3.14l3.25-.1.29,3.14,4.23,1.63,2.57-1.83,1.92,1.97-1.94,2.68,1.67,3.94c.78.38,1.94.52,3.3.67v3.07c-1.36.07-2.49.15-3.31.39l-1.42,3.77c-.28.75,1.09,2.09,1.8,2.81l-2.07,2.13-2.38-2-4.36,1.69-.42,2.81ZM95.31,25.09c-3.59.89-5.3,4.38-4.36,7.61s4.18,4.98,7.34,4.12c3.17-.86,5.31-4.13,4.4-7.42-.83-2.99-3.99-5.16-7.38-4.32Z"/>
      <path class="cls-3" d="M70.66,44.17c1.55,7.23-3.62,14.11-10.79,14.88-6.75.72-12.41-4.13-13.36-10.56-.95-6.42,3.37-12.51,9.92-13.78,6.16-1.19,12.79,2.75,14.23,9.46Z"/>
      <path class="cls-2" d="M57.87,89.83c2.85-.26,5.06,1.82,5.33,4.23.32,2.78-1.69,5.16-4.47,5.41-2.47.22-4.87-1.53-5.22-4.24-.31-2.43,1.44-5.14,4.35-5.4ZM57.22,92.44c-1.42.65-1.68,2.45-.95,3.55.67,1.01,2.11,1.41,3.15.9,1.31-.64,1.72-2.12,1.17-3.3-.55-1.18-1.94-1.82-3.38-1.15Z"/>
      <path class="cls-2" d="M95.31,25.09c3.39-.84,6.55,1.32,7.38,4.32.91,3.29-1.23,6.56-4.4,7.42-3.16.86-6.45-1.05-7.34-4.12-.94-3.23.77-6.72,4.36-7.61ZM95.67,27.4c-2.23.72-3.1,3.06-2.4,4.89.71,1.87,2.74,2.72,4.61,2.19,1.99-.56,3.15-2.68,2.45-4.69-.6-1.73-2.57-3.06-4.66-2.39Z"/>
      <path class="cls-1" d="M57.23,92.43c1.44-.65,2.82-.01,3.37,1.17s.13,2.66-1.19,3.29c-1.05.5-2.48.09-3.15-.92-.73-1.1-.45-2.9.97-3.55Z"/>
    </g>
  </g>
</svg>