<?xml version="1.0" encoding="UTF-8"?>
<!DOCTYPE svg PUBLIC "-//W3C//DTD SVG 1.1//EN" "http://www.w3.org/Graphics/SVG/1.1/DTD/svg11.dtd">
<!-- Creator: CorelDRAW -->
<svg xmlns="http://www.w3.org/2000/svg" xml:space="preserve" width="51.6968mm" height="65.6838mm" version="1.1" style="shape-rendering:geometricPrecision; text-rendering:geometricPrecision; image-rendering:optimizeQuality; fill-rule:evenodd; clip-rule:evenodd"
viewBox="0 0 3742.29 4754.8"
 xmlns:xlink="http://www.w3.org/1999/xlink"
 xmlns:xodm="http://www.corel.com/coreldraw/odm/2003">
 <defs>
  <style type="text/css">
   <![CDATA[
    .str0 {stroke:#144390;stroke-width:110.32;stroke-miterlimit:22.9256}
    .fil0 {fill:none}
    .fil1 {fill:#006189;fill-rule:nonzero}
    .fil3 {fill:#1D1D1B;fill-rule:nonzero}
    .fil2 {fill:white;fill-rule:nonzero}
   ]]>
  </style>
 </defs>
 <g id="Capa_x0020_1">
  <metadata id="CorelCorpID_0Corel-Layer"/>
  <g id="Capa_1-2" data-name="Capa 1">
   <line class="fil0 str0" x1="3435.47" y1="0" x2="3435.47" y2= "3582.57" />
   <g>
    <g>
     <polygon class="fil1" points="5.94,2400.06 2381.29,2400.06 2381.29,24.71 5.94,24.71 "/>
     <polygon class="fil1" points="5.94,3532.57 2381.29,3532.57 2381.29,3344.88 5.94,3344.88 "/>
     <g>
      <path class="fil2" d="M1832.56 1201.08c0,361.61 -293.23,654.84 -654.84,654.84 -361.61,0 -654.84,-293.23 -654.84,-654.84 0,-361.61 293.42,-655.04 654.84,-655.04 361.42,0 654.84,293.23 654.84,655.04z"/>
      <path class="fil1" d="M1213.15 695.06l-54.97 0 -83.31 1004 51.71 8.24 29.3 -383.25 91.74 -0.01 56.12 370.42 46.73 -14.36 -137.52 -985.04 0.2 0zm-50.18 580.14l28.54 -350.89 50.75 350.89 -79.29 0z"/>
      <path class="fil1" d="M708.66 1466.35c15.71,24.9 33.33,44.05 53.05,65.89l0.77 -665.57c-19.54,21.64 -37.35,42.91 -53.24,67.42l-0.38 532.26 -0.2 0z"/>
      <path class="fil1" d="M961.87 740.07c0,0 -56.88,26.62 -119.51,90.4l0 755.01c15.9,13.6 32.75,26.62 50.38,38.31l0 -300.32 49.02 0 45.01 350.12c16.85,6.9 34.67,12.83 52.48,18l-43.86 -369.46c0,0 46.92,-1.53 50.56,-50.56l0.38 -474.8c0,0 -10.15,-72.98 -84.85,-56.5l0.38 -0.2zm30.83 519.05c-6.52,18.96 -99.21,10.73 -99.21,10.73l0 -422.9c0,0 44.24,-33.13 69.91,-50.38 32.18,-21.83 29.5,38.69 29.5,38.69 0,0 12.45,386.12 0,423.85l-0.2 0z"/>
      <path class="fil1" d="M1613.25 954.39l-16.47 -33.71 -81.02 275.42 -84.66 -427.88 -36.2 -27.96 0 923.17c18.39,-8.24 31.22,-17.62 48.27,-28.15l0 -552.95 69.14 293.42 88.29 -286.15 0 389.19c18,-28.15 33.71,-57.84 46.16,-89.44l0 -367.35c-9.19,-23.56 -20.88,-45.97 -33.52,-67.8l0.01 0.2z"/>
      <path class="fil2" d="M543.94 593.36c251.86,-252.05 619.6,-315.07 931.03,-195.55l0 0c-86,-26.62 -178.89,-39.84 -268.14,-36.59 -218.72,-6.52 -437.46,72.98 -603.13,238.84 -321.2,321.77 -321.2,845.8 0,1167.57 321.39,321.77 841.39,318.32 1162.78,-3.45 152.46,-152.65 235.39,-354.9 241.9,-553.71 9.96,-103.05 -3.26,-202.26 -29.88,-295.34l3.26 -3.26c109.37,308.55 39.84,669.97 -205.51,915.51 -337.86,338.43 -891,341.5 -1232.11,0 -337.86,-338.43 -338.05,-895.59 0,-1233.84l-0.2 -0.19z"/>
     </g>
     <g>
      <path class="fil3" d="M66.08 2768.76l-20.49 64.54 -45.2 0 76.61 -227.54 55.73 0.01 77.76 227.54 -46.92 -0.01 -21.64 -64.54 -75.84 0zm68.57 -31.42l-18.77 -56.12c-4.6,-13.79 -8.43,-29.3 -12.07,-42.52l-0.77 0c-3.64,13.22 -7.09,29.11 -11.3,42.52l-18.39 56.12 61.29 0z"/>
      <path class="fil3" d="M243.81 2608.83c15.51,-2.68 37.35,-4.78 66.66,-4.78 31.99,0 55.35,6.52 70.67,18.58 14.17,11.11 23.37,29.11 23.37,50.38 0,21.26 -7.09,39.45 -20.49,51.71 -17.43,16.47 -44.63,24.32 -75.65,24.32 -8.24,0 -15.51,-0.38 -21.26,-1.34l0 85.8 -43.29 0 0 -224.47 0 -0.2zm43.29 105.91c5.36,1.34 12.45,1.72 21.26,1.72 32.56,0 52.48,-15.13 52.48,-41.94 0,-26.81 -18.39,-38.88 -48.65,-38.88 -12.07,0 -20.49,0.96 -25.29,2.11l0 76.99 0.19 0z"/>
      <path class="fil3" d="M442.05 2608.83c16.28,-2.68 40.8,-4.78 66.08,-4.78 34.48,0 57.84,5.36 73.74,18.2 13.22,10.53 20.49,26.43 20.49,45.58 0,29.3 -20.88,49.22 -43.29,57.08l0 0.96c17.05,6.13 27.39,22.03 33.33,43.86 7.47,28.35 13.79,54.78 18.77,63.4l-45 -0.01c-3.45,-6.7 -9.19,-25.29 -15.9,-53.63 -6.7,-29.69 -18.2,-39.26 -42.91,-39.84l-22.03 -0.01 0 93.47 -43.28 0 0 -224.47 0 0.19zm43.28 100.56l25.86 0c29.5,0 47.89,-14.94 47.89,-37.54 0,-24.9 -18.39,-36.39 -46.92,-36.39 -13.79,0 -22.8,0.96 -27.01,2.11l0 72.01 0.19 -0.19z"/>
      <polygon class="fil3" points="777.61,2732.37 687.4,2732.37 687.4,2799.21 788.15,2799.21 788.15,2833.3 643.73,2833.3 643.73,2605.76 782.78,2605.77 782.78,2639.86 687.4,2639.86 687.4,2698.66 777.61,2698.66 "/>
      <path class="fil3" d="M826.64 2833.3l0 -227.54 49.61 0.01 61.68 97.49c15.9,25.29 29.88,51.71 40.8,76.23l0.76 0c-2.87,-30.45 -3.83,-59.76 -3.83,-94.61l0 -79.3 40.41 0 0 227.54 -45 0 -62.44 -99.98c-15.32,-24.9 -31.22,-53.05 -42.91,-78.72l-1.15 0.38c1.72,29.3 2.11,59.37 2.11,96.91l0 81.4 -40.03 -0.01 0 0.19z"/>
      <path class="fil3" d="M1066.24 2608.83c19.15,-3.06 43.67,-4.78 69.52,-4.78 44.63,0 75.65,8.81 97.49,26.43 22.98,17.82 37.35,45.01 37.35,83.7 0,38.68 -14.56,70.87 -37.35,90.6 -23.75,20.69 -61.68,31.03 -108.21,31.03 -25.47,0 -44.63,-1.34 -58.99,-3.06l0 -223.9 0.2 0zm43.67 192.68c5.94,0.96 15.32,0.96 24.13,0.96 56.7,0.38 90.4,-29.3 90.4,-87.15 0.38,-50.38 -30.07,-79.1 -84.85,-79.1 -13.79,0 -23.75,0.96 -29.88,2.3l0 162.8 0.2 0.19z"/>
      <polygon class="fil3" points="1352.2,2605.77 1352.2,2833.31 1308.53,2833.3 1308.53,2605.76 "/>
      <polygon class="fil3" points="1386.29,2810.32 1508.68,2641.2 1508.68,2640.24 1397.21,2640.24 1397.21,2605.76 1565.37,2605.77 1565.37,2630.09 1444.71,2797.49 1444.71,2798.83 1567.1,2798.83 1567.1,2833.31 1386.1,2833.3 1386.1,2810.32 "/>
      <path class="fil3" d="M1652.71 2768.76l-20.49 64.54 -45.01 0 76.61 -227.54 55.74 0.01 77.76 227.54 -46.92 -0.01 -21.64 -64.54 -75.85 0 -0.19 0zm68.37 -31.42l-18.77 -56.12c-4.6,-13.79 -8.43,-29.3 -12.07,-42.52l-0.76 0c-3.64,13.22 -7.09,29.11 -11.3,42.52l-18.39 56.12 61.28 0z"/>
      <path class="fil3" d="M1883.89 2605.77l43.67 0 0 147.48c0,62.82 -31.99,83.7 -79.48,83.7 -12.07,0 -27.39,-2.11 -36.59,-5.36l5.36 -33.52c7.09,2.11 16.66,4.02 27.01,4.02 24.9,0 40.03,-10.73 40.03,-50.38l0 -146.14 0 0.2z"/>
      <polygon class="fil3" points="2109.13,2732.37 2018.92,2732.37 2018.92,2799.21 2119.66,2799.21 2119.66,2833.3 1975.25,2833.3 1975.25,2605.76 2114.3,2605.77 2114.3,2639.86 2018.92,2639.86 2018.92,2698.66 2109.13,2698.66 "/>
     </g>
     <g>
      <path class="fil3" d="M75.65 3197.78l0 -94.81 -75.65 -132.73 49.61 0.01 28.73 58.42c8.24,16.85 14.17,29.69 20.49,45.2l0.76 0c6.13,-14.56 12.83,-28.73 20.88,-45.2l28.73 -58.42 49.41 0 -79.48 131.77 0 95.96 -43.67 0 0.2 -0.2z"/>
      <polygon class="fil3" points="298.59,2970.25 436.69,2970.25 436.69,3004.34 342.26,3004.34 342.26,3067.16 430.17,3067.16 430.17,3101.26 342.26,3101.25 342.26,3197.78 298.59,3197.78 298.59,2970.24 "/>
      <path class="fil3" d="M691.42 3081.52c0,76.23 -48.65,119.9 -114.53,119.9 -65.89,0 -109.94,-49.03 -109.94,-115.87 0,-66.84 46.16,-119.13 113.58,-119.13 67.42,0 111.09,50.38 111.09,115.11l-0.2 0zm-178.5 3.45c0,46.35 24.52,83.12 66.27,83.12 41.75,0 66.08,-37.16 66.08,-84.85 0,-42.91 -22.41,-83.31 -66.08,-83.31 -43.67,0 -66.27,38.11 -66.27,85.04l0 -0.01z"/>
      <path class="fil3" d="M728.96 2973.31c16.28,-2.68 40.8,-4.78 66.08,-4.78 34.48,0 57.84,5.36 73.74,18.2 13.22,10.53 20.49,26.43 20.49,45.58 0,29.3 -20.88,49.22 -43.29,57.08l0 0.96c17.05,6.13 27.39,22.03 33.33,43.86 7.47,28.35 13.79,54.78 18.77,63.4l-45 -0.01c-3.45,-6.7 -9.19,-25.29 -15.9,-53.63 -6.7,-29.69 -18.2,-39.26 -42.91,-39.84l-22.02 -0.01 0 93.47 -43.29 0 0 -224.47 0 0.19zm43.29 100.56l25.86 0c29.5,0 47.89,-14.94 47.89,-37.54 0,-24.9 -18.39,-36.39 -46.92,-36.39 -13.79,0 -22.8,0.96 -27.01,2.11l0 72.01 0.19 -0.19z"/>
      <path class="fil3" d="M1132.7 3104.89c-1.34,-29.3 -3.26,-64.93 -2.87,-95.58l-1.14 0c-7.85,27.77 -17.82,58.42 -28.35,87.15l-34.86 98.64 -33.71 0 -31.99 -97.3c-9.19,-29.11 -17.82,-60.14 -24.13,-88.49l-0.76 0c-1.15,29.69 -2.49,65.89 -4.21,96.91l-5.36 91.55 -40.8 0 15.9 -227.54 57.46 0.01 31.22 91.55c8.43,26.62 15.9,53.63 22.03,79.1l1.14 0c6.32,-24.71 14.56,-52.67 23.75,-79.3l32.94 -91.17 56.69 0 13.79 227.54 -42.52 0 -4.6 -92.89 0.38 -0.2z"/>
      <path class="fil3" d="M1269.85 3133.24l-20.49 64.54 -45.01 0 76.61 -227.54 55.74 0.01 77.76 227.54 -46.93 -0.01 -21.64 -64.54 -75.84 0 -0.19 0zm68.57 -31.41l-18.77 -56.12c-4.6,-13.79 -8.43,-29.3 -12.07,-42.52l-0.77 0c-3.64,13.22 -7.09,29.11 -11.3,42.52l-18.39 56.12 61.29 0z"/>
      <path class="fil3" d="M1611.53 3191.08c-10.34,4.98 -32.94,10.15 -61.68,10.15 -75.85,0 -122,-45.2 -122,-114.53 0,-74.89 54.59,-120.28 127.75,-120.28 28.73,0 49.41,5.75 58.22,10.15l-9.58 33.13c-11.3,-4.78 -27.01,-8.81 -46.92,-8.81 -48.65,0 -83.7,29.11 -83.7,83.7 0,49.99 30.84,81.97 83.31,81.97 17.82,0 36.2,-3.45 47.5,-8.43l7.09 32.75 0 0.2z"/>
      <polygon class="fil3" points="1692.36,2970.25 1692.36,3197.79 1648.69,3197.78 1648.69,2970.24 "/>
      <path class="fil3" d="M1954.37 3081.52c0,76.23 -48.65,119.9 -114.53,119.9 -65.89,0 -109.94,-49.03 -109.94,-115.87 0,-66.84 46.16,-119.13 113.58,-119.13 67.42,0 111.09,50.38 111.09,115.11l-0.2 0zm-178.32 3.45c0,46.35 24.52,83.12 66.27,83.12 41.75,0 66.08,-37.16 66.08,-84.85 0,-42.91 -22.41,-83.31 -66.08,-83.31 -43.67,0 -66.27,38.11 -66.27,85.04l0 -0.01zm123.34 -168.16l-44.43 40.6 -35.05 0 31.22 -40.6 48.26 0z"/>
      <path class="fil3" d="M1991.91 3197.78l0 -227.54 49.61 0.01 61.68 97.49c15.9,25.29 29.88,51.71 40.8,76.23l0.76 0c-2.87,-30.45 -3.83,-59.76 -3.83,-94.61l0 -79.3 40.41 0 0 227.54 -45.01 0 -62.44 -99.98c-15.32,-24.9 -31.22,-53.05 -42.91,-78.72l-1.15 0.38c1.72,29.3 2.11,59.37 2.11,96.91l0 81.4 -40.03 -0.01 0 0.19z"/>
     </g>
    </g>
    <g>
     <path class="fil3" d="M224.99 3967.16l-55.84 -81.64c14.59,-5.44 26.4,-13.99 35.43,-25.63 9.03,-11.65 13.55,-26.73 13.55,-45.23l0 -0.65c0,-23.73 -7.56,-42.23 -22.69,-55.52 -15.13,-13.28 -36.3,-19.92 -63.51,-19.92l-104.5 0 0 228.59 50.29 0 0 -73.15 39.52 0 48.99 73.15 58.77 0zm-57.8 -149.89c0,9.79 -3.32,17.63 -9.96,23.51 -6.64,5.88 -16.16,8.82 -28.57,8.82l-50.95 0 0 -65.64 49.96 0c12.41,0 22.1,2.72 29.06,8.17 6.97,5.44 10.45,13.6 10.45,24.49l0 0.65zm148.9 149.89l0 -228.59 -50.29 0 0 228.59 50.29 0zm228.58 -186.46c9.14,0 16.55,2.5 22.21,7.51 5.66,5.01 8.49,12.36 8.49,22.15 0,4.79 -0.71,9.2 -2.12,13.23 -1.42,3.97 -3.71,8.11 -6.86,12.36 -3.16,4.24 -7.24,8.71 -12.24,13.38 -5.01,4.68 -11.1,9.91 -18.29,15.79l-76.09 62.26 0 39.79 169.16 0 0 -43.43 -99.6 0 37.23 -28.74c10.01,-7.83 18.83,-15.07 26.45,-21.71 7.62,-6.65 13.88,-13.33 18.78,-20.09 4.89,-6.75 8.6,-13.88 11.1,-21.39 2.5,-7.51 3.76,-16.05 3.76,-25.63 0,-10.66 -1.8,-20.36 -5.39,-29.06 -3.59,-8.71 -8.82,-16.16 -15.67,-22.37 -6.86,-6.2 -15.14,-10.99 -24.82,-14.37 -9.69,-3.37 -20.62,-5.06 -32.82,-5.06 -10.23,0 -19.37,1.04 -27.43,3.11 -8.06,2.12 -15.4,5.17 -22.04,9.25 -6.64,4.02 -12.84,9.03 -18.61,14.96 -5.77,5.88 -11.49,12.68 -17.15,20.36l35.27 28.41c8.49,-10.45 16.16,-18.18 23.03,-23.19 6.86,-5.01 14.75,-7.51 23.67,-7.51zm110.38 -24.17l10.45 41.15 39.84 -9.79 0 179.28 49.64 0 0 -230.22 -34.29 0 -65.64 19.59zm350.72 96.01c0,-16.55 -2.4,-32 -7.18,-46.37 -4.79,-14.37 -11.6,-26.89 -20.41,-37.55 -8.82,-10.67 -19.48,-18.99 -32,-24.98 -12.52,-5.99 -26.39,-8.98 -41.63,-8.98 -15.25,0 -29.12,3.05 -41.64,9.14 -12.52,6.1 -23.24,14.48 -32.16,25.15 -8.93,10.66 -15.84,23.24 -20.74,37.71 -4.9,14.48 -7.35,29.99 -7.35,46.53 0,16.77 2.4,32.28 7.18,46.54 4.79,14.25 11.6,26.72 20.41,37.39 8.82,10.66 19.48,18.99 32,24.98 12.52,5.99 26.39,8.98 41.63,8.98 15.25,0 29.12,-3.05 41.64,-9.14 12.52,-6.1 23.24,-14.48 32.16,-25.14 8.93,-10.67 15.84,-23.19 20.74,-37.56 4.9,-14.37 7.35,-29.93 7.35,-46.7zm-51.6 0.65c0,10.45 -1.14,20.09 -3.42,28.91 -2.29,8.82 -5.61,16.49 -9.96,23.02 -4.36,6.53 -9.58,11.59 -15.67,15.19 -6.1,3.59 -12.96,5.39 -20.57,5.39 -7.62,0 -14.54,-1.85 -20.74,-5.55 -6.2,-3.7 -11.48,-8.82 -15.84,-15.35 -4.35,-6.53 -7.72,-14.26 -10.12,-23.19 -2.4,-8.93 -3.59,-18.61 -3.59,-29.06 0,-10.45 1.14,-20.14 3.42,-29.06 2.29,-8.93 5.61,-16.6 9.96,-23.02 4.36,-6.42 9.58,-11.43 15.67,-15.02 6.1,-3.59 12.96,-5.39 20.57,-5.39 7.62,0 14.54,1.85 20.74,5.55 6.2,3.71 11.48,8.82 15.84,15.35 4.35,6.54 7.72,14.26 10.12,23.19 2.4,8.93 3.59,18.62 3.59,29.06zm289.98 -0.65c0,-16.55 -2.4,-32 -7.18,-46.37 -4.79,-14.37 -11.6,-26.89 -20.41,-37.55 -8.82,-10.67 -19.48,-18.99 -32,-24.98 -12.52,-5.99 -26.39,-8.98 -41.63,-8.98 -15.25,0 -29.12,3.05 -41.64,9.14 -12.52,6.1 -23.24,14.48 -32.16,25.15 -8.93,10.66 -15.84,23.24 -20.74,37.71 -4.9,14.48 -7.35,29.99 -7.35,46.53 0,16.77 2.4,32.28 7.18,46.54 4.79,14.25 11.6,26.72 20.41,37.39 8.82,10.66 19.48,18.99 32,24.98 12.52,5.99 26.39,8.98 41.63,8.98 15.25,0 29.12,-3.05 41.64,-9.14 12.52,-6.1 23.24,-14.48 32.16,-25.14 8.93,-10.67 15.84,-23.19 20.74,-37.56 4.9,-14.37 7.35,-29.93 7.35,-46.7zm-51.6 0.65c0,10.45 -1.14,20.09 -3.42,28.91 -2.29,8.82 -5.61,16.49 -9.96,23.02 -4.36,6.53 -9.58,11.59 -15.67,15.19 -6.1,3.59 -12.96,5.39 -20.57,5.39 -7.62,0 -14.54,-1.85 -20.74,-5.55 -6.2,-3.7 -11.48,-8.82 -15.84,-15.35 -4.35,-6.53 -7.72,-14.26 -10.12,-23.19 -2.4,-8.93 -3.59,-18.61 -3.59,-29.06 0,-10.45 1.14,-20.14 3.42,-29.06 2.29,-8.93 5.61,-16.6 9.96,-23.02 4.36,-6.42 9.58,-11.43 15.67,-15.02 6.1,-3.59 12.96,-5.39 20.57,-5.39 7.62,0 14.54,1.85 20.74,5.55 6.2,3.71 11.48,8.82 15.84,15.35 4.35,6.54 7.72,14.26 10.12,23.19 2.4,8.93 3.59,18.62 3.59,29.06zm289.98 -0.65c0,-16.55 -2.4,-32 -7.18,-46.37 -4.79,-14.37 -11.6,-26.89 -20.41,-37.55 -8.82,-10.67 -19.48,-18.99 -32,-24.98 -12.52,-5.99 -26.39,-8.98 -41.63,-8.98 -15.25,0 -29.12,3.05 -41.64,9.14 -12.52,6.1 -23.24,14.48 -32.16,25.15 -8.93,10.66 -15.84,23.24 -20.74,37.71 -4.9,14.48 -7.35,29.99 -7.35,46.53 0,16.77 2.4,32.28 7.18,46.54 4.79,14.25 11.6,26.72 20.41,37.39 8.82,10.66 19.48,18.99 32,24.98 12.52,5.99 26.39,8.98 41.63,8.98 15.25,0 29.12,-3.05 41.64,-9.14 12.52,-6.1 23.24,-14.48 32.16,-25.14 8.93,-10.67 15.84,-23.19 20.74,-37.56 4.9,-14.37 7.35,-29.93 7.35,-46.7zm-51.6 0.65c0,10.45 -1.14,20.09 -3.42,28.91 -2.29,8.82 -5.61,16.49 -9.96,23.02 -4.36,6.53 -9.58,11.59 -15.67,15.19 -6.1,3.59 -12.96,5.39 -20.57,5.39 -7.62,0 -14.54,-1.85 -20.74,-5.55 -6.2,-3.7 -11.48,-8.82 -15.84,-15.35 -4.35,-6.53 -7.72,-14.26 -10.12,-23.19 -2.4,-8.93 -3.59,-18.61 -3.59,-29.06 0,-10.45 1.14,-20.14 3.42,-29.06 2.29,-8.93 5.61,-16.6 9.96,-23.02 4.36,-6.42 9.58,-11.43 15.67,-15.02 6.1,-3.59 12.96,-5.39 20.57,-5.39 7.62,0 14.54,1.85 20.74,5.55 6.2,3.71 11.48,8.82 15.84,15.35 4.35,6.54 7.72,14.26 10.12,23.19 2.4,8.93 3.59,18.62 3.59,29.06zm186.14 36.58l0 -47.68 -100.58 0 0 47.68 100.58 0zm237.07 -37.23c0,-16.55 -2.4,-32 -7.18,-46.37 -4.79,-14.37 -11.6,-26.89 -20.41,-37.55 -8.82,-10.67 -19.48,-18.99 -32,-24.98 -12.52,-5.99 -26.39,-8.98 -41.63,-8.98 -15.25,0 -29.12,3.05 -41.64,9.14 -12.52,6.1 -23.24,14.48 -32.16,25.15 -8.93,10.66 -15.84,23.24 -20.74,37.71 -4.9,14.48 -7.35,29.99 -7.35,46.53 0,16.77 2.4,32.28 7.18,46.54 4.79,14.25 11.6,26.72 20.41,37.39 8.82,10.66 19.48,18.99 32,24.98 12.52,5.99 26.39,8.98 41.63,8.98 15.25,0 29.12,-3.05 41.64,-9.14 12.52,-6.1 23.24,-14.48 32.16,-25.14 8.93,-10.67 15.84,-23.19 20.74,-37.56 4.9,-14.37 7.35,-29.93 7.35,-46.7zm-51.6 0.65c0,10.45 -1.14,20.09 -3.42,28.91 -2.29,8.82 -5.61,16.49 -9.96,23.02 -4.36,6.53 -9.58,11.59 -15.67,15.19 -6.1,3.59 -12.96,5.39 -20.57,5.39 -7.62,0 -14.54,-1.85 -20.74,-5.55 -6.2,-3.7 -11.48,-8.82 -15.84,-15.35 -4.35,-6.53 -7.72,-14.26 -10.12,-23.19 -2.4,-8.93 -3.59,-18.61 -3.59,-29.06 0,-10.45 1.14,-20.14 3.42,-29.06 2.29,-8.93 5.61,-16.6 9.96,-23.02 4.36,-6.42 9.58,-11.43 15.67,-15.02 6.1,-3.59 12.96,-5.39 20.57,-5.39 7.62,0 14.54,1.85 20.74,5.55 6.2,3.71 11.48,8.82 15.84,15.35 4.35,6.54 7.72,14.26 10.12,23.19 2.4,8.93 3.59,18.62 3.59,29.06zm289.98 -0.65c0,-16.55 -2.4,-32 -7.18,-46.37 -4.79,-14.37 -11.6,-26.89 -20.41,-37.55 -8.82,-10.67 -19.48,-18.99 -32,-24.98 -12.52,-5.99 -26.39,-8.98 -41.63,-8.98 -15.25,0 -29.12,3.05 -41.64,9.14 -12.52,6.1 -23.24,14.48 -32.16,25.15 -8.93,10.66 -15.84,23.24 -20.74,37.71 -4.9,14.48 -7.35,29.99 -7.35,46.53 0,16.77 2.4,32.28 7.18,46.54 4.79,14.25 11.6,26.72 20.41,37.39 8.82,10.66 19.48,18.99 32,24.98 12.52,5.99 26.39,8.98 41.63,8.98 15.25,0 29.12,-3.05 41.64,-9.14 12.52,-6.1 23.24,-14.48 32.16,-25.14 8.93,-10.67 15.84,-23.19 20.74,-37.56 4.9,-14.37 7.35,-29.93 7.35,-46.7zm-51.6 0.65c0,10.45 -1.14,20.09 -3.42,28.91 -2.29,8.82 -5.61,16.49 -9.96,23.02 -4.36,6.53 -9.58,11.59 -15.67,15.19 -6.1,3.59 -12.96,5.39 -20.57,5.39 -7.62,0 -14.54,-1.85 -20.74,-5.55 -6.2,-3.7 -11.48,-8.82 -15.84,-15.35 -4.35,-6.53 -7.72,-14.26 -10.12,-23.19 -2.4,-8.93 -3.59,-18.61 -3.59,-29.06 0,-10.45 1.14,-20.14 3.42,-29.06 2.29,-8.93 5.61,-16.6 9.96,-23.02 4.36,-6.42 9.58,-11.43 15.67,-15.02 6.1,-3.59 12.96,-5.39 20.57,-5.39 7.62,0 14.54,1.85 20.74,5.55 6.2,3.71 11.48,8.82 15.84,15.35 4.35,6.54 7.72,14.26 10.12,23.19 2.4,8.93 3.59,18.62 3.59,29.06zm184.83 -71.51l-54.53 54.76 7.83 31.89 20.91 0c14.36,0 25.42,2.5 33.14,7.51 7.73,5.01 11.6,12.3 11.6,21.83 0,8.71 -3,15.56 -8.98,20.52 -5.99,5.01 -13.77,7.51 -23.35,7.51 -11.76,0 -21.93,-2.34 -30.53,-7.02 -8.6,-4.68 -16.82,-11.48 -24.66,-20.41l-34.62 33.03c9.8,11.81 21.93,21.45 36.41,28.8 14.48,7.35 32.05,10.99 52.74,10.99 12.62,0 24.05,-1.85 34.34,-5.55 10.29,-3.7 18.94,-8.93 26.07,-15.67 7.13,-6.75 12.62,-14.7 16.44,-23.84 3.86,-9.14 5.77,-19.15 5.77,-30.04 0,-10.67 -1.74,-19.76 -5.28,-27.27 -3.48,-7.51 -8.11,-13.83 -13.77,-18.94 -5.71,-5.12 -12.3,-9.09 -19.76,-11.92 -7.46,-2.83 -15.08,-4.9 -22.91,-6.2l58.12 -55.19 0 -37.88 -154.78 0 0 43.11 89.8 0zm-2144.81 577.35l0 -228.59 -50.29 0 0 228.59 50.29 0zm254.71 0l-55.84 -81.64c14.59,-5.44 26.4,-13.99 35.43,-25.63 9.03,-11.65 13.55,-26.73 13.55,-45.23l0 -0.65c0,-23.73 -7.56,-42.23 -22.69,-55.52 -15.13,-13.28 -36.3,-19.92 -63.51,-19.92l-104.5 0 0 228.59 50.29 0 0 -73.15 39.52 0 48.99 73.15 58.77 0zm-57.8 -149.89c0,9.79 -3.32,17.63 -9.96,23.51 -6.64,5.88 -16.16,8.82 -28.57,8.82l-50.95 0 0 -65.64 49.96 0c12.41,0 22.1,2.72 29.06,8.17 6.97,5.44 10.45,13.6 10.45,24.49l0 0.65zm319.04 149.89l-97.96 -230.22 -46.37 0 -97.96 230.22 51.27 0 20.9 -51.27 96.66 0 20.9 51.27 52.58 0zm-91.43 -95.68l-60.74 0 30.37 -74.13 30.37 74.13zm355.29 95.68l0 -228.59 -54.21 0 -60.09 96.66 -60.08 -96.66 -54.21 0 0 228.59 49.64 0 0 -148.25 63.68 96.65 1.3 0 64.33 -97.64 0 149.24 49.64 0zm242.3 -77.39l0 -47.68 -100.58 0 0 47.68 100.58 0zm194.29 77.39l0 -228.59 -50.29 0 0 228.59 50.29 0zm222.38 -67.6l0 -0.65c0,-10.02 -1.58,-18.62 -4.73,-25.8 -3.16,-7.18 -7.89,-13.44 -14.09,-18.78 -6.2,-5.34 -13.88,-9.9 -22.91,-13.72 -9.03,-3.81 -19.38,-7.23 -30.97,-10.29 -9.8,-2.61 -17.91,-4.89 -24.39,-6.86 -6.42,-1.96 -11.48,-4.02 -15.24,-6.2 -3.7,-2.18 -6.25,-4.63 -7.67,-7.35 -1.41,-2.72 -2.12,-5.93 -2.12,-9.64l0 -0.65c0,-5.66 2.45,-10.4 7.35,-14.2 4.9,-3.81 12.25,-5.72 22.04,-5.72 9.79,0 19.6,2.01 29.39,6.04 9.79,4.02 19.81,9.53 30.04,16.49l26.13 -37.88c-11.76,-9.36 -24.66,-16.55 -38.7,-21.55 -14.04,-5.01 -29.44,-7.51 -46.21,-7.51 -11.76,0 -22.53,1.64 -32.27,4.9 -9.74,3.26 -18.18,7.95 -25.2,14.04 -7.02,6.1 -12.47,13.33 -16.38,21.72 -3.87,8.38 -5.83,17.79 -5.83,28.25l0 0.65c0,11.32 1.8,20.79 5.39,28.41 3.6,7.62 8.71,13.99 15.25,19.1 6.53,5.12 14.53,9.42 23.89,12.9 9.42,3.49 19.86,6.65 31.46,9.48 9.58,2.39 17.42,4.68 23.4,6.86 5.99,2.18 10.67,4.35 14.09,6.53 3.37,2.18 5.66,4.52 6.86,7.02 1.19,2.5 1.8,5.39 1.8,8.65l0 0.66c0,6.75 -2.89,12.02 -8.66,15.84 -5.77,3.81 -13.88,5.71 -24.33,5.71 -13.06,0 -25.09,-2.5 -36.08,-7.51 -11,-5 -21.72,-11.76 -32.17,-20.24l-29.72 35.59c13.72,12.41 28.96,21.61 45.72,27.59 16.76,5.99 33.85,8.98 51.27,8.98 12.41,0 23.73,-1.58 33.91,-4.73 10.18,-3.16 18.99,-7.73 26.34,-13.72 7.35,-5.99 13.06,-13.38 17.2,-22.2 4.08,-8.82 6.15,-18.89 6.15,-30.21zm276.59 -46.7l0 -0.65c0,-16.33 -2.99,-31.62 -8.98,-45.88 -5.99,-14.26 -14.37,-26.67 -25.15,-37.23 -10.77,-10.55 -23.56,-18.94 -38.37,-25.14 -14.8,-6.2 -31.03,-9.31 -48.66,-9.31 -17.63,0 -33.91,3.11 -48.82,9.31 -14.91,6.2 -27.75,14.7 -38.53,25.47 -10.78,10.78 -19.21,23.29 -25.31,37.56 -6.1,14.26 -9.14,29.56 -9.14,45.88l0 0.65c0,16.33 2.99,31.63 8.98,45.88 5.99,14.26 14.37,26.68 25.15,37.23 10.78,10.56 23.56,18.94 38.37,25.15 14.8,6.2 31.02,9.3 48.65,9.3 17.63,0 33.91,-3.1 48.82,-9.3 14.91,-6.2 27.76,-14.7 38.53,-25.47 10.78,-10.78 19.21,-23.29 25.31,-37.56 6.1,-14.26 9.14,-29.55 9.14,-45.88zm-52.57 0.65c0,9.8 -1.69,18.99 -5.07,27.59 -3.37,8.6 -8.05,16.16 -14.04,22.69 -5.99,6.54 -13.23,11.65 -21.72,15.35 -8.49,3.7 -17.74,5.55 -27.76,5.55 -10.23,0 -19.54,-1.91 -27.92,-5.72 -8.38,-3.81 -15.67,-8.98 -21.88,-15.51 -6.2,-6.53 -11,-14.14 -14.37,-22.85 -3.37,-8.71 -5.06,-17.97 -5.06,-27.76l0 -0.65c0,-9.79 1.69,-18.99 5.06,-27.59 3.37,-8.6 8.06,-16.16 14.04,-22.69 5.99,-6.53 13.17,-11.65 21.55,-15.35 8.38,-3.71 17.69,-5.55 27.92,-5.55 10.01,0 19.27,1.9 27.76,5.71 8.48,3.81 15.83,8.98 22.04,15.51 6.21,6.53 11,14.15 14.37,22.86 3.38,8.71 5.07,17.96 5.07,27.75l0 0.65zm268.75 -72.82c9.14,0 16.55,2.5 22.21,7.51 5.66,5.01 8.49,12.36 8.49,22.15 0,4.79 -0.71,9.2 -2.12,13.23 -1.42,3.97 -3.71,8.11 -6.86,12.36 -3.16,4.24 -7.24,8.71 -12.24,13.38 -5.01,4.68 -11.1,9.91 -18.29,15.79l-76.09 62.26 0 39.79 169.16 0 0 -43.43 -99.6 0 37.23 -28.74c10.01,-7.83 18.83,-15.07 26.45,-21.71 7.62,-6.65 13.88,-13.33 18.78,-20.09 4.89,-6.75 8.6,-13.88 11.1,-21.39 2.5,-7.51 3.76,-16.05 3.76,-25.63 0,-10.66 -1.8,-20.36 -5.39,-29.06 -3.59,-8.71 -8.82,-16.16 -15.67,-22.37 -6.86,-6.2 -15.14,-10.99 -24.82,-14.37 -9.69,-3.37 -20.62,-5.06 -32.82,-5.06 -10.23,0 -19.37,1.04 -27.43,3.11 -8.06,2.12 -15.4,5.17 -22.04,9.25 -6.64,4.02 -12.84,9.03 -18.61,14.96 -5.77,5.88 -11.49,12.68 -17.15,20.36l35.27 28.41c8.49,-10.45 16.16,-18.18 23.03,-23.19 6.86,-5.01 14.75,-7.51 23.67,-7.51zm110.38 -24.17l10.45 41.15 39.84 -9.79 0 179.28 49.64 0 0 -230.22 -34.29 0 -65.64 19.59zm350.72 96.01c0,-16.55 -2.4,-32 -7.18,-46.37 -4.79,-14.37 -11.6,-26.89 -20.41,-37.55 -8.82,-10.67 -19.48,-18.99 -32,-24.98 -12.52,-5.99 -26.39,-8.98 -41.63,-8.98 -15.25,0 -29.12,3.05 -41.64,9.14 -12.52,6.1 -23.24,14.48 -32.16,25.15 -8.93,10.66 -15.84,23.24 -20.74,37.71 -4.9,14.48 -7.35,29.99 -7.35,46.53 0,16.77 2.4,32.28 7.18,46.54 4.79,14.25 11.6,26.72 20.41,37.39 8.82,10.66 19.48,18.99 32,24.98 12.52,5.99 26.39,8.98 41.63,8.98 15.25,0 29.12,-3.05 41.64,-9.14 12.52,-6.1 23.24,-14.48 32.16,-25.14 8.93,-10.67 15.84,-23.19 20.74,-37.56 4.9,-14.37 7.35,-29.93 7.35,-46.7zm-51.6 0.65c0,10.45 -1.14,20.09 -3.42,28.91 -2.29,8.82 -5.61,16.49 -9.96,23.02 -4.36,6.53 -9.58,11.59 -15.67,15.19 -6.1,3.59 -12.96,5.39 -20.57,5.39 -7.62,0 -14.54,-1.85 -20.74,-5.55 -6.2,-3.7 -11.48,-8.82 -15.84,-15.35 -4.35,-6.53 -7.72,-14.26 -10.12,-23.19 -2.4,-8.93 -3.59,-18.61 -3.59,-29.06 0,-10.45 1.14,-20.14 3.42,-29.06 2.29,-8.93 5.61,-16.6 9.96,-23.02 4.36,-6.42 9.58,-11.43 15.67,-15.02 6.1,-3.59 12.96,-5.39 20.57,-5.39 7.62,0 14.54,1.85 20.74,5.55 6.2,3.71 11.48,8.82 15.84,15.35 4.35,6.54 7.72,14.26 10.12,23.19 2.4,8.93 3.59,18.62 3.59,29.06zm289.98 -0.65c0,-16.55 -2.4,-32 -7.18,-46.37 -4.79,-14.37 -11.6,-26.89 -20.41,-37.55 -8.82,-10.67 -19.48,-18.99 -32,-24.98 -12.52,-5.99 -26.39,-8.98 -41.63,-8.98 -15.25,0 -29.12,3.05 -41.64,9.14 -12.52,6.1 -23.24,14.48 -32.16,25.15 -8.93,10.66 -15.84,23.24 -20.74,37.71 -4.9,14.48 -7.35,29.99 -7.35,46.53 0,16.77 2.4,32.28 7.18,46.54 4.79,14.25 11.6,26.72 20.41,37.39 8.82,10.66 19.48,18.99 32,24.98 12.52,5.99 26.39,8.98 41.63,8.98 15.25,0 29.12,-3.05 41.64,-9.14 12.52,-6.1 23.24,-14.48 32.16,-25.14 8.93,-10.67 15.84,-23.19 20.74,-37.56 4.9,-14.37 7.35,-29.93 7.35,-46.7zm-51.6 0.65c0,10.45 -1.14,20.09 -3.42,28.91 -2.29,8.82 -5.61,16.49 -9.96,23.02 -4.36,6.53 -9.58,11.59 -15.67,15.19 -6.1,3.59 -12.96,5.39 -20.57,5.39 -7.62,0 -14.54,-1.85 -20.74,-5.55 -6.2,-3.7 -11.48,-8.82 -15.84,-15.35 -4.35,-6.53 -7.72,-14.26 -10.12,-23.19 -2.4,-8.93 -3.59,-18.61 -3.59,-29.06 0,-10.45 1.14,-20.14 3.42,-29.06 2.29,-8.93 5.61,-16.6 9.96,-23.02 4.36,-6.42 9.58,-11.43 15.67,-15.02 6.1,-3.59 12.96,-5.39 20.57,-5.39 7.62,0 14.54,1.85 20.74,5.55 6.2,3.71 11.48,8.82 15.84,15.35 4.35,6.54 7.72,14.26 10.12,23.19 2.4,8.93 3.59,18.62 3.59,29.06zm77.07 -96.66l10.45 41.15 39.84 -9.79 0 179.28 49.64 0 0 -230.22 -34.29 0 -65.64 19.59zm204.42 87.84l0 -52.24 -52.58 0 0 52.24 52.58 0zm0 122.79l0 -52.25 -52.58 0 0 52.25 52.58 0zm123.11 -186.46c9.14,0 16.55,2.5 22.21,7.51 5.66,5.01 8.49,12.36 8.49,22.15 0,4.79 -0.71,9.2 -2.12,13.23 -1.42,3.97 -3.71,8.11 -6.86,12.36 -3.16,4.24 -7.24,8.71 -12.24,13.38 -5.01,4.68 -11.1,9.91 -18.29,15.79l-76.09 62.26 0 39.79 169.16 0 0 -43.43 -99.6 0 37.23 -28.74c10.01,-7.83 18.83,-15.07 26.45,-21.71 7.62,-6.65 13.88,-13.33 18.78,-20.09 4.89,-6.75 8.6,-13.88 11.1,-21.39 2.5,-7.51 3.76,-16.05 3.76,-25.63 0,-10.66 -1.8,-20.36 -5.39,-29.06 -3.59,-8.71 -8.82,-16.16 -15.67,-22.37 -6.86,-6.2 -15.14,-10.99 -24.82,-14.37 -9.69,-3.37 -20.62,-5.06 -32.82,-5.06 -10.23,0 -19.37,1.04 -27.43,3.11 -8.06,2.12 -15.4,5.17 -22.04,9.25 -6.64,4.02 -12.84,9.03 -18.61,14.96 -5.77,5.88 -11.49,12.68 -17.15,20.36l35.27 28.41c8.49,-10.45 16.16,-18.18 23.03,-23.19 6.86,-5.01 14.75,-7.51 23.67,-7.51zm323.29 71.84c0,-16.55 -2.4,-32 -7.18,-46.37 -4.79,-14.37 -11.6,-26.89 -20.41,-37.55 -8.82,-10.67 -19.48,-18.99 -32,-24.98 -12.52,-5.99 -26.39,-8.98 -41.63,-8.98 -15.25,0 -29.12,3.05 -41.64,9.14 -12.52,6.1 -23.24,14.48 -32.16,25.15 -8.93,10.66 -15.84,23.24 -20.74,37.71 -4.9,14.48 -7.35,29.99 -7.35,46.53 0,16.77 2.4,32.28 7.18,46.54 4.79,14.25 11.6,26.72 20.41,37.39 8.82,10.66 19.48,18.99 32,24.98 12.52,5.99 26.39,8.98 41.63,8.98 15.25,0 29.12,-3.05 41.64,-9.14 12.52,-6.1 23.24,-14.48 32.16,-25.14 8.93,-10.67 15.84,-23.19 20.74,-37.56 4.9,-14.37 7.35,-29.93 7.35,-46.7zm-51.6 0.65c0,10.45 -1.14,20.09 -3.42,28.91 -2.29,8.82 -5.61,16.49 -9.96,23.02 -4.36,6.53 -9.58,11.59 -15.67,15.19 -6.1,3.59 -12.96,5.39 -20.57,5.39 -7.62,0 -14.54,-1.85 -20.74,-5.55 -6.2,-3.7 -11.48,-8.82 -15.84,-15.35 -4.35,-6.53 -7.72,-14.26 -10.12,-23.19 -2.4,-8.93 -3.59,-18.61 -3.59,-29.06 0,-10.45 1.14,-20.14 3.42,-29.06 2.29,-8.93 5.61,-16.6 9.96,-23.02 4.36,-6.42 9.58,-11.43 15.67,-15.02 6.1,-3.59 12.96,-5.39 20.57,-5.39 7.62,0 14.54,1.85 20.74,5.55 6.2,3.71 11.48,8.82 15.84,15.35 4.35,6.54 7.72,14.26 10.12,23.19 2.4,8.93 3.59,18.62 3.59,29.06zm77.07 -96.66l10.45 41.15 39.84 -9.79 0 179.28 49.64 0 0 -230.22 -34.29 0 -65.64 19.59zm328.51 89.48c0,-11.32 -0.65,-21.44 -1.95,-30.37 -1.31,-8.93 -3.16,-16.87 -5.55,-23.84 -2.4,-6.96 -5.23,-13.06 -8.49,-18.29 -3.26,-5.23 -6.96,-9.9 -11.1,-14.04 -4.35,-4.35 -8.82,-8.11 -13.38,-11.26 -4.58,-3.16 -9.47,-5.71 -14.7,-7.67 -5.23,-1.96 -10.94,-3.43 -17.15,-4.41 -6.2,-0.98 -13.12,-1.47 -20.73,-1.47 -12.85,0 -24.66,2.01 -35.43,6.04 -10.77,4.02 -19.97,9.63 -27.59,16.82 -7.62,7.18 -13.55,15.67 -17.79,25.47 -4.25,9.8 -6.37,20.46 -6.37,32 0,11.76 1.9,22.21 5.72,31.35 3.81,9.14 9.3,16.87 16.49,23.19 7.18,6.31 15.78,11.16 25.8,14.53 10.01,3.37 21.22,5.06 33.63,5.06 10.01,0 18.83,-1.41 26.45,-4.24 7.62,-2.83 14.26,-6.64 19.92,-11.43 -1.74,15.56 -6.37,28.14 -13.88,37.77 -7.51,9.64 -18.34,14.48 -32.5,14.48 -9.79,0 -18.5,-1.58 -26.13,-4.73 -7.62,-3.16 -15.56,-8.11 -23.84,-14.86l-26.45 38.1c9.79,7.95 20.57,14.48 32.33,19.43 11.76,4.95 26.02,7.46 42.78,7.46 16.32,0 30.69,-3.05 43.1,-9.14 12.41,-6.1 22.8,-14.59 31.19,-25.47 8.38,-10.89 14.75,-24 19.1,-39.35 4.36,-15.35 6.53,-32.39 6.53,-51.11zm-51.27 -32.98c0,10.01 -3.43,18.23 -10.34,24.65 -6.86,6.43 -16.55,9.64 -29.01,9.64 -12.47,0 -22.26,-3.16 -29.33,-9.47 -7.13,-6.31 -10.67,-14.7 -10.67,-25.15 0,-10.45 3.37,-18.88 10.18,-25.31 6.75,-6.42 16.38,-9.63 28.85,-9.63 12.68,0 22.59,3.26 29.66,9.79 7.13,6.53 10.67,15.02 10.67,25.47zm-3439.61 546l-97.96 -230.22 -46.37 0 -97.96 230.22 51.27 0 20.9 -51.27 96.66 0 20.9 51.27 52.58 0zm-91.43 -95.68l-60.74 0 30.37 -74.13 30.37 74.13zm324.27 95.68l-55.84 -81.64c14.59,-5.44 26.4,-13.99 35.43,-25.63 9.03,-11.65 13.55,-26.73 13.55,-45.23l0 -0.65c0,-23.73 -7.56,-42.23 -22.69,-55.52 -15.13,-13.28 -36.3,-19.92 -63.51,-19.92l-104.5 0 0 228.59 50.29 0 0 -73.15 39.52 0 48.99 73.15 58.77 0zm-57.8 -149.89c0,9.79 -3.32,17.63 -9.96,23.51 -6.64,5.88 -16.16,8.82 -28.57,8.82l-50.95 0 0 -65.64 49.96 0c12.41,0 22.1,2.72 29.06,8.17 6.97,5.44 10.45,13.6 10.45,24.49l0 0.65zm283.77 72.5l0 -47.68 -100.58 0 0 47.68 100.58 0zm315.44 77.39l0 -44.74 -124.09 0 0 -48.01 107.77 0 0 -44.74 -107.77 0 0 -46.37 122.46 0 0 -44.74 -172.1 0 0 228.59 173.73 0zm277.9 -114.3l0 -0.65c0,-16.33 -2.99,-31.62 -8.98,-45.88 -5.99,-14.26 -14.37,-26.67 -25.15,-37.23 -10.77,-10.55 -23.56,-18.94 -38.37,-25.14 -14.8,-6.2 -31.03,-9.31 -48.66,-9.31 -17.63,0 -33.91,3.11 -48.82,9.31 -14.91,6.2 -27.75,14.7 -38.53,25.47 -10.78,10.78 -19.21,23.29 -25.31,37.56 -6.1,14.26 -9.14,29.56 -9.14,45.88l0 0.65c0,16.33 2.99,31.63 8.98,45.88 5.99,14.26 14.37,26.68 25.15,37.23 10.78,10.56 23.56,18.94 38.37,25.15 14.8,6.2 31.02,9.3 48.65,9.3 17.63,0 33.91,-3.1 48.82,-9.3 14.91,-6.2 27.76,-14.7 38.53,-25.47 10.78,-10.78 19.21,-23.29 25.31,-37.56 6.1,-14.26 9.14,-29.55 9.14,-45.88zm-52.57 0.65c0,9.8 -1.69,18.99 -5.07,27.59 -3.37,8.6 -8.05,16.16 -14.04,22.69 -5.99,6.54 -13.23,11.65 -21.72,15.35 -8.49,3.7 -17.74,5.55 -27.76,5.55 -10.23,0 -19.54,-1.91 -27.92,-5.72 -8.38,-3.81 -15.67,-8.98 -21.88,-15.51 -6.2,-6.53 -11,-14.14 -14.37,-22.85 -3.37,-8.71 -5.06,-17.97 -5.06,-27.76l0 -0.65c0,-9.79 1.69,-18.99 5.06,-27.59 3.37,-8.6 8.06,-16.16 14.04,-22.69 5.99,-6.53 13.17,-11.65 21.55,-15.35 8.38,-3.71 17.69,-5.55 27.92,-5.55 10.01,0 19.27,1.9 27.76,5.71 8.48,3.81 15.83,8.98 22.04,15.51 6.21,6.53 11,14.15 14.37,22.86 3.38,8.71 5.07,17.96 5.07,27.75l0 0.65zm284.75 36.25l0 -47.68 -100.58 0 0 47.68 100.58 0z"/>
     <path class="fil3" d="M1870.78 4636.27c0,-16.55 -2.4,-32 -7.18,-46.37 -4.79,-14.37 -11.6,-26.89 -20.41,-37.55 -8.82,-10.67 -19.48,-18.99 -32,-24.98 -12.52,-5.99 -26.39,-8.98 -41.63,-8.98 -15.25,0 -29.12,3.05 -41.64,9.14 -12.52,6.1 -23.24,14.48 -32.16,25.15 -8.93,10.66 -15.84,23.24 -20.74,37.71 -4.9,14.48 -7.35,29.99 -7.35,46.53 0,16.77 2.4,32.28 7.18,46.54 4.79,14.25 11.6,26.72 20.41,37.39 8.82,10.66 19.48,18.99 32,24.98 12.52,5.99 26.39,8.98 41.63,8.98 15.25,0 29.12,-3.05 41.64,-9.14 12.52,-6.1 23.24,-14.48 32.16,-25.14 8.93,-10.67 15.84,-23.19 20.74,-37.56 4.9,-14.37 7.35,-29.93 7.35,-46.7zm-51.6 0.65c0,10.45 -1.14,20.09 -3.42,28.91 -2.29,8.82 -5.61,16.49 -9.96,23.02 -4.36,6.53 -9.58,11.59 -15.67,15.19 -6.1,3.59 -12.96,5.39 -20.57,5.39 -7.62,0 -14.54,-1.85 -20.74,-5.55 -6.2,-3.7 -11.48,-8.82 -15.84,-15.35 -4.35,-6.53 -7.72,-14.26 -10.12,-23.19 -2.4,-8.93 -3.59,-18.61 -3.59,-29.06 0,-10.45 1.14,-20.14 3.42,-29.06 2.29,-8.93 5.61,-16.6 9.96,-23.02 4.36,-6.42 9.58,-11.43 15.67,-15.02 6.1,-3.59 12.96,-5.39 20.57,-5.39 7.62,0 14.54,1.85 20.74,5.55 6.2,3.71 11.48,8.82 15.84,15.35 4.35,6.54 7.72,14.26 10.12,23.19 2.4,8.93 3.59,18.62 3.59,29.06zm289.98 -0.65c0,-16.55 -2.4,-32 -7.18,-46.37 -4.79,-14.37 -11.6,-26.89 -20.41,-37.55 -8.82,-10.67 -19.48,-18.99 -32,-24.98 -12.52,-5.99 -26.39,-8.98 -41.63,-8.98 -15.25,0 -29.12,3.05 -41.64,9.14 -12.52,6.1 -23.24,14.48 -32.16,25.15 -8.93,10.66 -15.84,23.24 -20.74,37.71 -4.9,14.48 -7.35,29.99 -7.35,46.53 0,16.77 2.4,32.28 7.18,46.54 4.79,14.25 11.6,26.72 20.41,37.39 8.82,10.66 19.48,18.99 32,24.98 12.52,5.99 26.39,8.98 41.63,8.98 15.25,0 29.12,-3.05 41.64,-9.14 12.52,-6.1 23.24,-14.48 32.16,-25.14 8.93,-10.67 15.84,-23.19 20.74,-37.56 4.9,-14.37 7.35,-29.93 7.35,-46.7zm-51.6 0.65c0,10.45 -1.14,20.09 -3.42,28.91 -2.29,8.82 -5.61,16.49 -9.96,23.02 -4.36,6.53 -9.58,11.59 -15.67,15.19 -6.1,3.59 -12.96,5.39 -20.57,5.39 -7.62,0 -14.54,-1.85 -20.74,-5.55 -6.2,-3.7 -11.48,-8.82 -15.84,-15.35 -4.35,-6.53 -7.72,-14.26 -10.12,-23.19 -2.4,-8.93 -3.59,-18.61 -3.59,-29.06 0,-10.45 1.14,-20.14 3.42,-29.06 2.29,-8.93 5.61,-16.6 9.96,-23.02 4.36,-6.42 9.58,-11.43 15.67,-15.02 6.1,-3.59 12.96,-5.39 20.57,-5.39 7.62,0 14.54,1.85 20.74,5.55 6.2,3.71 11.48,8.82 15.84,15.35 4.35,6.54 7.72,14.26 10.12,23.19 2.4,8.93 3.59,18.62 3.59,29.06zm184.83 -71.51l-54.53 54.76 7.83 31.89 20.91 0c14.36,0 25.42,2.5 33.14,7.51 7.73,5.01 11.6,12.3 11.6,21.83 0,8.71 -3,15.56 -8.98,20.52 -5.99,5.01 -13.77,7.51 -23.35,7.51 -11.76,0 -21.93,-2.34 -30.53,-7.02 -8.6,-4.68 -16.82,-11.48 -24.66,-20.41l-34.62 33.03c9.8,11.81 21.93,21.45 36.41,28.8 14.48,7.35 32.05,10.99 52.74,10.99 12.62,0 24.05,-1.85 34.34,-5.55 10.29,-3.7 18.94,-8.93 26.07,-15.67 7.13,-6.75 12.62,-14.7 16.44,-23.84 3.86,-9.14 5.77,-19.15 5.77,-30.04 0,-10.67 -1.74,-19.76 -5.28,-27.27 -3.48,-7.51 -8.11,-13.83 -13.77,-18.94 -5.71,-5.12 -12.3,-9.09 -19.76,-11.92 -7.46,-2.83 -15.08,-4.9 -22.91,-6.2l58.12 -55.19 0 -37.88 -154.78 0 0 43.11 89.8 0z"/>
    </g>
   </g>
  </g>
 </g>
</svg>
