<?xml version="1.0" encoding="UTF-8"?>
<svg id="Capa_2" data-name="Capa 2" xmlns="http://www.w3.org/2000/svg" viewBox="0 0 43.04 31.3">
  <defs>
    <style>
      .cls-1 {
        fill: #000;
        stroke-width: 0px;
      }
    </style>
  </defs>
  <g id="Capa_1-2" data-name="Capa 1">
    <g id="Standard_product_icon" data-name="Standard product icon">
      <g id="art_layer" data-name="art layer">
        <path class="cls-1" d="M21.52,0C9.63,0,0,9.54,0,21.32v9.98h3.97v-.79c0-4.78,3.91-8.65,8.73-8.65s8.73,3.87,8.73,8.65v.79h3.97v-.79c0-6.94-5.68-12.58-12.69-12.58-2.73,0-5.26.85-7.33,2.31,2.17-4.27,6.63-7.19,11.78-7.19,7.28,0,13.18,5.84,13.18,13.06v5.2h3.97v-5.2c0-9.38-7.68-16.99-17.14-16.99-4.26,0-8.15,1.54-11.15,4.08C8.94,7.69,14.78,3.93,21.52,3.93c9.69,0,17.55,7.79,17.55,17.39v9.98h3.97v-9.98C43.04,9.55,33.4,0,21.52,0h0Z"/>
      </g>
    </g>
  </g>
</svg>