<?xml version="1.0" encoding="UTF-8"?>
<svg id="Capa_2" data-name="Capa 2" xmlns="http://www.w3.org/2000/svg" viewBox="0 0 111.95 114.08">
  <defs>
    <style>
      .cls-1 {
        fill: #4285f4;
      }

      .cls-1, .cls-2, .cls-3, .cls-4, .cls-5 {
        stroke-width: 0px;
      }

      .cls-2 {
        fill: #000;
      }

      .cls-3 {
        fill: #fbbc05;
      }

      .cls-4 {
        fill: #34a853;
      }

      .cls-5 {
        fill: #ea4335;
      }
    </style>
  </defs>
  <g id="Capa_1-2" data-name="Capa 1">
    <g>
      <path class="cls-2" d="M109.59,61.25V5.7c0-1.73-1.33-3.29-3.13-3.29H21.41c-1.73.01-2.82,1.86-2.82,3.18l-.02,9.84c0,.42-.66,1.17-1.07,1.2-.56.05-1.3-.62-1.3-1.22l.03-9.71C16.24,2.25,18.88,0,22.32,0l84.18.02c3.39,0,5.46,2.88,5.46,6v55.54c-.01,3.38-2.77,5.71-6.09,5.52h-60.66c-.39-.26-.96-1.06-.72-1.3l1.16-1.14h59.88c2.21,0,4.07-.81,4.07-3.38Z"/>
      <path class="cls-2" d="M53.86,52.41c1.41-1.18,1.47-3.12.59-4.3-1.05-1.42-3.12-1.59-4.48-.45l-8.7,7.27c-.29.24-.93.62-1.25.58-.38-.05-1.01-.53-1.3-.86l-2.73-3.18c-2.22-2.59-5.36-4.08-8.84-4.1l-12.69-.07c-6.49-.03-11.58,4.54-12.12,11.1v17.21c-.21.37-.78.85-1.14.92C.79,76.6,0,75.82,0,75.34l.11-17.35c.04-6.86,6.17-12.83,12.99-12.86l14.38-.06c4.17-.02,7.83,2.02,10.47,5.08l2.27,2.64,8.46-7.05c2.18-1.81,5.45-1.4,7.3.54,1.72,1.81,2.2,5.44-.09,7.36l-12.85,10.82c-1.85,1.56-5.14,1.87-6.74.11l-4.22-4.66-.09,4.69,2.56.09c.4.01,1.14.39,1.4.65.31.3.31,1.58-.11,1.66l-3.81.11v8.23c0,.42-.76,1.12-1.19,1.16s-1.15-.7-1.15-1.18l.04-15.65c0-1.39,2.02-3.29,3.22-2.27,3.26,2.77,5.3,8.02,9.12,4.83l11.78-9.83Z"/>
      <path class="cls-2" d="M55.28,99.8c-7.71-.96-13.85,5.08-13.36,12.62-.11.5-.26,1.13-.44,1.41s-1.08.25-1.37.08c-.35-.2-.59-.92-.61-1.49-.27-7.69,4.97-14.17,12.82-15.08-4.51-1.38-7.32-5.75-6.62-10.42.68-4.53,4.56-8.02,9.26-8,4.55.02,8.49,3.31,9.2,7.7.78,4.8-1.95,9.25-6.59,10.75,8,1.05,13.2,7.56,12.78,15.38-.04.74-.62,1.36-1.38,1.33-.5-.02-1.05-.83-1.03-1.48.55-7.28-5.13-13.35-12.66-12.8ZM51.27,94.27c3.83,2.42,8.41.56,10.09-3.19s-.46-8.4-4.65-9.59c-3.45-.98-6.83.98-8.18,4.03-1.36,3.09-.34,6.8,2.73,8.75Z"/>
      <path class="cls-2" d="M90.1,99.8c-7.55-.91-13.62,5.26-13.08,12.6-.11.54-.25,1.12-.44,1.4s-1.09.27-1.4.14c-.37-.16-.53-.93-.55-1.54-.36-7.74,5.06-14.08,12.57-15.08-4.79-1.75-7.09-6.11-6.41-10.54.71-4.65,4.8-7.91,9.36-7.87,4.57.04,8.41,3.49,9.13,7.76.81,4.8-2.06,9.09-6.58,10.69,7.85.99,13.02,7.41,12.75,15.02-.03.84-.29,1.55-1.04,1.66-.69.11-1.33-.6-1.34-1.37.59-7.4-5.32-13.68-12.98-12.88ZM88.99,81.36c-4.15.7-6.57,4.45-5.85,8.31.67,3.58,4.18,6.22,7.98,5.57,3.65-.62,6.48-4.11,5.87-7.94-.58-3.58-3.99-6.62-7.99-5.95Z"/>
      <path class="cls-2" d="M19.82,99.78c-7.7-.76-13.54,5.46-12.94,12.92-.04.76-.68,1.47-1.37,1.37s-1.04-.85-1.06-1.65c-.22-7.66,4.88-14.09,12.77-15.07-4.52-1.54-7.21-5.78-6.56-10.4s4.51-7.87,8.9-8.02c4.65-.16,8.67,3.19,9.5,7.4.97,4.94-1.77,9.32-6.34,11.02,8.1,1.23,13.25,8.07,12.48,15.95-.35.38-1.02.79-1.42.77-.54-.02-.94-1.01-.84-1.63.27-7.43-5.51-13.39-13.12-12.67ZM20.63,95.31c3.4-.43,5.71-3.02,6.19-5.94.5-3.09-1.16-6.05-4.01-7.45-2.8-1.38-5.99-.54-8.03,1.65-1.94,2.08-2.44,5.19-1.1,7.91,1.18,2.38,3.85,4.22,6.95,3.83Z"/>
      <path class="cls-2" d="M83.63,47.27l-9.06.09c-.4,0-1.26-.31-1.49-.63-.98-1.36.69-4.46-2.9-7.97-4.05-3.96-4.7-10.13-1.84-14.81,2.92-4.79,8.69-7.19,14.13-5.33,3.99,1.36,6.76,4.58,7.84,8.16,1.29,4.26.16,8.71-2.86,11.83-1.89,1.65-2.94,3.87-2.71,6.44.09.57-.51,2.21-1.11,2.22ZM82.43,45.02c-.2-3.25.89-5.59,2.9-7.55,2.93-2.86,3.98-7.09,2.37-11.01-1.38-3.37-4.74-6.03-8.82-6.1-4.23-.07-7.7,2.61-9.13,6.1-1.61,3.93-.62,8.09,2.36,11.02,2.06,2.02,3.18,4.55,2.83,7.58l7.48-.04Z"/>
      <path class="cls-2" d="M24.12,42.86c-5.64,2.33-11.79-.74-13.94-6.06-2.21-5.46.42-11.78,6.01-14.14s11.86.5,14.12,6.02c2.21,5.41-.39,11.78-6.18,14.17ZM21.43,41.16c3.71-.58,6.35-3.45,7.09-6.43.92-3.69-.78-7.12-3.49-9.01-3.05-2.13-6.93-2.03-9.81.21-3.19,2.48-4.34,6.55-2.76,10.19,1.43,3.29,4.96,5.68,8.98,5.05Z"/>
      <path class="cls-2" d="M10.7,75.17c0,.69-.76,1.41-1.23,1.34-.42-.06-1.08-.75-1.08-1.22v-14.99c-.01-.59.57-1.31,1.04-1.32.64-.02,1.28.65,1.28,1.31v14.88Z"/>
      <path class="cls-2" d="M83.21,51.37l-8.83.03c-.44,0-1.22-.57-1.28-1.02-.08-.53.66-1.31,1.21-1.31l8.83-.02c.42,0,1.12.65,1.2,1.08.08.41-.64,1.24-1.14,1.24Z"/>
      <path class="cls-2" d="M81.08,55.35l-4.53.03c-.39,0-1.07-.47-1.25-.8s.28-1.43.71-1.44l5.38-.07c.38,0,.91.91.85,1.22-.08.37-.73,1.06-1.15,1.06Z"/>
      <path class="cls-2" d="M65.09,18.8l-2.75-2.52c-.29-.27-.24-1.31,0-1.62.3-.39,1.27-.53,1.71-.1l2.63,2.57c.24.24.2,1.24,0,1.5-.25.31-1.27.45-1.59.15Z"/>
      <path class="cls-2" d="M79.86,12.71c0,.5-1.09,1.04-1.48.91s-.89-.91-.89-1.34l.03-3.43c0-.48.76-1.19,1.2-1.2s1.21.73,1.21,1.18l-.07,3.88Z"/>
      <path class="cls-2" d="M100.35,31.81h-3.93c-.39,0-.96-.88-.93-1.25.04-.43.73-1.07,1.22-1.07h3.38c.4-.02,1.1.47,1.24.82.19.49-.4,1.5-.99,1.5Z"/>
      <path class="cls-2" d="M61.17,31.7l-3.84.14c-.42.02-1.24-.55-1.31-.94-.09-.45.57-1.38,1.07-1.38l3.6-.04c.41,0,1.09.47,1.26.8s-.4,1.41-.77,1.42Z"/>
      <path class="cls-2" d="M92.64,18.7c-.31.31-1.35.32-1.65.08-.35-.28-.44-1.37-.09-1.71l2.58-2.45c.32-.3,1.17-.4,1.52-.18s.54,1.36.22,1.67l-2.59,2.59Z"/>
      <path class="cls-1" d="M51.27,94.27c-3.08-1.94-4.09-5.66-2.73-8.75,1.34-3.05,4.73-5.01,8.18-4.03,4.19,1.19,6.38,5.73,4.65,9.59s-6.26,5.61-10.09,3.19Z"/>
      <path class="cls-4" d="M88.99,81.36c4.01-.67,7.41,2.37,7.99,5.95.62,3.82-2.21,7.31-5.87,7.94-3.8.65-7.31-1.99-7.98-5.57-.72-3.87,1.7-7.62,5.85-8.31Z"/>
      <path class="cls-5" d="M20.63,95.31c-3.1.39-5.78-1.45-6.95-3.83-1.35-2.73-.85-5.83,1.1-7.91,2.04-2.19,5.23-3.03,8.03-1.65,2.85,1.41,4.52,4.36,4.01,7.45-.47,2.92-2.79,5.51-6.19,5.94Z"/>
      <path class="cls-3" d="M82.43,45.02l-7.48.04c.35-3.03-.77-5.56-2.83-7.58-2.98-2.92-3.98-7.08-2.36-11.02,1.43-3.49,4.9-6.16,9.13-6.1,4.07.06,7.44,2.73,8.82,6.1,1.61,3.91.56,8.15-2.37,11.01-2.01,1.96-3.11,4.29-2.9,7.55Z"/>
      <path class="cls-4" d="M21.43,41.16c-4.02.63-7.55-1.76-8.98-5.05-1.57-3.63-.42-7.71,2.76-10.19,2.88-2.24,6.77-2.34,9.81-.21,2.71,1.89,4.42,5.32,3.49,9.01-.74,2.98-3.38,5.85-7.09,6.43Z"/>
    </g>
  </g>
</svg>