<?xml version="1.0" encoding="UTF-8"?>
<svg id="Capa_2" data-name="Capa 2" xmlns="http://www.w3.org/2000/svg" viewBox="0 0 967.46 1298.87">
  <defs>
    <style>
      .cls-1 {
        fill: none;
        stroke: #1e804b;
        stroke-dasharray: 0 0 11.99 11.99;
        stroke-miterlimit: 10;
        stroke-width: 2px;
      }

      .cls-2 {
        fill: #c19516;
        stroke-width: 0px;
      }
    </style>
  </defs>
  <g id="Capa_1-2" data-name="Capa 1">
    <path class="cls-1" d="M494.9,307.77c-1.99,24.26-3.71,50.08,5.78,71.73,23.83,54.38,104.37,54.9,115.63,114.67,6.34,33.67-14.6,64.88-31.38,93.12-16.78,28.24-29.95,68.9-10.73,94.9,7.98,10.79,19.84,16.13,30.17,23.67,26.13,19.08,42.57,53.05,49.61,88.33,7.05,35.29,5.67,72.12,2.82,108.22-4.3,54.32-13.71,112.57-47.54,149.76-35.69,39.24-88.79,44.61-137.55,46.16-26.03.83-52.62,1.07-77.39-8.41-42.97-16.44-75.2-60.9-92.03-110.37-16.83-49.47-20.14-103.81-20.42-157.12-.17-31.55-.5-66.76-19.16-89.36-19.05-23.07-49.7-23.92-77-23.23-25.73.65-52.94,1.81-74.61,18.18-22.9,17.3-35.54,49.2-39.14,81s.65,64.04,4.9,95.73c13.16,98.3,30.25,205.22,94.3,269.96,38.05,38.46,87.96,56.42,137.29,66.8,147.74,31.07,304.2,1.01,435.95-83.77,16.03-10.32,31.95-21.64,44.3-37.51,12.98-16.67,21.37-37.54,28.59-58.52,18.28-53.15,30.23-109.33,35.38-166.36,2.75-30.43,3.5-61.75-3.95-91.06s-24.24-56.58-48.28-68.06c-22.95-10.96-50.77-7.17-70.77-24.39-11.75-10.12-18.82-25.97-25.14-41.43-12.24-29.96-23.44-62.72-19.05-95.58,5.23-39.14,31.05-69.15,54.16-97.9,22.31-27.76,43.48-57.35,58.41-91.32,32.34-73.57,31.86-165.93-1.25-239.02-33.11-73.1-97.92-124.88-167.73-134.03-52.43-6.87-97.8,17.55-100.81,82.39-1.51,32.48-10.09,59.19-17.18,90.39-9.08,39.96-12.81,81.32-16.18,122.4Z"/>
    <path class="cls-2" d="M523.57,309.86c-2.46,25.37-4.57,52.38,7.14,75.02,29.41,56.87,128.8,57.42,142.69,119.92,7.83,35.21-18.01,67.85-38.72,97.39-20.71,29.54-36.95,72.06-13.24,99.24,9.85,11.29,24.49,16.87,37.22,24.75,32.24,19.95,52.53,55.48,61.22,92.38s7,75.42,3.48,113.17c-5.3,56.8-16.92,117.73-58.66,156.62-44.04,41.04-109.56,46.65-169.74,48.27-32.12.86-64.94,1.11-95.5-8.8-53.03-17.2-92.8-63.69-113.56-115.43-20.77-51.74-24.86-108.57-25.2-164.31-.2-32.99-.62-69.81-23.64-93.45-23.5-24.13-61.34-25.01-95.01-24.29-31.75.68-65.32,1.89-92.07,19.02-28.26,18.09-43.86,51.45-48.3,84.71s.81,66.97,6.04,100.12c16.24,102.8,37.33,214.61,116.36,282.33,46.95,40.23,108.55,59.01,169.42,69.86,182.31,32.5,375.38,1.06,537.96-87.6,19.78-10.79,39.42-22.63,54.66-39.23,16.01-17.44,26.38-39.26,35.28-61.2,22.56-55.58,37.3-114.33,43.66-173.98,3.39-31.82,4.32-64.58-4.88-95.23-9.2-30.65-29.91-59.17-59.57-71.17-28.32-11.46-62.65-7.5-87.33-25.51-14.5-10.58-23.23-27.15-31.02-43.32-15.1-31.33-28.92-65.6-23.51-99.95,6.45-40.93,38.32-72.31,66.84-102.38,27.54-29.04,53.66-59.97,72.08-95.5,39.91-76.94,39.31-173.52-1.55-249.97C855.26,64.89,775.29,10.74,689.14,1.17c-64.7-7.18-120.69,18.35-124.4,86.16-1.86,33.97-12.46,61.9-21.2,94.53-11.2,41.79-15.81,85.05-19.97,128Z"/>
  </g>
</svg>