<?xml version="1.0" encoding="UTF-8"?>
<!DOCTYPE svg PUBLIC "-//W3C//DTD SVG 1.1//EN" "http://www.w3.org/Graphics/SVG/1.1/DTD/svg11.dtd">
<!-- Creator: CorelDRAW -->
<svg xmlns="http://www.w3.org/2000/svg" xml:space="preserve" width="180.516mm" height="247.549mm" version="1.1" style="shape-rendering:geometricPrecision; text-rendering:geometricPrecision; image-rendering:optimizeQuality; fill-rule:evenodd; clip-rule:evenodd"
viewBox="0 0 19624.58 26911.95"
 xmlns:xlink="http://www.w3.org/1999/xlink"
 xmlns:xodm="http://www.corel.com/coreldraw/odm/2003">
 <defs>
  <style type="text/css">
   <![CDATA[
    .str0 {stroke:#C19516;stroke-width:54.36;stroke-miterlimit:22.9256;stroke-dasharray:201.283597 230.038396}
    .fil0 {fill:none}
   ]]>
  </style>
 </defs>
 <g id="Capa_x0020_1">
  <metadata id="CorelCorpID_0Corel-Layer"/>
  <path class="fil0 str0" d="M16298.08 2769.26c-2652.01,-1345.07 -5525.09,-2253.45 -8468.42,-2677.33 -488.07,-70.25 -1004.09,-124.16 -1459.32,65.23 -788.24,327.86 -1120.26,1244.11 -1366.89,2061.18 -312.6,1036.21 -607.7,2226.4 -32.3,3143.07 311.4,495.87 831.71,820.1 1355.23,1082.09 1442.01,722.19 3027.05,1100.48 4549.52,1632.87 700.16,244.86 1476.29,617.81 1661.84,1335.64 110.73,428.42 -24.1,882.03 -206.08,1285.58 -804.7,1784.9 -2479.26,3014.68 -4183.19,3978.71 -1703.91,964.03 -3531.1,1762.65 -4996.42,3061.26 -1815.25,1608.52 -2959.9,3951.62 -3112.92,6372.34 -42.69,675.94 10.53,1414.86 455.23,1925.66 309.27,355.22 766.16,547.16 1222.01,665.07 1597.54,413.61 3281.46,54.48 4891.96,-305.08 1200.31,-267.93 2400.88,-536.08 3589.18,-853.31 855.53,-228.44 1725.09,-492.33 2433.15,-1024.33 708.04,-532.01 1233.4,-1388.72 1140.64,-2269.44 -107.03,-1015.87 -1015.97,-1807.87 -2002.93,-2071.28 -986.96,-263.42 -2034.97,-99.3 -3030.1,130.85 -995.13,230.14 -1989.71,526.86 -3011.06,525.64 -927.51,-1.11 -2031.47,-446.06 -2138.66,-1367.35 -62.42,-536.63 249.18,-1047.9 619.36,-1441.25 851.64,-905.17 2044.07,-1422.01 3253.01,-1710.73 1208.68,-288.73 2455.59,-371.51 3685.97,-547 2088.24,-297.95 4137.81,-866.67 6081.29,-1687.02 768.61,-324.43 1556.71,-717.84 2027.66,-1406.6 470.97,-688.77 491.07,-1752.87 -168.02,-2264.28 -185.48,-143.87 -406.26,-232.91 -624.09,-320.47 -1662.72,-666.89 -3325.42,-1334.05 -4988.15,-2000.95 -517.98,-207.8 -1054.68,-428.15 -1431.24,-840.23 -376.57,-412.07 -540.56,-1075.32 -222.3,-1533.84 457.07,-658.4 1461.46,-474.56 2220.96,-218.05 698.77,236.08 1397.78,472.18 2096.55,708.01 228.03,77.07 502.73,146.79 689.78,-4.49 112.89,-91.33 159.24,-239.7 199.85,-379.06 155.02,-532.23 629.58,-1409.41 515.9,-1942.32 -112.56,-526.97 -823.85,-883.27 -1246.23,-1108.42l-0.75 -0.34z"/>
 </g>
</svg>
