<?xml version="1.0" encoding="UTF-8"?>
<!DOCTYPE svg PUBLIC "-//W3C//DTD SVG 1.1//EN" "http://www.w3.org/Graphics/SVG/1.1/DTD/svg11.dtd">
<!-- Creator: CorelDRAW -->
<svg xmlns="http://www.w3.org/2000/svg" xml:space="preserve" width="174.719mm" height="211.02mm" version="1.1" style="shape-rendering:geometricPrecision; text-rendering:geometricPrecision; image-rendering:optimizeQuality; fill-rule:evenodd; clip-rule:evenodd"
viewBox="0 0 15699.97 18961.99"
 xmlns:xlink="http://www.w3.org/1999/xlink"
 xmlns:xodm="http://www.corel.com/coreldraw/odm/2003">
 <defs>
  <style type="text/css">
   <![CDATA[
    .str0 {stroke:#1E804B;stroke-width:44.93;stroke-miterlimit:22.9256;stroke-dasharray:166.373250 190.140857}
    .fil0 {fill:none}
    .fil1 {fill:#C19516;fill-rule:nonzero}
   ]]>
  </style>
 </defs>
 <g id="Capa_x0020_1">
  <metadata id="CorelCorpID_0Corel-Layer"/>
  <g id="Capa_1-2" data-name="Capa 1">
   <path class="fil0 str0" d="M1215.12 2138.86c1102.8,-1188.61 2625.4,-1190.9 3607.29,-1192.53 2604.83,-4.07 4429.12,1519.02 6253.57,3042.43 1135.43,948.12 2448.37,2044.39 2214.56,2767.18 -272.31,841.26 -2213.25,1383.43 -3412.31,581.02 -1227.77,-821.68 -733.73,-2433.69 -2005.55,-3348.2 -972.11,-698.97 -2434.99,-601.57 -3412.32,168.22 -859.69,677.11 -1563.4,2047.64 -1169.85,2950.73 124.65,286.02 434.33,697.35 1935.89,1024.32 3195.8,695.7 4708.94,-533.04 5891.36,565.67 589.82,548.06 775.82,1376.42 961.01,2201.51 93.82,418.18 321.91,1629.14 0,2904.89 -710.07,2813.52 -3582,3904.73 -4651.84,4311.32 -1198.89,455.54 -2664.55,1012.56 -3774.37,137.54 -648.23,-511.02 -1244.42,-1565.02 -961.01,-2247.36 375.6,-904.55 1959.88,-345.73 4972.12,-1238.38 2619.68,-776.32 2998.7,-1666.19 3091.86,-1926.43 258.77,-721.65 164.14,-1739.44 -362.05,-2339.21 -783.17,-892.32 -2003.77,-267.74 -4373.32,-305.76 -1992.83,-31.98 -3825.43,-61.52 -4930.35,-1314.9 -1407.09,-1596.02 -1484.75,-5006.71 125.3,-6742.24l0.01 0.17z"/>
   <path class="fil1" d="M1522.03 1272.65c1291.73,-1268.4 3075.55,-1271.01 4225.82,-1272.64 3051.4,-4.4 5188.63,1621.15 7325.85,3246.87 1330.07,1011.75 2868.34,2181.77 2594.24,2953.19 -318.98,897.86 -2592.76,1476.26 -3997.41,620.01 -1438.25,-876.81 -859.69,-2597.33 -2349.49,-3573.19 -1138.85,-745.97 -2852.52,-641.87 -3997.41,179.47 -1007.18,722.63 -1831.46,2185.19 -1370.53,3148.98 146.02,305.11 508.73,744.33 2267.91,1093.17 3743.85,742.54 5516.41,-568.78 6901.64,603.69 690.98,584.93 908.79,1468.92 1125.8,2349.5 109.97,446.24 377.23,1738.62 0,3100.02 -831.79,3002.45 -4196.13,4167.25 -5449.52,4601.09 -1404.47,486.22 -3121.39,1080.6 -4421.61,146.85 -759.34,-545.28 -1457.83,-1670.1 -1125.8,-2398.44 440.04,-965.25 2295.81,-368.9 5824.79,-1321.6 3068.86,-828.35 3512.82,-1778.1 3622.13,-2055.8 303.16,-770.11 192.37,-1856.43 -424.21,-2496.34 -917.44,-952.37 -2347.37,-285.7 -5123.2,-326.32 -2334.64,-34.1 -4481.34,-65.59 -5775.84,-1403.18 -1648.39,-1703.21 -1739.44,-5343.13 146.85,-7195.31z"/>
  </g>
 </g>
</svg>
