<?xml version="1.0" encoding="UTF-8"?>
<!DOCTYPE svg PUBLIC "-//W3C//DTD SVG 1.1//EN" "http://www.w3.org/Graphics/SVG/1.1/DTD/svg11.dtd">
<!-- Creator: CorelDRAW -->
<svg xmlns="http://www.w3.org/2000/svg" xml:space="preserve" width="171.501mm" height="229.005mm" version="1.1" style="shape-rendering:geometricPrecision; text-rendering:geometricPrecision; image-rendering:optimizeQuality; fill-rule:evenodd; clip-rule:evenodd"
viewBox="0 0 16923.75 22598.22"
 xmlns:xlink="http://www.w3.org/1999/xlink"
 xmlns:xodm="http://www.corel.com/coreldraw/odm/2003">
 <defs>
  <style type="text/css">
   <![CDATA[
    .str0 {stroke:#1E804B;stroke-width:49.34;stroke-miterlimit:22.9256;stroke-dasharray:182.637151 208.728172}
    .fil0 {fill:none}
   ]]>
  </style>
 </defs>
 <g id="Capa_x0020_1">
  <metadata id="CorelCorpID_0Corel-Layer"/>
  <path class="fil0 str0" d="M1540.16 1537.95c1399.6,-1508.51 3332.02,-1511.62 4578.17,-1513.48 3305.93,-5.17 5621.2,1927.84 7936.68,3861.28 1441.02,1203.32 3107.34,2594.62 2810.61,3511.96 -345.62,1067.68 -2808.94,1755.77 -4330.74,737.39 -1558.23,-1042.82 -931.2,-3088.69 -2545.34,-4249.34 -1233.76,-887.09 -3090.37,-763.48 -4330.74,213.5 -1091.07,859.37 -1984.17,2598.77 -1484.7,3744.91 158.2,362.99 551.23,885.04 2456.93,1300 4055.95,882.95 5976.32,-676.49 7477,717.92 748.56,695.57 984.64,1746.88 1219.67,2794.04 119.08,530.73 408.57,2067.63 0,3686.73 -901.18,3570.78 -4546.08,4955.69 -5903.86,5471.69 -1521.58,578.17 -3381.72,1285.1 -4790.24,174.57 -822.71,-648.57 -1579.34,-1986.22 -1219.67,-2852.22 476.67,-1148 2487.37,-438.77 6310.34,-1571.69 3324.78,-985.25 3805.8,-2114.64 3924.04,-2444.9 328.43,-915.88 208.32,-2207.61 -459.48,-2968.81 -993.95,-1132.49 -2543.07,-339.8 -5550.38,-388.05 -2529.19,-40.57 -4855.04,-78.08 -6257.34,-1668.81 -1785.78,-2025.37 -1884.34,-6354.02 159.05,-8556.66l0.02 -0.03z"/>
 </g>
</svg>
