<?xml version="1.0" encoding="UTF-8"?>
<!DOCTYPE svg PUBLIC "-//W3C//DTD SVG 1.1//EN" "http://www.w3.org/Graphics/SVG/1.1/DTD/svg11.dtd">
<!-- Creator: CorelDRAW -->
<svg xmlns="http://www.w3.org/2000/svg" xml:space="preserve" width="164.099mm" height="201.299mm" version="1.1" style="shape-rendering:geometricPrecision; text-rendering:geometricPrecision; image-rendering:optimizeQuality; fill-rule:evenodd; clip-rule:evenodd"
viewBox="0 0 16420.55 20143"
 xmlns:xlink="http://www.w3.org/1999/xlink"
 xmlns:xodm="http://www.corel.com/coreldraw/odm/2003">
 <defs>
  <style type="text/css">
   <![CDATA[
    .str0 {stroke:#1E804B;stroke-width:75.05;stroke-miterlimit:22.9256;stroke-dasharray:185.270240 211.737417}
    .fil0 {fill:none}
    .fil1 {fill:#C19516;fill-rule:nonzero}
   ]]>
  </style>
 </defs>
 <g id="Capa_x0020_1">
  <metadata id="CorelCorpID_0Corel-Layer"/>
  <g id="Capa_1-2" data-name="Capa 1">
   <path class="fil0 str0" d="M1681.46 1902.16c1330.39,-1305.4 3167.49,-1307.99 4351.98,-1309.65 3142.67,-4.44 6855.75,174.02 9057.01,1846.91 1369.82,1041.21 1441.66,3739.55 1159.51,4533.41 -328.43,924.01 -2670.21,1519.22 -4116.86,637.97 -1481.27,-902.36 -1859.87,-1413.51 -3394.27,-2417.87 -1172.83,-767.76 -1963.17,-1919.86 -3142.3,-1074.53 -1037.13,743.68 -1886.16,2248.66 -1411.48,3240.61 150.33,313.98 523.94,765.91 2335.67,1124.88 3855.63,764.07 5681.26,-585.39 7107.72,621.31 711.66,601.88 935.86,1511.63 1159.5,2417.88 113.31,459.14 388.42,1789.14 0,3190.07 -856.62,3089.73 -4321.42,4288.29 -5612.37,4734.84 -1446.47,500.41 -3214.7,1111.92 -4553.79,151.07 -782.01,-561.14 -1501.26,-1718.62 -1159.5,-2468.23 453.21,-993.43 2364.36,-379.72 5998.76,-1360 3160.63,-852.55 3617.73,-1829.88 3730.29,-2115.54 312.32,-792.56 198.09,-1910.42 -436.92,-2568.94 -944.92,-979.93 -2417.5,-294 -5276.17,-335.84 -2404.35,-35.17 -4615.25,-67.57 -5948.4,-1444.06 -1697.14,-1752.5 -1791,-5498.16 151.62,-7404.31z"/>
   <path class="fil1" d="M1440.79 1309.73c1330.39,-1305.21 3167.49,-1307.8 4352.17,-1309.65 3142.67,-4.44 6855.75,174.03 9057.01,1846.91 1369.82,1041.21 1441.65,3739.56 1159.5,4533.41 -328.42,924.02 -2670.2,1519.23 -4116.85,637.97 -1481.27,-902.35 -1859.87,-1413.51 -3394.27,-2417.87 -1172.84,-767.76 -1963.17,-1919.86 -3142.31,-1074.53 -1037.12,743.69 -1886.15,2248.66 -1411.47,3240.61 150.33,313.99 523.93,765.91 2335.67,1124.89 3855.63,764.06 5681.26,-585.4 7107.72,621.31 711.66,601.87 935.86,1511.63 1159.5,2417.87 113.3,459.14 388.42,1789.15 0,3190.07 -856.63,3089.73 -4321.42,4288.29 -5612.38,4734.84 -1446.46,500.42 -3214.69,1111.93 -4553.78,151.07 -782.01,-561.14 -1501.26,-1718.62 -1159.5,-2468.22 453.2,-993.43 2364.35,-379.72 5998.75,-1360.01 3160.64,-852.55 3617.74,-1829.88 3730.3,-2115.53 312.32,-792.56 198.09,-1910.42 -436.92,-2568.95 -944.93,-979.93 -2417.5,-293.99 -5276.17,-335.83 -2404.35,-35.18 -4615.25,-67.57 -5948.4,-1444.06 -1697.33,-1752.5 -1791.19,-5498.16 151.43,-7404.32z"/>
  </g>
 </g>
</svg>
