<?xml version="1.0" encoding="UTF-8"?>
<!DOCTYPE svg PUBLIC "-//W3C//DTD SVG 1.1//EN" "http://www.w3.org/Graphics/SVG/1.1/DTD/svg11.dtd">
<!-- Creator: CorelDRAW -->
<svg xmlns="http://www.w3.org/2000/svg" xml:space="preserve" width="196.117mm" height="284.326mm" version="1.1" style="shape-rendering:geometricPrecision; text-rendering:geometricPrecision; image-rendering:optimizeQuality; fill-rule:evenodd; clip-rule:evenodd"
viewBox="0 0 19952.23 28926.21"
 xmlns:xlink="http://www.w3.org/1999/xlink"
 xmlns:xodm="http://www.corel.com/coreldraw/odm/2003">
 <defs>
  <style type="text/css">
   <![CDATA[
    .fil0 {fill:#C19516;fill-rule:nonzero}
   ]]>
  </style>
 </defs>
 <g id="Capa_x0020_1">
  <metadata id="CorelCorpID_0Corel-Layer"/>
  <g id="Capa_1-2" data-name="Capa 1">
   <g>
    <path class="fil0" d="M15598.58 2438.32l98.48 -234.5 24.85 10.29 -98.48 234.5 -24.85 -10.29zm-322.34 -132.52l96.08 -235.5 24.97 10.03 -96.08 235.5 -24.97 -10.03zm-323.88 -128.7l93.66 -236.48 25.07 9.78 -93.66 236.48 -25.07 -9.78zm-325.37 -124.84l91.22 -237.41 25.16 9.52 -91.22 237.41 -25.16 -9.52zm-326.86 -120.97l88.8 -238.35 25.26 9.27 -88.8 238.35 -25.26 -9.27zm-327.05 -116.64l83.91 -240.1 5.27 1.81 21.33 7.58 -86.35 239.22 -18.89 -6.7 -5.27 -1.81zm-329.79 -112.7l81.45 -240.95 25.54 8.48 -81.45 240.95 -25.54 -8.48zm-331.09 -108.81l78.99 -241.77 25.62 8.22 -78.99 241.77 -25.62 -8.22zm-332.35 -104.91l76.53 -242.56 25.7 7.97 -76.53 242.56 -25.7 -7.97zm-333.58 -100.99l74.06 -243.31 25.78 7.7 -74.06 243.31 -25.78 -7.7zm-334.73 -97.06l71.58 -244.07 25.86 7.44 -71.58 244.07 -25.86 -7.44zm-334.71 -92.38l66.6 -245.47 26 6.91 -66.6 245.47 -26 -6.91zm-337.07 -88.64l64.11 -246.12 26.07 6.64 -64.11 246.12 -26.07 -6.64zm-338.08 -84.68l61.61 -246.77 26.14 6.38 -61.61 246.77 -26.14 -6.38zm-339.05 -80.69l59.09 -247.38 26.2 6.11 -59.09 247.38 -26.2 -6.11zm-339.99 -76.7l56.59 -247.97 26.26 5.85 -56.59 247.97 -26.26 -5.85zm-339.64 -72.27l51.54 -249.07 17.41 3.51 10.21 2.18 -54.06 248.52 -7.69 -1.63 -17.41 -3.51zm-341.79 -68.15l49 -249.58 26.43 5.05 -49 249.58 -26.43 -5.05zm-342.56 -64.13l46.45 -250.07 26.47 4.78 -46.45 250.07 -26.47 -4.78zm-343.31 -60.11l43.91 -250.52 26.52 4.51 -43.91 250.52 -26.52 -4.51zm-343.99 -56.05l41.37 -250.96 26.57 4.24 -41.37 250.96 -26.57 -4.24zm-344.62 -52l38.8 -251.37 26.61 3.97 -38.8 251.37 -26.61 -3.97zm-343.99 -47.22l33.67 -252.1 26.69 3.42 -33.67 252.1 -26.69 -3.42zm-345.81 -43.31l31.09 -252.43 26.72 3.14 -31.09 252.43 -26.72 -3.14zm-346.3 -39.21l28.51 -252.73 26.75 2.88 -28.51 252.73 -26.75 -2.88zm-346.75 -35.1l25.92 -253.02 26.78 2.6 -25.92 253.02 -26.78 -2.6zm-347.13 -30.99l23.32 -253.26 26.81 2.33 -23.32 253.26 -26.81 -2.33zm-346.19 -26.55l18.11 -253.69 26.84 1.87 -18.11 253.69 -26.84 -1.87zm-344.49 -17.81l8.42 -254.2 26.9 0.77 -8.42 254.2 -26.9 -0.77zm-339.55 4.03l-11.84 -254.06 26.87 -1.44 11.84 254.06 -26.87 1.44zm-331.14 40.49l-43.54 -250.58 26.46 -4.88 43.54 250.58 -26.46 4.88zm-310.58 90.58l-93.21 -236.66 8.9 -3.65 19.6 -7.39 86.35 239.22 -12.75 4.82 -8.9 3.65zm-285.85 153.31l-137.22 -214.15 22.27 -15.09 137.22 214.15 -22.27 15.09zm-246.97 210.27l-176.21 -183.41 18.97 -19.08 176.21 183.41 -18.97 19.08zm-202.54 252.17l-209.78 -143.81 5.37 -8.15 12.67 -17.77 204.35 151.42 -7.23 10.16 -5.37 8.15zm-167.7 288.17l-226.3 -116.08 11.28 -22.78 2.42 -4.55 222.86 122.55 1.02 -1.92 -11.28 22.78zm-135.76 308.8l-236.5 -93.6 9.63 -25.12 236.5 93.6 -9.63 25.12zm-110.98 322.08l-242.58 -76.49 7.89 -25.72 242.58 76.49 -7.89 25.72zm-92.91 330.69l-246.06 -64.4 6.68 -26.06 246.06 64.4 -6.68 26.06zm-80.98 336.39l-247.87 -57.01 5.96 -26.24 247.87 57.01 -5.96 26.24zm-74.47 339.92l-248.66 -53.43 5.58 -26.32 248.66 53.43 -5.58 26.32zm-66.82 340.39l-249.82 -47.69 4.91 -26.45 249.82 47.69 -4.91 26.45zm-54.6 339.36l-251.82 -35.71 2.25 -16.75 1.74 -11.65 251.31 39.19 -1.23 8.17 -2.25 16.75zm-38.63 341.25l-253.28 -23.13 2.19 -26.82 253.28 23.13 -2.19 26.82zm-17.45 341.23l-254.24 -7.06 0.43 -26.9 254.24 7.06 -0.43 26.9zm9.52 339.61l-254.01 12.86 -1.75 -26.85 254.01 -12.86 1.75 26.85zm42.69 330.28l-250.17 45.84 -2.75 -13.62 -2.86 -17.32 251.65 -36.89 1.37 8.36 2.75 13.62zm83.72 323.83l-243.01 75.08 -8.48 -25.54 243.01 -75.08 8.48 25.54zm128.79 306.34l-230.7 107.07 -11.9 -24.13 230.7 -107.07 11.9 24.13zm160.23 258.48l-205.14 150.35 -0.02 -0.02 -7.45 -10.73 212.49 -139.77 0.14 0.19 -0.02 -0.02zm12.21 16.17l-205.14 150.35 -12.21 -16.17 205.14 -150.35 12.21 16.17zm218.31 246.26l-178.57 181.13 -17.21 -16.56 -4.35 -4.42 183.02 -176.59 -0.1 -0.12 17.21 16.56zm254.68 213.93l-152.91 203.25 -21.66 -15.96 152.91 -203.25 21.66 15.96zm281.12 184.54l-130.69 218.18 -23.19 -13.65 130.69 -218.18 23.19 13.65zm299.5 160.32l-113.11 227.81 -24.16 -11.83 113.11 -227.81 24.16 11.83zm312 141.96l-100.41 233.69 -24.71 -10.51 -0.93 -0.41 102.16 -232.91 -0.82 -0.37 24.71 10.51zm321.03 129.95l-94 236.33 -25.07 -9.77 94 -236.33 25.07 9.77zm324.74 120.77l-87.78 238.71 -25.31 -9.13 87.78 -238.71 25.31 9.13zm326.79 111.91l-79.48 241.6 -1.31 -0.42 -25.52 -8.55 82.08 -240.73 22.91 7.67 1.31 0.42zm331.14 104.7l-74.67 243.13 -25.76 -7.77 74.67 -243.13 25.76 7.77zm333.45 98.25l-70.48 244.37 -25.88 -7.36 70.48 -244.37 25.88 7.36zm335.38 92.77l-66.94 245.37 -25.98 -6.99 66.94 -245.37 25.98 6.99zm336.91 88.32l-64.01 246.16 -26.05 -6.7 64.01 -246.16 26.05 6.7zm338.16 84.89l-61.73 246.73 -26.12 -6.48 61.73 -246.73 26.12 6.48zm338.81 82.35l-59.52 247.28 -20.47 -4.9 -5.98 -1.45 60.09 -247.14 5.41 1.31 20.47 4.9zm339.93 81.1l-58.84 247.44 -26.18 -6.21 58.84 -247.44 26.18 6.21zm340.34 80.83l-58.8 247.44 -26.18 -6.23 58.8 -247.44 26.18 6.23zm340.48 81.56l-59.39 247.3 -26.16 -6.31 59.39 -247.3 26.16 6.31zm340.42 83.32l-60.66 247 -26.12 -6.45 60.66 -247 26.12 6.45zm340.63 86.32l-63.71 246.22 -6.75 -1.76 -18.74 -4.79 62.55 -246.53 19.9 5.1 6.75 1.76zm339.49 90.23l-66.54 245.49 -25.94 -7.15 66.54 -245.49 25.94 7.15zm341.39 102.75l-79.44 241.62 -11.09 -3.72 -12.96 -4.17 76.38 -242.6 16.01 5.15 11.09 3.72zm335.38 123.99l-94.17 236.27 -24.91 -10.18 94.17 -236.27 24.91 10.18zm328.41 155.17l-118.81 224.88 -23.63 -12.87 118.81 -224.88 23.63 12.87zm311.43 196.71l-150.75 204.86 -8.86 -6.77 -9.37 -6.66 143.79 -209.78 16.33 11.59 8.86 6.77zm278.38 250.53l-188.25 171.02 -2.75 -3.16 -11.8 -12.41 180.56 -179.14 19.49 20.53 2.75 3.16zm219.48 310.81l-224.57 119.42 -0.64 -1.29 -9.24 -16.29 217.94 -131.14 15.87 28.01 0.64 1.29zm132.85 358.52l-247.97 56.57 -0.8 -3.82 -4.49 -18.3 245.98 -64.66 6.48 26.4 0.8 3.82zm37.97 376.5l-254.34 -1.85 0.13 -7.11 -0.09 -16.53 254.3 -4.68 0.13 23.06 -0.13 7.11zm-37.55 369.36l-250.25 -45.42 1.13 -5.93 3.14 -18.25 251.04 40.8 -3.94 22.87 -1.13 5.93zm-88.27 354l-243.05 -74.98 0.14 -0.47 7.19 -23.78 243.94 71.95 -8.09 26.81 -0.14 0.47zm-119.46 335.79l-238.75 -87.66 9.68 -25.1 238.75 87.66 -9.68 25.1zm-139.98 329.33l-232.69 -102.69 11.24 -24.44 232.69 102.69 -11.24 24.44zm-158.01 320.73l-225.98 -116.73 12.71 -23.71 225.98 116.73 -12.71 23.71zm-174.77 311.46l-218.83 -129.63 12.25 -20.03 -0.09 0.18 222.44 123.32 -3.51 6.12 -12.25 20.03zm-188.56 298.8l-215.15 -135.66 14.66 -22.57 215.15 135.66 -14.66 22.57zm-204.88 291.75l-207.68 -146.83 15.81 -21.77 207.68 146.83 -15.81 21.77zm-217.47 281.91l-200.2 -156.88 16.85 -20.98 200.2 156.88 -16.85 20.98zm-228.74 272.24l-192.83 -165.85 17.76 -20.2 192.83 165.85 -17.76 20.2zm-238.82 262.86l-185.69 -173.83 18.58 -19.45 185.69 173.83 -18.58 19.45zm-247.78 253.84l-178.83 -180.87 0.51 -0.49 16.78 -16.89 182.21 177.45 -20.15 20.31 -0.51 0.49zm-254.54 243.27l-175.54 -184.06 19.64 -18.39 175.54 184.06 -19.64 18.39zm-263.18 236.88l-169.23 -189.86 20.23 -17.74 169.23 189.86 -20.23 17.74zm-269.29 229.3l-163.35 -194.95 20.74 -17.13 163.35 194.95 -20.74 17.13zm-274.67 222.23l-157.91 -199.38 21.2 -16.56 157.91 199.38 -21.2 16.56zm-278.29 214.61l-155.37 -201.38 21.41 -16.3 155.37 201.38 -21.41 16.3zm-283.94 209.39l-150.61 -204.96 21.77 -15.81 150.61 204.96 -21.77 15.81zm-287.47 203.9l-146.34 -208.03 22.08 -15.37 146.34 208.03 -22.08 15.37zm-290.56 198.92l-142.53 -210.65 22.34 -14.99 142.53 210.65 -22.34 14.99zm-292.96 194.48l-139.52 -212.67 14.16 -9.24 7.71 -5.09 140.78 211.81 -8.97 5.94 -14.16 9.24zm-294.07 190.7l-138.38 -213.4 22.61 -14.59 138.38 213.4 -22.61 14.59zm-295.79 188.69l-136.65 -214.52 22.72 -14.42 136.65 214.52 -22.72 14.42zm-296.33 187.07l-135.59 -215.17 22.77 -14.32 135.59 215.17 -22.77 14.32zm-296.4 186.21l-135.25 -215.4 22.79 -14.3 135.25 215.4 -22.79 14.3zm-295.99 186.07l-135.59 -215.17 10.5 -6.62 12.4 -7.81 135.33 215.36 -12.14 7.63 -10.5 6.62zm-295.37 186.94l-136.02 -214.91 22.72 -14.42 136.02 214.91 -22.72 14.42zm-293.81 188.32l-137.43 -214.01 22.61 -14.58 137.43 214.01 -22.61 14.58zm-291.91 190.52l-139.5 -212.67 22.45 -14.82 139.5 212.67 -22.45 14.82zm-289.5 193.39l-142.27 -210.84 22.25 -15.13 142.27 210.84 -22.25 15.13zm-286.56 197l-145.69 -208.48 8.15 -5.75 14.82 -10.26 143.9 209.72 -13.03 9.01 -8.15 5.75zm-283.92 202.31l-147.64 -207.09 21.83 -15.73 147.64 207.09 -21.83 15.73zm-278.74 206.82l-152.03 -203.9 21.48 -16.21 152.03 203.9 -21.48 16.21zm-273.88 212.54l-157.02 -200.09 21.06 -16.75 157.02 200.09 -21.06 16.75zm-268.29 218.84l-162.57 -195.6 20.56 -17.35 162.57 195.6 -20.56 17.35zm-262.02 225.71l-168.62 -190.41 12.73 -11.47 8.92 -7.76 165.52 193.1 -5.83 5.08 -12.73 11.47zm-256.35 234.84l-171.81 -187.54 19.69 -18.34 171.81 187.54 -19.69 18.34zm-246.67 241.5l-178.47 -181.21 18.99 -19.06 178.47 181.21 -18.99 19.06zm-237.29 249.19l-186.38 -173.05 18.05 -19.95 186.38 173.05 -18.05 19.95zm-229.56 259.66l-190.71 -168.29 17.55 -20.4 190.71 168.29 -17.55 20.4zm-218.3 265.09l-198.89 -158.53 16.5 -21.24 198.89 158.53 -16.5 21.24zm-209.96 275.83l-202.76 -153.54 15.97 -21.65 202.76 153.54 -15.97 21.65zm-198.99 280.06l-210.06 -143.41 4.08 -6.13 13.01 -18.55 206.48 148.49 -9.43 13.46 -4.08 6.13zm-189.6 290.25l-213.48 -138.24 14.34 -22.76 213.48 138.24 -14.34 22.76zm-180.25 296.18l-216.78 -133.03 13.8 -23.1 216.78 133.03 -13.8 23.1zm-167.27 300.2l-222.94 -122.43 12.67 -23.74 222.94 122.43 -12.67 23.74zm-158.91 308.19l-225.81 -117.04 12.1 -24.04 225.81 117.04 -12.1 24.04zm-146.27 311.03l-231.14 -106.11 10.93 -24.58 231.14 106.11 -10.93 24.58zm-136.94 318.59l-233.61 -100.58 10.35 -24.83 233.61 100.58 -10.35 24.83zm-124.66 320.33l-238.14 -89.32 9.15 -25.3 238.14 89.32 -9.15 25.3zm-114.3 327.38l-240.2 -83.61 8.54 -25.52 240.2 83.61 -8.54 25.52zm-102.44 328.1l-243.92 -72.05 7.3 -25.89 243.92 72.05 -7.3 25.89zm-91.03 334.58l-245.59 -66.17 6.68 -26.06 245.59 66.17 -6.68 26.06zm-79.58 334.32l-248.48 -54.25 1.25 -6.1 5.35 -23.14 247.1 60.25 -3.97 17.14 -1.25 6.1zm-67.1 340.17l-249.72 -48.22 4.77 -26.47 249.72 48.22 -4.77 26.47zm-56.18 342.12l-250.82 -42.12 4.13 -26.58 250.82 42.12 -4.13 26.58zm-42.38 340.92l-252.59 -29.75 2.81 -26.76 252.59 29.75 -2.81 26.76zm-31.24 345.22l-253.26 -23.46 2.15 -26.82 253.26 23.46 -2.15 26.82zm-17.91 342.95l-254.12 -10.76 0.79 -26.89 254.12 10.76 -0.79 26.89zm-5.7 346.53l-254.3 -4.33 0.11 -26.91 254.3 4.33 -0.11 26.91zm8.56 340.96l-254.01 13.06 -1.1 -19.22 -0.42 -9.15 254.14 -10.07 0.3 6.16 1.1 19.22zm30.61 339.35l-252.45 30.99 -3.49 -26.68 252.45 -30.99 3.49 26.68zm59.13 332.56l-248.44 54.45 -6.04 -26.22 248.44 -54.45 6.04 26.22zm95.5 320.32l-240.1 83.93 -9.23 -25.28 240.1 -83.93 9.23 25.28zm137.94 295.32l-220.58 126.6 -1.92 -3.23 -13.27 -24.05 224.76 -119.05 9.1 16.5 1.92 3.23zm189.49 264.74l-193.32 165.28 -16.06 -18.05 -4.9 -5.98 199.65 -157.57 -1.42 -1.73 16.06 18.05zm236.7 217.44l-152.89 203.27 -6.65 -4.86 -17.43 -13.48 158.2 -199.14 12.12 9.35 6.65 4.86zm280.28 171.05l-117.34 225.65 -24.01 -12.16 117.34 -225.65 24.01 12.16zm305.63 126.55l-82.87 240.46 -9.03 -3.03 -18.3 -6.48 86.72 -239.1 14.46 5.12 9.03 3.03zm324.64 91.61l-59.17 247.36 -26.21 -6.1 59.17 -247.36 26.21 6.1zm336.92 64.24l-45.94 250.15 -26.53 -4.48 45.94 -250.15 26.53 4.48zm336.41 42.64l-24.8 253.12 -5.75 -0.48 -24.46 -2.73 31.68 -252.37 17.58 1.97 5.75 0.48zm342.38 23.16l-11.64 254.08 -26.89 -0.89 11.64 -254.08 26.89 0.89zm343.58 4.86l0.65 254.34 -26.9 0.38 -0.65 -254.34 26.9 -0.38zm343.91 -12.05l11.96 254.06 -26.86 1.55 -11.96 -254.06 26.86 -1.55zm343.53 -27.41l22.26 253.36 -26.78 2.61 -22.26 -253.36 26.78 -2.61zm342.66 -41.18l31.56 252.37 -26.67 3.57 -31.56 -252.37 26.67 -3.57zm341.49 -53.4l39.82 251.21 -26.54 4.42 -39.82 -251.21 26.54 -4.42zm338.46 -63.93l50.38 249.29 -13.02 2.72 -15 2.94 -47.1 -249.95 11.72 -2.29 13.02 -2.72zm338.93 -73.47l56.24 248.05 -26.21 6.08 -56.24 -248.05 26.21 -6.08zm337.65 -81.21l61.16 246.87 -26.09 6.58 -61.16 -246.87 26.09 -6.58zm336.51 -87.57l65.23 245.84 -25.98 6.99 -65.23 -245.84 25.98 -6.99zm335.61 -92.63l68.43 244.96 -25.89 7.3 -68.43 -244.96 25.89 -7.3zm334.99 -96.44l70.79 244.29 -25.83 7.54 -70.79 -244.29 25.83 -7.54zm334.7 -98.98l72.31 243.84 -25.79 7.68 -72.31 -243.84 25.79 -7.68zm334.73 -100.25l73.07 243.62 -25.77 7.72 -73.07 -243.62 25.77 -7.72zm334.97 -100.59l73.23 243.58 -13.98 4.2 -11.82 3.56 -73.17 -243.6 11.76 -3.54 13.98 -4.2zm334.84 -100.88l73.43 243.52 -25.76 7.77 -73.43 -243.52 25.76 -7.77zm334.57 -101.39l73.86 243.37 -25.75 7.82 -73.86 -243.37 25.75 -7.82zm334.22 -102.15l74.49 243.19 -25.72 7.89 -74.49 -243.19 25.72 -7.89zm333.85 -103.09l75.28 242.95 -25.7 7.98 -75.28 -242.95 25.7 -7.98zm333.39 -104.26l76.24 242.64 -25.66 8.08 -76.24 -242.64 25.66 -8.08zm332.86 -105.66l77.38 242.27 -25.63 8.21 -77.38 -242.27 25.63 -8.21zm332.24 -107.26l78.7 241.85 -21.57 7.04 -4.23 1.38 -78.26 -242.01 3.78 -1.22 21.57 -7.04zm331.57 -109.07l80.19 241.36 -6.11 2.03 -19.7 6.53 -79.66 -241.54 19.17 -6.35 6.11 -2.03zm331.06 -111.23l81.27 241.01 -25.48 8.63 -81.27 -241.01 25.48 -8.63zm329.63 -113.29l83.67 240.18 -7.55 2.63 -18.17 6.31 -83.06 -240.4 17.56 -6.08 7.55 -2.63zm327.62 -116.81l87.43 238.84 -4.77 1.76 -21.09 7.67 -86.29 -239.26 19.95 -7.24 4.77 -1.76zm324.04 -123l93.41 236.56 -1.36 0.54 -24.55 9.59 -91.71 -237.23 22.84 -8.92 1.36 -0.54zm320.22 -132.63l99.36 234.14 -24.72 10.63 -99.36 -234.14 24.72 -10.63zm312.71 -144.28l109.2 229.7 -24.23 11.69 -109.2 -229.7 24.23 -11.69zm303.99 -159.07l121.13 223.66 -23.57 12.98 -121.13 -223.66 23.57 -12.98zm292.68 -176.41l134.98 215.58 -22.68 14.48 -134.98 -215.58 22.68 -14.48zm278.36 -195.93l150.43 205.08 -21.54 16.13 -150.43 -205.08 21.54 -16.13zm260.53 -217.11l166.97 191.87 -20.07 17.93 -166.97 -191.87 20.07 -17.93zm236.14 -239.68l185.95 173.52 -18.1 19.91 -185.95 -173.52 18.1 -19.91zm210.15 -262.54l203.15 153.03 -15.9 21.7 -203.15 -153.03 15.9 -21.7zm180.71 -282.88l218.69 129.84 -13.41 23.33 -218.69 -129.84 13.41 -23.33zm146.89 -300.65l232.47 103.2 -10.53 24.76 -232.47 -103.2 10.53 -24.76zm107.83 -315.24l243.8 72.48 -7.23 25.91 -243.8 -72.48 7.23 -25.91zm62.85 -325.44l251.59 37.26 -3.45 26.69 -251.59 -37.26 3.45 -26.69zm12.18 -329.42l254.34 -2.24 0.77 26.9 -254.34 2.24 -0.77 -26.9zm-42.61 -325.27l250.37 -44.7 5.39 26.36 -250.37 44.7 -5.39 -26.36zm-96.03 -310l236.92 -92.5 8.85 21.19 3.43 9.41 -241.07 81.08 0.72 2 -8.85 -21.19zm-149.03 -296.61l222.01 -124.1 13.64 23.2 -222.01 124.1 -13.64 -23.2zm-190.43 -267.19l198.1 -159.52 17.28 20.61 -198.1 159.52 -17.28 -20.61zm-230.05 -243.37l178.42 -181.25 19.51 18.52 -178.42 181.25 -19.51 -18.52zm-256.37 -210.38l151.12 -204.59 18.2 12.97 7.07 5.43 -158.02 199.28 -0.17 -0.12 -18.2 -12.97zm-283.5 -182.19l130.1 -218.55 23.34 13.39 -130.1 218.55 -23.34 -13.39zm-298.46 -148.87l101.41 -233.26 4.04 1.68 24.15 10.96 -108.67 229.96 -16.89 -7.66 -4.04 -1.68zm-316.75 -117.15l79.11 -241.73 25.7 7.97 -79.11 241.73 -25.7 -7.97zm-327.24 -82.81l55.83 -248.13 26.34 5.48 -55.83 248.13 -26.34 -5.48zm-332.34 -49.13l28.73 -252.71 26.77 2.71 -28.73 252.71 -26.77 -2.71zm-340.1 -21.78l10.95 -254.1 26.89 0.85 -10.95 254.1 -26.89 -0.85zm-339.08 4.15l-10.32 -254.14 26.87 -1.34 10.32 254.14 -26.87 1.34zm-341.72 26.85l-24.25 -253.18 26.76 -2.79 24.25 253.18 -26.76 2.79zm-338.61 46.38l-40.15 -251.15 22.48 -3.75 5.91 -0.91 36.46 251.72 -2.23 0.34 -22.48 3.75zm-338.84 63.38l-50.12 -249.36 26.34 -5.46 50.12 249.36 -26.34 5.46zm-335.58 76.84l-60.94 -246.93 8.75 -2.2 18.61 -4.5 58.5 247.52 -16.17 3.91 -8.75 2.2zm-335 88.5l-67.35 -245.27 25.92 -7.22 67.35 245.27 -25.92 7.22zm-333.38 97.05l-72.33 -243.84 25.77 -7.72 72.33 243.84 -25.77 7.72zm-332.01 103.1l-76.49 -242.56 25.65 -8.12 76.49 242.56 -25.65 8.12zm-332.69 106.24l-77.6 -242.21 25.63 -8.22 77.6 242.21 -25.63 8.22zm-333.66 106.46l-76.79 -242.48 25.66 -8.09 76.79 242.48 -25.66 8.09zm-335.33 103.93l-74.41 -243.21 25.75 -7.81 74.41 243.21 -25.75 7.81zm-338.59 98.86l-68.83 -244.84 16.08 -4.46 8.99 -2.57 70.5 244.37 -10.66 3.04 -16.08 4.46zm-341.13 90.39l-62.83 -246.45 26.11 -6.52 62.83 246.45 -26.11 6.52zm-346.16 79.65l-52.31 -248.91 7.74 -1.58 17.12 -3.71 55.22 248.28 -20.03 4.34 -7.74 1.58zm-348.82 64.76l-42.49 -250.76 26.55 -4.3 42.49 250.76 -26.55 4.3zm-354.49 47.82l-26.8 -252.92 0.87 -0.08 23.77 -2.74 30.99 252.45 -27.96 3.2 -0.87 0.08zm-357.06 24.99l-10.4 -254.14 26.9 -0.7 10.4 254.14 -26.9 0.7zm-364.16 -10.66l18.98 -253.63 26.8 2.39 -18.98 253.63 -26.8 -2.39zm-357.54 -48.66l41.22 -250.98 26.48 4.76 -41.22 250.98 -26.48 -4.76zm-354.5 -90.15l72.76 -243.72 25.65 8.13 -72.76 243.72 -25.65 -8.13zm-342.27 -135.96l107.9 -230.31 24.12 11.9 -107.9 230.31 -24.12 -11.9zm-319.95 -190.1l147.35 -207.3 15.63 11.71 1.02 0.68 -137.14 214.2 -11.23 -7.58 -15.63 -11.71zm-279.41 -253.21l189.23 -169.96 13.16 15.59 -0.72 -0.76 -178.81 180.89 -9.7 -10.16 -13.16 -15.59zm-211.48 -317.99l226.77 -115.17 11.24 24.16 -4.08 -7.42 -218.35 130.45 -4.34 -7.86 -11.24 -24.16zm-114.18 -344.52l249.88 -47.41 0 -0.01 -0.82 -3.65 -245.94 64.87 -3.12 -13.79 0 -0.01zm-3.59 -21.42l249.88 -47.41 3.59 21.42 -249.88 47.41 -3.59 -21.42zm-14.25 -383.93l253.26 23.34 -0.25 2.35 -1.47 19.77 -253.95 -13.92 2.16 -29.19 0.25 -2.35zm76.39 -366.36l243.74 72.66 -8.07 25.67 -243.74 -72.66 8.07 -25.67zm143.01 -343.7l226.81 115.08 -4.51 8.65 -6.32 12.81 -229.37 -109.92 8.88 -17.98 4.51 -8.65zm187.01 -313.06l211.59 141.15 -15.13 22.25 -211.59 -141.15 15.13 -22.25zm218.98 -287.91l197.25 160.56 -17.25 20.64 -197.25 -160.56 17.25 -20.64zm239.79 -267.63l184.57 174.99 -18.75 19.3 -184.57 -174.99 18.75 -19.3zm257.41 -249.97l171.63 187.7 -15.26 13.63 -2.54 2.38 -175.94 -183.65 6.86 -6.43 15.26 -13.63zm272.8 -232.22l158.73 198.73 -2.29 1.79 -16.45 13.43 -163 -195.23 20.72 -16.93 2.29 -1.79zm284.13 -212.99l150.26 205.2 -21.87 15.68 -150.26 -205.2 21.87 -15.68zm297.54 -197.75l137.91 213.71 -22.74 14.38 -137.91 -213.71 22.74 -14.38zm307.02 -181.57l126.09 220.89 -23.48 13.13 -126.09 -220.89 23.48 -13.13zm314.97 -166.25l114.88 226.91 -24.1 11.95 -114.88 -226.91 24.1 -11.95zm321.6 -151.82l104.34 231.96 -23.31 10.28 0.42 -0.19 -107.78 -230.37 3.02 -1.39 23.31 -10.28zm327.14 -138.29l94.45 236.15 -2.84 1.11 -20.49 8.36 -97.67 -234.85 23.7 -9.66 2.84 -1.11zm330.31 -124.87l88.25 238.55 -25.3 9.17 -88.25 -238.55 25.3 -9.17zm335.73 -113.67l79.46 241.6 -25.61 8.25 -79.46 -241.6 25.61 -8.25zm338.51 -102.97l71.79 244 -25.85 7.47 -71.79 -244 25.85 -7.47zm340.51 -93.79l65.27 245.82 -26.03 6.8 -65.27 -245.82 26.03 -6.8zm342.03 -85.92l59.78 247.22 -23.2 5.52 -2.13 0.52 -61.49 -246.79 3.84 -0.95 23.2 -5.52zm343.05 -79.32l55.3 248.26 -3.96 0.86 -21.6 4.88 -56.69 -247.95 22.98 -5.19 3.96 -0.86zm343.17 -73.9l52.92 248.77 -26.33 5.54 -52.92 -248.77 26.33 -5.54zm344.13 -70.13l50.22 249.34 -26.39 5.27 -50.22 -249.34 26.39 -5.27zm344.06 -67.55l48.61 249.66 -26.41 5.12 -48.61 -249.66 26.41 -5.12zm343.76 -66.27l48.1 249.74 -26.42 5.09 -48.1 -249.74 26.42 -5.09zm343.25 -66.31l48.55 249.66 -25.38 4.95 -1.21 0.24 -48.18 -249.74 0.84 -0.16 25.38 -4.95zm342.4 -67.61l50.12 249.36 -5.31 1.07 -21.4 4.27 -49.46 -249.48 20.74 -4.15 5.31 -1.07zm341.79 -70.41l51.78 249.01 -26.33 5.52 -51.78 -249.01 26.33 -5.52zm339.72 -74.14l55.89 248.11 -2.25 0.51 -25.03 5.53 -53.88 -248.56 23.01 -5.09 2.25 -0.51zm339.7 -79.15l57.89 247.67 -26.18 6.23 -57.89 -247.67 26.18 -6.23zm337.62 -83.32l61.9 246.69 -26.06 6.65 -61.9 -246.69 26.06 -6.65zm336.53 -87.7l65.86 245.67 -5.05 1.37 -21.95 5.79 -63.87 -246.18 19.96 -5.28 5.05 -1.37zm336.22 -92.79l67.84 245.12 -25.9 7.27 -67.84 -245.12 25.9 -7.27zm333.99 -96.92l71.79 244 -25.78 7.69 -71.79 -244 25.78 -7.69zm332.72 -101.22l75.69 242.82 -7.75 2.45 -18.92 5.81 -73.74 -243.41 16.97 -5.22 7.75 -2.45zm332.21 -106.26l77.65 242.19 -25.59 8.31 -77.65 -242.19 25.59 -8.31zm329.82 -110.3l81.53 240.91 -25.45 8.72 -81.53 -240.91 25.45 -8.72zm328.37 -114.55l85.38 239.59 -10.37 3.73 -15.94 5.62 -83.46 -240.26 14.03 -4.94 10.37 -3.73zm327.65 -119.55l87.31 238.9 -25.23 9.33 -87.31 -238.9 25.23 -9.33zm325.11 -123.49l91.14 237.45 -25.08 9.74 -91.14 -237.45 25.08 -9.74zm323.5 -127.68l94.94 235.97 -12.87 5.23 -13.05 5.19 -93.03 -236.72 11.14 -4.44 12.87 -5.23zm322.59 -132.63l96.83 235.19 -24.83 10.34 -96.83 -235.19 24.83 -10.34zm319.87 -136.5l100.6 233.61 -24.67 10.73 -100.6 -233.61 24.67 -10.73zm318.08 -140.62l104.34 231.96 -15.26 6.94 -10.2 4.55 -102.47 -232.79 8.33 -3.71 15.26 -6.94zm316.98 -145.51l106.21 231.1 -24.41 11.33 -106.21 -231.1 24.41 -11.33zm314.09 -149.3l109.92 229.35 -24.21 11.72 -109.92 -229.35 24.21 -11.72zm312.12 -153.37l113.62 227.56 -17.53 8.84 -7.45 3.67 -111.77 -228.46 5.6 -2.78 17.53 -8.84zm310.28 -158.02l116.51 226.1 -23.89 12.38 -116.51 -226.1 23.89 -12.38zm303.97 -164.05l124.24 221.93 -8.44 4.77 -15.99 8.87 -122.35 -222.99 14.1 -7.81 8.44 -4.77zm296.81 -174.86l133.4 216.54 -20.81 12.99 -3.3 2.01 -130.87 -218.08 0.77 -0.47 20.81 -12.99zm285.85 -189.05l145.2 208.82 -21.96 15.54 -145.2 -208.82 21.96 -15.54zm270.9 -206.83l159.44 198.16 -20.79 17.07 -159.44 -198.16 20.79 -17.07zm250.86 -227.77l175.76 183.84 -19.23 18.82 -175.76 -183.84 19.23 -18.82zm221.92 -248.63l197.92 159.75 -12.77 16.28 -6.23 7.49 -193.42 -165.16 1.73 -2.08 12.77 -16.28zm191.02 -274.44l215.54 135.02 -13.93 23.02 -215.54 -135.02 13.93 -23.02zm145.43 -295.39l234.12 99.4 -10 24.98 -234.12 -99.4 10 -24.98zm93.64 -315.64l246.89 61.08 -5.95 26.24 -246.89 -61.08 5.95 -26.24zm41.19 -322.08l254.06 12.11 -0.05 1.95 -2.02 29.9 -253.38 -22.1 1.35 -19.91 0.05 -1.95zm-12.85 -328.31l252.63 -29.5 2.52 18.26 1.31 13.78 -253.65 18.82 -0.3 -3.09 -2.52 -18.26zm-71.99 -318.27l243.23 -74.33 8.47 25.54 -243.23 74.33 -8.47 -25.54zm-135.85 -293.15l223.09 -122.14 13.55 23.25 -223.09 122.14 -13.55 -23.25zm-196.5 -242.01l178.4 -181.27 16.03 14.82 8.89 9.32 -189.19 169.98 1.89 1.97 -16.03 -14.82zm-254.96 -184.39l123.75 -222.19 10.18 5.58 14.95 8.46 -127.01 220.36 -11.69 -6.63 -10.18 -5.58zm-301.78 -131.85l87.13 -238.96 11.93 4.3 14.15 5.22 -88.73 238.37 -12.54 -4.63 -11.93 -4.3zm-327.3 -108.22l77.52 -242.23 25.63 8.2 -77.52 242.23 -25.63 -8.2zm-333.18 -106.63l77.52 -242.23 25.63 8.2 -77.52 242.23 -25.63 -8.2zm-333.17 -106.63l77.52 -242.23 25.63 8.2 -77.52 242.23 -25.63 -8.2zm-333.18 -106.64l77.52 -242.23 25.63 8.2 -77.52 242.23 -25.63 -8.2zm-333.17 -106.64l77.52 -242.23 25.63 8.2 -77.52 242.23 -25.63 -8.2zm-333.17 -106.63l77.52 -242.23 25.63 8.2 -77.52 242.23 -25.63 -8.2zm-333.19 -106.64l77.54 -242.23 25.63 8.2 -77.54 242.23 -25.63 -8.2zm-333.17 -106.65l77.54 -242.23 25.63 8.2 -77.54 242.23 -25.63 -8.2zm-333.17 -106.65l77.54 -242.23 25.63 8.2 -77.54 242.23 -25.63 -8.2zm-333.17 -106.64l77.54 -242.23 25.63 8.2 -77.54 242.23 -25.63 -8.2zm-333.18 -106.65l77.54 -242.23 24.02 7.68 1.62 0.52 -77.54 242.23 -1.62 -0.52 -24.02 -7.68zm-333.16 -106.64l77.52 -242.23 18.58 5.94 7.06 2.26 -77.54 242.23 -7.04 -2.26 -18.58 -5.94zm-333.17 -106.64l77.52 -242.23 13.13 4.2 12.49 4 -77.52 242.23 -12.49 -4 -13.13 -4.2zm-333.18 -106.64l77.52 -242.23 7.7 2.46 17.93 5.74 -77.52 242.23 -17.93 -5.74 -7.7 -2.46zm-333.17 -106.64l77.52 -242.23 2.26 0.72 23.37 7.49 -77.52 242.23 -23.37 -7.49 -2.26 -0.72zm-333.18 -106.63l77.52 -242.23 25.63 8.2 -77.52 242.23 -25.63 -8.2zm-333.18 -106.62l77.52 -242.23 25.63 8.2 -77.52 242.23 -25.63 -8.2zm-334.61 -109.53l81.84 -240.81 6.37 2.18 18.53 6.24 -80.66 241.22 -19.71 -6.64 -6.37 -2.18zm-334.1 -122.22l93.05 -236.72 19.94 7.96 3.9 1.52 -90.69 237.62 -6.26 -2.41 -19.94 -7.96zm-328.67 -145.85l111.12 -228.78 24.11 11.94 -111.12 228.78 -24.11 -11.94zm-317.83 -182.15l140.19 -212.22 2.33 1.58 17.95 11.58 -135.59 215.19 -22.54 -14.55 -2.33 -1.58zm-290.59 -226.13l169.88 -189.29 16.98 15.66 0.33 0.28 -164.79 193.75 -5.41 -4.74 -16.98 -15.66zm-247.84 -281.29l204.59 -151.1 15.61 21.91 -204.59 151.1 -15.61 -21.91zm-182.79 -327.83l231.25 -105.93 10.77 24.66 -231.25 105.93 -10.77 -24.66zm-106.8 -367.18l250.84 -42.02 1.45 9.96 2.18 11.51 -248.95 52.11 -4.07 -21.6 -1.45 -9.96zm-6.89 -382.6l252.98 26.23 -3.43 26.69 -252.98 -26.23 3.43 -26.69zm118.72 -377.11l225.81 117.02 -3.75 6.78 -5.18 10.75 -232.1 -104.02 11.47 -23.76 3.75 -6.78zm232.91 -304.53l185.04 174.5 -19.19 18.87 -185.04 -174.5 19.19 -18.87zm327.24 -215.78l114.92 226.89 -24.37 11.4 -114.92 -226.89 24.37 -11.4zm365.68 -112.85l51.13 249.15 -26.47 4.82 -51.13 -249.15 26.47 -4.82zm367.12 -36.94l12.31 254.04 -26.89 0.86 -12.31 -254.04 26.89 -0.86zm366.91 13.04l-22.71 253.32 -1.28 -0.12 -22.53 -1.76 16.68 -253.79 28.56 2.23 1.28 0.12zm356.64 47.75l-42.73 250.72 -13.91 -2.49 -10.39 -1.68 38.27 -251.45 14.84 2.41 13.91 2.49zm349.99 72.55l-57.79 247.69 -26.16 -6.28 57.79 -247.69 26.16 6.28zm342.01 87.33l-63.93 246.18 -26.04 -6.77 63.93 -246.18 26.04 6.77zm338.59 87.93l-63.93 246.18 -26.04 -6.77 63.93 -246.18 26.04 6.77zm338.59 87.9l-63.91 246.18 -26.04 -6.76 63.91 -246.18 26.04 6.76zm338.6 87.9l-63.91 246.18 -26.04 -6.76 63.91 -246.18 26.04 6.76zm338.59 87.88l-63.89 246.18 -8.35 -2.17 -17.69 -4.6 63.89 -246.18 17.69 4.6 8.35 2.17zm338.6 87.86l-63.87 246.18 -26.04 -6.76 63.87 -246.18 26.04 6.76zm338.6 87.82l-63.85 246.2 -26.04 -6.76 63.85 -246.2 26.04 6.76zm320.77 60.64l-18.78 253.65 -6.43 -0.4 -23.25 -1.99 24.5 -253.16 17.53 1.51 6.43 0.4zm265.88 -47.46l126.36 220.73 -5.62 3.43 -24.12 12.92 -113.94 -227.38 11.71 -6.27 5.62 -3.43zm144.93 -206.83l240.55 82.65 -2.13 6.35 -5.52 15.65 -2.79 7.49 -237.55 -90.87 1.2 -3.21 4.12 -11.7 2.13 -6.35zm82.31 -329.33l246.41 63.04 -6.87 26.01 -246.41 -63.04 6.87 -26.01zm100.04 -341.37l243.21 74.43 -7.93 25.72 -243.21 -74.43 7.93 -25.72zm102.95 -334.09l243.33 74 -7.77 25.76 -243.33 -74 7.77 -25.76zm93.04 -331.79l246.16 63.99 -6.6 26.09 -246.16 -63.99 6.6 -26.09zm70.16 -331.14l250.84 42.08 -3.41 21.92 -1.35 7.45 -249.82 -47.67 0.34 -1.85 3.41 -21.92zm25.44 -327.78l254.34 1.16 0.46 26.9 -254.34 -1.16 -0.46 -26.9zm-61.71 -295.98l238.71 -87.78 10.15 24.92 -238.71 87.78 -10.15 -24.92zm-171.34 -244.03l186.5 -172.93 12 12.4 10.2 11.51 -194.11 164.34 -2.59 -2.92 -12 -12.4zm-247.29 -208.23l147.52 -207.2 13.65 9.45 11.11 8.14 -153.11 203.09 -5.51 -4.03 -13.65 -9.45zm-285.14 -174.43l121.45 -223.47 2.3 1.22 23.01 12.73 -124.95 221.54 -19.51 -10.79 -2.3 -1.22zm-306.69 -152.38l108.43 -230.07 24.39 11.36 -108.43 230.07 -24.39 -11.36z"/>
   </g>
  </g>
 </g>
</svg>
