<?xml version="1.0" encoding="UTF-8"?>
<!DOCTYPE svg PUBLIC "-//W3C//DTD SVG 1.1//EN" "http://www.w3.org/Graphics/SVG/1.1/DTD/svg11.dtd">
<!-- Creator: CorelDRAW -->
<svg xmlns="http://www.w3.org/2000/svg" xml:space="preserve" width="254.835mm" height="307.916mm" version="1.1" style="shape-rendering:geometricPrecision; text-rendering:geometricPrecision; image-rendering:optimizeQuality; fill-rule:evenodd; clip-rule:evenodd"
viewBox="0 0 38790.39 46870.13"
 xmlns:xlink="http://www.w3.org/1999/xlink"
 xmlns:xodm="http://www.corel.com/coreldraw/odm/2003"
 data-name="Capa 2">
 <defs>
  <style type="text/css">
   <![CDATA[
    .fil0 {fill:#1E804B;fill-rule:nonzero}
    .fil1 {fill:#C19516;fill-rule:nonzero}
   ]]>
  </style>
 </defs>
 <g id="Capa_x0020_1">
  <metadata id="CorelCorpID_0Corel-Layer"/>
  <g id="forma-home-3.svg">
   <g>
    <path class="fil0" d="M3566.47 4526.72l263 275.03 -29.68 27.19 -263 -275.03 29.68 -27.19zm397.39 -352.81l251.01 286.02 -30.82 25.89 -251.01 -286.02 30.82 -25.89zm416.48 -330.13l238.52 296.52 -31.9 24.55 -238.52 -296.52 31.9 -24.55zm444.86 -305.07l212.53 315.67 -33.85 21.77 -212.53 -315.67 33.85 -21.77zm461.29 -278.76l185.83 332.11 -7.82 4.17 -20.38 11.93 -199.22 -324.22 33.78 -19.82 7.82 -4.17zm472.09 -242.86l172.43 339.23 -36.24 17.52 -172.43 -339.23 36.24 -17.52zm491.56 -218.23l146.01 351.44 -37.46 14.75 -146.01 -351.44 37.46 -14.75zm496.73 -185.48l133.13 356.49 -37.96 13.4 -133.13 -356.49 37.96 -13.4zm512.38 -158.53l108.35 364.8 -38.77 10.82 -108.35 -364.8 38.77 -10.82zm518.83 -131.52l85.27 370.86 -39.36 8.43 -85.27 -370.86 39.36 -8.43zm518.65 -103.52l74.46 373.18 -39.59 7.31 -74.46 -373.18 39.59 -7.31zm527.52 -79.79l54.37 376.65 -39.91 5.24 -54.37 -376.65 39.91 -5.24zm529.23 -57.68l36.44 378.81 -40.11 3.41 -36.44 -378.81 40.11 -3.41zm529.9 -37.35l20.79 379.97 -39.76 1.78 3.32 -0.21 -28.34 -379.48 4.23 -0.27 39.76 -1.78zm526.54 -18.89l13.82 380.3 -40.25 1.1 -13.82 -380.3 40.25 -1.1zm529.49 -2.79l1.61 380.54 -40.26 -0.12 -1.61 -380.54 40.26 0.12zm528.19 10.43l-8.22 380.45 -40.25 -1.1 8.22 -380.45 40.25 1.1zm526.67 20.84l-15.62 380.21 -40.22 -1.81 15.62 -380.21 40.22 1.81zm525.64 27.83l-21.55 379.93 -7.26 -0.41 -32.3 -1.81 20.31 -380 33.55 1.87 7.26 0.41zm522.46 35.83l-22.16 379.9 -40.14 -3.07 22.16 -379.9 40.14 3.07zm528.01 48.82l-36.01 378.84 -40 -4.55 36.01 -378.84 40 4.55zm526.2 65.85l-49.9 377.26 -39.8 -6.01 49.9 -377.26 39.8 6.01zm523.76 83.16l-63.72 375.19 -39.56 -7.46 63.72 -375.19 39.56 7.46zm520.67 100.57l-77.36 372.6 -39.26 -8.89 77.36 -372.6 39.26 8.89zm516.96 117.97l-90.72 369.58 -20.4 -5.39 -12.01 -2.74 77.36 -372.6 25.37 5.75 20.4 5.39zm505.99 133.92l-90.72 369.58 -38.92 -10.31 90.72 -369.58 38.92 10.31zm507.6 152.93l-103.78 366.11 -38.53 -11.66 103.78 -366.11 38.53 11.66zm502.21 169.31l-116.45 362.28 -38.1 -12.97 116.45 -362.28 38.1 12.97zm496.38 185.26l-128.68 358.14 -37.64 -14.25 128.68 -358.14 37.64 14.25zm490.17 200.65l-140.44 353.69 -37.17 -15.45 140.44 -353.69 37.17 15.45zm483.61 215.42l-151.64 349.03 -36.67 -16.62 151.64 -349.03 36.67 16.62zm476.88 229.45l-162.29 344.19 -36.15 -17.7 162.29 -344.19 36.15 17.7zm469.94 242.76l-172.34 339.26 -35.62 -18.74 172.34 -339.26 35.62 18.74zm463.01 255.28l-181.84 334.3 -35.1 -19.71 181.84 -334.3 35.1 19.71zm456.01 267.02l-190.7 329.31 -34.57 -20.63 190.7 -329.31 34.57 20.63zm449.13 277.92l-198.95 324.38 -34.05 -21.46 198.95 -324.38 34.05 21.46zm442.4 288.03l-206.62 319.57 -33.55 -22.24 206.62 -319.57 33.55 22.24zm435.84 297.39l-213.71 314.85 -33.06 -22.97 213.71 -314.85 33.06 22.97zm429.54 305.9l-220.23 310.34 -32.59 -23.62 220.23 -310.34 32.59 23.62zm423.53 313.7l-226.2 306.02 -32.15 -24.22 226.2 -306.02 32.15 24.22zm417.82 320.78l-231.61 301.94 -31.72 -24.77 231.61 -301.94 31.72 24.77zm412.51 327.19l-236.52 298.1 -31.34 -25.27 236.52 -298.1 31.34 25.27zm407.53 332.88l-240.93 294.57 -30.98 -25.71 240.93 -294.57 30.98 25.71zm402.98 337.97l-244.86 291.31 -30.66 -26.09 244.86 -291.31 30.66 26.09zm398.79 342.46l-248.3 288.36 -30.35 -26.44 248.3 -288.36 30.35 26.44zm395.08 346.34l-251.31 285.74 -30.09 -26.73 251.31 -285.74 30.09 26.73zm391.78 349.64l-253.9 283.46 -29.88 -26.97 253.9 -283.46 29.88 26.97zm388.89 352.46l-256.03 281.51 -29.68 -27.19 256.03 -281.51 29.68 27.19zm386.46 354.73l-257.8 279.93 -29.53 -27.35 257.8 -279.93 29.53 27.35zm384.49 356.49l-259.13 278.68 -29.42 -27.48 259.13 -278.68 29.42 27.48zm382.93 357.77l-260.11 277.77 -29.35 -27.55 260.11 -277.77 29.35 27.55zm381.84 358.56l-260.69 277.25 -19.1 -17.98 -9.94 -9.35 260.11 -277.77 10.52 9.86 19.1 17.98zm381.06 358.79l-260.69 277.25 -29.3 -27.6 260.69 -277.25 29.3 27.6zm381.03 359.28l-261.11 276.82 -29.27 -27.63 261.11 -276.82 29.27 27.63zm380.63 360.27l-262.12 275.88 -5.66 -5.4 -23.23 -22.01 261.48 -276.49 23.87 22.62 5.66 5.4zm378.93 361.9l-262.97 275.06 -29.04 -27.87 262.97 -275.06 29.04 27.87zm377.76 364.82l-265.5 272.62 -4.35 -4.26 -23.87 -23.11 264.13 -273.96 25.24 24.45 4.35 4.26zm373.94 367.82l-267.14 271.04 -28.57 -28.34 267.14 -271.04 28.57 28.34zm371.61 372.7l-271.22 266.93 -10.06 -10.31 -17.12 -17.26 269.03 -269.12 19.32 19.45 10.06 10.31zm365.32 377.29l-273.72 264.37 -27.83 -29.09 273.72 -264.37 27.83 29.09zm361.03 384.87l-279.62 258.1 -27.11 -29.76 279.62 -258.1 27.11 29.76zm351.59 391.18l-283.12 254.29 -26.68 -30.14 283.12 -254.29 26.68 30.14zm343.48 403.04l-291.22 244.95 -25.62 -31.04 291.22 -244.95 25.62 31.04zm331.41 415.14l-301.06 232.74 -24.25 -32.13 301.06 -232.74 24.25 32.13zm314.82 430.5l-312.84 216.64 -4.75 -7.08 -15.39 -21.52 306.72 -225.25 21.51 30.14 4.75 7.08zm287.46 444.46l-319.53 206.68 -21.28 -34.17 319.53 -206.68 21.28 34.17zm259.5 481.14l-342.52 165.8 -11.43 -25.24 -1.7 -3.27 334.42 -181.56 9.8 19.04 11.43 25.24zm201.31 506.14l-359.26 125.49 -11.99 -38.43 359.26 -125.49 11.99 38.43zm116.72 556.02l-378.87 35.77 -0.72 -16.27 -0.97 -6.55 374.03 -70.17 5.81 40.95 0.72 16.27zm-35.82 561.03l-377.71 -46.3 7.28 -39.59 377.71 46.3 -7.28 39.59zm-232.16 542.2l-336.37 -177.97 20.72 -34.51 336.37 177.97 -20.72 34.51zm-356.16 453.71l-271.92 -266.23 4.93 -4.64 11.34 -12.57 294.02 241.6 -33.44 37.2 -4.93 4.64zm-419.28 358.05l-229 -303.95 32.94 -23.12 229 303.95 -32.94 23.12zm-461.29 293.64l-189.21 -330.19 35.48 -19.01 189.21 330.19 -35.48 19.01zm-488.12 239.12l-152.73 -348.55 37.26 -15.24 152.73 348.55 -37.26 15.24zm-497.83 189.13l-135.53 -355.58 37.95 -13.46 135.53 355.58 -37.95 13.46zm-519.56 149.07l-102.69 -366.42 38.98 -10.02 102.69 366.42 -38.98 10.02zm-527.86 110.92l-71.21 -373.82 39.7 -6.71 71.21 373.82 -39.7 6.71zm-533.66 75.3l-40.22 -378.41 16.32 -1.39 15.97 -2.02 55.68 376.43 -31.43 4 -16.32 1.39zm-529.84 36.41l-24.66 -379.75 40.22 -1.78 24.66 379.75 -40.22 1.78zm-539.06 2.51l7 -380.48 40.23 1.58 -7 380.48 -40.23 -1.58zm-530.37 -33.23l23.26 -379.84 40.12 3.32 -23.26 379.84 -40.12 -3.32zm-535.21 -72.79l56.93 -376.25 39.65 6.93 -56.93 376.25 -39.65 -6.93zm-530.13 -109.87l92.52 -369.13 6.51 1.8 23.65 5.31 -74.46 373.18 -41.71 -9.36 -6.51 -1.8zm-510.67 -152.2l111.09 -363.98 38.19 12.74 -111.09 363.98 -38.19 -12.74zm-507.25 -195.65l149.69 -349.86 36.55 16.87 -149.69 349.86 -36.55 -16.87zm-478.56 -237.29l169.63 -340.66 35.5 19 -169.63 340.66 -35.5 -19zm-464.11 -288.32l210.12 -317.28 32.83 23.29 -210.12 317.28 -32.83 -23.29zm-424.72 -326.02l230.18 -303.03 31.2 25.44 -230.18 303.03 -31.2 -25.44zm-394.82 -381.58l269.52 -268.66 27.4 29.48 -269.52 268.66 -27.4 -29.48zm-350.13 -422.4l303.28 -229.88 23.24 32.86 -303.28 229.88 -23.24 -32.86zm-294.13 -447.2l317.25 -210.12 21.19 34.25 -317.25 210.12 -21.19 -34.25zm-249.97 -484.23l339.2 -172.52 17.31 36.35 -339.2 172.52 -17.31 -36.35zm-206.67 -499.9l353.78 -140.16 14.05 37.72 -353.78 140.16 -14.05 -37.72zm-171.64 -508.38l362.7 -115.14 11.63 38.54 -362.7 115.14 -11.63 -38.54zm-145.96 -511.63l367.57 -98.45 7.49 28.95 1.77 6.33 -365.57 105.73 -3.77 -13.61 -7.49 -28.95zm-129.05 -510l368.94 -93.28 9.65 39.09 -368.94 93.28 -9.65 -39.09zm-123.51 -510.7l369.92 -89.32 9.45 39.14 -369.92 89.32 -9.45 -39.14zm-125.93 -505.65l368.82 -93.77 10.14 38.95 -368.82 93.77 -10.14 -38.95zm-136.13 -498.56l365.35 -106.46 6.82 22.47 5.56 19.85 -367.42 99.09 -3.49 -12.48 -6.82 -22.47zm-157.41 -493.96l362.49 -115.84 12.8 38.16 -362.49 115.84 -12.8 -38.16zm-182.95 -476.38l353.75 -140.22 15.56 37.13 -353.75 140.22 -15.56 -37.13zm-214.43 -458.52l339.84 -171.24 19 35.5 -339.84 171.24 -19 -35.5zm-255.94 -444.99l330.49 -188.63 20.88 34.42 -330.49 188.63 -20.88 -34.42zm-292.97 -406.65l306.6 -225.43 24.81 31.69 -306.6 225.43 -24.81 -31.69zm-328.18 -376.1l275.91 -262.09 28.63 28.3 -275.91 262.09 -28.63 -28.3zm-373.72 -348.32l258.47 -279.32 30.4 26.39 -258.47 279.32 -30.4 -26.39zm-396.54 -307.59l225.74 -306.35 32.97 23.09 -225.74 306.35 -32.97 -23.09zm-425.69 -272.09l195.93 -326.23 34.98 19.93 -195.93 326.23 -34.98 -19.93zm-448.31 -234.49l165.58 -342.64 36.62 16.7 -165.58 342.64 -36.62 -16.7zm-466.97 -196.53l135.11 -355.73 36.36 12.92 9.16 3.7 -150.33 349.58 6.06 2.45 -36.36 -12.92zm-481.86 -158.63l104.82 -365.84 7.76 2.05 38.36 11.86 -119.95 361.15 -23.23 -7.17 -7.76 -2.05zm-500.93 -121.83l89.81 -369.8 39.3 8.71 -89.81 369.8 -39.3 -8.71zm-501.4 -82.3l60.1 -375.76 39.87 5.57 -60.1 375.76 -39.87 -5.57zm-506.43 -46.08l30.84 -379.3 40.19 2.5 -30.84 379.3 -40.19 -2.5zm-508.71 -10.53l2.04 -380.54 40.25 -0.53 -2.04 380.54 -40.25 0.53zm-508.45 24.42l-26.33 -379.63 40.09 -3.52 26.33 379.63 -40.09 3.52zm-505.76 58.85l-54.37 -376.65 39.73 -6.48 54.37 376.65 -39.73 6.48zm-500.67 92.76l-82.14 -371.56 7.35 -1.77 38.98 -7.87 68.28 374.36 -25.13 5.07 -7.35 1.77zm-499.65 129.66l-95.93 -368.24 38.75 -10.87 95.93 368.24 -38.75 10.87zm-482.56 161.78l-123.36 -359.99 37.83 -13.78 123.36 359.99 -37.83 13.78zm-469.94 194.63l-150.57 -349.49 36.65 -16.64 150.57 349.49 -36.65 16.64zm-454.72 227.06l-177.55 -336.58 35.22 -19.48 177.55 336.58 -35.22 19.48zm-436.85 259.03l-204.12 -321.18 33.52 -22.28 204.12 321.18 -33.52 22.28zm-417.01 291.28l-228.17 -304.56 22.5 -17.47 15.04 -10.87 217.18 312.5 -4.05 2.92 -22.5 17.47zm-396.72 321.38l-248.02 -288.6 21.81 -19.36 13.32 -11.08 238.43 296.58 -3.73 3.11 -21.81 19.36zm-376.3 346.37l-265.56 -272.56 11.64 -11.69 21.52 -20.34 257.06 280.6 -13.03 12.3 -11.64 11.69zm-359.54 372.38l-273.63 -264.46 27.54 -29.36 273.63 264.46 -27.54 29.36zm-334.04 388.23l-288.7 -247.93 25.79 -30.92 288.7 247.93 -25.79 30.92zm-312.44 405.98l-302.58 -230.79 23.94 -32.36 302.58 230.79 -23.94 32.36zm-289.67 422.37l-315.58 -212.68 22 -33.72 315.58 212.68 -22 33.72zm-265.18 437.73l-327.85 -193.22 19.89 -34.99 327.85 193.22 -19.89 34.99zm-238.33 452.19l-339.48 -171.94 17.6 -36.21 339.48 171.94 -17.6 36.21zm-208.23 465.79l-350.47 -148.32 15.02 -37.35 350.47 148.32 -15.02 37.35zm-174 478.33l-360.54 -121.71 12.12 -38.39 360.54 121.71 -12.12 38.39zm-134.27 489.3l-369.4 -91.45 8.8 -39.27 369.4 91.45 -8.8 39.27zm-87.77 497.74l-376.28 -56.78 5.01 -39.94 376.28 56.78 -5.01 39.94zm-33.08 501.97l-380.15 -17.08 0.67 -40.25 380.15 17.08 -0.67 40.25zm30.66 499.52l-379.51 27.92 -4.22 -40.03 379.51 -27.92 4.22 40.03zm102.93 473l-366.02 104.18 -12.42 -38.28 366.02 -104.18 12.42 38.28zm180.51 449.6l-338.01 174.81 -13.18 -24.39 -8.59 -17.37 344.07 -162.57 2.53 5.13 13.18 24.39zm274.54 398.92l-296.46 238.59 -25.86 -30.85 296.46 -238.59 25.86 30.85zm351.77 344.91l-255.06 282.42 -30.37 -26.44 255.06 -282.42 30.37 26.44zm399.81 294.8l-213.59 314.94 -33.66 -22.07 213.59 -314.94 33.66 22.07zm434.64 260.17l-185.22 332.44 -35.42 -19.12 185.22 -332.44 35.42 19.12zm458.37 231.74l-168.05 341.42 -36.33 -17.35 168.05 -341.42 36.33 17.35zm467.51 205.66l-145.06 351.8 -1.48 -0.59 -39.26 -16.67 152.37 -348.7 31.95 13.56 1.48 0.59zm484.19 188.57l-138.09 354.61 -37.64 -14.26 138.09 -354.61 37.64 14.26zm487.57 170.48l-125.21 359.35 -38.12 -12.92 125.21 -359.35 38.12 12.92zm492.79 157.15l-113.55 363.22 -38.51 -11.72 113.55 -363.22 38.51 11.72zm499.35 147.06l-108.14 364.87 -38.68 -11.17 108.14 -364.87 38.68 11.17zm503.2 134.01l-103.02 366.33 -38.91 -10.34 103.02 -366.33 38.91 10.34zm502.59 124.89l-92.49 369.13 -39.18 -9.19 92.49 -369.13 39.18 9.19zm504.8 115.7l-81.8 371.65 -39.44 -8.07 81.8 -371.65 39.44 8.07zm512.74 105.08l-81.8 371.65 -39.44 -8.08 81.8 -371.65 39.44 8.08zm509.87 91.32l-71.21 373.82 -39.65 -6.96 71.21 -373.82 39.65 6.96zm511.68 81.06l-60.8 375.64 -39.82 -5.88 60.8 -375.64 39.82 5.88zm513.44 70.31l-50.66 377.16 -39.97 -4.81 50.66 -377.16 39.97 4.81zm515.03 59.3l-40.86 378.35 -40.08 -3.81 40.86 -378.35 40.08 3.81zm516.47 48.15l-31.54 379.23 -38.6 -2.74 -6.21 -0.59 40.86 -378.35 -3.11 -0.29 38.6 2.74zm522.09 37.06l-31.54 379.23 -40.15 -2.85 31.54 -379.23 40.15 2.85zm518.41 25.53l-22.83 379.84 -40.22 -1.96 22.83 -379.84 40.22 1.96zm519.14 15.74l-14.83 380.24 -40.23 -1.16 14.83 -380.24 40.23 1.16zm519.76 6.68l-7.64 380.45 -40.26 -0.44 7.64 -380.45 40.26 0.44zm520.28 -1.32l-1.4 380.54 -40.26 0.15 1.4 -380.54 40.26 -0.15zm518.76 -8.08l7.73 380.45 -9.86 0.24 -32.36 0.52 -3.77 -380.51 28.4 -0.46 9.86 -0.24zm521.91 -13.24l10.35 380.39 -40.23 1.19 -10.35 -380.39 40.23 -1.19zm522.61 -15.66l11.48 380.36 -40.23 1.23 -11.48 -380.36 40.23 -1.23zm523.46 -15.19l10.93 380.39 -40.25 1.07 -10.93 -380.39 40.25 -1.07zm524.45 -11.22l8.55 380.45 -40.25 0.72 -8.55 -380.45 40.25 -0.72zm528.91 -2.3l-2.5 380.54 -40.25 -0.68 2.5 -380.54 40.25 0.68zm527.72 14.02l-11.6 380.36 -40.22 -1.78 11.6 -380.36 40.22 1.78zm528.03 35.15l-23.32 379.81 -40.12 -3.17 23.32 -379.81 40.12 3.17zm534.48 71.83l-55.29 376.49 -39.67 -6.85 55.29 -376.49 39.67 6.85zm533.26 113.77l-98.55 367.57 -9.86 -3 -17.69 -4.13 75.59 -372.96 40.64 9.51 9.86 3zm508.48 170.21l-123.72 359.87 -37.57 -14.46 123.72 -359.87 37.57 14.46zm499.96 234.61l-177.85 336.43 -34.8 -20.23 177.85 -336.43 34.8 20.23zm453.73 290.2l-204.92 320.66 -33 -23.05 204.92 -320.66 33 23.05zm425.04 355.11l-254.32 283.06 -28.88 -28.04 254.32 -283.06 28.88 28.04zm377.41 392.64l-284.71 252.5 -26.15 -30.61 284.71 -252.5 26.15 30.61zm332.53 429.66l-309.85 220.9 -22.8 -33.17 309.85 -220.9 22.8 33.17zm288.74 458.25l-329.79 189.88 -17.25 -31.04 0.61 1 323.71 -200.04 5.48 9.16 17.25 31.04zm246.91 479.7l-344.8 161.02 -4.75 -10.55 -10.23 -21.17 340.3 -170.33 14.73 30.49 4.75 10.55zm207.17 490.96l-352.47 143.45 -14.72 -37.46 352.47 -143.45 14.72 37.46zm176.34 505.86l-361.06 120.19 -12.33 -38.33 361.06 -120.19 12.33 38.33zm148.99 512.23l-366.94 100.83 -10.35 -38.91 366.94 -100.83 10.35 38.91zm126.92 515.96l-370.83 85.36 -8.78 -39.29 370.83 -85.36 8.78 39.29zm109.44 516.05l-372.63 77.27 -7.99 -39.45 372.63 -77.27 7.99 39.45zm97.08 518.99l-374.39 68.22 -7.09 -39.62 374.39 -68.22 7.09 39.62zm88.94 518.56l-375.31 62.84 -6.58 -39.71 375.31 -62.84 6.58 39.71zm84.24 514.19l-375.64 60.95 0.02 0.03 -5.92 -36.33 375.58 -61.25 5.95 36.58 0.02 0.03zm0.52 3.29l-375.64 60.95 -0.52 -3.29 375.64 -60.95 0.52 3.29zm75.99 523.67l-377.32 49.5 -5.07 -39.94 377.32 -49.5 5.07 39.94zm59.41 525.32l-378.53 38.97 -3.93 -40.06 378.53 -38.97 3.93 40.06zm43.56 527.62l-379.6 26.94 -2.62 -40.17 379.6 -26.94 2.62 40.17zm27.79 527.08l-380.12 18.08 -1.67 -40.22 380.12 -18.08 1.67 40.22zm11.93 530.55l-380.51 3.47 -0.08 -34.8 -0.06 -2.94 380.45 -8.52 0.12 7.99 0.08 34.8zm-4.43 528.7l-380.48 -7.22 1.05 -40.25 380.48 7.22 -1.05 40.25zm-20.88 528.68l-380.09 -18.66 2.28 -40.19 380.09 18.66 -2.28 40.19zm-37.95 528.18l-379.26 -30.99 3.61 -40.09 379.26 30.99 -3.61 40.09zm-55.57 527.07l-377.96 -44.17 5.02 -39.94 377.96 44.17 -5.02 39.94zm-73.81 525.32l-376.07 -58.3 6.55 -39.71 376.07 58.3 -6.55 39.71zm-92.64 522.88l-373.42 -73.34 2.45 -11.86 4.44 -23.87 374.82 65.7 -5.85 31.51 -2.45 11.86zm-112.12 515.33l-371.78 -81.22 9.01 -39.24 371.78 81.22 -9.01 39.24zm-133.36 514.81l-367.79 -97.69 10.78 -38.78 367.79 97.69 -10.78 38.78zm-155.44 509.11l-362.73 -115.02 13.2 -38.02 362.73 115.02 -13.2 38.02zm-171.59 494.49l-362.73 -115.02 13.2 -38.04 362.73 115.02 -13.2 38.04zm-199.18 494.95l-356.07 -134.29 15.22 -37.26 356.07 134.29 -15.22 37.26zm-219.21 486.32l-348.33 -153.22 17.19 -36.4 348.33 153.22 -17.19 36.4zm-239.24 476.62l-339.75 -171.43 19.07 -35.45 339.75 171.43 -19.07 35.45zm-259.07 465.97l-330.37 -188.84 20.87 -34.42 330.37 188.84 -20.87 34.42zm-278.51 454.43l-320.39 -205.34 22.56 -33.34 320.39 205.34 -22.56 33.34zm-293.44 433.41l-320.39 -205.34 22.57 -33.34 320.39 205.34 -22.57 33.34zm-318 427.38l-309.91 -220.84 24.16 -32.21 309.91 220.84 -24.16 32.21zm-334.71 413.96l-299.05 -235.33 25.62 -31.04 299.05 235.33 -25.62 31.04zm-350.54 400.15l-288 -248.75 26.99 -29.87 288 248.75 -26.99 29.87zm-365.47 386.05l-276.82 -261.11 28.24 -28.68 276.82 261.11 -28.24 28.68zm-379.43 371.81l-265.68 -272.44 29.39 -27.51 265.68 272.44 -29.39 27.51zm-392.43 357.56l-254.63 -282.82 30.43 -26.35 254.63 282.82 -30.43 26.35zm-404.5 343.28l-243.73 -292.23 31.39 -25.21 243.73 292.23 -31.39 25.21zm-415.57 329.17l-233.14 -300.78 32.24 -24.1 233.14 300.78 -32.24 24.1zm-425.81 315.26l-222.82 -308.48 33.02 -23.02 222.82 308.48 -33.02 23.02zm-435.17 301.59l-212.83 -315.46 33.72 -21.98 212.83 315.46 -33.72 21.98zm-443.73 288.24l-203.24 -321.73 27.98 -17.09 1.46 -0.96 212.83 315.46 -11.05 7.23 -27.98 17.09zm-451.52 275.21l-194.02 -327.36 21.22 -12.18 8.86 -5.42 203.24 321.73 -18.08 11.05 -21.22 12.18zm-458.6 262.58l-185.25 -332.41 21.98 -11.87 8.86 -5.08 194.02 327.36 -17.63 10.14 -21.98 11.87zm-465.05 250.32l-176.91 -336.92 31.37 -15.98 0.27 -0.15 185.25 332.41 -8.62 4.66 -31.37 15.98zm-470.85 238.52l-168.99 -340.97 36.27 -17.46 168.99 340.97 -36.27 17.46zm-476.12 227.14l-161.5 -344.56 36.62 -16.68 161.5 344.56 -36.62 16.68zm-480.84 216.3l-154.47 -347.79 36.94 -15.97 154.47 347.79 -36.94 15.97zm-485.06 205.92l-147.92 -350.62 37.23 -15.3 147.92 350.62 -37.23 15.3zm-488.8 196.12l-141.81 -353.14 37.48 -14.67 141.81 353.14 -37.48 14.67zm-492.12 186.94l-136.17 -355.34 37.7 -14.11 136.17 355.34 -37.7 14.11zm-497.52 178.49l-126.43 -358.93 38.05 -13.14 126.43 358.93 -38.05 13.14zm-497.49 169.39l-122.38 -360.33 38.19 -12.74 122.38 360.33 -38.19 12.74zm-500.63 163.21l-116.35 -362.31 38.36 -12.18 116.35 362.31 -38.36 12.18zm-500.05 157.77l-114.56 -362.89 38.42 -12.06 114.56 362.89 -38.42 12.06zm-500.35 155.99l-113.22 -363.31 38.45 -11.93 113.22 363.31 -38.45 11.93zm-501.8 153.45l-110.63 -364.1 38.54 -11.6 110.63 364.1 -38.54 11.6zm-504.56 148.85l-105.55 -365.63 38.72 -10.99 105.55 365.63 -38.72 10.99zm-505.96 140.91l-102.05 -366.6 38.83 -10.59 102.05 366.6 -38.83 10.59zm-511.4 131.36l-93.1 -368.98 39.1 -9.57 93.1 368.98 -39.1 9.57zm-515.7 119.51l-81.44 -371.75 39.39 -8.27 81.44 371.75 -39.39 8.27zm-516.73 103.2l-74.46 -373.18 39.55 -7.49 74.46 373.18 -39.55 7.49zm-524.75 85.09l-58.21 -376.07 39.85 -5.68 58.21 376.07 -39.85 5.68zm-529.44 63.76l-38.48 -378.6 40.11 -3.5 38.48 378.6 -40.11 3.5zm-527.66 37.37l-27.25 -379.57 40.2 -2.25 27.25 379.57 -40.2 2.25zm-535.99 6.18l-1.77 -380.54 40.25 0.53 1.77 380.54 -40.25 -0.53zm-537.25 -28.68l27.79 -379.54 40.08 3.77 -27.79 379.54 -40.08 -3.77zm-535.73 -68.47l61.34 -375.55 39.56 7.41 -61.34 375.55 -39.56 -7.41zm-520.63 -111.7l79.49 -372.14 39.15 9.39 -79.49 372.14 -39.15 -9.39zm-517.81 -163.54l117.91 -361.82 37.92 13.52 -117.91 361.82 -37.92 -13.52zm-500.8 -213.88l158.03 -346.17 36.12 17.76 -158.03 346.17 -36.12 -17.76zm-477.73 -263.61l197.97 -324.98 33.73 21.95 -197.97 324.98 -33.73 -21.95zm-438.95 -305.27l217.24 -312.44 32.35 23.96 -217.24 312.44 -32.35 -23.96zm-415.81 -353.77l253.05 -284.22 29.61 27.28 -253.05 284.22 -29.61 -27.28zm-378.56 -387.26l279.23 -258.56 26.91 29.94 -279.23 258.56 -26.91 -29.94zm-343.8 -409.02l293.75 -241.9 25.15 31.43 -293.75 241.9 -25.15 -31.43zm-316.52 -436.21l312.65 -216.94 22.5 33.38 -312.65 216.94 -22.5 -33.38zm-284.87 -451.11l323.86 -199.8 20.67 34.55 -323.86 199.8 -20.67 -34.55zm-256.38 -474.14l339.29 -172.34 17.72 36.15 -339.29 172.34 -17.72 -36.15zm-220.88 -486.59l348.76 -152.22 15.54 37.13 -348.76 152.22 -15.54 -37.13zm-185.17 -508.89l361.79 -117.97 11.81 38.48 -361.79 117.97 -11.81 -38.48zm-138.35 -518.85l369.4 -91.45 8.92 39.26 -369.4 91.45 -8.92 -39.26zm-83.61 -540.65l377.99 -44.11 3.73 40.08 -377.99 44.11 -3.73 -40.08zm-12.09 -552l380.27 14.52 -2.68 40.17 -380.27 -14.52 2.68 -40.17zm81.66 -552.46l370.74 85.88 -10.44 38.88 -370.74 -85.88 10.44 -38.88zm198.84 -528.62l342.09 166.68 -19.58 35.18 -342.09 -166.68 19.58 -35.18zm326.34 -460.99l295.15 240.2 -27.26 29.62 -295.15 -240.2 27.26 -29.62zm462.22 -361.55l195.78 326.32 -35.53 18.91 -195.78 -326.32 35.53 -18.91zm510.81 -222.59l132.89 356.58 -38.24 12.59 -132.89 -356.58 38.24 -12.59zm530.9 -136.34l84.51 371.05 -39.47 7.9 -84.51 -371.05 39.47 -7.9zm533.63 -82.94l51.42 377.04 -39.97 4.76 -51.42 -377.04 39.97 -4.76zm531.13 -52.48l30.78 379.3 -40.15 2.85 -30.78 -379.3 40.15 -2.85zm525.59 -34.07l24.17 379.78 -40.19 2.27 -24.17 -379.78 40.19 -2.27zm526.49 -25.71l16.74 380.18 -29.23 1.2 -9.56 0.44 -19.61 -380.03 12.42 -0.59 29.23 -1.2zm523.63 -21.4l15.4 380.24 -40.22 1.58 -15.4 -380.24 40.22 -1.58zm522.99 -21.14l15.37 380.24 -40.22 1.64 -15.37 -380.24 40.22 -1.64zm522.35 -23.06l16.47 380.18 -40.22 1.83 -16.47 -380.18 40.22 -1.83zm521.68 -26.59l18.54 380.09 -40.2 2.09 -18.54 -380.09 40.2 -2.09zm519.14 -31.46l25.15 379.72 -8.43 0.59 -33.58 2.04 -21.46 -379.93 29.9 -1.83 8.43 -0.59zm519.9 -37.38l29.47 379.39 -22.07 1.84 -20.23 1.46 -25.15 -379.72 15.91 -1.13 22.07 -1.84zm519.11 -43.67l34.37 378.99 -14.93 1.45 -27.63 2.31 -29.47 -379.39 22.73 -1.92 14.93 -1.45zm520.92 -50.73l34.37 378.99 -40.06 3.9 -34.37 -378.99 40.06 -3.9zm517.45 -58.03l39.76 378.47 -40 4.49 -39.76 -378.47 40 -4.49zm516.35 -65.41l45.57 377.8 -39.93 5.13 -45.57 -377.8 39.93 -5.13zm515.15 -72.81l51.75 377.01 -39.84 5.8 -51.75 -377.01 39.84 -5.8zm513.9 -80.1l58.24 376.07 -39.73 6.5 -58.24 -376.07 39.73 -6.5zm512.61 -87.14l64.97 374.94 -39.61 7.22 -64.97 -374.94 39.61 -7.22zm511.31 -93.99l71.91 373.69 -33.56 6.77 -9.41 1.72 -64.97 -374.94 2.47 -0.47 33.56 -6.77zm513.02 -103.63l71.91 373.69 -39.45 7.96 -71.91 -373.69 39.45 -7.96zm507.93 -110.31l79 372.26 -39.3 8.72 -79 -372.26 39.3 -8.72zm506.55 -116.29l86.12 370.68 -39.14 9.44 -86.12 -370.68 39.14 -9.44zm505.12 -123.9l92.52 369.13 -38.95 10.14 -92.52 -369.13 38.95 -10.14zm502.96 -131.76l99.22 367.39 -38.75 10.85 -99.22 -367.39 38.75 -10.85zm500.46 -140.45l106.19 365.44 -7.52 2.25 -34.71 9.73 -99.22 -367.39 27.73 -7.78 7.52 -2.25zm497.51 -149.96l113.43 363.25 -0.33 0.11 -41.84 12.62 -106.19 -365.44 34.6 -10.43 0.33 -0.11zm494.05 -160.39l120.95 360.82 -18.63 6.47 -23.3 7.55 -113.43 -363.25 15.78 -5.11 18.63 -6.47zm490.02 -171.76l128.75 358.11 -37.72 14.05 -128.75 -358.11 37.72 -14.05zm485.3 -184.12l136.84 355.09 -37.38 14.92 -136.84 -355.09 37.38 -14.92zm479.77 -197.53l145.25 351.74 -37.02 15.83 -145.25 -351.74 37.02 -15.83zm473.35 -211.98l153.92 348.03 -36.61 16.76 -153.92 -348.03 36.61 -16.76zm459.7 -228.36l172.07 339.41 -35.63 18.71 -172.07 -339.41 35.63 -18.71zm454.48 -248.59l181.53 334.45 -35.1 19.73 -181.53 -334.45 35.1 -19.73zm435.33 -269.42l201.17 323.01 -33.82 21.83 -201.17 -323.01 33.82 -21.83zm418.14 -293.83l221.51 309.43 -32.33 23.99 -221.51 -309.43 32.33 -23.99zm395.51 -322.31l242.21 293.51 -30.58 26.18 -242.21 -293.51 30.58 -26.18zm358.02 -352.31l272.93 265.19 -27.48 29.41 -272.93 -265.19 27.48 -29.41zm311.45 -383.44l310.1 220.59 -5.5 8.05 -22.47 30.37 -301.45 -232.25 13.82 -18.71 5.5 -8.05zm252.56 -426.77l338.11 174.65 -17.89 36.06 -338.11 -174.65 17.89 -36.06zm187 -459.85l359.23 125.52 -0.32 0.99 -15.74 42.77 -354.85 -137.45 11.36 -30.84 0.32 -0.99zm145.79 -489.84l366.54 102.32 -10.23 38.94 -366.54 -102.32 10.23 -38.94zm102.35 -495.64l374.24 68.92 -6.71 39.7 -374.24 -68.92 6.71 -39.7zm63.25 -502.88l378.81 36.47 -3.29 40.12 -378.81 -36.47 3.29 -40.12zm25.27 -506.47l380.51 4.17 0 1 -1.13 44.63 -380.24 -14.95 0.85 -33.85 0 -1zm-14.75 -512.15l380.15 -17.63 2.44 40.19 -380.15 17.63 -2.44 -40.19zm-53.61 -503.49l377.07 -51.27 6.03 39.8 -377.07 51.27 -6.03 -39.8zm-93.78 -496.53l370.59 -86.52 1.86 7.4 8.2 37.89 -373.18 74.53 -5.62 -25.89 -1.86 -7.4zm-139.71 -490.95l363.95 -111.18 12.42 38.28 -363.95 111.18 -12.42 -38.28zm-183.74 -467.58l349.67 -150.12 16.58 36.68 -349.67 150.12 -16.58 -36.68zm-231.54 -443.24l329.03 -191.19 20.96 34.37 -329.03 191.19 -20.96 -34.37zm-267.17 -392.98l300.51 -233.47 0.02 0.03 15.85 21.39 -310.98 219.35 -5.4 -7.32 0.02 0.03zm-14.35 -17.19l300.51 -233.47 14.35 17.19 -300.51 233.47 -14.35 -17.19zm-332.99 -366.02l262.82 -275.21 13.46 11.87 25.6 26.38 -282.94 254.48 -5.48 -5.65 -13.46 -11.87zm-385.64 -306.79l216.36 -313.05 34.01 21.55 -216.36 313.05 -34.01 -21.55zm-431.93 -238.49l165.8 -342.52 36.85 16.18 -165.8 342.52 -36.85 -16.18zm-466.27 -170.94l117.18 -362.06 38.66 11.19 -117.18 362.06 -38.66 -11.19zm-488.51 -112.75l75.23 -373.02 39.65 6.97 -75.23 373.02 -39.65 -6.97zm-501.86 -67.65l42.07 -378.2 40.08 3.7 -42.07 378.2 -40.08 -3.7zm-509.91 -35.13l17.75 -380.12 40.23 1.35 -17.75 380.12 -40.23 -1.35zm-518.67 -11.8l8.62 -380.45 40.25 0.49 -8.62 380.45 -40.25 -0.49zm-516.87 3.42l-4.38 -380.51 40.25 -0.72 4.38 380.51 -40.25 0.72zm-521.15 12.25l-8.59 -380.45 40.25 -1.08 8.59 380.45 -40.25 1.08zm-520.89 17.25l-13.03 -380.33 40.23 -1.43 13.03 380.33 -40.23 1.43zm-522.82 18.63l-13.55 -380.3 40.23 -1.43 13.55 380.3 -40.23 1.43zm-523.34 17.67l-13.06 -380.33 40.23 -1.32 13.06 380.33 -40.23 1.32zm-524.98 14.38l-9.5 -380.42 40.25 -0.87 9.5 380.42 -40.25 0.87zm-524.75 9.82l-6.58 -380.48 40.25 -0.52 6.58 380.48 -40.25 0.52zm-525.18 4.28l-2.98 -380.54 40.26 -0.11 2.98 380.54 -40.26 0.11zm-525.47 -2.16l1.19 -380.54 40.25 0.35 -1.19 380.54 -40.25 -0.35zm-525.65 -9.35l5.88 -380.51 40.25 0.88 -5.88 380.51 -40.25 -0.88zm-525.71 -17.06l11.08 -380.39 40.23 1.45 -11.08 380.39 -40.23 -1.45zm-525.59 -25.21l16.68 -380.18 40.2 2.07 -16.68 380.18 -40.2 -2.07zm-525.3 -33.56l22.65 -379.87 40.17 2.71 -22.65 379.87 -40.17 -2.71zm-525.06 -38.85l28.83 -379.45 40.14 3.06 -28.83 379.45 -40.14 -3.06zm-522 -40.35l29.13 -379.42 40.14 3.12 -29.13 379.42 -40.14 -3.12zm-522.65 -41.98l31.02 -379.26 40.11 3.35 -31.02 379.26 -40.11 -3.35zm-522.35 -44.39l32.7 -379.14 40.09 3.55 -32.7 379.14 -40.09 -3.55zm-522.32 -47.74l34.86 -378.93 40.08 3.81 -34.86 378.93 -40.08 -3.81zm-522.17 -51.97l37.54 -378.69 40.05 4.13 -37.54 378.69 -40.05 -4.13zm-521.86 -57.2l40.73 -378.35 40 4.49 -40.73 378.35 -40 -4.49zm-523.57 -64.05l48.8 -377.41 24.66 3.33 13.11 1.63 -44.48 377.93 -17.43 -2.15 -24.66 -3.33zm-520.86 -72.27l53.7 -376.74 39.8 5.95 -53.7 376.74 -39.8 -5.95zm-519.87 -81.21l59.21 -375.92 39.71 6.56 -59.21 375.92 -39.71 -6.56zm-518.48 -91.44l65.33 -374.88 39.59 7.25 -65.33 374.88 -39.59 -7.25zm-520.31 -104.15l79.55 -372.14 19.3 4.34 16.35 3.33 -72.12 373.63 -23.78 -4.83 -19.3 -4.34zm-513.99 -118.73l87.68 -370.31 39.06 9.71 -87.68 370.31 -39.06 -9.71zm-510.67 -133.75l96.48 -368.12 38.82 10.69 -96.48 368.12 -38.82 -10.69zm-506.46 -150.33l105.97 -365.5 38.51 11.74 -105.97 365.5 -38.51 -11.74zm-505.26 -174.09l127.04 -358.72 37.73 14.03 -127.04 358.72 -37.73 -14.03zm-493.05 -193.03l138.61 -354.39 37.23 15.28 -138.61 354.39 -37.23 -15.28zm-490.25 -218.98l163.57 -343.59 31.49 15.74 -1.78 -0.82 -150.79 349.4 -11.01 -4.99 -31.49 -15.74zm-471.4 -243.81l176.88 -336.95 35.25 19.42 -176.88 336.95 -35.25 -19.42zm-458.2 -268.6l190.58 -329.37 34.42 20.9 -190.58 329.37 -34.42 -20.9zm-446.76 -303.35l218.86 -311.32 32.39 23.9 -218.86 311.32 -32.39 -23.9zm-420.33 -326.34l233.17 -300.75 31.22 25.41 -233.17 300.75 -31.22 -25.41zm-404.56 -360.31l261.3 -276.64 28.57 28.36 -261.3 276.64 -28.57 -28.36zm-370.82 -382.54l274.84 -263.21 27.11 29.76 -274.84 263.21 -27.11 -29.76zm-345.52 -405.67l287.78 -248.97 25.57 31.1 -287.78 248.97 -25.57 -31.1zm-316.44 -428.81l299.99 -234.14 23.75 32.5 -299.99 234.14 -23.75 -32.5zm-295.3 -459.82l326.17 -196.03 6.27 11.14 8.74 13.65 -313.99 214.96 -20.91 -32.59 -6.27 -11.14zm-260.72 -466.04l336.61 -177.49 10.93 22.16 2.41 4.29 -326.17 196.03 -12.85 -22.83 -10.93 -22.16zm-234.66 -479.04l345.53 -159.43 11.25 26.14 0.76 1.57 -336.61 177.49 -9.68 -19.62 -11.25 -26.14zm-209.77 -489.88l353.08 -141.93 8.4 22.5 2.66 6.16 -345.53 159.43 -10.21 -23.67 -8.4 -22.5zm-186.07 -498.89l359.45 -124.94 3.55 11.02 6.88 18.37 -353.08 141.93 -13.24 -35.36 -3.55 -11.02zm-160.38 -498.21l359.45 -124.94 12.33 38.31 -359.45 124.94 -12.33 -38.31zm-141.11 -512.99l364.74 -108.47 10.62 38.83 -364.74 108.47 -10.62 -38.83zm-120.1 -517.9l369.13 -92.49 8.95 39.26 -369.13 92.49 -8.95 -39.26zm-99.9 -521.83l372.69 -76.93 7.32 39.58 -372.69 76.93 -7.32 -39.58zm-80.43 -524.94l375.49 -61.74 5.74 39.85 -375.49 61.74 -5.74 -39.85zm-61.57 -527.22l377.65 -46.88 4.19 40.03 -377.65 46.88 -4.19 -40.03zm-43.2 -528.89l379.17 -32.3 2.65 40.17 -379.17 32.3 -2.65 -40.17zm-25.25 -529.9l380.12 -17.93 1.14 40.25 -380.12 17.93 -1.14 -40.25zm-7.58 -530.37l380.51 -3.68 -0.35 40.25 -380.51 3.68 0.35 -40.25zm9.88 -530.31l380.39 10.44 -1.84 40.22 -380.39 -10.44 1.84 -40.22zm27.19 -529.7l379.75 24.54 -3.33 40.11 -379.75 -24.54 3.33 -40.11zm44.49 -528.64l378.56 38.66 -1.43 11.92 -1.77 21.1 -379.75 -24.54 2.95 -35.22 1.43 -11.92zm62.93 -519.59l378.56 38.66 -4.84 39.97 -378.56 -38.66 4.84 -39.97zm81.41 -524.24l376.86 52.88 -6.35 39.76 -376.86 -52.88 6.35 -39.76zm99.06 -521.25l374.55 67.22 -7.87 39.47 -374.55 -67.22 7.87 -39.47zm116.95 -517.65l371.65 81.71 -9.41 39.14 -371.65 -81.71 9.41 -39.14zm135.17 -513.37l368.12 96.44 -10.97 38.72 -368.12 -96.44 10.97 -38.72zm153.8 -508.33l363.86 111.42 -12.57 38.24 -363.86 -111.42 12.57 -38.24zm172.87 -502.41l358.84 126.68 -14.22 37.66 -358.84 -126.68 14.22 -37.66zm192.43 -495.59l352.96 142.26 -15.88 36.99 -352.96 -142.26 15.88 -36.99zm212.54 -487.69l346.11 158.15 -17.57 36.21 -346.11 -158.15 17.57 -36.21zm233.24 -478.57l338.26 174.35 -8.62 15.77 -5.8 11.95 -346.11 -158.15 13.65 -28.15 8.62 -15.77zm251.02 -459.29l338.26 174.35 -19.3 35.33 -338.26 -174.35 19.3 -35.33zm277.39 -454.86l329.22 190.85 -21.07 34.31 -329.22 -190.85 21.07 -34.31zm299.5 -441.07l318.93 207.59 -22.85 33.14 -318.93 -207.59 22.85 -33.14zm322 -425.42l307.27 224.52 -24.64 31.83 -307.27 -224.52 24.64 -31.83zm344.76 -407.78l294.08 241.51 -26.44 30.35 -294.08 -241.51 26.44 -30.35zm367.56 -387.97l279.32 258.43 -28.22 28.71 -279.32 -258.43 28.22 -28.71z"/>
   </g>
   <path class="fil1" d="M4552.31 2602.37c3369.94,-2934.72 7765.63,-2677.96 10600.13,-2512.26 7519.25,439.38 12545.49,4760.05 17571.7,9081.15 3127.99,2689.18 6745.64,5799.04 5956.42,7659.37 -918.43,2165.26 -6606.34,3254.94 -9941.02,937.87 -3414.45,-2372.67 -1735.02,-6526.63 -5261.9,-9150.95 -2696.04,-2006.07 -6933.84,-2002.42 -9876.02,-147.57 -2588.29,1631.94 -4835.11,5114.03 -3841.6,7556.8 314.79,773.33 1143.69,1909.08 5426.81,3028.17 9115.24,2382 13676.28,-587.51 16916.45,2505.8 1616.26,1543.2 2022.53,3753.48 2427.3,5955.22 205.11,1115.77 672.95,4339.61 -457.4,7638.42 -2492.53,7275.26 -10954.07,9648.89 -14106.4,10532.94 -3532.34,990.8 -7850.52,2202.04 -10916.47,-290.57 -1790.55,-1455.59 -3345.63,-4330.21 -2420.07,-6075.83 1226.67,-2313.45 5711.27,-570.22 14547.19,-2396.95 7683.84,-1588.27 8917.89,-3862.93 9228.21,-4531.04 860.59,-1852.81 747.89,-4545.82 -676.94,-6213.53 -2120.04,-2481.97 -5741.73,-1050.3 -12575.34,-1559.97 -5747.5,-428.49 -11032.26,-822.81 -14024.54,-4309.59 -3810.34,-4439.91 -3497.61,-13422.04 1423.46,-17707.48z"/>
  </g>
 </g>
</svg>
