<?xml version="1.0" encoding="UTF-8"?>
<!DOCTYPE svg PUBLIC "-//W3C//DTD SVG 1.1//EN" "http://www.w3.org/Graphics/SVG/1.1/DTD/svg11.dtd">
<!-- Creator: CorelDRAW -->
<svg xmlns="http://www.w3.org/2000/svg" xml:space="preserve" width="205.557mm" height="188.138mm" version="1.1" style="shape-rendering:geometricPrecision; text-rendering:geometricPrecision; image-rendering:optimizeQuality; fill-rule:evenodd; clip-rule:evenodd"
viewBox="0 0 20994.51 19215.47"
 xmlns:xlink="http://www.w3.org/1999/xlink"
 xmlns:xodm="http://www.corel.com/coreldraw/odm/2003">
 <defs>
  <style type="text/css">
   <![CDATA[
    .str0 {stroke:#1E804B;stroke-width:51.07;stroke-miterlimit:22.9256;stroke-dasharray:189.030985 216.035412}
    .fil0 {fill:none}
   ]]>
  </style>
 </defs>
 <g id="Capa_x0020_1">
  <metadata id="CorelCorpID_0Corel-Layer"/>
  <g id="Capa_1-2" data-name="Capa 1">
   <path class="fil0 str0" d="M1983.99 2128.81c3471.75,-2336.55 7362.06,-2203.74 9161.49,-2002.96 1681.21,187.48 3184.91,375.32 4710.05,1527.17 1480.43,1118.22 3053.77,3199.87 2548.96,4283.92 -447.36,960.84 -2061.32,137.61 -4857.79,1031.41 -2329.17,744.37 -5350.97,2638.92 -5393.46,4938.33 -3.32,178.06 -7.2,821.21 369.42,1408.21 1192.1,1857.6 4936.3,1191.35 6058.41,991.7 2311.43,-411.35 2998.72,-1136.5 4359.09,-654.42 824.53,292.2 2037.14,1077.95 2031.79,1983.39 -9.98,1686.19 -4241.81,3241.26 -7499.12,3510.36 -1090.7,90.14 -3140.58,124.31 -5504.29,-733.84 -2028.27,-736.25 -3557.47,-1291.48 -4285.22,-2776.71 -1291.11,-2634.48 753.61,-6533.29 2881.45,-8567.84 910.24,-870.34 2685.83,-724.97 4432.97,-2360.19 620.61,-580.9 657.37,-784.09 628,-912.28 -219.06,-954.76 -5011.66,-1714.64 -7536.06,654.42 -750.1,704.1 -1137.99,1532.15 -2031.79,1586.64 -903.59,55.04 -1944.6,-703.73 -2031.79,-1546.93 -98.82,-955.12 1053.75,-1751.58 1957.9,-2360.19l-0.02 -0.18 0.02 0z"/>
  </g>
 </g>
</svg>
