<?xml version="1.0" encoding="UTF-8"?>
<!DOCTYPE svg PUBLIC "-//W3C//DTD SVG 1.1//EN" "http://www.w3.org/Graphics/SVG/1.1/DTD/svg11.dtd">
<!-- Creator: CorelDRAW -->
<svg xmlns="http://www.w3.org/2000/svg" xml:space="preserve" width="302.513mm" height="277.017mm" version="1.1" style="shape-rendering:geometricPrecision; text-rendering:geometricPrecision; image-rendering:optimizeQuality; fill-rule:evenodd; clip-rule:evenodd"
viewBox="0 0 30257.4 27707.24"
 xmlns:xlink="http://www.w3.org/1999/xlink"
 xmlns:xodm="http://www.corel.com/coreldraw/odm/2003">
 <defs>
  <style type="text/css">
   <![CDATA[
    .fil0 {fill:#1E804B;fill-rule:nonzero}
   ]]>
  </style>
 </defs>
 <g id="Capa_x0020_1">
  <metadata id="CorelCorpID_0Corel-Layer"/>
  <g id="Capa_1-2" data-name="Capa 1">
   <g>
    <path class="fil0" d="M2882.52 3019.9l139.61 207.44 -22.18 14.39 -139.61 -207.44 22.18 -14.39zm288.53 -187.17l139.61 207.44 -22.19 14.39 -139.61 -207.44 22.19 -14.39zm294.81 -185.01l132.59 212 -22.65 13.64 -132.59 -212 22.65 -13.64zm294.64 -177.4l132.59 212 -22.66 13.64 -132.59 -212 22.66 -13.64zm303.05 -171.17l125.47 216.3 -23.09 12.89 -125.47 -216.3 23.09 -12.89zm305.34 -166.84l118.36 220.26 -23.49 12.14 -118.36 -220.26 23.49 -12.14zm305.56 -157.85l118.36 220.26 -23.5 12.14 -118.36 -220.26 23.5 -12.14zm312.59 -152.62l111.28 223.93 -23.86 11.39 -111.28 -223.93 23.86 -11.39zm314.74 -147.94l104.26 227.27 -24.2 10.65 -104.26 -227.27 24.2 -10.65zm314.78 -138.56l104.26 227.27 -24.21 10.65 -104.26 -227.27 24.21 -10.65zm320.98 -133.59l97.32 230.33 -24.51 9.92 -97.32 -230.33 24.51 -9.92zm322.9 -128.66l90.5 233.11 -24.79 9.2 -90.5 -233.11 24.79 -9.2zm322.39 -119.75l90.5 233.11 -24.79 9.21 -90.5 -233.11 24.79 -9.21zm328.12 -114.36l83.78 235.61 -25.05 8.5 -83.78 -235.61 25.05 -8.5zm329.75 -109.26l77.18 237.85 -25.27 7.81 -77.18 -237.85 25.27 -7.81zm328.57 -101.62l77.18 237.85 -25.28 7.81 -77.18 -237.85 25.28 -7.81zm333.96 -95.23l70.73 239.83 -25.47 7.14 -70.73 -239.83 25.47 -7.14zm335.29 -90.05l64.43 241.61 -25.65 6.48 -64.43 -241.61 25.65 -6.48zm336.58 -84.73l58.31 243.15 -14.85 3.36 -7.82 1.99 -64.43 -241.61 13.94 -3.53 14.85 -3.36zm335.41 -76l58.31 243.15 -25.8 5.84 -58.31 -243.15 25.8 -5.84zm339.56 -71.22l52.35 244.51 -25.93 5.22 -52.35 -244.51 25.93 -5.22zm340.54 -65.92l46.57 245.67 -26.05 4.62 -46.57 -245.67 26.05 -4.62zm341.44 -60.53l40.97 246.67 -2.56 0.39 -20.69 3.67 -46.57 -245.67 26.3 -4.67 2.56 -0.39zm339.89 -52.5l40.97 246.67 -26.15 4.03 -40.97 -246.67 26.15 -4.03zm343.35 -47.74l35.53 247.51 -26.23 3.47 -35.53 -247.51 26.23 -3.47zm343.93 -42.43l30.29 248.21 -26.29 2.92 -30.29 -248.21 26.29 -2.92zm344.47 -37.1l25.23 248.77 -26.35 2.4 -25.23 -248.77 26.35 -2.4zm342.5 -31.24l25.23 248.77 -26.35 2.4 -25.23 -248.77 26.35 -2.4zm345.46 -25.11l20.34 249.23 -26.39 1.89 -20.34 -249.23 26.39 -1.89zm345.7 -19.91l15.62 249.57 -26.42 1.4 -15.62 -249.57 26.42 -1.4zm345.87 -14.7l11.08 249.81 -26.44 0.93 -11.08 -249.81 26.44 -0.93zm345.95 -9.46l6.72 249.95 -26.45 0.48 -6.72 -249.95 26.45 -0.48zm345.98 -4.23l2.54 250.03 -26.46 0.04 -2.54 -250.03 26.46 -0.04zm345.92 0.97l-1.48 250.05 -26.45 -0.36 1.48 -250.05 26.45 0.36zm345.78 6.22l-5.34 249.99 -26.44 -0.76 5.34 -249.99 26.44 0.76zm345.57 11.38l-9.02 249.89 -26.43 -1.14 9.02 -249.89 26.43 1.14zm345.28 16.53l-12.54 249.73 -26.41 -1.51 12.54 -249.73 26.41 1.51zm344.92 21.59l-15.9 249.55 -26.39 -1.86 15.9 -249.55 26.39 1.86zm344.5 26.6l-19.1 249.31 -26.37 -2.19 19.1 -249.31 26.37 2.19zm343.99 31.44l-22.12 249.07 -26.34 -2.5 22.12 -249.07 26.34 2.5zm344.78 36.68l-27.71 248.51 -26.29 -2.94 27.71 -248.51 26.29 2.94zm341.93 38.67l-28.09 248.47 -26.29 -2.99 28.09 -248.47 26.29 2.99zm342.29 40.24l-29.55 248.29 -26.26 -3.18 29.55 -248.29 26.26 3.18zm341.89 42.45l-30.71 248.15 -26.25 -3.31 30.71 -248.15 26.25 3.31zm342.42 46.15l-33.89 247.75 -26.2 -3.68 33.89 -247.75 26.2 3.68zm342.44 50.27l-38.21 247.11 -8.29 -1.32 -16.71 -2.51 35.91 -247.45 19.01 2.85 8.29 1.32zm340.67 55.93l-40.81 246.69 -26.08 -4.46 40.81 -246.69 26.08 4.46zm341.33 62.3l-46.85 245.63 -25.95 -5.13 46.85 -245.63 25.95 5.13zm338.61 69.5l-50.29 244.95 -25.88 -5.5 50.29 -244.95 25.88 5.5zm338.85 78.45l-57.93 243.25 -25.68 -6.34 57.93 -243.25 25.68 6.34zm335.05 86.68l-62.13 242.21 -25.57 -6.8 62.13 -242.21 25.57 6.8zm334.5 98.2l-71.21 239.69 -25.29 -7.78 71.21 -239.69 25.29 7.78zm331.82 108.33l-81.06 236.55 -24.93 -8.84 81.06 -236.55 24.93 8.84zm325.52 119.16l-86.22 234.71 -24.72 -9.39 86.22 -234.71 24.72 9.39zm323.96 131.5l-96.9 230.51 -24.26 -10.53 96.9 -230.51 24.26 10.53zm316.44 142.09l-102.38 228.13 -24 -11.11 102.38 -228.13 24 11.11zm313.72 155.21l-113.44 222.84 -23.42 -12.29 113.44 -222.84 23.42 12.29zm305.16 165.22l-118.98 219.92 -23.1 -12.87 118.98 -219.92 23.1 12.87zm301.59 177.97l-129.93 213.64 -22.42 -14.02 129.93 -213.64 22.42 14.02zm292.17 187.35l-135.31 210.28 -22.06 -14.59 135.31 -210.28 22.06 14.59zm288.46 198.56l-145.71 203.2 -2.22 -1.63 -16.86 -11.77 140.57 -206.8 22 15.37 2.22 1.63zm278.13 207.49l-150.71 199.52 -20.91 -16.19 150.71 -199.52 20.91 16.19zm271.65 215.6l-155.33 195.96 -20.54 -16.66 155.33 -195.96 20.54 16.66zm267.36 224.92l-163.77 188.96 -8.06 -7.13 -9.91 -8.41 159.67 -192.44 14.01 11.89 8.06 7.13zm258.22 231.07l-167.67 185.5 -19.44 -17.93 167.67 -185.5 19.44 17.93zm252.33 237.39l-171.41 182.06 -19.07 -18.32 171.41 -182.06 19.07 18.32zm246.43 243.48l-175.04 178.56 -18.7 -18.7 175.04 -178.56 18.7 18.7zm241.61 251.71l-182.06 171.41 -17.93 -19.43 182.06 -171.41 17.93 19.43zm233.26 256.14l-185.48 167.69 -17.54 -19.79 185.48 -167.69 17.54 19.79zm226.87 261.86l-188.88 163.85 -17.12 -20.15 188.88 -163.85 17.12 20.15zm220.14 267.62l-192.28 159.85 -16.69 -20.52 192.28 -159.85 16.69 20.52zm213.56 276.57l-199.16 151.19 -15.74 -21.25 199.16 -151.19 15.74 21.25zm203.72 280.72l-202.68 146.45 -15.23 -21.62 202.68 -146.45 15.23 21.62zm195.04 287l-206.24 141.37 -14.67 -22.01 206.24 -141.37 14.67 22.01zm185.82 297.4l-213.64 129.95 -13.41 -22.79 213.64 -129.95 13.41 22.79zm171.98 302.14l-217.46 123.42 -12.69 -23.2 217.46 -123.42 12.69 23.2zm160.27 313.83l-225.37 108.32 -10.44 -22.81 1.37 2.75 221.38 -116.26 2.61 5.19 10.44 22.81zm139.88 319.42l-229.41 99.48 -10.01 -24.48 229.41 -99.48 10.01 24.48zm120.95 333.82l-237.45 78.4 -7.65 -25.32 237.45 -78.4 7.65 25.32zm91.44 338.25l-241.25 65.75 -6.23 -25.71 241.25 -65.75 6.23 25.71zm54.59 355.07l-247.57 35.21 -2.79 -26.31 247.57 -35.21 2.79 26.31zm4.13 362.88l-250.03 -3.82 1.57 -26.41 250.03 3.82 -1.57 26.41zm-63.83 361.57l-244.63 -51.81 6.85 -25.55 244.63 51.81 -6.85 25.55zm-152.91 353.28l-213.54 -130.11 2.82 -4.06 3.56 -6.69 226.69 105.54 -16.7 31.26 -2.82 4.06zm-243.99 281.77l-175.74 -177.88 19.93 -17.38 175.74 177.88 -19.93 17.38zm-329.05 199.13l-106.34 -226.31 24.44 -10.09 106.34 226.31 -24.44 10.09zm-347.22 109.61l-67.39 -240.79 25.71 -6.26 67.39 240.79 -25.71 6.26zm-353.04 59.33l-39.57 -246.89 26.21 -3.61 39.57 246.89 -26.21 3.61zm-351.4 31.37l-21.86 -249.09 26.38 -1.97 21.86 249.09 -26.38 1.97zm-348.37 17.68l-12.06 -249.75 26.43 -1.1 12.06 249.75 -26.43 1.1zm-345.62 12.18l-8.22 -249.91 26.44 -0.83 8.22 249.91 -26.44 0.83zm-343.83 11.11l-8.06 -249.93 26.44 -0.87 8.06 249.93 -26.44 0.87zm-342.41 13.24l-10.56 -249.83 26.43 -1.22 10.56 249.83 -26.43 1.22zm-342.24 17.53l-13 -249.71 26.41 -1.52 13 249.71 -26.41 1.52zm-341.6 22.82l-16.1 -249.53 26.39 -1.88 16.1 249.53 -26.39 1.88zm-338.67 29.31l-24.04 -248.89 19.57 -2.06 8.86 -0.78 19.82 249.27 -4.64 0.4 -19.57 2.06zm-339.51 37.23l-28.75 -248.39 26.25 -3.29 28.75 248.39 -26.25 3.29zm-338.38 44.85l-33.83 -247.75 26.17 -3.85 33.83 247.75 -26.17 3.85zm-337.05 52.81l-39.25 -246.95 26.08 -4.44 39.25 246.95 -26.08 4.44zm-335.5 60.98l-44.97 -245.97 25.97 -5.06 44.97 245.97 -25.97 5.06zm-333.75 69.23l-50.93 -244.81 25.83 -5.7 50.93 244.81 -25.83 5.7zm-331.82 77.46l-57.09 -243.45 25.68 -6.36 57.09 243.45 -25.68 6.36zm-329.74 85.56l-63.37 -241.89 25.5 -7.03 63.37 241.89 -25.5 7.03zm-327.51 93.45l-69.77 -240.13 25.31 -7.71 69.77 240.13 -25.31 7.71zm-325.29 100.93l-76.12 -238.19 25.11 -8.33 76.12 238.19 -25.11 8.33zm-323.18 109.15l-81.42 -236.43 24.92 -8.88 81.42 236.43 -24.92 8.88zm-320.78 116.24l-86.5 -234.61 24.71 -9.41 86.5 234.61 -24.71 9.41zm-318.31 123.03l-91.46 -232.73 24.51 -9.93 91.46 232.73 -24.51 9.93zm-315.75 129.52l-96.32 -230.75 24.3 -10.44 96.32 230.75 -24.3 10.44zm-313.1 135.81l-101.12 -228.69 24.07 -10.94 101.12 228.69 -24.07 10.94zm-310.36 141.99l-105.88 -226.53 23.84 -11.45 105.88 226.53 -23.84 11.45zm-307.49 148.04l-110.66 -224.23 14.01 -7.1 12.08 -5.8 105.88 226.53 -7.3 3.5 -14.01 7.1zm-306.77 155.46l-110.66 -224.23 23.59 -11.96 110.66 224.23 -23.59 11.96zm-301.02 160.7l-115.46 -221.8 23.33 -12.46 115.46 221.8 -23.33 12.46zm-297.6 166.8l-120.3 -219.2 23.04 -12.98 120.3 219.2 -23.04 12.98zm-293.96 172.97l-125.25 -216.42 22.74 -13.51 125.25 216.42 -22.74 13.51zm-290.06 179.24l-130.29 -213.42 22.41 -14.04 130.29 213.42 -22.41 14.04zm-285.85 185.67l-135.43 -210.2 22.05 -14.6 135.43 210.2 -22.05 14.6zm-281.31 192.23l-140.73 -206.68 21.66 -15.17 140.73 206.68 -21.66 15.17zm-276.36 199l-146.19 -202.86 21.24 -15.75 146.19 202.86 -21.24 15.75zm-270.95 206.02l-151.83 -198.68 20.78 -16.36 151.83 198.68 -20.78 16.36zm-265 213.29l-157.65 -194.08 20.27 -16.99 157.65 194.08 -20.27 16.99zm-258.41 220.85l-163.69 -189.02 19.71 -17.63 163.69 189.02 -19.71 17.63zm-251.11 228.77l-169.93 -183.44 19.08 -18.31 169.93 183.44 -19.08 18.31zm-242.96 236.99l-176.4 -177.24 18.39 -19 176.4 177.24 -18.39 19zm-233.81 245.57l-183.06 -170.33 17.62 -19.71 183.06 170.33 -17.62 19.71zm-223.52 254.53l-189.9 -162.67 16.77 -20.45 189.9 162.67 -16.77 20.45zm-211.89 263.75l-196.9 -154.13 15.81 -21.19 196.9 154.13 -15.81 21.19zm-198.75 273.29l-203.98 -144.61 14.75 -21.95 203.98 144.61 -14.75 21.95zm-183.87 282.95l-211.1 -134.01 13.57 -22.7 211.1 134.01 -13.57 22.7zm-167.03 292.61l-218.14 -122.22 12.26 -23.43 218.14 122.22 -12.26 23.43zm-148.11 302.04l-224.97 -109.18 10.81 -24.13 224.97 109.18 -10.81 24.13zm-126.92 310.97l-231.39 -94.8 9.22 -24.79 231.39 94.8 -9.22 24.79zm-103.42 318.99l-237.23 -79.08 7.49 -25.37 237.23 79.08 -7.49 25.37zm-77.75 325.71l-242.23 -62.03 5.62 -25.85 242.23 62.03 -5.62 25.85zm-50.09 330.69l-246.19 -43.79 3.63 -26.21 246.19 43.79 -3.63 26.21zm-19.83 314.08l-250.01 -4.66 0 0.02 1.58 -26.88 248.85 24.5 -0.42 6.99 0 0.02zm-0.15 9.48l-250.01 -4.66 0.15 -9.48 250.01 4.66 -0.15 9.48zm7.71 334.68l-249.69 13.44 -1.58 -26.41 249.69 -13.44 1.58 26.41zm36.27 330.83l-247.55 35.35 -3.95 -26.16 247.55 -35.35 3.95 26.16zm65.02 325.8l-243.21 58.07 -6.4 -25.67 243.21 -58.07 6.4 25.67zm95.39 318.79l-237.17 79.26 -8.67 -24.99 237.17 -79.26 8.67 24.99zm126.47 305.94l-227.89 102.9 -11.2 -23.95 227.89 -102.9 11.2 23.95zm158.09 288.85l-214.5 128.51 -13.93 -22.48 214.5 -128.51 13.93 22.48zm188.9 267.84l-196.28 154.93 -4.68 -5.37 -18.31 -25.68 210.44 -135.05 4.15 5.79 4.68 5.37zm222.3 246.24l-180.58 172.95 -19.17 -18.22 180.58 -172.95 19.17 18.22zm247.76 221.32l-164.07 188.7 -20.7 -16.45 164.07 -188.7 20.7 16.45zm269.16 195.95l-147.33 202.04 -21.99 -14.69 147.33 -202.04 21.99 14.69zm286.6 171.06l-130.83 213.1 -23.05 -12.97 130.83 -213.1 23.05 12.97zm300.43 147.45l-114.92 222.06 -23.89 -11.33 114.92 -222.06 23.89 11.33zm304.41 122.1l-85.86 234.85 -10.43 -3.48 -21.38 -8.54 99.9 -229.23 7.34 2.92 10.43 3.48zm320.45 104.37l-72.89 239.19 -25.5 -7.05 72.89 -239.19 25.5 7.05zm326.38 86.59l-60.97 242.51 -25.8 -5.84 60.97 -242.51 25.8 5.84zm330.82 70.55l-50.05 244.99 -26.03 -4.74 50.05 -244.99 26.03 4.74zm334.13 56.1l-40.11 246.81 -26.19 -3.74 40.11 -246.81 26.19 3.74zm336.55 43.05l-31.05 248.11 -26.3 -2.82 31.05 -248.11 26.3 2.82zm338.28 31.3l-22.78 249.01 -26.38 -1.99 22.78 -249.01 26.38 1.99zm339.49 20.64l-15.26 249.59 -26.43 -1.23 15.26 -249.59 26.43 1.23zm340.28 10.95l-8.4 249.91 -26.45 -0.54 8.4 -249.91 26.45 0.54zm340.76 2.12l-2.14 250.05 -26.46 0.09 2.14 -250.05 26.46 -0.09zm341 -5.95l3.56 250.03 -26.45 0.66 -3.56 -250.03 26.45 -0.66zm341.03 -13.4l8.78 249.89 -26.43 1.19 -8.78 -249.89 26.43 -1.19zm340.91 -20.25l13.56 249.69 -26.4 1.68 -13.56 -249.69 26.4 -1.68zm340.7 -26.56l17.92 249.41 -26.37 2.11 -17.92 -249.41 26.37 -2.11zm338.53 -32.65l25.55 248.75 -26.3 2.88 -25.55 -248.75 26.3 -2.88zm340.08 -38.44l28.87 248.37 -26.26 3.22 -28.87 -248.37 26.26 -3.22zm339.62 -43.43l31.89 248.01 -26.22 3.52 -31.89 -248.01 26.22 -3.52zm339.17 -47.99l34.61 247.65 -26.18 3.79 -34.61 -247.65 26.18 -3.79zm337.56 -52.49l39.15 246.97 -26.11 4.24 -39.15 -246.97 26.11 -4.24zm338.36 -56.35l40.93 246.67 -26.08 4.41 -40.93 -246.67 26.08 -4.41zm337.55 -59.29l43.31 246.27 -26.05 4.62 -43.31 -246.27 26.05 -4.62zm335.94 -62.73l47.59 245.49 -21.61 4.36 -6.22 1.16 -43.81 -246.19 2.44 -0.46 21.61 -4.36zm335.03 -68.74l51.31 244.73 -25.85 5.62 -51.31 -244.73 25.85 -5.62zm333.86 -74.56l54.89 243.95 -25.77 5.99 -54.89 -243.95 25.77 -5.99zm332.64 -80.18l58.29 243.17 -25.68 6.34 -58.29 -243.17 25.68 -6.34zm329.92 -85.4l64.35 241.63 -25.53 6.95 -64.35 -241.63 25.53 -6.95zm330.2 -91.3l66.91 240.93 -25.46 7.2 -66.91 -240.93 25.46 -7.2zm328.37 -95.1l70.87 239.79 -11.76 3.51 -14.49 4.24 -69.11 -240.31 12.73 -3.72 11.76 -3.51zm328.7 -98.91l72.13 239.41 -25.32 7.68 -72.13 -239.41 25.32 -7.68zm328.55 -100.21l72.95 239.17 -25.31 7.7 -72.95 -239.17 25.31 -7.7zm330.28 -99.44l71.03 239.75 -25.39 7.42 -71.03 -239.75 25.39 -7.42zm333.34 -95.08l65.81 241.23 -11.64 3.08 -12.34 3.48 -68.87 -240.39 15.4 -4.32 11.64 -3.08zm337.88 -85.61l56.79 243.51 -13.27 2.93 -9.99 2.45 -61.79 -242.29 14.99 -3.67 13.27 -2.93zm343.59 -69.62l43.63 246.21 -26.12 4.2 -43.63 -246.21 26.12 -4.2zm349.48 -46.34l26.35 248.65 -26.36 2.27 -26.35 -248.65 26.36 -2.27zm353.78 -16.28l5.56 249.99 -26.46 0 -5.56 -249.99 26.46 0zm354.77 18.27l-17.48 249.43 -26.34 -2.47 17.48 -249.43 26.34 2.47zm351.53 53.65l-41.05 246.65 -25.99 -4.94 41.05 -246.65 25.99 4.94zm344.65 86.13l-63.49 241.85 -25.44 -7.27 63.49 -241.85 25.44 7.27zm335.96 112.49l-83.52 235.69 -24.82 -9.13 83.52 -235.69 24.82 9.13zm325.64 134.36l-99.16 229.55 -24.17 -10.74 99.16 -229.55 24.17 10.74zm317.24 151.75l-113.28 222.92 -16.9 -8.81 -4.31 -2.14 108.66 -225.21 8.93 4.42 16.9 8.81zm306.52 167.04l-122.46 218 -22.92 -13.19 122.46 -218 22.92 13.19zm297.93 182.3l-131.77 212.52 -22.33 -14.18 131.77 -212.52 22.33 14.18zm289.86 200.88l-146.39 202.72 -21.24 -15.75 146.39 -202.72 21.24 15.75zm275.65 216.39l-156.87 194.72 -20.36 -16.87 156.87 -194.72 20.36 16.87zm263.47 238.3l-174 179.58 -16.2 -16.23 0.38 0.38 168.09 -185.14 5.52 5.18 16.2 16.23zm240.74 257.85l-186.46 166.61 -17.23 -20.06 186.46 -166.61 17.23 20.06zm217.71 286.62l-206.48 141.03 -14.38 -22.2 206.48 -141.03 14.38 22.2zm177.32 309.5l-220.1 118.64 -11.88 -23.63 220.1 -118.64 11.88 23.63zm127.3 344.23l-238.53 75.04 -7.04 -25.5 238.53 -75.04 7.04 25.5zm55.59 367.32l-249.33 19.08 -0.94 -26.44 249.33 -19.08 0.94 26.44zm-31.59 370.72l-246.93 -39.33 6.06 -25.75 246.93 39.33 -6.06 25.75zm-105.28 345.18l-238.85 -73.97 9.48 -24.69 238.85 73.97 -9.48 24.69zm-168.6 333.07l-214.32 -128.81 14.76 -21.94 214.32 128.81 -14.76 21.94zm-206.7 289.62l-200.74 -149.09 16.69 -20.51 200.74 149.09 -16.69 20.51zm-233.92 265.96l-187.46 -165.47 18.24 -19.15 187.46 165.47 -18.24 19.15zm-254.11 244.77l-174.94 -178.66 19.49 -17.87 174.94 178.66 -19.49 17.87zm-269.22 226.27l-163.33 -189.34 20.51 -16.69 163.33 189.34 -20.51 16.69zm-280.7 210.26l-152.69 -198.02 21.34 -15.62 152.69 198.02 -21.34 15.62zm-289.56 196.42l-142.97 -205.14 22.03 -14.64 142.97 205.14 -22.03 14.64zm-296.54 184.4l-134.09 -211.06 22.6 -13.74 134.09 211.06 -22.6 13.74zm-302.17 173.88l-125.97 -216 23.08 -12.91 125.97 216 -23.08 12.91zm-306.79 164.59l-118.48 -220.2 23.49 -12.15 118.48 220.2 -23.49 12.15zm-310.67 156.32l-111.56 -223.79 23.84 -11.45 111.56 223.79 -23.84 11.45zm-313.95 148.86l-105.14 -226.87 24.14 -10.79 105.14 226.87 -24.14 10.79zm-313.95 140.42l-105.14 -226.87 24.14 -10.8 105.14 226.87 -24.14 10.8zm-320.26 134.09l-99.14 -229.55 24.41 -10.18 99.14 229.55 -24.41 10.18zm-322.34 128.34l-93.5 -231.91 24.64 -9.6 93.5 231.91 -24.64 9.6zm-324.24 122.98l-88.14 -234.01 24.86 -9.05 88.14 234.01 -24.86 9.05zm-325.96 117.94l-83.04 -235.87 25.05 -8.52 83.04 235.87 -25.05 8.52zm-325.59 110.78l-83.04 -235.87 25.05 -8.52 83.04 235.87 -25.05 8.52zm-329.71 106.53l-78.12 -237.53 25.21 -8 78.12 237.53 -25.21 8zm-330.98 102.21l-73.37 -239.05 25.37 -7.51 73.37 239.05 -25.37 7.51zm-332.19 98.01l-68.73 -240.43 19.57 -5.39 3.58 -1.06 73.37 239.05 -8.22 2.44 -19.57 5.39zm-331.56 91.36l-68.73 -240.43 25.51 -7.02 68.73 240.43 -25.51 7.02zm-334.99 87.69l-64.15 -241.67 25.63 -6.54 64.15 241.67 -25.63 6.54zm-335.96 83.75l-59.65 -242.83 25.75 -6.07 59.65 242.83 -25.75 6.07zm-334.74 78.94l-59.65 -242.83 25.75 -6.07 59.65 242.83 -25.75 6.07zm-338.32 73.6l-55.13 -243.89 25.86 -5.59 55.13 243.89 -25.86 5.59zm-339.16 69.63l-50.59 -244.87 25.96 -5.1 50.59 244.87 -25.96 5.1zm-339.98 65.62l-45.99 -245.79 26.05 -4.61 45.99 245.79 -26.05 4.61zm-338.63 60.05l-45.99 -245.79 26.05 -4.62 45.99 245.79 -26.05 4.62zm-341.91 54.95l-41.29 -246.61 26.13 -4.11 41.29 246.61 -26.13 4.11zm-342.65 50.54l-36.45 -247.39 26.21 -3.59 36.45 247.39 -26.21 3.59zm-343.4 45.91l-31.41 -248.07 26.28 -3.04 31.41 248.07 -26.28 3.04zm-341.63 39.62l-31.41 -248.07 26.28 -3.04 31.41 248.07 -26.28 3.04zm-344.93 33.63l-26.13 -248.69 26.34 -2.47 26.13 248.69 -26.34 2.47zm-346.47 29.27l-18.56 -249.37 26.39 -1.85 18.56 249.37 -26.39 1.85zm-345.4 21.77l-14.22 -249.65 26.42 -1.38 14.22 249.65 -26.42 1.38zm-345.96 15.45l-9.44 -249.87 26.44 -0.87 9.44 249.87 -26.44 0.87zm-346.38 9.17l-4.28 -250.01 9.26 -0.11 15.87 -0.36 6.9 249.95 -18.49 0.42 -9.26 0.11zm-345.26 2.44l-1.58 -250.05 26.46 -0.02 1.58 250.05 -26.46 0.02zm-346.74 -3.79l4.12 -250.01 26.45 0.58 -4.12 250.01 -26.45 -0.58zm-345.24 -10l7.08 -249.95 26.44 0.9 -7.08 249.95 -26.44 -0.9zm-346.61 -16.67l13.26 -249.69 26.41 1.56 -13.26 249.69 -26.41 -1.56zm-344.76 -22.79l16.46 -249.51 26.39 1.91 -16.46 249.51 -26.39 -1.91zm-346.03 -29.11l23.1 -248.99 24.18 2.4 0.47 0.05 -19.74 249.27 -3.83 -0.33 -24.18 -2.4zm-343.77 -35.78l26.53 -248.63 26.29 2.98 -26.53 248.63 -26.29 -2.98zm-343.14 -41.75l30.03 -248.25 26.24 3.36 -30.03 248.25 -26.24 -3.36zm-342.39 -47.77l33.59 -247.79 26.19 3.74 -33.59 247.79 -26.19 -3.74zm-343.26 -55.01l40.95 -246.67 26.07 4.52 -40.95 246.67 -26.07 -4.52zm-340.4 -60.94l44.71 -246.03 25.99 4.92 -44.71 246.03 -25.99 -4.92zm-339.29 -67.07l48.53 -245.29 25.91 5.33 -48.53 245.29 -25.91 -5.33zm-338.06 -73.23l52.43 -244.49 25.82 5.75 -52.43 244.49 -25.82 -5.75zm-336.7 -79.41l56.37 -243.61 25.73 6.17 -56.37 243.61 -25.73 -6.17zm-335.23 -85.6l60.39 -242.65 25.62 6.59 -60.39 242.65 -25.62 -6.59zm-335.57 -92.69l68.53 -240.47 19.29 5.67 4.07 1.12 -64.43 241.61 -8.17 -2.26 -19.29 -5.67zm-331.79 -98.42l72.69 -239.25 25.25 7.9 -72.69 239.25 -25.25 -7.9zm-329.94 -104.52l76.88 -237.95 25.1 8.35 -76.88 237.95 -25.1 -8.35zm-328 -110.61l81.1 -236.53 24.95 8.8 -81.1 236.53 -24.95 -8.8zm-326.17 -115.9l85.32 -235.05 24.87 9.02 -85.32 235.05 -24.87 -9.02zm-323.3 -117.57l85.48 -234.99 24.86 9.05 -85.48 234.99 -24.86 -9.05zm-323.17 -118.24l85.86 -234.85 24.83 9.11 -85.86 234.85 -24.83 -9.11zm-322.9 -119.41l86.52 -234.61 24.8 9.19 -86.52 234.61 -24.8 -9.19zm-322.87 -121.74l88.66 -233.81 24.7 9.45 -88.66 233.81 -24.7 -9.45zm-321.59 -124.14l90.18 -233.23 24.63 9.62 -90.18 233.23 -24.63 -9.62zm-320.52 -127.39l92.02 -232.51 24.55 9.84 -92.02 232.51 -24.55 -9.84zm-320.1 -132.48l96.7 -230.61 24.33 10.37 -96.7 230.61 -24.33 -10.37zm-316.98 -137.34l99.54 -229.39 24.19 10.69 -99.54 229.39 -24.19 -10.69zm-316.32 -144.22l106.34 -226.31 12.25 5.88 9.89 4.55 -102.76 227.97 -13.47 -6.21 -12.25 -5.88zm-311.03 -151.77l110.28 -224.43 23.63 11.88 -110.28 224.43 -23.63 -11.88zm-309.6 -161.06l119.3 -219.74 0.55 0.3 20.48 10.82 -114.6 222.24 -25.19 -13.32 -0.55 -0.3zm-301.49 -171.34l124.37 -216.92 22.78 13.43 -124.37 216.92 -22.78 -13.43zm-298.34 -183.85l135.55 -210.12 14.83 9.87 4.44 2.78 -129.79 213.72 -10.2 -6.38 -14.83 -9.87zm-286.91 -196.12l141.63 -206.08 21.57 15.31 -141.63 206.08 -21.57 -15.31zm-280.48 -212.48l154.57 -196.54 20.5 16.7 -154.57 196.54 -20.5 -16.7zm-265.61 -225.22l161.35 -191.02 19.89 17.43 -161.35 191.02 -19.89 -17.43zm-254.23 -245.23l175.24 -178.38 18.5 18.9 -175.24 178.38 -18.5 -18.9zm-238.72 -261.29l189.08 -163.61 16.88 20.35 -189.08 163.61 -16.88 -20.35zm-217.06 -273.42l195.8 -155.53 16.01 21.05 -195.8 155.53 -16.01 -21.05zm-200.04 -292.75l208.44 -138.11 14.13 22.36 -208.44 138.11 -14.13 -22.36zm-180.32 -305.41l219.62 -119.52 5.69 11.02 4.29 7.48 -214.24 128.93 -9.67 -16.88 -5.69 -11.02zm-153.14 -313.74l224.55 -110.04 10.74 24.17 -224.55 110.04 -10.74 -24.17zm-137.49 -325.13l232.07 -93.1 8.93 24.9 -232.07 93.1 -8.93 -24.9zm-116.62 -333.05l238.19 -76.1 7.15 25.47 -238.19 76.1 -7.15 -25.47zm-93 -331.11l238.19 -76.1 7.15 25.47 -238.19 76.1 -7.15 -25.47zm-73.32 -344.85l242.89 -59.39 5.41 25.9 -242.89 59.39 -5.41 -25.9zm-54.03 -347.89l246.29 -43.23 3.73 26.19 -246.29 43.23 -3.73 -26.19zm-35.68 -349.79l248.51 -27.71 2.13 26.37 -248.51 27.71 -2.13 -26.37zm-18.37 -350.69l249.71 -12.96 0.61 26.45 -249.71 12.96 -0.61 -26.45zm-2.16 -350.76l250.05 0.96 -0.81 26.44 -250.05 -0.96 0.81 -26.44zm13.02 -350.17l249.65 14.02 -2.14 26.37 -249.65 -14.02 2.14 -26.37zm27.93 -342.78l249.65 14.02 -2.15 26.37 -249.65 -14.02 2.15 -26.37zm43.4 -347.32l248.67 26.25 -3.39 26.24 -248.67 -26.25 3.39 -26.24zm55.5 -345.17l247.19 37.67 -4.56 26.06 -247.19 -37.67 4.56 -26.06zm66.71 -342.81l245.35 48.31 -5.64 25.85 -245.35 -48.31 5.64 -25.85zm77.24 -340.3l243.17 58.23 -6.66 25.6 -243.17 -58.23 6.66 -25.6zm86.62 -332.84l243.17 58.23 -6.66 25.61 -243.17 -58.23 6.66 -25.61zm99.32 -334.24l240.77 67.49 -7.6 25.34 -240.77 -67.49 7.6 -25.34zm107.75 -331.3l238.17 76.14 -8.49 25.05 -238.17 -76.14 8.49 -25.05zm115.67 -328.38l235.43 84.24 -9.32 24.75 -235.43 -84.24 9.32 -24.75zm123.21 -325.45l232.57 91.86 -7.18 17.39 -1.26 3.34 -235.43 -84.24 4.12 -10.96 7.18 -17.39zm131.37 -317.83l232.57 91.86 -10.1 24.44 -232.57 -91.86 10.1 -24.44zm139.96 -318.35l229.61 99.02 -10.84 24.12 -229.61 -99.02 10.84 -24.12zm146.29 -315.31l226.57 105.78 -11.53 23.8 -226.57 -105.78 11.53 -23.8zm152.4 -312.26l223.46 112.2 -12.19 23.46 -223.46 -112.2 12.19 -23.46zm158.62 -305.16l223.46 112.2 -12.2 23.47 -223.46 -112.2 12.2 -23.47zm166.55 -304.8l220.28 118.32 -12.83 23.12 -220.28 -118.32 12.83 -23.12zm171.97 -301.66l217.04 124.19 -13.43 22.78 -217.04 -124.19 13.43 -22.78zm177.32 -298.48l213.72 129.81 -14.02 22.42 -213.72 -129.81 14.02 -22.42zm182.32 -291.61l213.72 129.81 -14.02 22.42 -213.72 -129.81 14.02 -22.42zm189.92 -290.55l210.32 135.25 -14.58 22.06 -210.32 -135.25 14.58 -22.06zm194.93 -287.13l206.84 140.51 -15.13 21.68 -206.84 -140.51 15.13 -21.68zm199.94 -283.67l203.24 145.67 -15.67 21.3 -203.24 -145.67 15.67 -21.3zm203.87 -276.99l203.24 145.67 -15.68 21.3 -203.24 -145.67 15.68 -21.3zm211.88 -274.86l199.52 150.73 -16.2 20.9 -199.52 -150.73 16.2 -20.9zm216.92 -270.9l195.64 155.71 -16.73 20.48 -195.64 -155.71 16.73 -20.48zm222.05 -266.76l191.6 160.67 -17.25 20.04 -191.6 -160.67 17.25 -20.04zm227.36 -262.38l187.34 165.63 -17.78 19.58 -187.34 -165.63 17.78 -19.58zm231.22 -254.59l187.34 165.63 -17.78 19.58 -187.34 -165.63 17.78 -19.58zm239.68 -251.29l182.82 170.59 -18.31 19.08 -182.82 -170.59 18.31 -19.08zm245.44 -245.81l178 175.62 -18.84 18.55 -178 -175.62 18.84 -18.55zm260.38 -241.82l160.99 191.32 -14.85 11.73 0.3 -0.26 -172.81 -180.74 11.52 -10.32 14.85 -11.73zm288.57 -211.87l138.13 208.44 -19.42 12.16 2.7 -1.9 -149.31 -200.58 8.48 -5.96 19.42 -12.16zm306.35 -180.07l118.3 220.3 -17.05 8.72 -1.64 0.92 -127.75 -214.96 11.08 -6.26 17.05 -8.72zm316.93 -154.55l102.62 228.03 -2.96 1.28 -17.4 8.14 -109.9 -224.61 24.68 -11.56 2.96 -1.28zm320.21 -134.29l96.48 230.69 -24.52 9.91 -96.48 -230.69 24.52 -9.91zm326.19 -123.33l87.52 234.23 -24.85 9.08 -87.52 -234.23 24.85 -9.08zm326.45 -115.99l82.76 235.95 -24.99 8.68 -82.76 -235.95 24.99 -8.68zm325.48 -112.65l81.82 236.29 -25.01 8.63 -81.82 -236.29 25.01 -8.63zm324.34 -113.17l82.58 236.03 -24.95 8.79 -82.58 -236.03 24.95 -8.79zm321.6 -115.91l86.48 234.63 -23.37 8.76 -2.57 0.93 -84.16 -235.47 0.25 -0.09 23.37 -8.76zm319.8 -122.03l89.48 233.49 -24.63 9.63 -89.48 -233.49 24.63 -9.63zm314.64 -128l97.32 230.35 -13.91 6.03 -12.55 5.15 -93.1 -232.07 8.33 -3.43 13.91 -6.03zm312.1 -138.19l102.04 228.29 -24.03 11.05 -102.04 -228.29 24.03 -11.05zm307.64 -147.16l107.24 225.89 -23.75 11.62 -107.24 -225.89 23.75 -11.62zm298.92 -156.52l118.78 220.02 -23.1 12.88 -118.78 -220.02 23.1 -12.88zm295.35 -169.07l125.03 216.56 -22.71 13.55 -125.03 -216.56 22.71 -13.55zm288.83 -179.63l131.45 212.7 -22.28 14.24 -131.45 -212.7 22.28 -14.24zm281.72 -190.34l138.03 208.5 -21.82 14.94 -138.03 -208.5 21.82 -14.94zm269.88 -199.64l151.39 199.02 -20.78 16.35 -151.39 -199.02 20.78 -16.35zm265.03 -212.43l158.01 193.8 -20.21 17.05 -158.01 -193.8 20.21 -17.05zm256.76 -222.26l164.55 188.28 -19.61 17.74 -164.55 -188.28 19.61 -17.74zm248.55 -229.74l172.57 180.96 -19.05 18.35 -172.57 -180.96 19.05 -18.35zm240.68 -239.95l178.34 175.28 -18.43 18.98 -178.34 -175.28 18.43 -18.98zm224.3 -248.53l190.58 161.87 -16.31 19.56 -2.01 2.34 -187.84 -165.05 -0.73 0.84 16.31 -19.56zm193.83 -262.84l210.8 134.49 -13.09 21.22 -2.73 4.17 -207 -140.29 -1.07 1.63 13.09 -21.22zm101.31 -261.51l249.21 20.54 -0.45 8.5 -2.75 24.87 -247.65 -34.61 1.19 -10.8 0.45 -8.5zm-98.59 -248.63l221.08 -116.82 14.87 21.87 -221.08 116.82 -14.87 -21.87zm-216.69 -203.44l165.07 -187.82 20.94 16.15 -165.07 187.82 -20.94 -16.15zm-269.05 -166.95l121.38 -218.6 23.61 11.9 -121.38 218.6 -23.61 -11.9zm-303.27 -140.5l104.44 -227.19 24.38 10.25 -104.44 227.19 -24.38 -10.25zm-314.85 -117.01l89.88 -233.35 24.94 8.81 -89.88 233.35 -24.94 -8.81zm-316.92 -96l65.67 -241.27 0.19 0.04 30.89 9.19 -77.12 237.87 -19.44 -5.79 -0.19 -0.04zm-328.73 -80.91l55.25 -243.87 21.02 4.32 10.05 2.51 -65.67 241.27 0.37 0.09 -21.02 -4.32zm-332.2 -67.35l45.57 -245.87 24.51 4.07 6.41 1.33 -55.25 243.87 3.27 0.67 -24.51 -4.07zm-334.76 -55.17l36.41 -247.39 11.65 1.5 19.09 3.17 -45.57 245.87 -9.93 -1.65 -11.65 -1.5zm-341.09 -44.01l36.41 -247.39 26.24 3.38 -36.41 247.39 -26.24 -3.38zm-337.94 -32.08l27.59 -248.53 26.34 2.46 -27.59 248.53 -26.34 -2.46zm-338.88 -21.95l19 -249.33 26.41 1.56 -19 249.33 -26.41 -1.56zm-339.41 -12.29l10.52 -249.83 26.45 0.67 -10.52 249.83 -26.45 -0.67zm-339.62 -3l2.06 -250.05 26.45 -0.22 -2.06 250.05 -26.45 0.22zm-339.57 6.04l-6.46 -249.97 26.43 -1.13 6.46 249.97 -26.43 1.13zm-339.26 14.85l-15.12 -249.59 8.81 -0.68 21.93 -0.95 6.46 249.97 -13.27 0.57 -8.81 0.68zm-342.87 26.78l-15.12 -249.59 26.38 -2.06 15.12 249.59 -26.38 2.06zm-337.52 35.88l-24 -248.89 26.28 -3.01 24 248.89 -26.28 3.01zm-336.3 44.82l-33.13 -247.85 26.15 -3.99 33.13 247.85 -26.15 3.99zm-334.83 53.74l-42.57 -246.39 25.98 -5 42.57 246.39 -25.98 5zm-337.69 65.13l-42.57 -246.39 25.98 -5.01 42.57 246.39 -25.98 5.01zm-330.16 76.45l-52.39 -244.51 25.75 -6.06 52.39 244.51 -25.75 6.06zm-327.51 86l-62.59 -242.09 25.47 -7.17 62.59 242.09 -25.47 7.17zm-324.52 95.64l-73.23 -239.09 25.11 -8.31 73.23 239.09 -25.11 8.31zm-326.48 108.15l-73.23 -239.09 25.11 -8.31 73.23 239.09 -25.11 8.31zm-315.69 120.95l-84.32 -235.41 24.68 -9.51 84.32 235.41 -24.68 9.51zm-311 131.44l-95.84 -230.95 24.16 -10.75 95.84 230.95 -24.16 10.75zm-305.89 142.07l-107.8 -225.63 23.55 -12.04 107.8 225.63 -23.55 12.04zm-306.22 156.55l-107.8 -225.63 23.55 -12.04 107.8 225.63 -23.55 12.04zm-290.98 169.97l-120.12 -219.3 22.82 -13.36 120.12 219.3 -22.82 13.36zm-283.51 181.16l-132.77 -211.88 21.98 -14.71 132.77 211.88 -21.98 14.71zm-275.57 192.33l-145.61 -203.28 21 -16.07 145.61 203.28 -21 16.07zm-273.13 208.99l-145.61 -203.28 21 -16.07 145.61 203.28 -21 16.07zm-252.76 221.08l-158.47 -193.42 19.89 -17.43 158.47 193.42 -19.89 17.43zm-243.31 227.35l-174.6 -179 18.76 -18.64 174.6 179 -18.76 18.64zm-234.89 243.18l-182.72 -170.69 10.07 -10.91 9.13 -9.65 180.42 173.13 -6.83 7.21 -10.07 10.91zm-229.32 252.93l-186.1 -167.01 17.59 -19.75 186.1 167.01 -17.59 19.75zm-226.08 257.15l-188.1 -164.75 17.42 -19.9 188.1 164.75 -17.42 19.9zm-228.77 258.68l-186.24 -166.85 17.73 -19.63 186.24 166.85 -17.73 19.63zm-237.42 255.23l-179.86 -173.71 14.02 -14.27 3.1 -3.26 182.54 170.89 -5.78 6.08 -14.02 14.27zm-253.3 244.71l-167.85 -185.34 16.31 -14.36 1.11 -1.03 172.55 180.96 -5.81 5.41 -16.31 14.36zm-276.76 224.08l-148.71 -201.02 21.56 -15.31 148.71 201.02 -21.56 15.31zm-305.91 189.75l-121.08 -218.76 23.44 -12.24 121.08 218.76 -23.44 12.24zm-335.07 140.13l-85.1 -235.13 25.12 -8.3 85.1 235.13 -25.12 8.3zm-356.16 79.45l-43.51 -246.23 26.17 -3.85 43.51 246.23 -26.17 3.85zm-364.16 18.07l-1.42 -250.05 26.45 0.57 1.42 250.05 -26.45 -0.57zm-360.93 -35.81l36.75 -247.33 26.07 4.51 -36.75 247.33 -26.07 -4.51zm-351.34 -81.7l70.05 -240.05 17.51 5.52 2.5 0.68 -59.43 242.89 -13.12 -3.52 -17.51 -5.52zm-333.23 -120.17l89.96 -233.31 24.48 10.02 -89.96 233.31 -24.48 -10.02zm-322.37 -157.27l117.2 -220.88 23.11 12.85 -117.2 220.88 -23.11 -12.85zm-304.25 -189.3l142.13 -205.72 13.52 9.73 4.11 2.72 -134.03 211.1 -12.21 -8.1 -13.52 -9.73zm-278.91 -217.33l157.87 -193.92 20.17 17.11 -157.87 193.92 -20.17 -17.11zm-257.58 -250.22l180.56 -172.99 17.88 19.48 -180.56 172.99 -17.88 -19.48zm-226.98 -280.06l202.16 -147.15 15.05 21.75 -202.16 147.15 -15.05 -21.75zm-188.11 -309.95l222.12 -114.84 7.47 15.47 1.29 2.33 -215.74 126.43 -7.67 -13.91 -7.47 -15.47zm-137.67 -338.37l238.71 -74.47 2.63 9.48 2.95 8.48 -233.73 88.9 -7.93 -22.9 -2.63 -9.48zm-72.25 -350.61l248.73 -25.73 0 0 1.04 7.42 -246.37 42.79 -3.4 -24.48 0 0zm-0.65 -10.32l248.73 -25.73 0.65 10.32 -248.73 25.73 -0.65 -10.32zm3.47 -362.93l249.67 13.68 -2.47 26.34 -249.67 -13.68 2.47 -26.34zm78.41 -362.3l240.67 67.85 -8.03 25.21 -240.67 -67.85 8.03 -25.21zm139.71 -338.88l224.09 110.94 -12.2 23.05 2.83 -6.16 -230.07 -97.94 3.15 -6.84 12.2 -23.05zm181.77 -306.51l211.68 133.09 -14.59 22.06 -211.68 -133.09 14.59 -22.06zm215.83 -286.99l193.78 158.03 -17.07 20.19 -193.78 -158.03 17.07 -20.19zm234.96 -262.1l183.06 170.33 -18.3 19.1 -183.06 -170.33 18.3 -19.1zm250.37 -245.46l173.57 180 -19.26 18.13 -173.57 -180 19.26 -18.13zm263.79 -232.89l161.71 190.72 -13.16 10.95 -5.24 4.52 -165.35 -187.56 8.88 -7.68 13.16 -10.95zm270.14 -219.42l155.31 195.96 -20.85 16.27 -155.31 -195.96 20.85 -16.27zm276.23 -210.39l150.05 200.02 -21.25 15.74 -150.05 -200.02 21.25 -15.74zm280.65 -203.25l145.85 203.1 -21.55 15.33 -145.85 -203.1 21.55 -15.33zm283.65 -197.84l142.73 205.3 -21.76 15.03 -142.73 -205.3 21.76 -15.03zm285.74 -194.33l140.03 207.16 -21.93 14.78 -140.03 -207.16 21.93 -14.78z"/>
   </g>
  </g>
 </g>
</svg>
