<?xml version="1.0" encoding="UTF-8"?>
<svg id="Capa_2" data-name="Capa 2" xmlns="http://www.w3.org/2000/svg" viewBox="0 0 57.25 57.11">
  <defs>
    <style>
      .cls-1 {
        fill: #fff;
        stroke-width: 0px;
      }
    </style>
  </defs>
  <g id="Capa_1-2" data-name="Capa 1">
    <g>
      <path class="cls-1" d="M32.26,57.11c-.35,0-.94-.23-1.1-.42-.19-.22.29-.92.31-1.3l.28-6.38c.15-3.38,1.74-6.54,4.5-8.45l3.96-2.29,4.08-3.2c1.31-1.03,3.07-1.02,4.32.39l2.65-6.4c.68-1.64,2.69-2.21,4.2-1.59s2.11,2.31,1.64,4.03l-2.49,9.19c-.69,2.56-1.95,4.72-4,6.44l-6.23,5.22c-1.04,2.33.73,4.75-.89,4.75l-11.23.02ZM36.81,42.27c-2.11,1.71-3.34,4.24-3.41,6.86l-.16,6.3,9.15-.02c.08-1.35-.29-3.22.73-4.09l5.77-4.94c1.55-1.32,3.09-2.88,3.65-4.89l3.01-10.84c.2-.73-.4-1.62-.96-1.79-.45-.14-1.54.15-1.75.68l-3.16,8c-.45,1.14-.83,2.12-1.73,2.97l-4.71,4.45c-.26.24-1.03.22-1.25-.05-.18-.22-.15-.97.06-1.17l5.21-4.95c.56-.53.67-1.56.33-2.12-.32-.52-1.53-.89-2.08-.45l-4.34,3.49c-1.26,1.01-2.99,1.44-4.35,2.54Z"/>
      <path class="cls-1" d="M25.71,55.18c0,.27.63.92.51,1.14s-.43.53-.72.78h-11.5c-1.84-.11.19-3.58-1.17-4.74l-6.08-5.16c-1.35-1.14-2.84-2.66-3.34-4.4L.15,31.46c-.49-1.71.22-3.36,1.66-3.98,1.6-.68,3.56,0,4.27,1.71l2.57,6.23c1.27-1.31,2.99-1.42,4.3-.39l4.22,3.33c1.01.8,2.38,1.24,3.51,1.97,3.01,1.95,4.85,5.39,4.91,9.06l.1,5.78ZM16.17,39.76l-4.08-3.34c-.68-.55-1.71-.51-2.2.03-.5.55-.53,1.63.03,2.17l5.18,4.99c.23.22.22,1.05.02,1.29-.16.2-.81.34-1.04.11l-4.75-4.46c-.97-.91-1.24-1.89-1.7-3.05l-3.11-7.76c-.26-.66-1.29-1.01-1.83-.83s-1.16,1.04-.96,1.74l2.83,10.21c.45,1.64,1.2,3.16,2.51,4.27l5.9,5.01c1.63,1.38,2.35,3.01,1.88,5.32l9.18-.02-.1-6.16c-.04-2.61-1.28-5.15-3.24-6.83-1.32-1.12-3.11-1.54-4.5-2.67Z"/>
      <path class="cls-1" d="M29.88,37.39c-.35.32-.95.68-1.26.65s-.81-.37-1.12-.65c-3.31-2.98-6.64-5.78-9.68-8.97-2.41-2.53-3.41-5.94-2.4-9.16.87-2.76,3.07-4.62,5.44-5.26,3.06-.82,5.81.4,7.85,2.52,1.83-1.85,4.17-3.11,6.85-2.71,2.19.33,4.46,1.58,5.73,3.86,1.82,3.26,1.25,7.38-1.35,10.22-3.14,3.4-6.57,6.29-10.06,9.5ZM38.44,27.04c2.01-2.11,2.71-5.02,1.82-7.57-.8-2.29-2.84-3.77-4.99-4.01-4.46-.51-5.82,3.59-6.62,3.48-.67-.09-2.57-4.38-7.07-3.39-2.29.5-4.23,2.25-4.73,4.84-.4,2.07.14,4.38,1.6,6.08,1.99,2.32,4.27,4.33,6.55,6.39l3.71,3.36c3.33-3.15,6.57-5.87,9.72-9.18Z"/>
      <path class="cls-1" d="M38.75,9.45c-.24.35-1.03.5-1.31.23-.24-.22-.27-.89-.06-1.21l3.06-4.59c.17-.25.79-.44,1.05-.33.32.13.59.94.4,1.21l-3.14,4.69Z"/>
      <path class="cls-1" d="M20.07,8.62c.18.27.07,1.04-.15,1.18-.27.18-1.01.04-1.2-.24l-3.16-4.69c-.17-.26-.06-.97.16-1.15.26-.21,1.06-.09,1.27.22l3.09,4.67Z"/>
      <path class="cls-1" d="M29.54,6.74c0,.33-.66.85-.96.81s-.73-.63-.73-.94V.99c0-.34.44-.97.75-.99.48-.04.96.5.96,1.01l-.02,5.73Z"/>
      <path class="cls-1" d="M13.07,16.2l-4.68-1.76c-.26-.1-.56-.73-.51-.98.06-.29.73-.71,1.01-.6l4.63,1.76c.26.1.57.66.6.9.04.28-.75.79-1.04.68Z"/>
      <path class="cls-1" d="M44.44,16.13c-.32.12-1.01-.22-1.08-.45-.09-.28.21-.92.51-1.04l4.35-1.71c.33-.13.99.13,1.16.4.17.26-.13,1.02-.46,1.14l-4.49,1.65Z"/>
    </g>
  </g>
</svg>