<?xml version="1.0" encoding="UTF-8"?>
<svg id="Capa_2" data-name="Capa 2" xmlns="http://www.w3.org/2000/svg" viewBox="0 0 34.26 39.95">
  <defs>
    <style>
      .cls-1 {
        fill: #fff;
        stroke-width: 0px;
      }
    </style>
  </defs>
  <g id="Capa_1-2" data-name="Capa 1">
    <g>
      <path class="cls-1" d="M14.74,38.87c-4.5-1.57-9.56-1.5-14.22-.8-.26.04-.52-.16-.52-.43v-14.77c0-.2.23-.45.38-.45l1.73-.02v-1.53c0-.13.17-.47.31-.48l1.98-.18c2.94-.26,5.79.28,8.55,1.47.08-1.41-.37-2.75-1.32-3.75-1.78-1.86-2.63-4.32-2.04-6.9.98-4.29,5.37-6.92,9.63-5.72,1.77.5,3.27,1.61,4.31,3.1,2.08,2.98,1.68,6.87-.82,9.43-.99,1.01-1.46,2.37-1.4,3.85,3.19-1.39,6.52-1.8,9.94-1.34.24.03.79.05.85.27l.04,1.79h1.71c.17.01.41.25.41.46v14.78c0,.27-.29.46-.54.43-4.72-.72-9.75-.74-14.28.8-1.24,1.43-3.38,1.44-4.7,0ZM20.4,23.39l.03-2.29c.01-1.35.58-2.77,1.55-3.76,2.48-2.51,2.69-6.36.32-9.05-1.88-2.13-4.85-2.95-7.57-1.93-2.5.94-4.36,3.34-4.43,6.16-.04,1.84.72,3.47,1.96,4.8.96,1.02,1.57,2.37,1.58,3.78v2.3s6.55,0,6.55,0ZM31.23,21.26c-3.35-.48-6.8-.06-9.91,1.4l-.04,1.25c0,.28-.52.44-.86.38.09,1.23-.54,2.59-1.85,2.86-.93.19-1.98.2-2.91,0-1.28-.28-1.91-1.59-1.79-2.84-.37.05-.88-.07-.9-.42l-.04-1.22c-2.68-1.23-5.56-1.75-8.49-1.54l-1.45.11v12.36c4.96-.68,9.61.05,13.67,2.85v-7.95c.02-.17.49-.31.64-.24.13.06.27.3.27.51v7.66c4.07-2.83,8.79-3.49,13.65-2.85v-12.31ZM32.13,34.1c0,.34-.35.45-.63.41-5.03-.73-9.99-.06-14.04,3.11-.16.12-.5.12-.66,0-2.53-1.96-5.5-3.05-8.7-3.32-1.82-.15-3.54-.04-5.35.21-.14.02-.4-.02-.48-.1-.07-.06-.14-.28-.14-.4v-10.68s-1.21-.02-1.21-.02v13.81c4.85-.71,9.77-.63,14.35.97.51.65,1.19.95,1.96.92.68-.03,1.33-.37,1.83-.95,4.61-1.58,9.39-1.63,14.31-.94v-13.8s-1.23,0-1.23,0v10.78ZM18.14,26.33c1.06,0,1.57-1.2,1.28-2.03h-4.59c-.27.88.27,2.04,1.31,2.04h2Z"/>
      <path class="cls-1" d="M6.84,12.93h-1.9c-.21,0-.48-.17-.51-.36-.04-.24.18-.53.42-.53h1.98c.27,0,.52.18.52.42,0,.27-.23.47-.51.47Z"/>
      <path class="cls-1" d="M29.46,12.93h-1.97c-.21,0-.47-.16-.5-.35-.04-.23.19-.53.43-.53h2.08c.16,0,.4.28.41.43,0,.17-.24.45-.43.46Z"/>
      <path class="cls-1" d="M17.6,2.45c0,.29-.22.51-.49.5-.19,0-.42-.25-.42-.47V.49c.01-.21.22-.47.42-.49.25-.02.49.22.49.49v1.96Z"/>
      <path class="cls-1" d="M24.6,5.64c-.16.16-.52.11-.63,0-.13-.15-.11-.5.04-.65l1.48-1.45c.11-.11.4-.06.51.02.12.1.22.48.1.6l-1.5,1.49Z"/>
      <path class="cls-1" d="M10.31,4.97c.16.16.19.5.06.66-.11.13-.47.17-.6.04l-1.49-1.47c-.11-.11-.1-.48,0-.6.13-.15.47-.19.62-.03l1.4,1.4Z"/>
      <path class="cls-1" d="M20.34,16.57c-.15.75-.69,1.25-1.27,1.42-.72.29-1.4-.06-1.92-.51-.52.4-1.18.8-1.91.53-.6-.15-1.15-.72-1.32-1.44-.83-.25-1.42-.95-1.33-1.86-.59-.34-.93-.91-.96-1.56s.29-1.29.91-1.65c-.47-1.19.28-2.19,1.38-2.55.26-.61.72-1.15,1.34-1.31.73-.19,1.36.11,1.91.53.48-.43,1.13-.71,1.81-.54s1.08.63,1.39,1.3c1.22.45,1.79,1.35,1.4,2.57.58.44.95.98.91,1.69-.04.62-.41,1.16-1,1.55.01.84-.47,1.56-1.32,1.84ZM12.8,13.8c.26.2.61-.08.95.2.31.25-.46.63-.28,1.19.06.18.31.43.46.51.15-.39.39-.54.66-.45.69.22-.39,1.36.82,1.89.36.16,1.24-.03,1.24-.61v-7.42c0-.54-.78-.75-1.16-.65-.46.12-.76.49-.78,1.09l-.95.39c-.44.18-.57.76-.47,1.09.16.52.56.62,1.07.68.6.07,1.07.64,1.26,1.22.08.23-.17.5-.39.52-.65.05-.2-.95-1.19-.96-.34,0-.63-.17-.95-.38-.23.13-.52.47-.58.7-.07.28.06.81.27.98ZM21.13,12.16c-.36.16-.66.31-.96.33-.87.05-.56.81-1.08.91-.13.02-.45-.15-.45-.29,0-.81.72-1.42,1.51-1.42.51,0,.88-.43.89-.87,0-1.1-1.39-.9-1.49-1.39-.11-.54-.39-.92-.9-.97-.41-.04-1.06.21-1.06.75v7.23c0,.63.86.88,1.26.72,1.21-.5.17-1.99.95-1.95.16,0,.33.2.55.47.12-.07.37-.3.44-.46.17-.4-.47-1.19-.07-1.26l.56-.09c.39-.06.55-.61.5-.93-.05-.28-.37-.81-.64-.78Z"/>
    </g>
  </g>
</svg>