<?xml version="1.0" encoding="UTF-8"?>
<svg id="Capa_2" data-name="Capa 2" xmlns="http://www.w3.org/2000/svg" viewBox="0 0 37.53 35.97">
  <defs>
    <style>
      .cls-1 {
        fill: #fff;
        stroke-width: 0px;
      }
    </style>
  </defs>
  <g id="Capa_1-2" data-name="Capa 1">
    <g>
      <path class="cls-1" d="M25.92,27.17l-1.93.03c.17,1.08-.63,1.97-1.55,2.04-1.17.09-1.99-.83-1.85-2.04l-9.33.03c-.25,0-.48-.23-.47-.45v-1.99c-.98.05-1.82-.75-1.82-1.7,0-.95.74-1.78,1.83-1.77v-1.66c-.23-.15-.41-.37-.41-.66v-7.56c0-.23.2-.55.43-.55h2.25c-.23-1.24.58-2.2,1.74-2.16,1.05.03,1.89.94,1.64,2.14l2.14-.03c.33,0,.68-.21,1.05-.19,1.31.07,2.58.05,3.85.26l2.36.39c.16.03.41.27.41.44l-.02,1.94c.78-.08,1.46.15,1.88.73s.46,1.4.02,2.04c-.38.55-1.03.86-1.9.72l.03,3.18v6.42c0,.14-.21.42-.33.42ZM16.41,18.88l2.02-.02.04-2.26c.2-.23.74-.26,1.03-.23.69.09,1.22-.36,1.22-.97s-.54-1.04-1.21-.96c-.34.04-.8,0-1.05-.21l-.02-2.53h-2.58c-.5-.59.15-1.56-.62-2.05-.32-.2-.78-.2-1.06.01-.64.5-.1,1.37-.53,2.02l-2.45.03.02,2.25c.8.13,1.64.55,1.83,1.12.32.96-.63,1.79-1.85,1.97v1.81s1.83,0,1.83,0c-.11-.81.03-1.6.66-2.04.63-.44,1.44-.45,2.04,0,.65.47.8,1.2.69,2.05ZM23.63,18.88h1.76s.02-2.26.02-2.26c.48-.51,1.49.12,2.01-.63.22-.31.22-.8,0-1.12-.53-.74-1.55-.12-2-.63l-.02-2.1-1.51-.11-.98-.31-3.66-.25v2.21c.75-.11,1.34.06,1.81.52.4.39.62,1,.46,1.63-.25,1-1.24,1.52-2.27,1.33v1.75s1.74-.01,1.74-.01c.15,0,.39.24.39.38l.02,1.06c.01.52.4.88.87.9.43.01.93-.28.94-.8v-1.04c.02-.22.19-.49.42-.49ZM12.21,15.45c-.04-.43-.59-.57-1.01-.6v1.45c.46-.11,1.05-.38,1.01-.85ZM11.64,26.38h6.25s0-1.63,0-1.63c-.88.14-1.59-.09-2.04-.72s-.4-1.46.06-2.08c.43-.58,1.15-.79,1.98-.67v-1.61s-1.8,0-1.8,0c-.25,0-.47-.22-.47-.47v-1.06c0-.54-.53-.92-.98-.86-.5.06-.84.44-.83.97l.02.97c0,.21-.22.44-.44.45l-1.77.02-.03,2.13c0,.18-.49.31-.68.29-.58-.07-1.16.39-1.12.97.08,1.16,1.33.8,1.65,1.01.1.07.16.33.16.47l.03,1.82ZM21.39,27.3c-.05.72.38,1.15.96,1.11.49-.03.91-.46.86-1.06-.02-.29-.02-.75.19-.95l2-.05v-6.64s-1.34-.01-1.34-.01c-.01.41,0,.8-.11,1.13-.3.94-1.28,1.39-2.12,1.16-.95-.27-1.41-1.16-1.22-2.26l-1.89-.02v1.89c0,.21-.23.48-.43.48h-.96c-.59,0-.98.47-.96.99s.38.91.96.91h.94c.22,0,.45.22.45.46v1.93s2.47,0,2.47,0c.17.2.22.62.2.92Z"/>
      <path class="cls-1" d="M37.2,11.7h-8.26c-.17,0-.47-.2-.47-.34l.04-1.9c.19-1.82,1.63-3.1,3.46-3.44-.88-.41-1.55-1.15-1.78-1.96-.29-1.06-.13-2.05.49-2.87.67-.89,1.75-1.34,2.83-1.14s1.94.95,2.29,2.03c.53,1.6-.2,3.24-1.76,3.92,1.94.38,3.44,1.74,3.47,3.67l.02,1.62c0,.13-.21.41-.33.41ZM35.09,2.74c-.17-1.11-1.05-1.89-2.07-1.9s-1.85.72-2.07,1.75c-.28,1.31.56,2.7,1.95,2.77,1.4.07,2.41-1.23,2.19-2.62ZM36.67,9.71c-.01-1.06-.66-1.93-1.54-2.42-1.44-.81-3.27-.74-4.62.25-1.06.77-1.39,2.13-1.15,3.33h7.32s-.01-1.15-.01-1.15Z"/>
      <path class="cls-1" d="M9.1,8.39c.49,1.12.4,3.32.03,3.32H.54c-.27-.24-.18-.67-.21-.96C.05,8.41,1.43,6.45,3.86,6.02c-.96-.45-1.6-1.2-1.82-2.05-.27-1.07-.05-2.05.62-2.88,1.13-1.39,3.22-1.44,4.4-.07.69.8.94,1.8.68,2.89-.21.88-.87,1.7-1.82,2.11,1.45.29,2.62,1.07,3.19,2.37ZM6.98,2.9c-.12-1.25-1.17-2.18-2.36-2.02s-1.87,1.22-1.85,2.32c.02,1.02.77,2.04,1.89,2.17,1.37.16,2.46-1.05,2.33-2.47ZM8.54,9.51c-.02-.83-.52-1.52-1.16-1.98-1.52-1.08-3.63-1.05-5.1.11-.99.78-1.27,2.07-1.05,3.24h7.35s-.04-1.36-.04-1.36Z"/>
      <path class="cls-1" d="M8.69,35.95H.23c-.19-.29-.23-.6-.22-.92,0-.87,0-1.71.37-2.48.61-1.24,1.73-2.02,3.16-2.33-1.79-.82-2.48-2.95-1.42-4.62.51-.8,1.39-1.3,2.25-1.35.99-.06,1.94.36,2.53,1.16s.81,1.81.49,2.88c-.23.79-.9,1.52-1.78,1.94,1.79.35,3.22,1.57,3.44,3.36l.05,1.98c0,.14-.19.39-.4.39ZM6.68,27.11c-.12-1.33-1.3-2.27-2.54-1.99-1.1.25-1.73,1.23-1.68,2.29.04.99.75,1.98,1.84,2.12,1.37.17,2.5-1,2.37-2.42ZM8.25,35.08l-.03-1.32c-.02-.95-.69-1.8-1.53-2.28-1.21-.69-2.71-.72-3.98-.14-.94.43-1.78,1.29-1.8,2.32l-.04,1.4h7.37Z"/>
      <path class="cls-1" d="M37.52,35.53c0,.13-.2.38-.33.44h-8.63s-.11-1.16-.11-1.16c-.21-2.24,1.23-4.14,3.53-4.55-1.33-.56-2.02-1.78-1.93-3.14s1-2.46,2.37-2.79c1.6-.3,3.08.74,3.44,2.32s-.37,2.96-1.83,3.62c1.87.38,3.3,1.68,3.45,3.52l.04,1.75ZM35.02,26.8c-.25-1.08-1.24-1.83-2.31-1.66-1.17.19-1.89,1.23-1.83,2.37.06,1.04.86,2,1.97,2.09.76.06,1.36-.34,1.77-.85s.57-1.21.4-1.95ZM36.65,34.03c-.02-1.25-.87-2.25-1.96-2.7-.96-.4-1.99-.42-2.98-.15-1.75.48-2.72,2.16-2.35,3.94h7.31s-.01-1.09-.01-1.09Z"/>
      <path class="cls-1" d="M27.02,3.42c-5.06-2.94-11.24-2.95-16.27-.02-.15.09-.47-.03-.54-.15-.1-.19-.02-.49.19-.61,5.23-3.04,11.64-3.04,16.9-.03.16.09.27.33.27.47,0,.15-.34.47-.55.35Z"/>
      <path class="cls-1" d="M26.7,32.34c.29-.16.6.05.64.27s-.08.38-.32.51c-5.15,2.82-11.31,2.8-16.45-.04-.24-.13-.36-.3-.28-.58.06-.21.38-.32.63-.18,4.91,2.69,10.83,2.75,15.77.02Z"/>
      <path class="cls-1" d="M3.45,22.68c.11.31-.02.57-.26.64-.26.08-.47-.09-.57-.38-1.06-3.04-1.34-6.24-.54-9.36.07-.26.38-.42.57-.34.25.1.3.34.23.63-.7,2.92-.46,5.94.57,8.82Z"/>
      <path class="cls-1" d="M35.01,22.93c-.07.21-.22.41-.34.42s-.4-.07-.47-.17c-.08-.11-.05-.35.02-.55,1.01-2.87,1.22-5.89.54-8.86-.05-.21.11-.45.28-.53.14-.07.49.04.54.24.73,3.15.53,6.37-.56,9.45Z"/>
    </g>
  </g>
</svg>