<?xml version="1.0" encoding="UTF-8"?>
<svg id="Capa_2" data-name="Capa 2" xmlns="http://www.w3.org/2000/svg" viewBox="0 0 41.21 39.05">
  <defs>
    <style>
      .cls-1 {
        fill: #fff;
        stroke-width: 0px;
      }
    </style>
  </defs>
  <g id="Capa_1-2" data-name="Capa 1">
    <g>
      <path class="cls-1" d="M36.28,36.97l3.85,1.13c.18.05.22.58.11.72-.13.16-.43.26-.68.18-9.02-2.92-20.07-3.16-29.43-1.89-2.9.39-5.59,1.05-8.35,1.92-.21.07-.54-.14-.6-.3-.08-.22.05-.63.3-.7l5.35-1.44c2.88-.58,5.69-.87,8.56-1.12l-4.77-1.23c-1.71-.44-3.28-1.14-4.74-2.14-2.11-1.44-3.51-3.48-4.41-5.87-.97-2.55-1.33-5.19-1.45-7.93l.22-.47c.05-.11.41-.11.54-.06.9.39,1.95.81,2.98,1.05l3.86.92c2.19.52,4.11,1.49,5.86,2.92l-.02-2.26c0-.85-.36-1.85-1.05-2.41l-6.4-5.25-2.26-2.18c-.69-.66-1.07-1.56-1.11-2.51-.06-1.4.95-2.46,2.36-2.47.75,0,1.39.36,1.98.82l5.2,4.12c1.01.8,2.23,1.2,3.49,1.53,3.03.8,6.21.85,9.28.19,1.52-.33,3.01-.78,4.22-1.73l5.21-4.11c.52-.41,1.09-.75,1.74-.82,1.41-.14,2.48.84,2.55,2.24.05,1.1-.42,2.15-1.26,2.9l-4.75,4.21-3.51,2.79c-1.46,1.17-1.36,2.97-1.3,4.92,1.48-1.18,3.02-2.1,4.85-2.54l4.12-1c1.31-.31,2.53-.7,3.75-1.28l.43.05c.11.01.23.31.23.42-.03,2.83-.49,5.52-1.46,8.16-1.26,3.43-3.78,5.99-7.19,7.31-2.01.78-4.02,1.17-6.21,1.67,3.4.31,6.61.7,9.93,1.5ZM26.82,20.18c.01-1.3.6-2.4,1.56-3.17l4.07-3.28,4.24-3.8c.51-.46.81-1.13.89-1.78.07-.6-.22-1.14-.66-1.36-.47-.24-1.04-.2-1.48.14-1.96,1.52-3.74,3.16-5.83,4.54-3.66,2.41-9.31,2.77-13.55,1.79-1.62-.37-3.23-.84-4.54-1.87l-5.67-4.46c-.5-.39-1.2-.38-1.65-.06-1.04.73-.4,2.44.67,3.37l5.36,4.65,3.02,2.48c.81.67,1.19,1.84,1.2,2.89l.03,3.47c1.15,1.28,1.95,2.78,2.55,4.45.8,2.31,1.12,4.7,1.21,7.16h4.65c.08-2.38.36-4.71,1.13-6.94.63-1.78,1.49-3.35,2.76-4.7l.04-3.52ZM7.3,25.04c3.75,2.54,6.93,5.56,9.8,9.08-.39-5.76-2.36-10.44-7.8-12.7l-4.56-1.25-3.64-1.06c.16,2.68.63,5.23,1.7,7.64,1.9,4.27,5.48,5.94,9.86,6.96l3.32.77c-2.76-3.39-5.81-6.17-9.27-8.58-.22-.18-.3-.49-.19-.7s.49-.35.78-.15ZM33.77,26.34c-3.4,2.29-6.3,5.03-8.78,8.32l4.9-1.09c1.43-.32,2.73-.89,4.01-1.58,2.14-1.27,3.7-3.09,4.65-5.39s1.47-4.8,1.57-7.34l-3.77,1.07-4.42,1.18c-5.51,2.19-7.57,6.92-7.91,12.63,2.7-3.53,5.75-6.46,9.38-8.8.18-.12.62.16.66.33.04.21-.03.49-.31.68Z"/>
      <path class="cls-1" d="M24.2,9.73c-1.98,2-5.03,1.99-7.06.12-2.15-1.99-2.42-5.41-.67-7.75C17.46.75,18.98.04,20.53,0s3.12.65,4.16,1.98c1.79,2.29,1.6,5.63-.5,7.74ZM24.07,8.2c1.4-2.18.9-5.03-1.23-6.48-1.52-1.03-3.57-.85-4.95.38-1.86,1.67-2.01,4.5-.5,6.46.85,1.1,2.1,1.67,3.47,1.6,1.26-.06,2.44-.77,3.21-1.96Z"/>
    </g>
  </g>
</svg>