<?xml version="1.0" encoding="UTF-8"?>
<svg id="Capa_2" data-name="Capa 2" xmlns="http://www.w3.org/2000/svg" viewBox="0 0 48.44 48.1">
  <defs>
    <style>
      .cls-1 {
        fill: #294161;
      }

      .cls-1, .cls-2, .cls-3, .cls-4 {
        stroke-width: 0px;
      }

      .cls-2 {
        fill: #000;
      }

      .cls-3 {
        fill: #c19517;
      }

      .cls-4 {
        fill: #1e804b;
      }
    </style>
  </defs>
  <g id="Capa_1-2" data-name="Capa 1">
    <g>
      <path class="cls-2" d="M24.07,41.04l-3.99-.02v2.04c.02.24-.33.62-.58.62-.23,0-.59-.38-.59-.63v-2.01s-1.7,0-1.7,0l-.09,1.43c-.02.28-.98.34-.98.08l-.04-1.51h-1.75s.02,1.57.02,1.57c0,.16-.37.41-.54.43-.2.02-.66-.21-.65-.41l.02-1.59-3.07-.03-.02,1.88c0,.22-.21.59-.4.7s-.79-.15-.79-.4l.03-2.17h-2.19s.02,5.85.02,5.85h28.84c.38.01.75-.23.75-.6v-10.09c0-.24.37-.63.59-.66.28-.03.68.33.68.66v10.05c-.01.98-.78,1.87-1.86,1.87H2.15c-1.26,0-2.15-.95-2.15-2.21V2.5C-.09.91.99,0,2.49,0h26.7s8.43,8.62,8.43,8.62l.05,7.15c-.15.2-.41.45-.58.53-.2.09-.7-.25-.7-.49v-6.03s-6.17,0-6.17,0c-1.07-.1-1.88-.91-1.88-2V1.22s-26.19,0-26.19,0c-.44,0-.93.46-.93.93v43.73c0,.57.43.99.92.99h3.43s0-6.43,0-6.43c.01-.17.36-.63.56-.63h25.53c.26,0,.6.38.6.58l-.02,2.64c0,.2-.26.58-.45.63-.22.06-.72-.26-.73-.49l-.02-2.15h-2.41s-.07,1.61-.07,1.61c-.01.29-1.02.27-1.03-.01l-.04-1.6-2.34-.02-.04,2.07c0,.16-.23.42-.36.49-.16.08-.68-.13-.68-.32l-.03-2.22ZM30.61,8.58l5.18-.05-6.25-6.46-.02,5.53c-.02.59.41,1.07,1.09.97Z"/>
      <path class="cls-2" d="M26.38,37.75c-.2.07-.63.07-.72-.06-.11-.15-.18-.49-.2-.74l2.38-7.42,13.89-15.18c1.38-1.5,3.79-1.13,5.24.08s2.06,3.74.66,5.32l-13.93,15.65-7.32,2.35ZM45.94,19.78c1.58-1.23,1.53-3.14.29-4.36s-3.17-1.08-4.25.46l3.96,3.89ZM31.42,31.29l11.55-12.71-1.82-1.76-11.66,12.78,1.94,1.7ZM33.59,33.69l11.54-12.92-1.35-1.29-11.55,12.73,1.36,1.48ZM29.3,35.53l3.34-1.06-3.86-3.86-1.12,3.45,1.64,1.46Z"/>
      <path class="cls-2" d="M23.81,32.79c-.24.45-2.07.48-2.51-.2l-.07-5.34c0-.42.53-.8.88-.8h2.13s0-4.37,0-4.37h-12.03s-.08,2.91-.08,2.91c0,.28-.99.3-1.1.02l-.07-3.42c0-.21.32-.73.56-.73h6.03s0-4.7,0-4.7l-2.1.02c-.62,0-1.15-.41-1.15-1.07v-5.3c-.01-.69.44-1.24,1.17-1.24h5.49c.59,0,1.05.49,1.05,1.06v5.51c0,.58-.46,1.04-1.04,1.04h-2.16s-.02,4.7-.02,4.7l5.91-.04c.32,0,.79.32.79.65l.02,4.96,1.6.12c.16.01.22.59.1.72-.14.15-.54.38-.75.38h-4.03s0,4.25,0,4.25l1.2.09c.2.02.28.61.18.79ZM20.84,14.96v-5.19s-5.31.01-5.31.01v5.19s5.31-.01,5.31-.01Z"/>
      <path class="cls-2" d="M12.63,26.6c1.84.54,2.83,2.26,2.57,3.93-.28,1.81-1.82,3.11-3.58,3.07s-3.21-1.34-3.45-3.04c-.27-1.89.85-3.37,2.67-4.04l1.1-.56c.1.23.36.55.69.65ZM12.97,32.05c.86-.61,1.19-1.6,1.01-2.48s-.78-1.59-1.68-1.84c-1.11-.3-2.21.27-2.68,1.15-.53,1-.29,2.18.45,2.89s1.97.94,2.91.28Z"/>
      <path class="cls-4" d="M30.61,8.58c-.68.1-1.11-.38-1.09-.97l.02-5.53,6.25,6.46-5.18.05Z"/>
      <polygon class="cls-1" points="31.42 31.29 29.49 29.59 41.15 16.82 42.97 18.58 31.42 31.29"/>
      <polygon class="cls-3" points="33.59 33.69 32.23 32.21 43.78 19.48 45.13 20.77 33.59 33.69"/>
      <path class="cls-1" d="M45.94,19.78l-3.96-3.89c1.09-1.54,3.04-1.64,4.25-.46s1.29,3.13-.29,4.36Z"/>
      <polygon class="cls-3" points="29.3 35.53 27.66 34.06 28.78 30.61 32.64 34.47 29.3 35.53"/>
      <rect class="cls-4" x="15.54" y="9.78" width="5.3" height="5.19" transform="translate(-.02 .04) rotate(-.11)"/>
      <path class="cls-4" d="M12.97,32.05c-.94.67-2.15.46-2.91-.28s-.98-1.89-.45-2.89c.47-.88,1.58-1.45,2.68-1.15.91.25,1.51,1,1.68,1.84.18.88-.16,1.87-1.01,2.48Z"/>
    </g>
  </g>
</svg>