<?xml version="1.0" encoding="UTF-8"?>
<svg id="Capa_2" data-name="Capa 2" xmlns="http://www.w3.org/2000/svg" viewBox="0 0 51.22 42.01">
  <defs>
    <style>
      .cls-1 {
        fill: #fff;
        stroke-width: 0px;
      }
    </style>
  </defs>
  <g id="Capa_1-2" data-name="Capa 1">
    <g>
      <path class="cls-1" d="M45.61,6.51c2.84,7.33-1.67,14.37-6.71,19.69-3.76,3.97-7.98,7.36-12.49,10.44-.38.26-.85.22-1.21-.03-3.82-2.58-7.39-5.36-10.68-8.6-3.82-3.77-8.14-8.93-9.15-14.23-.67-3.51,0-7.16,2.25-9.96C10.19.63,14.38-.62,18.37.3c3.11.72,5.65,2.64,7.5,5.26l1.65-1.92C29.96,1.2,33.26-.22,36.74.03c4.03.29,7.42,2.74,8.87,6.48ZM44.78,7.88c-1.08-3.73-4.19-6.33-8.11-6.62-4.29-.32-7.82,2.05-10.22,5.54-.13.19-.47.41-.66.39s-.46-.26-.6-.46c-1.61-2.4-3.79-4.28-6.57-5.09-3.73-1.08-7.72.02-10.13,3.08-3.16,4.02-2.61,9.44-.07,13.78,1.57,2.72,3.44,5.1,5.64,7.37,3.57,3.68,7.49,6.88,11.77,9.74,5.55-3.85,11.67-8.84,15.55-14.27,2.93-4.11,4.84-8.44,3.4-13.46Z"/>
      <path class="cls-1" d="M9.98,32.3c.25.28.27.7.03.89-.3.25-.68.16-.94-.13l-3.6-4.01c-.76-.83-.93-1.89-.46-2.92l-1.68-6.61c-.14-.57-.85-.83-1.29-.75-.48.08-.93.58-.87,1.2.34,3.69.83,7.31,1.45,10.96.18,1.05.7,1.74,1.45,2.41l5.59,5.02c.97.87,1.65,3.44.74,3.62-1.13.22-.5-1.78-1.45-2.63l-5.66-5.09c-.99-.89-1.64-1.83-1.86-3.17C.82,27.44.32,23.83,0,20.11c-.05-.62.19-1.37.56-1.79.62-.71,1.59-.85,2.46-.58.76.23,1.36.93,1.58,1.83l1.42,5.71c1.02-.36,2.02-.12,2.77.6l3.49,3.32,1.96,1.18c2.06,1.24,3.34,3.21,3.6,5.61l.56,5.26c.03.31-.23.63-.5.69-.25.05-.64-.18-.67-.47l-.55-5.22c-.22-2.08-1.24-3.78-3.05-4.86l-1.95-1.17-3.85-3.61c-.46-.44-1.18-.44-1.6-.07-.4.35-.46,1.09-.03,1.57l3.78,4.21Z"/>
      <path class="cls-1" d="M41.94,33.3c-.28.05-.63.02-.77-.11s-.14-.64,0-.79l3.92-4.35c.39-.44.28-1.2-.11-1.53-.42-.35-1.15-.37-1.62.08l-3.68,3.52-2.12,1.28c-1.67,1-2.73,2.6-2.96,4.55l-.66,5.64c-.03.25-.59.42-.78.32-.25-.13-.39-.47-.35-.8l.72-5.87c.26-2.14,1.68-3.85,3.48-4.9l1.9-1.11,3.28-3.16c.81-.78,1.83-1.24,2.99-.79l1.51-6c.2-.8.95-1.39,1.55-1.57.87-.25,1.69-.11,2.32.53.38.39.7,1.11.65,1.73-.3,3.89-.77,7.67-1.51,11.48-.25,1.27-1.01,2.13-1.93,2.95l-5.47,4.9c-.84.75-.5,2.39-1.08,2.66-.16.07-.57.01-.7-.11-.15-.13-.17-.52-.14-.75.16-1.41.75-2.41,1.75-3.3l5.34-4.75c.62-.55.96-1.26,1.11-2.09.65-3.67,1.13-7.28,1.43-10.99.05-.63-.37-1.12-.88-1.2-.44-.06-1.12.2-1.27.77l-1.69,6.58c.46.88.38,1.78-.13,2.6l-4.11,4.55Z"/>
      <path class="cls-1" d="M36.49,14.05c2.02,6.8-4.83,12.95-10.3,16.23-.33.2-.82-.03-1.12-.22-3.98-2.51-8.5-6.26-9.93-10.8-1.2-3.83.15-8.09,4.04-9.24,2.4-.71,4.92.06,6.63,1.93,1.07-1.12,2.28-1.82,3.72-2.08,3.08-.56,5.99,1.19,6.95,4.17ZM35.42,18.46c.4-1.55.37-3.02-.22-4.44-.71-1.74-2.27-2.89-4.16-3.04s-3.47.67-4.62,2.08c-1.04,1.28-1.28-1.19-4.16-1.94-2.77-.72-5.48.93-6.15,3.71-.47,1.96-.1,3.88.81,5.68,1.95,3.61,5.41,6.43,8.92,8.62,3.95-2.54,8.31-6.05,9.58-10.66Z"/>
      <path class="cls-1" d="M25.55,23.46c1.74.15,2.03-1.62,2.81-1.21.23.12.4.6.25.82-.7,1.06-1.83,1.65-3.05,1.57-1.12-.07-2.27-.72-2.78-1.84-.08-.18.17-.6.34-.68.74-.34.86,1.21,2.44,1.34Z"/>
      <path class="cls-1" d="M29.6,18.39c1.34.12,1.32-1.49,2.15-1.13.26.11.42.54.27.85-.48.97-1.4,1.5-2.43,1.46-.96-.04-1.9-.6-2.31-1.59-.12-.29.06-.73.33-.79.93-.22.62,1.09,1.98,1.21Z"/>
      <path class="cls-1" d="M21.84,18.14c1.33-.05,1.27-1.44,2.06-1.16.27.09.45.52.32.8-.46.98-1.38,1.53-2.37,1.52s-1.95-.49-2.38-1.49c-.13-.3.02-.75.3-.84.91-.27.68,1.22,2.07,1.17Z"/>
    </g>
  </g>
</svg>