<?xml version="1.0" encoding="UTF-8"?>
<svg id="Capa_2" data-name="Capa 2" xmlns="http://www.w3.org/2000/svg" viewBox="0 0 45.45 49.08">
  <defs>
    <style>
      .cls-1 {
        fill: #294161;
      }

      .cls-1, .cls-2, .cls-3, .cls-4 {
        stroke-width: 0px;
      }

      .cls-2 {
        fill: #000;
      }

      .cls-3 {
        fill: #c19517;
      }

      .cls-4 {
        fill: #1e804b;
      }
    </style>
  </defs>
  <g id="Capa_1-2" data-name="Capa 1">
    <g>
      <path class="cls-2" d="M27.35,39.57l-.04-2.77h-2.04s.02,2.53.02,2.53c0,.25-.33.65-.58.67-.34.03-.73-.36-.73-.68l.03-2.52h-2.24s0,5.58,0,5.58c.4.15.74.37.79.59.07.25-.19.89-.44.98-.53.2-1.17.19-1.74.05-.26-.06-.58-.63-.56-.89.01-.29.34-.59.7-.8v-5.51s-2.21-.03-2.21-.03l-.04,2.66c0,.21-.37.53-.57.53s-.64-.33-.65-.52l-.03-2.65h-2.12s-.04,2.48-.04,2.48c0,.21-.32.54-.48.64s-.74-.13-.74-.34l-.03-2.72c-2.53-.36-3.84-2.08-3.46-4.85h-2.69c-.29,0-.66-.36-.64-.65,0-.24.39-.63.64-.63l2.64.04v-2.53s-2.57,0-2.57,0c-.29,0-.67-.42-.67-.65s.37-.62.62-.62h2.61s-.02-.99-.02-.99l-3.18.02c-.02-.15.33-.5.49-.5h2.64s.09-1.22.09-1.22l-2.48.02c-.31,0-.7-.33-.71-.66,0-.29.41-.63.72-.62l2.43.03-.02-1.02-2.96-.02-.09-.15,3.07-.03.04-1.35-2.59.03c-.26,0-.66-.39-.64-.62s.38-.63.61-.63l2.65-.02c-.32-2.15,1.14-4.21,3.38-4.24l3.44-.05-.03-10.66c-1.1-.44-1.73-1.33-1.49-2.5C15.63.79,16.51-.04,17.67,0c.99.03,1.88.78,2.09,1.81.23,1.12-.48,2.03-1.58,2.52l-.02,10.63h2.34s.04-3.15.04-3.15c0-.18.33-.45.47-.52.17-.08.72.14.73.34l.05,3.3,2.3.03.02-3.18c0-.26.58-.52.78-.43s.49.47.49.73v2.88s2.55,0,2.55,0l.03-4.39,6.11-4.29c-.09-1.17.26-2.23,1.35-2.67.96-.39,2.07-.07,2.66.8.62.92.43,2.11-.27,2.8-.86.85-2.02.76-3,.09l-5.56,3.83-.03,3.85c2,.53,3.2,2.08,2.9,4.24h2.51c.23.01.65.28.73.5.08.2-.23.71-.47.71l-2.72.04v1.33s3.08.13,3.08.13c-1.03.45-1.89.17-2.98.18l-.13.97h2.6c.21,0,.56.36.59.56.03.24-.36.67-.61.68l-2.57.02.05,1.08h2.64c.11,0,.45.19.39.25s-.31.26-.39.26l-2.63-.02-.05,1.11h2.55c.24-.01.63.36.67.57.04.24-.37.69-.63.69h-2.56s-.05,2.48-.05,2.48l5.42.04,3.72,3.5v3.97c.97.42,1.62,1.26,1.52,2.29-.09,1.03-.95,1.85-2.01,1.92s-2-.63-2.19-1.66.27-2.1,1.46-2.47v-3.56s-2.93-2.79-2.93-2.79h-5.05c.47,2.51-.97,4.6-3.51,4.79l-.05,2.62c0,.18-.28.49-.42.57-.17.1-.75-.17-.75-.43ZM17.29,1.24c-.58.2-.77.85-.6,1.28s.75.75,1.15.62c.53-.17.77-.73.67-1.21-.09-.44-.64-.88-1.22-.68ZM36.11,4.66c-.62.12-.93.74-.83,1.16.12.53.6.91,1.07.83.57-.1.89-.56.85-1.13-.03-.41-.5-.97-1.09-.86ZM28.34,35.61c1.13,0,2.57-.77,2.57-2.02l.04-14.98c0-1.72-1.36-2.46-2.89-2.45l-14.54.04c-1.16,0-2.2,1.08-2.2,2.23v14.86c0,1.22,1.09,2.31,2.3,2.31h14.72ZM40.23,39.56c-.53.3-.56.99-.31,1.33.28.38.83.47,1.13.32.55-.28.68-.86.47-1.27s-.81-.65-1.28-.38Z"/>
      <path class="cls-2" d="M28.11,44.89c1.12-.17,2.07.37,2.42,1.26.42,1.07.01,2.17-.92,2.66s-2.02.3-2.67-.46c-.72-.83-.61-2,.15-2.89l-1.49-2.56c-.24-.41-.41-1.23-.25-1.63.06-.17.59-.38.72-.27.15.13.26.42.41.7l1.63,3.19ZM28.07,46.2c-.52.33-.51,1.03-.17,1.38.22.23.86.36,1.16.16.36-.24.43-.89.25-1.24-.21-.4-.8-.59-1.24-.3Z"/>
      <path class="cls-2" d="M37.42,28.44c-.19,0-.56-.37-.6-.55-.05-.21.28-.67.51-.67h4.13c.44-.97,1.24-1.51,2.22-1.38s1.74.97,1.78,1.95-.64,1.83-1.48,2.04c-1.06.26-2.05-.2-2.46-1.37h-4.09ZM43.16,27.06c-.59.25-.67.83-.44,1.25.15.26.69.44,1.05.3s.58-.67.43-1.08c-.11-.31-.69-.62-1.04-.47Z"/>
      <path class="cls-2" d="M15.44,45.35c.53.57.86,1.36.68,2.09s-.76,1.43-1.59,1.6c-1.32.27-2.46-.67-2.54-1.95s.93-2.32,2.35-2.26l1.55-3.16c.11-.23.22-.52.36-.61s.52-.03.66.06c.18.11.29.7.2.88l-1.68,3.34ZM13.63,46.2c-.42.23-.53.91-.31,1.25.24.35.81.52,1.21.31.34-.18.53-.76.39-1.07-.2-.47-.69-.82-1.3-.49Z"/>
      <path class="cls-2" d="M37.05,22.61c-.22,0-.61-.35-.65-.54-.05-.22.35-.67.58-.67h2.4c.4-.99,1.3-1.54,2.24-1.39,1.02.17,1.76,1.07,1.71,2.09-.05.95-.74,1.79-1.69,1.96-1.01.18-1.97-.44-2.32-1.47l-2.27.02ZM41.15,21.2c-.59.15-.77.67-.59,1.2.1.29.59.54,1.02.41.31-.1.57-.6.5-1.01-.05-.32-.56-.69-.94-.6Z"/>
      <path class="cls-2" d="M25.09,9.75c0,.17-.32.5-.45.57-.16.09-.68-.14-.69-.32l-.06-1.78c-.76-.39-1.35-1.03-1.47-1.72-.16-.89.24-1.83,1.01-2.25,1.16-.63,2.48-.1,2.96,1.03.47,1.11-.06,2.35-1.27,2.88l-.03,1.6ZM23.99,5.34c-.53.35-.48,1.01-.19,1.35.24.28.83.38,1.15.17.36-.23.45-.88.25-1.26-.17-.31-.86-.5-1.21-.26Z"/>
      <path class="cls-2" d="M5.25,22.47c.26,0,.52.6.41.77s-.47.45-.69.46l-1.04.03c-.42.96-1.32,1.47-2.27,1.3S-.02,23.91,0,22.96s.73-1.79,1.64-1.94c1.07-.17,1.95.4,2.31,1.45h1.29ZM1.78,22.24c-.5.17-.67.71-.48,1.11.17.35.69.6,1.05.43s.58-.71.44-1.05-.64-.62-1.01-.49Z"/>
      <path class="cls-2" d="M4.94,30.62c.19.02.54.13.65.25s-.07.59-.2.68c-.29.2-.83.26-1.28.27-.42.8-1.13,1.44-1.99,1.44-.92,0-1.7-.55-2-1.46-.36-1.1.25-2.25,1.21-2.56,1.12-.37,2.25.16,2.65,1.3l.96.08ZM1.74,30.42c-.45.18-.6.8-.41,1.13.24.42.76.57,1.07.42.46-.22.67-.83.49-1.14-.22-.4-.72-.59-1.16-.41Z"/>
      <path class="cls-3" d="M28.34,35.61h-14.72c-1.21-.01-2.3-1.1-2.3-2.32v-14.86c0-1.15,1.03-2.22,2.2-2.23l14.54-.04c1.53,0,2.89.73,2.89,2.45l-.04,14.98c0,1.25-1.44,2.02-2.57,2.02Z"/>
      <path class="cls-4" d="M36.11,4.66c.58-.12,1.06.45,1.09.86.04.58-.27,1.04-.85,1.13-.47.08-.95-.3-1.07-.83-.1-.42.21-1.03.83-1.16Z"/>
      <path class="cls-1" d="M17.29,1.24c.58-.2,1.13.25,1.22.68.1.49-.14,1.05-.67,1.21-.4.13-.98-.18-1.15-.62s.02-1.08.6-1.28Z"/>
      <path class="cls-4" d="M40.23,39.56c.47-.26,1.07-.02,1.28.38s.08.99-.47,1.27c-.29.15-.85.06-1.13-.32-.25-.34-.22-1.03.31-1.33Z"/>
      <path class="cls-1" d="M28.07,46.2c.44-.29,1.04-.1,1.24.3.18.35.11,1-.25,1.24-.3.2-.94.07-1.16-.16-.34-.35-.35-1.05.17-1.38Z"/>
      <path class="cls-1" d="M43.16,27.06c.36-.15.93.16,1.04.47.15.41-.06.94-.43,1.08s-.9-.03-1.05-.3c-.23-.42-.16-1,.44-1.25Z"/>
      <path class="cls-1" d="M13.63,46.2c.6-.33,1.09.02,1.3.49.13.31-.05.88-.39,1.07-.4.21-.98.05-1.21-.31-.22-.33-.11-1.02.31-1.25Z"/>
      <path class="cls-4" d="M41.15,21.2c.38-.09.88.27.94.6.07.41-.19.91-.5,1.01-.43.14-.92-.12-1.02-.41-.19-.53,0-1.05.59-1.2Z"/>
      <path class="cls-4" d="M23.99,5.34c.36-.23,1.05-.04,1.21.26.21.38.12,1.02-.25,1.26-.33.21-.91.11-1.15-.17-.29-.34-.34-1,.19-1.35Z"/>
      <path class="cls-4" d="M1.78,22.24c.38-.13.87.12,1.01.49s-.06.88-.44,1.05-.89-.08-1.05-.43c-.19-.4-.01-.93.48-1.11Z"/>
      <path class="cls-4" d="M1.74,30.42c.44-.17.94.01,1.16.41.17.31-.04.93-.49,1.14-.31.15-.82,0-1.07-.42-.19-.33-.04-.95.41-1.13Z"/>
    </g>
  </g>
</svg>