<?xml version="1.0" encoding="UTF-8"?>
<svg id="Capa_2" data-name="Capa 2" xmlns="http://www.w3.org/2000/svg" viewBox="0 0 43.72 26.58">
  <defs>
    <style>
      .cls-1 {
        fill: #fff;
        stroke-width: 0px;
      }
    </style>
  </defs>
  <g id="Capa_1-2" data-name="Capa 1">
    <g>
      <path class="cls-1" d="M42.82,20.13c-.86-1.1-2.48-1.49-3.65-2.11-.45-.24-.92-.45-1.37-.7.43-.08.42-.77-.05-.74-.32.02-.64.03-.96.04-.43-.39-.8-.84-1.16-1.3.47-.05.47-.78,0-.75-.2.02-.39.02-.59.02-.38-.42-.75-.85-1.11-1.28.02,0,.03,0,.05,0,.48-.04.48-.79,0-.75-.21.02-.43.02-.64.03-.33-.42-.66-.84-.97-1.28.01,0,.02,0,.03,0,.48-.04.48-.79,0-.75-.18.01-.35.01-.53.02-.17-.25-.34-.5-.5-.76-.09-.15-.18-.33-.28-.51.02,0,.04,0,.05,0,.48-.04.48-.79,0-.75-.14.01-.28,0-.41.02-.41-.84-.89-1.73-1.58-2.02-.1-.04-.2-.07-.3-.09-.12-.37-.26-.75-.41-1.11-.07-.18-.12-.34-.28-.46-.47-.33-1.44-.24-1.95-.12-1.51.33-1.76,1.68-1.84,3.02h0c-.42.11-.84.16-1.27.06-1.1-.24-2.51-1.22-3.1-2.15-.54-.85-.2-2.2-1.08-2.79-.09-.06-.19-.11-.29-.14.73-1.01.32-2.62-1.13-2.77-.57-.06-1.12.31-1.1.93,0,.37.29.62.46.92.28.49.18,1.11-.23,1.5,0,0,0,0,0,0-1.82,1.49-4.89,3.26-4.46,6.02-1.71.72-1.63,3.5-.62,4.76,1.86,2.3,4.85,3.49,7.46,4.68,1.34.61,2.69,1.22,3.93,2.03,1.61,1.04,2.87,2.45,4.36,3.65,2.31,1.86,4.21,2.04,7.07,2.07,1.66.02,3.32.02,4.97-.1,1.16-.09,2.17-.11,3.07-.91,1.6-1.42,1.75-3.72.42-5.43ZM41.58,20.03c.78.67,1.34,1.72,1.38,2.75-2.03,1.25-5.18,1.04-7.46.81-1.09-.11-2.11-.38-3.08-.77.48-1.47,2.56-1.8,3.84-1.65.61.07,1.25.22,1.87.12,1.03-.16,1.9-1.01,2.43-1.89.39.19.75.4,1.03.64ZM29.84,8.62c-.52,0-1.05,0-1.57-.04-.48-.03-.48.72,0,.75.68.04,1.36.04,2.03.02.25.44.48.89.7,1.28-.49,0-.98,0-1.48-.04-.48-.03-.48.72,0,.75.65.04,1.3.04,1.95.02.29.43.58.86.89,1.27-.42,0-.84,0-1.27-.04-.48-.03-.48.72,0,.75.62.04,1.23.04,1.85.02.34.43.68.85,1.04,1.26-.41,0-.82,0-1.23-.04-.48-.03-.48.72,0,.75.62.04,1.24.04,1.86.02.37.42.74.84,1.12,1.25-.29,0-.57,0-.86-.02-.48-.03-.48.72,0,.75.55.04,1.11.04,1.66.03.21.16.43.3.66.44-2.44,1.44-4.7-1.68-6.09-3.34-1.77-2.11-3.19-4.44-4.51-6.86.49-.22.98-.38,1.37-.34.78.08,1.37.64,1.86,1.34ZM26.3,5.53c.32-.09.97-.17,1.28,0,.2.11.38.58.49.94-.69.1-1.4.42-1.92.63-.33.13-.67.29-1.02.43.06-.86.2-1.74,1.16-2.01ZM17.73.86c.68.36.69,1.27.08,1.7-.02.02-.04.04-.05.06.03-.32,0-.64-.14-.92-.1-.2-.28-.36-.37-.56-.18-.4.18-.44.48-.28ZM17.34,3.74c1.05-.89,1.35.87,1.62,1.61.25.69.77,1.37,1.33,1.84,1.31,1.1,3.01,1.83,4.65,1.23.27-.1.62-.28.99-.47.17.32.36.62.54.94-1.82.73-3.45.96-5.36.28-2.35-.84-3.56-2.82-4.04-5.19.1-.08.19-.15.28-.23ZM16.41,4.46c1.17,4.96,5.77,7.02,10.43,5.08,1.5,2.53,3.16,4.88,5.09,7.13,1.48,1.73,3.98,2.95,6,1.54.1.05.2.1.31.16.46.24,1.05.46,1.62.7-.61.97-1.49,1.5-2.68,1.45-.74-.03-1.45-.26-2.19-.18-1.23.13-2.79.93-3.26,2.16-1.44-.68-2.78-1.6-4.06-2.66-.05-.04-.09-.08-.14-.12.05-.04.1-.09.13-.16.73-1.78-.08-3.9-1.51-5.09-1.68-1.41-3.68-1.5-5.73-1.04-.06.01-.11.04-.15.07-2.38-1.49-4.87-2.83-7.35-4.12-.45-2.18,1.8-3.71,3.49-4.94ZM26.98,19.25c-1.92-1.72-3.54-3.69-5.74-5.13-.03-.02-.06-.04-.09-.06,1.49-.26,2.9-.16,4.22.76,1.38.96,2.2,2.81,1.61,4.43ZM42.02,24.87c-1.19.94-2.87.89-4.32.93-2.24.07-5.13.47-7.27-.28-2.48-.86-4.13-3.15-6.18-4.67-2.09-1.56-4.55-2.49-6.89-3.6-1.3-.62-2.57-1.29-3.71-2.17-.63-.49-1.49-1.14-1.87-1.85-.44-.84-.28-2.79.79-3.19,3.08,1.59,6.28,3.22,9.09,5.25,2.86,2.08,4.97,4.94,7.96,6.89,2.19,1.43,4.42,2.09,7.03,2.21,1.95.09,4.35.17,6.19-.71-.14.44-.4.84-.82,1.17Z"/>
      <path class="cls-1" d="M15.48,14.39c-.95-.39-2.41-1.4-2.46-2.55-.02-.48-.77-.48-.75,0,.07,1.53,1.72,2.75,3.01,3.27.45.18.64-.54.2-.72Z"/>
      <path class="cls-1" d="M16.28,15.06c-.48,0-.48.75,0,.75s.48-.75,0-.75Z"/>
      <path class="cls-1" d="M13.3,18.61c-1.89,0-3.79-.07-5.68-.07-.48,0-.48.75,0,.75,1.89,0,3.79.08,5.68.07.48,0,.48-.75,0-.75Z"/>
      <path class="cls-1" d="M3.88,19.32c.43,0,.86,0,1.3,0,.48,0,.48-.74,0-.75-.43,0-.86,0-1.3,0-.48,0-.48.74,0,.75Z"/>
      <path class="cls-1" d="M11.95,21.68c-2.73.06-5.49-.11-8.22.05-.48.03-.48.78,0,.75,2.72-.15,5.49.01,8.22-.05.48,0,.48-.76,0-.75Z"/>
      <path class="cls-1" d="M17.37,21.76c-1.08-.08-2.17,0-3.25-.02-.48,0-.48.74,0,.75,1.08.01,2.17-.06,3.25.02.48.04.48-.71,0-.75Z"/>
      <path class="cls-1" d="M1.74,21.73c-.45-.04-.92-.04-1.38,0-.48.04-.48.79,0,.75.45-.04.92-.04,1.38,0,.48.04.48-.71,0-.75Z"/>
    </g>
  </g>
</svg>