<?xml version="1.0" encoding="UTF-8"?>
<svg id="Capa_2" data-name="Capa 2" xmlns="http://www.w3.org/2000/svg" viewBox="0 0 26.34 24.04">
  <defs>
    <style>
      .cls-1 {
        fill: #fff;
        stroke-width: 0px;
      }
    </style>
  </defs>
  <g id="Capa_1-2" data-name="Capa 1">
    <path class="cls-1" d="M20.23.15c-2.88-.44-5.78,1-6.96,3.4-.55-1.06-1.47-2-2.6-2.63C8.63-.22,6.61-.3,4.31.67,2.1,1.6.85,4.18.52,4.95c-.92,2.13-.43,4.71.1,6.71.08.3.37.46.67.38.31-.08.48-.37.4-.67-.76-2.89-.99-6.83,2.27-9.23,1.45-1.06,3.85-1.37,5.36-.68,1.56.71,3.26,2.16,3.39,4.09.02.3.25.53.54.53h0c.26,0,.53-.18.56-.52.13-1.48,1.02-2.79,2.44-3.6,1.62-.93,3.59-1.04,5.15-.31,3.36,1.59,4.53,6.01,3.51,9.15-.52,1.61-2.39,1.54-4.05,1.47-.34-.01-.67-.02-.96-.02h-.62c-.82,0-1.64.01-2.46,0-.26,0-.45,0-.58,0-.13-.24-.38-.93-.47-1.18l-.08-.23c-.1-.26-.35-.41-.59-.37-.26.03-.46.24-.49.51-.14,1.08-.38,2.15-.61,3.2-.05-.5-.1-1-.14-1.5-.15-1.61-.31-3.28-.58-4.9-.04-.25-.25-.42-.51-.43,0,0-.01,0-.02,0-.27,0-.49.17-.55.41l-1.02,4.4-.33-1.47c-.06-.25-.29-.44-.57-.42-.27,0-.47.18-.51.43l-.04.25c-.04.3-.16,1.22-.31,1.34-.1.04-.52,0-.71-.02-.14-.01-.26-.03-.34-.03l-3.34-.02c-.12,0-.24,0-.37,0-.86-.02-1.92-.05-2.52.56-.3.3-.45.74-.43,1.28.03.94.75,1.83,1.34,2.54l.19.24c.74.93,1.65,1.8,2.87,2.75,1.63,1.28,3.43,2.34,5.17,3.38.54.33,1.09.65,1.63.98.09.05.18.08.28.08s.19-.02.28-.07c4.02-2.19,7.46-5.12,10.51-8.96.13-.16.16-.38.09-.57-.08-.2-.25-.34-.44-.37-.18-.03-.35.04-.47.19-2.31,2.9-4.42,4.96-6.63,6.49-.17.12-.39.29-.64.48-.84.65-2.11,1.65-2.83,1.54-.27-.04-.67-.33-1-.57-.17-.13-.33-.24-.47-.32-.64-.38-1.28-.76-1.91-1.16-1.14-.72-2.63-1.69-3.96-2.88-1.03-.93-2.93-2.95-2.71-3.96.06-.25.26-.43.62-.54.58-.18,1.46-.1,2.24-.03.38.03.74.06,1.06.07l2.85.02h0c.18,0,.35-.09.45-.24l.37,1.67c.05.25.27.41.54.42.27,0,.49-.16.54-.41l.88-3.79c.06.62.12,1.24.18,1.84.15,1.61.31,3.28.58,4.91.04.26.24.45.5.43.26,0,.55-.2.59-.52.14-1.12.39-2.24.64-3.32.11-.49.23-1,.33-1.51.2.23.48.42.89.49.97.16,2.04.1,3.08.05.47-.02.94-.05,1.38-.05.25,0,.52,0,.8.02,1.17.04,2.5.09,3.44-.67.96-.78,1.2-2.08,1.31-3.39.35-4-1.83-8.52-6.08-9.16Z"/>
  </g>
</svg>