<?xml version="1.0" encoding="UTF-8"?>
<svg id="Capa_2" data-name="Capa 2" xmlns="http://www.w3.org/2000/svg" viewBox="0 0 57.38 14.81">
  <defs>
    <style>
      .cls-1 {
        fill: #fff;
        stroke-width: 0px;
      }
    </style>
  </defs>
  <g id="Capa_1-2" data-name="Capa 1">
    <g>
      <g>
        <path class="cls-1" d="M57.13,12.38c-.64,1.39-2.28,2-3.67,1.37,0,0-.02,0-.03-.01l-9.72-5.28c-.37-.18-.63-.32-.82-.46-.27.2-.58.37-.91.5-1.45.54-3.7.3-5.63-2.02-.79-.94-1.51-1.08-1.98-1.17-.31-.06-.64-.12-.78-.45-.17-.39.06-.8.7-1.81.55-.87,1.33-1.5,2.33-1.86,2.23-.83,4.74-.11,5.44.21,1.16.53,1.93,1.36,2.23,2.4.1.34.14.69.14,1.05,0,.01,0,.02,0,.03,0,.29-.04.57-.11.86-.04.21-.1.45-.22.71l-.04.1s0,.02-.01.03c0,.02-.01.04-.02.05-.12.28-.29.53-.47.76.17.1.45.24.58.3l9.72,5.28c.96.43,2.08,0,2.52-.95.21-.46.23-.98.05-1.46-.18-.47-.53-.85-.98-1.06l-9.35-3.51c-.22-.08-.34-.33-.25-.55.08-.22.33-.34.55-.25l9.36,3.52s.02,0,.03.01c.67.31,1.19.86,1.45,1.55s.23,1.45-.08,2.12ZM41.69,2.19c-.78-.35-2.96-.87-4.78-.19-.81.3-1.45.81-1.9,1.52-.12.18-.42.66-.55.93.02,0,.05,0,.07.01.52.1,1.5.29,2.48,1.46,1.65,1.97,3.49,2.2,4.67,1.76.41-.15.77-.4,1.06-.71.03-.04.06-.09.1-.13.12-.15.26-.34.39-.62.08-.17.14-.34.19-.51,0-.03.02-.07.02-.1,0,0,0-.02,0-.02.03-.15.04-.29.05-.41,0-.13.02-.26.05-.38,0-.26-.03-.52-.1-.76-.23-.8-.82-1.42-1.76-1.85Z"/>
        <path class="cls-1" d="M47.07,8.22c-.11.21-.37.29-.58.18l-1.29-.68c-.21-.11-.29-.37-.18-.58.05-.1.13-.17.23-.2.11-.04.24-.04.35.02l1.29.68c.21.11.29.37.18.58Z"/>
        <path class="cls-1" d="M48.24,8.35l6.06,3.17c.21.11.29.37.18.58-.11.21-.37.29-.58.18l-6.06-3.17c-.21-.11-.29-.37-.18-.58.05-.1.14-.17.23-.2.11-.04.24-.04.35.02Z"/>
      </g>
      <path class="cls-1" d="M3.22,14.81c-1.54,0-2.88-.9-3.16-2.24-.34-1.58.92-3.19,2.79-3.59.47-.1.96-.12,1.42-.05V2.98c0-.63.44-1.17,1.06-1.3L13.43,0h.06s.11.01.18.03l.1.03c.07.02.1.03.14.04l.22.12s.06.05.09.07c.06.05.09.07.12.1l.08.09s.06.07.08.1c.03.04.05.08.07.12.03.05.05.08.06.11.03.06.05.13.07.21.02.08.02.12.03.16,0,.07.01.11.01.15v8.55c0,.08,0,.16-.02.23-.02,1.34-1.21,2.62-2.84,2.96-.89.19-1.8.08-2.55-.31-.78-.4-1.3-1.06-1.46-1.84-.34-1.58.92-3.19,2.79-3.59.48-.1.96-.11,1.42-.05V2.97l-5.13,1.08v7.47c0,.08,0,.15-.02.23-.02,1.35-1.22,2.62-2.84,2.96h0c-.29.06-.57.09-.85.09ZM3.7,9.68c-.23,0-.46.02-.69.07-1.45.31-2.43,1.5-2.18,2.65.24,1.15,1.62,1.84,3.07,1.53,1.27-.27,2.2-1.22,2.22-2.26.01-.09.02-.12.02-.15V3.41l6.72-1.42v6.31l-.51-.15c-.48-.14-1.02-.16-1.54-.05-1.45.31-2.43,1.5-2.18,2.65.12.54.49,1.01,1.05,1.3.59.31,1.31.39,2.02.24,1.27-.27,2.2-1.22,2.22-2.26.01-.1.02-.12.02-.15V1.24c-.02-.07-.03-.1-.04-.12l-.05-.09.26-.3-.33.22-.15-.1-.23-.05h-.1s-7.81,1.66-7.81,1.66c-.25.05-.43.27-.43.53v6.98l-.51-.15c-.27-.08-.56-.12-.85-.12Z"/>
      <path class="cls-1" d="M20.23,14.08c-.81,0-1.89-.15-2.56-.87-.52-.55-.68-1.31-.49-2.25.32-1.53,1.8-2.49,2.98-2.84,1.02-.31,2.02-.3,3.1.02V3.25c0-.16,0-.33,0-.5v-.71c0-.3.16-.58.42-.73.36-.35,1.45-1.14,3.03.08.16.12.31.25.47.37.99.8,1.93,1.56,3.18,1.24l.1-.02.5.14.19.37-.03.47-.08.1c-1.29,1.63-2.34,1.86-3.51,1.7-.08-.01-.21-.04-.38-.08-1.46-.35-1.99-.29-2.16-.14v1.83l.09,2.04c.09,2.1-.32,4.11-3.92,4.63-.19.03-.52.07-.92.07ZM21.67,8.69c-.43,0-.85.06-1.27.19-1.04.32-2.2,1.13-2.43,2.25-.14.67-.04,1.2.29,1.55.59.63,1.83.7,2.79.56h0c2.83-.41,3.33-1.7,3.24-3.81l-.09-2.06v-2.08s.05-.09.05-.09c.51-.93,2.19-.53,3.09-.31.14.03.24.06.3.07.88.12,1.6-.03,2.55-1.12-1.44.19-2.52-.69-3.49-1.47-.15-.12-.3-.24-.46-.36-1.01-.78-1.66-.49-2.02-.11l-.11.08-.04.78c0,.17,0,.32,0,.48v6.03l-.54-.21c-.65-.25-1.26-.38-1.86-.38Z"/>
    </g>
  </g>
</svg>