<?xml version="1.0" encoding="UTF-8"?>
<svg id="Capa_2" data-name="Capa 2" xmlns="http://www.w3.org/2000/svg" viewBox="0 0 26.29 24.81">
  <defs>
    <style>
      .cls-1 {
        fill: #fff;
        stroke-width: 0px;
      }
    </style>
  </defs>
  <g id="Capa_1-2" data-name="Capa 1">
    <path class="cls-1" d="M25.88,22.54c-.42-.03-.77-.08-1.17-.09-1.74-.02-3.48.32-5.05,1.08-.91.44-1.8.8-2.79,1.01-1.91.4-3.88.36-5.77-.14-1.1-.29-2.09-.74-3.05-1.33L.88,18.64c-.92-.57-1.16-1.77-.53-2.64.35-.49.81-.86,1.38-1.07.45-.81,1.27-1.34,2.21-1.36.9-.91,2.22-.98,3.3-.35l4.4,2.61c.1,0,.22-.03.31-.07.29-1.64.41-3.12.49-4.82-1.75.2-3.43.19-5.1-.39-2.61-.91-4.06-3.06-4.6-5.7-.29-1.44-.33-2.9-.15-4.36.03-.21.17-.36.38-.39,1.36-.16,2.71-.14,4.06.09,2.88.52,5.19,2.02,6.1,4.95.54-1.77,1.68-3.15,3.27-3.99.89-.48,1.83-.77,2.84-.96,1.35-.23,2.71-.25,4.07-.09.21.03.35.18.37.38.16,1.37.14,2.73-.1,4.08-.48,2.69-1.87,4.94-4.51,5.93-1.69.63-3.45.65-5.24.43.06,1.32.16,2.6.35,3.93.53-.29,1.02-.59,1.51-.92.87-.59,1.79-1.06,2.79-1.4,1.62-.53,3.26-.62,4.79.23l2.72,1.51c.18.1.29.21.29.44v7.43c0,.22-.19.41-.41.39ZM6.76,3.7l5.89,5.89c.43-3.66-.55-6.89-4.2-8.19-1.63-.57-3.35-.68-5.08-.53-.2,2.03.01,4.3.97,6.11,1.54,2.91,4.65,3.55,7.74,3.18l-5.85-5.85c-.17-.17-.19-.39-.05-.56.12-.15.39-.23.58-.05ZM20.5,3.87l-6.29,6.29c1.52.19,3.08.12,4.48-.37,1.34-.47,2.44-1.38,3.14-2.61,1.06-1.83,1.29-4.24,1.09-6.32-2.08-.18-4.37.02-6.2,1.03-1.23.67-2.15,1.72-2.65,3.03-.56,1.41-.63,3.15-.44,4.66l6.28-6.28c.16-.16.41-.13.54,0s.21.39.03.57ZM13.44,15.24l-.29-2.39-.31,2.63.61-.24ZM7.28,17.96l-3.49-2.11c-.95-.57-2.14-.28-2.77.59-.4.55-.22,1.21.34,1.55l7.09,4.38c.93.57,1.9,1.01,2.96,1.28,1.59.4,3.21.45,4.83.19,1.1-.18,2.08-.56,3.08-1.04,1.73-.84,3.65-1.24,5.56-1.15l.62.03v-6.76s-2.66-1.48-2.66-1.48c-.52-.29-1.06-.43-1.64-.48-1.78-.13-3.67.72-5.12,1.7-1.86,1.26-3.61,2.02-5.86,2.23-.91.08-1.76.49-2.17,1.33-.25.51-.18,1.11.24,1.51.38.37,1.15.34,1.67.29,2.08-.21,4.09-.74,6.03-1.51.23-.09.46,0,.55.22s-.03.44-.26.53c-2.11.84-4.3,1.41-6.57,1.59-.43.03-.83,0-1.23-.11-1.16-.33-1.69-1.7-1.18-2.78ZM10.43,16.05l-3.67-2.16c-.51-.32-1.13-.38-1.7-.12l4.25,2.49,1.12-.2ZM7.7,17.27c.24-.26.44-.42.71-.62l-3.56-2.09c-.63-.32-1.37-.25-1.93.18.47.06.87.16,1.26.39l3.52,2.13Z"/>
  </g>
</svg>