<?xml version="1.0" encoding="UTF-8"?>
<svg id="Capa_2" data-name="Capa 2" xmlns="http://www.w3.org/2000/svg" viewBox="0 0 28.56 20.71">
  <defs>
    <style>
      .cls-1 {
        fill: #fff;
        stroke-width: 0px;
      }
    </style>
  </defs>
  <g id="Capa_1-2" data-name="Capa 1">
    <g>
      <polygon class="cls-1" points="13.77 11.75 0 5.88 14.13 0 27.76 5.74 13.77 11.75"/>
      <g>
        <rect class="cls-1" x="26.61" y="5.54" width=".87" height="8.61"/>
        <path class="cls-1" d="M28.42,14.45c0-.72-.62-1.3-1.38-1.3s-1.38.58-1.38,1.3.62,1.3,1.38,1.3,1.38-.58,1.38-1.3Z"/>
        <g>
          <path class="cls-1" d="M26.42,14.86s-1.09,2.15-.66,5.43h1.57v-5.74s-.91.48-.91.31Z"/>
          <path class="cls-1" d="M27.8,14.86s1.09,2.15.65,5.43h-1.55v-5.74s.9.48.9.31Z"/>
        </g>
      </g>
      <path class="cls-1" d="M21.6,9.38c0,.06-6.74,3.01-8.05,3.58-1.3-.57-8.05-3.52-8.05-3.58v8.73c2.17,2.18,6.46,2.53,7.83,2.59h0s.08.01.22,0c.14,0,.22,0,.22,0h0c1.37-.07,5.65-.42,7.83-2.6v-8.73Z"/>
    </g>
  </g>
</svg>