<?xml version="1.0" encoding="UTF-8"?>
<svg id="Capa_2" data-name="Capa 2" xmlns="http://www.w3.org/2000/svg" viewBox="0 0 51.16 59.5">
  <defs>
    <style>
      .cls-1 {
        fill: #294161;
      }

      .cls-1, .cls-2, .cls-3, .cls-4, .cls-5 {
        stroke-width: 0px;
      }

      .cls-2 {
        fill: #000;
      }

      .cls-3 {
        fill: #c19517;
      }

      .cls-4 {
        fill: #1e804b;
      }

      .cls-5 {
        fill: #fff;
      }
    </style>
  </defs>
  <g id="Capa_1-2" data-name="Capa 1">
    <g>
      <path class="cls-2" d="M51.16,56.92c0,1.53-1.21,2.57-2.68,2.57H2.72C.96,59.49,0,58.13,0,56.52v-6.88c0-1.27.56-2.29,1.74-2.86V12.89c.01-1.72,1.57-2.52,2.97-2.51l12.31.02c-.09-.97.04-1.65.52-2.25.45-.56,1.23-.86,2.04-.86h4.48c-.03-2.15.71-4,2.24-5.38,1.93-1.73,4.55-2.39,7.15-1.53,4.54,1.49,5.71,6.62,3.88,5.96-.22-.08-.36-.5-.44-.83-.55-2.25-2.48-3.8-4.74-4.18-3.7-.61-7.07,2.24-6.88,5.97l4.78.02c1.53,0,2.47,1.45,2.18,3.07l14.59.02c1.26,0,2.44,1.12,2.44,2.47v33.57c.79.61,1.84,1.26,1.84,2.32l.05,8.15ZM29.8,20.15c.67,0,1.24-.3,1.24-1.01l.02-9.53c0-.56-.48-.99-1.01-1.1l-10.96.02c-.5,0-.9.8-.9,1.23l.02,9.43c0,.44.5.96.94.96h10.65ZM6.51,16.97c0-.99,1.03-1.68,1.81-1.68l8.67-.02v-3.64s-12.76,0-12.76,0c-.71,0-1.24.71-1.24,1.41v33.65c1.06-.03,1.74.41,1.81,1.54h1.7s.02-31.26.02-31.26ZM44.52,46.24l3.51-.05V13.05c0-.84-.59-1.41-1.39-1.41h-14.37s0,3.57,0,3.57l9.94.06c1.32-.14,2.32.72,2.32,2.07v28.9ZM42.54,16.49l-10.27-.03-.02,2.91c0,1.12-.97,1.96-2.06,1.98l-2,.04v2.09c0,1.02-.87,1.6-1.76,1.79.06.65.02,1.31-.33,1.7-.52.58-2.39.62-2.96-.11-.27-.34-.37-1.02-.42-1.55-.81-.32-1.63-.8-1.63-1.83v-2.09s-2.01-.02-2.01-.02c-1.09-.01-2.09-1.04-2.09-2.14v-2.73s-8.51,0-8.51,0c-.3,0-.74.29-.74.67v31.11s10.54-.77,10.54-.77l6.19-.65-7.09-2.91v-10.76s7.5-3.43,7.5-3.43c.53-.23,1.13-.13,1.65.16l7.21,3.14v10.83s-5.99,3-5.99,3c1.79.26,3.35.29,5.07.17l10.49-.74v-29.14c0-.42-.42-.67-.75-.67ZM26.97,23.26v-1.91s-4.64.01-4.64.01l.13,2.59,3.69.05c.42,0,.82-.27.82-.74ZM25.25,25.15l-1.31.05c.05.41.05.87.26.95s.73.08.93,0c.17-.07.13-.54.12-1ZM26.57,36.07l5.05-2.61-6.14-2.61-5.96,2.69,7.05,2.53ZM26.1,46.09l-.02-8.86-7.47-2.7v8.59s7.49,2.97,7.49,2.97ZM32.51,43.09v-8.65s-5.23,2.64-5.23,2.64l.08,8.58,5.14-2.57ZM1.25,49.53v7.3c.01.66.47,1.42,1.29,1.42h45.8c.93,0,1.61-.51,1.61-1.44l-.02-7.71c0-.7-1.01-1.7-1.73-1.66l-11.97.6-6.85.25c-2.77-.11-5.37.02-8.12.21l-10.87.78-5.41.13c-.82.02-1.2-.62-1.53-1.29-.26-.3-1.12-.28-1.52-.04s-.68.81-.68,1.45Z"/>
      <path class="cls-4" d="M1.25,49.53c0-.64.28-1.21.68-1.45s1.26-.27,1.52.04c.33.67.71,1.31,1.53,1.29l5.41-.13,10.87-.78c2.76-.2,5.35-.33,8.12-.21l6.85-.25,11.97-.6c.71-.04,1.73.96,1.73,1.66l.02,7.71c0,.93-.67,1.45-1.61,1.45H2.53c-.82,0-1.27-.77-1.28-1.43v-7.3ZM33.2,56c.28-.14.53-.49.53-.68l.02-3.79c0-.38-.15-.76-.5-1.01h-14.99c-.48,0-.86.35-.86.8v3.99c-.01.3.32.68.68.68h15.13ZM42.04,55.86c1.76.59,3.42-.69,3.59-2.38.16-1.57-1.2-3.1-2.9-2.97-1.38.1-2.33,1.13-2.51,2.37-.17,1.21.48,2.53,1.82,2.98Z"/>
      <path class="cls-4" d="M44.52,46.24v-28.9c0-1.35-1-2.21-2.32-2.07l-9.94-.06v-3.57s14.38,0,14.38,0c.81,0,1.39.57,1.39,1.41v33.14s-3.51.05-3.51.05Z"/>
      <path class="cls-4" d="M6.51,16.97l-.02,31.27h-1.7c-.07-1.14-.75-1.58-1.81-1.54V13.05c0-.69.53-1.41,1.24-1.41h12.78s-.01,3.63-.01,3.63l-8.67.02c-.78,0-1.81.69-1.81,1.68Z"/>
      <path class="cls-1" d="M29.8,20.15h-10.65c-.43,0-.93-.52-.94-.97l-.02-9.43c0-.43.39-1.23.9-1.23l10.96-.02c.54.11,1.01.54,1.01,1.1l-.02,9.53c0,.71-.57,1.01-1.24,1.01Z"/>
      <polygon class="cls-3" points="26.1 46.09 18.61 43.11 18.61 34.53 26.08 37.23 26.1 46.09"/>
      <polygon class="cls-3" points="32.51 43.09 27.37 45.66 27.28 37.08 32.5 34.44 32.51 43.09"/>
      <polygon class="cls-3" points="26.57 36.07 19.52 33.54 25.48 30.85 31.62 33.46 26.57 36.07"/>
      <path class="cls-1" d="M26.97,23.26c0,.47-.4.75-.82.74l-3.69-.05-.13-2.59h4.64s0,1.9,0,1.9Z"/>
      <path class="cls-1" d="M25.25,25.15c0,.46.04.93-.12,1-.2.08-.73.08-.93,0s-.2-.53-.26-.95l1.31-.05Z"/>
      <path class="cls-2" d="M33.2,56h-15.13c-.35,0-.69-.39-.69-.69v-3.99c.02-.45.39-.81.87-.81h14.99c.35.26.5.63.5,1.01l-.02,3.79c0,.2-.25.54-.53.68ZM32.54,54.78v-3.04s-13.96,0-13.96,0v3.04s13.96,0,13.96,0Z"/>
      <path class="cls-2" d="M42.04,55.86c-1.34-.45-1.99-1.77-1.82-2.98.17-1.24,1.13-2.27,2.51-2.37,1.69-.13,3.06,1.4,2.9,2.97-.17,1.7-1.83,2.98-3.59,2.38ZM42.56,51.78c-.96.24-1.33,1.2-1.08,1.92.27.78.98,1.24,1.79,1.04s1.29-1,1.07-1.84c-.18-.68-.9-1.34-1.78-1.12Z"/>
      <polygon class="cls-5" points="32.54 54.78 18.59 54.78 18.58 51.74 32.54 51.74 32.54 54.78"/>
      <path class="cls-5" d="M42.56,51.78c.88-.22,1.6.43,1.78,1.12.22.83-.28,1.64-1.07,1.84s-1.52-.25-1.79-1.04c-.25-.72.12-1.67,1.08-1.92Z"/>
    </g>
  </g>
</svg>