<?xml version="1.0" encoding="UTF-8"?>
<svg id="Capa_2" data-name="Capa 2" xmlns="http://www.w3.org/2000/svg" viewBox="0 0 114.48 114.21">
  <defs>
    <style>
      .cls-1 {
        fill: #4285f4;
      }

      .cls-1, .cls-2, .cls-3, .cls-4, .cls-5, .cls-6 {
        stroke-width: 0px;
      }

      .cls-2 {
        fill: #000;
      }

      .cls-3 {
        fill: #fbbc05;
      }

      .cls-4 {
        fill: #34a853;
      }

      .cls-5 {
        fill: #fff;
      }

      .cls-6 {
        fill: #ea4335;
      }
    </style>
  </defs>
  <g id="Capa_1-2" data-name="Capa 1">
    <g>
      <path class="cls-2" d="M38.67,113.02c-3.55,1.58-6.59,1.59-10.02.04-8.41-3.81-17.78-5.12-27.07-5.29-.86-.02-1.59-.65-1.57-1.39l.14-4.48c.02-.68,1.58-1.1,2.64-.99l.1-7.72c0-.35.75-.99,1.01-1.14l8.99.05c2.02-6.5,7.18-11.38,13.82-12.55-6.26-4.04-7.9-11.69-4.45-17.74,3.54-6.21,11.39-8.49,17.72-4.93,4.12,2.41,6.53,6.49,6.66,11.08.14,4.65-2.2,8.94-6.17,11.63,6.85,1.21,11.83,6.09,13.81,12.6l9.02-.12c.24.12,1.01.78,1.02,1.15l.08,7.74c1.07-.1,2.64.3,2.65.96l.11,4.49c.02.66-.76,1.36-1.54,1.38-9.21.25-18.45,1.49-26.96,5.26ZM29.26,78.13c4.68,2.13,9.65.55,12.65-3.16,2.97-3.67,3.18-8.76.41-12.74-2.6-3.72-7.31-5.62-11.93-4.13-4.24,1.37-7.16,5.22-7.46,9.41-.32,4.49,2.06,8.67,6.33,10.61ZM51.86,92.46c-1.85-5.86-6.81-10.27-12.92-10.72h-10.99c-5.99.52-10.78,4.99-12.62,10.72,7.22,1.43,13.7,3.84,18.31,9.5,4.57-5.83,11.35-8.03,18.23-9.5ZM31.11,102.63c-6.29-6.72-16.83-8.66-25.94-8.22l-.03,6.53c9.43.1,18.28,2.2,27.11,5.8.42-1.4.03-2.86-1.14-4.11ZM35.06,106.75c8.91-3.73,17.71-5.54,26.98-5.85l-.03-6.5c-9.02-.54-20.03,1.69-26.01,8.31-1.06,1.18-1.54,2.69-.94,4.05ZM64.72,105.38l-.04-2.09c-9.68-.15-19.01,1.76-27.92,5.4-2.38.97-4.18.86-6.51-.1-8.87-3.63-18.1-5.41-27.73-5.32l-.04,2.15c9.67.1,18.85,1.87,27.65,5.5,2.12,1.3,4.85,1.31,6.98.02,8.77-3.64,17.97-5.33,27.62-5.56Z"/>
      <path class="cls-2" d="M55.06,53.55l-4.85-3.05c-2.93-1.84-6.34-3.36-9.92-3.36h-17.6c-9.65,0-17.97,9.12-17.97,19.51v13.05c0,.55-.6,1.36-1.05,1.4-.73.06-1.38-.67-1.38-1.4v-13.04c.02-11.76,8.87-21.9,20.76-21.95l15.28-.06c4.31-.02,8.34.95,12.02,3.16l5.25,3.14,12.45-18.63c.43-.28,1.02-.62,1.36-.72s1.05.42,1.26.77l4.34,7.38c.63,1.07,1.18,2.68.42,3.85l-13,19.82c-1.15,1.76-3.8,2.05-5.54,1.71l-5.33-1.04c-.42-.08-1.13-.74-1.19-1.15-.07-.48.75-1.43,1.24-1.34l6.24,1.23c1.25.25,2.47-.52,3.13-1.51l12.58-19.23-4.21-7.37-11.95,17.83c-.28,1.08-1.42,1.57-2.33,1Z"/>
      <path class="cls-2" d="M97.25,32.36l-7.85-3.99-7.52,3.81c-.34.17-1.19.23-1.53.08-.4-.18-.73-1.13-.65-1.59l1.38-8.58-5.76-5.8c-.28-.28-.51-1.07-.44-1.42.08-.41.82-1.1,1.25-1.17l8.2-1.28,3.85-7.77c.28-.56,2.02-.76,2.28-.24l4.06,8,8.2,1.3c.37.06,1.04.55,1.18.88s-.02,1.27-.32,1.57l-5.84,5.93,1.3,8.54c.06.38-.1,1.07-.25,1.33-.18.32-1.2.58-1.54.41ZM89.5,25.65l6.99,3.62-1.34-7.85,5.5-5.62-7.84-1.22-3.37-7.09-3.45,7.03-7.7,1.33,5.37,5.52-1.33,7.93,7.17-3.66Z"/>
      <path class="cls-2" d="M40.13,39.67c-5.85,4.88-14.08,4.21-19.27-1.15-4.04-4.17-5.38-10.11-3.22-15.64,1.93-4.94,6.58-8.65,12.31-9.16,6.32-.56,12.06,3.23,14.44,8.77,2.6,6.08.9,12.86-4.26,17.18ZM40.65,35.64c3.4-4.54,3.29-10.25.15-14.6-3.09-4.28-8.77-6.09-13.84-4.18-3.98,1.5-6.68,4.85-7.56,8.47-1.07,4.41.31,8.6,3.34,11.64,5.18,5.2,13.45,4.63,17.91-1.32Z"/>
      <path class="cls-2" d="M69.42,21.32h-5.38c-.49,0-1.09-.92-1.02-1.35s.85-1.11,1.29-1.11h4.9c.46.02,1.18.71,1.24,1.12s-.59,1.33-1.04,1.33Z"/>
      <path class="cls-2" d="M113.38,21.33h-5.09c-.44,0-1.17-.7-1.21-1.11-.05-.46.76-1.29,1.23-1.29h4.89c.46,0,1.2.59,1.28,1.05s-.62,1.35-1.1,1.35Z"/>
      <path class="cls-2" d="M103.91,5.64c-.32.3-1.48.23-1.72-.12s-.17-1.4.15-1.71l3.51-3.42c.37-.37,1.36-.51,1.71-.21.52.44.52,1.51.05,1.95l-3.69,3.51Z"/>
      <path class="cls-2" d="M75.38,3.85c.46.44.43,1.55-.12,1.97-.4.31-1.24.07-1.69-.36l-3.4-3.28c-.44-.42-.65-1.28-.3-1.74.43-.56,1.42-.55,1.85-.14l3.67,3.55Z"/>
      <path class="cls-6" d="M51.86,92.46c-6.88,1.47-13.66,3.66-18.23,9.5-4.6-5.65-11.09-8.06-18.31-9.5,1.84-5.73,6.63-10.2,12.62-10.71h10.99c6.12.44,11.07,4.85,12.92,10.71Z"/>
      <path class="cls-4" d="M29.26,78.13c-4.27-1.94-6.65-6.12-6.33-10.61.3-4.19,3.21-8.04,7.46-9.41,4.62-1.5,9.34.4,11.93,4.13,2.77,3.97,2.56,9.06-.41,12.74-3,3.71-7.97,5.29-12.65,3.16Z"/>
      <path class="cls-3" d="M35.06,106.75c-.6-1.36-.13-2.87.94-4.05,5.98-6.61,16.99-8.85,26.01-8.31l.03,6.5c-9.27.31-18.06,2.13-26.98,5.85Z"/>
      <path class="cls-3" d="M31.11,102.63c1.17,1.25,1.56,2.71,1.14,4.11-8.83-3.6-17.69-5.7-27.11-5.8l.03-6.53c9.11-.44,19.65,1.5,25.94,8.22Z"/>
      <path class="cls-5" d="M64.72,105.38c-9.65.23-18.84,1.92-27.62,5.56-2.13,1.29-4.86,1.28-6.98-.02-8.8-3.63-17.97-5.4-27.65-5.5l.04-2.15c9.64-.08,18.86,1.69,27.73,5.32,2.34.96,4.13,1.07,6.51.1,8.91-3.63,18.23-5.55,27.92-5.4l.04,2.09Z"/>
      <polygon class="cls-3" points="89.5 25.65 82.33 29.31 83.66 21.37 78.29 15.85 85.99 14.53 89.44 7.49 92.81 14.58 100.65 15.8 95.15 21.42 96.49 29.27 89.5 25.65"/>
      <path class="cls-1" d="M40.65,35.64c-4.46,5.96-12.73,6.52-17.91,1.32-3.03-3.04-4.41-7.23-3.34-11.64.88-3.62,3.58-6.97,7.56-8.47,5.06-1.91,10.75-.1,13.84,4.18,3.14,4.35,3.26,10.06-.15,14.6Z"/>
    </g>
  </g>
</svg>