<?xml version="1.0" encoding="UTF-8"?>
<svg id="Capa_2" data-name="Capa 2" xmlns="http://www.w3.org/2000/svg" viewBox="0 0 99.75 98.47">
  <defs>
    <style>
      .cls-1 {
        fill: #294161;
      }

      .cls-1, .cls-2, .cls-3, .cls-4 {
        stroke-width: 0px;
      }

      .cls-2 {
        fill: #000;
      }

      .cls-3 {
        fill: #c19517;
      }

      .cls-4 {
        fill: #1e804b;
      }
    </style>
  </defs>
  <g id="Capa_1-2" data-name="Capa 1">
    <g>
      <path class="cls-2" d="M96.86,93.65c-.07,2.56-2.88,4.82-5.59,4.82l-83.56-.02c-2.67,0-5.26-2.54-5.32-4.78l-.14-4.94c-.02-.57.95-1.58,1.51-1.61l3.16-.17.05-39.22c0-2.61,2.73-4.92,5.23-4.93l24.33-.09c-.13-.5-.61-1.37-.97-1.51-4.89-.76-8.02-5.65-6.68-10.53l-2.37-2.86-11.68-.05-3.45-5.83c-2.24.12-4.25-1.22-4.78-3.14-.58-2.08.47-4.26,2.19-5.04,2.09-.95,4.34-.28,5.47,1.38,1.28,1.88.87,4.11-.65,5.81l2.61,4.46,9.51-.08c-.71-3.5.54-6.76,3.21-9.03-1.58-5.12,1.71-10.13,6.99-10.86C36.96,2.09,39.95,0,43.46.04c2.65.03,4.94,1.16,6.49,3.25,2.9-3.81,7.99-4.29,11.67-1.52,1.13.85,1.81,2.21,2.4,3.64,5.14.63,8.47,5.56,6.96,10.74,2.59,2.35,3.81,5.47,3.21,9.18l9.51.04,2.55-4.45c-1.55-1.52-1.98-3.78-.84-5.63,1.07-1.73,3.35-2.49,5.37-1.65,1.8.75,2.96,2.84,2.44,4.94-.47,1.91-2.27,3.51-4.74,3.31l-2.82,4.9c-.21.37-1.01.99-1.46.99l-10.89.02-2.22,2.89c1.29,4.9-1.79,9.96-6.99,10.63l-.59,1.39,23.26.05c2.5,0,5.55,2.19,5.55,4.93l.04,39.26,2.81.12c.95.04,1.85.92,1.82,1.92l-.13,4.65ZM32.2,36.61c1.15,1.48,2.84,2.36,5.02,2.42.58.02.98,1.25,1.16,1.8.83,2.5,3.22,3.74,5.71,3.42,1.96-.25,4.64-1.92,4.64-4.31V6.29c-.82-2.45-3-3.93-5.57-3.83-2.44.07-4.53,1.57-4.97,4.06-.37,2.13-3.89.39-6.22,3.87-1.07,1.6-1.27,3.64-.62,5.45.36,1,.06,1.67-.74,2.24-1.9,1.35-2.68,3.58-2.57,5.73.11,2.13.95,4.03,2.89,5.38,1.42.99-1.38,4,1.28,7.42ZM71.91,23.04c-.08-2.05-1.08-3.97-3.07-5.28-1.5-.99,1.64-3.86-1.09-7.57-1.12-1.52-2.85-2.38-5.01-2.49-1.34-.07-.76-5.31-6.55-5.26-2.28.07-4.33,1.48-5.11,3.86v33.84c.66,2.69,3.25,4.41,5.82,4.12,2.9-.07,4.71-2.23,5.31-5.09,2.22-.17,4.41-.79,5.5-2.46,1.27-1.94,1.61-3.81.76-6.14-.54-1.48,3.66-2.16,3.44-7.52ZM10.57,15.82c-1.33.2-1.8,1.16-1.54,2.33.15.7,1.03,1.45,2.09,1.26.78-.14,1.5-1.04,1.46-2.02-.04-.8-.98-1.72-2-1.56ZM88.69,15.81c-1.32.33-1.79,1.46-1.34,2.49.31.72,1.27,1.31,2.13,1.1.95-.24,1.6-1.25,1.4-2.17s-1.18-1.66-2.18-1.41ZM59.2,89.51c.65-1.11,1.27-1.99,2.14-2.46h28.61s0-38.72,0-38.72c0-1.87-1.69-3.14-3.39-3.14h-25.44c-3.76,2.61-8.66,1.61-11.2-1.93-2.63,3.7-7.5,4.38-11.19,1.93H12.92c-1.78-.01-3.59,1.16-3.59,3.17v38.66s29.01.05,29.01.05l1.94,2.48,18.93-.03ZM94.37,89.48h-32.35c-.67.98-1.51,2.01-2.48,2.49h-19.08c-1.39,0-2.41-1.2-3.05-2.48l-32.72-.02.05,3.56c.02,1.73,1.62,3.01,3.45,3.01h82.8c2.11,0,3.52-1.52,3.58-3.45.04-1.08-.01-2.19-.2-3.11Z"/>
      <path class="cls-2" d="M22.04,34.32c.71,0,1.36.55,1.41.98.08.71-.46,1.47-1.23,1.47h-13.88c-.77,2.15-2.69,3.23-4.82,2.91C1.54,39.39.06,37.72,0,35.6c-.06-2,1.22-3.8,3.28-4.28s4.2.59,5.07,2.97l13.68.03ZM3.67,33.76c-1.23.42-1.45,1.72-1.03,2.57.37.75,1.44,1.17,2.27.86.93-.34,1.41-1.38,1.05-2.38-.26-.73-1.31-1.38-2.29-1.05Z"/>
      <path class="cls-2" d="M77.37,36.76c-.63,0-1.12-.96-1.01-1.46.12-.54.8-.96,1.52-.96l13.48-.05c.75-2.13,2.64-3.28,4.62-3.04,2.14.25,3.7,2.08,3.77,4.07.07,2.13-1.41,3.86-3.24,4.29-2.24.52-4.3-.6-5.09-2.82l-14.05-.02ZM95.02,33.72c-1.37.46-1.6,1.64-1.16,2.63.3.68,1.33,1.17,2.32.85.74-.24,1.35-1.32,1.01-2.33-.22-.64-1.35-1.42-2.17-1.15Z"/>
      <path class="cls-4" d="M59.2,89.51l-18.93.03-1.94-2.48-29.02-.05v-38.66c.01-2.01,1.82-3.18,3.6-3.18h25.81c3.69,2.46,8.55,1.78,11.19-1.92,2.53,3.54,7.43,4.54,11.2,1.93h25.44c1.69,0,3.39,1.27,3.39,3.14v38.72s-28.61,0-28.61,0c-.86.47-1.49,1.35-2.14,2.46ZM47.58,76.5l6.66-20.14c.2-.62-.54-1.48-1.07-1.5-.41-.02-1.13.47-1.3.99l-6.64,20.02c-.21.63.28,1.5.85,1.64.54.13,1.24-.24,1.49-1.01ZM61.68,75.12l6.62-7.68c.7-.81.78-1.65.09-2.47l-6.48-7.62c-.37-.43-1.16-.66-1.57-.42s-.84,1.24-.54,1.59l6.45,7.64-6.3,7.36c-.33.38-.21,1.37.13,1.67.28.25,1.32.27,1.61-.07ZM39.41,73.33l-6.3-7.22,6.16-7.08c.43-.49.55-1.26.32-1.66-.22-.38-1.47-.65-1.75-.33l-6.95,8.01c-.83.95-.49,1.64.24,2.47l6.43,7.36c.48.55,1.26.66,1.75.27.55-.44.57-1.27.09-1.82Z"/>
      <path class="cls-3" d="M71.91,23.04c.21,5.37-3.98,6.05-3.44,7.52.85,2.33.51,4.2-.76,6.14-1.09,1.66-3.28,2.29-5.5,2.46-.6,2.86-2.41,5.02-5.31,5.09-2.57.29-5.15-1.43-5.83-4.12V6.3c.79-2.38,2.84-3.79,5.12-3.86,5.78-.06,5.2,5.19,6.55,5.26,2.15.12,3.89.97,5.01,2.49,2.73,3.71-.41,6.58,1.09,7.57,1.99,1.31,2.99,3.23,3.07,5.28ZM62.94,18.22l-1.01-2.65c-.33-.86,1.64-2.05.4-3.05-.41-.33-1.53-.08-1.79.38s-.53.97-.8.91l-1.36-.3c-.62-.14-1.62.2-1.76.79-.16.69.38,1.36,1.12,1.45,3.55.42,2.03,4.28,4.13,4.15.57-.03,1.4-.86,1.08-1.69ZM61.79,32.29l1.86-.11c.38-.02.82-1.08.64-1.45-.32-.66-1.46-.92-2.25-.92l-1.48-2.28c-.32-.49-1.68-.6-1.98-.15-1.06,1.57,2.68,2.92.18,5.5-.35.36-.29,1.39.07,1.7.31.26,1.41.28,1.62-.07l1.33-2.22Z"/>
      <path class="cls-3" d="M32.2,36.61c-2.66-3.42.14-6.43-1.28-7.42-1.94-1.35-2.78-3.26-2.89-5.38-.11-2.15.67-4.38,2.57-5.73.8-.57,1.1-1.25.74-2.24-.66-1.81-.45-3.85.62-5.45,2.33-3.48,5.85-1.74,6.22-3.87.44-2.49,2.53-3.98,4.97-4.06,2.57-.09,4.74,1.38,5.57,3.83v33.65c0,2.39-2.69,4.06-4.65,4.31-2.49.32-4.88-.92-5.71-3.42-.18-.55-.58-1.78-1.16-1.8-2.18-.07-3.87-.94-5.02-2.42ZM42.74,15.57c.48-.04.64-1.58.21-1.86-1.21-.8-2.63.27-2.82,0l-.73-1c-.35-.47-1.34-.48-1.77.04-.92,1.13.94,1.91.23,2.96-.64.95-1.04,2.07-.97,3.26.02.44.92,1,1.32.92,1.78-.36.18-3.95,4.54-4.33ZM37.99,32.33l1.13,2.15c.23.43,1.44.48,1.81.15.36-.31.42-1.37.08-1.72-2.47-2.52,1.21-3.98.14-5.42-.21-.28-1.13-.47-1.42-.22-.62.54-1.27,1.63-1.66,2.52l-1.27.29c-.35.08-.93.47-1.1.78-.14.26.07,1.16.35,1.2l1.92.28Z"/>
      <path class="cls-1" d="M94.37,89.48c.19.93.24,2.03.2,3.11-.06,1.92-1.48,3.44-3.58,3.44H8.19c-1.83,0-3.42-1.27-3.45-3l-.05-3.56,32.72.02c.65,1.28,1.66,2.48,3.05,2.48h19.08c.97-.48,1.81-1.51,2.48-2.5h32.35Z"/>
      <path class="cls-1" d="M88.69,15.81c1.01-.25,1.99.52,2.18,1.41s-.45,1.94-1.4,2.17c-.86.21-1.82-.38-2.13-1.1-.45-1.03.02-2.16,1.34-2.49Z"/>
      <path class="cls-1" d="M10.57,15.82c1.02-.15,1.97.76,2,1.56.04.99-.68,1.89-1.46,2.02-1.05.19-1.93-.56-2.09-1.26-.26-1.17.21-2.13,1.54-2.33Z"/>
      <path class="cls-1" d="M3.67,33.76c.98-.33,2.03.32,2.29,1.05.36,1.01-.12,2.04-1.05,2.38-.83.3-1.9-.11-2.27-.86-.42-.86-.2-2.15,1.03-2.57Z"/>
      <path class="cls-1" d="M95.02,33.72c.82-.28,1.96.5,2.17,1.15.34,1.01-.27,2.09-1.01,2.33-.99.32-2.02-.16-2.32-.85-.44-.99-.21-2.17,1.16-2.63Z"/>
      <path class="cls-2" d="M47.58,76.5c-.25.77-.95,1.14-1.49,1.01-.57-.13-1.06-1-.85-1.64l6.64-20.02c.17-.52.89-1.01,1.3-.99.53.02,1.27.88,1.07,1.5l-6.66,20.14Z"/>
      <path class="cls-2" d="M39.41,73.33c.48.55.46,1.39-.09,1.82-.49.39-1.28.28-1.75-.27l-6.43-7.36c-.72-.83-1.06-1.52-.24-2.47l6.95-8.01c.28-.32,1.53-.05,1.75.33.23.4.1,1.17-.32,1.66l-6.16,7.08,6.3,7.22Z"/>
      <path class="cls-2" d="M61.68,75.12c-.3.34-1.33.32-1.61.07-.34-.3-.45-1.29-.13-1.67l6.3-7.36-6.45-7.64c-.3-.35.11-1.35.54-1.59s1.2-.01,1.57.42l6.48,7.62c.69.81.61,1.65-.09,2.47l-6.62,7.68Z"/>
      <path class="cls-2" d="M62.94,18.22c.31.83-.52,1.65-1.08,1.69-2.1.13-.58-3.73-4.13-4.15-.74-.09-1.28-.76-1.12-1.45.14-.6,1.13-.93,1.76-.79l1.36.3c.27.06.54-.47.8-.91s1.38-.71,1.79-.38c1.24,1-.73,2.19-.4,3.05l1.01,2.65Z"/>
      <path class="cls-2" d="M61.79,32.29l-1.33,2.22c-.21.35-1.32.34-1.62.07-.36-.31-.42-1.34-.07-1.7,2.5-2.57-1.25-3.93-.18-5.5.3-.45,1.67-.33,1.98.15l1.48,2.28c.79,0,1.93.25,2.25.92.18.37-.26,1.42-.64,1.45l-1.86.11Z"/>
      <path class="cls-2" d="M42.74,15.57c-4.36.38-2.76,3.96-4.54,4.33-.4.08-1.29-.48-1.32-.92-.06-1.2.33-2.31.97-3.26.71-1.05-1.15-1.84-.23-2.96.42-.51,1.42-.51,1.77-.04l.73,1c.19.26,1.61-.81,2.82,0,.43.29.28,1.82-.21,1.86Z"/>
      <path class="cls-2" d="M37.99,32.33l-1.92-.28c-.29-.04-.49-.95-.35-1.2.17-.31.75-.7,1.1-.78l1.27-.29c.39-.88,1.04-1.98,1.66-2.52.29-.25,1.21-.06,1.42.22,1.06,1.44-2.62,2.9-.14,5.42.35.36.28,1.41-.08,1.72-.38.33-1.59.28-1.81-.15l-1.13-2.15Z"/>
    </g>
  </g>
</svg>