<?xml version="1.0" encoding="UTF-8"?>
<svg id="Capa_2" data-name="Capa 2" xmlns="http://www.w3.org/2000/svg" viewBox="0 0 95.42 105.36">
  <defs>
    <style>
      .cls-1 {
        fill: #294161;
      }

      .cls-1, .cls-2, .cls-3, .cls-4 {
        stroke-width: 0px;
      }

      .cls-2 {
        fill: #000;
      }

      .cls-3 {
        fill: #c19517;
      }

      .cls-4 {
        fill: #1e804b;
      }
    </style>
  </defs>
  <g id="Capa_1-2" data-name="Capa 1">
    <g>
      <path class="cls-2" d="M45.9,105.22c-4.51-.69-7.54-4.13-8.64-8.31-1.79-.33-3.28-1.31-4.02-2.75-.9-1.75-.32-3.7.5-5.14-1.36-1.02-2.66-2.56-2.59-4.4.07-1.84,1.03-3.35,2.66-4.38-.81-4.27-2.76-8.21-5.27-11.7l-5.62-7.84c-5.67-7.9-6.31-18.02-2.28-26.87,4.73-10.38,14.92-16.97,26.37-17.25,7.86-.2,15.19,2.54,20.88,7.73,10.7,9.75,12.6,25.52,4.06,37.28l-5.63,7.76c-2.32,3.2-3.98,6.97-4.69,10.84,1.57,1.1,2.61,2.46,2.68,4.19.07,1.8-.98,3.44-2.52,4.46.77,1.49,1.42,3.36.52,5.28-.64,1.38-2.08,2.56-4.09,2.75-1.17,5.74-6.41,9.27-12.31,8.37ZM48.89,32.3l7.1,14.18v33.22s3.19.03,3.19.03c.86-4.13,2.17-7.67,4.52-10.95l5.74-8.01c2.69-3.75,4.64-7.86,5.2-12.52.92-7.62-1.71-15.1-6.98-20.66-8.53-9.01-22.14-11.18-33.02-5.24-7.76,4.24-12.92,11.71-13.86,20.51-.72,6.77,1.72,13.04,5.62,18.47l5.27,7.32c2.39,3.32,3.74,6.89,4.62,11.03h3.22s.02-33.25.02-33.25l7.27-14.48c.12-.24,1-.61,1.21-.43l.87.77ZM47.94,47.42l4.8-1.61-4.96-9.99-5.08,9.97,5.24,1.63ZM46.46,79.65v-30.12s-4.5-1.33-4.5-1.33v31.59s4.5-.14,4.5-.14ZM53.5,79.66v-31.49s-4.51,1.43-4.51,1.43v30.13s4.51-.07,4.51-.07ZM59.72,86.98c1.5-.4,2.13-1.5,2.01-2.68s-1.08-2.05-2.44-2.05h-23.33c-1.42,0-2.33,1.21-2.33,2.36s.92,2.36,2.34,2.36l23.76.02ZM58.45,94.27c1.34,0,1.9-1.65,1.86-2.48s-.8-2.23-1.93-2.23l-20.34-.03c-1.47,0-2.45.67-2.71,2.03-.2,1.01.4,2.73,1.88,2.73h21.23ZM55.66,96.83l-15.8.03c1.16,3.93,4.45,6.12,8.21,6.01,3.41-.1,6.85-2.39,7.59-6.04Z"/>
      <path class="cls-2" d="M21.04,17c.47.49.33,1.56-.17,1.94-.41.31-1.5.31-1.87-.06l-4.65-4.77c-.45-.46-.58-1.46-.2-1.89.57-.66,1.61-.63,2.17-.05l4.73,4.84Z"/>
      <path class="cls-2" d="M76.41,18.89c-.38.39-1.54.32-1.93,0s-.52-1.42-.09-1.86l4.82-4.92c.38-.39,1.48-.44,1.88-.14.43.33.6,1.56.24,1.93l-4.91,5Z"/>
      <path class="cls-2" d="M94.09,42.57l-6.41.02c-.81,0-1.48-.61-1.48-1.38s.68-1.37,1.48-1.37h6.42c.57,0,1.32.79,1.33,1.37s-.76,1.36-1.33,1.36Z"/>
      <path class="cls-2" d="M7.89,42.57H1.48c-.8.01-1.48-.61-1.48-1.37s.69-1.38,1.48-1.38h6.42c.56.01,1.32.81,1.32,1.38s-.77,1.36-1.32,1.37Z"/>
      <path class="cls-2" d="M49.12,7.18c0,.64-.59,1.38-1.1,1.49s-1.56-.56-1.56-1.1V1.21c0-.54.82-1.24,1.3-1.21.8.04,1.36.68,1.36,1.49v5.69Z"/>
      <path class="cls-3" d="M48.89,32.3l-.87-.77c-.21-.18-1.09.18-1.21.43l-7.27,14.48-.02,33.24h-3.22c-.88-4.12-2.23-7.69-4.62-11.01l-5.27-7.32c-3.91-5.43-6.34-11.7-5.62-18.47.93-8.81,6.09-16.27,13.86-20.51,10.87-5.94,24.49-3.77,33.02,5.24,5.27,5.56,7.9,13.04,6.98,20.66-.56,4.66-2.51,8.76-5.2,12.52l-5.74,8.01c-2.35,3.27-3.66,6.82-4.52,10.95l-3.19-.03v-33.22s-7.11-14.18-7.11-14.18Z"/>
      <polygon class="cls-1" points="53.5 79.66 49 79.73 48.99 49.6 53.5 48.17 53.5 79.66"/>
      <polygon class="cls-1" points="46.46 79.65 41.96 79.79 41.96 48.21 46.46 49.54 46.46 79.65"/>
      <path class="cls-4" d="M59.72,86.98l-23.76-.02c-1.42,0-2.34-1.22-2.34-2.36s.91-2.36,2.33-2.36h23.33c1.36,0,2.32.91,2.44,2.06s-.51,2.28-2.01,2.68Z"/>
      <path class="cls-4" d="M58.45,94.27h-21.23c-1.48.02-2.07-1.71-1.88-2.71.26-1.36,1.24-2.03,2.71-2.03l20.34.03c1.13,0,1.89,1.44,1.93,2.23.04.83-.52,2.48-1.86,2.48Z"/>
      <path class="cls-4" d="M55.66,96.83c-.75,3.65-4.18,5.94-7.59,6.04-3.76.11-7.05-2.09-8.21-6.01l15.8-.03Z"/>
      <polygon class="cls-4" points="47.94 47.42 42.7 45.79 47.78 35.81 52.74 45.8 47.94 47.42"/>
    </g>
  </g>
</svg>