<?xml version="1.0" encoding="UTF-8"?>
<svg id="Capa_2" data-name="Capa 2" xmlns="http://www.w3.org/2000/svg" viewBox="0 0 113.18 101.74">
  <defs>
    <style>
      .cls-1 {
        fill: #4285f4;
      }

      .cls-1, .cls-2, .cls-3, .cls-4, .cls-5 {
        stroke-width: 0px;
      }

      .cls-2 {
        fill: #000;
      }

      .cls-3 {
        fill: #fbbc05;
      }

      .cls-4 {
        fill: #34a853;
      }

      .cls-5 {
        fill: #ea4335;
      }
    </style>
  </defs>
  <g id="Capa_1-2" data-name="Capa 1">
    <path class="cls-2" d="M35.93,58.73l-9.26-1.61-1.22,12.31-9.42,15.46c-1.56,2.57-5.43,2.52-7.47,1.02-2.37-1.75-3.23-4.92-1.69-7.58l7.19-12.43.89-18.11,1.63-11.57-3.14,1.85-3.6,11.36c-.81,2.57-3.09,4.04-5.77,3.58-2.36-.41-4.73-2.92-3.9-5.62l4.01-13.11c.62-2.04,1.45-3.37,3.24-4.52l11.18-7.24c2.71-1.76,6.12-1.62,9.08-1,3.36.71,5.68,2.6,7.41,5.46l4.34,7.2,9.85,1.86c2.49.47,3.6,3.16,3.29,5.51-.26,2-2.35,4.56-4.85,4.17l-12-1.89c-1.14-.18-1.98-.83-2.93-1.75l-.48,3.72,10.72,2.27c2.46.52,3.94,3.35,4.06,5.73l.73,15c.15,3.12-1.41,5.75-4.46,6.33-2.9.56-5.81-1.21-6.64-4.29l-.77-12.1ZM37.17,56.44c.55.1,1.19.92,1.23,1.5l.87,12.62c.12,1.74,2.57,2.43,3.76,2.12,1.64-.43,2.38-1.82,2.3-3.58l-.69-14.94c-.11-2.28-1.54-3.68-3.73-4.11l-10.51-2.1c-.43-.09-.85-1.07-.79-1.43l1.26-8.6c.06-.43.69-1.1,1.07-1.12,1.52-.07,1.69,2.53,3.54,4.42l11.98,2c1.47.25,2.63-1.14,2.67-2.31.05-1.56-.97-2.37-2.46-2.65l-9.85-1.9-5.71-9.31c-1.31-2.14-3.76-2.76-6.04-3.23-2.76-.57-4.99-.06-7.26,1.43l-10.39,6.82c-.58.38-1.34,1.26-1.56,1.93l-4.18,13.33c-.49,1.55.53,3,1.92,3.24,1.59.27,2.52-.7,2.98-2.16l3.8-12.02,6.24-3.81c.29-.17,1.13-.45,1.32-.17l.67,1.03-2.17,14.02-.88,19.11-7.4,12.74c-1.01,1.74-.64,3.88,1.11,4.78,1.9.97,3.51-.01,4.53-1.69l8.29-13.74,1.28-13.01c.07-.76.9-1.3,1.62-1.17l11.2,1.97Z"/>
    <path class="cls-2" d="M29.24,90.35c0,.76-.44,1.56-1.16,1.56l-22.85.02.06,8.75c0,.45-.98,1.13-1.41,1.06-.47-.08-1.09-.81-1.09-1.33v-9.68c-.01-.53.62-1.32,1.25-1.32l22.68-.02v-10.1c0-.81.68-1.54,1.55-1.54h21.89s.05-9.96.05-9.96c0-.77.44-1.55,1.31-1.55h21.4s-.02-11.14-.02-11.14c0-.39.57-1.33.95-1.33l10.73-.02-.02-48.31.93-1.02c.25-.27,1.41.27,1.42.64l.11,2.85,25.33.02c.61,0,1.03,1.42.69,1.86l-6.74,8.61,6.13,7.98c.81.16,1,2.41.16,2.56l-25.52.07v24.77s13.56-.06,13.56-.06c.72.09,1.3.56,1.39,1.19.07.46-.63,1.39-1.22,1.39h-25.35s.01,11.26.01,11.26c0,.54-.72,1.21-1.32,1.21h-21.52s-.12,11.47-.12,11.47l-23.33.03.06,10.06ZM103.77,19.16c-.22-.29-.16-1.29.06-1.58l5.51-7.12h-22.27s.01,16.07.01,16.07l22.2-.08-5.51-7.3Z"/>
    <path class="cls-2" d="M29.69,19.39c-5.71-.62-9.26-5.97-8.39-11.22S27.31-.99,32.78.22c5.17,1.15,8.32,5.97,7.53,11.01-.75,4.84-5.21,8.75-10.62,8.15ZM26.54,15.54c2.66,1.99,6.16,1.84,8.6-.15,2.29-1.87,3.51-4.94,2.36-8.11-.92-2.54-3.51-4.75-6.69-4.73-3.15.02-5.75,2.11-6.68,4.72-1.07,2.98-.23,6.29,2.41,8.26Z"/>
    <path class="cls-1" d="M37.17,56.44l-11.2-1.97c-.72-.13-1.54.41-1.62,1.17l-1.28,13.01-8.29,13.74c-1.01,1.68-2.63,2.66-4.53,1.69-1.75-.89-2.12-3.04-1.11-4.78l7.4-12.74.88-19.11,2.17-14.02-.67-1.03c-.18-.28-1.03,0-1.32.17l-6.24,3.81-3.8,12.02c-.46,1.46-1.39,2.43-2.98,2.16-1.39-.24-2.41-1.69-1.92-3.24l4.18-13.33c.21-.67.97-1.55,1.56-1.93l10.39-6.82c2.27-1.49,4.5-2,7.26-1.43,2.28.47,4.73,1.08,6.04,3.23l5.71,9.31,9.85,1.9c1.49.29,2.51,1.1,2.46,2.65-.04,1.17-1.2,2.55-2.67,2.31l-11.98-2c-1.85-1.88-2.02-4.48-3.54-4.42-.38.02-1.01.69-1.07,1.12l-1.26,8.6c-.05.37.37,1.35.79,1.43l10.51,2.1c2.19.44,3.62,1.83,3.73,4.11l.69,14.94c.08,1.76-.66,3.15-2.3,3.58-1.19.31-3.64-.37-3.76-2.12l-.87-12.62c-.04-.58-.68-1.41-1.23-1.5Z"/>
    <path class="cls-3" d="M103.77,19.16l5.51,7.3-22.2.08V10.48s22.26-.01,22.26-.01l-5.51,7.12c-.22.28-.28,1.28-.06,1.58Z"/>
    <path class="cls-4" d="M26.54,15.54c-2.64-1.97-3.47-5.28-2.41-8.26.93-2.62,3.53-4.71,6.68-4.72,3.17-.02,5.77,2.2,6.69,4.73,1.15,3.17-.07,6.24-2.36,8.11-2.43,1.98-5.93,2.14-8.6.15Z"/>
    <path class="cls-5" d="M103.66,18.13c.03-.23.09-.44.17-.55l5.51-7.12h-22.27s0,7.67,0,7.67h16.58Z"/>
  </g>
</svg>