<?xml version="1.0" encoding="UTF-8"?>
<svg id="Capa_2" data-name="Capa 2" xmlns="http://www.w3.org/2000/svg" viewBox="0 0 109.12 112.34">
  <defs>
    <style>
      .cls-1 {
        fill: #4285f4;
      }

      .cls-1, .cls-2, .cls-3, .cls-4, .cls-5 {
        stroke-width: 0px;
      }

      .cls-2 {
        fill: #000;
      }

      .cls-3 {
        fill: #fbbc05;
      }

      .cls-4 {
        fill: #34a853;
      }

      .cls-5 {
        fill: #ea4335;
      }
    </style>
  </defs>
  <g id="Capa_1-2" data-name="Capa 1">
    <g>
      <path class="cls-2" d="M81.28,94.12l-12.42,12.65-15.86,5.56-1.26-.21c-.28-.05-.56-.92-.46-1.25l1.28-4.27c-3.18.47-6.12,0-8.59-1.99-2.19-1.77-3.59-4.55-3.73-7.62-1.61-.55-3.21-1.53-3.73-2.88-.7-1.82-.26-3.59,1.22-4.96-1.29-1.01-1.79-2.23-1.69-3.86.08-1.34.92-2.54,2.07-3.64-1.11-4.44-3.3-8.43-5.72-12.21l-5.83-9.14c-4.08-7.19-5.01-15.43-2.16-23.18,4.25-11.55,15.24-19.19,27.65-18.53,14.31.76,25.76,12.39,26.36,26.69.26,6.34-1.77,12.18-5.18,17.4l-5.43,8.29c-2.18,3.33-3.83,6.99-4.68,10.79,1.09.9,1.66,1.81,2.07,3.12l18.88-19.3,10.68-10.66c3.07-3.06,7.99-1.72,11.02,1.06,3.04,2.79,4.87,8.26,1.62,11.56l-26.12,26.56ZM53.15,58.55l-.05-3.04c-.04-2.5,1.73-4.59,3.78-5.26,2.42-.78,4.8.14,6.23,2.19,1.1,1.56,1.17,3.6.36,5.4-.62,1.37-2.21,2.99-4.08,3.1l-3.83.21v20.01s5.14,0,5.14,0c.81-3.12,1.7-6.06,3.41-8.78l7.03-11.15c2.97-4.71,4.9-9.9,4.73-15.61-.39-12.71-10.26-23.2-22.87-24.39-15.58-1.47-28.64,11.42-27.62,26.97.32,4.87,2.25,9.16,4.85,13.22l6.21,9.71c1.99,3.12,3.15,6.42,4.09,10.04l5.18-.05v-20.08s-3.23-.05-3.23-.05c-3.28-.05-5.43-2.94-5.13-6.15.29-3.05,3.02-5.11,5.92-4.84s5.02,2.7,4.98,5.83l-.04,2.67,4.94.04ZM45.8,58.51l-.23-3.9c-.09-1.57-2.18-2.34-3.37-2.08-1.54.33-2.45,1.77-2.41,3.15.05,1.59,1.34,2.86,3,2.85l3.02-.02ZM55.52,58.53l3.25-.05c1.68-.03,2.75-1.55,2.7-3.04-.05-1.49-1.04-2.72-2.72-2.95-1.08-.15-2.95.7-3.03,2.2l-.2,3.84ZM100.1,71.56l4.38-4.37c2.99-2.59,2.45-6.73-.34-9.29-2.24-2.05-5.75-3.15-8.16-.78l-5.19,5.12,9.31,9.32ZM53.14,81.12l-.05-20.07-4.87-.02.02,20.17,4.91-.08ZM62.77,98.22l17.31-17.52,12.7-12.93-3.67-3.64-19.98,20.24-10.03,10.21,3.67,3.65ZM68.36,103.77l8.04-8.31,21.93-22.09-3.86-3.77-17.53,17.82-12.39,12.52,3.81,3.83ZM60.8,87.71c1.38,0,2.05-1.03,2-2.06-.04-.88-.85-1.95-1.95-1.95h-20.81c-.99,0-1.66,1.47-1.57,2.2.1.8.82,1.84,1.77,1.84l20.56-.03ZM56.04,94.35l3.64-4.02-19.08-.03c-1.26,0-2.11,1.35-1.95,2.31.18,1.05,1.03,1.8,2.24,1.79l15.14-.05ZM53.43,103.8l2-6.88-12.59-.02c.02,3.34,1.98,6.05,5.13,7.01,1.74.53,3.78.44,5.47-.12ZM66.08,105.09l-8.05-8.08-3.8,12.43,11.85-4.35Z"/>
      <path class="cls-2" d="M36.42,104.12c-.99.98-2.55,1.07-3.55.21l-2.22-1.92-2.66,1.12-.08,2.73c-.03.92-.88,2.45-1.95,2.45l-6.98-.06c-2.44-.02-1.6-4.47-2.01-5.03-.22-.3-1.98-1.02-2.64-1.02-.52,0-3.43,3.83-5.45,1.81l-4.6-4.59c-1.63-1.63,1.51-4.31,1.83-5.04.15-.33-.21-1.18-.36-1.52l-.58-1.3c-.23-.52-5.08.52-5.11-2.65L0,83.57c-.02-1.93,1.42-3,3.34-2.9.41.02,1.38-.05,1.71-.23s.56-.87.73-1.4l.42-1.33c.16-.51-3.87-3.18-1.73-5.39l3.94-4.07c.78-.8,2.44-1.26,3.34-.52l2.56,2.1,2.67-.97.22-2.98c.08-1.1,1.19-2.1,2.29-2.11l4.24-.06c.48,0,1.31.53,1.48.92.2.44-.52,1.6-1.04,1.61l-4.51.07-.35,4.23-5.45,2.24-3.4-2.94-4.02,4.05,2.73,3.38-2.2,5.59-4.44.43.04,5.83,4.4.31,2.01,5.12c.16.42-.3,1.29-.61,1.65l-2.02,2.32,4.24,3.96,2.77-2.61c.42-.4,1.73.11,2.25.33l3.83,1.61.18,4.44,5.79-.07c.06-1.79.13-3.17.42-4.43l3.67-1.55c2.96-1.25,2.52.84,5.11,2.16.88-1.01,1.69-1.95,2.53-2.48.39-.25,1.33.54,1.4.94s-.08,1.28-.38,1.57l-1.74,1.73Z"/>
      <path class="cls-2" d="M20.63,78.28c4.42-.99,8.68,1.74,9.71,6.08s-1.66,8.65-5.93,9.62c-4.48,1.01-8.84-1.47-9.91-6.11-.94-4.05,1.69-8.59,6.14-9.59ZM20.83,80.82c-3.2,1.01-4.64,4.26-3.76,6.98.96,2.99,4.06,4.47,6.83,3.73,3.01-.81,4.71-3.95,3.99-6.65-.82-3.1-3.91-5.05-7.06-4.05Z"/>
      <path class="cls-2" d="M51.99,10.31c0,.43-.48,1.1-.81,1.3-.39.23-1.69-.2-1.69-.68V.71c0-.49,1.32-.86,1.72-.65s.76.96.76,1.58l.02,8.67Z"/>
      <path class="cls-2" d="M25.37,19.59c.56.55.62,1.48.22,1.99-.3.38-1.41.51-1.8.11l-6.22-6.21c-.33-.33-.38-1.29-.22-1.66.17-.42,1.3-.82,1.65-.49l6.37,6.26Z"/>
      <path class="cls-2" d="M77.61,21.68c-.4.41-1.5.4-1.83.11-.36-.32-.46-1.46-.1-1.82l6.27-6.32c.28-.28.98-.4,1.34-.33.42.09,1.04,1.45.73,1.76l-6.42,6.59Z"/>
      <path class="cls-2" d="M13.88,46.42l-8.48.03c-.59,0-1.43-.49-1.5-.94-.11-.73.5-1.58,1.23-1.58h8.74c.66-.02,1.35.63,1.34,1.24s-.69,1.25-1.34,1.25Z"/>
      <path class="cls-2" d="M95.13,46.42h-8.74c-.64,0-1.31-.66-1.3-1.25s.68-1.27,1.3-1.27h8.76c.61,0,1.27.7,1.29,1.27s-.66,1.25-1.3,1.25Z"/>
      <path class="cls-2" d="M30.08,71.24c-1.1,1.25-2,.28-2.99.02s-1.61-.92-1.72-1.83c-.09-.74.83-2.09,1.72-1.6,1.15.64,2.14,2.09,2.99,3.41Z"/>
      <path class="cls-3" d="M53.15,58.55l-4.94-.04.04-2.67c.04-3.12-2.02-5.55-4.98-5.83s-5.63,1.79-5.92,4.84c-.3,3.21,1.85,6.1,5.13,6.15l3.23.05v20.08s-5.18.05-5.18.05c-.93-3.62-2.09-6.92-4.09-10.04l-6.21-9.71c-2.6-4.06-4.53-8.35-4.85-13.22-1.02-15.55,12.04-28.43,27.62-26.97,12.61,1.19,22.48,11.69,22.87,24.39.18,5.72-1.76,10.9-4.73,15.61l-7.03,11.15c-1.71,2.72-2.6,5.65-3.41,8.78h-5.13s0-20.01,0-20.01l3.83-.21c1.87-.1,3.46-1.73,4.08-3.1.82-1.81.74-3.84-.36-5.4-1.44-2.05-3.81-2.97-6.23-2.19-2.05.67-3.82,2.76-3.78,5.26l.05,3.04Z"/>
      <polygon class="cls-1" points="68.36 103.77 64.55 99.94 76.95 87.42 94.48 69.6 98.34 73.37 76.41 95.46 68.36 103.77"/>
      <polygon class="cls-1" points="62.77 98.22 59.1 94.58 69.13 84.37 89.11 64.13 92.78 67.77 80.08 80.7 62.77 98.22"/>
      <path class="cls-4" d="M100.1,71.56l-9.31-9.32,5.19-5.12c2.4-2.37,5.92-1.27,8.16.78,2.79,2.56,3.33,6.7.34,9.29l-4.38,4.37Z"/>
      <polygon class="cls-3" points="53.14 81.12 48.24 81.2 48.22 61.03 53.09 61.05 53.14 81.12"/>
      <path class="cls-5" d="M60.8,87.71l-20.56.03c-.95,0-1.67-1.03-1.77-1.84-.09-.73.58-2.19,1.57-2.19h20.81c1.11,0,1.91,1.06,1.95,1.94.05,1.03-.63,2.06-2,2.06Z"/>
      <path class="cls-5" d="M56.04,94.35l-15.14.05c-1.21,0-2.06-.74-2.24-1.79-.17-.97.68-2.32,1.95-2.31l19.08.03-3.64,4.02Z"/>
      <path class="cls-5" d="M53.43,103.8c-1.69.56-3.73.65-5.47.12-3.15-.97-5.11-3.67-5.13-7.01l12.59.02-2,6.88Z"/>
      <polygon class="cls-4" points="66.08 105.09 54.23 109.44 58.03 97.01 66.08 105.09"/>
      <path class="cls-3" d="M45.8,58.51l-3.02.02c-1.65,0-2.95-1.27-3-2.85-.04-1.38.87-2.81,2.41-3.15,1.19-.26,3.27.52,3.37,2.08l.23,3.9Z"/>
      <path class="cls-3" d="M55.52,58.53l.2-3.84c.08-1.5,1.95-2.35,3.03-2.2,1.68.23,2.67,1.46,2.72,2.95.05,1.49-1.02,3.01-2.7,3.04l-3.25.05Z"/>
      <path class="cls-4" d="M20.83,80.82c3.15-.99,6.24.95,7.06,4.05.71,2.7-.98,5.84-3.99,6.65-2.77.74-5.87-.73-6.83-3.73-.88-2.72.56-5.97,3.76-6.98Z"/>
    </g>
  </g>
</svg>