<?xml version="1.0" encoding="UTF-8"?>
<svg id="Capa_2" data-name="Capa 2" xmlns="http://www.w3.org/2000/svg" viewBox="0 0 55.04 39.05">
  <defs>
    <style>
      .cls-1 {
        fill: #294161;
      }

      .cls-1, .cls-2, .cls-3, .cls-4 {
        stroke-width: 0px;
      }

      .cls-2 {
        fill: #000;
      }

      .cls-3 {
        fill: #c19517;
      }

      .cls-4 {
        fill: #fff;
      }
    </style>
  </defs>
  <g id="Capa_1-2" data-name="Capa 1">
    <g>
      <path class="cls-2" d="M52.04,39.05H2.67c-1.61-.01-2.65-1.54-2.66-2.87v-3.18c.03-.23.44-.65.68-.65h3.33s-.01-29.22-.01-29.22c0-1.6.94-3.11,2.74-3.11h41.36c1.61-.01,2.89,1.16,2.89,2.78v29.54s3.33,0,3.33,0c.24,0,.71.42.7.67l-.05,3.47c-.02,1.53-1.42,2.57-2.95,2.57ZM49.74,4.25l.03-1.45c.02-.95-.72-1.55-1.66-1.55H6.61c-.85,0-1.39,1.03-1.37,1.65l.04,1.35h44.46ZM32.52,33.93c.13-.86.29-1.22.77-1.57l16.49-.02V5.48s-44.53,0-44.53,0v26.85s16.67,0,16.67,0c.4.44.56.93.74,1.58h9.86ZM53.76,33.59h-19.91c-.11.54-.51,1.57-1.07,1.57l-10.16.02c-.78,0-1.23-.87-1.37-1.58H1.21s.05,2.69.05,2.69c.02.96.82,1.5,1.75,1.5h49.19c.96,0,1.6-.77,1.59-1.64l-.03-2.55Z"/>
      <path class="cls-4" d="M32.52,33.93h-9.86c-.17-.65-.34-1.14-.74-1.58H5.25s0-26.86,0-26.86h44.53s0,26.85,0,26.85l-16.49.02c-.48.36-.64.71-.77,1.57ZM18.42,10.32c.31-.18.55-.56.51-.79-.04-.21-.46-.47-.73-.47h-9.11c-.23,0-.62.43-.62.64s.38.62.62.62h9.33ZM32.33,23.99l3.88-9.89c.14-.36.06-.82-.23-.98-.26-.15-.77.06-.89.38l-3.89,9.98c-.14.37-.1.8.16.92.36.17.81.01.97-.41ZM11.25,14.9c.24,0,.53-.56.45-.75s-.45-.49-.68-.49h-1.79c-.22,0-.61.27-.7.47s.18.78.42.78l2.29-.02ZM16.56,14.91c.21,0,.54-.58.47-.78s-.46-.48-.68-.48h-2.82c-.21.01-.58.43-.55.63s.4.63.63.63h2.95ZM28.93,21.66l-3.06-2.85,3.15-2.98c.16-.15.15-.8-.06-.85-.18-.04-.57-.05-.77-.05l-3.56,3.36c-.29.26-.35.76-.07,1.01l3.56,3.34c.18.17.78.12.92-.07.16-.2.09-.73-.11-.91ZM39.37,22.52l3.22-3.09c.2-.19.61-.72.34-.98l-3.75-3.54c-.18-.17-.86.07-.91.3-.05.2.05.62.21.77l3.02,2.8-3.06,2.89c-.23.22-.21.79.01.97.18.15.71.09.93-.12ZM15.72,19.5c.34,0,.71-.51.65-.75-.05-.2-.48-.49-.71-.49h-6.56c-.28,0-.67.55-.6.8s.49.48.77.48l6.46-.04ZM11.42,23.87c.21,0,.6-.47.56-.65s-.37-.53-.57-.54l-2.29-.03c-.27,0-.64.48-.6.72.03.21.42.56.65.55l2.26-.06ZM15.57,23.9c.25,0,.65-.43.63-.67-.02-.2-.37-.62-.59-.62h-1.88c-.28-.01-.67.49-.64.74.03.22.43.6.66.59l1.83-.04ZM18.21,28.5c.27,0,.67-.41.64-.63s-.42-.6-.66-.6h-9.06c-.3,0-.67.51-.61.76.05.23.47.47.76.47h8.93Z"/>
      <path class="cls-1" d="M53.76,33.59l.03,2.55c.01.87-.63,1.64-1.59,1.64H3.01c-.93,0-1.73-.54-1.75-1.49l-.05-2.69h20.03c.14.71.58,1.58,1.37,1.58l10.16-.02c.56,0,.96-1.03,1.07-1.55h19.91Z"/>
      <path class="cls-3" d="M49.74,4.25H5.29s-.04-1.35-.04-1.35c-.02-.62.52-1.64,1.37-1.64h41.5c.94,0,1.68.59,1.66,1.54l-.03,1.45Z"/>
      <path class="cls-2" d="M32.33,23.99c-.17.43-.62.58-.97.41-.26-.12-.3-.55-.16-.92l3.89-9.98c.13-.33.64-.53.89-.38.29.16.37.62.23.98l-3.88,9.89Z"/>
      <path class="cls-2" d="M28.93,21.66c.19.18.26.71.11.91-.14.19-.75.24-.92.07l-3.56-3.34c-.27-.26-.22-.75.07-1.01l3.56-3.36c.2,0,.59,0,.77.05.21.05.22.7.06.85l-3.15,2.98,3.06,2.85Z"/>
      <path class="cls-2" d="M39.37,22.52c-.22.21-.75.27-.93.12-.23-.19-.24-.76-.01-.97l3.06-2.89-3.02-2.8c-.16-.15-.26-.57-.21-.77.06-.23.74-.47.91-.3l3.75,3.54c.28.26-.14.79-.34.98l-3.22,3.09Z"/>
      <path class="cls-2" d="M18.42,10.32h-9.33c-.23,0-.61-.4-.62-.62s.38-.64.62-.64h9.11c.26,0,.69.26.73.47.04.24-.2.61-.51.79Z"/>
      <path class="cls-2" d="M18.21,28.5h-8.93c-.29,0-.71-.24-.76-.47-.06-.25.31-.76.61-.76h9.06c.24,0,.63.39.66.61s-.37.63-.64.63Z"/>
      <path class="cls-2" d="M15.72,19.5l-6.46.04c-.28,0-.69-.24-.77-.48s.31-.79.6-.79h6.56c.24,0,.66.28.71.48.06.24-.31.75-.65.75Z"/>
      <path class="cls-2" d="M16.56,14.91h-2.95c-.23,0-.6-.42-.63-.62s.34-.62.55-.62h2.82c.22-.01.61.27.68.46s-.26.78-.47.78Z"/>
      <path class="cls-2" d="M11.42,23.87l-2.26.06c-.23,0-.62-.35-.65-.55-.04-.24.33-.73.6-.72l2.29.03c.2,0,.53.36.57.54s-.35.64-.56.65Z"/>
      <path class="cls-2" d="M15.57,23.9l-1.83.04c-.23,0-.63-.37-.66-.59-.03-.25.36-.76.64-.75h1.88c.22.01.57.43.59.63.02.24-.38.67-.63.67Z"/>
      <path class="cls-2" d="M11.25,14.9l-2.29.02c-.24,0-.5-.58-.42-.78s.48-.48.7-.48h1.79c.23,0,.6.3.68.49s-.22.74-.45.75Z"/>
    </g>
  </g>
</svg>