<?xml version="1.0" encoding="UTF-8"?>
<svg id="Capa_2" data-name="Capa 2" xmlns="http://www.w3.org/2000/svg" viewBox="0 0 48.63 41.88">
  <defs>
    <style>
      .cls-1 {
        fill: #294161;
      }

      .cls-1, .cls-2, .cls-3, .cls-4 {
        stroke-width: 0px;
      }

      .cls-2 {
        fill: #000;
      }

      .cls-3 {
        fill: #c19517;
      }

      .cls-4 {
        fill: #1e804b;
      }
    </style>
  </defs>
  <g id="Capa_1-2" data-name="Capa 1">
    <g>
      <path class="cls-2" d="M22.39,40.71c-1.67,1.74-4.36,1.36-5.89.06-1.73-1.51-1.96-3.88-.77-5.96l7.41-7.51-2.27-1.72-2.6.99-.21,1.88c-.11.94-.6,1.5-1.55,1.51h-3.25c-.72,0-1.32-.39-1.39-1.17l-.19-2.17-2.59-1.05-1.67,1.36c-.37.3-1.2.4-1.55.06l-2.96-2.94c-.28-.28-.05-1.14.19-1.44l1.29-1.64-1.06-2.59-1.86-.22C.58,18.06,0,17.59,0,16.68v-3.43c.01-.75.56-1.29,1.29-1.36l2.06-.21,1.07-2.59-1.41-1.84c-.46-.6-.14-1.24.3-1.69l2.49-2.51c.37-.38,1.27-.24,1.64.05l1.65,1.32,2.56-1.06.21-2.09c.07-.65.46-1.26,1.21-1.26h3.59c.78-.02,1.27.55,1.34,1.28l.21,2.11,2.59,1.03,1.64-1.31c.4-.32,1.21-.43,1.62-.03l2.6,2.57c.41.4.62,1.08.24,1.59l-1.41,1.87,1.09,2.54,1.88.22c.8.09,1.39.52,1.4,1.38v3.41c0,.88-.5,1.33-1.36,1.45l-1.94.28-1,2.52,1.64,2.24,5.18-5.22c-.61-2-.51-4.05.46-5.99,1.8-3.61,5.98-5.31,9.85-4.2.39.11.9.77.57,1.12l-4.12,4.3.22,1.71,1.83,1.77c.42.14,1.34.11,1.79.07l3.77-3.85c.15-.15.57-.34.77-.33s.58.31.65.52c1.5,4.49-.95,9.29-5.46,10.67-1.38.42-2.7.41-4.11.11l-16.23,16.87ZM17.12,25.67c2.16-.41,3.58-1.84,4.3-1.24l1.91,1.6,2.61-2.61-1.85-2.39,1.58-3.77,2.96-.34v-3.8s-2.99-.36-2.99-.36l-1.59-3.8,1.86-2.28-2.6-2.63-1.87,1.51c-.18.15-.68.21-.89.12l-3.44-1.41-.33-2.99h-3.66s-.29,2.98-.29,2.98l-3.52,1.46c-.18.07-.68-.03-.84-.17l-1.84-1.52-2.58,2.6,1.87,2.41c-.75,1.31-1.14,2.31-1.58,3.73l-3.07.35v3.83s3.03.28,3.03.28l1.24,3.08c.11.27.33.83.16,1.05l-1.66,2.09,2.62,2.56,2.31-1.88,3.85,1.56.3,3.04,3.68-.04.32-3.02ZM47.21,14.24l-3.66,3.7c-.87.12-1.96.07-2.89-.04l-2.48-2.55-.38-2.59,3.88-3.94c-1.52-.32-2.94-.14-4.33.47-3.43,1.51-4.99,5.37-3.52,8.94l-6.83,6.9-9.84,9.99c-1.24,1.26-1.27,3.14-.12,4.43.96,1.08,3.17,1.65,4.43.34l16.74-17.4c2.77.9,5.57.1,7.4-2.03,1.49-1.74,2.18-4.01,1.6-6.2Z"/>
      <path class="cls-1" d="M17.12,25.67l-.32,3.02-3.68.04-.3-3.04-3.85-1.56-2.31,1.88-2.62-2.56,1.66-2.09c.17-.22-.05-.78-.16-1.05l-1.24-3.08-3.03-.28v-3.83s3.06-.35,3.06-.35c.45-1.41.83-2.42,1.58-3.73l-1.87-2.41,2.58-2.6,1.84,1.52c.16.13.66.24.84.17l3.52-1.46.29-2.99h3.66s.33,3,.33,3l3.44,1.41c.22.09.71.02.89-.12l1.87-1.51,2.6,2.63-1.86,2.28,1.59,3.8,3.01.36v3.8s-2.98.34-2.98.34l-1.58,3.77,1.85,2.39-2.61,2.61-1.91-1.6c-.72-.6-2.13.83-4.3,1.24ZM13.61,9.24c-3.31.79-5.16,4.06-4.43,7.14s3.93,5.08,7.09,4.4c3.14-.68,5.16-3.88,4.5-6.94-.7-3.23-3.83-5.39-7.16-4.6Z"/>
      <path class="cls-3" d="M47.21,14.24c.58,2.19-.12,4.46-1.6,6.2-1.82,2.13-4.63,2.93-7.4,2.03l-16.74,17.4c-1.26,1.31-3.47.74-4.43-.34-1.15-1.29-1.12-3.18.12-4.43l9.84-9.99,6.83-6.9c-1.47-3.57.08-7.43,3.52-8.94,1.39-.61,2.81-.8,4.33-.47l-3.88,3.94.38,2.59,2.48,2.55c.93.12,2.02.17,2.89.04l3.66-3.7Z"/>
      <path class="cls-2" d="M13.61,9.24c3.33-.79,6.46,1.37,7.16,4.6.66,3.06-1.36,6.26-4.5,6.94-3.16.68-6.33-1.19-7.09-4.4s1.12-6.35,4.43-7.14ZM19.58,15.88c.36-1.64-.3-3.18-1.31-4.18-1.15-1.14-2.71-1.67-4.29-1.31-2.36.54-3.9,2.66-3.74,4.95.16,2.35,2.03,4.16,4.36,4.34,2.3.18,4.44-1.35,4.98-3.8Z"/>
      <path class="cls-4" d="M19.58,15.88c-.53,2.45-2.68,3.98-4.98,3.8-2.33-.18-4.19-1.99-4.36-4.34-.16-2.29,1.38-4.41,3.74-4.95,1.58-.36,3.14.17,4.29,1.31,1,1,1.66,2.54,1.31,4.18Z"/>
    </g>
  </g>
</svg>