<?xml version="1.0" encoding="UTF-8"?>
<svg id="Capa_2" data-name="Capa 2" xmlns="http://www.w3.org/2000/svg" viewBox="0 0 44.58 45.9">
  <defs>
    <style>
      .cls-1 {
        fill: #294161;
      }

      .cls-1, .cls-2, .cls-3, .cls-4 {
        stroke-width: 0px;
      }

      .cls-2 {
        fill: #000;
      }

      .cls-3 {
        fill: #c19517;
      }

      .cls-4 {
        fill: #1e804b;
      }
    </style>
  </defs>
  <g id="Capa_1-2" data-name="Capa 1">
    <g>
      <path class="cls-2" d="M32.03,42.25c-1.26.99.36,3.29-.68,3.31l-5.29.06c-.25,0-.77-.41-.77-.67v-3.13s-.98.05-.98.05c.05,1.23-.4,2.27-1.17,2.98-1.51,1.4-4.91,1.39-6.44,0-.82-.74-1.15-1.86-1.18-3.01-.87,0-1.82-.3-2.06-1.21-.18-.66.08-1.31.66-1.61-.59-.4-.83-.84-.7-1.5.08-.42.51-.89,1.1-1.18-.09-2.41-1.19-4.63-2.61-6.65l-2.54-3.61c-2.95-5.03-1.97-11.28,2.33-15.18,4.16-3.78,10.35-4.33,15-1.16,3.9,2.66,6.03,7.09,5.41,11.78l-.48,3.65c1.06-.74,1.95-1.23,3.12-1.07,1.09.14,2.03.86,2.41,1.66.54,1.15.44,2.2-.26,3.31h2.88c.36,0,.79.41.79.8v4.35c1.42-.39,2.67.14,3.45,1.24.71.99.71,2.48-.01,3.54s-1.94,1.71-3.42,1.21l-.04,4.57c0,.5-.46.84-.96.83l-5.08-.08c-.56,0-.45-1.12-.27-1.49.3-.63.02-1.42-.45-1.78-.54-.41-1.25-.44-1.79-.02ZM25.28,34.18v-4.29c.01-.37.43-.8.81-.8h3.92s.23-2.03.23-2.03l.72-6.93c.16-5.3-3.73-9.97-8.89-10.98-6.96-1.36-13.34,4.13-13.16,11.17.06,2.45,1.05,4.58,2.44,6.51l2.22,3.08c1.35,1.87,2.01,3.98,2.22,6.35l5.7-.03c.63-1.67,2.1-2.41,3.78-2.04ZM35.46,44.39h3.94s0-4.59,0-4.59c0-.58.64-.94,1.16-.78.99.32,1.9.11,2.45-.69s.41-1.71-.14-2.4c-1-1.27-2.54-.08-3.19-.56-.14-.1-.28-.48-.28-.67v-4.4s-3.73-.03-3.73-.03c-.23,0-.56-.57-.48-.78.36-.89,1.79-1.98.66-3.45-.54-.7-1.59-.99-2.52-.54-1.45.69-2.19,2.24-2.02,3.83.06.51-.44.97-.91.97h-3.88s-.01,4.63-.01,4.63c0,.73-1.04.68-1.49.51-.96-.38-1.84.12-2.25.94-.34.68-.24,1.6.32,2.22s1.39.79,2.26.44c.44-.18,1.17.13,1.17.64l.02,4.72,3.9-.03c-.44-1.34.08-2.5.97-3.13,1.01-.7,2.38-.65,3.24.15.82.75,1.16,1.85.8,3ZM15.39,40.59l8.71-.04c-1.57-.51-2.69-1.42-2.72-3.06l-6.1.02c-1.12,0-.04.9-.49,2.32-.04.12-.04.44,0,.55s.39.21.59.21ZM20.54,44.62c1.67.09,2.71-1.31,2.54-2.79h-6.29c-.15,1.34.67,2.63,2.02,2.7l1.73.09Z"/>
      <path class="cls-2" d="M20.61,4.03c0,.26-.24.67-.43.75-.22.09-.84-.17-.84-.44l-.02-3.64c0-.28.38-.65.6-.7.24-.05.68.35.68.62l.02,3.41Z"/>
      <path class="cls-2" d="M4.82,31.67c-.25.23-.85.18-1.02-.07-.13-.2-.05-.69.16-.88l2.64-2.39c.18-.16.74-.1.87.09s.12.74-.07.91l-2.57,2.34Z"/>
      <path class="cls-2" d="M31.21,8.6c-.2.21-.75.2-.91.06-.21-.18-.27-.68-.03-.92l2.43-2.54c.14-.15.69-.11.84.02s.27.6.13.75l-2.45,2.64Z"/>
      <path class="cls-2" d="M9.65,7.7c.16.17.19.69.04.89s-.72.23-.93.01l-2.4-2.47c-.17-.18-.14-.81.06-.95s.76-.06.94.13l2.3,2.39Z"/>
      <path class="cls-2" d="M39.16,19.33h-3.54c-.23,0-.62-.39-.61-.64,0-.23.39-.61.63-.61h3.51c.25-.01.65.37.65.6,0,.28-.38.64-.64.64Z"/>
      <path class="cls-2" d="M4.42,19.29l-3.66.07C.36,19.36,0,19.03,0,18.68c0-.25.42-.61.75-.61l3.29.02c.17,0,.5.2.63.32.15.14-.02.88-.24.88Z"/>
      <path class="cls-3" d="M25.28,34.18c-1.68-.37-3.15.38-3.78,2.04l-5.7.03c-.21-2.37-.87-4.48-2.22-6.35l-2.22-3.08c-1.39-1.93-2.38-4.06-2.44-6.51-.19-7.03,6.2-12.53,13.16-11.17,5.16,1.01,9.05,5.68,8.89,10.98l-.72,6.93-.23,2.02h-3.92c-.38,0-.8.44-.8.81v4.29Z"/>
      <path class="cls-4" d="M35.46,44.39c.36-1.15.02-2.25-.8-3-.87-.79-2.24-.85-3.24-.15-.9.63-1.42,1.79-.97,3.13l-3.9.03-.02-4.72c0-.51-.73-.82-1.17-.64-.87.35-1.71.17-2.26-.44s-.65-1.54-.32-2.22c.41-.82,1.28-1.32,2.25-.94.44.17,1.48.22,1.49-.51v-4.63s3.89,0,3.89,0c.48,0,.97-.46.91-.97-.17-1.59.57-3.14,2.02-3.83.93-.44,1.99-.16,2.52.54,1.13,1.47-.3,2.56-.66,3.45-.08.21.25.78.48.78l3.72.03v4.4c.01.18.15.57.29.67.65.48,2.18-.71,3.19.56.54.69.66,1.64.14,2.4s-1.46,1-2.45.69c-.51-.16-1.16.2-1.16.78v4.58s-3.94.01-3.94.01Z"/>
      <path class="cls-1" d="M15.39,40.59c-.2,0-.56-.1-.59-.21s-.04-.43,0-.55c.45-1.41-.63-2.31.49-2.32l6.1-.02c.02,1.64,1.14,2.55,2.72,3.06l-8.71.04Z"/>
      <path class="cls-1" d="M20.54,44.62l-1.73-.09c-1.34-.07-2.17-1.36-2.02-2.7h6.29c.17,1.48-.87,2.87-2.54,2.79Z"/>
    </g>
  </g>
</svg>