<?xml version="1.0" encoding="UTF-8"?>
<svg id="Capa_2" data-name="Capa 2" xmlns="http://www.w3.org/2000/svg" viewBox="0 0 108.85 100.04">
  <defs>
    <style>
      .cls-1 {
        fill: #294161;
      }

      .cls-1, .cls-2, .cls-3, .cls-4, .cls-5 {
        stroke-width: 0px;
      }

      .cls-2 {
        fill: #000;
      }

      .cls-3 {
        fill: #c19517;
      }

      .cls-4 {
        fill: #1e804b;
      }

      .cls-5 {
        fill: #fff;
      }
    </style>
  </defs>
  <g id="Capa_1-2" data-name="Capa 1">
    <g>
      <path class="cls-2" d="M52,28.47c-1.67-1.18-4.03-.99-5.5.24-2.36,1.97.38,3.8-.33,5.49-.22.53-1.21,1.24-1.85,1.24h-7.55c-1.71.05-3.69-1.15-3.71-3.03l-.06-9.02c-2.3,1.19-4.58.84-6.36-.86-2.74-2.6-2.65-7.3.13-9.88,1.74-1.62,4.03-1.94,6.23-.82l.03-8.34c0-1.98,1.55-3.42,3.55-3.48h25.75c2.11.19,3.48,1.69,3.48,3.75v8.11c2.21-1.31,4.8-.87,6.53,1,2.25,2.42,2.33,6.26.5,8.92-1.83,2.19-4.4,2.97-7.05,1.62l.02,8.23c0,2.09-1.43,3.74-3.58,3.84h-7.78c-.55-.01-1.52-.63-1.77-1.08-.95-1.7,2.06-3.99-.68-5.92ZM53.14,26.43c2.38,1.55,3.04,4.22,1.78,6.63h7.32c.44,0,1.17-.71,1.17-1.16v-8.43c-.02-.73.36-1.73.82-2.06,1.95-1.38,4.91,2.13,6.89-1.33.88-1.55.8-3.72-.22-5.18-2.25-3.19-4.54.18-6.45-.86-.48-.26-1.04-1.19-1.04-1.84V3.44c0-.47-.7-1.06-1.21-1.06l-25.4.04c-.8,0-1.44.51-1.44,1.31v8.46c.01.69-.52,1.65-1.01,1.91s-1.68.26-2.12-.04c-1.43-.97-3.17-.76-4.24.69-1.13,1.54-1.29,3.87-.24,5.48,2.14,3.27,4.8.06,6.45.91.45.23,1.15,1.2,1.16,1.72l.02,9.05c0,.4.7,1.18,1.18,1.17l7.31-.04c-1.27-2.48-.49-5.17,1.84-6.66,2.17-1.38,5.19-1.43,7.45.04Z"/>
      <path class="cls-2" d="M90.43,95.59h-4.22c-1.73,0-2.58-1.27-2.69-2.96l-.12-1.81-2.52-1.03-2.72,2.14c-.49.38-2.03.06-2.51-.42l-3.02-2.97c-1.04-1.02-1.21-2.5-.21-3.69l1.46-1.73-1.21-2.83-1.73-.08c-1.66-.08-2.93-.83-2.92-2.55v-4.72c.02-1.24,1.02-2.39,2.3-2.45l2.29-.11,1.24-2.7-1.79-2.31c-.4-.52-.44-2.05.07-2.6,1.34-1.46,2.68-3.08,4.36-4.01,1.49-.83,3.14.7,4.1,1.89l2.89-1.08.23-2.63c.1-1.08,1.38-2.01,2.44-2l4.81.03c2.88.02,2.05,4.21,2.42,4.49.25.19.71.39,1.18.58l1.35.53c.35.14.97-.59,1.24-.87,1.35-1.41,3.15-1.51,4.5-.18l2.55,2.53c1.07,1.06,1.28,2.51.25,3.73l-1.46,1.74,1.24,2.77,1.7.1c1.49.09,2.91.9,2.91,2.54v5.01c0,1.19-1.17,2.18-2.28,2.2l-2.36.05-1.22,2.77,1.35,1.66c1.07,1.31,1.06,2.73-.16,3.91l-2.88,2.78c-2.33,2.25-4.5-1.02-5.2-1.35-.31-.14-1.08.2-1.43.35l-1.22.57c-.5.23.24,2.32-.86,3.83-.34.48-1.51.85-2.17.85ZM90.89,90.09c0-.32.65-.96.96-1.09l4.52-1.83,3.09,2.6,3.38-3.24c-1.11-1.22-2.06-2.24-2.46-3.33l2.12-5.13,3.98-.29-.04-5.04c-1.4-.03-2.99-.06-3.97-.41l-1.76-4.16c-.22-.51-.19-1.34.15-1.74l2.02-2.43-3.39-3.27-3.12,2.6-5.44-2.33-.14-3.77-4.83.05-.18,3.84-3.7,1.42c-.47.18-1.68.79-2.08.46l-2.73-2.27-3.21,3.3,2.54,3.31c-.95,1.77-1.5,2.94-2.07,4.88-1.14.44-2.56.5-4.18.5v5.09s3.99.23,3.99.23l2.18,5.37-2.52,3.12,3.22,3.29,1.78-1.53c1.23-1.06,1.73-.97,3.03-.48l3.71,1.43.23,4.07,4.85-.04.06-3.2Z"/>
      <path class="cls-2" d="M35.95,67.93c4.26,9.67-.48,20.63-10.05,24.66-8.67,3.65-18.59.23-23.35-7.88-5.48-9.35-1.8-21.17,7.65-26.01,9.5-4.87,21.3-.86,25.75,9.24ZM35.02,76.34c.56-8.32-5.21-15.38-13.11-16.99-9.28-1.89-17.94,4.48-19.29,13.63-1.34,9.08,5.16,17.53,14.3,18.53s17.45-5.6,18.1-15.17Z"/>
      <path class="cls-2" d="M97.71,52.56c-.77.77-1.61.09-2.06-.5l-4.75-6.31c-.24-.32-.05-1.1.2-1.36s1.37-.37,1.62-.05l3.3,4.11c1.02-11.61-4.85-22.52-15.11-27.72-.5-.25-.81-1.03-.7-1.48s1.11-.98,1.67-.7c11.13,5.65,17.55,17.3,16.54,29.93l3.58-3.51c.34-.33,1.12-.56,1.55-.39s.75,1.39.39,1.75l-6.22,6.24Z"/>
      <path class="cls-2" d="M41.46,94.13l2.14,4.08c.27.5.04,1.47-.49,1.75-.4.22-1.37-.09-1.64-.58l-3.89-7.27c-.36-.67.05-1.6.69-1.79l8.16-2.41c.45-.13,1.33.34,1.44.76.15.59-.34,1.34-.96,1.53l-4.96,1.53c7.73,3.7,16.12,3.95,23.92,1,.63-.24,1.48.22,1.61.79s-.23,1.21-.86,1.45c-8.26,3.13-16.92,2.77-25.17-.83Z"/>
      <path class="cls-2" d="M13.3,49.71c.04.84-.57,1.58-1.18,1.57-.67,0-1.22-.66-1.24-1.43-.16-6.83,1.55-13.18,4.92-19.18l-4.96,2.32c-.39.18-1.28-.14-1.48-.49-.27-.48.02-1.43.56-1.69l7.82-3.66c.41-.19,1.75-.09,1.87.43l2.01,8.71c.14.63-.07,1.22-.54,1.62-.33.28-1.41.05-1.53-.41l-1.54-5.86c-3.26,5.71-5,11.52-4.71,18.05Z"/>
      <path class="cls-3" d="M53.14,26.43c-2.26-1.47-5.28-1.42-7.45-.04-2.33,1.49-3.11,4.18-1.84,6.66l-7.31.04c-.48,0-1.18-.78-1.18-1.17l-.02-9.05c0-.52-.71-1.49-1.16-1.72-1.65-.85-4.31,2.36-6.45-.91-1.05-1.61-.89-3.94.24-5.48,1.07-1.45,2.8-1.66,4.24-.69.43.29,1.63.3,2.12.04s1.03-1.23,1.03-1.91V3.74c-.01-.8.62-1.31,1.43-1.31l25.4-.04c.52,0,1.22.59,1.22,1.06v8.76c0,.65.56,1.58,1.03,1.84,1.92,1.04,4.2-2.33,6.45.86,1.03,1.46,1.11,3.63.22,5.18-1.98,3.46-4.94-.04-6.89,1.33-.46.33-.84,1.32-.84,2.06v8.43c.02.45-.72,1.16-1.15,1.16h-7.32c1.26-2.42.6-5.09-1.78-6.64Z"/>
      <path class="cls-4" d="M90.89,90.09l-.06,3.2-4.85.04-.23-4.07-3.71-1.43c-1.29-.5-1.8-.58-3.03.48l-1.78,1.53-3.22-3.29,2.52-3.12-2.18-5.37-3.99-.23v-5.09c1.62,0,3.04-.07,4.18-.5.57-1.94,1.12-3.11,2.07-4.88l-2.54-3.31,3.21-3.3,2.73,2.27c.4.33,1.61-.28,2.08-.46l3.7-1.42.18-3.84,4.83-.05.14,3.77,5.44,2.33,3.12-2.6,3.39,3.27-2.02,2.43c-.33.4-.36,1.23-.15,1.74l1.76,4.16c.97.34,2.57.37,3.97.41l.04,5.04-3.98.29-2.12,5.13c.4,1.08,1.35,2.11,2.46,3.33l-3.38,3.24-3.09-2.6-4.52,1.83c-.31.13-.95.76-.96,1.09ZM91.53,82.58c3.79-1.51,5.58-5.57,4.61-9.28-.94-3.6-4.24-6.1-8.18-5.88-5.07.28-8.36,4.89-7.32,9.65,1.04,4.72,6.03,7.44,10.89,5.51Z"/>
      <path class="cls-1" d="M35.02,76.34c-.65,9.57-9.08,16.17-18.1,15.17s-15.63-9.46-14.3-18.53c1.35-9.15,10.01-15.52,19.29-13.63,7.9,1.61,13.67,8.67,13.11,16.99ZM15.07,81.35c.48.49,1.51.33,1.9-.13l10.48-10.8c.11-.5.07-1.34-.23-1.58s-1.18-.14-1.59.07l-9.68,9.95-4.08-4.09c-.28-.28-1.4-.1-1.62.22s-.18,1.26.1,1.54l4.72,4.81Z"/>
      <path class="cls-2" d="M91.53,82.58c-4.85,1.93-9.85-.79-10.89-5.51-1.04-4.76,2.25-9.37,7.32-9.65,3.94-.22,7.24,2.28,8.18,5.88.97,3.7-.82,7.77-4.61,9.28ZM89.04,80.8c3.07-.3,5.23-2.88,5.14-5.61s-2.05-5.01-4.87-5.42c-3.36-.5-6.28,2.01-6.48,5.14-.22,3.38,2.56,6.26,6.22,5.89Z"/>
      <path class="cls-5" d="M15.07,81.35l-4.72-4.81c-.28-.29-.32-1.22-.1-1.54s1.34-.51,1.62-.22l4.08,4.09,9.68-9.95c.4-.21,1.29-.32,1.59-.07s.34,1.09.23,1.58l-10.48,10.8c-.39.46-1.42.62-1.9.13Z"/>
    </g>
  </g>
</svg>