<?xml version="1.0" encoding="UTF-8"?>
<svg id="Capa_2" data-name="Capa 2" xmlns="http://www.w3.org/2000/svg" viewBox="0 0 52.05 55.8">
  <defs>
    <style>
      .cls-1 {
        fill: #294161;
      }

      .cls-1, .cls-2, .cls-3, .cls-4, .cls-5 {
        stroke-width: 0px;
      }

      .cls-2 {
        fill: #000;
      }

      .cls-3 {
        fill: #c19517;
      }

      .cls-4 {
        fill: #1e804b;
      }

      .cls-5 {
        fill: #fff;
      }
    </style>
  </defs>
  <g id="Capa_1-2" data-name="Capa 1">
    <g>
      <path class="cls-2" d="M36.96,55.8H15.88c-2.63,0-4.76-1.87-5.39-4.26-.67-2.55.54-5.15,2.86-6.45v-3.52s-1.21-.3-1.21-.3l-2.89,2.46c-.91.77-2.46.47-3.46-.07-.93-.5-1.84-1.62-1.87-2.87l-.06-2.44c-1.52-.14-2.84-1.08-3.43-2.29-1.19-2.41.37-5.68,1.52-4.7.71.6-1.31,1.82-.51,3.92.31.82,1.11,1.53,2.1,1.78,1.53.39,3.06-.47,3.57-1.88.53-1.49-.15-3.15-1.73-3.75-.36-.14-.57-.66-.42-.96.57-1.1,3.99,1.09,3.55,4.21-.24,1.68-1.47,3.19-3.37,3.61v2.16c0,.82.51,1.64,1.11,2.03s1.67.81,2.34.27l2.71-2.21c-.75-.82-1.01-1.72-1-2.83.01-1.78,1.22-3.21,3.09-3.39-.4-1.97.87-4,2.9-4.02l5.4-.05v-2.26s-3.93.01-3.93.01c-2.56,0-4.57-2.03-4.48-4.62h-1.33c-1.31.02-2.36-.91-2.36-2.26v-4.45c.01-.97.66-1.85,1.64-2.1.63-.16,1.37-.15,2.05-.15-.16-2.49,1.71-4.92,4.31-4.93l7.86-.04-.02-3.97c-1.46-.44-2.25-1.72-2.07-3.09S24.66,0,26.06,0s2.5,1.02,2.69,2.37-.61,2.63-2.1,3.05l-.02,4,8.09.06c2.55.02,4.31,2.49,4.1,4.91l1.53.04c1.32.04,2.2,1.13,2.19,2.38l-.03,4.45c0,.9-.87,1.98-1.79,2.02l-1.86.09c-.01,2.14-1.54,4.33-3.8,4.53-1.56.14-3.04.05-4.61.06l-.02,2.25c1.92.03,3.72-.07,5.58.07,1.91.14,3.06,2.15,2.66,4,1.98.22,3.28,1.74,3.18,3.7-.05.97-.21,1.77-1.01,2.51.95.72,1.79,1.66,2.86,2.23,1.4.74,3.21-.67,3.23-2.14l.03-2.3c-1.94-.49-3.29-1.98-3.46-3.83-.27-3.06,3.11-5.11,3.61-3.98.09.21-.1.74-.31.82-1.66.63-2.43,2.28-1.82,3.9.55,1.47,2.25,2.33,3.85,1.74.87-.32,1.57-1.07,1.81-1.75.77-2.18-1.32-3.24-.51-3.86,1.09-.84,2.62,2.31,1.55,4.57-.59,1.24-1.82,2.27-3.45,2.4l-.09,2.44c-.04,1.12-.81,2.2-1.63,2.74-.96.63-2.39.98-3.42.32-1.12-.71-2.02-1.73-3.07-2.56l-1.32.32v3.48c2.17,1.18,3.38,3.53,2.99,6.02-.42,2.28-2.16,4.3-4.74,4.74ZM25.47,1.37c-.85.34-1.13,1.31-.78,2.09.29.64,1.14,1.03,1.87.72s1.11-1.1.86-1.89c-.23-.73-1.06-1.27-1.95-.92ZM34.78,26.76c1.82-.29,2.83-1.73,2.83-3.43v-9.41c-.02-1.62-1.21-2.92-2.77-3.21l-17.41.02c-1.61,0-2.94,1.64-2.94,3.17l-.02,9.58c0,2.08,1.7,3.29,3.63,3.29h16.67ZM11.92,22.15l1.34-.03v-6.44s-1.81.02-1.81.02c-.34,0-.66.78-.66,1.12v4.29c.01.59.55,1.06,1.13,1.04ZM41.28,21.05v-4.44c0-.31-.44-.94-.75-.94l-1.69-.02v6.47s1.37.04,1.37.04c.54.01,1.07-.49,1.07-1.11ZM29.2,30.22l-.02-2.24h-6.26s.03,2.26.03,2.26l6.25-.02ZM37.48,44.48l.02-10.91c0-.82-.57-2.08-1.61-2.09l-19.49-.02c-1.04,0-1.82,1.02-1.82,1.99v11.09s1.83-.24,1.83-.24h19.3s1.77.17,1.77.17ZM13.34,40.41l.02-4.99c-1.11.25-1.75,1.05-1.85,2.08-.13,1.33.47,2.56,1.83,2.91ZM40.7,37.87c-.02-1.22-.74-2.27-1.97-2.34l-.03,4.89c1.31-.22,2.01-1.28,2-2.54ZM40.4,49.03c-.53-2.02-2.28-3.49-4.33-3.49h-19.84c-2.67,0-4.77,2.16-4.65,4.85.09,2.04,1.79,4.16,3.98,4.16h20.98c2.73-.01,4.54-2.95,3.86-5.52Z"/>
      <path class="cls-1" d="M37.48,44.48l-1.77-.17h-19.3s-1.84.24-1.84.24v-11.09c.01-.96.79-1.99,1.83-1.99l19.49.02c1.04,0,1.61,1.26,1.61,2.09l-.02,10.91ZM27.43,35.19c-.31.25-.33.9-.09,1.06.29.2.77.23.99.06.28-.22.33-.85.12-1.03s-.82-.25-1.02-.09ZM30.42,35.23c-.33.26-.23.97.06,1.12.22.11.7.11.9-.03.25-.17.29-.79.12-1-.21-.25-.75-.33-1.08-.08ZM33.56,35.17c-.35.24-.41.85-.19,1.06s.76.29.97.13c.24-.19.36-.67.25-.9-.15-.29-.75-.49-1.03-.29Z"/>
      <path class="cls-3" d="M34.78,26.76h-16.67c-1.93.01-3.64-1.19-3.63-3.27l.02-9.58c0-1.54,1.33-3.17,2.94-3.17l17.41-.02c1.56.3,2.75,1.59,2.75,3.21v9.41c.02,1.7-1,3.14-2.81,3.43ZM34.74,19.83v-1.99c0-1.81-1.45-3.27-3.3-3.27h-11.12c-2.12.3-3.38,2.22-3,4.31-.41,2.12.82,4.05,3,4.32l10.94.02c1.92,0,3.48-1.32,3.47-3.4Z"/>
      <path class="cls-4" d="M40.4,49.03c.68,2.56-1.13,5.5-3.86,5.5H15.56c-2.19.01-3.89-2.11-3.98-4.15-.12-2.69,1.98-4.85,4.65-4.85h19.84c2.06,0,3.8,1.48,4.33,3.5ZM16.91,47.54c-1.57.28-2.37,1.69-2.06,3.19.26,1.24,1.55,2.19,2.99,1.9,1.29-.26,2.25-1.53,2.04-2.92s-1.43-2.44-2.97-2.17ZM25.64,47.55c-1.58.27-2.39,1.68-2.08,3.18.26,1.24,1.55,2.2,3.03,1.9,1.26-.25,2.24-1.51,2.02-2.92-.2-1.31-1.44-2.43-2.97-2.16ZM34.36,47.54c-1.54.31-2.41,1.72-2.06,3.19.28,1.22,1.6,2.2,3.02,1.91,1.31-.27,2.23-1.53,2.02-2.93-.2-1.33-1.44-2.47-2.97-2.16Z"/>
      <path class="cls-5" d="M11.92,22.15c-.58.01-1.12-.45-1.12-1.04v-4.29c-.01-.33.3-1.11.65-1.12l1.8-.02v6.44s-1.33.03-1.33.03Z"/>
      <path class="cls-5" d="M41.28,21.05c0,.62-.53,1.13-1.07,1.11l-1.37-.04v-6.47s1.7.02,1.7.02c.3,0,.75.63.75.94v4.44Z"/>
      <polygon class="cls-5" points="29.2 30.22 22.95 30.24 22.92 27.99 29.18 27.98 29.2 30.22"/>
      <path class="cls-5" d="M40.7,37.87c.02,1.27-.69,2.32-2,2.54l.03-4.89c1.23.07,1.95,1.13,1.97,2.34Z"/>
      <path class="cls-5" d="M25.47,1.37c.89-.36,1.72.18,1.95.92.25.79-.11,1.57-.86,1.89s-1.57-.08-1.87-.72c-.36-.78-.07-1.74.78-2.09Z"/>
      <path class="cls-5" d="M13.34,40.41c-1.37-.35-1.96-1.58-1.83-2.91.1-1.03.74-1.83,1.85-2.08l-.02,4.99Z"/>
      <path class="cls-2" d="M30.42,35.23c.32-.25.87-.17,1.08.08.18.22.14.83-.12,1-.2.14-.69.15-.9.03-.29-.15-.39-.87-.06-1.12Z"/>
      <path class="cls-2" d="M33.56,35.17c.28-.19.88,0,1.03.29.11.23,0,.71-.25.9-.21.16-.73.09-.97-.13s-.16-.82.19-1.06Z"/>
      <path class="cls-2" d="M27.43,35.19c.2-.17.8-.11,1.02.09s.16.81-.12,1.03c-.22.17-.7.14-.99-.06-.24-.16-.22-.81.09-1.06Z"/>
      <path class="cls-2" d="M34.74,19.83c0,2.07-1.55,3.4-3.47,3.4l-10.94-.02c-2.18-.28-3.41-2.21-3-4.32-.39-2.09.87-4.01,3-4.32h11.12c1.85.01,3.29,1.47,3.29,3.28v1.99ZM31.55,22.02c.98-.13,1.95-.81,1.95-1.78v-2.54c0-1.28-1.24-1.93-2.39-1.93l-10.63.02c-.9,0-1.93.9-1.93,1.78v2.49c-.02,1.18,1.15,1.98,2.28,1.98h10.72Z"/>
      <path class="cls-2" d="M34.36,47.54c1.53-.31,2.77.83,2.97,2.16.21,1.4-.71,2.66-2.02,2.93-1.42.3-2.73-.68-3.02-1.91-.34-1.47.52-2.88,2.06-3.19ZM34.21,48.91c-.76.41-.88,1.29-.53,1.87s1.09.82,1.69.5c.63-.33.88-1.15.58-1.75s-1.02-1.01-1.74-.62Z"/>
      <path class="cls-2" d="M25.64,47.55c1.53-.26,2.77.85,2.97,2.16.21,1.41-.76,2.67-2.02,2.92-1.48.3-2.77-.67-3.03-1.9-.32-1.51.5-2.91,2.08-3.18ZM25.45,48.89c-.78.38-.89,1.31-.53,1.93.33.56,1.11.77,1.72.48.66-.31.91-1.12.59-1.78-.29-.59-1.03-.99-1.78-.62Z"/>
      <path class="cls-2" d="M16.91,47.54c1.54-.27,2.77.83,2.97,2.17s-.75,2.66-2.04,2.92c-1.45.29-2.73-.66-2.99-1.9-.31-1.5.49-2.91,2.06-3.19ZM17.23,48.74c-.84.09-1.31.82-1.22,1.52s.7,1.25,1.48,1.15c.63-.08,1.24-.67,1.17-1.46-.05-.57-.63-1.29-1.43-1.21Z"/>
      <path class="cls-5" d="M31.55,22.02h-10.72c-1.14,0-2.31-.79-2.3-1.97v-2.49c.02-.87,1.05-1.77,1.95-1.78l10.63-.02c1.15,0,2.39.66,2.39,1.93v2.54c0,.97-.97,1.65-1.95,1.78ZM21.69,17.26c-1.04.12-1.64,1.08-1.48,1.99.15.83.95,1.43,1.88,1.32.85-.1,1.54-.91,1.42-1.89-.09-.76-.84-1.54-1.83-1.42ZM29.92,17.27c-1.05.23-1.56,1.24-1.3,2.12.24.8,1.07,1.36,1.99,1.16.83-.18,1.44-1.04,1.24-1.97-.16-.78-.95-1.52-1.94-1.31Z"/>
      <path class="cls-5" d="M34.21,48.91c.72-.39,1.45,0,1.74.62s.05,1.42-.58,1.75c-.6.31-1.34.07-1.69-.5s-.23-1.46.53-1.87Z"/>
      <path class="cls-5" d="M25.45,48.89c.75-.37,1.5.03,1.78.62.32.66.07,1.47-.59,1.78-.62.29-1.39.08-1.72-.48-.37-.62-.25-1.55.53-1.93Z"/>
      <path class="cls-5" d="M17.23,48.74c.8-.08,1.38.64,1.43,1.21.07.79-.54,1.39-1.17,1.46-.78.1-1.4-.47-1.48-1.15s.38-1.44,1.22-1.52Z"/>
      <path class="cls-2" d="M29.92,17.27c.99-.22,1.78.52,1.94,1.31.19.93-.41,1.8-1.24,1.97-.92.2-1.76-.36-1.99-1.16-.26-.88.25-1.89,1.3-2.12ZM29.96,18.41c-.21.09-.32.65-.19.81s.57.21.75.09c.17-.11.23-.52.11-.69-.09-.14-.52-.27-.68-.2Z"/>
      <path class="cls-2" d="M21.69,17.26c.99-.12,1.74.66,1.83,1.42.11.98-.58,1.78-1.42,1.89-.93.11-1.73-.48-1.88-1.32-.16-.91.43-1.87,1.48-1.99ZM21.59,18.41c-.25.17-.44.64-.26.78.21.16.61.3.78.2s.28-.51.21-.69-.56-.39-.73-.28Z"/>
      <path class="cls-5" d="M29.96,18.41c.16-.07.59.06.68.2.11.17.05.58-.11.69-.18.12-.62.07-.75-.09s-.02-.72.19-.81Z"/>
      <path class="cls-5" d="M21.59,18.41c.16-.11.66.1.73.28s-.04.59-.21.69-.57-.04-.78-.2c-.18-.14,0-.61.26-.78Z"/>
    </g>
  </g>
</svg>