<?xml version="1.0" encoding="UTF-8"?>
<svg id="Capa_2" data-name="Capa 2" xmlns="http://www.w3.org/2000/svg" viewBox="0 0 36.99 41.29">
  <defs>
    <style>
      .cls-1 {
        fill: #fff;
        stroke-width: 0px;
      }
    </style>
  </defs>
  <g id="Capa_1-2" data-name="Capa 1">
    <g>
      <path class="cls-1" d="M28.23,33.84c-.21.21-.55.24-.72.09-.22-.2-.2-.54,0-.75l3.31-3.31c.25-.25.25-.79.13-1.03-.16-.31-.53-.54-.93-.52s-.77.25-1.07.51l-3.08,2.7c-1.01.89-4.51,1.81-4.64,5.61l-.13,3.88c-.02.14-.39.29-.53.27-.16-.03-.44-.28-.44-.44l.06-3.3c.05-2.38,1.19-4.54,3.27-5.73l1.78-1.01,3.11-2.78c.79-.7,1.82-.93,2.77-.4l1.65-5.65c.3-1.04,1.37-1.74,2.39-1.7,1.28.06,1.95,1.09,1.79,2.27l-1.19,8.94c-.19,1.4-.88,2.57-1.87,3.51l-3.66,3.48c-.7.67-1.11,1.45-1.22,2.42-.03.23-.39.41-.59.36-.8-.21-.17-2.28,1.16-3.55l4.02-3.83c.72-.69,1.08-1.74,1.21-2.73l1.15-8.81c.04-.27-.07-.64-.22-.81-.13-.15-.53-.28-.73-.26-.88.1-1.22.7-1.44,1.42l-1.68,5.74c.19.66.23,1.5-.29,2.02l-3.39,3.38Z"/>
      <path class="cls-1" d="M9.49,33.21c.21.21.15.57-.02.7-.2.16-.5.14-.69-.05l-3.22-3.19c-.61-.61-.83-1.41-.49-2.23l-1.78-6.06c-.18-.6-.68-1.03-1.31-1.11-.24-.03-.62.11-.75.26-.17.19-.25.52-.21.81l1.13,8.74c.13,1.04.5,2.14,1.26,2.86l4.23,4.04c.97,1.04,1.7,3.14.82,3.28s-.28-1.37-1.63-2.67l-3.96-3.8c-.9-.87-1.49-2.04-1.65-3.31L.01,22.25c-.15-1.13.91-2.02,1.97-1.97,1.11.05,1.98.82,2.28,1.87l1.59,5.45c.83-.43,1.82-.35,2.52.27l3.31,2.89,2.15,1.27c1.71,1.01,2.83,2.84,2.89,4.84l.13,3.99c0,.17-.29.4-.44.43s-.54-.15-.55-.31l-.07-3.32c-.1-4.49-3.41-5.04-4.73-6.18l-3.28-2.82c-.37-.32-.92-.46-1.38-.23-.56.28-.63,1.06-.19,1.5l3.28,3.29Z"/>
      <path class="cls-1" d="M18.5,22.38c-3.52-.3-6.41,2.23-6.69,5.67.03.35-.23.58-.56.55-.3-.03-.46-.31-.43-.65.25-2.92,2.1-5.34,4.98-6.28-2.61-1.59-3.5-4.91-1.8-7.5,1.22-1.86,3.4-2.8,5.57-2.35,2.06.43,3.75,2.13,4.15,4.19.43,2.24-.53,4.4-2.54,5.65,2.86.95,4.83,3.45,4.96,6.49.01.25-.29.46-.51.44s-.42-.19-.46-.44c-.23-3.46-3.15-6.11-6.68-5.77ZM22.5,18.69c.66-1.55.32-3.23-.69-4.43s-2.63-1.84-4.23-1.48c-1.36.31-2.45,1.22-2.99,2.3-.67,1.34-.62,2.76.06,4,.84,1.53,2.4,2.41,4.13,2.3,1.58-.1,3.04-1.11,3.72-2.7Z"/>
      <path class="cls-1" d="M23.69,6.44c-1.37,1.6-2.96,2.85-4.75,3.88-.26.15-.63.15-.89,0-2.09-1.24-4.95-3.32-5.72-5.55-.45-1.29-.23-2.65.67-3.63S15.23-.23,16.57.12c.67.17,1.28.55,1.9.93.62-.35,1.26-.75,1.95-.93,1.31-.34,2.64.05,3.51.97,1.42,1.5,1.16,3.71-.24,5.35ZM23.89,3.39c-.1-1.59-1.46-2.63-2.97-2.35-1.72.32-2.09,1.55-2.91.94-1.5-1.14-3.23-1.43-4.36-.09-.57.68-.71,1.62-.42,2.51.84,2.16,3.23,3.77,5.24,5.07,1.61-.96,3.09-2.05,4.31-3.45.65-.75,1.09-1.59,1.11-2.62Z"/>
    </g>
  </g>
</svg>