<?xml version="1.0" encoding="UTF-8"?>
<svg id="Capa_2" data-name="Capa 2" xmlns="http://www.w3.org/2000/svg" viewBox="0 0 43.55 39.97">
  <defs>
    <style>
      .cls-1 {
        fill: #fff;
        stroke-width: 0px;
      }
    </style>
  </defs>
  <g id="Capa_1-2" data-name="Capa 1">
    <g>
      <path class="cls-1" d="M31.11,25.53c.67-1.07,1.61-1.67,2.85-1.96-1.09-.92-2.41-1.31-3.76-1.3h-2.22c-1.98.03-3.75.92-4.83,2.58-.83,1.29-1.36,2.78-1.37,4.37l-.04,10.2c0,.23-.24.49-.41.53-.21.05-.62-.14-.62-.41v-9.87c0-1.74.63-3.36,1.15-4.83-.41-2.48-2.63-4.32-5.04-4.63-1.8-.23-3.52-.25-5.27.02-1.9.29-3.53,1.39-4.38,3.16,1.73-.35,3.3.17,4.41,1.48,1.66,1.96,1.36,4.87-.66,6.57,2.31.44,3.93,2.24,3.94,4.54v3.46c.01.19-.24.47-.4.52s-.58-.13-.58-.3l-.03-3.79c-.02-1.91-1.66-3.48-3.57-3.48h-4c-1.96-.01-3.57,1.53-3.58,3.49l-.03,3.56c0,.28-.25.54-.5.54-.26,0-.5-.25-.5-.53v-3.34c-.01-2.3,1.49-4.19,3.85-4.65-1.22-1.04-1.81-2.4-1.73-3.92.12-1.39.81-2.73,2.07-3.55.47-1.67,1.54-3.01,3.02-3.86.86-.48,1.73-.76,2.7-.95-2.75-1.72-3.67-5.15-2.16-7.94.95-1.76,2.73-2.83,4.64-2.91,1.98-.08,3.83.91,4.87,2.64,1.71,2.84.8,6.45-2,8.23,2.72.39,4.88,2.11,5.74,4.61l1.11-1.14-1.39-.74c-.14-.07-.32-.38-.32-.53,0-.46.99-1.04,1.22-2.94l.29-2.48c.4-3.39,2.93-5.77,6.2-5.42,1.73.19,3.33,1.27,4.16,2.93,1.3,2.62.3,5.41,2.08,7.47.58.68-.48,1.28-1.58,1.72l.95.92c1.69.29,3.03,1.58,3.44,3.08.49,1.82-.06,3.57-1.49,4.77,2.34.4,3.9,2.23,3.89,4.54v3.52c0,.24-.34.5-.56.47-.25-.04-.47-.28-.47-.55v-3.56c0-1.79-1.4-3.21-3.15-3.45l-2.33-.07-2.24.05c-1.7.19-3.22,1.54-3.24,3.29l-.03,3.75c0,.3-.25.55-.53.54-.24-.01-.47-.28-.47-.56l.04-3.92c.02-2.07,1.75-3.63,3.78-4.04-1.74-1.53-2.16-3.95-.94-5.91ZM16.07,18.45c2.42-1.21,3.36-4.14,2.24-6.51-.62-1.31-1.77-2.2-2.99-2.49-1.48-.35-2.89.03-3.98,1-2.26,1.99-2.11,5.45.17,7.38,1.27,1.08,2.98,1.41,4.57.61ZM32.18,19.93c.21-.24.52-.25.69-.12.13.1.25.52.13.65l-.97.98,1.18.41c.6.09,1.22-.24,1.78-.55-1.61-2.31-.88-4.84-1.77-6.98-.66-1.6-2.06-2.64-3.67-2.79-1.7-.15-3.24.67-4.16,2.13-.5.79-.7,1.74-.83,2.69l-.39,2.85c-.11.78-.51,1.41-.89,2.1.54.26,1.24.72,1.77.55l1.25-.4-.94-.85c-.22-.2-.2-.6.04-.78.16-.13.49-.13.67.08,1.61,1.9,4.43,1.94,6.11.04ZM10.45,30.49c1.11-1,1.48-2.48,1.01-3.86-.42-1.24-1.57-2.24-3-2.34-1.32-.08-2.43.58-3.08,1.59-.68,1.06-.74,2.34-.21,3.48.46.99,1.34,1.67,2.23,1.89,1.14.28,2.2,0,3.05-.76ZM37.71,29.34c.51-1.16.37-2.42-.36-3.42-.62-.85-1.65-1.45-2.84-1.37-1.11.07-2.05.72-2.55,1.54-.59.98-.69,2.04-.31,3.08.47,1.29,1.62,2.13,2.92,2.18s2.56-.69,3.13-2.01Z"/>
      <path class="cls-1" d="M31.43,3.4C22.49-1.27,11.36,1.2,5.25,9.17,2.04,13.36.56,18.61,1.16,23.87c.04.33-.29.53-.54.51-.22-.02-.45-.21-.49-.53-.52-4.54.47-9.1,2.76-13.05C6.98,3.77,14.66-.3,22.75.02c9.2.36,17.22,6.49,19.89,15.32.86,2.84,1.12,5.77.72,8.74-.03.19-.42.35-.58.31-.21-.05-.43-.33-.4-.61.34-2.67.08-5.2-.65-7.78-1.56-5.44-5.25-9.96-10.3-12.59Z"/>
    </g>
  </g>
</svg>