<?xml version="1.0" encoding="UTF-8"?>
<svg id="Capa_2" data-name="Capa 2" xmlns="http://www.w3.org/2000/svg" viewBox="0 0 112.37 104.46">
  <defs>
    <style>
      .cls-1 {
        fill: #294161;
      }

      .cls-1, .cls-2, .cls-3, .cls-4 {
        stroke-width: 0px;
      }

      .cls-2 {
        fill: #000;
      }

      .cls-3 {
        fill: #c19517;
      }

      .cls-4 {
        fill: #1e804b;
      }
    </style>
  </defs>
  <g id="Capa_1-2" data-name="Capa 1">
    <g>
      <path class="cls-2" d="M42.53,39.99c-1.19,0-1.97-.7-1.96-1.75l.05-5.99c.05-5.76,4.74-10.41,10.51-11.7-3.51-2.03-5.79-5.66-5.78-9.68s2.27-7.65,5.85-9.56c5.35-2.86,11.87-.83,14.73,4.28,2.98,5.3,1.01,11.77-4.24,14.92,5.72,1.4,9.96,6.01,10.36,11.74l.12,5.7c.02,1.19-.8,2.04-2.01,2.04h-27.62ZM52.45,18.42c4.75,2.64,10.29,0,11.91-4.73,1.68-4.91-1.43-10.06-6.37-11.02-5.02-.98-9.83,2.68-10.08,7.87-.16,3.22,1.63,6.26,4.54,7.88ZM69.59,37.52l-.03-4.99c-.32-5.36-4.79-9.79-10.14-9.78l-6.28.02c-5.7.31-10.22,4.97-10.13,10.67l.06,4.1,26.52-.02Z"/>
      <path class="cls-2" d="M110.84,104.35h-27.76c-1.04,0-1.74-.75-1.79-1.74l.13-6.51c.62-5.52,4.87-9.72,10.44-10.98-5.94-3.31-7.46-10.73-3.4-15.94,4.12-5.29,11.97-5.53,16.38-.53s3.35,12.74-2.81,16.46c5.15,1.29,9.36,5.19,10.13,10.52l.22,7.26c-.14.65-.79,1.46-1.53,1.46ZM101.89,82.13c3.81-3.17,4.13-8.33,1.06-11.83-2.96-3.38-8.03-3.72-11.53-.61-3.35,2.98-3.62,7.93-.74,11.34,2.72,3.21,7.72,4,11.21,1.1ZM109.83,101.87l-.12-5.87c-.76-5.24-5.56-8.81-10.77-8.69l-5.93.14c-4.73.62-8.63,4.34-9.14,9.01l-.1,5.43h26.06Z"/>
      <path class="cls-2" d="M29.18,104.35H1.66c-.89,0-1.67-.88-1.66-1.7l.09-6.04c.08-5.74,4.66-10.13,10.35-11.49-4.04-2.47-6.36-6.91-5.3-11.6,1.11-4.9,5.26-8.24,10.03-8.46s9.23,3.03,10.59,7.41c1.57,5.04-.68,9.98-5.04,12.64,5.48,1.37,9.75,5.67,10.24,11.19l.12,6.33c.02,1.05-.89,1.72-1.89,1.72ZM13.65,67.81c-4.66,1.21-7.12,5.84-5.97,10.04,1.16,4.26,5.54,6.87,9.7,5.87,4.42-1.06,7.19-5.58,6.18-9.79s-5.35-7.31-9.91-6.13ZM28.61,101.87l-.05-5.59c-.77-4.66-4.66-8.86-9.55-8.88l-6.63-.03c-4.97-.02-9.38,4.27-9.83,9.19l-.05,5.33,26.12-.02Z"/>
      <path class="cls-2" d="M55.94,79.35l-8.46,7.48c-.32.28-1.15.44-1.51.3-.45-.17-.88-1-.88-1.52v-6.23c-4.59-.17-8.67-3.62-8.65-8.19l.04-14.41c.01-4.03,4-7.58,8.01-7.58h24.12c4.37.01,8.05,3.95,8.03,8.17l-.06,14.1c-.02,3.71-3.49,7.64-7.26,7.7l-13.39.19ZM55.01,76.84l13.4-.02c3.05,0,5.78-2.91,5.76-5.88l-.05-13.88c0-2.59-2.74-5.36-5.41-5.37l-23.39-.1c-3.28-.01-6.43,2.44-6.43,5.85l.03,13.67c0,3.5,3.36,5.9,6.69,5.72.47-.02,1.31.14,1.55.4s.39.89.4,1.29l.13,4.82,7.31-6.5Z"/>
      <path class="cls-2" d="M98.1,57.21c-1.46-12.89-7.78-23.97-18.78-30.48-.69-.41-1-1.14-.6-1.93.23-.46,1.17-.64,1.85-.23,11.5,6.87,18.76,18.83,19.9,32.23.03.36-.61.99-.92,1.11-.36.14-1.4-.24-1.45-.71Z"/>
      <path class="cls-2" d="M27.26,31.14c-7.33,6.74-11.62,15.76-12.6,25.55-.05.5-.62,1.06-.99,1.21-.4.16-1.53-.39-1.49-.91,1.02-13.47,8.4-25.62,19.99-32.49.59-.35,1.38-.2,1.72.21.38.46.26,1.39-.29,1.75-2.25,1.46-4.26,2.76-6.34,4.67Z"/>
      <path class="cls-2" d="M72.18,99.01c.6-.25,1.52.36,1.6.78.11.6-.23,1.33-.96,1.62-10.55,4.13-22.26,3.98-32.89.05-.65-.24-1.1-.86-1.08-1.38.02-.61,1.02-1.33,1.66-1.08,9.64,3.84,21.86,4.03,31.67,0Z"/>
      <path class="cls-4" d="M69.59,37.52l-26.52.02-.06-4.1c-.08-5.7,4.44-10.37,10.13-10.67l6.28-.02c5.34-.02,9.82,4.41,10.14,9.78l.03,4.99Z"/>
      <path class="cls-1" d="M52.45,18.42c-2.92-1.62-4.7-4.67-4.54-7.88.26-5.19,5.06-8.84,10.08-7.87,4.94.96,8.05,6.11,6.37,11.02-1.62,4.72-7.16,7.36-11.91,4.73Z"/>
      <path class="cls-4" d="M109.83,101.87h-26.06s.1-5.42.1-5.42c.51-4.67,4.41-8.39,9.14-9.01l5.93-.14c5.22-.12,10.02,3.45,10.77,8.69l.12,5.87Z"/>
      <path class="cls-1" d="M101.89,82.13c-3.49,2.9-8.49,2.11-11.21-1.1-2.88-3.41-2.61-8.36.74-11.34,3.51-3.11,8.58-2.77,11.53.61,3.06,3.5,2.74,8.66-1.06,11.83Z"/>
      <path class="cls-4" d="M28.61,101.87l-26.12.02.05-5.33c.45-4.92,4.87-9.21,9.83-9.19l6.63.03c4.9.02,8.78,4.22,9.55,8.88l.05,5.59Z"/>
      <path class="cls-1" d="M13.65,67.81c4.56-1.18,8.86,1.77,9.91,6.13s-1.75,8.72-6.18,9.79c-4.16,1-8.54-1.61-9.7-5.87-1.15-4.21,1.32-8.84,5.97-10.04Z"/>
      <path class="cls-3" d="M55.01,76.84l-7.31,6.5-.13-4.82c-.01-.4-.16-1.04-.4-1.29s-1.08-.42-1.55-.4c-3.32.17-6.68-2.22-6.69-5.72l-.03-13.67c0-3.41,3.15-5.87,6.43-5.85l23.39.1c2.67.01,5.4,2.79,5.41,5.37l.05,13.88c.01,2.98-2.71,5.88-5.76,5.88l-13.4.02ZM47.98,62.66c-.91.35-1.21,1.6-.92,2.19.48.94,1.46,1.3,2.28.95.77-.33,1.27-1.37,1-2.15-.28-.83-1.23-1.42-2.37-.99ZM55.96,62.62c-1.04.43-1.42,1.53-.88,2.53.34.63,1.52,1.05,2.3.63s1.2-1.51.86-2.28-1.49-1.21-2.29-.88ZM63.82,62.64c-.86.34-1.18,1.61-.9,2.2.46.95,1.43,1.3,2.27.93.76-.34,1.24-1.35,1-2.12-.27-.86-1.19-1.47-2.37-1Z"/>
      <path class="cls-2" d="M55.96,62.62c.8-.33,1.93.07,2.29.88s-.06,1.85-.86,2.28-1.96,0-2.3-.63c-.54-1-.16-2.1.88-2.53Z"/>
      <path class="cls-2" d="M63.82,62.64c1.18-.46,2.1.14,2.37,1,.24.77-.24,1.79-1,2.12-.83.37-1.81.02-2.27-.93-.28-.58.04-1.86.9-2.2Z"/>
      <path class="cls-2" d="M47.98,62.66c1.14-.43,2.09.15,2.37.99.26.78-.23,1.82-1,2.15-.82.35-1.81,0-2.28-.95-.29-.58,0-1.84.92-2.19Z"/>
    </g>
  </g>
</svg>