<?xml version="1.0" encoding="UTF-8"?>
<svg id="Capa_2" data-name="Capa 2" xmlns="http://www.w3.org/2000/svg" viewBox="0 0 37.82 43.07">
  <defs>
    <style>
      .cls-1 {
        fill: #fff;
        stroke-width: 0px;
      }
    </style>
  </defs>
  <g id="Capa_1-2" data-name="Capa 1">
    <g>
      <path class="cls-1" d="M18.58,42.09c-.41.62-1.01,1.02-1.71.94s-1.22-.65-1.4-1.37c-.97.3-1.98-.22-2.16-1.3-1,.28-1.88-.42-2.06-1.41-.7.08-1.35-.2-1.69-.75-.36-.58-.36-1.26.06-1.93l-2.26-1.68c-.43.21-.82.27-1.26.08l-3.12-1.33c-.61-.26-.43-1.01-.22-1.48l2.74-6.14c.24-.55.73-.93,1.34-.67l3.3,1.44c.28.12.36.32.73.23l3.82-.93c1.07-.26,2.12-.15,3.13.23,1.49-1.21,3.37-1.5,5.17-.88l4.07,1.41c.34.12.43.02.72-.11l3.24-1.42c.23-.1.61-.11.82,0,.18.09.39.38.49.63l2.84,6.64c.25.59-.09.98-.58,1.18l-2.99,1.26c-.35.15-.72.09-1.08-.14l-2.15,1.51c.11.64.13,1.29-.27,1.79s-.97.75-1.62.67c-.06.53-.29,1.01-.59,1.28-.44.39-.96.49-1.57.35-.12,1.04-1.08,1.79-2.17,1.44-.18.5-.44.95-.79,1.15-1.01.58-1.81.16-2.77-.71ZM21.66,29.45l1.68,1.57,4.44,4.39,2.37-1.68-2.62-6.01-4.96-1.71c-1.81-.62-3.62-.03-4.86,1.37l-2.74,2.55c-.15.14-.3.43-.25.61.14.52,1.04.6,1.6.23l2.05-1.38c.99-.66,2.32-.82,3.28.07ZM6.63,33.92l2.88-6.75-3.07-1.31-2.99,6.73,3.18,1.33ZM31.23,33.92l3.08-1.31-2.9-6.77-3.12,1.34,2.94,6.74ZM21.05,37.38c-.12-.12-.02-.56.11-.62s.48-.1.58,0l2.36,2.28c.36.35.76.5,1.17.18.26-.2.48-.77.16-1.07l-2.62-2.57c-.21-.21-.2-.53-.02-.69.19-.18.5-.15.68.03l2.64,2.54c.35.33.86.31,1.2,0,.23-.21.4-.84.05-1.18l-5.89-5.76c-.7-.69-1.53-1.02-2.43-.44l-2.12,1.37c-1.14.74-2.63.54-3.04-.56-.15-.41-.15-.98.16-1.27l2.97-2.84c-.85-.22-1.65-.18-2.47.02l-4.32,1.04-2.51,5.87,2.46,1.87c.41-.44.96-.66,1.56-.55.47.08.92.43,1.2.88.54-.48,1.17-.59,1.81-.3.49.23.86.78.95,1.43,1.05-.06,1.97.62,1.92,1.74.73-.09,1.35.27,1.65.82s.25,1.2-.12,1.79c.3.31.69.62,1.07.74.43.14.81-.11.96-.46s.03-.68-.26-.97l-1.35-1.37c-.15-.15-.04-.61.14-.7.15-.07.49,0,.63.14l1.73,1.8c.33.35.87.32,1.16.01.34-.36.25-.85-.09-1.18l-2.07-2.02ZM11.4,37.9l.65-.87c.26-.35.09-.84-.26-1.04-.29-.16-.73-.09-.96.22l-.54.73c-.18.25-.05.73.15.92s.75.32.96.04ZM13.37,39.33l1.34-1.92c.25-.36-.06-.87-.42-1.02-.29-.12-.67,0-.9.32l-1.03,1.46c-.26.37-.33.75-.01,1.1.2.22.75.44,1.02.06ZM15.53,40.57l1.1-1.54c.26-.36-.06-.88-.34-1.02-.42-.21-.79,0-1.04.35l-1.03,1.46c-.06.38.05.75.34.94.27.17.74.13.97-.2ZM17.53,41.97l.77-.97c.27-.35.33-.76.03-1.1-.23-.26-.78-.38-1.05-.01l-.8,1.07c-.24.32-.15.75.1,1.01.19.19.73.27.94,0Z"/>
      <path class="cls-1" d="M17.45,17.39c-2.11.01-3.77,1.87-3.9,3.92l-.02,3.1c0,.16-.18.43-.32.48-1.04.33-.29-2.05-.64-3.38-.31-1.18-1.64-2.1-2.81-2.23-1.03-.11-1.96-.12-2.97,0-1.75.21-3.2,1.78-3.23,3.55l-.05,3.53c0,.35-.47.71-.8.91l-.08-1.52v-2.38c0-2.36,1.46-4.46,3.84-4.92-1.14-.77-1.84-2.01-1.8-3.4s.8-2.65,2.07-3.28c.95-.48,1.96-.52,2.93-.09,1.31.59,2.13,1.84,2.22,3.22.09,1.42-.56,2.73-1.85,3.55,1.1.2,2.05.71,2.79,1.64.74-2.08,2.51-3.53,4.87-3.64-1.18-.51-2.03-1.31-2.46-2.5-.61-1.67-.18-3.54,1.13-4.74s3.26-1.36,4.72-.25c1.25.95,1.85,2.46,1.64,4.03-.2,1.47-1.09,2.8-2.68,3.45,2.24.13,4.17,1.48,4.87,3.65.75-.86,1.64-1.42,2.77-1.65-1.98-1.31-2.4-4.08-.79-5.85,1.38-1.52,3.63-1.61,5.09-.16,1.75,1.73,1.46,4.61-.67,6.01,2.14.43,3.8,2.21,3.82,4.4l.03,3.66c-.02.2-.23.45-.41.47-.15.02-.47-.22-.47-.38l-.03-3.62c-.02-2.2-1.96-3.8-4.1-3.74l-2.08.06c-1.21.03-2.5,1.03-2.86,2.24-.23,1.3.29,2.96-.5,2.94-.2,0-.45-.23-.45-.44l-.02-2.52c-.02-2.18-1.83-4.02-4.01-4.11h-2.78ZM20.35,15.26c1.88-1.28,2.05-3.95.39-5.44-.99-.89-2.41-.96-3.49-.17-1.62,1.2-1.82,3.57-.49,5.05.92,1.03,2.38,1.38,3.59.56ZM8.78,17.98c1.38-.3,2.24-1.54,2.23-2.84s-.89-2.5-2.21-2.79c-.9-.2-1.81.13-2.42.8-1.14,1.24-1.04,3.17.24,4.26.58.49,1.35.75,2.16.57ZM31.51,13.22c-.93-1.07-2.45-1.23-3.59-.34-.82.64-1.22,1.67-1.07,2.74.13.87.71,1.77,1.61,2.19.77.36,1.59.3,2.32-.13,1.59-.93,1.94-3.07.72-4.46Z"/>
      <path class="cls-1" d="M31.01,5.72C25.67.67,17.86-.48,11.3,2.66c-3.82,1.83-6.84,4.9-8.63,8.75-1.93,4.16-2.32,8.75-.91,13.13.07.23-.08.53-.24.58-.21.08-.54-.02-.62-.25C-.5,20.59-.24,16.02,1.46,11.86,4.09,5.43,9.99.89,16.91.12c8.65-.96,16.43,4.12,19.59,12.14,1.6,4.05,1.75,8.45.41,12.59-.07.22-.42.33-.6.27s-.32-.35-.25-.59c.79-2.66,1.06-5.35.6-8.11-.67-4.08-2.65-7.84-5.67-10.7Z"/>
    </g>
  </g>
</svg>