<?xml version="1.0" encoding="UTF-8"?>
<svg id="Capa_2" data-name="Capa 2" xmlns="http://www.w3.org/2000/svg" viewBox="0 0 48.2 39.91">
  <defs>
    <style>
      .cls-1 {
        fill: #fff;
        stroke-width: 0px;
      }
    </style>
  </defs>
  <g id="Capa_1-2" data-name="Capa 1">
    <g>
      <path class="cls-1" d="M36.68,29.63l-.63,3.51c-.06.34-.29.74-.66.8l-2.64.4c-.61.09-.95.54-.98,1.07-.03.6.27,1.04.91,1.19l5.59-.17c.17-.07.37-.22.49-.35l1.45-5.27c.02-.37.35-.61.68-.56.34.05.51.43.41.79l-1.51,5.44c-.15.53-.73,1-1.29,1.02l-5.7.18c-.74.02-1.34-.36-1.8-.97H11.75c-.32,0-.51-.44-.46-.68.06-.3.33-.5.71-.59l-1.09-1.78-1.03,5.17c-.1.48-.71,1.05-1.25,1.06H1.92c-1.12.01-2.08-1.1-1.9-2.25l1.53-9.79c.42-2.69,2.45-5.11,5.19-4.79,1.14.13,2.25.38,3.36.64,1.37.32,2.4,1.25,3.03,2.46l2.15,4.09,5.16-2.74c1.07-.57,2.41-.41,3.17.58.92,1.19.56,2.91-.73,3.69l-6.14,3.72,13.93.02c-.04-1.14.71-2.06,1.76-2.23l2.53-.41.83-4.39c.37-1.95,1.71-3.59,3.48-4.4,2.99-1.37,6.31-.17,7.77,2.74.7,1.4,1.11,2.88,1.12,4.5l.04,8.01c0,.28-.28.55-.5.57-.24.02-.62-.19-.62-.46l-.03-7.75c-.01-3.04-1.39-6.49-4.48-6.99-3.05-.49-5.32,1.73-5.89,4.92ZM12.85,34.77c.49.84,1.54.83,2.24.41l7.37-4.43c.66-.4.68-1.38.34-1.88-.46-.68-1.24-.71-1.94-.33l-5.4,2.88c-.16.09-.51.15-.65.08-.12-.06-.28-.28-.36-.44l-2.26-4.31c-.64-1.23-1.75-1.91-3.11-2.16l-2.35-.42c-1.26-.23-2.48.51-3.17,1.56-.46.7-.77,1.54-.91,2.4l-1.54,9.65c-.09.54.38,1.04.87,1.04h6.35c.16.01.45-.24.51-.39l1.18-6.3-.63-1.07c-.13-.23.05-.69.26-.77.3-.11.59.03.75.3l2.44,4.19Z"/>
      <path class="cls-1" d="M28.68,12.16l-5.85.05-4.2,2.91c-.2.02-.51.01-.64-.07s-.21-.46-.17-.62l.84-2.75c-2.55-1.13-3.94-3.8-3.49-6.56C15.59,2.51,17.8.18,20.62.07c2.68-.11,5.23-.07,7.92-.02,3.27.06,5.77,2.86,5.77,6.08s-2.37,5.85-5.63,6.03ZM22.49,11.1l6.12-.05c2.78-.02,4.78-2.68,4.56-5.33-.24-2.76-2.58-4.64-5.36-4.61l-7.05.06c-2.38.02-4.19,2.03-4.49,4.2-.32,2.35.92,4.53,3.12,5.39.31.12.54.46.45.77l-.51,1.7,3.16-2.14Z"/>
      <path class="cls-1" d="M14.81,18.25c-.25,3.02-2.86,5.06-5.66,4.76-2.94-.32-4.99-2.92-4.58-5.91.38-2.8,2.9-4.76,5.64-4.46,2.75.3,4.84,2.7,4.59,5.62ZM8.97,21.86c2.46.43,4.54-1.43,4.72-3.74.18-2.32-1.62-4.39-4.02-4.39-2.14,0-3.82,1.68-4.02,3.69s1.15,4.07,3.32,4.45Z"/>
      <path class="cls-1" d="M45.14,18.37c-.21,3.44-3.43,5.55-6.57,4.68-3.14-.87-4.69-4.42-3.17-7.39,1.12-2.19,3.57-3.28,5.93-2.66,2.33.61,3.98,2.78,3.82,5.36ZM40.44,22.11c2.11-.24,3.57-2.02,3.6-3.98.03-1.97-1.31-3.72-3.32-4.1-2.46-.47-4.69,1.42-4.79,3.85-.11,2.43,1.93,4.52,4.51,4.23Z"/>
    </g>
  </g>
</svg>